<?xml version='1.0' encoding='utf-8'?>
<svg width="272.700144mm" height="187.29558mm" viewBox="-34.087518 -23.321357 68.175036 46.823895" version="1.1" xmlns="http://www.w3.org/2000/svg">
  <g transform="scale(1,-1)" stroke-linecap="round">
    <g fill="none" stroke="rgb(125,141,150)" stroke-width="0.045" id="hidden" stroke-dasharray="0.5715 0.28575">
      <path d="M -26.96133,3.157266 A 0.9,0.4423852370802818 -1.045175893762412e-15 0,1 -26.738649,3.448579" />
      <path d="M -26.738649,3.448579 A 0.9000000000000002,0.44238523708028193 -1.045175893762412e-15 0,1 -28.538649,3.448579" />
      <path d="M -28.538649,3.448579 A 0.9,0.4423852370802818 -1.045175893762412e-15 0,1 -26.96133,3.157266" />
      <path d="M 18.535964,-3.617981 A 24.63,12.106609321430378 -1.045175893762412e-15 0,1 24.63,4.354277" />
      <path d="M 24.63,4.354277 A 24.63,12.106609321430378 -1.045175893762412e-15 0,1 -24.63,4.354277" />
      <path d="M -24.63,4.354277 A 24.63,12.106609321430378 -1.045175893762412e-15 0,1 18.535964,-3.617981" />
      <path d="M 2.519896,-9.522513 A 0.9,0.4423852370802818 -1.045175893762412e-15 0,1 2.742577,-9.231201" />
      <path d="M 2.742577,-9.231201 A 0.9,0.4423852370802818 -1.045175893762412e-15 0,1 0.942577,-9.231201" />
      <path d="M 0.942577,-9.231201 A 0.9,0.4423852370802818 -1.045175893762412e-15 0,1 2.519896,-9.522513" />
      <path d="M -1.165258,17.648443 A 0.9,0.4423852370802818 -1.045175893762412e-15 0,1 -0.942577,17.939755" />
      <path d="M -0.942577,17.939755 A 0.9,0.4423852370802818 -1.045175893762412e-15 0,1 -2.742577,17.939755" />
      <path d="M -2.742577,17.939755 A 0.9,0.4423852370802818 -1.045175893762412e-15 0,1 -1.165258,17.648443" />
      <path d="M 28.315968,4.968663 A 0.9,0.4423852370802818 -1.045175893762412e-15 0,1 28.538649,5.259976" />
      <path d="M 28.538649,5.259976 A 0.9000000000000002,0.44238523708028193 -1.045175893762412e-15 0,1 26.738649,5.259976" />
      <path d="M 26.738649,5.259976 A 0.9,0.4423852370802818 -1.045175893762412e-15 0,1 28.315968,4.968663" />
      <path d="M -26.96133,4.463549 A 0.9,0.4423852370802818 -1.045175893762412e-15 0,1 -26.738649,4.754862" />
      <path d="M -26.738649,4.754862 A 0.9000000000000002,0.44238523708028193 -1.045175893762412e-15 0,1 -28.538649,4.754862" />
      <path d="M -28.538649,4.754862 A 0.9,0.4423852370802818 -1.045175893762412e-15 0,1 -26.96133,4.463549" />
      <path d="M 18.535964,-1.223128 A 24.63,12.106609321430378 -1.045175893762412e-15 0,1 24.63,6.74913" />
      <path d="M 24.63,6.74913 A 24.63,12.106609321430378 -1.045175893762412e-15 0,1 -24.63,6.74913" />
      <path d="M -24.63,6.74913 A 24.63,12.106609321430378 -1.045175893762412e-15 0,1 18.535964,-1.223128" />
      <path d="M 2.519896,-8.21623 A 0.9,0.4423852370802818 -1.045175893762412e-15 0,1 2.742577,-7.924917" />
      <path d="M 2.742577,-7.924917 A 0.9,0.4423852370802818 -1.045175893762412e-15 0,1 0.942577,-7.924917" />
      <path d="M 0.942577,-7.924917 A 0.9,0.4423852370802818 -1.045175893762412e-15 0,1 2.519896,-8.21623" />
      <path d="M -1.165258,18.954726 A 0.9,0.4423852370802818 -1.045175893762412e-15 0,1 -0.942577,19.246039" />
      <path d="M -0.942577,19.246039 A 0.9,0.4423852370802818 -1.045175893762412e-15 0,1 -2.742577,19.246039" />
      <path d="M -2.742577,19.246039 A 0.9,0.4423852370802818 -1.045175893762412e-15 0,1 -1.165258,18.954726" />
      <path d="M 28.315968,6.274946 A 0.9,0.4423852370802818 -1.045175893762412e-15 0,1 28.538649,6.566259" />
      <path d="M 28.538649,6.566259 A 0.9000000000000002,0.44238523708028193 -1.045175893762412e-15 0,1 26.738649,6.566259" />
      <path d="M 26.738649,6.566259 A 0.9,0.4423852370802818 -1.045175893762412e-15 0,1 28.315968,6.274946" />
      <path d="M -26.396897,4.220789 A 1.65,0.81103960131385 -1.045175893762412e-15 0,1 -25.988649,4.754862" />
      <path d="M -25.988649,4.754862 A 1.6500000000000004,0.8110396013138502 -1.045175893762412e-15 0,1 -29.288649,4.754862" />
      <path d="M -29.288649,4.754862 A 1.65,0.81103960131385 -1.045175893762412e-15 0,1 -26.396897,4.220789" />
      <path d="M 3.084328,-8.458991 A 1.65,0.81103960131385 -1.045175893762412e-15 0,1 3.492577,-7.924917" />
      <path d="M 3.492577,-7.924917 A 1.65,0.81103960131385 -1.045175893762412e-15 0,1 0.192577,-7.924917" />
      <path d="M 0.192577,-7.924917 A 1.65,0.81103960131385 -1.045175893762412e-15 0,1 3.084328,-8.458991" />
      <path d="M -0.600825,18.711965 A 1.65,0.81103960131385 -1.045175893762412e-15 0,1 -0.192577,19.246039" />
      <path d="M -0.192577,19.246039 A 1.65,0.81103960131385 -1.045175893762412e-15 0,1 -3.492577,19.246039" />
      <path d="M -3.492577,19.246039 A 1.65,0.81103960131385 -1.045175893762412e-15 0,1 -0.600825,18.711965" />
      <path d="M 16.932976,-0.533688 A 22.5,11.059630927007046 -1.045175893762412e-15 0,1 22.5,6.74913" />
      <path d="M 22.5,6.74913 A 22.5,11.059630927007046 -1.045175893762412e-15 0,1 22.49891,6.857987" />
      <path d="M -22.49891,6.857987 A 22.5,11.059630927007046 -1.045175893762412e-15 0,1 -22.5,6.74913" />
      <path d="M -22.5,6.74913 A 22.5,11.059630927007046 -1.045175893762412e-15 0,1 16.932976,-0.533688" />
      <path d="M 28.8804,6.032186 A 1.65,0.81103960131385 -1.045175893762412e-15 0,1 29.288649,6.566259" />
      <path d="M 29.288649,6.566259 A 1.6500000000000004,0.8110396013138502 -1.045175893762412e-15 0,1 25.988649,6.566259" />
      <path d="M 25.988649,6.566259 A 1.65,0.81103960131385 -1.045175893762412e-15 0,1 28.8804,6.032186" />
      <path d="M 30.5,-6.966844 A 30.5,14.99194414549844 -1.045175893762412e-15 0,1 -30.5,-6.966844" />
      <path d="M 30.496867,4.569171 A 30.5,14.99194414549844 -1.045175893762412e-15 0,1 -30.5,4.354277" />
      <path d="M -30.5,4.354277 A 30.5,14.99194414549844 -1.045175893762412e-15 0,1 -30.348685,2.862773" />
      <path d="M 1.021085,-10.629263 A 30.5,14.99194414549844 -1.045175893762412e-15 0,1 2.893907,-10.570031" />
      <path d="M 9.557724,-11.07759 A 12.7,6.242547234355087 -1.045175893762412e-15 0,1 12.7,-6.966844" />
      <path d="M 12.7,-6.966844 A 12.7,6.242547234355087 -1.045175893762412e-15 0,1 -12.7,-6.966844" />
      <path d="M -12.7,-6.966844 A 12.7,6.242547234355087 -1.045175893762412e-15 0,1 9.557724,-11.07759" />
      <path d="M -26.641485,3.019702 A 1.325,0.6512893768126371 -1.045175893762412e-15 0,1 -26.313649,3.448579" />
      <path d="M -26.313649,3.448579 A 1.325,0.6512893768126371 -1.045175893762412e-15 0,1 -28.963649,3.448579" />
      <path d="M -28.963649,3.448579 A 1.325,0.6512893768126371 -1.045175893762412e-15 0,1 -26.641485,3.019702" />
      <path d="M 2.839741,-9.660078 A 1.325,0.6512893768126371 -1.045175893762412e-15 0,1 3.167577,-9.231201" />
      <path d="M 3.167577,-9.231201 A 1.325,0.6512893768126371 -1.045175893762412e-15 0,1 0.517577,-9.231201" />
      <path d="M 0.517577,-9.231201 A 1.325,0.6512893768126371 -1.045175893762412e-15 0,1 2.839741,-9.660078" />
      <path d="M -0.845412,17.510878 A 1.325,0.6512893768126371 -1.045175893762412e-15 0,1 -0.517577,17.939755" />
      <path d="M -0.517577,17.939755 A 1.325,0.6512893768126371 -1.045175893762412e-15 0,1 -3.167577,17.939755" />
      <path d="M -3.167577,17.939755 A 1.325,0.6512893768126371 -1.045175893762412e-15 0,1 -0.845412,17.510878" />
      <path d="M 19.642252,-4.093791 A 26.1,12.829171875328173 -1.045175893762412e-15 0,1 26.1,4.354277" />
      <path d="M 26.1,4.354277 A 26.1,12.829171875328173 -1.045175893762412e-15 0,1 -26.1,4.354277" />
      <path d="M -26.1,4.354277 A 26.1,12.829171875328173 -1.045175893762412e-15 0,1 19.642252,-4.093791" />
      <path d="M 28.635813,4.831099 A 1.325,0.6512893768126371 -1.045175893762412e-15 0,1 28.963649,5.259976" />
      <path d="M 28.963649,5.259976 A 1.325,0.6512893768126371 -1.045175893762412e-15 0,1 26.313649,5.259976" />
      <path d="M 26.313649,5.259976 A 1.325,0.6512893768126371 -1.045175893762412e-15 0,1 28.635813,4.831099" />
      <path d="M -15.17647,-14.237075 A 28.1,13.812250179951022 -1.045175893762412e-15 0,1 -13.762135,-14.654911" />
      <line x1="-13.762135" y1="-14.654911" x2="-13.593417" y2="-14.727476" />
      <line x1="-15.17647" y1="-15.616771" x2="-13.593417" y2="-14.727476" />
      <line x1="-15.17647" y1="-10.391638" x2="-13.593417" y2="-9.502343" />
      <line x1="-13.593417" y1="-14.727476" x2="-13.593417" y2="-9.502343" />
      <line x1="-24.207391" y1="-6.507469" x2="-22.624337" y2="-5.618174" />
      <line x1="-22.624337" y1="-5.618174" x2="-22.455618" y2="-5.690739" />
      <path d="M -22.455618,-5.690739 A 28.1,13.812250179951022 -1.045175893762412e-15 0,1 -13.762135,-9.429778" />
      <line x1="-13.762135" y1="-9.429778" x2="-13.593417" y2="-9.502343" />
      <line x1="-22.624337" y1="-7.441655" x2="-22.624337" y2="-5.618174" />
      <path d="M 9.557724,-10.041272 A 12.7,6.242547234355087 -1.045175893762412e-15 0,1 12.7,-5.930526" />
      <path d="M 12.7,-5.930526 A 12.7,6.242547234355087 -1.045175893762412e-15 0,1 -12.7,-5.930526" />
      <path d="M -12.7,-5.930526 A 12.7,6.242547234355087 -1.045175893762412e-15 0,1 9.557724,-10.041272" />
      <path d="M -26.641485,0.232964 A 1.325,0.6512893768126371 -1.045175893762412e-15 0,1 -26.313649,0.661841" />
      <path d="M -26.313649,0.661841 A 1.325,0.6512893768126371 -1.045175893762412e-15 0,1 -28.963649,0.661841" />
      <path d="M -28.963649,0.661841 A 1.325,0.6512893768126371 -1.045175893762412e-15 0,1 -26.641485,0.232964" />
      <path d="M 2.839741,-12.446815 A 1.325,0.6512893768126371 -1.045175893762412e-15 0,1 3.167577,-12.017938" />
      <path d="M 3.167577,-12.017938 A 1.325,0.6512893768126371 -1.045175893762412e-15 0,1 0.517577,-12.017938" />
      <path d="M 0.517577,-12.017938 A 1.325,0.6512893768126371 -1.045175893762412e-15 0,1 2.839741,-12.446815" />
      <path d="M -0.845412,14.724141 A 1.325,0.6512893768126371 -1.045175893762412e-15 0,1 -0.517577,15.153018" />
      <path d="M -0.517577,15.153018 A 1.325,0.6512893768126371 -1.045175893762412e-15 0,1 -3.167577,15.153018" />
      <path d="M -3.167577,15.153018 A 1.325,0.6512893768126371 -1.045175893762412e-15 0,1 -0.845412,14.724141" />
      <path d="M 19.642252,-4.746933 A 26.1,12.829171875328173 -1.045175893762412e-15 0,1 26.1,3.701136" />
      <path d="M 26.1,3.701136 A 26.1,12.829171875328173 -1.045175893762412e-15 0,1 -26.1,3.701136" />
      <path d="M -26.1,3.701136 A 26.1,12.829171875328173 -1.045175893762412e-15 0,1 19.642252,-4.746933" />
      <path d="M 28.635813,2.044361 A 1.325,0.6512893768126371 -1.045175893762412e-15 0,1 28.963649,2.473238" />
      <path d="M 28.963649,2.473238 A 1.325,0.6512893768126371 -1.045175893762412e-15 0,1 26.313649,2.473238" />
      <path d="M 26.313649,2.473238 A 1.325,0.6512893768126371 -1.045175893762412e-15 0,1 28.635813,2.044361" />
      <line x1="-22.455618" y1="-7.53263" x2="-22.455618" y2="-5.690739" />
      <path d="M -0.513578,-19.470504 A 28.1,13.812250179951024 180.0 0,0 -27.778501,-7.743949" />
      <line x1="-0.513578" y1="-19.470504" x2="-0.513578" y2="-10.761949" />
      <line x1="-27.778501" y1="-7.743949" x2="-27.778501" y2="0.964606" />
      <path d="M -0.513578,-10.761949 A 28.1,13.812250179951025 180.0 0,0 -27.778501,0.964606" />
      <line x1="-13.762135" y1="-14.654911" x2="-13.762135" y2="-9.429778" />
      <path d="M -26.923701,0.354345 A 0.95,0.46696219469585304 -1.045175893762412e-15 0,1 -26.688649,0.661841" />
      <path d="M -26.688649,0.661841 A 0.95,0.46696219469585304 -1.045175893762412e-15 0,1 -28.588649,0.661841" />
      <path d="M -28.588649,0.661841 A 0.95,0.46696219469585304 -1.045175893762412e-15 0,1 -26.923701,0.354345" />
      <path d="M 2.557524,-12.325435 A 0.95,0.46696219469585304 -1.045175893762412e-15 0,1 2.792577,-12.017938" />
      <path d="M 2.792577,-12.017938 A 0.95,0.46696219469585304 -1.045175893762412e-15 0,1 0.892577,-12.017938" />
      <path d="M 0.892577,-12.017938 A 0.95,0.46696219469585304 -1.045175893762412e-15 0,1 2.557524,-12.325435" />
      <path d="M -1.127629,14.845521 A 0.95,0.46696219469585304 -1.045175893762412e-15 0,1 -0.892577,15.153018" />
      <path d="M -0.892577,15.153018 A 0.95,0.46696219469585304 -1.045175893762412e-15 0,1 -2.792577,15.153018" />
      <path d="M -2.792577,15.153018 A 0.95,0.46696219469585304 -1.045175893762412e-15 0,1 -1.127629,14.845521" />
      <path d="M 18.73916,-4.358516 A 24.9,12.239324892554464 -1.045175893762412e-15 0,1 24.9,3.701136" />
      <path d="M 24.9,3.701136 A 24.9,12.239324892554464 -1.045175893762412e-15 0,1 -24.9,3.701136" />
      <path d="M -24.9,3.701136 A 24.9,12.239324892554464 -1.045175893762412e-15 0,1 18.73916,-4.358516" />
      <path d="M 28.353597,2.165742 A 0.95,0.46696219469585304 -1.045175893762412e-15 0,1 28.588649,2.473238" />
      <path d="M 28.588649,2.473238 A 0.95,0.46696219469585304 -1.045175893762412e-15 0,1 26.688649,2.473238" />
      <path d="M 26.688649,2.473238 A 0.95,0.46696219469585304 -1.045175893762412e-15 0,1 28.353597,2.165742" />
      <path d="M 27.778501,-3.577173 A 2.4,1.1796939655474181 -1.045175893762412e-15 0,1 25.238649,-4.754862" />
      <path d="M 25.238649,-4.754862 A 2.4,1.1796939655474181 -1.045175893762412e-15 0,1 28.095306,-5.913004" />
      <path d="M 28.095306,-5.913004 A 28.1,13.812250179951024 180.0 0,0 4.238498,-19.314782" />
      <path d="M 4.238498,-19.314782 A 2.4,1.1796939655474181 -1.045175893762412e-15 0,1 4.242577,-19.246039" />
      <path d="M 4.242577,-19.246039 A 2.4,1.1796939655474181 -1.045175893762412e-15 0,1 -0.557423,-19.246039" />
      <path d="M -0.557423,-19.246039 A 2.4,1.1796939655474181 -1.045175893762412e-15 0,1 -0.513578,-19.470504" />
      <path d="M -27.778501,-7.743949 A 2.4,1.1796939655474181 2.0079786108372799e-16 0,1 -25.238649,-6.566259" />
      <path d="M -25.238649,-6.566259 A 2.4,1.1796939655474181 2.0079786108372799e-16 0,1 -28.095306,-5.408117" />
      <path d="M -28.095306,-5.408117 A 28.1,13.812250179951024 180.0 0,0 -4.238498,7.99366" />
      <path d="M -4.238498,7.99366 A 2.4,1.1796939655474183 -1.9868416319579183e-15 0,1 -4.242577,7.924917" />
      <path d="M -4.242577,7.924917 A 2.4,1.1796939655474183 -1.9868416319579183e-15 0,1 0.557423,7.924917" />
      <path d="M 0.557423,7.924917 A 2.4,1.1796939655474183 -1.9868416319579183e-15 0,1 0.513578,8.149382" />
      <path d="M 0.513578,8.149382 A 28.1,13.812250179951024 180.0 0,0 27.778501,-3.577173" />
      <line x1="4.238498" y1="-19.314782" x2="4.238498" y2="-10.606227" />
      <path d="M 4.238498,-10.606227 A 2.4,1.1796939655474181 -1.045175893762412e-15 0,1 4.242577,-10.537484" />
      <path d="M 4.242577,-10.537484 A 2.4,1.1796939655474181 -1.045175893762412e-15 0,1 -0.557423,-10.537484" />
      <path d="M -0.557423,-10.537484 A 2.4,1.1796939655474181 -1.045175893762412e-15 0,1 -0.513578,-10.761949" />
      <line x1="-28.095306" y1="-5.408117" x2="-28.095306" y2="3.300438" />
      <path d="M -27.778501,0.964606 A 2.4,1.1796939655474181 -9.849671840777871e-16 0,1 -25.238649,2.142296" />
      <path d="M -25.238649,2.142296 A 2.4,1.1796939655474181 -9.849671840777871e-16 0,1 -28.095306,3.300438" />
      <path d="M 27.778501,5.131382 A 2.4,1.1796939655474181 -1.045175893762412e-15 0,1 25.238649,3.953693" />
      <path d="M 25.238649,3.953693 A 2.4,1.1796939655474181 -1.045175893762412e-15 0,1 28.095306,2.795551" />
      <path d="M 28.095306,2.795551 A 28.1,13.812250179951025 180.0 0,0 4.238498,-10.606227" />
      <path d="M -28.095306,3.300438 A 28.1,13.812250179951025 180.0 0,0 -4.238498,16.702215" />
      <path d="M -4.238498,16.702215 A 2.4,1.1796939655474181 -1.5190958819402708e-15 0,1 -4.242577,16.633472" />
      <path d="M -4.242577,16.633472 A 2.4,1.1796939655474181 -1.5190958819402708e-15 1,1 0.557423,16.633472" />
      <path d="M 0.557423,16.633472 A 2.4,1.1796939655474181 -1.5190958819402708e-15 0,1 0.513578,16.857937" />
      <path d="M 0.513578,16.857937 A 28.1,13.812250179951025 180.0 0,0 27.778501,5.131382" />
      <path d="M 17.873696,-4.639425 A 23.75,11.674054867396325 -1.045175893762412e-15 0,1 23.75,3.047994" />
      <path d="M 23.75,3.047994 A 23.75,11.674054867396325 -1.045175893762412e-15 0,1 -23.75,3.047994" />
      <path d="M -23.75,3.047994 A 23.75,11.674054867396325 -1.045175893762412e-15 0,1 17.873696,-4.639425" />
      <path d="M -26.923701,-1.039024 A 0.95,0.46696219469585304 -1.045175893762412e-15 0,1 -26.688649,-0.731527" />
      <path d="M -26.688649,-0.731527 A 0.95,0.46696219469585304 -1.045175893762412e-15 0,1 -28.588649,-0.731527" />
      <path d="M -28.588649,-0.731527 A 0.95,0.46696219469585304 -1.045175893762412e-15 0,1 -26.923701,-1.039024" />
      <path d="M 2.557524,-13.718804 A 0.95,0.46696219469585304 -1.045175893762412e-15 0,1 2.792577,-13.411307" />
      <path d="M 2.792577,-13.411307 A 0.95,0.46696219469585304 -1.045175893762412e-15 0,1 0.892577,-13.411307" />
      <path d="M 0.892577,-13.411307 A 0.95,0.46696219469585304 -1.045175893762412e-15 0,1 2.557524,-13.718804" />
      <path d="M -1.127629,13.452152 A 0.95,0.46696219469585304 -1.045175893762412e-15 0,1 -0.892577,13.759649" />
      <path d="M -0.892577,13.759649 A 0.95,0.46696219469585304 -1.045175893762412e-15 0,1 -2.792577,13.759649" />
      <path d="M -2.792577,13.759649 A 0.95,0.46696219469585304 -1.045175893762412e-15 0,1 -1.127629,13.452152" />
      <path d="M 18.73916,-3.705374 A 24.9,12.239324892554464 -1.045175893762412e-15 0,1 24.9,4.354277" />
      <path d="M 24.9,4.354277 A 24.9,12.239324892554464 -1.045175893762412e-15 0,1 -24.9,4.354277" />
      <path d="M -24.9,4.354277 A 24.9,12.239324892554464 -1.045175893762412e-15 0,1 18.73916,-3.705374" />
      <path d="M 28.353597,0.772373 A 0.95,0.46696219469585304 -1.045175893762412e-15 0,1 28.588649,1.07987" />
      <path d="M 28.588649,1.07987 A 0.95,0.46696219469585304 -1.045175893762412e-15 0,1 26.688649,1.07987" />
      <path d="M 26.688649,1.07987 A 0.95,0.46696219469585304 -1.045175893762412e-15 0,1 28.353597,0.772373" />
      <line x1="27.778501" y1="-3.577173" x2="27.778501" y2="5.131382" />
      <line x1="28.095306" y1="-5.913004" x2="28.095306" y2="2.795551" />
      <line x1="-4.238498" y1="7.99366" x2="-4.238498" y2="16.702215" />
      <line x1="0.513578" y1="8.149382" x2="0.513578" y2="16.857937" />
      <path d="M 17.873696,-3.333142 A 23.75,11.674054867396325 -1.045175893762412e-15 0,1 23.75,4.354277" />
      <path d="M 23.75,4.354277 A 23.75,11.674054867396325 -1.045175893762412e-15 0,1 -23.75,4.354277" />
      <path d="M -23.75,4.354277 A 23.75,11.674054867396325 -1.045175893762412e-15 0,1 17.873696,-3.333142" />
      <path d="M -12.094821,-8.128095 A 12.45,6.119662446277232 -1.045175893762412e-15 0,1 -12.45,-9.57941" />
      <path d="M -12.45,-9.57941 A 12.45,6.119662446277232 -1.045175893762412e-15 0,1 4.531972,-15.279224" />
      <path d="M -12.027505,-6.692415 A 12.45,6.119662446277232 -1.862069325255075e-15 0,1 -12.094821,-6.821812" />
      <path d="M 4.783954,-13.922969 A 12.45,6.119662446277232 180.0 0,0 4.531972,-13.972941" />
      <path d="M -4.783954,-2.623285 A 12.45,6.119662446277232 -1.045175893762412e-15 0,1 -12.027505,-6.692415" />
      <path d="M 4.783954,-13.922969 A 12.45,6.119662446277232 -1.045175893762412e-15 0,1 9.36958,-12.302953" />
      <path d="M -4.783954,-2.623285 A 12.45,6.119662446277232 180.0 0,0 -4.531972,-2.573313" />
      <path d="M 9.36958,-10.99667 A 12.45,6.119662446277232 -1.045175893762412e-15 0,1 12.45,-6.966844" />
      <path d="M 12.45,-6.966844 A 12.45,6.119662446277232 -1.045175893762412e-15 0,1 -12.45,-6.966844" />
      <path d="M -12.45,-6.966844 A 12.45,6.119662446277232 -1.045175893762412e-15 0,1 9.36958,-10.99667" />
      <path d="M 12.094821,-11.030726 A 12.45,6.119662446277232 -1.045175893762412e-15 0,1 12.45,-9.57941" />
      <path d="M 12.45,-9.57941 A 12.45,6.119662446277232 -1.045175893762412e-15 0,1 -4.531972,-3.879596" />
      <path d="M 9.36958,-12.302953 A 12.45,6.119662446277232 -1.045175893762412e-15 0,1 12.027505,-9.853839" />
      <path d="M 12.027505,-9.853839 A 12.45,6.119662446277232 -1.862069325255075e-15 0,1 12.094821,-9.724443" />
      <path d="M -12.094821,-8.128095 A 0.45,0.22119261854014094 -1.862069325255075e-15 0,1 -12.081983,-8.075638" />
      <path d="M -12.081983,-8.075638 A 0.45,0.22119261854014094 -1.862069325255075e-15 0,1 -12.235656,-7.909173" />
      <path d="M 4.531972,-15.279224 A 0.45,0.22119261854014094 180.0 0,0 4.992105,-15.318777" />
      <line x1="-13.327389" y1="-7.439622" x2="-12.235656" y2="-7.909173" />
      <line x1="4.992105" y1="-15.318777" x2="6.083838" y2="-15.788328" />
      <path d="M -13.327389,-7.439622 A 0.45,0.22119261854014094 180.0 0,0 -13.481062,-7.273158" />
      <path d="M -13.481062,-7.273158 A 0.45,0.22119261854014094 180.0 0,0 -13.454454,-7.198225" />
      <path d="M 6.083838,-15.788328 A 0.45,0.22119261854014094 -1.862069325255075e-15 0,1 6.587463,-15.818189" />
      <path d="M -6.587463,-3.340631 A 14.3,7.029009878053367 -1.045175893762412e-15 0,1 -13.454454,-7.198225" />
      <path d="M 6.587463,-15.818189 A 14.3,7.029009878053368 -1.1180062287387202e-15 0,1 13.454454,-11.960595" />
      <path d="M -6.083838,-3.370492 A 0.45,0.22119261854014094 -1.862069325255075e-15 0,1 -6.587463,-3.340631" />
      <path d="M 13.327389,-11.719198 A 0.45,0.22119261854014094 180.0 0,0 13.481062,-11.885663" />
      <path d="M 13.481062,-11.885663 A 0.45,0.22119261854014094 180.0 0,0 13.454454,-11.960595" />
      <line x1="-6.083838" y1="-3.370492" x2="-4.992105" y2="-3.840043" />
      <line x1="12.235656" y1="-11.249647" x2="13.327389" y2="-11.719198" />
      <path d="M -4.531972,-3.879596 A 0.45,0.22119261854014094 180.0 0,0 -4.992105,-3.840043" />
      <path d="M 12.094821,-11.030726 A 0.45,0.22119261854014094 -1.862069325255075e-15 0,1 12.081983,-11.083183" />
      <path d="M 12.081983,-11.083183 A 0.45,0.22119261854014094 -1.862069325255075e-15 0,1 12.235656,-11.249647" />
      <path d="M -12.094821,-6.821812 A 0.45,0.22119261854014094 -1.862069325255075e-15 0,1 -12.081983,-6.769354" />
      <path d="M -12.081983,-6.769354 A 0.45,0.22119261854014094 -1.862069325255075e-15 0,1 -12.235656,-6.60289" />
      <path d="M 4.531972,-13.972941 A 0.45,0.22119261854014094 180.0 0,0 4.992105,-14.012494" />
      <path d="M -6.587463,-2.034348 A 14.3,7.029009878053367 -1.045175893762412e-15 0,1 -13.454454,-5.891942" />
      <path d="M -6.083838,-2.064209 A 0.45,0.22119261854014094 -1.862069325255075e-15 0,1 -6.587463,-2.034348" />
      <path d="M -13.327389,-6.133339 A 0.45,0.22119261854014094 180.0 0,0 -13.481062,-5.966875" />
      <path d="M -13.481062,-5.966875 A 0.45,0.22119261854014094 180.0 0,0 -13.454454,-5.891942" />
      <line x1="-6.083838" y1="-2.064209" x2="-4.992105" y2="-2.53376" />
      <line x1="-13.327389" y1="-6.133339" x2="-12.235656" y2="-6.60289" />
      <path d="M -4.531972,-2.573313 A 0.45,0.22119261854014094 180.0 0,0 -4.992105,-2.53376" />
      <line x1="12.235656" y1="-9.943364" x2="13.327389" y2="-10.412915" />
      <path d="M 12.094821,-9.724443 A 0.45,0.22119261854014094 -1.862069325255075e-15 0,1 12.081983,-9.7769" />
      <path d="M 12.081983,-9.7769 A 0.45,0.22119261854014094 -1.862069325255075e-15 0,1 12.235656,-9.943364" />
      <path d="M 13.327389,-10.412915 A 0.45,0.22119261854014094 180.0 0,0 13.481062,-10.579379" />
      <path d="M 13.481062,-10.579379 A 0.45,0.22119261854014094 180.0 0,0 13.454454,-10.654312" />
      <path d="M 13.454454,-10.654312 A 14.3,7.029009878053367 180.0 0,0 6.587463,-14.511906" />
      <path d="M 6.083838,-14.482045 A 0.45,0.22119261854014094 -1.862069325255075e-15 0,1 6.587463,-14.511906" />
      <line x1="4.992105" y1="-14.012494" x2="6.083838" y2="-14.482045" />
      <path d="M 28.767514,6.080738 A 1.5,0.7373087284671364 -1.045175893762412e-15 0,1 29.138649,6.566259" />
      <path d="M 29.138649,6.566259 A 1.5,0.7373087284671364 -1.045175893762412e-15 0,1 26.138649,6.566259" />
      <path d="M 26.138649,6.566259 A 1.5,0.7373087284671364 -1.045175893762412e-15 0,1 28.767514,6.080738" />
      <path d="M 28.24071,6.307314 A 0.8,0.39323132184913945 -1.045175893762412e-15 0,1 28.438649,6.566259" />
      <path d="M 28.438649,6.566259 A 0.8000000000000006,0.3932313218491397 -1.045175893762412e-15 0,1 26.838649,6.566259" />
      <path d="M 26.838649,6.566259 A 0.8,0.39323132184913945 -1.045175893762412e-15 0,1 28.24071,6.307314" />
      <path d="M 28.24071,1.082182 A 0.8,0.39323132184913945 -1.045175893762412e-15 0,1 28.438649,1.341126" />
      <path d="M 28.438649,1.341126 A 0.8000000000000006,0.3932313218491397 -1.045175893762412e-15 0,1 26.838649,1.341126" />
      <path d="M 26.838649,1.341126 A 0.8,0.39323132184913945 -1.045175893762412e-15 0,1 28.24071,1.082182" />
      <path d="M -0.713712,18.760517 A 1.5,0.7373087284671364 -1.045175893762412e-15 0,1 -0.342577,19.246039" />
      <path d="M -0.342577,19.246039 A 1.5,0.7373087284671364 -1.045175893762412e-15 0,1 -3.342577,19.246039" />
      <path d="M -3.342577,19.246039 A 1.5,0.7373087284671364 -1.045175893762412e-15 0,1 -0.713712,18.760517" />
      <path d="M -1.240515,18.987094 A 0.8,0.39323132184913945 -1.045175893762412e-15 0,1 -1.042577,19.246039" />
      <path d="M -1.042577,19.246039 A 0.8,0.39323132184913945 -1.045175893762412e-15 0,1 -2.642577,19.246039" />
      <path d="M -2.642577,19.246039 A 0.8,0.39323132184913945 -1.045175893762412e-15 0,1 -1.240515,18.987094" />
      <path d="M -1.240515,13.761961 A 0.8,0.39323132184913945 -1.045175893762412e-15 0,1 -1.042577,14.020906" />
      <path d="M -1.042577,14.020906 A 0.8,0.39323132184913945 -1.045175893762412e-15 0,1 -2.642577,14.020906" />
      <path d="M -2.642577,14.020906 A 0.8,0.39323132184913945 -1.045175893762412e-15 0,1 -1.240515,13.761961" />
      <path d="M -26.509784,4.269341 A 1.5,0.7373087284671364 -1.045175893762412e-15 0,1 -26.138649,4.754862" />
      <path d="M -26.138649,4.754862 A 1.5,0.7373087284671364 -1.045175893762412e-15 0,1 -29.138649,4.754862" />
      <path d="M -29.138649,4.754862 A 1.5,0.7373087284671364 -1.045175893762412e-15 0,1 -26.509784,4.269341" />
      <path d="M -27.036588,4.495917 A 0.8,0.39323132184913945 -1.045175893762412e-15 0,1 -26.838649,4.754862" />
      <path d="M -26.838649,4.754862 A 0.8000000000000006,0.3932313218491397 -1.045175893762412e-15 0,1 -28.438649,4.754862" />
      <path d="M -28.438649,4.754862 A 0.8,0.39323132184913945 -1.045175893762412e-15 0,1 -27.036588,4.495917" />
      <path d="M -27.036588,-0.729215 A 0.8,0.39323132184913945 -1.045175893762412e-15 0,1 -26.838649,-0.470271" />
      <path d="M -26.838649,-0.470271 A 0.8000000000000006,0.3932313218491397 -1.045175893762412e-15 0,1 -28.438649,-0.470271" />
      <path d="M -28.438649,-0.470271 A 0.8,0.39323132184913945 -1.045175893762412e-15 0,1 -27.036588,-0.729215" />
      <path d="M 2.971442,-8.410439 A 1.5,0.7373087284671364 -1.045175893762412e-15 0,1 3.342577,-7.924917" />
      <path d="M 3.342577,-7.924917 A 1.5,0.7373087284671364 -1.045175893762412e-15 0,1 0.342577,-7.924917" />
      <path d="M 0.342577,-7.924917 A 1.5,0.7373087284671364 -1.045175893762412e-15 0,1 2.971442,-8.410439" />
      <path d="M 2.444638,-8.183862 A 0.8,0.39323132184913945 -1.045175893762412e-15 0,1 2.642577,-7.924917" />
      <path d="M 2.642577,-7.924917 A 0.8,0.39323132184913945 -1.045175893762412e-15 0,1 1.042577,-7.924917" />
      <path d="M 1.042577,-7.924917 A 0.8,0.39323132184913945 -1.045175893762412e-15 0,1 2.444638,-8.183862" />
      <path d="M 2.444638,-13.408995 A 0.8,0.39323132184913945 -1.045175893762412e-15 0,1 2.642577,-13.15005" />
      <path d="M 2.642577,-13.15005 A 0.8,0.39323132184913945 -1.045175893762412e-15 0,1 1.042577,-13.15005" />
      <path d="M 1.042577,-13.15005 A 0.8,0.39323132184913945 -1.045175893762412e-15 0,1 2.444638,-13.408995" />
      <path d="M 18.423077,-1.174576 A 24.48,12.032878448583666 -1.045175893762412e-15 0,1 24.48,6.74913" />
      <path d="M 24.48,6.74913 A 24.48,12.032878448583666 -1.045175893762412e-15 0,1 -24.48,6.74913" />
      <path d="M -24.48,6.74913 A 24.48,12.032878448583666 -1.045175893762412e-15 0,1 18.423077,-1.174576" />
      <path d="M 18.423077,-2.132517 A 24.48,12.032878448583666 -1.045175893762412e-15 0,1 24.48,5.791189" />
      <path d="M 24.48,5.791189 A 24.48,12.032878448583666 -1.045175893762412e-15 0,1 -24.48,5.791189" />
      <path d="M -24.48,5.791189 A 24.48,12.032878448583666 -1.045175893762412e-15 0,1 18.423077,-2.132517" />
      <path d="M 22.079956,6.770901 A 22.08,10.853184483036246 -1.045175893762412e-15 0,1 -22.079956,6.770901" />
      <path d="M -7.0775,-3.53139 A 22.08,10.853184483036246 -1.045175893762412e-15 0,1 7.0775,-3.53139" />
      <path d="M 16.466378,-0.324297 A 21.88,10.754876652573962 -1.045175893762412e-15 0,1 21.88,6.757839" />
      <path d="M 21.88,6.757839 A 21.88,10.754876652573962 -1.045175893762412e-15 0,1 -21.88,6.757839" />
      <path d="M -21.88,6.757839 A 21.88,10.754876652573962 -1.045175893762412e-15 0,1 16.466378,-0.324297" />
      <line x1="-30.4507" y1="5.679356" x2="-2.02208" y2="21.64939" />
      <line x1="-2.02208" y1="20.952706" x2="-2.02208" y2="21.64939" />
      <line x1="-32.543768" y1="3.806872" x2="-2.02208" y2="20.952706" />
      <line x1="5.915692" y1="-8.175831" x2="30.441288" y2="5.601644" />
      <line x1="2.02208" y1="-11.059787" x2="30.302211" y2="4.826832" />
      <line x1="-29.334455" y1="2.426556" x2="2.02208" y2="-11.059787" />
      <line x1="-29.792049" y1="3.32005" x2="-2.520772" y2="-8.409237" />
      <line x1="-2.02208" y1="20.952706" x2="32.543768" y2="6.086047" />
      <line x1="-2.02208" y1="21.64939" x2="30.411775" y2="7.699694" />
      <line x1="25.728089" y1="4.020603" x2="25.728089" y2="4.891459" />
      <path d="M 0.30197,15.82715 A 26.0,12.780017960097032 180.0 0,0 25.728089,4.891459" />
      <line x1="0.30197" y1="14.956295" x2="0.30197" y2="15.82715" />
      <path d="M 25.728089,4.020603 A 26.0,12.78001796009703 -1.8004808892060536e-15 0,1 0.30197,14.956295" />
      <path d="M 25.728089,4.891459 A 2.7,1.3271557112408456 -1.045175893762412e-15 0,1 24.938649,3.953693" />
      <path d="M 24.938649,3.953693 A 2.7,1.3271557112408456 -1.045175893762412e-15 0,1 25.998246,2.899564" />
      <line x1="25.998246" y1="2.028709" x2="25.998246" y2="2.899564" />
      <path d="M 25.728089,4.020603 A 2.7,1.3271557112408456 -1.045175893762412e-15 0,1 24.938649,3.082837" />
      <path d="M 24.938649,3.082837 A 2.7,1.3271557112408456 -1.045175893762412e-15 0,1 25.998246,2.028709" />
      <path d="M 25.998246,2.899564 A 26.0,12.780017960097032 180.0 0,0 3.750392,-9.598369" />
      <path d="M 3.750392,-9.598369 A 2.7,1.3271557112408456 -1.045175893762412e-15 0,1 -0.30197,-9.731162" />
      <path d="M -0.30197,-9.731162 A 26.0,12.780017960097032 180.0 0,0 -25.728089,1.20453" />
      <path d="M -25.998246,3.196424 A 2.7,1.3271557112408456 180.0 0,0 -24.938649,2.142296" />
      <path d="M -24.938649,2.142296 A 2.7,1.3271557112408456 180.0 0,0 -25.728089,1.20453" />
      <path d="M -25.998246,3.196424 A 26.0,12.780017960097032 180.0 0,0 -3.750392,15.694357" />
      <path d="M 0.30197,15.82715 A 2.7,1.3271557112408456 -180.0 0,0 -3.750392,15.694357" />
      <line x1="-3.750392" y1="14.823502" x2="-3.750392" y2="15.694357" />
      <path d="M 0.30197,14.956295 A 2.7,1.3271557112408452 180.0 0,0 -3.750392,14.823502" />
      <path d="M 3.750392,-10.469224 A 26.0,12.78001796009703 -1.8004808892060536e-15 0,1 25.998246,2.028709" />
      <path d="M 3.750392,-10.469224 A 2.7,1.3271557112408456 -1.045175893762412e-15 0,1 -0.30197,-10.602017" />
      <path d="M -25.728089,0.333674 A 26.0,12.78001796009703 -1.8004808892060536e-15 0,1 -0.30197,-10.602017" />
      <path d="M -25.728089,0.333674 A 2.7,1.3271557112408456 -3.2009336429754735e-15 0,1 -24.938649,1.27144" />
      <path d="M -24.938649,1.27144 A 2.7,1.3271557112408456 -3.2009336429754735e-15 0,1 -25.998246,2.325569" />
      <path d="M -3.750392,14.823502 A 26.0,12.78001796009703 -1.8004808892060536e-15 0,1 -25.998246,2.325569" />
      <line x1="3.750392" y1="-10.469224" x2="3.750392" y2="-9.598369" />
      <line x1="-0.30197" y1="-10.602017" x2="-0.30197" y2="-9.731162" />
      <line x1="-25.728089" y1="0.333674" x2="-25.728089" y2="1.20453" />
      <line x1="-25.998246" y1="2.325569" x2="-25.998246" y2="3.196424" />
      <line x1="-23.988382" y1="-7.66584" x2="-23.988382" y2="-1.569852" />
      <line x1="-23.988382" y1="-1.569852" x2="-2.916235" y2="10.267617" />
      <line x1="-2.916235" y1="4.171629" x2="-2.916235" y2="10.267617" />
      <line x1="-23.988382" y1="-7.66584" x2="-2.916235" y2="4.171629" />
      <line x1="-3.668811" y1="-16.405222" x2="-3.668811" y2="-10.309233" />
      <line x1="-3.668811" y1="-10.309233" x2="17.403336" y2="1.528236" />
      <line x1="17.403336" y1="-4.567753" x2="17.403336" y2="1.528236" />
      <line x1="-3.668811" y1="-16.405222" x2="17.403336" y2="-4.567753" />
      <line x1="-23.988382" y1="-7.66584" x2="-22.455618" y2="-8.325077" />
      <line x1="-15.17647" y1="-11.455815" x2="-3.668811" y2="-16.405222" />
      <line x1="-23.988382" y1="-1.569852" x2="-3.668811" y2="-10.309233" />
      <line x1="-2.916235" y1="4.171629" x2="17.403336" y2="-4.567753" />
      <line x1="-2.916235" y1="10.267617" x2="17.403336" y2="1.528236" />
      <line x1="5.32448" y1="1.49818" x2="5.32448" y2="6.723313" />
      <line x1="5.32448" y1="6.723313" x2="11.909526" y2="10.422522" />
      <line x1="11.909526" y1="5.197389" x2="11.909526" y2="10.422522" />
      <line x1="5.32448" y1="1.49818" x2="11.909526" y2="5.197389" />
      <line x1="12.850247" y1="-1.738628" x2="12.850247" y2="3.486505" />
      <line x1="12.850247" y1="3.486505" x2="19.435293" y2="7.185714" />
      <line x1="19.435293" y1="1.960581" x2="19.435293" y2="7.185714" />
      <line x1="12.850247" y1="-1.738628" x2="19.435293" y2="1.960581" />
      <line x1="5.32448" y1="1.49818" x2="12.850247" y2="-1.738628" />
      <line x1="5.32448" y1="6.723313" x2="12.850247" y2="3.486505" />
      <line x1="11.909526" y1="5.197389" x2="19.435293" y2="1.960581" />
      <line x1="11.909526" y1="10.422522" x2="19.435293" y2="7.185714" />
      <line x1="3.913399" y1="0.798798" x2="3.913399" y2="7.330214" />
      <line x1="3.913399" y1="7.330214" x2="11.815454" y2="11.769265" />
      <line x1="11.815454" y1="5.237849" x2="11.815454" y2="11.769265" />
      <line x1="3.913399" y1="0.798798" x2="11.815454" y2="5.237849" />
      <line x1="12.944319" y1="-3.085372" x2="12.944319" y2="3.446044" />
      <line x1="12.944319" y1="3.446044" x2="20.846374" y2="7.885095" />
      <line x1="20.846374" y1="1.353679" x2="20.846374" y2="7.885095" />
      <line x1="12.944319" y1="-3.085372" x2="20.846374" y2="1.353679" />
      <line x1="3.913399" y1="0.798798" x2="12.944319" y2="-3.085372" />
      <line x1="3.913399" y1="7.330214" x2="12.944319" y2="3.446044" />
      <line x1="11.815454" y1="5.237849" x2="20.846374" y2="1.353679" />
      <line x1="11.815454" y1="11.769265" x2="20.846374" y2="7.885095" />
      <line x1="30.5" y1="4.937942" x2="30.5" y2="5.634626" />
      <path d="M -30.5,4.789705 Q -30.499685,3.798841 -30.248362,2.819625" />
      <path d="M 0.61228,-10.453437 Q 1.934345,-10.440261 3.249219,-10.370431" />
      <line x1="-26.738649" y1="3.448579" x2="-26.738649" y2="4.754862" />
      <line x1="-28.538649" y1="3.448579" x2="-28.538649" y2="4.754862" />
      <line x1="24.63" y1="4.354277" x2="24.63" y2="6.74913" />
      <line x1="-24.63" y1="4.354277" x2="-24.63" y2="6.74913" />
      <line x1="2.742577" y1="-9.231201" x2="2.742577" y2="-7.924917" />
      <line x1="0.942577" y1="-9.231201" x2="0.942577" y2="-7.924917" />
      <line x1="-0.942577" y1="17.939755" x2="-0.942577" y2="19.246039" />
      <line x1="-2.742577" y1="17.939755" x2="-2.742577" y2="19.246039" />
      <line x1="28.538649" y1="5.259976" x2="28.538649" y2="6.566259" />
      <line x1="26.738649" y1="5.259976" x2="26.738649" y2="6.566259" />
      <line x1="-25.988649" y1="4.754862" x2="-25.988649" y2="6.061145" />
      <line x1="-29.288649" y1="4.754862" x2="-29.288649" y2="6.061145" />
      <line x1="3.492577" y1="-7.924917" x2="3.492577" y2="-6.618634" />
      <line x1="0.192577" y1="-7.924917" x2="0.192577" y2="-6.618634" />
      <line x1="-0.192577" y1="19.246039" x2="-0.192577" y2="20.552322" />
      <line x1="-3.492577" y1="19.246039" x2="-3.492577" y2="20.552322" />
      <line x1="22.5" y1="6.74913" x2="22.5" y2="6.966844" />
      <line x1="-22.5" y1="6.74913" x2="-22.5" y2="6.966844" />
      <line x1="29.288649" y1="6.566259" x2="29.288649" y2="7.872542" />
      <line x1="25.988649" y1="6.566259" x2="25.988649" y2="7.872542" />
      <line x1="-30.5" y1="2.927853" x2="-30.5" y2="4.354277" />
      <line x1="12.7" y1="-6.966844" x2="12.7" y2="-5.930526" />
      <line x1="-12.7" y1="-6.966844" x2="-12.7" y2="-5.930526" />
      <line x1="-26.313649" y1="0.661841" x2="-26.313649" y2="3.448579" />
      <line x1="-28.963649" y1="0.661841" x2="-28.963649" y2="3.448579" />
      <line x1="3.167577" y1="-12.017938" x2="3.167577" y2="-9.231201" />
      <line x1="0.517577" y1="-12.017938" x2="0.517577" y2="-9.231201" />
      <line x1="-0.517577" y1="15.153018" x2="-0.517577" y2="17.939755" />
      <line x1="-3.167577" y1="15.153018" x2="-3.167577" y2="17.939755" />
      <line x1="26.1" y1="3.701136" x2="26.1" y2="4.354277" />
      <line x1="-26.1" y1="3.701136" x2="-26.1" y2="4.354277" />
      <line x1="28.963649" y1="2.473238" x2="28.963649" y2="5.259976" />
      <line x1="26.313649" y1="2.473238" x2="26.313649" y2="5.259976" />
      <line x1="4.242577" y1="-19.246039" x2="4.242577" y2="-10.537484" />
      <line x1="-0.557423" y1="-19.246039" x2="-0.557423" y2="-10.537484" />
      <line x1="-25.238649" y1="-6.566259" x2="-25.238649" y2="2.142296" />
      <line x1="-26.688649" y1="-0.731527" x2="-26.688649" y2="0.661841" />
      <line x1="-28.588649" y1="-0.731527" x2="-28.588649" y2="0.661841" />
      <line x1="2.792577" y1="-13.411307" x2="2.792577" y2="-12.017938" />
      <line x1="0.892577" y1="-13.411307" x2="0.892577" y2="-12.017938" />
      <line x1="-0.892577" y1="13.759649" x2="-0.892577" y2="15.153018" />
      <line x1="-2.792577" y1="13.759649" x2="-2.792577" y2="15.153018" />
      <line x1="24.9" y1="3.701136" x2="24.9" y2="4.354277" />
      <line x1="-24.9" y1="3.701136" x2="-24.9" y2="4.354277" />
      <line x1="28.588649" y1="1.07987" x2="28.588649" y2="2.473238" />
      <line x1="26.688649" y1="1.07987" x2="26.688649" y2="2.473238" />
      <line x1="25.238649" y1="-4.754862" x2="25.238649" y2="3.953693" />
      <line x1="0.557423" y1="7.924917" x2="0.557423" y2="16.633472" />
      <line x1="-4.242577" y1="7.924917" x2="-4.242577" y2="16.633472" />
      <line x1="23.75" y1="3.047994" x2="23.75" y2="4.354277" />
      <line x1="-23.75" y1="3.047994" x2="-23.75" y2="4.354277" />
      <line x1="12.45" y1="-9.57941" x2="12.45" y2="-6.966844" />
      <line x1="-12.45" y1="-9.57941" x2="-12.45" y2="-6.966844" />
      <line x1="-12.081983" y1="-8.075638" x2="-12.081983" y2="-6.769354" />
      <line x1="12.081983" y1="-11.083183" x2="12.081983" y2="-9.7769" />
      <line x1="-13.481062" y1="-7.273158" x2="-13.481062" y2="-5.966875" />
      <line x1="13.481062" y1="-11.885663" x2="13.481062" y2="-10.579379" />
      <line x1="29.138649" y1="6.566259" x2="29.138649" y2="7.534665" />
      <line x1="26.138649" y1="6.566259" x2="26.138649" y2="7.534665" />
      <line x1="28.438649" y1="1.341126" x2="28.438649" y2="6.566259" />
      <line x1="26.838649" y1="1.341126" x2="26.838649" y2="6.566259" />
      <line x1="-0.342577" y1="19.246039" x2="-0.342577" y2="20.214445" />
      <line x1="-3.342577" y1="19.246039" x2="-3.342577" y2="20.214445" />
      <line x1="-1.042577" y1="14.020906" x2="-1.042577" y2="19.246039" />
      <line x1="-2.642577" y1="14.020906" x2="-2.642577" y2="19.246039" />
      <line x1="-26.138649" y1="4.754862" x2="-26.138649" y2="5.723268" />
      <line x1="-29.138649" y1="4.754862" x2="-29.138649" y2="5.723268" />
      <line x1="-26.838649" y1="-0.470271" x2="-26.838649" y2="4.754862" />
      <line x1="-28.438649" y1="-0.470271" x2="-28.438649" y2="4.754862" />
      <line x1="3.342577" y1="-7.924917" x2="3.342577" y2="-6.956512" />
      <line x1="0.342577" y1="-7.924917" x2="0.342577" y2="-6.956512" />
      <line x1="2.642577" y1="-13.15005" x2="2.642577" y2="-7.924917" />
      <line x1="1.042577" y1="-13.15005" x2="1.042577" y2="-7.924917" />
      <line x1="24.48" y1="5.791189" x2="24.48" y2="6.74913" />
      <line x1="-24.48" y1="5.791189" x2="-24.48" y2="6.74913" />
      <line x1="21.88" y1="6.757839" x2="21.88" y2="6.801381" />
      <line x1="-21.88" y1="6.757839" x2="-21.88" y2="6.801381" />
      <line x1="24.938649" y1="3.082837" x2="24.938649" y2="3.953693" />
      <line x1="-24.938649" y1="1.27144" x2="-24.938649" y2="2.142296" />
      <path d="M 30.5,4.789705 A 30.5,14.99194414549844 -1.045175893762412e-15 0,1 -30.5,4.789705" />
      <path d="M -30.5,4.789705 A 30.5,14.99194414549844 -1.045175893762412e-15 0,1 -30.233821,2.813371" />
      <path d="M 0.028214,-10.202233 A 30.5,14.99194414549844 -1.045175893762412e-15 0,1 3.75124,-10.088416" />
      <path d="M 30.5,6.531416 A 30.5,14.99194414549844 -1.045175893762412e-15 0,1 -30.5,6.531416" />
      <path d="M 22.577301,-5.356147 A 30.00000025032975,14.746174692389602 -1.045175893762412e-15 0,1 -22.577301,14.064701 A 30.00000025032975,14.746174692389602 -1.045175893762412e-15 0,1 22.577301,-5.356147" />
      <line x1="-12.094821" y1="-8.128095" x2="-12.094821" y2="-6.821812" />
      <line x1="4.531972" y1="-15.279224" x2="4.531972" y2="-13.972941" />
      <line x1="-4.531972" y1="-3.879596" x2="-4.531972" y2="-2.573313" />
      <line x1="12.094821" y1="-11.030726" x2="12.094821" y2="-9.724443" />
      <line x1="-12.235656" y1="-7.909173" x2="-12.235656" y2="-6.60289" />
      <line x1="4.992105" y1="-15.318777" x2="4.992105" y2="-14.012494" />
      <line x1="-4.992105" y1="-3.840043" x2="-4.992105" y2="-2.53376" />
      <line x1="12.235656" y1="-11.249647" x2="12.235656" y2="-9.943364" />
      <line x1="-13.327389" y1="-7.439622" x2="-13.327389" y2="-6.133339" />
      <line x1="6.083838" y1="-15.788328" x2="6.083838" y2="-14.482045" />
      <line x1="-13.454454" y1="-7.198225" x2="-13.454454" y2="-5.891942" />
      <line x1="6.587463" y1="-15.818189" x2="6.587463" y2="-14.511906" />
      <line x1="-6.587463" y1="-3.340631" x2="-6.587463" y2="-2.034348" />
      <line x1="13.454454" y1="-11.960595" x2="13.454454" y2="-10.654312" />
      <line x1="-6.083838" y1="-3.370492" x2="-6.083838" y2="-2.064209" />
      <line x1="13.327389" y1="-11.719198" x2="13.327389" y2="-10.412915" />
    </g>
    <g fill="none" stroke="rgb(24,136,196)" stroke-width="0.0875" id="visible">
      <path d="M -26.396897,5.527072 A 1.65,0.81103960131385 -1.045175893762412e-15 0,1 -25.988649,6.061145" />
      <path d="M -25.988649,6.061145 A 1.6500000000000004,0.8110396013138502 -1.045175893762412e-15 0,1 -29.288649,6.061145" />
      <path d="M -29.288649,6.061145 A 1.65,0.81103960131385 -1.045175893762412e-15 0,1 -26.396897,5.527072" />
      <path d="M 3.084328,-7.152708 A 1.65,0.81103960131385 -1.045175893762412e-15 0,1 3.492577,-6.618634" />
      <path d="M 3.492577,-6.618634 A 1.65,0.81103960131385 -1.045175893762412e-15 0,1 0.192577,-6.618634" />
      <path d="M 0.192577,-6.618634 A 1.65,0.81103960131385 -1.045175893762412e-15 0,1 3.084328,-7.152708" />
      <path d="M -0.600825,20.018249 A 1.65,0.81103960131385 -1.045175893762412e-15 0,1 -0.192577,20.552322" />
      <path d="M -0.192577,20.552322 A 1.65,0.81103960131385 -1.045175893762412e-15 0,1 -3.492577,20.552322" />
      <path d="M -3.492577,20.552322 A 1.65,0.81103960131385 -1.045175893762412e-15 0,1 -0.600825,20.018249" />
      <path d="M 16.932976,-0.315974 A 22.5,11.059630927007046 -1.045175893762412e-15 0,1 22.5,6.966844" />
      <path d="M 22.5,6.966844 A 22.5,11.059630927007046 -1.045175893762412e-15 0,1 -22.5,6.966844" />
      <path d="M -22.5,6.966844 A 22.5,11.059630927007046 -1.045175893762412e-15 0,1 16.932976,-0.315974" />
      <path d="M 28.8804,7.338469 A 1.65,0.81103960131385 -1.045175893762412e-15 0,1 29.288649,7.872542" />
      <path d="M 29.288649,7.872542 A 1.6500000000000004,0.8110396013138502 -1.045175893762412e-15 0,1 25.988649,7.872542" />
      <path d="M 25.988649,7.872542 A 1.65,0.81103960131385 -1.045175893762412e-15 0,1 28.8804,7.338469" />
      <path d="M 22.49891,6.857987 A 22.5,11.059630927007046 -1.045175893762412e-15 0,1 -22.49891,6.857987" />
      <line x1="22.953589" y1="-5.517987" x2="22.953589" y2="-16.839108" />
      <path d="M 22.953589,-16.839108 A 30.5,14.99194414549844 -1.045175893762412e-15 0,1 30.5,-6.966844" />
      <path d="M -30.5,-6.966844 A 30.5,14.99194414549844 -1.045175893762412e-15 0,1 22.953589,-16.839108" />
      <path d="M 22.953589,-5.517987 A 30.5,14.99194414549844 -1.045175893762412e-15 0,1 30.5,4.354277" />
      <path d="M 30.5,4.354277 A 30.5,14.99194414549844 -1.045175893762412e-15 0,1 30.496867,4.569171" />
      <path d="M -30.348685,2.862773 A 30.5,14.99194414549844 -1.045175893762412e-15 0,1 1.021085,-10.629263" />
      <path d="M 2.893907,-10.570031 A 30.5,14.99194414549844 -1.045175893762412e-15 0,1 22.953589,-5.517987" />
      <path d="M -24.207391,-11.732601 A 30.5,14.99194414549844 -1.045175893762412e-15 0,1 -15.17647,-15.616771" />
      <line x1="-15.17647" y1="-15.616771" x2="-15.17647" y2="-10.391638" />
      <path d="M -24.207391,-6.507469 A 30.5,14.99194414549844 -1.045175893762412e-15 0,1 -15.17647,-10.391638" />
      <line x1="-24.207391" y1="-11.732601" x2="-24.207391" y2="-6.507469" />
      <line x1="-24.207391" y1="-11.732601" x2="-22.624337" y2="-10.843307" />
      <line x1="-22.624337" y1="-10.843307" x2="-22.455618" y2="-10.915872" />
      <path d="M -22.455618,-10.915872 A 28.1,13.812250179951022 -1.045175893762412e-15 0,1 -15.17647,-14.237075" />
      <line x1="-22.624337" y1="-10.843307" x2="-22.624337" y2="-7.441655" />
      <line x1="-22.455618" y1="-10.915872" x2="-22.455618" y2="-7.53263" />
      <path d="M 28.767514,7.387021 A 1.5,0.7373087284671364 -1.045175893762412e-15 0,1 29.138649,7.872542" />
      <path d="M 29.138649,7.872542 A 1.5,0.7373087284671364 -1.045175893762412e-15 0,1 26.138649,7.872542" />
      <path d="M 26.138649,7.872542 A 1.5,0.7373087284671364 -1.045175893762412e-15 0,1 28.767514,7.387021" />
      <path d="M -0.713712,20.066801 A 1.5,0.7373087284671364 -1.045175893762412e-15 0,1 -0.342577,20.552322" />
      <path d="M -0.342577,20.552322 A 1.5,0.7373087284671364 -1.045175893762412e-15 0,1 -3.342577,20.552322" />
      <path d="M -3.342577,20.552322 A 1.5,0.7373087284671364 -1.045175893762412e-15 0,1 -0.713712,20.066801" />
      <path d="M -26.509784,5.575624 A 1.5,0.7373087284671364 -1.045175893762412e-15 0,1 -26.138649,6.061145" />
      <path d="M -26.138649,6.061145 A 1.5,0.7373087284671364 -1.045175893762412e-15 0,1 -29.138649,6.061145" />
      <path d="M -29.138649,6.061145 A 1.5,0.7373087284671364 -1.045175893762412e-15 0,1 -26.509784,5.575624" />
      <path d="M 2.971442,-7.104155 A 1.5,0.7373087284671364 -1.045175893762412e-15 0,1 3.342577,-6.618634" />
      <path d="M 3.342577,-6.618634 A 1.5,0.7373087284671364 -1.045175893762412e-15 0,1 0.342577,-6.618634" />
      <path d="M 0.342577,-6.618634 A 1.5,0.7373087284671364 -1.045175893762412e-15 0,1 2.971442,-7.104155" />
      <path d="M 16.616893,-0.354199 A 22.08,10.853184483036246 -1.045175893762412e-15 0,1 22.08,6.792673" />
      <path d="M 22.08,6.792673 A 22.08,10.853184483036246 -1.045175893762412e-15 0,1 -22.08,6.792673" />
      <path d="M -22.08,6.792673 A 22.08,10.853184483036246 -1.045175893762412e-15 0,1 16.616893,-0.354199" />
      <path d="M 16.616893,-0.397742 A 22.08,10.853184483036246 -1.045175893762412e-15 0,1 22.08,6.74913" />
      <path d="M 22.08,6.74913 A 22.08,10.853184483036246 -1.045175893762412e-15 0,1 22.079956,6.770901" />
      <path d="M -22.079956,6.770901 A 22.08,10.853184483036246 -1.045175893762412e-15 0,1 -22.08,6.74913" />
      <path d="M -22.08,6.74913 A 22.08,10.853184483036246 -1.045175893762412e-15 0,1 -7.0775,-3.53139" />
      <path d="M 7.0775,-3.53139 A 22.08,10.853184483036246 -1.045175893762412e-15 0,1 16.616893,-0.397742" />
      <path d="M 16.466378,-0.280755 A 21.88,10.754876652573962 -1.045175893762412e-15 0,1 21.88,6.801381" />
      <path d="M 21.88,6.801381 A 21.88,10.754876652573962 -1.045175893762412e-15 0,1 -21.88,6.801381" />
      <path d="M -21.88,6.801381 A 21.88,10.754876652573962 -1.045175893762412e-15 0,1 16.466378,-0.280755" />
      <line x1="-32.543768" y1="3.806872" x2="-32.543768" y2="4.503556" />
      <line x1="-32.543768" y1="4.503556" x2="-30.4507" y2="5.679356" />
      <line x1="2.02208" y1="-11.059787" x2="2.02208" y2="-10.363103" />
      <line x1="2.02208" y1="-10.363103" x2="5.915692" y2="-8.175831" />
      <line x1="30.441288" y1="5.601644" x2="32.543768" y2="6.782731" />
      <line x1="32.543768" y1="6.086047" x2="32.543768" y2="6.782731" />
      <line x1="30.302211" y1="4.826832" x2="32.543768" y2="6.086047" />
      <line x1="-32.543768" y1="3.806872" x2="-29.334455" y2="2.426556" />
      <line x1="-32.543768" y1="4.503556" x2="-29.792049" y2="3.32005" />
      <line x1="-2.520772" y1="-8.409237" x2="2.02208" y2="-10.363103" />
      <line x1="30.411775" y1="7.699694" x2="32.543768" y2="6.782731" />
      <line x1="-22.455618" y1="-8.325077" x2="-15.17647" y2="-11.455815" />
      <path d="M 22.953589,-5.082559 A 30.5,14.99194414549844 -1.045175893762412e-15 0,1 30.5,4.789705" />
      <path d="M -30.233821,2.813371 A 30.5,14.99194414549844 -1.045175893762412e-15 0,1 0.028214,-10.202233" />
      <path d="M 3.75124,-10.088416 A 30.5,14.99194414549844 -1.045175893762412e-15 0,1 22.953589,-5.082559" />
      <path d="M 22.953589,-3.340848 A 30.5,14.99194414549844 -1.045175893762412e-15 0,1 30.5,6.531416" />
      <path d="M -30.5,6.531416 A 30.5,14.99194414549844 -1.045175893762412e-15 0,1 22.953589,-3.340848" />
      <path d="M 22.577301,-2.74358 A 30.00000025032975,14.746174692389602 -1.045175893762412e-15 0,1 -22.577301,16.677268 A 30.00000025032975,14.746174692389602 -1.045175893762412e-15 0,1 22.577301,-2.74358" />
      <line x1="30.5" y1="4.789705" x2="30.5" y2="4.937942" />
      <line x1="30.5" y1="5.634626" x2="30.5" y2="6.531416" />
      <line x1="-30.5" y1="4.789705" x2="-30.5" y2="6.531416" />
      <path d="M 22.822186,-5.356644 C 26.054537,-3.543114 28.406166,-1.330368 29.597205,1.080744 C 30.193527,2.283753 30.500572,3.535789 30.5,4.789705" />
      <path d="M -30.248362,2.819625 C -29.580085,0.201872 -27.566892,-2.265591 -24.508517,-4.320439 C -21.45817,-6.378199 -17.355534,-8.028096 -12.69392,-9.084209 C -8.542748,-10.029028 -3.955195,-10.500709 0.61228,-10.453437" />
      <path d="M 3.249219,-10.370431 C 6.300633,-10.208709 9.303087,-9.81658 12.117507,-9.211553 C 16.195397,-8.337184 19.875815,-7.013964 22.822186,-5.356644" />
      <path d="M 30.5,6.531416 C 30.501838,8.317199 29.875985,10.09427 28.688678,11.74085 C 27.678874,13.144655 26.264822,14.459505 24.508517,15.64156 C 21.45817,17.69932 17.355534,19.349218 12.69392,20.405331 C 8.823799,21.285862 4.574414,21.756313 0.315582,21.776797 C -3.943187,21.799998 -8.211403,21.373232 -12.117507,20.532674 C -17.034587,19.479617 -21.366104,17.77109 -24.544663,15.617178 C -26.866882,14.048312 -28.585038,12.24511 -29.56035,10.314008 C -30.180805,9.088452 -30.500615,7.810956 -30.5,6.531416" />
      <line x1="30.5" y1="-6.966844" x2="30.5" y2="4.354277" />
      <line x1="-30.5" y1="-6.966844" x2="-30.5" y2="2.927853" />
      <line x1="29.138649" y1="7.534665" x2="29.138649" y2="7.872542" />
      <line x1="26.138649" y1="7.534665" x2="26.138649" y2="7.872542" />
      <line x1="-0.342577" y1="20.214445" x2="-0.342577" y2="20.552322" />
      <line x1="-3.342577" y1="20.214445" x2="-3.342577" y2="20.552322" />
      <line x1="-26.138649" y1="5.723268" x2="-26.138649" y2="6.061145" />
      <line x1="-29.138649" y1="5.723268" x2="-29.138649" y2="6.061145" />
      <line x1="3.342577" y1="-6.956512" x2="3.342577" y2="-6.618634" />
      <line x1="0.342577" y1="-6.956512" x2="0.342577" y2="-6.618634" />
      <line x1="22.08" y1="6.74913" x2="22.08" y2="6.792673" />
      <line x1="-22.08" y1="6.74913" x2="-22.08" y2="6.792673" />
    </g>
  </g>
</svg>