%TF.GenerationSoftware,KiCad,Pcbnew,10.0.6*%
%TF.CreationDate,2026-09-03T13:38:04+08:00*%
%TF.ProjectId,moto-gps-rev-a,6d6f746f-2d67-4707-932d-7265762d612e,rev?*%
%TF.SameCoordinates,Original*%
%TF.FileFunction,Copper,L4,Bot*%
%TF.FilePolarity,Positive*%
%FSLAX46Y46*%
G04 Gerber Fmt 4.6, Leading zero omitted, Abs format (unit mm)*
G04 Created by KiCad (PCBNEW 10.0.6) date 2026-09-03 13:38:04*
%MOMM*%
%LPD*%
G01*
G04 APERTURE LIST*
G04 Aperture macros list*
%AMRoundRect*
0 Rectangle with rounded corners*
0 $1 Rounding radius*
0 $2 $3 $4 $5 $6 $7 $8 $9 X,Y pos of 4 corners*
0 Add a 4 corners polygon primitive as box body*
4,1,4,$2,$3,$4,$5,$6,$7,$8,$9,$2,$3,0*
0 Add four circle primitives for the rounded corners*
1,1,$1+$1,$2,$3*
1,1,$1+$1,$4,$5*
1,1,$1+$1,$6,$7*
1,1,$1+$1,$8,$9*
0 Add four rect primitives between the rounded corners*
20,1,$1+$1,$2,$3,$4,$5,0*
20,1,$1+$1,$4,$5,$6,$7,0*
20,1,$1+$1,$6,$7,$8,$9,0*
20,1,$1+$1,$8,$9,$2,$3,0*%
G04 Aperture macros list end*
%TA.AperFunction,ComponentPad*%
%ADD10O,1.000000X2.100000*%
%TD*%
%TA.AperFunction,ComponentPad*%
%ADD11O,1.000000X1.600000*%
%TD*%
%TA.AperFunction,HeatsinkPad*%
%ADD12C,0.450000*%
%TD*%
%TA.AperFunction,SMDPad,CuDef*%
%ADD13C,1.000000*%
%TD*%
%TA.AperFunction,SMDPad,CuDef*%
%ADD14RoundRect,0.250000X0.450000X0.275000X-0.450000X0.275000X-0.450000X-0.275000X0.450000X-0.275000X0*%
%TD*%
%TA.AperFunction,SMDPad,CuDef*%
%ADD15RoundRect,0.140000X-0.140000X-0.170000X0.140000X-0.170000X0.140000X0.170000X-0.140000X0.170000X0*%
%TD*%
%TA.AperFunction,ViaPad*%
%ADD16C,0.450000*%
%TD*%
%TA.AperFunction,ViaPad*%
%ADD17C,0.500000*%
%TD*%
%TA.AperFunction,Conductor*%
%ADD18C,0.150000*%
%TD*%
%TA.AperFunction,Conductor*%
%ADD19C,0.180000*%
%TD*%
%TA.AperFunction,Conductor*%
%ADD20C,0.220000*%
%TD*%
G04 APERTURE END LIST*
D10*
%TO.P,J1,S1*%
%TO.N,/USB_SHIELD*%
X95680000Y-118895000D03*
D11*
X95680000Y-123075000D03*
D10*
X104320000Y-118895000D03*
D11*
X104320000Y-123075000D03*
%TD*%
D12*
%TO.P,U1,41*%
%TO.N,/GND*%
X83700000Y-96910000D03*
X83700000Y-98310000D03*
X84400000Y-96210000D03*
X84400000Y-97610000D03*
X84400000Y-99010000D03*
X85100000Y-96910000D03*
X85100000Y-98310000D03*
X85800000Y-96210000D03*
X85800000Y-97610000D03*
X85800000Y-99010000D03*
X86500000Y-96910000D03*
X86500000Y-98310000D03*
%TD*%
D13*
%TO.P,TP7,1*%
%TO.N,/I2C_SDA*%
X84443700Y-115556300D03*
%TD*%
%TO.P,TP15,1*%
%TO.N,/TYPEC_INT_N*%
X111000000Y-80947400D03*
%TD*%
%TO.P,TP8,1*%
%TO.N,/UART0_TX*%
X80947400Y-111000000D03*
%TD*%
%TO.P,TP3,1*%
%TO.N,/SYS*%
X105694000Y-121250400D03*
%TD*%
%TO.P,TP12,1*%
%TO.N,/GNSS_PPS_3V0*%
X94306000Y-78749600D03*
%TD*%
%TO.P,TP4,1*%
%TO.N,/3V3*%
X100000000Y-122000000D03*
%TD*%
%TO.P,TP17,1*%
%TO.N,/GNSS_ANT_ON*%
X121250400Y-94306000D03*
%TD*%
D14*
%TO.P,SW1,1*%
%TO.N,/BQ_QON*%
X115600000Y-116280000D03*
X112000000Y-116280000D03*
%TO.P,SW1,2*%
%TO.N,/GND*%
X115600000Y-117720000D03*
X112000000Y-117720000D03*
%TD*%
D13*
%TO.P,TP10,1*%
%TO.N,/GNSS_TX_3V0*%
X78000000Y-100000000D03*
%TD*%
%TO.P,TP6,1*%
%TO.N,/I2C_SCL*%
X89000000Y-119052600D03*
%TD*%
D15*
%TO.P,C7,1*%
%TO.N,/BQ_BTST*%
X109320000Y-106400000D03*
%TO.P,C7,2*%
%TO.N,/BQ_SW*%
X110280000Y-106400000D03*
%TD*%
D13*
%TO.P,TP13,1*%
%TO.N,/GNSS_RESET_N_1V8*%
X100000000Y-78000000D03*
%TD*%
%TO.P,TP2,1*%
%TO.N,/BAT*%
X119052600Y-111000000D03*
%TD*%
%TO.P,TP11,1*%
%TO.N,/GNSS_RX_3V0*%
X78749600Y-94306000D03*
%TD*%
%TO.P,TP5,1*%
%TO.N,/GND*%
X94306000Y-121250400D03*
%TD*%
%TO.P,TP1,1*%
%TO.N,/USB_VBUS*%
X122000000Y-100000000D03*
%TD*%
%TO.P,TP16,1*%
%TO.N,/GNSS_3V0*%
X115556300Y-84443600D03*
%TD*%
%TO.P,TP14,1*%
%TO.N,/CHARGER_INT_N*%
X105694000Y-78749600D03*
%TD*%
%TO.P,TP9,1*%
%TO.N,/UART0_RX*%
X78749600Y-105694000D03*
%TD*%
D16*
%TO.N,/3V3*%
X110828600Y-101990800D03*
X118835500Y-102847200D03*
X98650000Y-79700000D03*
X111014000Y-120049500D03*
X104997200Y-122101300D03*
X118487500Y-85862500D03*
X101569000Y-97146300D03*
D17*
X117200000Y-115000000D03*
D16*
X97528000Y-105815500D03*
D17*
X119500000Y-115000000D03*
D16*
X97390000Y-80000000D03*
X120350000Y-110750000D03*
X95422200Y-115559200D03*
%TO.N,/GND*%
X106293900Y-106554100D03*
X108952400Y-79685400D03*
X115719700Y-105850600D03*
X110259700Y-114001000D03*
X94290000Y-120333100D03*
X114650900Y-118667800D03*
X81095900Y-87620900D03*
X122193600Y-92618600D03*
X102660000Y-120512100D03*
D17*
X123000000Y-99350000D03*
D16*
X104532300Y-107226300D03*
D17*
X120300000Y-101050000D03*
D16*
X105856200Y-112505400D03*
X83871300Y-82720000D03*
X109132100Y-105439700D03*
X101852200Y-106053200D03*
X108971700Y-77486200D03*
D17*
X119130000Y-100650000D03*
D16*
X109157700Y-85376600D03*
%TO.N,/SYS*%
X105808200Y-109911400D03*
X106645400Y-104315600D03*
X113000000Y-110750000D03*
X110575000Y-111050000D03*
D17*
X108500000Y-113450000D03*
X119200000Y-106950000D03*
D16*
X118825000Y-106550000D03*
D17*
X112150000Y-113450000D03*
X117000000Y-106950000D03*
D16*
%TO.N,/MCU_EN*%
X96753800Y-88265400D03*
X79484900Y-92166500D03*
X82154300Y-89319700D03*
X100563900Y-89719000D03*
%TO.N,/LCD_SIO2_MCU*%
X82798800Y-100603500D03*
X96631400Y-103291200D03*
X79165400Y-96565400D03*
%TO.N,/LCD_SIO2*%
X98679000Y-108994400D03*
X101557400Y-101415300D03*
X98838200Y-102449700D03*
%TO.N,/LCD_SIO3_MCU*%
X103909800Y-108336700D03*
X79012100Y-97510000D03*
%TO.N,/LCD_SIO3*%
X99100000Y-111803300D03*
X99256000Y-106392800D03*
%TO.N,/LCD_TE*%
X97187500Y-111352700D03*
X92387500Y-109787500D03*
%TO.N,/LCD_CLK*%
X98700200Y-107991300D03*
X105646200Y-105337500D03*
%TO.N,/LCD_SIO1*%
X101429800Y-111130900D03*
X103171100Y-104161100D03*
%TO.N,/LCD_SIO0*%
X99667800Y-110628900D03*
X101103900Y-106120300D03*
%TO.N,/LCD_CS_N*%
X99278700Y-101998000D03*
X100530700Y-111810400D03*
%TO.N,/LCD_RESET_N*%
X93979900Y-100503200D03*
X93664100Y-91160000D03*
X103262500Y-101084300D03*
X100600000Y-109022900D03*
%TO.N,/3V3_DISPLAY*%
X103059800Y-110766400D03*
X103790000Y-103000000D03*
X102049800Y-111825600D03*
%TO.N,/I2C_SCL*%
X98757200Y-96000000D03*
X106186600Y-108470800D03*
X88505000Y-108798100D03*
X103625700Y-97742500D03*
X110165600Y-109104000D03*
X98203200Y-89513400D03*
X111347400Y-114676400D03*
X89184000Y-112991000D03*
X87848200Y-114144000D03*
X89877000Y-119052600D03*
X103300000Y-111810900D03*
%TO.N,/I2C_SDA*%
X103571900Y-110427400D03*
X112482900Y-114910200D03*
X85171900Y-114828100D03*
X98410000Y-86992400D03*
X100077700Y-96165500D03*
X78988000Y-98780000D03*
X112083700Y-108804300D03*
%TO.N,/TP_RESET_N*%
X103895000Y-106890000D03*
X96632300Y-92815900D03*
%TO.N,/TP_INT_N*%
X104014200Y-109017600D03*
X85338700Y-106525500D03*
%TO.N,/GNSS_3V0*%
X112891500Y-81150500D03*
X109544300Y-96858100D03*
X112430300Y-86387800D03*
D17*
%TO.N,/USB_SHIELD*%
X107000000Y-120700000D03*
D16*
%TO.N,/USB_VBUS*%
X109087700Y-120774500D03*
X108340300Y-107311500D03*
X112291000Y-104062600D03*
%TO.N,/BQ_CE_N*%
X108726300Y-101811500D03*
X110975000Y-104039400D03*
%TO.N,/BQ_TS_BIAS*%
X108483700Y-110452500D03*
X114757900Y-104847200D03*
%TO.N,/BAT_TS*%
X113151300Y-113603900D03*
X114131900Y-105002500D03*
X109336500Y-109555800D03*
X87478400Y-113413600D03*
X114075000Y-106297500D03*
%TO.N,/BAT*%
X109256700Y-113857900D03*
X113175700Y-114891600D03*
%TO.N,/USB_D_P_MCU*%
X79600000Y-106400000D03*
D17*
X108200000Y-117000000D03*
D16*
%TO.N,/USB_CC1*%
X109364300Y-115501700D03*
X98750000Y-119417800D03*
%TO.N,/USB_D_N_CONN*%
X103500000Y-115800000D03*
X100250000Y-119650000D03*
%TO.N,/USB_CC2*%
X101555000Y-119299600D03*
X108380700Y-116300400D03*
%TO.N,/3V3_PG_N*%
X118047000Y-101786700D03*
X115716900Y-107038900D03*
%TO.N,/GNSS_TX_3V0*%
X105016400Y-92818100D03*
X111011200Y-80070200D03*
%TO.N,/GNSS_RX_3V0*%
X107568200Y-79302700D03*
X105437500Y-92387500D03*
%TO.N,/GNSS_PPS_3V0*%
X110537500Y-93900000D03*
X112421200Y-84500000D03*
%TO.N,/GNSS_RESET_N_1V8*%
X101176100Y-87316000D03*
X106966000Y-99400000D03*
X100747300Y-77502700D03*
%TO.N,/GNSS_ANT_ON*%
X117434800Y-96392500D03*
%TO.N,/FUNC_KEY_N*%
X92169500Y-104586200D03*
X101651600Y-94602200D03*
%TO.N,/LCD_CLK_MCU*%
X96740700Y-101417800D03*
X103781100Y-104005000D03*
%TO.N,/TYPEC_INT_N*%
X110920600Y-117729200D03*
X105955000Y-82819900D03*
X105079300Y-114470200D03*
X92315000Y-108780700D03*
%TO.N,/LCD_SIO0_MCU*%
X79247400Y-93537600D03*
X83681500Y-100143100D03*
X99665100Y-105879000D03*
%TO.N,/LCD_SIO1_MCU*%
X104470200Y-106433200D03*
X103170800Y-93669800D03*
X78969300Y-95618200D03*
%TO.N,/GNSS_UART_TX_3V3*%
X81512500Y-91757100D03*
X112437400Y-83242900D03*
%TO.N,/GNSS_UART_RX_3V3*%
X92387500Y-85862500D03*
X109465100Y-82831500D03*
X84423400Y-94640900D03*
D17*
%TO.N,/USB_D_N_MCU*%
X108200000Y-115600000D03*
D16*
X79600000Y-105130000D03*
%TO.N,/LCD_CS_N_MCU*%
X93033400Y-104878000D03*
X98167300Y-103910200D03*
%TO.N,/QMI_INT1*%
X98603100Y-97490800D03*
X89775000Y-106514400D03*
%TO.N,/GNSS_RESET_DRV*%
X102324000Y-89237500D03*
X92109300Y-90212500D03*
X106763600Y-77808300D03*
X93694500Y-106508700D03*
%TO.N,/BOOT_N*%
X92525500Y-81512500D03*
X97179200Y-95884200D03*
X94168800Y-99855300D03*
%TO.N,/QMI_INT2*%
X97261700Y-99564600D03*
X99624900Y-94144600D03*
%TO.N,/CHARGER_INT_N*%
X112097200Y-109617700D03*
X113366400Y-102999300D03*
X104467900Y-98780000D03*
X109960500Y-102432300D03*
X100827300Y-82865000D03*
%TO.N,/GNSS_PPS_3V3*%
X115455600Y-86131900D03*
X101367900Y-98249600D03*
%TO.N,/MAG_DRDY*%
X93210200Y-96832600D03*
X100661100Y-80532900D03*
%TO.N,/UART0_RX*%
X82013000Y-105485600D03*
%TO.N,/UART0_TX*%
X81572600Y-110374800D03*
X90185900Y-93885900D03*
%TO.N,/BQ_ILIM*%
X106913500Y-109789000D03*
X112122200Y-107930700D03*
%TO.N,/BQ_SW*%
X110175000Y-106900000D03*
X112850000Y-107350000D03*
%TO.N,/CHARGER_STAT_N*%
X112710000Y-119499200D03*
X114203300Y-111237000D03*
%TO.N,/TYPEC_VBUS_DET*%
X110297100Y-117747000D03*
X109769600Y-122762800D03*
%TO.N,/CHARGER_PG_N*%
X109107800Y-104228300D03*
X107801000Y-108867700D03*
%TO.N,/BQ_BTST*%
X108800000Y-106900000D03*
%TO.N,/BQ_QON*%
X109217600Y-111399200D03*
%TD*%
%TO.N,/3V3*%
D18*
X99609900Y-119638900D02*
X95530200Y-115559200D01*
X100000000Y-122000000D02*
X104997200Y-122000000D01*
X109063500Y-122000000D02*
X111014000Y-120049500D01*
X95530200Y-115559200D02*
X95422200Y-115559200D01*
X100000000Y-122000000D02*
X99609900Y-121609900D01*
X99609900Y-121609900D02*
X99609900Y-119638900D01*
X104997200Y-122101300D02*
X104997200Y-122000000D01*
X104997200Y-122000000D02*
X109063500Y-122000000D01*
%TO.N,/GND*%
X114650900Y-118667800D02*
X114652200Y-118667800D01*
X110259700Y-113795400D02*
X110259700Y-114001000D01*
X120300000Y-102076900D02*
X120300000Y-101050000D01*
X112947800Y-118667800D02*
X114650900Y-118667800D01*
X108969700Y-112505400D02*
X110259700Y-113795400D01*
X106293900Y-106554100D02*
X107002200Y-105845800D01*
X109132100Y-105845800D02*
X109132100Y-105439700D01*
X110700700Y-114442000D02*
X110259700Y-114001000D01*
X94290000Y-120333100D02*
X94290000Y-121234400D01*
X116526300Y-105850600D02*
X120300000Y-102076900D01*
X112000000Y-117720000D02*
X112947800Y-118667800D01*
X107002200Y-105845800D02*
X109132100Y-105845800D01*
X101852200Y-106053200D02*
X103143900Y-107344900D01*
X103143900Y-107344900D02*
X104413700Y-107344900D01*
X112000000Y-117720000D02*
X110700700Y-116420700D01*
X114652200Y-118667800D02*
X115600000Y-117720000D01*
X115714900Y-105845800D02*
X109132100Y-105845800D01*
X115719700Y-105850600D02*
X116526300Y-105850600D01*
X105856200Y-112505400D02*
X108969700Y-112505400D01*
X104413700Y-107344900D02*
X104532300Y-107226300D01*
X115719700Y-105850600D02*
X115714900Y-105845800D01*
X94290000Y-121234400D02*
X94306000Y-121250400D01*
X110700700Y-116420700D02*
X110700700Y-114442000D01*
%TO.N,/SYS*%
X108500000Y-113450000D02*
X108500000Y-113739900D01*
X108500000Y-113739900D02*
X109819800Y-115059700D01*
X109819800Y-117124600D02*
X105694000Y-121250400D01*
X109819800Y-115059700D02*
X109819800Y-117124600D01*
%TO.N,/MCU_EN*%
X99110300Y-88265400D02*
X96753800Y-88265400D01*
X100563900Y-89719000D02*
X99110300Y-88265400D01*
%TO.N,/LCD_SIO2_MCU*%
X96631400Y-103291200D02*
X85486500Y-103291200D01*
X85486500Y-103291200D02*
X82798800Y-100603500D01*
%TO.N,/LCD_SIO2*%
X101557400Y-101415300D02*
X100523000Y-102449700D01*
X100523000Y-102449700D02*
X98838200Y-102449700D01*
%TO.N,/LCD_SIO3_MCU*%
X79012100Y-97510000D02*
X83578400Y-97510000D01*
X104060700Y-108336700D02*
X103909800Y-108336700D01*
X87036000Y-100967600D02*
X96550600Y-100967600D01*
X96550600Y-100967600D02*
X96617500Y-100900700D01*
X102331300Y-100900700D02*
X106097900Y-104667300D01*
X105540500Y-106856900D02*
X104060700Y-108336700D01*
X83578400Y-97510000D02*
X87036000Y-100967600D01*
X106097900Y-105784800D02*
X105540500Y-106342200D01*
X96617500Y-100900700D02*
X102331300Y-100900700D01*
X106097900Y-104667300D02*
X106097900Y-105784800D01*
X105540500Y-106342200D02*
X105540500Y-106856900D01*
%TO.N,/LCD_TE*%
X92387500Y-109787500D02*
X95622300Y-109787500D01*
X95622300Y-109787500D02*
X97187500Y-111352700D01*
%TO.N,/LCD_CLK*%
X101248000Y-105337500D02*
X105646200Y-105337500D01*
X98700200Y-107991300D02*
X98700200Y-107885300D01*
X98700200Y-107885300D02*
X101248000Y-105337500D01*
%TO.N,/LCD_RESET_N*%
X93979900Y-100503200D02*
X102681400Y-100503200D01*
X102681400Y-100503200D02*
X103262500Y-101084300D01*
%TO.N,/I2C_SCL*%
X110165600Y-109104000D02*
X109433700Y-108372100D01*
X94296800Y-114828100D02*
X100282800Y-114828100D01*
X89877000Y-119052600D02*
X90072300Y-119052600D01*
X111347400Y-114449900D02*
X111347400Y-114676400D01*
X103300000Y-111810900D02*
X108708400Y-111810900D01*
X103625700Y-97742500D02*
X100499700Y-97742500D01*
X100499700Y-97742500D02*
X98757200Y-96000000D01*
X109433700Y-108372100D02*
X106285300Y-108372100D01*
X90072300Y-119052600D02*
X94296800Y-114828100D01*
X89000000Y-119052600D02*
X89877000Y-119052600D01*
X108708400Y-111810900D02*
X111347400Y-114449900D01*
X100282800Y-114828100D02*
X103300000Y-111810900D01*
X106285300Y-108372100D02*
X106186600Y-108470800D01*
%TO.N,/I2C_SDA*%
X102543800Y-111970400D02*
X102543800Y-111921200D01*
X113646600Y-113374900D02*
X113646600Y-113749600D01*
X103571900Y-110929900D02*
X103571900Y-110427400D01*
X113646600Y-113749600D02*
X112840900Y-114555300D01*
X112840900Y-114555300D02*
X112482900Y-114555300D01*
X93720300Y-114828100D02*
X94022000Y-114526400D01*
X94022000Y-114526400D02*
X99987800Y-114526400D01*
X85171900Y-114828100D02*
X84443700Y-115556300D01*
X112083700Y-108804300D02*
X112549800Y-109270400D01*
X112549800Y-109270400D02*
X112549800Y-110067900D01*
X112495500Y-110122200D02*
X112495500Y-112223800D01*
X102543800Y-111921200D02*
X103535100Y-110929900D01*
X112495500Y-112223800D02*
X113646600Y-113374900D01*
X112549800Y-110067900D02*
X112495500Y-110122200D01*
X99987800Y-114526400D02*
X102543800Y-111970400D01*
X109726600Y-111196400D02*
X109460100Y-110929900D01*
X109726600Y-111799000D02*
X109726600Y-111196400D01*
X112482900Y-114555300D02*
X109726600Y-111799000D01*
X109460100Y-110929900D02*
X103571900Y-110929900D01*
X85171900Y-114828100D02*
X93720300Y-114828100D01*
X103535100Y-110929900D02*
X103571900Y-110929900D01*
X112482900Y-114910200D02*
X112482900Y-114555300D01*
%TO.N,/TP_INT_N*%
X85338700Y-106525500D02*
X86656300Y-107843100D01*
X98397400Y-108461500D02*
X103395900Y-108461500D01*
X97779000Y-107843100D02*
X98397400Y-108461500D01*
X103395900Y-108461500D02*
X103952000Y-109017600D01*
X86656300Y-107843100D02*
X97779000Y-107843100D01*
X103952000Y-109017600D02*
X104014200Y-109017600D01*
%TO.N,/GNSS_3V0*%
X112430300Y-86387800D02*
X113612100Y-86387800D01*
X113612100Y-86387800D02*
X115556300Y-84443600D01*
%TO.N,/USB_VBUS*%
X117231500Y-100000000D02*
X113168900Y-104062600D01*
X122000000Y-100000000D02*
X117231500Y-100000000D01*
X113168900Y-104062600D02*
X112291000Y-104062600D01*
%TO.N,/BQ_CE_N*%
X110975000Y-104039300D02*
X110975000Y-104039400D01*
X110874300Y-104039300D02*
X110975000Y-104039300D01*
X108726300Y-101811500D02*
X108726300Y-101891300D01*
X108726300Y-101891300D02*
X110874300Y-104039300D01*
%TO.N,/BAT_TS*%
X111508200Y-107900100D02*
X113110800Y-106297500D01*
X111508200Y-108404600D02*
X111508200Y-107900100D01*
X99787800Y-113448500D02*
X87513300Y-113448500D01*
X111061800Y-112213300D02*
X111760700Y-112213300D01*
X109336500Y-109555800D02*
X109846800Y-110066000D01*
X113110800Y-106297500D02*
X114075000Y-106297500D01*
X110028300Y-111179800D02*
X111061800Y-112213300D01*
X109846800Y-110066000D02*
X111508200Y-108404600D01*
X109336500Y-109555800D02*
X109118000Y-109337300D01*
X109118000Y-109337300D02*
X105743600Y-109337300D01*
X105552700Y-109528200D02*
X103642800Y-109528200D01*
X87513300Y-113448500D02*
X87478400Y-113413600D01*
X103642800Y-109528200D02*
X101918300Y-111252700D01*
X111760700Y-112213300D02*
X113151300Y-113603900D01*
X105743600Y-109337300D02*
X105552700Y-109528200D01*
X109846800Y-110066000D02*
X110028300Y-110247600D01*
X101918300Y-111252700D02*
X101918300Y-111318000D01*
X101918300Y-111318000D02*
X99787800Y-113448500D01*
X110028300Y-110247600D02*
X110028300Y-111179800D01*
%TO.N,/BAT*%
X115161000Y-114891600D02*
X113175700Y-114891600D01*
X119052600Y-111000000D02*
X115161000Y-114891600D01*
%TO.N,/USB_D_N_CONN*%
D19*
X100250000Y-119650000D02*
X100250000Y-116250000D01*
X100250000Y-116250000D02*
X103500000Y-115800000D01*
%TO.N,/USB_CC2*%
D18*
X101555000Y-119299600D02*
X104554200Y-116300400D01*
X104554200Y-116300400D02*
X108380700Y-116300400D01*
%TO.N,/GNSS_TX_3V0*%
X82933500Y-97037800D02*
X84768000Y-95203300D01*
X84768000Y-95203300D02*
X102631200Y-95203300D01*
X78000000Y-97883300D02*
X78845500Y-97037800D01*
X78000000Y-100000000D02*
X78000000Y-97883300D01*
X78845500Y-97037800D02*
X82933500Y-97037800D01*
X102631200Y-95203300D02*
X105016400Y-92818100D01*
%TO.N,/GNSS_RX_3V0*%
X78749600Y-94306000D02*
X79117800Y-94306000D01*
X105414200Y-92364200D02*
X105437500Y-92387500D01*
X81059600Y-92364200D02*
X105414200Y-92364200D01*
X79117800Y-94306000D02*
X81059600Y-92364200D01*
%TO.N,/GNSS_PPS_3V0*%
X112925500Y-83995700D02*
X112421200Y-84500000D01*
X112253400Y-82375000D02*
X112925500Y-83047100D01*
X98873100Y-83316700D02*
X106197600Y-83316700D01*
X106197600Y-83316700D02*
X107139300Y-82375000D01*
X112925500Y-83047100D02*
X112925500Y-83995700D01*
X107139300Y-82375000D02*
X112253400Y-82375000D01*
X94306000Y-78749600D02*
X98873100Y-83316700D01*
%TO.N,/GNSS_RESET_N_1V8*%
X100250000Y-78000000D02*
X100747300Y-77502700D01*
X100000000Y-78000000D02*
X100250000Y-78000000D01*
%TO.N,/GNSS_ANT_ON*%
X117434800Y-96392500D02*
X119163900Y-96392500D01*
X119163900Y-96392500D02*
X121250400Y-94306000D01*
%TO.N,/LCD_CLK_MCU*%
X96740700Y-101417800D02*
X98822100Y-103499200D01*
X98822100Y-103499200D02*
X103275300Y-103499200D01*
X103275300Y-103499200D02*
X103781100Y-104005000D01*
%TO.N,/TYPEC_INT_N*%
X107827500Y-80947400D02*
X105955000Y-82819900D01*
X106587900Y-112961600D02*
X105079300Y-114470200D01*
X110292800Y-114680000D02*
X109748800Y-114136000D01*
X111000000Y-80947400D02*
X107827500Y-80947400D01*
X109748800Y-113711200D02*
X108999200Y-112961600D01*
X108999200Y-112961600D02*
X106587900Y-112961600D01*
X110292800Y-117101400D02*
X110292800Y-114680000D01*
X109748800Y-114136000D02*
X109748800Y-113711200D01*
X110920600Y-117729200D02*
X110292800Y-117101400D01*
%TO.N,/LCD_SIO0_MCU*%
X97622100Y-102725900D02*
X99665100Y-104768900D01*
X83681500Y-100143100D02*
X86264300Y-102725900D01*
X99665100Y-104768900D02*
X99665100Y-105879000D01*
X86264300Y-102725900D02*
X97622100Y-102725900D01*
%TO.N,/LCD_SIO1_MCU*%
X80416100Y-94171400D02*
X89612700Y-94171400D01*
X99262000Y-93669800D02*
X103170800Y-93669800D01*
X89810800Y-94369500D02*
X98562300Y-94369500D01*
X98562300Y-94369500D02*
X99262000Y-93669800D01*
X78969300Y-95618200D02*
X80416100Y-94171400D01*
X89612700Y-94171400D02*
X89810800Y-94369500D01*
%TO.N,/GNSS_UART_TX_3V3*%
X81512500Y-91757100D02*
X103923200Y-91757100D01*
X103923200Y-91757100D02*
X112437400Y-83242900D01*
%TO.N,/GNSS_UART_RX_3V3*%
X106434100Y-85862500D02*
X92387500Y-85862500D01*
X109465100Y-82831500D02*
X106434100Y-85862500D01*
%TO.N,/LCD_CS_N_MCU*%
X98167300Y-103910200D02*
X97199500Y-104878000D01*
X97199500Y-104878000D02*
X93033400Y-104878000D01*
%TO.N,/GNSS_RESET_DRV*%
X101349000Y-90212500D02*
X102324000Y-89237500D01*
X92109300Y-90212500D02*
X101349000Y-90212500D01*
%TO.N,/CHARGER_INT_N*%
X101578600Y-82865000D02*
X100827300Y-82865000D01*
X105694000Y-78749600D02*
X101578600Y-82865000D01*
%TO.N,/GNSS_PPS_3V3*%
X101367900Y-98249600D02*
X103757400Y-98249600D01*
X103757400Y-98249600D02*
X115455600Y-86551400D01*
X115455600Y-86551400D02*
X115455600Y-86131900D01*
%TO.N,/UART0_RX*%
X82013000Y-105485600D02*
X81804600Y-105694000D01*
X81804600Y-105694000D02*
X78749600Y-105694000D01*
%TO.N,/UART0_TX*%
X81572600Y-110374800D02*
X80947400Y-111000000D01*
%TO.N,/BQ_SW*%
D20*
X110175000Y-106900000D02*
X110280000Y-106400000D01*
%TO.N,/BQ_BTST*%
X108800000Y-106900000D02*
X109320000Y-106400000D01*
%TO.N,/BQ_QON*%
D18*
X112000000Y-114605000D02*
X109217600Y-111822600D01*
X109217600Y-111822600D02*
X109217600Y-111399200D01*
X112000000Y-116280000D02*
X112602700Y-116882700D01*
X112000000Y-116280000D02*
X112000000Y-114605000D01*
X112602700Y-116882700D02*
X114997300Y-116882700D01*
X114997300Y-116882700D02*
X115600000Y-116280000D01*
%TD*%
%TA.AperFunction,Conductor*%
%TO.N,/GND*%
G36*
X101333945Y-74484930D02*
G01*
X101340421Y-74485269D01*
X102667505Y-74589713D01*
X102673897Y-74590385D01*
X103993698Y-74764140D01*
X104000054Y-74765146D01*
X105308960Y-75007738D01*
X105315300Y-75009085D01*
X106609675Y-75319838D01*
X106615921Y-75321511D01*
X107892279Y-75699586D01*
X107898434Y-75701586D01*
X109153246Y-76145938D01*
X109159307Y-76148265D01*
X110389118Y-76657669D01*
X110395044Y-76660307D01*
X111596542Y-77233392D01*
X111602306Y-77236330D01*
X112772162Y-77871509D01*
X112777757Y-77874739D01*
X113912753Y-78570266D01*
X113918195Y-78573800D01*
X114777337Y-79164272D01*
X115015239Y-79327777D01*
X115020486Y-79331589D01*
X116039536Y-80113535D01*
X116080739Y-80169962D01*
X116086640Y-80193265D01*
X116339152Y-81853526D01*
X116339153Y-81853529D01*
X116339154Y-81853530D01*
X117005918Y-82994081D01*
X118146469Y-83660845D01*
X118146472Y-83660845D01*
X118146473Y-83660846D01*
X118146472Y-83660846D01*
X118799130Y-83760109D01*
X119806735Y-83913359D01*
X119870050Y-83942899D01*
X119886461Y-83960459D01*
X120525437Y-84793187D01*
X120668405Y-84979507D01*
X120672221Y-84984759D01*
X121426197Y-86081801D01*
X121429732Y-86087245D01*
X122125251Y-87222229D01*
X122128497Y-87227851D01*
X122763663Y-88397682D01*
X122766611Y-88403467D01*
X123339689Y-89604950D01*
X123342329Y-89610880D01*
X123851733Y-90840691D01*
X123854060Y-90846752D01*
X124298409Y-92101555D01*
X124300415Y-92107729D01*
X124678483Y-93384065D01*
X124680163Y-93390336D01*
X124990911Y-94684693D01*
X124992261Y-94691043D01*
X125234847Y-95999916D01*
X125235862Y-96006328D01*
X125409609Y-97326069D01*
X125410288Y-97332525D01*
X125514728Y-98659574D01*
X125515068Y-98666057D01*
X125549914Y-99996753D01*
X125549914Y-100003245D01*
X125515068Y-101333941D01*
X125514728Y-101340424D01*
X125410288Y-102667473D01*
X125409609Y-102673929D01*
X125235862Y-103993670D01*
X125234847Y-104000082D01*
X124992261Y-105308955D01*
X124990911Y-105315305D01*
X124680163Y-106609662D01*
X124678483Y-106615933D01*
X124300415Y-107892269D01*
X124298409Y-107898443D01*
X123854060Y-109153246D01*
X123851733Y-109159307D01*
X123342329Y-110389118D01*
X123339689Y-110395048D01*
X122766611Y-111596531D01*
X122763663Y-111602316D01*
X122128497Y-112772148D01*
X122125251Y-112777770D01*
X121429732Y-113912753D01*
X121426197Y-113918197D01*
X120672221Y-115015239D01*
X120668405Y-115020491D01*
X119886464Y-116039536D01*
X119830036Y-116080739D01*
X119806733Y-116086640D01*
X118146472Y-116339152D01*
X117005916Y-117005919D01*
X116941972Y-117115300D01*
X116891144Y-117163240D01*
X116822466Y-117176091D01*
X116757744Y-117149771D01*
X116729384Y-117117815D01*
X116642315Y-116976654D01*
X116518344Y-116852683D01*
X116518340Y-116852680D01*
X116485745Y-116832575D01*
X116439020Y-116780627D01*
X116427799Y-116711665D01*
X116432913Y-116688712D01*
X116435641Y-116680312D01*
X116435646Y-116680304D01*
X116450500Y-116586519D01*
X116450499Y-115973482D01*
X116435646Y-115879696D01*
X116378050Y-115766658D01*
X116378046Y-115766654D01*
X116378045Y-115766652D01*
X116288347Y-115676954D01*
X116288344Y-115676952D01*
X116288342Y-115676950D01*
X116203279Y-115633608D01*
X116175301Y-115619352D01*
X116081524Y-115604500D01*
X115118482Y-115604500D01*
X115037519Y-115617323D01*
X115024696Y-115619354D01*
X114911658Y-115676950D01*
X114911657Y-115676951D01*
X114911652Y-115676954D01*
X114821954Y-115766652D01*
X114821951Y-115766657D01*
X114821950Y-115766658D01*
X114808690Y-115792683D01*
X114764352Y-115879698D01*
X114749500Y-115973475D01*
X114749500Y-115973480D01*
X114749500Y-115973481D01*
X114749500Y-116275110D01*
X114749501Y-116533200D01*
X114729817Y-116600239D01*
X114677013Y-116645994D01*
X114625501Y-116657200D01*
X114249976Y-116657200D01*
X114182937Y-116637515D01*
X114137182Y-116584711D01*
X114127238Y-116515553D01*
X114156263Y-116451997D01*
X114162295Y-116445519D01*
X114163135Y-116444679D01*
X114200500Y-116407314D01*
X114266392Y-116293186D01*
X114300500Y-116165892D01*
X114300500Y-116034108D01*
X114266392Y-115906814D01*
X114200500Y-115792686D01*
X114107314Y-115699500D01*
X114050250Y-115666554D01*
X113993187Y-115633608D01*
X113929539Y-115616554D01*
X113865892Y-115599500D01*
X113734108Y-115599500D01*
X113606812Y-115633608D01*
X113492686Y-115699500D01*
X113492683Y-115699502D01*
X113399502Y-115792683D01*
X113399500Y-115792686D01*
X113333608Y-115906812D01*
X113304351Y-116016003D01*
X113299500Y-116034108D01*
X113299500Y-116165892D01*
X113309219Y-116202163D01*
X113333608Y-116293187D01*
X113360147Y-116339153D01*
X113399500Y-116407314D01*
X113399502Y-116407316D01*
X113437705Y-116445519D01*
X113471190Y-116506842D01*
X113466206Y-116576534D01*
X113424334Y-116632467D01*
X113358870Y-116656884D01*
X113350024Y-116657200D01*
X112974500Y-116657200D01*
X112907461Y-116637515D01*
X112861706Y-116584711D01*
X112850500Y-116533200D01*
X112850499Y-115973482D01*
X112848520Y-115960986D01*
X112835646Y-115879696D01*
X112778050Y-115766658D01*
X112778046Y-115766654D01*
X112778045Y-115766652D01*
X112688347Y-115676954D01*
X112688344Y-115676952D01*
X112688342Y-115676950D01*
X112603279Y-115633608D01*
X112575301Y-115619352D01*
X112481524Y-115604500D01*
X112481519Y-115604500D01*
X112349500Y-115604500D01*
X112282461Y-115584815D01*
X112236706Y-115532011D01*
X112225500Y-115480500D01*
X112225500Y-115391575D01*
X112245185Y-115324536D01*
X112297989Y-115278781D01*
X112367147Y-115268837D01*
X112381571Y-115271795D01*
X112433465Y-115285700D01*
X112433469Y-115285700D01*
X112532332Y-115285700D01*
X112532335Y-115285700D01*
X112627838Y-115260110D01*
X112713462Y-115210675D01*
X112750919Y-115173218D01*
X112812242Y-115139733D01*
X112881934Y-115144717D01*
X112926281Y-115173218D01*
X112945138Y-115192075D01*
X113030762Y-115241510D01*
X113126265Y-115267100D01*
X113126267Y-115267100D01*
X113225132Y-115267100D01*
X113225135Y-115267100D01*
X113320638Y-115241510D01*
X113406262Y-115192075D01*
X113425591Y-115172745D01*
X113444920Y-115153418D01*
X113506243Y-115119933D01*
X113532600Y-115117100D01*
X115101703Y-115117100D01*
X115101711Y-115117101D01*
X115116145Y-115117101D01*
X115205853Y-115117101D01*
X115205855Y-115117101D01*
X115264460Y-115092825D01*
X115288736Y-115082770D01*
X115352170Y-115019336D01*
X115352170Y-115019335D01*
X115369608Y-115001897D01*
X115369609Y-115001894D01*
X115424230Y-114947273D01*
X116799500Y-114947273D01*
X116799500Y-115052727D01*
X116826793Y-115154587D01*
X116879520Y-115245913D01*
X116954087Y-115320480D01*
X117045413Y-115373207D01*
X117147273Y-115400500D01*
X117147275Y-115400500D01*
X117252725Y-115400500D01*
X117252727Y-115400500D01*
X117354587Y-115373207D01*
X117445913Y-115320480D01*
X117520480Y-115245913D01*
X117573207Y-115154587D01*
X117600500Y-115052727D01*
X117600500Y-114947273D01*
X119099500Y-114947273D01*
X119099500Y-115052727D01*
X119126793Y-115154587D01*
X119179520Y-115245913D01*
X119254087Y-115320480D01*
X119345413Y-115373207D01*
X119447273Y-115400500D01*
X119447275Y-115400500D01*
X119552725Y-115400500D01*
X119552727Y-115400500D01*
X119654587Y-115373207D01*
X119745913Y-115320480D01*
X119820480Y-115245913D01*
X119873207Y-115154587D01*
X119900500Y-115052727D01*
X119900500Y-114947273D01*
X119873207Y-114845413D01*
X119820480Y-114754087D01*
X119745913Y-114679520D01*
X119673331Y-114637615D01*
X119654589Y-114626794D01*
X119654588Y-114626793D01*
X119654587Y-114626793D01*
X119552727Y-114599500D01*
X119447273Y-114599500D01*
X119345413Y-114626793D01*
X119345410Y-114626794D01*
X119254085Y-114679521D01*
X119179521Y-114754085D01*
X119126794Y-114845410D01*
X119126793Y-114845413D01*
X119099500Y-114947273D01*
X117600500Y-114947273D01*
X117573207Y-114845413D01*
X117520480Y-114754087D01*
X117445913Y-114679520D01*
X117373331Y-114637615D01*
X117354589Y-114626794D01*
X117354588Y-114626793D01*
X117354587Y-114626793D01*
X117252727Y-114599500D01*
X117147273Y-114599500D01*
X117045413Y-114626793D01*
X117045410Y-114626794D01*
X116954085Y-114679521D01*
X116879521Y-114754085D01*
X116826794Y-114845410D01*
X116826793Y-114845413D01*
X116799500Y-114947273D01*
X115424230Y-114947273D01*
X118721644Y-111649860D01*
X118782965Y-111616377D01*
X118852657Y-111621361D01*
X118856738Y-111622967D01*
X118862856Y-111625501D01*
X118862860Y-111625501D01*
X118862861Y-111625502D01*
X118988528Y-111650500D01*
X118988531Y-111650500D01*
X119116671Y-111650500D01*
X119220923Y-111629762D01*
X119242344Y-111625501D01*
X119360727Y-111576465D01*
X119467269Y-111505276D01*
X119557876Y-111414669D01*
X119629065Y-111308127D01*
X119678101Y-111189744D01*
X119690880Y-111125500D01*
X119703100Y-111064071D01*
X119703100Y-110935928D01*
X119678102Y-110810261D01*
X119678101Y-110810260D01*
X119678101Y-110810256D01*
X119678056Y-110810148D01*
X119648955Y-110739890D01*
X119632665Y-110700565D01*
X119974500Y-110700565D01*
X119974500Y-110799435D01*
X120000090Y-110894938D01*
X120000091Y-110894939D01*
X120000091Y-110894940D01*
X120010583Y-110913112D01*
X120049525Y-110980562D01*
X120119438Y-111050475D01*
X120205062Y-111099910D01*
X120300565Y-111125500D01*
X120300567Y-111125500D01*
X120399432Y-111125500D01*
X120399435Y-111125500D01*
X120494938Y-111099910D01*
X120580562Y-111050475D01*
X120650475Y-110980562D01*
X120699910Y-110894938D01*
X120725500Y-110799435D01*
X120725500Y-110700565D01*
X120699910Y-110605062D01*
X120650475Y-110519438D01*
X120580562Y-110449525D01*
X120494938Y-110400090D01*
X120399435Y-110374500D01*
X120300565Y-110374500D01*
X120205062Y-110400090D01*
X120205060Y-110400091D01*
X120205059Y-110400091D01*
X120119436Y-110449526D01*
X120049526Y-110519436D01*
X120000091Y-110605059D01*
X120000091Y-110605060D01*
X120000090Y-110605062D01*
X119974500Y-110700565D01*
X119632665Y-110700565D01*
X119629066Y-110691876D01*
X119629066Y-110691875D01*
X119629065Y-110691873D01*
X119629063Y-110691870D01*
X119629061Y-110691866D01*
X119557876Y-110585331D01*
X119557873Y-110585327D01*
X119467272Y-110494726D01*
X119467268Y-110494723D01*
X119360733Y-110423538D01*
X119360724Y-110423533D01*
X119242344Y-110374499D01*
X119242338Y-110374497D01*
X119116671Y-110349500D01*
X119116669Y-110349500D01*
X118988531Y-110349500D01*
X118988529Y-110349500D01*
X118862861Y-110374497D01*
X118862855Y-110374499D01*
X118744475Y-110423533D01*
X118744466Y-110423538D01*
X118637931Y-110494723D01*
X118637927Y-110494726D01*
X118547326Y-110585327D01*
X118547323Y-110585331D01*
X118476138Y-110691866D01*
X118476133Y-110691875D01*
X118427099Y-110810255D01*
X118427097Y-110810261D01*
X118402100Y-110935928D01*
X118402100Y-110935931D01*
X118402100Y-111064069D01*
X118402100Y-111064071D01*
X118402099Y-111064071D01*
X118427097Y-111189737D01*
X118427098Y-111189742D01*
X118427099Y-111189744D01*
X118429616Y-111195821D01*
X118437086Y-111265289D01*
X118405812Y-111327768D01*
X118402737Y-111330955D01*
X115103914Y-114629781D01*
X115042591Y-114663266D01*
X115016233Y-114666100D01*
X113532600Y-114666100D01*
X113465561Y-114646415D01*
X113444920Y-114629782D01*
X113406264Y-114591127D01*
X113406262Y-114591125D01*
X113367248Y-114568600D01*
X113319035Y-114518034D01*
X113305813Y-114449427D01*
X113331781Y-114384562D01*
X113341564Y-114373540D01*
X113756894Y-113958209D01*
X113756897Y-113958208D01*
X113774335Y-113940770D01*
X113774336Y-113940770D01*
X113837770Y-113877336D01*
X113855529Y-113834462D01*
X113872101Y-113794455D01*
X113872101Y-113704745D01*
X113872101Y-113694756D01*
X113872100Y-113694742D01*
X113872100Y-113330046D01*
X113872098Y-113330041D01*
X113837772Y-113247166D01*
X113767271Y-113176665D01*
X113767264Y-113176659D01*
X112757319Y-112166714D01*
X112723834Y-112105391D01*
X112721000Y-112079033D01*
X112721000Y-111225587D01*
X112732165Y-111187565D01*
X113827800Y-111187565D01*
X113827800Y-111286435D01*
X113853390Y-111381938D01*
X113902825Y-111467562D01*
X113972738Y-111537475D01*
X114058362Y-111586910D01*
X114153865Y-111612500D01*
X114153867Y-111612500D01*
X114252732Y-111612500D01*
X114252735Y-111612500D01*
X114348238Y-111586910D01*
X114433862Y-111537475D01*
X114503775Y-111467562D01*
X114553210Y-111381938D01*
X114578800Y-111286435D01*
X114578800Y-111187565D01*
X114553210Y-111092062D01*
X114503775Y-111006438D01*
X114433862Y-110936525D01*
X114348238Y-110887090D01*
X114252735Y-110861500D01*
X114153865Y-110861500D01*
X114058362Y-110887090D01*
X114058360Y-110887091D01*
X114058359Y-110887091D01*
X113972736Y-110936526D01*
X113902826Y-111006436D01*
X113853391Y-111092059D01*
X113853391Y-111092060D01*
X113853390Y-111092062D01*
X113827800Y-111187565D01*
X112732165Y-111187565D01*
X112740685Y-111158548D01*
X112793489Y-111112793D01*
X112862647Y-111102849D01*
X112877083Y-111105810D01*
X112950565Y-111125500D01*
X112950567Y-111125500D01*
X113049432Y-111125500D01*
X113049435Y-111125500D01*
X113144938Y-111099910D01*
X113230562Y-111050475D01*
X113300475Y-110980562D01*
X113349910Y-110894938D01*
X113375500Y-110799435D01*
X113375500Y-110700565D01*
X113349910Y-110605062D01*
X113300475Y-110519438D01*
X113230562Y-110449525D01*
X113144938Y-110400090D01*
X113049435Y-110374500D01*
X112950565Y-110374500D01*
X112877092Y-110394186D01*
X112807243Y-110392524D01*
X112749381Y-110353361D01*
X112721877Y-110289133D01*
X112721000Y-110274412D01*
X112721000Y-110263137D01*
X112737376Y-110207366D01*
X112736296Y-110206919D01*
X112740457Y-110196871D01*
X112740685Y-110196098D01*
X112740938Y-110195710D01*
X112740967Y-110195638D01*
X112740970Y-110195636D01*
X112760163Y-110149300D01*
X112775301Y-110112754D01*
X112775301Y-110023045D01*
X112775301Y-110013056D01*
X112775300Y-110013042D01*
X112775300Y-109329697D01*
X112775301Y-109329688D01*
X112775301Y-109225547D01*
X112775301Y-109225545D01*
X112748587Y-109161053D01*
X112743184Y-109148009D01*
X112743183Y-109148006D01*
X112740971Y-109142666D01*
X112740970Y-109142665D01*
X112740970Y-109142664D01*
X112677536Y-109079230D01*
X112670471Y-109072165D01*
X112670464Y-109072159D01*
X112495519Y-108897214D01*
X112462034Y-108835891D01*
X112459200Y-108809533D01*
X112459200Y-108754867D01*
X112459200Y-108754865D01*
X112433610Y-108659362D01*
X112384175Y-108573738D01*
X112314262Y-108503825D01*
X112283387Y-108485999D01*
X112235173Y-108435434D01*
X112221950Y-108366827D01*
X112247919Y-108301962D01*
X112283387Y-108271228D01*
X112352762Y-108231175D01*
X112422675Y-108161262D01*
X112472110Y-108075638D01*
X112497700Y-107980135D01*
X112497700Y-107881265D01*
X112479742Y-107814245D01*
X112481405Y-107744401D01*
X112520567Y-107686538D01*
X112584795Y-107659033D01*
X112653697Y-107670619D01*
X112661510Y-107674765D01*
X112705062Y-107699910D01*
X112800565Y-107725500D01*
X112800567Y-107725500D01*
X112899432Y-107725500D01*
X112899435Y-107725500D01*
X112994938Y-107699910D01*
X113080562Y-107650475D01*
X113150475Y-107580562D01*
X113199910Y-107494938D01*
X113225500Y-107399435D01*
X113225500Y-107300565D01*
X113199910Y-107205062D01*
X113150475Y-107119438D01*
X113080562Y-107049525D01*
X112994938Y-107000090D01*
X112973467Y-106994336D01*
X112965614Y-106989465D01*
X115341400Y-106989465D01*
X115341400Y-107088335D01*
X115366990Y-107183838D01*
X115366991Y-107183839D01*
X115366991Y-107183840D01*
X115370821Y-107190473D01*
X115416425Y-107269462D01*
X115486338Y-107339375D01*
X115571962Y-107388810D01*
X115667465Y-107414400D01*
X115667467Y-107414400D01*
X115766332Y-107414400D01*
X115766335Y-107414400D01*
X115861838Y-107388810D01*
X115947462Y-107339375D01*
X116017375Y-107269462D01*
X116066810Y-107183838D01*
X116092400Y-107088335D01*
X116092400Y-106989465D01*
X116074119Y-106921239D01*
X116074119Y-106921237D01*
X116067697Y-106897273D01*
X116599500Y-106897273D01*
X116599500Y-107002727D01*
X116626793Y-107104587D01*
X116679520Y-107195913D01*
X116754087Y-107270480D01*
X116845413Y-107323207D01*
X116947273Y-107350500D01*
X116947275Y-107350500D01*
X117052725Y-107350500D01*
X117052727Y-107350500D01*
X117154587Y-107323207D01*
X117245913Y-107270480D01*
X117320480Y-107195913D01*
X117373207Y-107104587D01*
X117400500Y-107002727D01*
X117400500Y-106897273D01*
X117373207Y-106795413D01*
X117320480Y-106704087D01*
X117245913Y-106629520D01*
X117154587Y-106576793D01*
X117052727Y-106549500D01*
X116947273Y-106549500D01*
X116845413Y-106576793D01*
X116845410Y-106576794D01*
X116754085Y-106629521D01*
X116679521Y-106704085D01*
X116626794Y-106795410D01*
X116626793Y-106795413D01*
X116599500Y-106897273D01*
X116067697Y-106897273D01*
X116067516Y-106896598D01*
X116066810Y-106893962D01*
X116017375Y-106808338D01*
X115947462Y-106738425D01*
X115861838Y-106688990D01*
X115766335Y-106663400D01*
X115667465Y-106663400D01*
X115571962Y-106688990D01*
X115571960Y-106688991D01*
X115571959Y-106688991D01*
X115486336Y-106738426D01*
X115416426Y-106808336D01*
X115366991Y-106893959D01*
X115366991Y-106893960D01*
X115366990Y-106893962D01*
X115341400Y-106989465D01*
X112965614Y-106989465D01*
X112957894Y-106984676D01*
X112946323Y-106971745D01*
X112931506Y-106962714D01*
X112923508Y-106946250D01*
X112911302Y-106932609D01*
X112908558Y-106915471D01*
X112900978Y-106899866D01*
X112903150Y-106881693D01*
X112900257Y-106863618D01*
X112907212Y-106847720D01*
X112909273Y-106830491D01*
X112924769Y-106807595D01*
X112928265Y-106799607D01*
X112931743Y-106797292D01*
X112935580Y-106791624D01*
X112971142Y-106756063D01*
X113167886Y-106559319D01*
X113229209Y-106525834D01*
X113255567Y-106523000D01*
X113718100Y-106523000D01*
X113785139Y-106542685D01*
X113805780Y-106559318D01*
X113827044Y-106580581D01*
X113844438Y-106597975D01*
X113930062Y-106647410D01*
X114025565Y-106673000D01*
X114025567Y-106673000D01*
X114124432Y-106673000D01*
X114124435Y-106673000D01*
X114219938Y-106647410D01*
X114305562Y-106597975D01*
X114375475Y-106528062D01*
X114391350Y-106500565D01*
X118449500Y-106500565D01*
X118449500Y-106599435D01*
X118475090Y-106694938D01*
X118524525Y-106780562D01*
X118594438Y-106850475D01*
X118680062Y-106899910D01*
X118709906Y-106907906D01*
X118769566Y-106944271D01*
X118797587Y-106995587D01*
X118826793Y-107104588D01*
X118826794Y-107104589D01*
X118879520Y-107195913D01*
X118954087Y-107270480D01*
X119045413Y-107323207D01*
X119147273Y-107350500D01*
X119147275Y-107350500D01*
X119252725Y-107350500D01*
X119252727Y-107350500D01*
X119354587Y-107323207D01*
X119445913Y-107270480D01*
X119520480Y-107195913D01*
X119573207Y-107104587D01*
X119600500Y-107002727D01*
X119600500Y-106897273D01*
X119573207Y-106795413D01*
X119520480Y-106704087D01*
X119445913Y-106629520D01*
X119356920Y-106578140D01*
X119354589Y-106576794D01*
X119354588Y-106576793D01*
X119354587Y-106576793D01*
X119279736Y-106556737D01*
X119220077Y-106520373D01*
X119192057Y-106469058D01*
X119174910Y-106405062D01*
X119125475Y-106319438D01*
X119055562Y-106249525D01*
X118969938Y-106200090D01*
X118874435Y-106174500D01*
X118775565Y-106174500D01*
X118680062Y-106200090D01*
X118680060Y-106200091D01*
X118680059Y-106200091D01*
X118594436Y-106249526D01*
X118524526Y-106319436D01*
X118475091Y-106405059D01*
X118475091Y-106405060D01*
X118475090Y-106405062D01*
X118449500Y-106500565D01*
X114391350Y-106500565D01*
X114424910Y-106442438D01*
X114450500Y-106346935D01*
X114450500Y-106248065D01*
X114424910Y-106152562D01*
X114375475Y-106066938D01*
X114305562Y-105997025D01*
X114219938Y-105947590D01*
X114124435Y-105922000D01*
X114025565Y-105922000D01*
X113930062Y-105947590D01*
X113930060Y-105947591D01*
X113930059Y-105947591D01*
X113844436Y-105997026D01*
X113805780Y-106035682D01*
X113744457Y-106069167D01*
X113718100Y-106072000D01*
X113170097Y-106072000D01*
X113170089Y-106071999D01*
X113155655Y-106071999D01*
X113065946Y-106071999D01*
X113065943Y-106071999D01*
X113038686Y-106083290D01*
X112983066Y-106106327D01*
X112983064Y-106106329D01*
X112181488Y-106907906D01*
X111380465Y-107708929D01*
X111380464Y-107708930D01*
X111363894Y-107725500D01*
X111317030Y-107772363D01*
X111310545Y-107788022D01*
X111310543Y-107788026D01*
X111282699Y-107855243D01*
X111282699Y-107959388D01*
X111282700Y-107959397D01*
X111282700Y-108259831D01*
X111263015Y-108326870D01*
X111246381Y-108347512D01*
X110673452Y-108920440D01*
X110612129Y-108953925D01*
X110542437Y-108948941D01*
X110486504Y-108907069D01*
X110478389Y-108894767D01*
X110466075Y-108873438D01*
X110396162Y-108803525D01*
X110310538Y-108754090D01*
X110215035Y-108728500D01*
X110160367Y-108728500D01*
X110093328Y-108708815D01*
X110072686Y-108692181D01*
X109642311Y-108261806D01*
X109642309Y-108261803D01*
X109561435Y-108180929D01*
X109535835Y-108170326D01*
X109535833Y-108170324D01*
X109535833Y-108170325D01*
X109478555Y-108146599D01*
X109388845Y-108146599D01*
X109374411Y-108146599D01*
X109374403Y-108146600D01*
X106409295Y-108146600D01*
X106347294Y-108129987D01*
X106331538Y-108120890D01*
X106236035Y-108095300D01*
X106137165Y-108095300D01*
X106041662Y-108120890D01*
X106041660Y-108120891D01*
X106041659Y-108120891D01*
X105956036Y-108170326D01*
X105886126Y-108240236D01*
X105836691Y-108325859D01*
X105836691Y-108325860D01*
X105836690Y-108325862D01*
X105811100Y-108421365D01*
X105811100Y-108520235D01*
X105836690Y-108615738D01*
X105886125Y-108701362D01*
X105956038Y-108771275D01*
X106041662Y-108820710D01*
X106137165Y-108846300D01*
X106137167Y-108846300D01*
X106236032Y-108846300D01*
X106236035Y-108846300D01*
X106331538Y-108820710D01*
X106417162Y-108771275D01*
X106487075Y-108701362D01*
X106511187Y-108659597D01*
X106561753Y-108611384D01*
X106618573Y-108597600D01*
X107343732Y-108597600D01*
X107410771Y-108617285D01*
X107456526Y-108670089D01*
X107466470Y-108739247D01*
X107463507Y-108753689D01*
X107445500Y-108820897D01*
X107445500Y-108914503D01*
X107456540Y-108955709D01*
X107454878Y-109025556D01*
X107415716Y-109083419D01*
X107351487Y-109110923D01*
X107336766Y-109111800D01*
X105788454Y-109111800D01*
X105698745Y-109111800D01*
X105698743Y-109111800D01*
X105698741Y-109111801D01*
X105615868Y-109146127D01*
X105615863Y-109146130D01*
X105495614Y-109266381D01*
X105434291Y-109299866D01*
X105407932Y-109302700D01*
X104488153Y-109302700D01*
X104421114Y-109283015D01*
X104375359Y-109230211D01*
X104365415Y-109161053D01*
X104368374Y-109146621D01*
X104389700Y-109067035D01*
X104389700Y-108968165D01*
X104364110Y-108872662D01*
X104314675Y-108787038D01*
X104244762Y-108717125D01*
X104239015Y-108711378D01*
X104240524Y-108709868D01*
X104205973Y-108662552D01*
X104201816Y-108592806D01*
X104215272Y-108558605D01*
X104259710Y-108481638D01*
X104260275Y-108479527D01*
X104261369Y-108477632D01*
X104262822Y-108474126D01*
X104263283Y-108474317D01*
X104292369Y-108423934D01*
X105451607Y-107264697D01*
X107984800Y-107264697D01*
X107984800Y-107358302D01*
X108009026Y-107448719D01*
X108032427Y-107489250D01*
X108055829Y-107529782D01*
X108122018Y-107595971D01*
X108181347Y-107630225D01*
X108200686Y-107641391D01*
X108203082Y-107642774D01*
X108293497Y-107667000D01*
X108293499Y-107667000D01*
X108387101Y-107667000D01*
X108387103Y-107667000D01*
X108477518Y-107642774D01*
X108558582Y-107595971D01*
X108624771Y-107529782D01*
X108671574Y-107448718D01*
X108693360Y-107367406D01*
X108729724Y-107307747D01*
X108792571Y-107277217D01*
X108813135Y-107275500D01*
X108849432Y-107275500D01*
X108849435Y-107275500D01*
X108944938Y-107249910D01*
X109030562Y-107200475D01*
X109100475Y-107130562D01*
X109149910Y-107044938D01*
X109174704Y-106952404D01*
X109211070Y-106892745D01*
X109273917Y-106862216D01*
X109294479Y-106860499D01*
X109503366Y-106860499D01*
X109503372Y-106860499D01*
X109527662Y-106857682D01*
X109625415Y-106814519D01*
X109694692Y-106805448D01*
X109757877Y-106835271D01*
X109794908Y-106894520D01*
X109799500Y-106927954D01*
X109799500Y-106949435D01*
X109825090Y-107044938D01*
X109874525Y-107130562D01*
X109944438Y-107200475D01*
X110030062Y-107249910D01*
X110125565Y-107275500D01*
X110125567Y-107275500D01*
X110224432Y-107275500D01*
X110224435Y-107275500D01*
X110319938Y-107249910D01*
X110405562Y-107200475D01*
X110475475Y-107130562D01*
X110524910Y-107044938D01*
X110550500Y-106949435D01*
X110550500Y-106901691D01*
X110570185Y-106834652D01*
X110586819Y-106814010D01*
X110621658Y-106779171D01*
X110663813Y-106737016D01*
X110707682Y-106637662D01*
X110710500Y-106613373D01*
X110710499Y-106186628D01*
X110707682Y-106162338D01*
X110663813Y-106062984D01*
X110587016Y-105986187D01*
X110543428Y-105966941D01*
X110487663Y-105942318D01*
X110463373Y-105939500D01*
X110096634Y-105939500D01*
X110096611Y-105939502D01*
X110072340Y-105942317D01*
X110072337Y-105942318D01*
X109972984Y-105986186D01*
X109972983Y-105986187D01*
X109888062Y-106071109D01*
X109885075Y-106068122D01*
X109848155Y-106098252D01*
X109778733Y-106106147D01*
X109716063Y-106075256D01*
X109712222Y-106070824D01*
X109711938Y-106071109D01*
X109627016Y-105986187D01*
X109527663Y-105942318D01*
X109503373Y-105939500D01*
X109136634Y-105939500D01*
X109136611Y-105939502D01*
X109112340Y-105942317D01*
X109112337Y-105942318D01*
X109012984Y-105986186D01*
X108936187Y-106062983D01*
X108892318Y-106162335D01*
X108892318Y-106162337D01*
X108889500Y-106186625D01*
X108889500Y-106399761D01*
X108869815Y-106466800D01*
X108851478Y-106489113D01*
X108850710Y-106489852D01*
X108788754Y-106522151D01*
X108764732Y-106524500D01*
X108750565Y-106524500D01*
X108655062Y-106550090D01*
X108655060Y-106550091D01*
X108655059Y-106550091D01*
X108569436Y-106599526D01*
X108499526Y-106669436D01*
X108450091Y-106755059D01*
X108450091Y-106755060D01*
X108450090Y-106755062D01*
X108424500Y-106850565D01*
X108424500Y-106850567D01*
X108422397Y-106858416D01*
X108420512Y-106857911D01*
X108396540Y-106912090D01*
X108338212Y-106950556D01*
X108301874Y-106956000D01*
X108293497Y-106956000D01*
X108203080Y-106980226D01*
X108122018Y-107027029D01*
X108122015Y-107027031D01*
X108055831Y-107093215D01*
X108055829Y-107093218D01*
X108009026Y-107174280D01*
X107984800Y-107264697D01*
X105451607Y-107264697D01*
X105650794Y-107065510D01*
X105650797Y-107065508D01*
X105668235Y-107048070D01*
X105668236Y-107048070D01*
X105731670Y-106984636D01*
X105731670Y-106984634D01*
X105731672Y-106984633D01*
X105755148Y-106927954D01*
X105766000Y-106901755D01*
X105766000Y-106486966D01*
X105785685Y-106419927D01*
X105802315Y-106399289D01*
X106208194Y-105993409D01*
X106208197Y-105993408D01*
X106225635Y-105975970D01*
X106225636Y-105975970D01*
X106289070Y-105912536D01*
X106317808Y-105843156D01*
X106323401Y-105829654D01*
X106323401Y-105739945D01*
X106323401Y-105729956D01*
X106323400Y-105729942D01*
X106323400Y-104953065D01*
X113756400Y-104953065D01*
X113756400Y-105051935D01*
X113781990Y-105147438D01*
X113831425Y-105233062D01*
X113901338Y-105302975D01*
X113986962Y-105352410D01*
X114082465Y-105378000D01*
X114082467Y-105378000D01*
X114181332Y-105378000D01*
X114181335Y-105378000D01*
X114276838Y-105352410D01*
X114362462Y-105302975D01*
X114432375Y-105233062D01*
X114432377Y-105233057D01*
X114437321Y-105226616D01*
X114438908Y-105227833D01*
X114481652Y-105187074D01*
X114550259Y-105173849D01*
X114600473Y-105189900D01*
X114612962Y-105197110D01*
X114708465Y-105222700D01*
X114708467Y-105222700D01*
X114807332Y-105222700D01*
X114807335Y-105222700D01*
X114902838Y-105197110D01*
X114988462Y-105147675D01*
X115058375Y-105077762D01*
X115107810Y-104992138D01*
X115133400Y-104896635D01*
X115133400Y-104797765D01*
X115107810Y-104702262D01*
X115058375Y-104616638D01*
X114988462Y-104546725D01*
X114902838Y-104497290D01*
X114807335Y-104471700D01*
X114708465Y-104471700D01*
X114612962Y-104497290D01*
X114612960Y-104497291D01*
X114612959Y-104497291D01*
X114527336Y-104546726D01*
X114457424Y-104616638D01*
X114452479Y-104623084D01*
X114450895Y-104621869D01*
X114408120Y-104662639D01*
X114339510Y-104675847D01*
X114289324Y-104659799D01*
X114284765Y-104657167D01*
X114276838Y-104652590D01*
X114181335Y-104627000D01*
X114082465Y-104627000D01*
X113986962Y-104652590D01*
X113986960Y-104652591D01*
X113986959Y-104652591D01*
X113901336Y-104702026D01*
X113831426Y-104771936D01*
X113781991Y-104857559D01*
X113781991Y-104857560D01*
X113781990Y-104857562D01*
X113756400Y-104953065D01*
X106323400Y-104953065D01*
X106323400Y-104777747D01*
X106343085Y-104710708D01*
X106395889Y-104664953D01*
X106465047Y-104655009D01*
X106494855Y-104663187D01*
X106500454Y-104665505D01*
X106500462Y-104665510D01*
X106595965Y-104691100D01*
X106595967Y-104691100D01*
X106694832Y-104691100D01*
X106694835Y-104691100D01*
X106790338Y-104665510D01*
X106875962Y-104616075D01*
X106945875Y-104546162D01*
X106995310Y-104460538D01*
X107020900Y-104365035D01*
X107020900Y-104266165D01*
X107004635Y-104205463D01*
X107004635Y-104205461D01*
X106998213Y-104181497D01*
X108752300Y-104181497D01*
X108752300Y-104275103D01*
X108755899Y-104288534D01*
X108776526Y-104365519D01*
X108796721Y-104400497D01*
X108823329Y-104446582D01*
X108889518Y-104512771D01*
X108947352Y-104546162D01*
X108968444Y-104558340D01*
X108970582Y-104559574D01*
X109060997Y-104583800D01*
X109060999Y-104583800D01*
X109154601Y-104583800D01*
X109154603Y-104583800D01*
X109245018Y-104559574D01*
X109326082Y-104512771D01*
X109392271Y-104446582D01*
X109439074Y-104365518D01*
X109463300Y-104275103D01*
X109463300Y-104181497D01*
X109439074Y-104091082D01*
X109435584Y-104085038D01*
X109421474Y-104060599D01*
X109392271Y-104010018D01*
X109326082Y-103943829D01*
X109276898Y-103915432D01*
X109245019Y-103897026D01*
X109199810Y-103884913D01*
X109154603Y-103872800D01*
X109060997Y-103872800D01*
X108970580Y-103897026D01*
X108889518Y-103943829D01*
X108889515Y-103943831D01*
X108823331Y-104010015D01*
X108823329Y-104010018D01*
X108776526Y-104091080D01*
X108759253Y-104155547D01*
X108752300Y-104181497D01*
X106998213Y-104181497D01*
X106995311Y-104170666D01*
X106995310Y-104170662D01*
X106945875Y-104085038D01*
X106875962Y-104015125D01*
X106790338Y-103965690D01*
X106694835Y-103940100D01*
X106595965Y-103940100D01*
X106500462Y-103965690D01*
X106500460Y-103965691D01*
X106500459Y-103965691D01*
X106414836Y-104015126D01*
X106344926Y-104085036D01*
X106295491Y-104170659D01*
X106295488Y-104170666D01*
X106271761Y-104259215D01*
X106235396Y-104318875D01*
X106172549Y-104349403D01*
X106103173Y-104341108D01*
X106064306Y-104314801D01*
X103511570Y-101762065D01*
X108350800Y-101762065D01*
X108350800Y-101860935D01*
X108376390Y-101956438D01*
X108425825Y-102042062D01*
X108495738Y-102111975D01*
X108581362Y-102161410D01*
X108676865Y-102187000D01*
X108676869Y-102187000D01*
X108680601Y-102188000D01*
X108736189Y-102220094D01*
X110574018Y-104057923D01*
X110606111Y-104113508D01*
X110613414Y-104140762D01*
X110625090Y-104184339D01*
X110625091Y-104184340D01*
X110674525Y-104269962D01*
X110744438Y-104339875D01*
X110830062Y-104389310D01*
X110925565Y-104414900D01*
X110925567Y-104414900D01*
X111024432Y-104414900D01*
X111024435Y-104414900D01*
X111119938Y-104389310D01*
X111205562Y-104339875D01*
X111275475Y-104269962D01*
X111324910Y-104184338D01*
X111350500Y-104088835D01*
X111350500Y-104015797D01*
X111935500Y-104015797D01*
X111935500Y-104109403D01*
X111938886Y-104122040D01*
X111959726Y-104199819D01*
X111983127Y-104240350D01*
X112006529Y-104280882D01*
X112072718Y-104347071D01*
X112130618Y-104380500D01*
X112145873Y-104389308D01*
X112153782Y-104393874D01*
X112244197Y-104418100D01*
X112244199Y-104418100D01*
X112337801Y-104418100D01*
X112337803Y-104418100D01*
X112428218Y-104393874D01*
X112509282Y-104347071D01*
X112537478Y-104318875D01*
X112551936Y-104304418D01*
X112613259Y-104270934D01*
X112639616Y-104268100D01*
X113209776Y-104268100D01*
X113209777Y-104268100D01*
X113249215Y-104251764D01*
X113285306Y-104236815D01*
X113343115Y-104179006D01*
X113588013Y-103934108D01*
X121599500Y-103934108D01*
X121599500Y-104065892D01*
X121606249Y-104091080D01*
X121633608Y-104193187D01*
X121658797Y-104236814D01*
X121699500Y-104307314D01*
X121792686Y-104400500D01*
X121906814Y-104466392D01*
X122034108Y-104500500D01*
X122034110Y-104500500D01*
X122165890Y-104500500D01*
X122165892Y-104500500D01*
X122293186Y-104466392D01*
X122407314Y-104400500D01*
X122500500Y-104307314D01*
X122566392Y-104193186D01*
X122600500Y-104065892D01*
X122600500Y-103934108D01*
X123399500Y-103934108D01*
X123399500Y-104065892D01*
X123406249Y-104091080D01*
X123433608Y-104193187D01*
X123458797Y-104236814D01*
X123499500Y-104307314D01*
X123592686Y-104400500D01*
X123706814Y-104466392D01*
X123834108Y-104500500D01*
X123834110Y-104500500D01*
X123965890Y-104500500D01*
X123965892Y-104500500D01*
X124093186Y-104466392D01*
X124207314Y-104400500D01*
X124300500Y-104307314D01*
X124366392Y-104193186D01*
X124400500Y-104065892D01*
X124400500Y-103934108D01*
X124366392Y-103806814D01*
X124300500Y-103692686D01*
X124207314Y-103599500D01*
X124150250Y-103566554D01*
X124093187Y-103533608D01*
X124029539Y-103516554D01*
X123965892Y-103499500D01*
X123834108Y-103499500D01*
X123706812Y-103533608D01*
X123592686Y-103599500D01*
X123592683Y-103599502D01*
X123499502Y-103692683D01*
X123499500Y-103692686D01*
X123433608Y-103806812D01*
X123410123Y-103894462D01*
X123399500Y-103934108D01*
X122600500Y-103934108D01*
X122566392Y-103806814D01*
X122500500Y-103692686D01*
X122407314Y-103599500D01*
X122350250Y-103566554D01*
X122293187Y-103533608D01*
X122229539Y-103516554D01*
X122165892Y-103499500D01*
X122034108Y-103499500D01*
X121906812Y-103533608D01*
X121792686Y-103599500D01*
X121792683Y-103599502D01*
X121699502Y-103692683D01*
X121699500Y-103692686D01*
X121633608Y-103806812D01*
X121610123Y-103894462D01*
X121599500Y-103934108D01*
X113588013Y-103934108D01*
X114724356Y-102797765D01*
X118460000Y-102797765D01*
X118460000Y-102896635D01*
X118485590Y-102992138D01*
X118535025Y-103077762D01*
X118604938Y-103147675D01*
X118690562Y-103197110D01*
X118786065Y-103222700D01*
X118786067Y-103222700D01*
X118884932Y-103222700D01*
X118884935Y-103222700D01*
X118980438Y-103197110D01*
X119066062Y-103147675D01*
X119135975Y-103077762D01*
X119185410Y-102992138D01*
X119211000Y-102896635D01*
X119211000Y-102797765D01*
X119185410Y-102702262D01*
X119135975Y-102616638D01*
X119066062Y-102546725D01*
X118980438Y-102497290D01*
X118884935Y-102471700D01*
X118786065Y-102471700D01*
X118690562Y-102497290D01*
X118690560Y-102497291D01*
X118690559Y-102497291D01*
X118604936Y-102546726D01*
X118535026Y-102616636D01*
X118485591Y-102702259D01*
X118485591Y-102702260D01*
X118485590Y-102702262D01*
X118460000Y-102797765D01*
X114724356Y-102797765D01*
X115784856Y-101737265D01*
X117671500Y-101737265D01*
X117671500Y-101836135D01*
X117697090Y-101931638D01*
X117746525Y-102017262D01*
X117816438Y-102087175D01*
X117902062Y-102136610D01*
X117997565Y-102162200D01*
X117997567Y-102162200D01*
X118096432Y-102162200D01*
X118096435Y-102162200D01*
X118191938Y-102136610D01*
X118277562Y-102087175D01*
X118347475Y-102017262D01*
X118396910Y-101931638D01*
X118422500Y-101836135D01*
X118422500Y-101737265D01*
X118396910Y-101641762D01*
X118347475Y-101556138D01*
X118277562Y-101486225D01*
X118191938Y-101436790D01*
X118096435Y-101411200D01*
X117997565Y-101411200D01*
X117902062Y-101436790D01*
X117902060Y-101436791D01*
X117902059Y-101436791D01*
X117816436Y-101486226D01*
X117746526Y-101556136D01*
X117697091Y-101641759D01*
X117697091Y-101641760D01*
X117697090Y-101641762D01*
X117671500Y-101737265D01*
X115784856Y-101737265D01*
X117280302Y-100241819D01*
X117341625Y-100208334D01*
X117367983Y-100205500D01*
X121319818Y-100205500D01*
X121386857Y-100225185D01*
X121432612Y-100277989D01*
X121434379Y-100282047D01*
X121441256Y-100298651D01*
X121441261Y-100298660D01*
X121510257Y-100401919D01*
X121510260Y-100401923D01*
X121598076Y-100489739D01*
X121598080Y-100489742D01*
X121701339Y-100558738D01*
X121701343Y-100558740D01*
X121701346Y-100558742D01*
X121816090Y-100606271D01*
X121912764Y-100625500D01*
X121937896Y-100630499D01*
X121937900Y-100630500D01*
X121937901Y-100630500D01*
X122062100Y-100630500D01*
X122062101Y-100630499D01*
X122183910Y-100606271D01*
X122298654Y-100558742D01*
X122401920Y-100489742D01*
X122489742Y-100401920D01*
X122558742Y-100298654D01*
X122606271Y-100183910D01*
X122630500Y-100062099D01*
X122630500Y-99937901D01*
X122606271Y-99816090D01*
X122558742Y-99701346D01*
X122558740Y-99701343D01*
X122558738Y-99701339D01*
X122489742Y-99598080D01*
X122489739Y-99598076D01*
X122401923Y-99510260D01*
X122401919Y-99510257D01*
X122298660Y-99441261D01*
X122298650Y-99441256D01*
X122209768Y-99404440D01*
X122183910Y-99393729D01*
X122183906Y-99393728D01*
X122183902Y-99393727D01*
X122062103Y-99369500D01*
X122062099Y-99369500D01*
X121937901Y-99369500D01*
X121937896Y-99369500D01*
X121816097Y-99393727D01*
X121816087Y-99393730D01*
X121701349Y-99441256D01*
X121701339Y-99441261D01*
X121598080Y-99510257D01*
X121598076Y-99510260D01*
X121510260Y-99598076D01*
X121510257Y-99598080D01*
X121441261Y-99701339D01*
X121441256Y-99701348D01*
X121434379Y-99717953D01*
X121390538Y-99772356D01*
X121324244Y-99794421D01*
X121319818Y-99794500D01*
X117272377Y-99794500D01*
X117190623Y-99794500D01*
X117182280Y-99797956D01*
X117165111Y-99805067D01*
X117115094Y-99825784D01*
X117115093Y-99825786D01*
X113946411Y-102994467D01*
X113885088Y-103027952D01*
X113815396Y-103022968D01*
X113759463Y-102981096D01*
X113738957Y-102938882D01*
X113716310Y-102854362D01*
X113666875Y-102768738D01*
X113596962Y-102698825D01*
X113511338Y-102649390D01*
X113415835Y-102623800D01*
X113316965Y-102623800D01*
X113221462Y-102649390D01*
X113221460Y-102649391D01*
X113221459Y-102649391D01*
X113135836Y-102698826D01*
X113065926Y-102768736D01*
X113016491Y-102854359D01*
X113016491Y-102854360D01*
X113016490Y-102854362D01*
X112990900Y-102949865D01*
X112990900Y-103048735D01*
X113016490Y-103144238D01*
X113016491Y-103144239D01*
X113016491Y-103144240D01*
X113017659Y-103146263D01*
X113065925Y-103229862D01*
X113135838Y-103299775D01*
X113221462Y-103349210D01*
X113305981Y-103371856D01*
X113365639Y-103408219D01*
X113396169Y-103471066D01*
X113387875Y-103540442D01*
X113361567Y-103579311D01*
X113120098Y-103820781D01*
X113058775Y-103854266D01*
X113032417Y-103857100D01*
X112639616Y-103857100D01*
X112572577Y-103837415D01*
X112551936Y-103820782D01*
X112509285Y-103778132D01*
X112509284Y-103778131D01*
X112509282Y-103778129D01*
X112450837Y-103744385D01*
X112428219Y-103731326D01*
X112383010Y-103719213D01*
X112337803Y-103707100D01*
X112244197Y-103707100D01*
X112153780Y-103731326D01*
X112072718Y-103778129D01*
X112072715Y-103778131D01*
X112006531Y-103844315D01*
X112006529Y-103844318D01*
X111959726Y-103925380D01*
X111944429Y-103982471D01*
X111935500Y-104015797D01*
X111350500Y-104015797D01*
X111350500Y-103989965D01*
X111324910Y-103894462D01*
X111275475Y-103808838D01*
X111205562Y-103738925D01*
X111119938Y-103689490D01*
X111024435Y-103663900D01*
X110925565Y-103663900D01*
X110925563Y-103663900D01*
X110909724Y-103668144D01*
X110839874Y-103666479D01*
X110789954Y-103636049D01*
X110112359Y-102958454D01*
X110078874Y-102897131D01*
X110083858Y-102827439D01*
X110125730Y-102771506D01*
X110138020Y-102763398D01*
X110191062Y-102732775D01*
X110260975Y-102662862D01*
X110310410Y-102577238D01*
X110336000Y-102481735D01*
X110336000Y-102382865D01*
X110310410Y-102287362D01*
X110260975Y-102201738D01*
X110191062Y-102131825D01*
X110105438Y-102082390D01*
X110009935Y-102056800D01*
X109911065Y-102056800D01*
X109815562Y-102082390D01*
X109815560Y-102082391D01*
X109815559Y-102082391D01*
X109729936Y-102131826D01*
X109660025Y-102201737D01*
X109629412Y-102254760D01*
X109578845Y-102302975D01*
X109510238Y-102316197D01*
X109445373Y-102290229D01*
X109434345Y-102280440D01*
X109134045Y-101980140D01*
X109112872Y-101941365D01*
X110453100Y-101941365D01*
X110453100Y-101941367D01*
X110453100Y-102040236D01*
X110459513Y-102064172D01*
X110459514Y-102064175D01*
X110478690Y-102135738D01*
X110528125Y-102221362D01*
X110598038Y-102291275D01*
X110683662Y-102340710D01*
X110779165Y-102366300D01*
X110779167Y-102366300D01*
X110878032Y-102366300D01*
X110878035Y-102366300D01*
X110973538Y-102340710D01*
X111059162Y-102291275D01*
X111129075Y-102221362D01*
X111178510Y-102135738D01*
X111204100Y-102040235D01*
X111204100Y-101941365D01*
X111178510Y-101845862D01*
X111129075Y-101760238D01*
X111059162Y-101690325D01*
X110973538Y-101640890D01*
X110878035Y-101615300D01*
X110779165Y-101615300D01*
X110683662Y-101640890D01*
X110683660Y-101640891D01*
X110683659Y-101640891D01*
X110598036Y-101690326D01*
X110528126Y-101760236D01*
X110478691Y-101845859D01*
X110478691Y-101845860D01*
X110478690Y-101845862D01*
X110453100Y-101941365D01*
X109112872Y-101941365D01*
X109100560Y-101918817D01*
X109101746Y-101869123D01*
X109100739Y-101868991D01*
X109101800Y-101860933D01*
X109101800Y-101762067D01*
X109101800Y-101762065D01*
X109076210Y-101666562D01*
X109026775Y-101580938D01*
X108956862Y-101511025D01*
X108871238Y-101461590D01*
X108775735Y-101436000D01*
X108676865Y-101436000D01*
X108581362Y-101461590D01*
X108581360Y-101461591D01*
X108581359Y-101461591D01*
X108495736Y-101511026D01*
X108425826Y-101580936D01*
X108376391Y-101666559D01*
X108376391Y-101666560D01*
X108376390Y-101666562D01*
X108350800Y-101762065D01*
X103511570Y-101762065D01*
X103379871Y-101630366D01*
X103346386Y-101569043D01*
X103351370Y-101499351D01*
X103393242Y-101443418D01*
X103405552Y-101435298D01*
X103407435Y-101434210D01*
X103407438Y-101434210D01*
X103493062Y-101384775D01*
X103562975Y-101314862D01*
X103612410Y-101229238D01*
X103638000Y-101133735D01*
X103638000Y-101034865D01*
X103612410Y-100939362D01*
X103562975Y-100853738D01*
X103493062Y-100783825D01*
X103407438Y-100734390D01*
X103311935Y-100708800D01*
X103257267Y-100708800D01*
X103190228Y-100689115D01*
X103169586Y-100672481D01*
X102890011Y-100392906D01*
X102890009Y-100392903D01*
X102809134Y-100312028D01*
X102776845Y-100298655D01*
X102776841Y-100298653D01*
X102726257Y-100277699D01*
X102726255Y-100277699D01*
X102636545Y-100277699D01*
X102622111Y-100277699D01*
X102622103Y-100277700D01*
X94573291Y-100277700D01*
X94506252Y-100258015D01*
X94460497Y-100205211D01*
X94450553Y-100136053D01*
X94465904Y-100091700D01*
X94471216Y-100082500D01*
X94518710Y-100000238D01*
X94544300Y-99904735D01*
X94544300Y-99805865D01*
X94518710Y-99710362D01*
X94469275Y-99624738D01*
X94399362Y-99554825D01*
X94330669Y-99515165D01*
X96886200Y-99515165D01*
X96886200Y-99614035D01*
X96911790Y-99709538D01*
X96911791Y-99709539D01*
X96911791Y-99709540D01*
X96912266Y-99710362D01*
X96961225Y-99795162D01*
X97031138Y-99865075D01*
X97116762Y-99914510D01*
X97212265Y-99940100D01*
X97212267Y-99940100D01*
X97311132Y-99940100D01*
X97311135Y-99940100D01*
X97406638Y-99914510D01*
X97492262Y-99865075D01*
X97562175Y-99795162D01*
X97611610Y-99709538D01*
X97637200Y-99614035D01*
X97637200Y-99515165D01*
X97611610Y-99419662D01*
X97571717Y-99350565D01*
X106590500Y-99350565D01*
X106590500Y-99449435D01*
X106616090Y-99544938D01*
X106665525Y-99630562D01*
X106735438Y-99700475D01*
X106821062Y-99749910D01*
X106916565Y-99775500D01*
X106916567Y-99775500D01*
X107015432Y-99775500D01*
X107015435Y-99775500D01*
X107110938Y-99749910D01*
X107196562Y-99700475D01*
X107266475Y-99630562D01*
X107315910Y-99544938D01*
X107341500Y-99449435D01*
X107341500Y-99350565D01*
X107315910Y-99255062D01*
X107266475Y-99169438D01*
X107196562Y-99099525D01*
X107110938Y-99050090D01*
X107015435Y-99024500D01*
X106916565Y-99024500D01*
X106821062Y-99050090D01*
X106821060Y-99050091D01*
X106821059Y-99050091D01*
X106735436Y-99099526D01*
X106665526Y-99169436D01*
X106616091Y-99255059D01*
X106616091Y-99255060D01*
X106616090Y-99255062D01*
X106590500Y-99350565D01*
X97571717Y-99350565D01*
X97562175Y-99334038D01*
X97492262Y-99264125D01*
X97406638Y-99214690D01*
X97311135Y-99189100D01*
X97212265Y-99189100D01*
X97116762Y-99214690D01*
X97116760Y-99214691D01*
X97116759Y-99214691D01*
X97031136Y-99264126D01*
X96961226Y-99334036D01*
X96911791Y-99419659D01*
X96911791Y-99419660D01*
X96911790Y-99419662D01*
X96886200Y-99515165D01*
X94330669Y-99515165D01*
X94313738Y-99505390D01*
X94218235Y-99479800D01*
X94119365Y-99479800D01*
X94023862Y-99505390D01*
X94023860Y-99505391D01*
X94023859Y-99505391D01*
X93938236Y-99554826D01*
X93868326Y-99624736D01*
X93818891Y-99710359D01*
X93818891Y-99710360D01*
X93818890Y-99710362D01*
X93793300Y-99805865D01*
X93793300Y-99904735D01*
X93817956Y-99996753D01*
X93818890Y-100000238D01*
X93827182Y-100014600D01*
X93843653Y-100082500D01*
X93820801Y-100148527D01*
X93781796Y-100183985D01*
X93749336Y-100202726D01*
X93679426Y-100272636D01*
X93629991Y-100358259D01*
X93629991Y-100358260D01*
X93629990Y-100358262D01*
X93604400Y-100453765D01*
X93604400Y-100453767D01*
X93604400Y-100552636D01*
X93613342Y-100586008D01*
X93611679Y-100655857D01*
X93572516Y-100713720D01*
X93508287Y-100741223D01*
X93493567Y-100742100D01*
X87180767Y-100742100D01*
X87113728Y-100722415D01*
X87093086Y-100705781D01*
X85117870Y-98730565D01*
X104092400Y-98730565D01*
X104092400Y-98829435D01*
X104117990Y-98924938D01*
X104167425Y-99010562D01*
X104237338Y-99080475D01*
X104322962Y-99129910D01*
X104418465Y-99155500D01*
X104418467Y-99155500D01*
X104517332Y-99155500D01*
X104517335Y-99155500D01*
X104612838Y-99129910D01*
X104698462Y-99080475D01*
X104768375Y-99010562D01*
X104817810Y-98924938D01*
X104843400Y-98829435D01*
X104843400Y-98730565D01*
X104817810Y-98635062D01*
X104768375Y-98549438D01*
X104698462Y-98479525D01*
X104612838Y-98430090D01*
X104517335Y-98404500D01*
X104418465Y-98404500D01*
X104322962Y-98430090D01*
X104322960Y-98430091D01*
X104322959Y-98430091D01*
X104237336Y-98479526D01*
X104167426Y-98549436D01*
X104117991Y-98635059D01*
X104117991Y-98635060D01*
X104117990Y-98635062D01*
X104092400Y-98730565D01*
X85117870Y-98730565D01*
X83828670Y-97441365D01*
X98227600Y-97441365D01*
X98227600Y-97540235D01*
X98253190Y-97635738D01*
X98302625Y-97721362D01*
X98372538Y-97791275D01*
X98458162Y-97840710D01*
X98553665Y-97866300D01*
X98553667Y-97866300D01*
X98652532Y-97866300D01*
X98652535Y-97866300D01*
X98748038Y-97840710D01*
X98833662Y-97791275D01*
X98903575Y-97721362D01*
X98953010Y-97635738D01*
X98978600Y-97540235D01*
X98978600Y-97441365D01*
X98953010Y-97345862D01*
X98903575Y-97260238D01*
X98833662Y-97190325D01*
X98748038Y-97140890D01*
X98652535Y-97115300D01*
X98553665Y-97115300D01*
X98458162Y-97140890D01*
X98458160Y-97140891D01*
X98458159Y-97140891D01*
X98372536Y-97190326D01*
X98302626Y-97260236D01*
X98253191Y-97345859D01*
X98253191Y-97345860D01*
X98253190Y-97345862D01*
X98227600Y-97441365D01*
X83828670Y-97441365D01*
X83787011Y-97399706D01*
X83787009Y-97399703D01*
X83706134Y-97318828D01*
X83668908Y-97303410D01*
X83668904Y-97303408D01*
X83623256Y-97284499D01*
X83623255Y-97284499D01*
X83533545Y-97284499D01*
X83519111Y-97284499D01*
X83519103Y-97284500D01*
X83305066Y-97284500D01*
X83238027Y-97264815D01*
X83192272Y-97212011D01*
X83182328Y-97142853D01*
X83211353Y-97079297D01*
X83217385Y-97072819D01*
X83507039Y-96783165D01*
X92834700Y-96783165D01*
X92834700Y-96882035D01*
X92860290Y-96977538D01*
X92909725Y-97063162D01*
X92979638Y-97133075D01*
X93065262Y-97182510D01*
X93160765Y-97208100D01*
X93160767Y-97208100D01*
X93259632Y-97208100D01*
X93259635Y-97208100D01*
X93355138Y-97182510D01*
X93440762Y-97133075D01*
X93510675Y-97063162D01*
X93560110Y-96977538D01*
X93585700Y-96882035D01*
X93585700Y-96783165D01*
X93560110Y-96687662D01*
X93510675Y-96602038D01*
X93440762Y-96532125D01*
X93355138Y-96482690D01*
X93259635Y-96457100D01*
X93160765Y-96457100D01*
X93065262Y-96482690D01*
X93065260Y-96482691D01*
X93065259Y-96482691D01*
X92979636Y-96532126D01*
X92909726Y-96602036D01*
X92860291Y-96687659D01*
X92860291Y-96687660D01*
X92860290Y-96687662D01*
X92834700Y-96783165D01*
X83507039Y-96783165D01*
X83602847Y-96687357D01*
X84025279Y-96264926D01*
X84825086Y-95465119D01*
X84886409Y-95431634D01*
X84912767Y-95428800D01*
X96804201Y-95428800D01*
X96871240Y-95448485D01*
X96916995Y-95501289D01*
X96926939Y-95570447D01*
X96897914Y-95634003D01*
X96891882Y-95640481D01*
X96878726Y-95653636D01*
X96829291Y-95739259D01*
X96829291Y-95739260D01*
X96829290Y-95739262D01*
X96803700Y-95834765D01*
X96803700Y-95933635D01*
X96829290Y-96029138D01*
X96829291Y-96029139D01*
X96829291Y-96029140D01*
X96837057Y-96042591D01*
X96878725Y-96114762D01*
X96948638Y-96184675D01*
X97034262Y-96234110D01*
X97129765Y-96259700D01*
X97129767Y-96259700D01*
X97228632Y-96259700D01*
X97228635Y-96259700D01*
X97324138Y-96234110D01*
X97409762Y-96184675D01*
X97479675Y-96114762D01*
X97529110Y-96029138D01*
X97554700Y-95933635D01*
X97554700Y-95834765D01*
X97529110Y-95739262D01*
X97479675Y-95653638D01*
X97466518Y-95640481D01*
X97433033Y-95579158D01*
X97438017Y-95509466D01*
X97479889Y-95453533D01*
X97545353Y-95429116D01*
X97554199Y-95428800D01*
X98532774Y-95428800D01*
X98599813Y-95448485D01*
X98645568Y-95501289D01*
X98655512Y-95570447D01*
X98626487Y-95634003D01*
X98594775Y-95660185D01*
X98549488Y-95686331D01*
X98526636Y-95699526D01*
X98456726Y-95769436D01*
X98407291Y-95855059D01*
X98407291Y-95855060D01*
X98407290Y-95855062D01*
X98381700Y-95950565D01*
X98381700Y-96049435D01*
X98407290Y-96144938D01*
X98456725Y-96230562D01*
X98526638Y-96300475D01*
X98612262Y-96349910D01*
X98707765Y-96375500D01*
X98707767Y-96375500D01*
X98762433Y-96375500D01*
X98829472Y-96395185D01*
X98850114Y-96411819D01*
X100301459Y-97863164D01*
X100301462Y-97863168D01*
X100308530Y-97870236D01*
X100371964Y-97933670D01*
X100385653Y-97939340D01*
X100385655Y-97939341D01*
X100385654Y-97939341D01*
X100454842Y-97968000D01*
X100454843Y-97968000D01*
X100454845Y-97968001D01*
X100454846Y-97968001D01*
X100558989Y-97968001D01*
X100558997Y-97968000D01*
X100893009Y-97968000D01*
X100960048Y-97987685D01*
X101005803Y-98040489D01*
X101015747Y-98109647D01*
X101012786Y-98124081D01*
X100992400Y-98200165D01*
X100992400Y-98299035D01*
X101017990Y-98394538D01*
X101017991Y-98394539D01*
X101017991Y-98394540D01*
X101031237Y-98417482D01*
X101067425Y-98480162D01*
X101137338Y-98550075D01*
X101222962Y-98599510D01*
X101318465Y-98625100D01*
X101318467Y-98625100D01*
X101417333Y-98625100D01*
X101417335Y-98625100D01*
X101512838Y-98599510D01*
X101598462Y-98550075D01*
X101646515Y-98502021D01*
X101657691Y-98494829D01*
X101678972Y-98488564D01*
X101698443Y-98477933D01*
X101724669Y-98475114D01*
X101724717Y-98475100D01*
X101724739Y-98475106D01*
X101724800Y-98475100D01*
X103698103Y-98475100D01*
X103698111Y-98475101D01*
X103712545Y-98475101D01*
X103802253Y-98475101D01*
X103802255Y-98475101D01*
X103860860Y-98450825D01*
X103885136Y-98440770D01*
X103948570Y-98377336D01*
X103948570Y-98377335D01*
X103966008Y-98359897D01*
X103966010Y-98359894D01*
X105517239Y-96808665D01*
X109168800Y-96808665D01*
X109168800Y-96907535D01*
X109194390Y-97003038D01*
X109243825Y-97088662D01*
X109313738Y-97158575D01*
X109399362Y-97208010D01*
X109494865Y-97233600D01*
X109494867Y-97233600D01*
X109593732Y-97233600D01*
X109593735Y-97233600D01*
X109689238Y-97208010D01*
X109774862Y-97158575D01*
X109844775Y-97088662D01*
X109894210Y-97003038D01*
X109919800Y-96907535D01*
X109919800Y-96808665D01*
X109894210Y-96713162D01*
X109844775Y-96627538D01*
X109774862Y-96557625D01*
X109689238Y-96508190D01*
X109593735Y-96482600D01*
X109494865Y-96482600D01*
X109399362Y-96508190D01*
X109399360Y-96508191D01*
X109399359Y-96508191D01*
X109313736Y-96557626D01*
X109243826Y-96627536D01*
X109194391Y-96713159D01*
X109194391Y-96713160D01*
X109194390Y-96713162D01*
X109168800Y-96808665D01*
X105517239Y-96808665D01*
X105982839Y-96343065D01*
X117059300Y-96343065D01*
X117059300Y-96441935D01*
X117084890Y-96537438D01*
X117084891Y-96537439D01*
X117084891Y-96537440D01*
X117096545Y-96557625D01*
X117134325Y-96623062D01*
X117204238Y-96692975D01*
X117289862Y-96742410D01*
X117385365Y-96768000D01*
X117385367Y-96768000D01*
X117484232Y-96768000D01*
X117484235Y-96768000D01*
X117579738Y-96742410D01*
X117665362Y-96692975D01*
X117687684Y-96670653D01*
X117704020Y-96654318D01*
X117765343Y-96620833D01*
X117791700Y-96618000D01*
X119104603Y-96618000D01*
X119104611Y-96618001D01*
X119119045Y-96618001D01*
X119208753Y-96618001D01*
X119208755Y-96618001D01*
X119267360Y-96593725D01*
X119291636Y-96583670D01*
X119355070Y-96520236D01*
X119355070Y-96520235D01*
X119372508Y-96502797D01*
X119372510Y-96502794D01*
X120919443Y-94955860D01*
X120980764Y-94922377D01*
X121050456Y-94927361D01*
X121054560Y-94928976D01*
X121060656Y-94931501D01*
X121060659Y-94931501D01*
X121060660Y-94931502D01*
X121186328Y-94956500D01*
X121186331Y-94956500D01*
X121314471Y-94956500D01*
X121399015Y-94939682D01*
X121440144Y-94931501D01*
X121558527Y-94882465D01*
X121665069Y-94811276D01*
X121755676Y-94720669D01*
X121826865Y-94614127D01*
X121875901Y-94495744D01*
X121894999Y-94399734D01*
X121900900Y-94370071D01*
X121900900Y-94241928D01*
X121875902Y-94116261D01*
X121875901Y-94116260D01*
X121875901Y-94116256D01*
X121826865Y-93997873D01*
X121826864Y-93997872D01*
X121826861Y-93997866D01*
X121755676Y-93891331D01*
X121755673Y-93891327D01*
X121665072Y-93800726D01*
X121665068Y-93800723D01*
X121558533Y-93729538D01*
X121558524Y-93729533D01*
X121440144Y-93680499D01*
X121440138Y-93680497D01*
X121314471Y-93655500D01*
X121314469Y-93655500D01*
X121186331Y-93655500D01*
X121186329Y-93655500D01*
X121060661Y-93680497D01*
X121060655Y-93680499D01*
X120942275Y-93729533D01*
X120942266Y-93729538D01*
X120835731Y-93800723D01*
X120835727Y-93800726D01*
X120745126Y-93891327D01*
X120745123Y-93891331D01*
X120673938Y-93997866D01*
X120673933Y-93997875D01*
X120624899Y-94116255D01*
X120624897Y-94116261D01*
X120599900Y-94241928D01*
X120599900Y-94241931D01*
X120599900Y-94370069D01*
X120599900Y-94370071D01*
X120599899Y-94370071D01*
X120624897Y-94495738D01*
X120624899Y-94495745D01*
X120627416Y-94501820D01*
X120634886Y-94571290D01*
X120603612Y-94633769D01*
X120600537Y-94636956D01*
X119106814Y-96130681D01*
X119045491Y-96164166D01*
X119019133Y-96167000D01*
X117791700Y-96167000D01*
X117724661Y-96147315D01*
X117704020Y-96130682D01*
X117665363Y-96092026D01*
X117665362Y-96092025D01*
X117579738Y-96042590D01*
X117484235Y-96017000D01*
X117385365Y-96017000D01*
X117289862Y-96042590D01*
X117289860Y-96042591D01*
X117289859Y-96042591D01*
X117204236Y-96092026D01*
X117134326Y-96161936D01*
X117084891Y-96247559D01*
X117084891Y-96247560D01*
X117084890Y-96247562D01*
X117059300Y-96343065D01*
X105982839Y-96343065D01*
X108475339Y-93850565D01*
X110162000Y-93850565D01*
X110162000Y-93949435D01*
X110187590Y-94044938D01*
X110237025Y-94130562D01*
X110306938Y-94200475D01*
X110392562Y-94249910D01*
X110488065Y-94275500D01*
X110488067Y-94275500D01*
X110586932Y-94275500D01*
X110586935Y-94275500D01*
X110682438Y-94249910D01*
X110768062Y-94200475D01*
X110837975Y-94130562D01*
X110887410Y-94044938D01*
X110913000Y-93949435D01*
X110913000Y-93850565D01*
X110887410Y-93755062D01*
X110837975Y-93669438D01*
X110768062Y-93599525D01*
X110682438Y-93550090D01*
X110586935Y-93524500D01*
X110488065Y-93524500D01*
X110392562Y-93550090D01*
X110392560Y-93550091D01*
X110392559Y-93550091D01*
X110306936Y-93599526D01*
X110237026Y-93669436D01*
X110187591Y-93755059D01*
X110187591Y-93755060D01*
X110187590Y-93755062D01*
X110162000Y-93850565D01*
X108475339Y-93850565D01*
X115565894Y-86760010D01*
X115565897Y-86760008D01*
X115583335Y-86742570D01*
X115583336Y-86742570D01*
X115646770Y-86679136D01*
X115661949Y-86642491D01*
X115663686Y-86638299D01*
X115681100Y-86596257D01*
X115681101Y-86596255D01*
X115681101Y-86506545D01*
X115681101Y-86496556D01*
X115681100Y-86496542D01*
X115681100Y-86488799D01*
X115700785Y-86421760D01*
X115717419Y-86401118D01*
X115756075Y-86362462D01*
X115805510Y-86276838D01*
X115831100Y-86181335D01*
X115831100Y-86082465D01*
X115805510Y-85986962D01*
X115756075Y-85901338D01*
X115686162Y-85831425D01*
X115654362Y-85813065D01*
X118112000Y-85813065D01*
X118112000Y-85911935D01*
X118137590Y-86007438D01*
X118187025Y-86093062D01*
X118256938Y-86162975D01*
X118342562Y-86212410D01*
X118438065Y-86238000D01*
X118438067Y-86238000D01*
X118536932Y-86238000D01*
X118536935Y-86238000D01*
X118632438Y-86212410D01*
X118718062Y-86162975D01*
X118787975Y-86093062D01*
X118837410Y-86007438D01*
X118863000Y-85911935D01*
X118863000Y-85813065D01*
X118837410Y-85717562D01*
X118787975Y-85631938D01*
X118718062Y-85562025D01*
X118632438Y-85512590D01*
X118536935Y-85487000D01*
X118438065Y-85487000D01*
X118342562Y-85512590D01*
X118342560Y-85512591D01*
X118342559Y-85512591D01*
X118256936Y-85562026D01*
X118187026Y-85631936D01*
X118137591Y-85717559D01*
X118137591Y-85717560D01*
X118137590Y-85717562D01*
X118112000Y-85813065D01*
X115654362Y-85813065D01*
X115600538Y-85781990D01*
X115505035Y-85756400D01*
X115406165Y-85756400D01*
X115310662Y-85781990D01*
X115310660Y-85781991D01*
X115310659Y-85781991D01*
X115225036Y-85831426D01*
X115155126Y-85901336D01*
X115105691Y-85986959D01*
X115105691Y-85986960D01*
X115105690Y-85986962D01*
X115080100Y-86082465D01*
X115080100Y-86181335D01*
X115105690Y-86276838D01*
X115105691Y-86276839D01*
X115105691Y-86276840D01*
X115155127Y-86362465D01*
X115160074Y-86368912D01*
X115158293Y-86370277D01*
X115186186Y-86421376D01*
X115181191Y-86491067D01*
X115152697Y-86535397D01*
X104131942Y-97556151D01*
X104070619Y-97589636D01*
X104000927Y-97584652D01*
X103944994Y-97542780D01*
X103936874Y-97530470D01*
X103926175Y-97511938D01*
X103856262Y-97442025D01*
X103770638Y-97392590D01*
X103675135Y-97367000D01*
X103576265Y-97367000D01*
X103480762Y-97392590D01*
X103480760Y-97392591D01*
X103480759Y-97392591D01*
X103395136Y-97442026D01*
X103356480Y-97480682D01*
X103295157Y-97514167D01*
X103268800Y-97517000D01*
X102003340Y-97517000D01*
X101936301Y-97497315D01*
X101890546Y-97444511D01*
X101880602Y-97375353D01*
X101895951Y-97331003D01*
X101918910Y-97291238D01*
X101944500Y-97195735D01*
X101944500Y-97096865D01*
X101918910Y-97001362D01*
X101869475Y-96915738D01*
X101799562Y-96845825D01*
X101713938Y-96796390D01*
X101618435Y-96770800D01*
X101519565Y-96770800D01*
X101424062Y-96796390D01*
X101424060Y-96796391D01*
X101424059Y-96796391D01*
X101338436Y-96845826D01*
X101268526Y-96915736D01*
X101219091Y-97001359D01*
X101219091Y-97001360D01*
X101219090Y-97001362D01*
X101193500Y-97096865D01*
X101193500Y-97195735D01*
X101219090Y-97291238D01*
X101242047Y-97331001D01*
X101258520Y-97398899D01*
X101235668Y-97464926D01*
X101180747Y-97508117D01*
X101134660Y-97517000D01*
X100644467Y-97517000D01*
X100577428Y-97497315D01*
X100556786Y-97480681D01*
X99791019Y-96714914D01*
X99757534Y-96653591D01*
X99762518Y-96583899D01*
X99804390Y-96527966D01*
X99869854Y-96503549D01*
X99926154Y-96512672D01*
X99932753Y-96515404D01*
X99932762Y-96515410D01*
X100028265Y-96541000D01*
X100028267Y-96541000D01*
X100127132Y-96541000D01*
X100127135Y-96541000D01*
X100222638Y-96515410D01*
X100308262Y-96465975D01*
X100378175Y-96396062D01*
X100427610Y-96310438D01*
X100453200Y-96214935D01*
X100453200Y-96116065D01*
X100427610Y-96020562D01*
X100378175Y-95934938D01*
X100308262Y-95865025D01*
X100222638Y-95815590D01*
X100127135Y-95790000D01*
X100028265Y-95790000D01*
X99932762Y-95815590D01*
X99932760Y-95815591D01*
X99932759Y-95815591D01*
X99847136Y-95865026D01*
X99777226Y-95934936D01*
X99727791Y-96020559D01*
X99727791Y-96020560D01*
X99727790Y-96020562D01*
X99702200Y-96116065D01*
X99702200Y-96214935D01*
X99714195Y-96259700D01*
X99727791Y-96310443D01*
X99730528Y-96317049D01*
X99737995Y-96386519D01*
X99706719Y-96448997D01*
X99646629Y-96484648D01*
X99576804Y-96482152D01*
X99528285Y-96452180D01*
X99169019Y-96092914D01*
X99135534Y-96031591D01*
X99132700Y-96005233D01*
X99132700Y-95950567D01*
X99132700Y-95950565D01*
X99107110Y-95855062D01*
X99057675Y-95769438D01*
X98987762Y-95699525D01*
X98919625Y-95660186D01*
X98871410Y-95609620D01*
X98858188Y-95541013D01*
X98884156Y-95476148D01*
X98941070Y-95435620D01*
X98981626Y-95428800D01*
X102571903Y-95428800D01*
X102571911Y-95428801D01*
X102586345Y-95428801D01*
X102676053Y-95428801D01*
X102676055Y-95428801D01*
X102734660Y-95404525D01*
X102758936Y-95394470D01*
X102822370Y-95331036D01*
X102822370Y-95331035D01*
X102839808Y-95313597D01*
X102839810Y-95313594D01*
X104923485Y-93229919D01*
X104984808Y-93196434D01*
X105011166Y-93193600D01*
X105065832Y-93193600D01*
X105065835Y-93193600D01*
X105161338Y-93168010D01*
X105246962Y-93118575D01*
X105316875Y-93048662D01*
X105366310Y-92963038D01*
X105391900Y-92867535D01*
X105391900Y-92867532D01*
X105394003Y-92859684D01*
X105395279Y-92860026D01*
X105420134Y-92803830D01*
X105478455Y-92765353D01*
X105482721Y-92764128D01*
X105486931Y-92763000D01*
X105486935Y-92763000D01*
X105582438Y-92737410D01*
X105668062Y-92687975D01*
X105737975Y-92618062D01*
X105787410Y-92532438D01*
X105813000Y-92436935D01*
X105813000Y-92338065D01*
X105787410Y-92242562D01*
X105737975Y-92156938D01*
X105668062Y-92087025D01*
X105582438Y-92037590D01*
X105486935Y-92012000D01*
X105388065Y-92012000D01*
X105292562Y-92037590D01*
X105292560Y-92037591D01*
X105292559Y-92037591D01*
X105206936Y-92087026D01*
X105191582Y-92102381D01*
X105130259Y-92135866D01*
X105103901Y-92138700D01*
X104159868Y-92138700D01*
X104092829Y-92119015D01*
X104047074Y-92066211D01*
X104037130Y-91997053D01*
X104066155Y-91933497D01*
X104072187Y-91927019D01*
X104097168Y-91902038D01*
X104114370Y-91884836D01*
X104114370Y-91884835D01*
X104131808Y-91867397D01*
X104131810Y-91867394D01*
X109660839Y-86338365D01*
X112054800Y-86338365D01*
X112054800Y-86437235D01*
X112080390Y-86532738D01*
X112129825Y-86618362D01*
X112199738Y-86688275D01*
X112285362Y-86737710D01*
X112380865Y-86763300D01*
X112380867Y-86763300D01*
X112479732Y-86763300D01*
X112479735Y-86763300D01*
X112575238Y-86737710D01*
X112660862Y-86688275D01*
X112680191Y-86668945D01*
X112699520Y-86649618D01*
X112760843Y-86616133D01*
X112787200Y-86613300D01*
X113552803Y-86613300D01*
X113552811Y-86613301D01*
X113567245Y-86613301D01*
X113656953Y-86613301D01*
X113656955Y-86613301D01*
X113715560Y-86589025D01*
X113739836Y-86578970D01*
X113803270Y-86515536D01*
X113803270Y-86515535D01*
X113820708Y-86498097D01*
X113820710Y-86498094D01*
X115225343Y-85093460D01*
X115286664Y-85059977D01*
X115356356Y-85064961D01*
X115360460Y-85066576D01*
X115366556Y-85069101D01*
X115366559Y-85069101D01*
X115366560Y-85069102D01*
X115492228Y-85094100D01*
X115492231Y-85094100D01*
X115620371Y-85094100D01*
X115704915Y-85077282D01*
X115746044Y-85069101D01*
X115864427Y-85020065D01*
X115970969Y-84948876D01*
X116061576Y-84858269D01*
X116132765Y-84751727D01*
X116181801Y-84633344D01*
X116189982Y-84592215D01*
X116206800Y-84507671D01*
X116206800Y-84379528D01*
X116181802Y-84253861D01*
X116181801Y-84253860D01*
X116181801Y-84253856D01*
X116132765Y-84135473D01*
X116132764Y-84135472D01*
X116132761Y-84135466D01*
X116061576Y-84028931D01*
X116061573Y-84028927D01*
X115970972Y-83938326D01*
X115970968Y-83938323D01*
X115864433Y-83867138D01*
X115864424Y-83867133D01*
X115746044Y-83818099D01*
X115746038Y-83818097D01*
X115620371Y-83793100D01*
X115620369Y-83793100D01*
X115492231Y-83793100D01*
X115492229Y-83793100D01*
X115366561Y-83818097D01*
X115366555Y-83818099D01*
X115248175Y-83867133D01*
X115248166Y-83867138D01*
X115141631Y-83938323D01*
X115141627Y-83938326D01*
X115051026Y-84028927D01*
X115051023Y-84028931D01*
X114979838Y-84135466D01*
X114979833Y-84135475D01*
X114930799Y-84253855D01*
X114930797Y-84253861D01*
X114905800Y-84379528D01*
X114905800Y-84379531D01*
X114905800Y-84507669D01*
X114905800Y-84507671D01*
X114905799Y-84507671D01*
X114930797Y-84633338D01*
X114930799Y-84633345D01*
X114933316Y-84639420D01*
X114940786Y-84708890D01*
X114909512Y-84771369D01*
X114906437Y-84774556D01*
X113555014Y-86125981D01*
X113493691Y-86159466D01*
X113467333Y-86162300D01*
X112787200Y-86162300D01*
X112720161Y-86142615D01*
X112699520Y-86125982D01*
X112660863Y-86087326D01*
X112660862Y-86087325D01*
X112575238Y-86037890D01*
X112479735Y-86012300D01*
X112380865Y-86012300D01*
X112285362Y-86037890D01*
X112285360Y-86037891D01*
X112285359Y-86037891D01*
X112199736Y-86087326D01*
X112129826Y-86157236D01*
X112080391Y-86242859D01*
X112080391Y-86242860D01*
X112080390Y-86242862D01*
X112054800Y-86338365D01*
X109660839Y-86338365D01*
X112344485Y-83654719D01*
X112405808Y-83621234D01*
X112432166Y-83618400D01*
X112486832Y-83618400D01*
X112486835Y-83618400D01*
X112543908Y-83603107D01*
X112613756Y-83604770D01*
X112671619Y-83643932D01*
X112699123Y-83708160D01*
X112700000Y-83722882D01*
X112700000Y-83850932D01*
X112680315Y-83917971D01*
X112663681Y-83938613D01*
X112514113Y-84088181D01*
X112452790Y-84121666D01*
X112426432Y-84124500D01*
X112371765Y-84124500D01*
X112276262Y-84150090D01*
X112276260Y-84150091D01*
X112276259Y-84150091D01*
X112190636Y-84199526D01*
X112120726Y-84269436D01*
X112071291Y-84355059D01*
X112071291Y-84355060D01*
X112071290Y-84355062D01*
X112045700Y-84450565D01*
X112045700Y-84549435D01*
X112071290Y-84644938D01*
X112120725Y-84730562D01*
X112190638Y-84800475D01*
X112276262Y-84849910D01*
X112371765Y-84875500D01*
X112371767Y-84875500D01*
X112470632Y-84875500D01*
X112470635Y-84875500D01*
X112566138Y-84849910D01*
X112651762Y-84800475D01*
X112721675Y-84730562D01*
X112771110Y-84644938D01*
X112796700Y-84549435D01*
X112796700Y-84494766D01*
X112816385Y-84427727D01*
X112833019Y-84407085D01*
X112885045Y-84355059D01*
X113035794Y-84204310D01*
X113035797Y-84204308D01*
X113053235Y-84186870D01*
X113053236Y-84186870D01*
X113116670Y-84123436D01*
X113138528Y-84070666D01*
X113151001Y-84040555D01*
X113151001Y-83950845D01*
X113151001Y-83940856D01*
X113151000Y-83940842D01*
X113151000Y-83106397D01*
X113151001Y-83106388D01*
X113151001Y-83002246D01*
X113151001Y-83002245D01*
X113123191Y-82935108D01*
X113120890Y-82929552D01*
X113120889Y-82929550D01*
X113116670Y-82919364D01*
X113116669Y-82919363D01*
X113082899Y-82885593D01*
X113053236Y-82855930D01*
X113053234Y-82855929D01*
X113046168Y-82848863D01*
X113046168Y-82848862D01*
X113046164Y-82848859D01*
X112462010Y-82264705D01*
X112444570Y-82247264D01*
X112381136Y-82183830D01*
X112381135Y-82183829D01*
X112356857Y-82173772D01*
X112356857Y-82173771D01*
X112298258Y-82149500D01*
X112298256Y-82149499D01*
X112298255Y-82149499D01*
X112208545Y-82149499D01*
X112194111Y-82149499D01*
X112194103Y-82149500D01*
X107243667Y-82149500D01*
X107176628Y-82129815D01*
X107130873Y-82077011D01*
X107120929Y-82007853D01*
X107149954Y-81944297D01*
X107155986Y-81937819D01*
X107884586Y-81209219D01*
X107945909Y-81175734D01*
X107972267Y-81172900D01*
X110306455Y-81172900D01*
X110373494Y-81192585D01*
X110419249Y-81245389D01*
X110421015Y-81249444D01*
X110423533Y-81255524D01*
X110423538Y-81255533D01*
X110494723Y-81362068D01*
X110494726Y-81362072D01*
X110585327Y-81452673D01*
X110585331Y-81452676D01*
X110691866Y-81523861D01*
X110691872Y-81523864D01*
X110691873Y-81523865D01*
X110810256Y-81572901D01*
X110810260Y-81572901D01*
X110810261Y-81572902D01*
X110935928Y-81597900D01*
X110935931Y-81597900D01*
X111064071Y-81597900D01*
X111148615Y-81581082D01*
X111189744Y-81572901D01*
X111308127Y-81523865D01*
X111414669Y-81452676D01*
X111505276Y-81362069D01*
X111576465Y-81255527D01*
X111625501Y-81137144D01*
X111632678Y-81101065D01*
X112516000Y-81101065D01*
X112516000Y-81199935D01*
X112541590Y-81295438D01*
X112591025Y-81381062D01*
X112660938Y-81450975D01*
X112746562Y-81500410D01*
X112842065Y-81526000D01*
X112842067Y-81526000D01*
X112940932Y-81526000D01*
X112940935Y-81526000D01*
X113036438Y-81500410D01*
X113122062Y-81450975D01*
X113191975Y-81381062D01*
X113241410Y-81295438D01*
X113267000Y-81199935D01*
X113267000Y-81101065D01*
X113241410Y-81005562D01*
X113191975Y-80919938D01*
X113122062Y-80850025D01*
X113036438Y-80800590D01*
X112940935Y-80775000D01*
X112842065Y-80775000D01*
X112746562Y-80800590D01*
X112746560Y-80800591D01*
X112746559Y-80800591D01*
X112660936Y-80850026D01*
X112591026Y-80919936D01*
X112541591Y-81005559D01*
X112541591Y-81005560D01*
X112541590Y-81005562D01*
X112516000Y-81101065D01*
X111632678Y-81101065D01*
X111645807Y-81035065D01*
X111650500Y-81011471D01*
X111650500Y-80883328D01*
X111625502Y-80757661D01*
X111625501Y-80757660D01*
X111625501Y-80757656D01*
X111576465Y-80639273D01*
X111576464Y-80639272D01*
X111576461Y-80639266D01*
X111505276Y-80532731D01*
X111505273Y-80532727D01*
X111414669Y-80442123D01*
X111378016Y-80417633D01*
X111333211Y-80364021D01*
X111324504Y-80294696D01*
X111339518Y-80252534D01*
X111361110Y-80215138D01*
X111386700Y-80119635D01*
X111386700Y-80020765D01*
X111361110Y-79925262D01*
X111311675Y-79839638D01*
X111241762Y-79769725D01*
X111156138Y-79720290D01*
X111060635Y-79694700D01*
X110961765Y-79694700D01*
X110866262Y-79720290D01*
X110866260Y-79720291D01*
X110866259Y-79720291D01*
X110780636Y-79769726D01*
X110710726Y-79839636D01*
X110661291Y-79925259D01*
X110661291Y-79925260D01*
X110661290Y-79925262D01*
X110635700Y-80020765D01*
X110635700Y-80119635D01*
X110661290Y-80215138D01*
X110661291Y-80215139D01*
X110661291Y-80215140D01*
X110676643Y-80241730D01*
X110693116Y-80309630D01*
X110670264Y-80375657D01*
X110638148Y-80406831D01*
X110585333Y-80442121D01*
X110585327Y-80442126D01*
X110494726Y-80532727D01*
X110494723Y-80532731D01*
X110423538Y-80639266D01*
X110423533Y-80639275D01*
X110421015Y-80645356D01*
X110377172Y-80699758D01*
X110310877Y-80721821D01*
X110306455Y-80721900D01*
X107886797Y-80721900D01*
X107886789Y-80721899D01*
X107872355Y-80721899D01*
X107782645Y-80721899D01*
X107782644Y-80721899D01*
X107726240Y-80745263D01*
X107699768Y-80756228D01*
X107699765Y-80756229D01*
X107699764Y-80756230D01*
X107699763Y-80756230D01*
X107699761Y-80756232D01*
X106047913Y-82408081D01*
X105986590Y-82441566D01*
X105960232Y-82444400D01*
X105905565Y-82444400D01*
X105810062Y-82469990D01*
X105810060Y-82469991D01*
X105810059Y-82469991D01*
X105724436Y-82519426D01*
X105654526Y-82589336D01*
X105605091Y-82674959D01*
X105605091Y-82674960D01*
X105605090Y-82674962D01*
X105579500Y-82770465D01*
X105579500Y-82869335D01*
X105597123Y-82935108D01*
X105595461Y-83004956D01*
X105556299Y-83062819D01*
X105492070Y-83090323D01*
X105477349Y-83091200D01*
X101970666Y-83091200D01*
X101903627Y-83071515D01*
X101857872Y-83018711D01*
X101847928Y-82949553D01*
X101876953Y-82885997D01*
X101882985Y-82879519D01*
X103589604Y-81172900D01*
X105363044Y-79399460D01*
X105424365Y-79365977D01*
X105494057Y-79370961D01*
X105498138Y-79372567D01*
X105504256Y-79375101D01*
X105504260Y-79375101D01*
X105504261Y-79375102D01*
X105629928Y-79400100D01*
X105629931Y-79400100D01*
X105758071Y-79400100D01*
X105842615Y-79383282D01*
X105883744Y-79375101D01*
X106002127Y-79326065D01*
X106108669Y-79254876D01*
X106110280Y-79253265D01*
X107192700Y-79253265D01*
X107192700Y-79352135D01*
X107218290Y-79447638D01*
X107267725Y-79533262D01*
X107337638Y-79603175D01*
X107423262Y-79652610D01*
X107518765Y-79678200D01*
X107518767Y-79678200D01*
X107617632Y-79678200D01*
X107617635Y-79678200D01*
X107713138Y-79652610D01*
X107798762Y-79603175D01*
X107868675Y-79533262D01*
X107918110Y-79447638D01*
X107943700Y-79352135D01*
X107943700Y-79253265D01*
X107918110Y-79157762D01*
X107868675Y-79072138D01*
X107798762Y-79002225D01*
X107713138Y-78952790D01*
X107617635Y-78927200D01*
X107518765Y-78927200D01*
X107423262Y-78952790D01*
X107423260Y-78952791D01*
X107423259Y-78952791D01*
X107337636Y-79002226D01*
X107267726Y-79072136D01*
X107218291Y-79157759D01*
X107218291Y-79157760D01*
X107218290Y-79157762D01*
X107192700Y-79253265D01*
X106110280Y-79253265D01*
X106199276Y-79164269D01*
X106270465Y-79057727D01*
X106319501Y-78939344D01*
X106344500Y-78813669D01*
X106344500Y-78685531D01*
X106344500Y-78685528D01*
X106319502Y-78559861D01*
X106319501Y-78559860D01*
X106319501Y-78559856D01*
X106270465Y-78441473D01*
X106270464Y-78441472D01*
X106270461Y-78441466D01*
X106199276Y-78334931D01*
X106199273Y-78334927D01*
X106108672Y-78244326D01*
X106108668Y-78244323D01*
X106002133Y-78173138D01*
X106002124Y-78173133D01*
X105883744Y-78124099D01*
X105883738Y-78124097D01*
X105758071Y-78099100D01*
X105758069Y-78099100D01*
X105629931Y-78099100D01*
X105629929Y-78099100D01*
X105504261Y-78124097D01*
X105504255Y-78124099D01*
X105385875Y-78173133D01*
X105385866Y-78173138D01*
X105279331Y-78244323D01*
X105279327Y-78244326D01*
X105188726Y-78334927D01*
X105188723Y-78334931D01*
X105117538Y-78441466D01*
X105117533Y-78441475D01*
X105068499Y-78559855D01*
X105068497Y-78559861D01*
X105043500Y-78685528D01*
X105043500Y-78685531D01*
X105043500Y-78813669D01*
X105043500Y-78813671D01*
X105043499Y-78813671D01*
X105068497Y-78939337D01*
X105068498Y-78939342D01*
X105068499Y-78939344D01*
X105071016Y-78945421D01*
X105078486Y-79014889D01*
X105047212Y-79077368D01*
X105044137Y-79080555D01*
X101521514Y-82603181D01*
X101460191Y-82636666D01*
X101433833Y-82639500D01*
X101184200Y-82639500D01*
X101117161Y-82619815D01*
X101096520Y-82603182D01*
X101057863Y-82564526D01*
X101057862Y-82564525D01*
X100972238Y-82515090D01*
X100876735Y-82489500D01*
X100777865Y-82489500D01*
X100682362Y-82515090D01*
X100682360Y-82515091D01*
X100682359Y-82515091D01*
X100596736Y-82564526D01*
X100526826Y-82634436D01*
X100477391Y-82720059D01*
X100477391Y-82720060D01*
X100477390Y-82720062D01*
X100451800Y-82815565D01*
X100451800Y-82815567D01*
X100451800Y-82914436D01*
X100457339Y-82935108D01*
X100455676Y-83004958D01*
X100416512Y-83062820D01*
X100352283Y-83090323D01*
X100337564Y-83091200D01*
X99017867Y-83091200D01*
X98950828Y-83071515D01*
X98930186Y-83054881D01*
X96358770Y-80483465D01*
X100285600Y-80483465D01*
X100285600Y-80582335D01*
X100311190Y-80677838D01*
X100360625Y-80763462D01*
X100430538Y-80833375D01*
X100516162Y-80882810D01*
X100611665Y-80908400D01*
X100611667Y-80908400D01*
X100710532Y-80908400D01*
X100710535Y-80908400D01*
X100806038Y-80882810D01*
X100891662Y-80833375D01*
X100961575Y-80763462D01*
X101011010Y-80677838D01*
X101036600Y-80582335D01*
X101036600Y-80483465D01*
X101011010Y-80387962D01*
X100961575Y-80302338D01*
X100891662Y-80232425D01*
X100806038Y-80182990D01*
X100710535Y-80157400D01*
X100611665Y-80157400D01*
X100516162Y-80182990D01*
X100516160Y-80182991D01*
X100516159Y-80182991D01*
X100430536Y-80232426D01*
X100360626Y-80302336D01*
X100311191Y-80387959D01*
X100311191Y-80387960D01*
X100311190Y-80387962D01*
X100285600Y-80483465D01*
X96358770Y-80483465D01*
X95825870Y-79950565D01*
X97014500Y-79950565D01*
X97014500Y-80049435D01*
X97040090Y-80144938D01*
X97089525Y-80230562D01*
X97159438Y-80300475D01*
X97245062Y-80349910D01*
X97340565Y-80375500D01*
X97340567Y-80375500D01*
X97439432Y-80375500D01*
X97439435Y-80375500D01*
X97534938Y-80349910D01*
X97620562Y-80300475D01*
X97690475Y-80230562D01*
X97739910Y-80144938D01*
X97765500Y-80049435D01*
X97765500Y-79950565D01*
X97739910Y-79855062D01*
X97690475Y-79769438D01*
X97620562Y-79699525D01*
X97535761Y-79650565D01*
X98274500Y-79650565D01*
X98274500Y-79749435D01*
X98300090Y-79844938D01*
X98349525Y-79930562D01*
X98419438Y-80000475D01*
X98505062Y-80049910D01*
X98600565Y-80075500D01*
X98600567Y-80075500D01*
X98699432Y-80075500D01*
X98699435Y-80075500D01*
X98794938Y-80049910D01*
X98880562Y-80000475D01*
X98950475Y-79930562D01*
X98999910Y-79844938D01*
X99025500Y-79749435D01*
X99025500Y-79650565D01*
X98999910Y-79555062D01*
X98950475Y-79469438D01*
X98880562Y-79399525D01*
X98794938Y-79350090D01*
X98699435Y-79324500D01*
X98600565Y-79324500D01*
X98505062Y-79350090D01*
X98505060Y-79350091D01*
X98505059Y-79350091D01*
X98419436Y-79399526D01*
X98349526Y-79469436D01*
X98300091Y-79555059D01*
X98300091Y-79555060D01*
X98300090Y-79555062D01*
X98274500Y-79650565D01*
X97535761Y-79650565D01*
X97534938Y-79650090D01*
X97439435Y-79624500D01*
X97340565Y-79624500D01*
X97245062Y-79650090D01*
X97245060Y-79650091D01*
X97245059Y-79650091D01*
X97159436Y-79699526D01*
X97089526Y-79769436D01*
X97040091Y-79855059D01*
X97040091Y-79855060D01*
X97040090Y-79855062D01*
X97014500Y-79950565D01*
X95825870Y-79950565D01*
X94955862Y-79080557D01*
X94922377Y-79019234D01*
X94927361Y-78949542D01*
X94928965Y-78945463D01*
X94931501Y-78939344D01*
X94933917Y-78927200D01*
X94956500Y-78813671D01*
X94956500Y-78685528D01*
X94931502Y-78559861D01*
X94931501Y-78559860D01*
X94931501Y-78559856D01*
X94882465Y-78441473D01*
X94882464Y-78441472D01*
X94882461Y-78441466D01*
X94811276Y-78334931D01*
X94811273Y-78334927D01*
X94720672Y-78244326D01*
X94720668Y-78244323D01*
X94614133Y-78173138D01*
X94614124Y-78173133D01*
X94495744Y-78124099D01*
X94495738Y-78124097D01*
X94370071Y-78099100D01*
X94370069Y-78099100D01*
X94241931Y-78099100D01*
X94241929Y-78099100D01*
X94116261Y-78124097D01*
X94116255Y-78124099D01*
X93997875Y-78173133D01*
X93997866Y-78173138D01*
X93891331Y-78244323D01*
X93891327Y-78244326D01*
X93800726Y-78334927D01*
X93800723Y-78334931D01*
X93729538Y-78441466D01*
X93729533Y-78441475D01*
X93680499Y-78559855D01*
X93680497Y-78559861D01*
X93655500Y-78685528D01*
X93655500Y-78685531D01*
X93655500Y-78813669D01*
X93655500Y-78813671D01*
X93655499Y-78813671D01*
X93680497Y-78939338D01*
X93680499Y-78939344D01*
X93729533Y-79057724D01*
X93729538Y-79057733D01*
X93800723Y-79164268D01*
X93800726Y-79164272D01*
X93891327Y-79254873D01*
X93891331Y-79254876D01*
X93997866Y-79326061D01*
X93997875Y-79326066D01*
X94011209Y-79331589D01*
X94116256Y-79375101D01*
X94116260Y-79375101D01*
X94116261Y-79375102D01*
X94241928Y-79400100D01*
X94241931Y-79400100D01*
X94370071Y-79400100D01*
X94495739Y-79375102D01*
X94495739Y-79375101D01*
X94495744Y-79375101D01*
X94501816Y-79372585D01*
X94571282Y-79365111D01*
X94633764Y-79396381D01*
X94636957Y-79399462D01*
X98674859Y-83437364D01*
X98674862Y-83437368D01*
X98681930Y-83444436D01*
X98745364Y-83507870D01*
X98779692Y-83522088D01*
X98779694Y-83522090D01*
X98779695Y-83522090D01*
X98828246Y-83542201D01*
X98828247Y-83542201D01*
X98932389Y-83542201D01*
X98932397Y-83542200D01*
X106138303Y-83542200D01*
X106138311Y-83542201D01*
X106152745Y-83542201D01*
X106242454Y-83542201D01*
X106242455Y-83542201D01*
X106312509Y-83513183D01*
X106325336Y-83507870D01*
X106388770Y-83444436D01*
X106388770Y-83444435D01*
X106406208Y-83426997D01*
X106406209Y-83426994D01*
X107196386Y-82636819D01*
X107257709Y-82603334D01*
X107284067Y-82600500D01*
X108976651Y-82600500D01*
X109043690Y-82620185D01*
X109089445Y-82672989D01*
X109099389Y-82742147D01*
X109096425Y-82756595D01*
X109089600Y-82782063D01*
X109089600Y-82836731D01*
X109069915Y-82903770D01*
X109053281Y-82924412D01*
X108380349Y-83597345D01*
X107028819Y-84948876D01*
X106377014Y-85600681D01*
X106315691Y-85634166D01*
X106289333Y-85637000D01*
X92744400Y-85637000D01*
X92677361Y-85617315D01*
X92656720Y-85600682D01*
X92618063Y-85562026D01*
X92618062Y-85562025D01*
X92532438Y-85512590D01*
X92436935Y-85487000D01*
X92338065Y-85487000D01*
X92242562Y-85512590D01*
X92242560Y-85512591D01*
X92242559Y-85512591D01*
X92156936Y-85562026D01*
X92087026Y-85631936D01*
X92037591Y-85717559D01*
X92037591Y-85717560D01*
X92037590Y-85717562D01*
X92012000Y-85813065D01*
X92012000Y-85911935D01*
X92037590Y-86007438D01*
X92087025Y-86093062D01*
X92156938Y-86162975D01*
X92242562Y-86212410D01*
X92338065Y-86238000D01*
X92338067Y-86238000D01*
X92436932Y-86238000D01*
X92436935Y-86238000D01*
X92532438Y-86212410D01*
X92618062Y-86162975D01*
X92638422Y-86142615D01*
X92656720Y-86124318D01*
X92718043Y-86090833D01*
X92744400Y-86088000D01*
X106374803Y-86088000D01*
X106374811Y-86088001D01*
X106389245Y-86088001D01*
X106478953Y-86088001D01*
X106478955Y-86088001D01*
X106537560Y-86063725D01*
X106561836Y-86053670D01*
X106625270Y-85990236D01*
X106625270Y-85990235D01*
X106642708Y-85972797D01*
X106642709Y-85972794D01*
X109372186Y-83243319D01*
X109433509Y-83209834D01*
X109459867Y-83207000D01*
X109514532Y-83207000D01*
X109514535Y-83207000D01*
X109610038Y-83181410D01*
X109695662Y-83131975D01*
X109765575Y-83062062D01*
X109815010Y-82976438D01*
X109840600Y-82880935D01*
X109840600Y-82782065D01*
X109833775Y-82756593D01*
X109835437Y-82686745D01*
X109874598Y-82628882D01*
X109938826Y-82601377D01*
X109953549Y-82600500D01*
X112108633Y-82600500D01*
X112175672Y-82620185D01*
X112196314Y-82636819D01*
X112279644Y-82720149D01*
X112313129Y-82781472D01*
X112308145Y-82851164D01*
X112266273Y-82907097D01*
X112253964Y-82915216D01*
X112206837Y-82942425D01*
X112136926Y-83012336D01*
X112087491Y-83097959D01*
X112087491Y-83097960D01*
X112087490Y-83097962D01*
X112061900Y-83193465D01*
X112061900Y-83193467D01*
X112061900Y-83248132D01*
X112042215Y-83315171D01*
X112025581Y-83335813D01*
X103866114Y-91495281D01*
X103804791Y-91528766D01*
X103778433Y-91531600D01*
X94097921Y-91531600D01*
X94030882Y-91511915D01*
X93985127Y-91459111D01*
X93975183Y-91389953D01*
X93990534Y-91345600D01*
X93994987Y-91337886D01*
X94014010Y-91304938D01*
X94039600Y-91209435D01*
X94039600Y-91110565D01*
X94014010Y-91015062D01*
X93964575Y-90929438D01*
X93894662Y-90859525D01*
X93809038Y-90810090D01*
X93713535Y-90784500D01*
X93614665Y-90784500D01*
X93519162Y-90810090D01*
X93519160Y-90810091D01*
X93519159Y-90810091D01*
X93433536Y-90859526D01*
X93363626Y-90929436D01*
X93314191Y-91015059D01*
X93314191Y-91015060D01*
X93314190Y-91015062D01*
X93288600Y-91110565D01*
X93288600Y-91209435D01*
X93314190Y-91304938D01*
X93314191Y-91304939D01*
X93314191Y-91304940D01*
X93337666Y-91345600D01*
X93354139Y-91413501D01*
X93331286Y-91479527D01*
X93276365Y-91522718D01*
X93230279Y-91531600D01*
X81869400Y-91531600D01*
X81802361Y-91511915D01*
X81781720Y-91495282D01*
X81743063Y-91456626D01*
X81743062Y-91456625D01*
X81657438Y-91407190D01*
X81561935Y-91381600D01*
X81463065Y-91381600D01*
X81367562Y-91407190D01*
X81367560Y-91407191D01*
X81367559Y-91407191D01*
X81281936Y-91456626D01*
X81212026Y-91526536D01*
X81162591Y-91612159D01*
X81162591Y-91612160D01*
X81162590Y-91612162D01*
X81137000Y-91707665D01*
X81137000Y-91806535D01*
X81162590Y-91902038D01*
X81162591Y-91902039D01*
X81162591Y-91902040D01*
X81191839Y-91952699D01*
X81208312Y-92020599D01*
X81185459Y-92086626D01*
X81130538Y-92129817D01*
X81084452Y-92138699D01*
X81014743Y-92138699D01*
X80980413Y-92152919D01*
X80956139Y-92162974D01*
X80956137Y-92162974D01*
X80931864Y-92173029D01*
X80868429Y-92236465D01*
X79753642Y-93351251D01*
X79692319Y-93384736D01*
X79622627Y-93379752D01*
X79566694Y-93337880D01*
X79558574Y-93325570D01*
X79547875Y-93307038D01*
X79477962Y-93237125D01*
X79392338Y-93187690D01*
X79296835Y-93162100D01*
X79197965Y-93162100D01*
X79102462Y-93187690D01*
X79102460Y-93187691D01*
X79102459Y-93187691D01*
X79016836Y-93237126D01*
X78946926Y-93307036D01*
X78897491Y-93392659D01*
X78897491Y-93392660D01*
X78897490Y-93392662D01*
X78871900Y-93488165D01*
X78871900Y-93488167D01*
X78871900Y-93531500D01*
X78852215Y-93598539D01*
X78799411Y-93644294D01*
X78747900Y-93655500D01*
X78685529Y-93655500D01*
X78559861Y-93680497D01*
X78559855Y-93680499D01*
X78441475Y-93729533D01*
X78441466Y-93729538D01*
X78334931Y-93800723D01*
X78334927Y-93800726D01*
X78244326Y-93891327D01*
X78244323Y-93891331D01*
X78173138Y-93997866D01*
X78173133Y-93997875D01*
X78124099Y-94116255D01*
X78124097Y-94116261D01*
X78099100Y-94241928D01*
X78099100Y-94241931D01*
X78099100Y-94370069D01*
X78099100Y-94370071D01*
X78099099Y-94370071D01*
X78124097Y-94495738D01*
X78124099Y-94495744D01*
X78173133Y-94614124D01*
X78173138Y-94614133D01*
X78244323Y-94720668D01*
X78244326Y-94720672D01*
X78334927Y-94811273D01*
X78334931Y-94811276D01*
X78441466Y-94882461D01*
X78441472Y-94882464D01*
X78441473Y-94882465D01*
X78559856Y-94931501D01*
X78559860Y-94931501D01*
X78559861Y-94931502D01*
X78685528Y-94956500D01*
X78685531Y-94956500D01*
X78813671Y-94956500D01*
X78898215Y-94939682D01*
X78939344Y-94931501D01*
X79042409Y-94888809D01*
X79111876Y-94881341D01*
X79174355Y-94912616D01*
X79210008Y-94972704D01*
X79207515Y-95042529D01*
X79177542Y-95091052D01*
X79062211Y-95206382D01*
X79000891Y-95239866D01*
X78974532Y-95242700D01*
X78919865Y-95242700D01*
X78824362Y-95268290D01*
X78824360Y-95268291D01*
X78824359Y-95268291D01*
X78738736Y-95317726D01*
X78668826Y-95387636D01*
X78619391Y-95473259D01*
X78619391Y-95473260D01*
X78619390Y-95473262D01*
X78593800Y-95568765D01*
X78593800Y-95667635D01*
X78619390Y-95763138D01*
X78668825Y-95848762D01*
X78738738Y-95918675D01*
X78824362Y-95968110D01*
X78919865Y-95993700D01*
X78919867Y-95993700D01*
X78941840Y-95993700D01*
X79008879Y-96013385D01*
X79054634Y-96066189D01*
X79064578Y-96135347D01*
X79035553Y-96198903D01*
X79003841Y-96225086D01*
X78964917Y-96247559D01*
X78934836Y-96264926D01*
X78864926Y-96334836D01*
X78815491Y-96420459D01*
X78815491Y-96420460D01*
X78815490Y-96420462D01*
X78789900Y-96515965D01*
X78789900Y-96614835D01*
X78809414Y-96687662D01*
X78810453Y-96691539D01*
X78808790Y-96761389D01*
X78769627Y-96819251D01*
X78738133Y-96838192D01*
X78717764Y-96846629D01*
X78686047Y-96878346D01*
X78654330Y-96910064D01*
X77808829Y-97755564D01*
X77798774Y-97779837D01*
X77798774Y-97779839D01*
X77794038Y-97791273D01*
X77774499Y-97838443D01*
X77774499Y-97942588D01*
X77774500Y-97942597D01*
X77774500Y-99306455D01*
X77754815Y-99373494D01*
X77702011Y-99419249D01*
X77697956Y-99421015D01*
X77691875Y-99423533D01*
X77691866Y-99423538D01*
X77585331Y-99494723D01*
X77585327Y-99494726D01*
X77494726Y-99585327D01*
X77494723Y-99585331D01*
X77423538Y-99691866D01*
X77423533Y-99691875D01*
X77374499Y-99810255D01*
X77374498Y-99810260D01*
X77349500Y-99935928D01*
X77349500Y-99935931D01*
X77349500Y-100064069D01*
X77349500Y-100064071D01*
X77349499Y-100064071D01*
X77374497Y-100189738D01*
X77374498Y-100189740D01*
X77374499Y-100189744D01*
X77389179Y-100225185D01*
X77423533Y-100308124D01*
X77423538Y-100308133D01*
X77494723Y-100414668D01*
X77494726Y-100414672D01*
X77585327Y-100505273D01*
X77585331Y-100505276D01*
X77691866Y-100576461D01*
X77691872Y-100576464D01*
X77691873Y-100576465D01*
X77810256Y-100625501D01*
X77810260Y-100625501D01*
X77810261Y-100625502D01*
X77935928Y-100650500D01*
X77935931Y-100650500D01*
X78064071Y-100650500D01*
X78164618Y-100630499D01*
X78189744Y-100625501D01*
X78308127Y-100576465D01*
X78414669Y-100505276D01*
X78505276Y-100414669D01*
X78576465Y-100308127D01*
X78625501Y-100189744D01*
X78636989Y-100131990D01*
X78650500Y-100064071D01*
X78650500Y-99935928D01*
X78625502Y-99810260D01*
X78625501Y-99810258D01*
X78625501Y-99810256D01*
X78576465Y-99691873D01*
X78576464Y-99691872D01*
X78576461Y-99691866D01*
X78505276Y-99585331D01*
X78505273Y-99585327D01*
X78414672Y-99494726D01*
X78414668Y-99494723D01*
X78308133Y-99423538D01*
X78308124Y-99423533D01*
X78302044Y-99421015D01*
X78247642Y-99377172D01*
X78225579Y-99310877D01*
X78225500Y-99306455D01*
X78225500Y-98730565D01*
X78612500Y-98730565D01*
X78612500Y-98829435D01*
X78638090Y-98924938D01*
X78687525Y-99010562D01*
X78757438Y-99080475D01*
X78843062Y-99129910D01*
X78938565Y-99155500D01*
X78938567Y-99155500D01*
X79037432Y-99155500D01*
X79037435Y-99155500D01*
X79132938Y-99129910D01*
X79218562Y-99080475D01*
X79288475Y-99010562D01*
X79337910Y-98924938D01*
X79363500Y-98829435D01*
X79363500Y-98730565D01*
X79337910Y-98635062D01*
X79288475Y-98549438D01*
X79218562Y-98479525D01*
X79132938Y-98430090D01*
X79037435Y-98404500D01*
X78938565Y-98404500D01*
X78843062Y-98430090D01*
X78843060Y-98430091D01*
X78843059Y-98430091D01*
X78757436Y-98479526D01*
X78687526Y-98549436D01*
X78638091Y-98635059D01*
X78638091Y-98635060D01*
X78638090Y-98635062D01*
X78612500Y-98730565D01*
X78225500Y-98730565D01*
X78225500Y-98028066D01*
X78245185Y-97961027D01*
X78261815Y-97940389D01*
X78505858Y-97696345D01*
X78567179Y-97662862D01*
X78636870Y-97667846D01*
X78692804Y-97709717D01*
X78700922Y-97722025D01*
X78708702Y-97735500D01*
X78711625Y-97740562D01*
X78781538Y-97810475D01*
X78867162Y-97859910D01*
X78962665Y-97885500D01*
X78962667Y-97885500D01*
X79061532Y-97885500D01*
X79061535Y-97885500D01*
X79157038Y-97859910D01*
X79242662Y-97810475D01*
X79261991Y-97791145D01*
X79281320Y-97771818D01*
X79342643Y-97738333D01*
X79369000Y-97735500D01*
X83433633Y-97735500D01*
X83500672Y-97755185D01*
X83521314Y-97771819D01*
X86837759Y-101088264D01*
X86837762Y-101088268D01*
X86844830Y-101095336D01*
X86908264Y-101158770D01*
X86922819Y-101164798D01*
X86922822Y-101164801D01*
X86922822Y-101164800D01*
X86991146Y-101193101D01*
X86991147Y-101193101D01*
X87095289Y-101193101D01*
X87095297Y-101193100D01*
X96250563Y-101193100D01*
X96317602Y-101212785D01*
X96363357Y-101265589D01*
X96373301Y-101334747D01*
X96370339Y-101349185D01*
X96365200Y-101368365D01*
X96365200Y-101467235D01*
X96390790Y-101562738D01*
X96440225Y-101648362D01*
X96510138Y-101718275D01*
X96595762Y-101767710D01*
X96691265Y-101793300D01*
X96691267Y-101793300D01*
X96745933Y-101793300D01*
X96812972Y-101812985D01*
X96833614Y-101829619D01*
X97292714Y-102288719D01*
X97326199Y-102350042D01*
X97321215Y-102419734D01*
X97279343Y-102475667D01*
X97213879Y-102500084D01*
X97205033Y-102500400D01*
X86409067Y-102500400D01*
X86342028Y-102480715D01*
X86321386Y-102464081D01*
X84093319Y-100236014D01*
X84059834Y-100174691D01*
X84057000Y-100148333D01*
X84057000Y-100093667D01*
X84057000Y-100093665D01*
X84031410Y-99998162D01*
X83981975Y-99912538D01*
X83912062Y-99842625D01*
X83826438Y-99793190D01*
X83730935Y-99767600D01*
X83632065Y-99767600D01*
X83536562Y-99793190D01*
X83536560Y-99793191D01*
X83536559Y-99793191D01*
X83450936Y-99842626D01*
X83381026Y-99912536D01*
X83331591Y-99998159D01*
X83331591Y-99998160D01*
X83331590Y-99998162D01*
X83306000Y-100093665D01*
X83306000Y-100192535D01*
X83331590Y-100288038D01*
X83381025Y-100373662D01*
X83450938Y-100443575D01*
X83536562Y-100493010D01*
X83632065Y-100518600D01*
X83632067Y-100518600D01*
X83686733Y-100518600D01*
X83753772Y-100538285D01*
X83774414Y-100554919D01*
X86066059Y-102846564D01*
X86066062Y-102846568D01*
X86073513Y-102854019D01*
X86075192Y-102857094D01*
X86077578Y-102859845D01*
X86077581Y-102859849D01*
X86076953Y-102860319D01*
X86106998Y-102915342D01*
X86102014Y-102985034D01*
X86060142Y-103040967D01*
X85994678Y-103065384D01*
X85985832Y-103065700D01*
X85631267Y-103065700D01*
X85564228Y-103046015D01*
X85543586Y-103029381D01*
X83210619Y-100696414D01*
X83177134Y-100635091D01*
X83174300Y-100608733D01*
X83174300Y-100554067D01*
X83174300Y-100554065D01*
X83148710Y-100458562D01*
X83099275Y-100372938D01*
X83029362Y-100303025D01*
X82943738Y-100253590D01*
X82848235Y-100228000D01*
X82749365Y-100228000D01*
X82653862Y-100253590D01*
X82653860Y-100253591D01*
X82653859Y-100253591D01*
X82568236Y-100303026D01*
X82498326Y-100372936D01*
X82448891Y-100458559D01*
X82448891Y-100458560D01*
X82448890Y-100458562D01*
X82423300Y-100554065D01*
X82423300Y-100652935D01*
X82448890Y-100748438D01*
X82498325Y-100834062D01*
X82568238Y-100903975D01*
X82653862Y-100953410D01*
X82749365Y-100979000D01*
X82749367Y-100979000D01*
X82804033Y-100979000D01*
X82871072Y-100998685D01*
X82891714Y-101015319D01*
X85288259Y-103411864D01*
X85288262Y-103411868D01*
X85295330Y-103418936D01*
X85358764Y-103482370D01*
X85393092Y-103496588D01*
X85393094Y-103496590D01*
X85393095Y-103496590D01*
X85441646Y-103516701D01*
X85441647Y-103516701D01*
X85545789Y-103516701D01*
X85545797Y-103516700D01*
X96274500Y-103516700D01*
X96341539Y-103536385D01*
X96362180Y-103553018D01*
X96388474Y-103579311D01*
X96400838Y-103591675D01*
X96486462Y-103641110D01*
X96581965Y-103666700D01*
X96581967Y-103666700D01*
X96680832Y-103666700D01*
X96680835Y-103666700D01*
X96776338Y-103641110D01*
X96861962Y-103591675D01*
X96931875Y-103521762D01*
X96981310Y-103436138D01*
X97006900Y-103340635D01*
X97006900Y-103241765D01*
X96981310Y-103146262D01*
X96976193Y-103137399D01*
X96959720Y-103069503D01*
X96982571Y-103003476D01*
X97037491Y-102960284D01*
X97083580Y-102951400D01*
X97477333Y-102951400D01*
X97544372Y-102971085D01*
X97565014Y-102987719D01*
X97981142Y-103403847D01*
X98014627Y-103465170D01*
X98009643Y-103534862D01*
X97967771Y-103590795D01*
X97955469Y-103598910D01*
X97942764Y-103606246D01*
X97936735Y-103609727D01*
X97866826Y-103679636D01*
X97817391Y-103765259D01*
X97817391Y-103765260D01*
X97817390Y-103765262D01*
X97791800Y-103860765D01*
X97791800Y-103860767D01*
X97791800Y-103915432D01*
X97772115Y-103982471D01*
X97755481Y-104003113D01*
X97142414Y-104616181D01*
X97081091Y-104649666D01*
X97054733Y-104652500D01*
X93390300Y-104652500D01*
X93323261Y-104632815D01*
X93302620Y-104616182D01*
X93263963Y-104577526D01*
X93263962Y-104577525D01*
X93178338Y-104528090D01*
X93082835Y-104502500D01*
X92983965Y-104502500D01*
X92888462Y-104528090D01*
X92888460Y-104528091D01*
X92888459Y-104528091D01*
X92802836Y-104577526D01*
X92756681Y-104623682D01*
X92695358Y-104657167D01*
X92625666Y-104652183D01*
X92569733Y-104610311D01*
X92545316Y-104544847D01*
X92545037Y-104537052D01*
X92545000Y-104536767D01*
X92545000Y-104536765D01*
X92519410Y-104441262D01*
X92469975Y-104355638D01*
X92400062Y-104285725D01*
X92314438Y-104236290D01*
X92218935Y-104210700D01*
X92120065Y-104210700D01*
X92024562Y-104236290D01*
X92024560Y-104236291D01*
X92024559Y-104236291D01*
X91938936Y-104285726D01*
X91869026Y-104355636D01*
X91819591Y-104441259D01*
X91819591Y-104441260D01*
X91819590Y-104441262D01*
X91794000Y-104536765D01*
X91794000Y-104635635D01*
X91819590Y-104731138D01*
X91869025Y-104816762D01*
X91938938Y-104886675D01*
X92024562Y-104936110D01*
X92120065Y-104961700D01*
X92120067Y-104961700D01*
X92218932Y-104961700D01*
X92218935Y-104961700D01*
X92314438Y-104936110D01*
X92400062Y-104886675D01*
X92446219Y-104840518D01*
X92507542Y-104807033D01*
X92577234Y-104812017D01*
X92633167Y-104853889D01*
X92657584Y-104919353D01*
X92657862Y-104927147D01*
X92657899Y-104927432D01*
X92657900Y-104927435D01*
X92683490Y-105022938D01*
X92732925Y-105108562D01*
X92802838Y-105178475D01*
X92888462Y-105227910D01*
X92983965Y-105253500D01*
X92983967Y-105253500D01*
X93082832Y-105253500D01*
X93082835Y-105253500D01*
X93178338Y-105227910D01*
X93263962Y-105178475D01*
X93283291Y-105159145D01*
X93302620Y-105139818D01*
X93363943Y-105106333D01*
X93390300Y-105103500D01*
X97140203Y-105103500D01*
X97140211Y-105103501D01*
X97154645Y-105103501D01*
X97244354Y-105103501D01*
X97244355Y-105103501D01*
X97306493Y-105077762D01*
X97327236Y-105069170D01*
X97390670Y-105005736D01*
X97390670Y-105005735D01*
X97408108Y-104988297D01*
X97408110Y-104988294D01*
X98074385Y-104322019D01*
X98135708Y-104288534D01*
X98162066Y-104285700D01*
X98216732Y-104285700D01*
X98216735Y-104285700D01*
X98312238Y-104260110D01*
X98397862Y-104210675D01*
X98467775Y-104140762D01*
X98478585Y-104122037D01*
X98529149Y-104073824D01*
X98597755Y-104060599D01*
X98662621Y-104086566D01*
X98673652Y-104096357D01*
X99403281Y-104825986D01*
X99436766Y-104887309D01*
X99439600Y-104913667D01*
X99439600Y-105522100D01*
X99419915Y-105589139D01*
X99403282Y-105609780D01*
X99364626Y-105648436D01*
X99315191Y-105734059D01*
X99315191Y-105734060D01*
X99315190Y-105734062D01*
X99289600Y-105829565D01*
X99289600Y-105829567D01*
X99289600Y-105899902D01*
X99269915Y-105966941D01*
X99217111Y-106012696D01*
X99197694Y-106019677D01*
X99111060Y-106042890D01*
X99111059Y-106042891D01*
X99025436Y-106092326D01*
X98955526Y-106162236D01*
X98906091Y-106247859D01*
X98906091Y-106247860D01*
X98906090Y-106247862D01*
X98880500Y-106343365D01*
X98880500Y-106442235D01*
X98906090Y-106537738D01*
X98906091Y-106537739D01*
X98906091Y-106537740D01*
X98908946Y-106542685D01*
X98955525Y-106623362D01*
X99025438Y-106693275D01*
X99111062Y-106742710D01*
X99206565Y-106768300D01*
X99206567Y-106768300D01*
X99214625Y-106769361D01*
X99214175Y-106772775D01*
X99265972Y-106787985D01*
X99311727Y-106840789D01*
X99321671Y-106909947D01*
X99292646Y-106973503D01*
X99286614Y-106979981D01*
X98674300Y-107592294D01*
X98618714Y-107624387D01*
X98555266Y-107641388D01*
X98555259Y-107641391D01*
X98469636Y-107690826D01*
X98399726Y-107760736D01*
X98350289Y-107846363D01*
X98348339Y-107851071D01*
X98304496Y-107905472D01*
X98238200Y-107927534D01*
X98170502Y-107910252D01*
X98146099Y-107891294D01*
X97987611Y-107732806D01*
X97987609Y-107732803D01*
X97906737Y-107651931D01*
X97906736Y-107651930D01*
X97881290Y-107641390D01*
X97823855Y-107617599D01*
X97734145Y-107617599D01*
X97719711Y-107617599D01*
X97719703Y-107617600D01*
X86801067Y-107617600D01*
X86734028Y-107597915D01*
X86713386Y-107581281D01*
X85750519Y-106618414D01*
X85736379Y-106592518D01*
X85719937Y-106568014D01*
X85718735Y-106560207D01*
X85717034Y-106557091D01*
X85714224Y-106533186D01*
X85714200Y-106531973D01*
X85714200Y-106476065D01*
X85711226Y-106464965D01*
X89399500Y-106464965D01*
X89399500Y-106563835D01*
X89425090Y-106659338D01*
X89425091Y-106659339D01*
X89425091Y-106659340D01*
X89425148Y-106659438D01*
X89474525Y-106744962D01*
X89544438Y-106814875D01*
X89630062Y-106864310D01*
X89725565Y-106889900D01*
X89725567Y-106889900D01*
X89824432Y-106889900D01*
X89824435Y-106889900D01*
X89919938Y-106864310D01*
X90005562Y-106814875D01*
X90075475Y-106744962D01*
X90124910Y-106659338D01*
X90150500Y-106563835D01*
X90150500Y-106464965D01*
X90148973Y-106459265D01*
X93319000Y-106459265D01*
X93319000Y-106558135D01*
X93344590Y-106653638D01*
X93394025Y-106739262D01*
X93463938Y-106809175D01*
X93549562Y-106858610D01*
X93645065Y-106884200D01*
X93645067Y-106884200D01*
X93743932Y-106884200D01*
X93743935Y-106884200D01*
X93839438Y-106858610D01*
X93925062Y-106809175D01*
X93994975Y-106739262D01*
X94044410Y-106653638D01*
X94070000Y-106558135D01*
X94070000Y-106459265D01*
X94044410Y-106363762D01*
X93994975Y-106278138D01*
X93925062Y-106208225D01*
X93839438Y-106158790D01*
X93743935Y-106133200D01*
X93645065Y-106133200D01*
X93549562Y-106158790D01*
X93549560Y-106158791D01*
X93549559Y-106158791D01*
X93463936Y-106208226D01*
X93394026Y-106278136D01*
X93344591Y-106363759D01*
X93344591Y-106363760D01*
X93344590Y-106363762D01*
X93319000Y-106459265D01*
X90148973Y-106459265D01*
X90124910Y-106369462D01*
X90075475Y-106283838D01*
X90005562Y-106213925D01*
X89919938Y-106164490D01*
X89824435Y-106138900D01*
X89725565Y-106138900D01*
X89630062Y-106164490D01*
X89630060Y-106164491D01*
X89630059Y-106164491D01*
X89544436Y-106213926D01*
X89474526Y-106283836D01*
X89425091Y-106369459D01*
X89425091Y-106369460D01*
X89425090Y-106369462D01*
X89399500Y-106464965D01*
X85711226Y-106464965D01*
X85688610Y-106380562D01*
X85639175Y-106294938D01*
X85569262Y-106225025D01*
X85483638Y-106175590D01*
X85388135Y-106150000D01*
X85289265Y-106150000D01*
X85193762Y-106175590D01*
X85193760Y-106175591D01*
X85193759Y-106175591D01*
X85108136Y-106225026D01*
X85038226Y-106294936D01*
X84988791Y-106380559D01*
X84988791Y-106380560D01*
X84988790Y-106380562D01*
X84963200Y-106476065D01*
X84963200Y-106574935D01*
X84988790Y-106670438D01*
X85038225Y-106756062D01*
X85108138Y-106825975D01*
X85193762Y-106875410D01*
X85289265Y-106901000D01*
X85289267Y-106901000D01*
X85343933Y-106901000D01*
X85410972Y-106920685D01*
X85431614Y-106937319D01*
X86458059Y-107963764D01*
X86458062Y-107963768D01*
X86465130Y-107970836D01*
X86528564Y-108034270D01*
X86545118Y-108041126D01*
X86545121Y-108041129D01*
X86545121Y-108041128D01*
X86611446Y-108068601D01*
X86611447Y-108068601D01*
X86715589Y-108068601D01*
X86715597Y-108068600D01*
X97634233Y-108068600D01*
X97701272Y-108088285D01*
X97721914Y-108104919D01*
X98199159Y-108582164D01*
X98199162Y-108582168D01*
X98206230Y-108589236D01*
X98269664Y-108652670D01*
X98269666Y-108652671D01*
X98269668Y-108652672D01*
X98278676Y-108656403D01*
X98333081Y-108700242D01*
X98355148Y-108766535D01*
X98338615Y-108832963D01*
X98329092Y-108849457D01*
X98329090Y-108849460D01*
X98329090Y-108849462D01*
X98303500Y-108944965D01*
X98303500Y-109043835D01*
X98329090Y-109139338D01*
X98378525Y-109224962D01*
X98448438Y-109294875D01*
X98534062Y-109344310D01*
X98629565Y-109369900D01*
X98629567Y-109369900D01*
X98728432Y-109369900D01*
X98728435Y-109369900D01*
X98823938Y-109344310D01*
X98909562Y-109294875D01*
X98979475Y-109224962D01*
X99028910Y-109139338D01*
X99054500Y-109043835D01*
X99054500Y-108944965D01*
X99028910Y-108849462D01*
X99028908Y-108849459D01*
X99027203Y-108843094D01*
X99028866Y-108773244D01*
X99068028Y-108715381D01*
X99132257Y-108687877D01*
X99146978Y-108687000D01*
X100145568Y-108687000D01*
X100212607Y-108706685D01*
X100258362Y-108759489D01*
X100268306Y-108828647D01*
X100252954Y-108873001D01*
X100250092Y-108877957D01*
X100250090Y-108877960D01*
X100250090Y-108877962D01*
X100224500Y-108973465D01*
X100224500Y-109072335D01*
X100250090Y-109167838D01*
X100299525Y-109253462D01*
X100369438Y-109323375D01*
X100455062Y-109372810D01*
X100550565Y-109398400D01*
X100550567Y-109398400D01*
X100649432Y-109398400D01*
X100649435Y-109398400D01*
X100744938Y-109372810D01*
X100830562Y-109323375D01*
X100900475Y-109253462D01*
X100949910Y-109167838D01*
X100975500Y-109072335D01*
X100975500Y-108973465D01*
X100949910Y-108877962D01*
X100947046Y-108873001D01*
X100930572Y-108805102D01*
X100953424Y-108739074D01*
X101008344Y-108695883D01*
X101054432Y-108687000D01*
X103251133Y-108687000D01*
X103318172Y-108706685D01*
X103338814Y-108723319D01*
X103602381Y-108986886D01*
X103635866Y-109048209D01*
X103637032Y-109059054D01*
X103637639Y-109058975D01*
X103638700Y-109067032D01*
X103638700Y-109067035D01*
X103649583Y-109107649D01*
X103663321Y-109158922D01*
X103661658Y-109228772D01*
X103622495Y-109286634D01*
X103590999Y-109305576D01*
X103515065Y-109337028D01*
X101925610Y-110926483D01*
X101864287Y-110959968D01*
X101794595Y-110954984D01*
X101738662Y-110913112D01*
X101730549Y-110900813D01*
X101730275Y-110900338D01*
X101660362Y-110830425D01*
X101574738Y-110780990D01*
X101479235Y-110755400D01*
X101380365Y-110755400D01*
X101284862Y-110780990D01*
X101284860Y-110780991D01*
X101284859Y-110780991D01*
X101199236Y-110830426D01*
X101129326Y-110900336D01*
X101079891Y-110985959D01*
X101079891Y-110985960D01*
X101079890Y-110985962D01*
X101054300Y-111081465D01*
X101054300Y-111180335D01*
X101079890Y-111275838D01*
X101129325Y-111361462D01*
X101199238Y-111431375D01*
X101241102Y-111455545D01*
X101289317Y-111506111D01*
X101302540Y-111574718D01*
X101276572Y-111639583D01*
X101266782Y-111650612D01*
X101110947Y-111806447D01*
X101049624Y-111839932D01*
X100979932Y-111834948D01*
X100923999Y-111793076D01*
X100903493Y-111750864D01*
X100880610Y-111665462D01*
X100831175Y-111579838D01*
X100761262Y-111509925D01*
X100675638Y-111460490D01*
X100580135Y-111434900D01*
X100481265Y-111434900D01*
X100385762Y-111460490D01*
X100385760Y-111460491D01*
X100385759Y-111460491D01*
X100300136Y-111509926D01*
X100230226Y-111579836D01*
X100180791Y-111665459D01*
X100180791Y-111665460D01*
X100180790Y-111665462D01*
X100155200Y-111760965D01*
X100155200Y-111859835D01*
X100180790Y-111955338D01*
X100230225Y-112040962D01*
X100300138Y-112110875D01*
X100385762Y-112160310D01*
X100471162Y-112183192D01*
X100530819Y-112219555D01*
X100561349Y-112282402D01*
X100553055Y-112351778D01*
X100526747Y-112390647D01*
X99730714Y-113186681D01*
X99669391Y-113220166D01*
X99643033Y-113223000D01*
X89672181Y-113223000D01*
X89605142Y-113203315D01*
X89559387Y-113150511D01*
X89549443Y-113081353D01*
X89552407Y-113066905D01*
X89552410Y-113066895D01*
X89559500Y-113040435D01*
X89559500Y-112941565D01*
X89533910Y-112846062D01*
X89484475Y-112760438D01*
X89414562Y-112690525D01*
X89328938Y-112641090D01*
X89233435Y-112615500D01*
X89134565Y-112615500D01*
X89039062Y-112641090D01*
X89039060Y-112641091D01*
X89039059Y-112641091D01*
X88953436Y-112690526D01*
X88883526Y-112760436D01*
X88834091Y-112846059D01*
X88834091Y-112846060D01*
X88834090Y-112846062D01*
X88808500Y-112941565D01*
X88808500Y-113040435D01*
X88814731Y-113063691D01*
X88815593Y-113066905D01*
X88813932Y-113136755D01*
X88774770Y-113194618D01*
X88710542Y-113222123D01*
X88695819Y-113223000D01*
X87870199Y-113223000D01*
X87803160Y-113203315D01*
X87782518Y-113186681D01*
X87708963Y-113113126D01*
X87708962Y-113113125D01*
X87623338Y-113063690D01*
X87527835Y-113038100D01*
X87428965Y-113038100D01*
X87333462Y-113063690D01*
X87333460Y-113063691D01*
X87333459Y-113063691D01*
X87247836Y-113113126D01*
X87177926Y-113183036D01*
X87128491Y-113268659D01*
X87128491Y-113268660D01*
X87128490Y-113268662D01*
X87102900Y-113364165D01*
X87102900Y-113463035D01*
X87128490Y-113558538D01*
X87128491Y-113558539D01*
X87128491Y-113558540D01*
X87129947Y-113561061D01*
X87177925Y-113644162D01*
X87247838Y-113714075D01*
X87333462Y-113763510D01*
X87428965Y-113789100D01*
X87428968Y-113789100D01*
X87436816Y-113791203D01*
X87435970Y-113794358D01*
X87485893Y-113816402D01*
X87524403Y-113874700D01*
X87525282Y-113944565D01*
X87513263Y-113973128D01*
X87498290Y-113999061D01*
X87498290Y-113999062D01*
X87472700Y-114094565D01*
X87472700Y-114193435D01*
X87498290Y-114288938D01*
X87547131Y-114373534D01*
X87547726Y-114374563D01*
X87564082Y-114390919D01*
X87597567Y-114452242D01*
X87592583Y-114521934D01*
X87550711Y-114577867D01*
X87485247Y-114602284D01*
X87476401Y-114602600D01*
X85528800Y-114602600D01*
X85461761Y-114582915D01*
X85441120Y-114566282D01*
X85402463Y-114527626D01*
X85402462Y-114527625D01*
X85316838Y-114478190D01*
X85221335Y-114452600D01*
X85122465Y-114452600D01*
X85026962Y-114478190D01*
X85026960Y-114478191D01*
X85026959Y-114478191D01*
X84941336Y-114527626D01*
X84871426Y-114597536D01*
X84821991Y-114683159D01*
X84821991Y-114683160D01*
X84821990Y-114683162D01*
X84796400Y-114778665D01*
X84796400Y-114778667D01*
X84796400Y-114813036D01*
X84776715Y-114880075D01*
X84723911Y-114925830D01*
X84654753Y-114935774D01*
X84636410Y-114931698D01*
X84633446Y-114930799D01*
X84507771Y-114905800D01*
X84507769Y-114905800D01*
X84379631Y-114905800D01*
X84379629Y-114905800D01*
X84253961Y-114930797D01*
X84253955Y-114930799D01*
X84135575Y-114979833D01*
X84135566Y-114979838D01*
X84029031Y-115051023D01*
X84029027Y-115051026D01*
X83938426Y-115141627D01*
X83938423Y-115141631D01*
X83867238Y-115248166D01*
X83867233Y-115248175D01*
X83818199Y-115366555D01*
X83818197Y-115366561D01*
X83793200Y-115492228D01*
X83793200Y-115492231D01*
X83793200Y-115620369D01*
X83793200Y-115620371D01*
X83793199Y-115620371D01*
X83818197Y-115746038D01*
X83818199Y-115746044D01*
X83867233Y-115864424D01*
X83867238Y-115864433D01*
X83938423Y-115970968D01*
X83938426Y-115970972D01*
X84029027Y-116061573D01*
X84029031Y-116061576D01*
X84135566Y-116132761D01*
X84135575Y-116132766D01*
X84160319Y-116143015D01*
X84253956Y-116181801D01*
X84253960Y-116181801D01*
X84253961Y-116181802D01*
X84379628Y-116206800D01*
X84379631Y-116206800D01*
X84507771Y-116206800D01*
X84592315Y-116189982D01*
X84633444Y-116181801D01*
X84751827Y-116132765D01*
X84858369Y-116061576D01*
X84948976Y-115970969D01*
X85020165Y-115864427D01*
X85069201Y-115746044D01*
X85087299Y-115655062D01*
X85094200Y-115620371D01*
X85094200Y-115492228D01*
X85069201Y-115366556D01*
X85068303Y-115363594D01*
X85068288Y-115361965D01*
X85068013Y-115360581D01*
X85068275Y-115360528D01*
X85067680Y-115293727D01*
X85104929Y-115234615D01*
X85168224Y-115205024D01*
X85186964Y-115203600D01*
X85221332Y-115203600D01*
X85221335Y-115203600D01*
X85316838Y-115178010D01*
X85402462Y-115128575D01*
X85426482Y-115104555D01*
X85441120Y-115089918D01*
X85502443Y-115056433D01*
X85528800Y-115053600D01*
X93453033Y-115053600D01*
X93520072Y-115073285D01*
X93565827Y-115126089D01*
X93575771Y-115195247D01*
X93546746Y-115258803D01*
X93540714Y-115265281D01*
X90136732Y-118669261D01*
X90075409Y-118702746D01*
X90016959Y-118701355D01*
X89926436Y-118677100D01*
X89926435Y-118677100D01*
X89827565Y-118677100D01*
X89732062Y-118702690D01*
X89732060Y-118702691D01*
X89732059Y-118702691D01*
X89700209Y-118721079D01*
X89632308Y-118737549D01*
X89566282Y-118714695D01*
X89535109Y-118682580D01*
X89532956Y-118679358D01*
X89505276Y-118637931D01*
X89505274Y-118637928D01*
X89414672Y-118547326D01*
X89414668Y-118547323D01*
X89308133Y-118476138D01*
X89308124Y-118476133D01*
X89189744Y-118427099D01*
X89189738Y-118427097D01*
X89064071Y-118402100D01*
X89064069Y-118402100D01*
X88935931Y-118402100D01*
X88935929Y-118402100D01*
X88810261Y-118427097D01*
X88810255Y-118427099D01*
X88691875Y-118476133D01*
X88691866Y-118476138D01*
X88585331Y-118547323D01*
X88585327Y-118547326D01*
X88494726Y-118637927D01*
X88494723Y-118637931D01*
X88423538Y-118744466D01*
X88423533Y-118744475D01*
X88374499Y-118862855D01*
X88374497Y-118862861D01*
X88349500Y-118988528D01*
X88349500Y-118988531D01*
X88349500Y-119116669D01*
X88349500Y-119116671D01*
X88349499Y-119116671D01*
X88374497Y-119242338D01*
X88374499Y-119242344D01*
X88423533Y-119360724D01*
X88423538Y-119360733D01*
X88494723Y-119467268D01*
X88494726Y-119467272D01*
X88585327Y-119557873D01*
X88585331Y-119557876D01*
X88691866Y-119629061D01*
X88691872Y-119629064D01*
X88691873Y-119629065D01*
X88810256Y-119678101D01*
X88810260Y-119678101D01*
X88810261Y-119678102D01*
X88935928Y-119703100D01*
X88935931Y-119703100D01*
X89064071Y-119703100D01*
X89161320Y-119683755D01*
X89189744Y-119678101D01*
X89308127Y-119629065D01*
X89414669Y-119557876D01*
X89463474Y-119509071D01*
X95029499Y-119509071D01*
X95054497Y-119634738D01*
X95054499Y-119634744D01*
X95103533Y-119753124D01*
X95103538Y-119753133D01*
X95174723Y-119859668D01*
X95174726Y-119859672D01*
X95265327Y-119950273D01*
X95265331Y-119950276D01*
X95371866Y-120021461D01*
X95371872Y-120021464D01*
X95371873Y-120021465D01*
X95490256Y-120070501D01*
X95490260Y-120070501D01*
X95490261Y-120070502D01*
X95615928Y-120095500D01*
X95615931Y-120095500D01*
X95744071Y-120095500D01*
X95828615Y-120078682D01*
X95869744Y-120070501D01*
X95988127Y-120021465D01*
X96094669Y-119950276D01*
X96185276Y-119859669D01*
X96256465Y-119753127D01*
X96305501Y-119634744D01*
X96319824Y-119562738D01*
X96330500Y-119509071D01*
X96330500Y-119332399D01*
X96634500Y-119332399D01*
X96634500Y-119457601D01*
X96666905Y-119578536D01*
X96729505Y-119686964D01*
X96818036Y-119775495D01*
X96926464Y-119838095D01*
X97047399Y-119870500D01*
X97047401Y-119870500D01*
X97172599Y-119870500D01*
X97172601Y-119870500D01*
X97293536Y-119838095D01*
X97401964Y-119775495D01*
X97490495Y-119686964D01*
X97553095Y-119578536D01*
X97585500Y-119457601D01*
X97585500Y-119332399D01*
X97553095Y-119211464D01*
X97490495Y-119103036D01*
X97401964Y-119014505D01*
X97293536Y-118951905D01*
X97293537Y-118951905D01*
X97253224Y-118941103D01*
X97172601Y-118919500D01*
X97047399Y-118919500D01*
X96966775Y-118941103D01*
X96926463Y-118951905D01*
X96818037Y-119014504D01*
X96818034Y-119014506D01*
X96729506Y-119103034D01*
X96729504Y-119103037D01*
X96666905Y-119211463D01*
X96658364Y-119243339D01*
X96634500Y-119332399D01*
X96330500Y-119332399D01*
X96330500Y-118280928D01*
X96305502Y-118155261D01*
X96305501Y-118155260D01*
X96305501Y-118155256D01*
X96256465Y-118036873D01*
X96256464Y-118036872D01*
X96256461Y-118036866D01*
X96185276Y-117930331D01*
X96185273Y-117930327D01*
X96094672Y-117839726D01*
X96094668Y-117839723D01*
X95988133Y-117768538D01*
X95988124Y-117768533D01*
X95869744Y-117719499D01*
X95869738Y-117719497D01*
X95744071Y-117694500D01*
X95744069Y-117694500D01*
X95615931Y-117694500D01*
X95615929Y-117694500D01*
X95490261Y-117719497D01*
X95490255Y-117719499D01*
X95371875Y-117768533D01*
X95371866Y-117768538D01*
X95265331Y-117839723D01*
X95265327Y-117839726D01*
X95174726Y-117930327D01*
X95174723Y-117930331D01*
X95103538Y-118036866D01*
X95103533Y-118036875D01*
X95054499Y-118155255D01*
X95054497Y-118155261D01*
X95029500Y-118280928D01*
X95029500Y-118280931D01*
X95029500Y-119509069D01*
X95029500Y-119509071D01*
X95029499Y-119509071D01*
X89463474Y-119509071D01*
X89505276Y-119467269D01*
X89535111Y-119422616D01*
X89588722Y-119377813D01*
X89658047Y-119369104D01*
X89700209Y-119384120D01*
X89732062Y-119402510D01*
X89827565Y-119428100D01*
X89827567Y-119428100D01*
X89926432Y-119428100D01*
X89926435Y-119428100D01*
X90021938Y-119402510D01*
X90107562Y-119353075D01*
X90177475Y-119283162D01*
X90192303Y-119257477D01*
X90212005Y-119231800D01*
X90263470Y-119180336D01*
X90263470Y-119180334D01*
X90280908Y-119162897D01*
X90280910Y-119162893D01*
X94353886Y-115089919D01*
X94415209Y-115056434D01*
X94441567Y-115053600D01*
X95097401Y-115053600D01*
X95164440Y-115073285D01*
X95210195Y-115126089D01*
X95220139Y-115195247D01*
X95191114Y-115258803D01*
X95185082Y-115265281D01*
X95121726Y-115328636D01*
X95072291Y-115414259D01*
X95072291Y-115414260D01*
X95072290Y-115414262D01*
X95046700Y-115509765D01*
X95046700Y-115608635D01*
X95072290Y-115704138D01*
X95121725Y-115789762D01*
X95191638Y-115859675D01*
X95277262Y-115909110D01*
X95372765Y-115934700D01*
X95372767Y-115934700D01*
X95471633Y-115934700D01*
X95471635Y-115934700D01*
X95493305Y-115928893D01*
X95563153Y-115930554D01*
X95613081Y-115960986D01*
X98563652Y-118911557D01*
X98597137Y-118972880D01*
X98592153Y-119042572D01*
X98550281Y-119098505D01*
X98537973Y-119106624D01*
X98519436Y-119117326D01*
X98449526Y-119187236D01*
X98400091Y-119272859D01*
X98400091Y-119272860D01*
X98400090Y-119272862D01*
X98374500Y-119368365D01*
X98374500Y-119467235D01*
X98400090Y-119562738D01*
X98400091Y-119562739D01*
X98400091Y-119562740D01*
X98409211Y-119578536D01*
X98449525Y-119648362D01*
X98519438Y-119718275D01*
X98605062Y-119767710D01*
X98700565Y-119793300D01*
X98700567Y-119793300D01*
X98799432Y-119793300D01*
X98799435Y-119793300D01*
X98894938Y-119767710D01*
X98980562Y-119718275D01*
X99050475Y-119648362D01*
X99061176Y-119629827D01*
X99111738Y-119581614D01*
X99180344Y-119568389D01*
X99245210Y-119594355D01*
X99256242Y-119604147D01*
X99348081Y-119695986D01*
X99381566Y-119757309D01*
X99384400Y-119783667D01*
X99384400Y-121555042D01*
X99384399Y-121555056D01*
X99384399Y-121654757D01*
X99391998Y-121673102D01*
X99399467Y-121742572D01*
X99392000Y-121768003D01*
X99374498Y-121810259D01*
X99374497Y-121810262D01*
X99349500Y-121935928D01*
X99349500Y-121935931D01*
X99349500Y-122064069D01*
X99349500Y-122064071D01*
X99349499Y-122064071D01*
X99374497Y-122189738D01*
X99374499Y-122189744D01*
X99423533Y-122308124D01*
X99423538Y-122308133D01*
X99494723Y-122414668D01*
X99494726Y-122414672D01*
X99585327Y-122505273D01*
X99585331Y-122505276D01*
X99691866Y-122576461D01*
X99691872Y-122576464D01*
X99691873Y-122576465D01*
X99810256Y-122625501D01*
X99810260Y-122625501D01*
X99810261Y-122625502D01*
X99935928Y-122650500D01*
X99935931Y-122650500D01*
X100064071Y-122650500D01*
X100148615Y-122633682D01*
X100189744Y-122625501D01*
X100308127Y-122576465D01*
X100414669Y-122505276D01*
X100505276Y-122414669D01*
X100576465Y-122308127D01*
X100578985Y-122302044D01*
X100622828Y-122247642D01*
X100689123Y-122225579D01*
X100693545Y-122225500D01*
X103672827Y-122225500D01*
X103739866Y-122245185D01*
X103785621Y-122297989D01*
X103795565Y-122367147D01*
X103775929Y-122418391D01*
X103743538Y-122466866D01*
X103743533Y-122466875D01*
X103694499Y-122585255D01*
X103694497Y-122585261D01*
X103669500Y-122710928D01*
X103669500Y-122710931D01*
X103669500Y-123439069D01*
X103669500Y-123439071D01*
X103669499Y-123439071D01*
X103694497Y-123564738D01*
X103694499Y-123564744D01*
X103743533Y-123683124D01*
X103743538Y-123683133D01*
X103814723Y-123789668D01*
X103814726Y-123789672D01*
X103905327Y-123880273D01*
X103905331Y-123880276D01*
X104011866Y-123951461D01*
X104011872Y-123951464D01*
X104011873Y-123951465D01*
X104130256Y-124000501D01*
X104130260Y-124000501D01*
X104130261Y-124000502D01*
X104255928Y-124025500D01*
X104255931Y-124025500D01*
X104384071Y-124025500D01*
X104468615Y-124008682D01*
X104509744Y-124000501D01*
X104628127Y-123951465D01*
X104734669Y-123880276D01*
X104825276Y-123789669D01*
X104896465Y-123683127D01*
X104945501Y-123564744D01*
X104970500Y-123439069D01*
X104970500Y-122713365D01*
X109394100Y-122713365D01*
X109394100Y-122812235D01*
X109419690Y-122907738D01*
X109469125Y-122993362D01*
X109539038Y-123063275D01*
X109624662Y-123112710D01*
X109720165Y-123138300D01*
X109720167Y-123138300D01*
X109819032Y-123138300D01*
X109819035Y-123138300D01*
X109914538Y-123112710D01*
X110000162Y-123063275D01*
X110070075Y-122993362D01*
X110119510Y-122907738D01*
X110145100Y-122812235D01*
X110145100Y-122713365D01*
X110119510Y-122617862D01*
X110070075Y-122532238D01*
X110000162Y-122462325D01*
X109914538Y-122412890D01*
X109819035Y-122387300D01*
X109720165Y-122387300D01*
X109624662Y-122412890D01*
X109624660Y-122412891D01*
X109624659Y-122412891D01*
X109539036Y-122462326D01*
X109469126Y-122532236D01*
X109419691Y-122617859D01*
X109419691Y-122617860D01*
X109419690Y-122617862D01*
X109394100Y-122713365D01*
X104970500Y-122713365D01*
X104970500Y-122710931D01*
X104952660Y-122621248D01*
X104952522Y-122620507D01*
X104955968Y-122586451D01*
X104959022Y-122552331D01*
X104959482Y-122551738D01*
X104959558Y-122550992D01*
X104980893Y-122524176D01*
X105001885Y-122497154D01*
X105002701Y-122496766D01*
X105003059Y-122496317D01*
X105005129Y-122495613D01*
X105042319Y-122477956D01*
X105046633Y-122476800D01*
X105046635Y-122476800D01*
X105142138Y-122451210D01*
X105227762Y-122401775D01*
X105297675Y-122331862D01*
X105323287Y-122287499D01*
X105373854Y-122239284D01*
X105430674Y-122225500D01*
X109004203Y-122225500D01*
X109004211Y-122225501D01*
X109018645Y-122225501D01*
X109108354Y-122225501D01*
X109108355Y-122225501D01*
X109173455Y-122198535D01*
X109191236Y-122191170D01*
X109254670Y-122127736D01*
X109254670Y-122127735D01*
X109272108Y-122110297D01*
X109272110Y-122110294D01*
X110921085Y-120461319D01*
X110982408Y-120427834D01*
X111008766Y-120425000D01*
X111063432Y-120425000D01*
X111063435Y-120425000D01*
X111158938Y-120399410D01*
X111244562Y-120349975D01*
X111314475Y-120280062D01*
X111363910Y-120194438D01*
X111389500Y-120098935D01*
X111389500Y-120000065D01*
X111363910Y-119904562D01*
X111314475Y-119818938D01*
X111244562Y-119749025D01*
X111158938Y-119699590D01*
X111063435Y-119674000D01*
X110964565Y-119674000D01*
X110869062Y-119699590D01*
X110869060Y-119699591D01*
X110869059Y-119699591D01*
X110783436Y-119749026D01*
X110713526Y-119818936D01*
X110664091Y-119904559D01*
X110664091Y-119904560D01*
X110664090Y-119904562D01*
X110638500Y-120000065D01*
X110638500Y-120000067D01*
X110638500Y-120054732D01*
X110618815Y-120121771D01*
X110602181Y-120142413D01*
X109006414Y-121738181D01*
X108945091Y-121771666D01*
X108918733Y-121774500D01*
X106358145Y-121774500D01*
X106291106Y-121754815D01*
X106245351Y-121702011D01*
X106235407Y-121632853D01*
X106255042Y-121581610D01*
X106270462Y-121558531D01*
X106270465Y-121558527D01*
X106319501Y-121440144D01*
X106337653Y-121348892D01*
X106344500Y-121314471D01*
X106344500Y-121186328D01*
X106319502Y-121060660D01*
X106319501Y-121060658D01*
X106319501Y-121060656D01*
X106316982Y-121054576D01*
X106309513Y-120985109D01*
X106340786Y-120922629D01*
X106343829Y-120919474D01*
X106432706Y-120830598D01*
X106494026Y-120797115D01*
X106563718Y-120802099D01*
X106619651Y-120843971D01*
X106627771Y-120856281D01*
X106679520Y-120945913D01*
X106754087Y-121020480D01*
X106845413Y-121073207D01*
X106947273Y-121100500D01*
X106947275Y-121100500D01*
X107052725Y-121100500D01*
X107052727Y-121100500D01*
X107154587Y-121073207D01*
X107245913Y-121020480D01*
X107320480Y-120945913D01*
X107373207Y-120854587D01*
X107400500Y-120752727D01*
X107400500Y-120727697D01*
X108732200Y-120727697D01*
X108732200Y-120821303D01*
X108735011Y-120831793D01*
X108756426Y-120911719D01*
X108769466Y-120934304D01*
X108803229Y-120992782D01*
X108869418Y-121058971D01*
X108950482Y-121105774D01*
X109040897Y-121130000D01*
X109040899Y-121130000D01*
X109134501Y-121130000D01*
X109134503Y-121130000D01*
X109224918Y-121105774D01*
X109305982Y-121058971D01*
X109372171Y-120992782D01*
X109418974Y-120911718D01*
X109443200Y-120821303D01*
X109443200Y-120727697D01*
X109418974Y-120637282D01*
X109372171Y-120556218D01*
X109305982Y-120490029D01*
X109243730Y-120454087D01*
X109224919Y-120443226D01*
X109167473Y-120427834D01*
X109134503Y-120419000D01*
X109040897Y-120419000D01*
X108950480Y-120443226D01*
X108869418Y-120490029D01*
X108869415Y-120490031D01*
X108803231Y-120556215D01*
X108803229Y-120556218D01*
X108756426Y-120637280D01*
X108746605Y-120673935D01*
X108732200Y-120727697D01*
X107400500Y-120727697D01*
X107400500Y-120647273D01*
X107373207Y-120545413D01*
X107320480Y-120454087D01*
X107245913Y-120379520D01*
X107156281Y-120327771D01*
X107108066Y-120277203D01*
X107094844Y-120208596D01*
X107120812Y-120143731D01*
X107130592Y-120132712D01*
X107813539Y-119449765D01*
X112334500Y-119449765D01*
X112334500Y-119548635D01*
X112360090Y-119644138D01*
X112360091Y-119644139D01*
X112360091Y-119644140D01*
X112373337Y-119667082D01*
X112409525Y-119729762D01*
X112479438Y-119799675D01*
X112565062Y-119849110D01*
X112660565Y-119874700D01*
X112660567Y-119874700D01*
X112759432Y-119874700D01*
X112759435Y-119874700D01*
X112854938Y-119849110D01*
X112940562Y-119799675D01*
X113010475Y-119729762D01*
X113059910Y-119644138D01*
X113085500Y-119548635D01*
X113085500Y-119449765D01*
X113059910Y-119354262D01*
X113010475Y-119268638D01*
X112940562Y-119198725D01*
X112854938Y-119149290D01*
X112759435Y-119123700D01*
X112660565Y-119123700D01*
X112565062Y-119149290D01*
X112565060Y-119149291D01*
X112565059Y-119149291D01*
X112479436Y-119198726D01*
X112409526Y-119268636D01*
X112360091Y-119354259D01*
X112360091Y-119354260D01*
X112360090Y-119354262D01*
X112334500Y-119449765D01*
X107813539Y-119449765D01*
X109724624Y-117538680D01*
X109785946Y-117505197D01*
X109855638Y-117510181D01*
X109911571Y-117552053D01*
X109935988Y-117617517D01*
X109932079Y-117658455D01*
X109921600Y-117697563D01*
X109921600Y-117697565D01*
X109921600Y-117796435D01*
X109947190Y-117891938D01*
X109996625Y-117977562D01*
X110066538Y-118047475D01*
X110152162Y-118096910D01*
X110247665Y-118122500D01*
X110247667Y-118122500D01*
X110346532Y-118122500D01*
X110346535Y-118122500D01*
X110442038Y-118096910D01*
X110527662Y-118047475D01*
X110531338Y-118043798D01*
X110592655Y-118010313D01*
X110662347Y-118015294D01*
X110682508Y-118026461D01*
X110683000Y-118025611D01*
X110690036Y-118029673D01*
X110690038Y-118029675D01*
X110750934Y-118064833D01*
X110799150Y-118115400D01*
X110810184Y-118146251D01*
X110810491Y-118147688D01*
X110865641Y-118314119D01*
X110865643Y-118314124D01*
X110957684Y-118463345D01*
X111081654Y-118587315D01*
X111230875Y-118679356D01*
X111230880Y-118679358D01*
X111397302Y-118734505D01*
X111397309Y-118734506D01*
X111500019Y-118744999D01*
X111749999Y-118744999D01*
X111750000Y-118744998D01*
X111750000Y-117844000D01*
X111769685Y-117776961D01*
X111822489Y-117731206D01*
X111874000Y-117720000D01*
X112126000Y-117720000D01*
X112193039Y-117739685D01*
X112238794Y-117792489D01*
X112250000Y-117844000D01*
X112250000Y-118744999D01*
X112499972Y-118744999D01*
X112499986Y-118744998D01*
X112602697Y-118734505D01*
X112769119Y-118679358D01*
X112769124Y-118679356D01*
X112918345Y-118587315D01*
X113042315Y-118463345D01*
X113134356Y-118314124D01*
X113134359Y-118314117D01*
X113166606Y-118216800D01*
X113206378Y-118159355D01*
X113270893Y-118132531D01*
X113339669Y-118144845D01*
X113390870Y-118192388D01*
X113391698Y-118193801D01*
X113399500Y-118207314D01*
X113492686Y-118300500D01*
X113606814Y-118366392D01*
X113734108Y-118400500D01*
X113734110Y-118400500D01*
X113865890Y-118400500D01*
X113865892Y-118400500D01*
X113993186Y-118366392D01*
X114107314Y-118300500D01*
X114200500Y-118207314D01*
X114208298Y-118193806D01*
X114258862Y-118145590D01*
X114327469Y-118132365D01*
X114392334Y-118158331D01*
X114432865Y-118215243D01*
X114433392Y-118216799D01*
X114465642Y-118314121D01*
X114465643Y-118314124D01*
X114557684Y-118463345D01*
X114681654Y-118587315D01*
X114830875Y-118679356D01*
X114830880Y-118679358D01*
X114997302Y-118734505D01*
X114997309Y-118734506D01*
X115100019Y-118744999D01*
X115349999Y-118744999D01*
X115350000Y-118744998D01*
X115350000Y-117844000D01*
X115369685Y-117776961D01*
X115422489Y-117731206D01*
X115474000Y-117720000D01*
X115726000Y-117720000D01*
X115793039Y-117739685D01*
X115838794Y-117792489D01*
X115850000Y-117844000D01*
X115850000Y-118744999D01*
X116103134Y-118744999D01*
X116103134Y-118746503D01*
X116165337Y-118761285D01*
X116213789Y-118811626D01*
X116227333Y-118880170D01*
X116226431Y-118887607D01*
X116086640Y-119806733D01*
X116057099Y-119870050D01*
X116039536Y-119886464D01*
X115020491Y-120668405D01*
X115015239Y-120672221D01*
X113918197Y-121426197D01*
X113912753Y-121429732D01*
X112777770Y-122125251D01*
X112772148Y-122128497D01*
X111602316Y-122763663D01*
X111596531Y-122766611D01*
X110395048Y-123339689D01*
X110389118Y-123342329D01*
X109159307Y-123851733D01*
X109153246Y-123854060D01*
X107898443Y-124298409D01*
X107892269Y-124300415D01*
X106615933Y-124678483D01*
X106609662Y-124680163D01*
X105315305Y-124990911D01*
X105308955Y-124992261D01*
X104000082Y-125234847D01*
X103993670Y-125235862D01*
X102673929Y-125409609D01*
X102667473Y-125410288D01*
X101340424Y-125514728D01*
X101333941Y-125515068D01*
X100003245Y-125549914D01*
X99996753Y-125549914D01*
X98666057Y-125515068D01*
X98659574Y-125514728D01*
X97332525Y-125410288D01*
X97326069Y-125409609D01*
X96006328Y-125235862D01*
X95999916Y-125234847D01*
X94691043Y-124992261D01*
X94684693Y-124990911D01*
X93390336Y-124680163D01*
X93384065Y-124678483D01*
X92107729Y-124300415D01*
X92101555Y-124298409D01*
X90846752Y-123854060D01*
X90840691Y-123851733D01*
X89844436Y-123439071D01*
X95029499Y-123439071D01*
X95054497Y-123564738D01*
X95054499Y-123564744D01*
X95103533Y-123683124D01*
X95103538Y-123683133D01*
X95174723Y-123789668D01*
X95174726Y-123789672D01*
X95265327Y-123880273D01*
X95265331Y-123880276D01*
X95371866Y-123951461D01*
X95371872Y-123951464D01*
X95371873Y-123951465D01*
X95490256Y-124000501D01*
X95490260Y-124000501D01*
X95490261Y-124000502D01*
X95615928Y-124025500D01*
X95615931Y-124025500D01*
X95744071Y-124025500D01*
X95828615Y-124008682D01*
X95869744Y-124000501D01*
X95988127Y-123951465D01*
X96094669Y-123880276D01*
X96185276Y-123789669D01*
X96256465Y-123683127D01*
X96305501Y-123564744D01*
X96330500Y-123439069D01*
X96330500Y-122710931D01*
X96330500Y-122710928D01*
X96305502Y-122585261D01*
X96305501Y-122585260D01*
X96305501Y-122585256D01*
X96256465Y-122466873D01*
X96256464Y-122466872D01*
X96256461Y-122466866D01*
X96185276Y-122360331D01*
X96185273Y-122360327D01*
X96094672Y-122269726D01*
X96094668Y-122269723D01*
X95988133Y-122198538D01*
X95988124Y-122198533D01*
X95869744Y-122149499D01*
X95869738Y-122149497D01*
X95744071Y-122124500D01*
X95744069Y-122124500D01*
X95615931Y-122124500D01*
X95615929Y-122124500D01*
X95490261Y-122149497D01*
X95490255Y-122149499D01*
X95371875Y-122198533D01*
X95371866Y-122198538D01*
X95265331Y-122269723D01*
X95265327Y-122269726D01*
X95174726Y-122360327D01*
X95174723Y-122360331D01*
X95103538Y-122466866D01*
X95103533Y-122466875D01*
X95054499Y-122585255D01*
X95054497Y-122585261D01*
X95029500Y-122710928D01*
X95029500Y-122710931D01*
X95029500Y-123439069D01*
X95029500Y-123439071D01*
X95029499Y-123439071D01*
X89844436Y-123439071D01*
X89610880Y-123342329D01*
X89604950Y-123339689D01*
X88508607Y-122816760D01*
X88403467Y-122766611D01*
X88397682Y-122763663D01*
X87227851Y-122128497D01*
X87222242Y-122125259D01*
X86937959Y-121951050D01*
X93592436Y-121951050D01*
X93592436Y-121951051D01*
X93668533Y-122027148D01*
X93668537Y-122027151D01*
X93832315Y-122136585D01*
X93832328Y-122136592D01*
X94014306Y-122211969D01*
X94014318Y-122211972D01*
X94207504Y-122250399D01*
X94207508Y-122250400D01*
X94404492Y-122250400D01*
X94404494Y-122250399D01*
X94575084Y-122216467D01*
X94575084Y-122216466D01*
X94214493Y-121591906D01*
X94214492Y-121591906D01*
X93592436Y-121951050D01*
X86937959Y-121951050D01*
X86567584Y-121724084D01*
X86087245Y-121429732D01*
X86081801Y-121426197D01*
X85822536Y-121248009D01*
X85682702Y-121151904D01*
X93306000Y-121151904D01*
X93306000Y-121348888D01*
X93339932Y-121519484D01*
X93647508Y-121341905D01*
X94647506Y-121341905D01*
X94647506Y-121341906D01*
X95006649Y-121963961D01*
X95082754Y-121887858D01*
X95192185Y-121724084D01*
X95192192Y-121724071D01*
X95267569Y-121542093D01*
X95267572Y-121542081D01*
X95305999Y-121348895D01*
X95306000Y-121348892D01*
X95306000Y-121151908D01*
X95305999Y-121151904D01*
X95272067Y-120981315D01*
X95272066Y-120981314D01*
X94647506Y-121341905D01*
X93647508Y-121341905D01*
X93803162Y-121252038D01*
X93964492Y-121158893D01*
X93964492Y-121158892D01*
X93605349Y-120536836D01*
X93529246Y-120612940D01*
X93419814Y-120776715D01*
X93419807Y-120776728D01*
X93344430Y-120958706D01*
X93344427Y-120958718D01*
X93306000Y-121151904D01*
X85682702Y-121151904D01*
X84984759Y-120672221D01*
X84979507Y-120668405D01*
X84616094Y-120389548D01*
X84478974Y-120284332D01*
X94036914Y-120284332D01*
X94397505Y-120908892D01*
X94397506Y-120908892D01*
X95019562Y-120549748D01*
X95019563Y-120549748D01*
X94943466Y-120473651D01*
X94943462Y-120473648D01*
X94779684Y-120364214D01*
X94779671Y-120364207D01*
X94597693Y-120288830D01*
X94597681Y-120288827D01*
X94404495Y-120250400D01*
X94207510Y-120250400D01*
X94036914Y-120284332D01*
X84478974Y-120284332D01*
X84200305Y-120070502D01*
X83960461Y-119886463D01*
X83919259Y-119830036D01*
X83913360Y-119806741D01*
X83742384Y-118682580D01*
X83660846Y-118146472D01*
X83660845Y-118146470D01*
X83660845Y-118146469D01*
X82994081Y-117005918D01*
X81853530Y-116339154D01*
X81853527Y-116339153D01*
X81853525Y-116339152D01*
X81853526Y-116339152D01*
X80193265Y-116086640D01*
X80129948Y-116057099D01*
X80113537Y-116039539D01*
X79331589Y-115020486D01*
X79327777Y-115015239D01*
X79318607Y-115001897D01*
X78573800Y-113918195D01*
X78570266Y-113912753D01*
X78517883Y-113827271D01*
X77874739Y-112777757D01*
X77871501Y-112772148D01*
X77870567Y-112770428D01*
X77318620Y-111753865D01*
X98724500Y-111753865D01*
X98724500Y-111852735D01*
X98750090Y-111948238D01*
X98799525Y-112033862D01*
X98869438Y-112103775D01*
X98955062Y-112153210D01*
X99050565Y-112178800D01*
X99050567Y-112178800D01*
X99149432Y-112178800D01*
X99149435Y-112178800D01*
X99244938Y-112153210D01*
X99330562Y-112103775D01*
X99400475Y-112033862D01*
X99449910Y-111948238D01*
X99475500Y-111852735D01*
X99475500Y-111753865D01*
X99449910Y-111658362D01*
X99400475Y-111572738D01*
X99330562Y-111502825D01*
X99244938Y-111453390D01*
X99149435Y-111427800D01*
X99050565Y-111427800D01*
X98955062Y-111453390D01*
X98955060Y-111453391D01*
X98955059Y-111453391D01*
X98869436Y-111502826D01*
X98799526Y-111572736D01*
X98750091Y-111658359D01*
X98750091Y-111658360D01*
X98750090Y-111658362D01*
X98724500Y-111753865D01*
X77318620Y-111753865D01*
X77236330Y-111602306D01*
X77233387Y-111596531D01*
X77228077Y-111585399D01*
X76992767Y-111092060D01*
X76979417Y-111064071D01*
X80296899Y-111064071D01*
X80321897Y-111189738D01*
X80321899Y-111189744D01*
X80370933Y-111308124D01*
X80370938Y-111308133D01*
X80442123Y-111414668D01*
X80442126Y-111414672D01*
X80532727Y-111505273D01*
X80532731Y-111505276D01*
X80639266Y-111576461D01*
X80639275Y-111576466D01*
X80660844Y-111585400D01*
X80757656Y-111625501D01*
X80757660Y-111625501D01*
X80757661Y-111625502D01*
X80883328Y-111650500D01*
X80883331Y-111650500D01*
X81011471Y-111650500D01*
X81115723Y-111629762D01*
X81137144Y-111625501D01*
X81255527Y-111576465D01*
X81362069Y-111505276D01*
X81452676Y-111414669D01*
X81523865Y-111308127D01*
X81572901Y-111189744D01*
X81585680Y-111125500D01*
X81597900Y-111064071D01*
X81597900Y-110935928D01*
X81586723Y-110879740D01*
X81592950Y-110810148D01*
X81635813Y-110754971D01*
X81676244Y-110735774D01*
X81717538Y-110724710D01*
X81803162Y-110675275D01*
X81873075Y-110605362D01*
X81922510Y-110519738D01*
X81948100Y-110424235D01*
X81948100Y-110325365D01*
X81922510Y-110229862D01*
X81873075Y-110144238D01*
X81803162Y-110074325D01*
X81717538Y-110024890D01*
X81622035Y-109999300D01*
X81523165Y-109999300D01*
X81427662Y-110024890D01*
X81427660Y-110024891D01*
X81427659Y-110024891D01*
X81342036Y-110074326D01*
X81272126Y-110144236D01*
X81222691Y-110229859D01*
X81222688Y-110229866D01*
X81211625Y-110271154D01*
X81175260Y-110330814D01*
X81112412Y-110361342D01*
X81067661Y-110360677D01*
X81011469Y-110349500D01*
X80883331Y-110349500D01*
X80883329Y-110349500D01*
X80757661Y-110374497D01*
X80757655Y-110374499D01*
X80639275Y-110423533D01*
X80639266Y-110423538D01*
X80532731Y-110494723D01*
X80532727Y-110494726D01*
X80442126Y-110585327D01*
X80442123Y-110585331D01*
X80370938Y-110691866D01*
X80370933Y-110691875D01*
X80321899Y-110810255D01*
X80321897Y-110810261D01*
X80296900Y-110935928D01*
X80296900Y-110935931D01*
X80296900Y-111064069D01*
X80296900Y-111064071D01*
X80296899Y-111064071D01*
X76979417Y-111064071D01*
X76940854Y-110983222D01*
X76699319Y-110476834D01*
X76660307Y-110395044D01*
X76657669Y-110389118D01*
X76604728Y-110261308D01*
X76563540Y-110161871D01*
X76404284Y-109777391D01*
X76387995Y-109738065D01*
X92012000Y-109738065D01*
X92012000Y-109836935D01*
X92037590Y-109932438D01*
X92037591Y-109932439D01*
X92037591Y-109932440D01*
X92038457Y-109933940D01*
X92087025Y-110018062D01*
X92156938Y-110087975D01*
X92242562Y-110137410D01*
X92338065Y-110163000D01*
X92338067Y-110163000D01*
X92436932Y-110163000D01*
X92436935Y-110163000D01*
X92532438Y-110137410D01*
X92618062Y-110087975D01*
X92644898Y-110061139D01*
X92656720Y-110049318D01*
X92718043Y-110015833D01*
X92744400Y-110013000D01*
X95477533Y-110013000D01*
X95544572Y-110032685D01*
X95565214Y-110049319D01*
X96775681Y-111259786D01*
X96809166Y-111321109D01*
X96812000Y-111347467D01*
X96812000Y-111402135D01*
X96837590Y-111497638D01*
X96887025Y-111583262D01*
X96956938Y-111653175D01*
X97042562Y-111702610D01*
X97138065Y-111728200D01*
X97138067Y-111728200D01*
X97236932Y-111728200D01*
X97236935Y-111728200D01*
X97332438Y-111702610D01*
X97418062Y-111653175D01*
X97487975Y-111583262D01*
X97537410Y-111497638D01*
X97563000Y-111402135D01*
X97563000Y-111303265D01*
X97537410Y-111207762D01*
X97487975Y-111122138D01*
X97418062Y-111052225D01*
X97332438Y-111002790D01*
X97236935Y-110977200D01*
X97182267Y-110977200D01*
X97115228Y-110957515D01*
X97094586Y-110940881D01*
X96733170Y-110579465D01*
X99292300Y-110579465D01*
X99292300Y-110678335D01*
X99317890Y-110773838D01*
X99367325Y-110859462D01*
X99437238Y-110929375D01*
X99522862Y-110978810D01*
X99618365Y-111004400D01*
X99618367Y-111004400D01*
X99717232Y-111004400D01*
X99717235Y-111004400D01*
X99812738Y-110978810D01*
X99898362Y-110929375D01*
X99968275Y-110859462D01*
X100017710Y-110773838D01*
X100043300Y-110678335D01*
X100043300Y-110579465D01*
X100017710Y-110483962D01*
X99968275Y-110398338D01*
X99898362Y-110328425D01*
X99812738Y-110278990D01*
X99717235Y-110253400D01*
X99618365Y-110253400D01*
X99522862Y-110278990D01*
X99522860Y-110278991D01*
X99522859Y-110278991D01*
X99437236Y-110328426D01*
X99367326Y-110398336D01*
X99317891Y-110483959D01*
X99317891Y-110483960D01*
X99317890Y-110483962D01*
X99292300Y-110579465D01*
X96733170Y-110579465D01*
X95830910Y-109677205D01*
X95813470Y-109659764D01*
X95750036Y-109596330D01*
X95750035Y-109596329D01*
X95725757Y-109586272D01*
X95725757Y-109586271D01*
X95667158Y-109562000D01*
X95667156Y-109561999D01*
X95667155Y-109561999D01*
X95577445Y-109561999D01*
X95563011Y-109561999D01*
X95563003Y-109562000D01*
X92744400Y-109562000D01*
X92677361Y-109542315D01*
X92656720Y-109525682D01*
X92618063Y-109487026D01*
X92618062Y-109487025D01*
X92532438Y-109437590D01*
X92436935Y-109412000D01*
X92338065Y-109412000D01*
X92242562Y-109437590D01*
X92242560Y-109437591D01*
X92242559Y-109437591D01*
X92156936Y-109487026D01*
X92087026Y-109556936D01*
X92037591Y-109642559D01*
X92037591Y-109642560D01*
X92037590Y-109642562D01*
X92012000Y-109738065D01*
X76387995Y-109738065D01*
X76208852Y-109305576D01*
X76148263Y-109159302D01*
X76145938Y-109153246D01*
X76144135Y-109148155D01*
X76002668Y-108748665D01*
X88129500Y-108748665D01*
X88129500Y-108847535D01*
X88155090Y-108943038D01*
X88155091Y-108943039D01*
X88155091Y-108943040D01*
X88158670Y-108949239D01*
X88204525Y-109028662D01*
X88274438Y-109098575D01*
X88360062Y-109148010D01*
X88455565Y-109173600D01*
X88455567Y-109173600D01*
X88554432Y-109173600D01*
X88554435Y-109173600D01*
X88649938Y-109148010D01*
X88735562Y-109098575D01*
X88805475Y-109028662D01*
X88854910Y-108943038D01*
X88880500Y-108847535D01*
X88880500Y-108748665D01*
X88875838Y-108731265D01*
X91939500Y-108731265D01*
X91939500Y-108830135D01*
X91965090Y-108925638D01*
X91965091Y-108925639D01*
X91965091Y-108925640D01*
X91975136Y-108943038D01*
X92014525Y-109011262D01*
X92084438Y-109081175D01*
X92170062Y-109130610D01*
X92265565Y-109156200D01*
X92265567Y-109156200D01*
X92364432Y-109156200D01*
X92364435Y-109156200D01*
X92459938Y-109130610D01*
X92545562Y-109081175D01*
X92615475Y-109011262D01*
X92664910Y-108925638D01*
X92690500Y-108830135D01*
X92690500Y-108731265D01*
X92664910Y-108635762D01*
X92615475Y-108550138D01*
X92545562Y-108480225D01*
X92459938Y-108430790D01*
X92364435Y-108405200D01*
X92265565Y-108405200D01*
X92170062Y-108430790D01*
X92170060Y-108430791D01*
X92170059Y-108430791D01*
X92084436Y-108480226D01*
X92014526Y-108550136D01*
X91965091Y-108635759D01*
X91965091Y-108635760D01*
X91965090Y-108635762D01*
X91939500Y-108731265D01*
X88875838Y-108731265D01*
X88854910Y-108653162D01*
X88805475Y-108567538D01*
X88735562Y-108497625D01*
X88649938Y-108448190D01*
X88554435Y-108422600D01*
X88455565Y-108422600D01*
X88360062Y-108448190D01*
X88360060Y-108448191D01*
X88360059Y-108448191D01*
X88274436Y-108497626D01*
X88204526Y-108567536D01*
X88155091Y-108653159D01*
X88155091Y-108653160D01*
X88155090Y-108653162D01*
X88129500Y-108748665D01*
X76002668Y-108748665D01*
X75701586Y-107898434D01*
X75699583Y-107892269D01*
X75699294Y-107891294D01*
X75321511Y-106615921D01*
X75319835Y-106609662D01*
X75317473Y-106599825D01*
X75115385Y-105758071D01*
X78099099Y-105758071D01*
X78124097Y-105883738D01*
X78124099Y-105883744D01*
X78173133Y-106002124D01*
X78173138Y-106002133D01*
X78244323Y-106108668D01*
X78244326Y-106108672D01*
X78334927Y-106199273D01*
X78334931Y-106199276D01*
X78441466Y-106270461D01*
X78441475Y-106270466D01*
X78459992Y-106278136D01*
X78559856Y-106319501D01*
X78559860Y-106319501D01*
X78559861Y-106319502D01*
X78685528Y-106344500D01*
X78685531Y-106344500D01*
X78813671Y-106344500D01*
X78898215Y-106327682D01*
X78939344Y-106319501D01*
X79053048Y-106272402D01*
X79122516Y-106264934D01*
X79184996Y-106296209D01*
X79220648Y-106356298D01*
X79224500Y-106386964D01*
X79224500Y-106449435D01*
X79250090Y-106544938D01*
X79250091Y-106544939D01*
X79250091Y-106544940D01*
X79257709Y-106558135D01*
X79299525Y-106630562D01*
X79369438Y-106700475D01*
X79455062Y-106749910D01*
X79550565Y-106775500D01*
X79550567Y-106775500D01*
X79649432Y-106775500D01*
X79649435Y-106775500D01*
X79744938Y-106749910D01*
X79830562Y-106700475D01*
X79900475Y-106630562D01*
X79949910Y-106544938D01*
X79975500Y-106449435D01*
X79975500Y-106350565D01*
X79949910Y-106255062D01*
X79900475Y-106169438D01*
X79862218Y-106131181D01*
X79828733Y-106069858D01*
X79833717Y-106000166D01*
X79875589Y-105944233D01*
X79941053Y-105919816D01*
X79949899Y-105919500D01*
X81745303Y-105919500D01*
X81745311Y-105919501D01*
X81759745Y-105919501D01*
X81849453Y-105919501D01*
X81849455Y-105919501D01*
X81908060Y-105895225D01*
X81932336Y-105885170D01*
X81932340Y-105885165D01*
X81937083Y-105881998D01*
X82003760Y-105861120D01*
X82005974Y-105861100D01*
X82062432Y-105861100D01*
X82062435Y-105861100D01*
X82157938Y-105835510D01*
X82243562Y-105786075D01*
X82263572Y-105766065D01*
X97152500Y-105766065D01*
X97152500Y-105864935D01*
X97178090Y-105960438D01*
X97178091Y-105960439D01*
X97178091Y-105960440D01*
X97186705Y-105975359D01*
X97227525Y-106046062D01*
X97297438Y-106115975D01*
X97383062Y-106165410D01*
X97478565Y-106191000D01*
X97478567Y-106191000D01*
X97577432Y-106191000D01*
X97577435Y-106191000D01*
X97672938Y-106165410D01*
X97758562Y-106115975D01*
X97828475Y-106046062D01*
X97877910Y-105960438D01*
X97903500Y-105864935D01*
X97903500Y-105766065D01*
X97877910Y-105670562D01*
X97828475Y-105584938D01*
X97758562Y-105515025D01*
X97672938Y-105465590D01*
X97577435Y-105440000D01*
X97478565Y-105440000D01*
X97383062Y-105465590D01*
X97383060Y-105465591D01*
X97383059Y-105465591D01*
X97297436Y-105515026D01*
X97227526Y-105584936D01*
X97178091Y-105670559D01*
X97178091Y-105670560D01*
X97178090Y-105670562D01*
X97152500Y-105766065D01*
X82263572Y-105766065D01*
X82313475Y-105716162D01*
X82362910Y-105630538D01*
X82388500Y-105535035D01*
X82388500Y-105436165D01*
X82362910Y-105340662D01*
X82313475Y-105255038D01*
X82243562Y-105185125D01*
X82157938Y-105135690D01*
X82062435Y-105110100D01*
X81963565Y-105110100D01*
X81868062Y-105135690D01*
X81868060Y-105135691D01*
X81868059Y-105135691D01*
X81782436Y-105185126D01*
X81712526Y-105255036D01*
X81663091Y-105340659D01*
X81663090Y-105340661D01*
X81663090Y-105340662D01*
X81653461Y-105376595D01*
X81617099Y-105436253D01*
X81554252Y-105466783D01*
X81533688Y-105468500D01*
X80052931Y-105468500D01*
X79985892Y-105448815D01*
X79940137Y-105396011D01*
X79930193Y-105326853D01*
X79945543Y-105282501D01*
X79949910Y-105274938D01*
X79975500Y-105179435D01*
X79975500Y-105080565D01*
X79949910Y-104985062D01*
X79900475Y-104899438D01*
X79830562Y-104829525D01*
X79744938Y-104780090D01*
X79649435Y-104754500D01*
X79550565Y-104754500D01*
X79455062Y-104780090D01*
X79455060Y-104780091D01*
X79455059Y-104780091D01*
X79369436Y-104829526D01*
X79299526Y-104899436D01*
X79250091Y-104985059D01*
X79250089Y-104985064D01*
X79235378Y-105039964D01*
X79199012Y-105099623D01*
X79136165Y-105130152D01*
X79066789Y-105121855D01*
X79058204Y-105117732D01*
X78939344Y-105068499D01*
X78939338Y-105068497D01*
X78813671Y-105043500D01*
X78813669Y-105043500D01*
X78685531Y-105043500D01*
X78685529Y-105043500D01*
X78559861Y-105068497D01*
X78559855Y-105068499D01*
X78441475Y-105117533D01*
X78441466Y-105117538D01*
X78334931Y-105188723D01*
X78334927Y-105188726D01*
X78244326Y-105279327D01*
X78244323Y-105279331D01*
X78173138Y-105385866D01*
X78173133Y-105385875D01*
X78124099Y-105504255D01*
X78124097Y-105504261D01*
X78099100Y-105629928D01*
X78099100Y-105629931D01*
X78099100Y-105758069D01*
X78099100Y-105758071D01*
X78099099Y-105758071D01*
X75115385Y-105758071D01*
X75009085Y-105315300D01*
X75007737Y-105308955D01*
X75002834Y-105282499D01*
X74765146Y-104000054D01*
X74764140Y-103993698D01*
X74590385Y-102673897D01*
X74589713Y-102667505D01*
X74485269Y-101340421D01*
X74484930Y-101333941D01*
X74450084Y-100003207D01*
X74450084Y-99996792D01*
X74484930Y-98666051D01*
X74485270Y-98659574D01*
X74487199Y-98635060D01*
X74589713Y-97332489D01*
X74590385Y-97326105D01*
X74764141Y-96006294D01*
X74765145Y-95999950D01*
X75007739Y-94691031D01*
X75009087Y-94684693D01*
X75319841Y-93390313D01*
X75321509Y-93384087D01*
X75696817Y-92117065D01*
X79109400Y-92117065D01*
X79109400Y-92215935D01*
X79134990Y-92311438D01*
X79184425Y-92397062D01*
X79254338Y-92466975D01*
X79339962Y-92516410D01*
X79435465Y-92542000D01*
X79435467Y-92542000D01*
X79534332Y-92542000D01*
X79534335Y-92542000D01*
X79629838Y-92516410D01*
X79715462Y-92466975D01*
X79785375Y-92397062D01*
X79834810Y-92311438D01*
X79860400Y-92215935D01*
X79860400Y-92117065D01*
X79834810Y-92021562D01*
X79785375Y-91935938D01*
X79715462Y-91866025D01*
X79629838Y-91816590D01*
X79534335Y-91791000D01*
X79435465Y-91791000D01*
X79339962Y-91816590D01*
X79339960Y-91816591D01*
X79339959Y-91816591D01*
X79254336Y-91866026D01*
X79184426Y-91935936D01*
X79134991Y-92021559D01*
X79134991Y-92021560D01*
X79134990Y-92021562D01*
X79109400Y-92117065D01*
X75696817Y-92117065D01*
X75699589Y-92107708D01*
X75701589Y-92101556D01*
X76145944Y-90846734D01*
X76148258Y-90840708D01*
X76428946Y-90163065D01*
X91733800Y-90163065D01*
X91733800Y-90261935D01*
X91759390Y-90357438D01*
X91808825Y-90443062D01*
X91878738Y-90512975D01*
X91964362Y-90562410D01*
X92059865Y-90588000D01*
X92059867Y-90588000D01*
X92158732Y-90588000D01*
X92158735Y-90588000D01*
X92254238Y-90562410D01*
X92339862Y-90512975D01*
X92359191Y-90493645D01*
X92378520Y-90474318D01*
X92439843Y-90440833D01*
X92466200Y-90438000D01*
X101289703Y-90438000D01*
X101289711Y-90438001D01*
X101304145Y-90438001D01*
X101393853Y-90438001D01*
X101393855Y-90438001D01*
X101452460Y-90413725D01*
X101476736Y-90403670D01*
X101540170Y-90340236D01*
X101540170Y-90340235D01*
X101557608Y-90322797D01*
X101557610Y-90322794D01*
X102231085Y-89649319D01*
X102292408Y-89615834D01*
X102318766Y-89613000D01*
X102373432Y-89613000D01*
X102373435Y-89613000D01*
X102468938Y-89587410D01*
X102554562Y-89537975D01*
X102624475Y-89468062D01*
X102673910Y-89382438D01*
X102699500Y-89286935D01*
X102699500Y-89188065D01*
X102673910Y-89092562D01*
X102624475Y-89006938D01*
X102554562Y-88937025D01*
X102468938Y-88887590D01*
X102373435Y-88862000D01*
X102274565Y-88862000D01*
X102179062Y-88887590D01*
X102179060Y-88887591D01*
X102179059Y-88887591D01*
X102093436Y-88937026D01*
X102023526Y-89006936D01*
X101974091Y-89092559D01*
X101974091Y-89092560D01*
X101974090Y-89092562D01*
X101948500Y-89188065D01*
X101948500Y-89188067D01*
X101948500Y-89242732D01*
X101928815Y-89309771D01*
X101912181Y-89330413D01*
X101291914Y-89950681D01*
X101230591Y-89984166D01*
X101204233Y-89987000D01*
X101042435Y-89987000D01*
X100975396Y-89967315D01*
X100929641Y-89914511D01*
X100919697Y-89845353D01*
X100922657Y-89830920D01*
X100939400Y-89768435D01*
X100939400Y-89669565D01*
X100913810Y-89574062D01*
X100864375Y-89488438D01*
X100794462Y-89418525D01*
X100708838Y-89369090D01*
X100613335Y-89343500D01*
X100558667Y-89343500D01*
X100491628Y-89323815D01*
X100470986Y-89307181D01*
X99318910Y-88155105D01*
X99301470Y-88137664D01*
X99238036Y-88074230D01*
X99238035Y-88074229D01*
X99213757Y-88064172D01*
X99213757Y-88064171D01*
X99155158Y-88039900D01*
X99155156Y-88039899D01*
X99155155Y-88039899D01*
X99065445Y-88039899D01*
X99051011Y-88039899D01*
X99051003Y-88039900D01*
X97110700Y-88039900D01*
X97043661Y-88020215D01*
X97023020Y-88003582D01*
X96984363Y-87964926D01*
X96984362Y-87964925D01*
X96898738Y-87915490D01*
X96803235Y-87889900D01*
X96704365Y-87889900D01*
X96608862Y-87915490D01*
X96608860Y-87915491D01*
X96608859Y-87915491D01*
X96523236Y-87964926D01*
X96453326Y-88034836D01*
X96403891Y-88120459D01*
X96403891Y-88120460D01*
X96403890Y-88120462D01*
X96378300Y-88215965D01*
X96378300Y-88314835D01*
X96403890Y-88410338D01*
X96453325Y-88495962D01*
X96523238Y-88565875D01*
X96608862Y-88615310D01*
X96704365Y-88640900D01*
X96704367Y-88640900D01*
X96803232Y-88640900D01*
X96803235Y-88640900D01*
X96898738Y-88615310D01*
X96984362Y-88565875D01*
X97012804Y-88537433D01*
X97023020Y-88527218D01*
X97084343Y-88493733D01*
X97110700Y-88490900D01*
X98965533Y-88490900D01*
X99032572Y-88510585D01*
X99053214Y-88527219D01*
X100152081Y-89626086D01*
X100185566Y-89687409D01*
X100188400Y-89713767D01*
X100188400Y-89768435D01*
X100205139Y-89830909D01*
X100203477Y-89900756D01*
X100164315Y-89958619D01*
X100100087Y-89986123D01*
X100085365Y-89987000D01*
X98559999Y-89987000D01*
X98492960Y-89967315D01*
X98447205Y-89914511D01*
X98437261Y-89845353D01*
X98466286Y-89781797D01*
X98472318Y-89775319D01*
X98479205Y-89768432D01*
X98503675Y-89743962D01*
X98553110Y-89658338D01*
X98578700Y-89562835D01*
X98578700Y-89463965D01*
X98553110Y-89368462D01*
X98503675Y-89282838D01*
X98433762Y-89212925D01*
X98348138Y-89163490D01*
X98252635Y-89137900D01*
X98153765Y-89137900D01*
X98058262Y-89163490D01*
X98058260Y-89163491D01*
X98058259Y-89163491D01*
X97972636Y-89212926D01*
X97902726Y-89282836D01*
X97853291Y-89368459D01*
X97853291Y-89368460D01*
X97853290Y-89368462D01*
X97827700Y-89463965D01*
X97827700Y-89562835D01*
X97853290Y-89658338D01*
X97853291Y-89658339D01*
X97853291Y-89658340D01*
X97859772Y-89669565D01*
X97902223Y-89743093D01*
X97902726Y-89743963D01*
X97934082Y-89775319D01*
X97967567Y-89836642D01*
X97962583Y-89906334D01*
X97920711Y-89962267D01*
X97855247Y-89986684D01*
X97846401Y-89987000D01*
X92466200Y-89987000D01*
X92399161Y-89967315D01*
X92378520Y-89950682D01*
X92339863Y-89912026D01*
X92339862Y-89912025D01*
X92254238Y-89862590D01*
X92158735Y-89837000D01*
X92059865Y-89837000D01*
X91964362Y-89862590D01*
X91964360Y-89862591D01*
X91964359Y-89862591D01*
X91878736Y-89912026D01*
X91808826Y-89981936D01*
X91759391Y-90067559D01*
X91759391Y-90067560D01*
X91759390Y-90067562D01*
X91733800Y-90163065D01*
X76428946Y-90163065D01*
X76657676Y-89610862D01*
X76660300Y-89604968D01*
X76819945Y-89270265D01*
X81778800Y-89270265D01*
X81778800Y-89369135D01*
X81804390Y-89464638D01*
X81853825Y-89550262D01*
X81923738Y-89620175D01*
X82009362Y-89669610D01*
X82104865Y-89695200D01*
X82104867Y-89695200D01*
X82203732Y-89695200D01*
X82203735Y-89695200D01*
X82299238Y-89669610D01*
X82384862Y-89620175D01*
X82454775Y-89550262D01*
X82504210Y-89464638D01*
X82529800Y-89369135D01*
X82529800Y-89270265D01*
X82504210Y-89174762D01*
X82454775Y-89089138D01*
X82384862Y-89019225D01*
X82299238Y-88969790D01*
X82203735Y-88944200D01*
X82104865Y-88944200D01*
X82009362Y-88969790D01*
X82009360Y-88969791D01*
X82009359Y-88969791D01*
X81923736Y-89019226D01*
X81853826Y-89089136D01*
X81804391Y-89174759D01*
X81804391Y-89174760D01*
X81804390Y-89174762D01*
X81778800Y-89270265D01*
X76819945Y-89270265D01*
X77233400Y-88403441D01*
X77236321Y-88397707D01*
X77871518Y-87227820D01*
X77874729Y-87222259D01*
X78045880Y-86942965D01*
X98034500Y-86942965D01*
X98034500Y-87041835D01*
X98060090Y-87137338D01*
X98109525Y-87222962D01*
X98179438Y-87292875D01*
X98265062Y-87342310D01*
X98360565Y-87367900D01*
X98360567Y-87367900D01*
X98459432Y-87367900D01*
X98459435Y-87367900D01*
X98554938Y-87342310D01*
X98640562Y-87292875D01*
X98666872Y-87266565D01*
X100800600Y-87266565D01*
X100800600Y-87365435D01*
X100826190Y-87460938D01*
X100875625Y-87546562D01*
X100945538Y-87616475D01*
X101031162Y-87665910D01*
X101126665Y-87691500D01*
X101126667Y-87691500D01*
X101225532Y-87691500D01*
X101225535Y-87691500D01*
X101321038Y-87665910D01*
X101406662Y-87616475D01*
X101476575Y-87546562D01*
X101526010Y-87460938D01*
X101551600Y-87365435D01*
X101551600Y-87266565D01*
X101526010Y-87171062D01*
X101476575Y-87085438D01*
X101406662Y-87015525D01*
X101321038Y-86966090D01*
X101225535Y-86940500D01*
X101126665Y-86940500D01*
X101031162Y-86966090D01*
X101031160Y-86966091D01*
X101031159Y-86966091D01*
X100945536Y-87015526D01*
X100875626Y-87085436D01*
X100826191Y-87171059D01*
X100826191Y-87171060D01*
X100826190Y-87171062D01*
X100800600Y-87266565D01*
X98666872Y-87266565D01*
X98710475Y-87222962D01*
X98759910Y-87137338D01*
X98785500Y-87041835D01*
X98785500Y-86942965D01*
X98759910Y-86847462D01*
X98710475Y-86761838D01*
X98640562Y-86691925D01*
X98554938Y-86642490D01*
X98459435Y-86616900D01*
X98360565Y-86616900D01*
X98265062Y-86642490D01*
X98265060Y-86642491D01*
X98265059Y-86642491D01*
X98179436Y-86691926D01*
X98109526Y-86761836D01*
X98060091Y-86847459D01*
X98060091Y-86847460D01*
X98060090Y-86847462D01*
X98034500Y-86942965D01*
X78045880Y-86942965D01*
X78418988Y-86334108D01*
X82999500Y-86334108D01*
X82999500Y-86465892D01*
X83003283Y-86480009D01*
X83033608Y-86593187D01*
X83045221Y-86613301D01*
X83099500Y-86707314D01*
X83192686Y-86800500D01*
X83306814Y-86866392D01*
X83434108Y-86900500D01*
X83434110Y-86900500D01*
X83565890Y-86900500D01*
X83565892Y-86900500D01*
X83693186Y-86866392D01*
X83807314Y-86800500D01*
X83900500Y-86707314D01*
X83966392Y-86593186D01*
X84000500Y-86465892D01*
X84000500Y-86334108D01*
X83966392Y-86206814D01*
X83900500Y-86092686D01*
X83807314Y-85999500D01*
X83750250Y-85966554D01*
X83693187Y-85933608D01*
X83612289Y-85911932D01*
X83565892Y-85899500D01*
X83434108Y-85899500D01*
X83306812Y-85933608D01*
X83192686Y-85999500D01*
X83192683Y-85999502D01*
X83099502Y-86092683D01*
X83099500Y-86092686D01*
X83033608Y-86206812D01*
X83023949Y-86242862D01*
X82999500Y-86334108D01*
X78418988Y-86334108D01*
X78570278Y-86087225D01*
X78573788Y-86081820D01*
X79327793Y-84984736D01*
X79331576Y-84979530D01*
X79673360Y-84534108D01*
X82999500Y-84534108D01*
X82999500Y-84665891D01*
X83033608Y-84793187D01*
X83037815Y-84800473D01*
X83099500Y-84907314D01*
X83192686Y-85000500D01*
X83306814Y-85066392D01*
X83434108Y-85100500D01*
X83434110Y-85100500D01*
X83565890Y-85100500D01*
X83565892Y-85100500D01*
X83693186Y-85066392D01*
X83807314Y-85000500D01*
X83900500Y-84907314D01*
X83966392Y-84793186D01*
X84000500Y-84665892D01*
X84000500Y-84534108D01*
X83966392Y-84406814D01*
X83900500Y-84292686D01*
X83807314Y-84199500D01*
X83743369Y-84162581D01*
X83693187Y-84133608D01*
X83629539Y-84116554D01*
X83565892Y-84099500D01*
X83434108Y-84099500D01*
X83306812Y-84133608D01*
X83192686Y-84199500D01*
X83192683Y-84199502D01*
X83099502Y-84292683D01*
X83099500Y-84292686D01*
X83033608Y-84406812D01*
X82999500Y-84534108D01*
X79673360Y-84534108D01*
X80113537Y-83960459D01*
X80169962Y-83919259D01*
X80193255Y-83913360D01*
X81383432Y-83732343D01*
X81853526Y-83660846D01*
X81853526Y-83660845D01*
X81853530Y-83660845D01*
X82994081Y-82994081D01*
X83087601Y-82834108D01*
X88499500Y-82834108D01*
X88499500Y-82965892D01*
X88506692Y-82992734D01*
X88533608Y-83093187D01*
X88566554Y-83150250D01*
X88599500Y-83207314D01*
X88692686Y-83300500D01*
X88806814Y-83366392D01*
X88934108Y-83400500D01*
X88934110Y-83400500D01*
X89065890Y-83400500D01*
X89065892Y-83400500D01*
X89193186Y-83366392D01*
X89307314Y-83300500D01*
X89400500Y-83207314D01*
X89466392Y-83093186D01*
X89500500Y-82965892D01*
X89500500Y-82834108D01*
X89466392Y-82706814D01*
X89400500Y-82592686D01*
X89307314Y-82499500D01*
X89250250Y-82466554D01*
X89193187Y-82433608D01*
X89097917Y-82408081D01*
X89065892Y-82399500D01*
X88934108Y-82399500D01*
X88806812Y-82433608D01*
X88692686Y-82499500D01*
X88692683Y-82499502D01*
X88599502Y-82592683D01*
X88599500Y-82592686D01*
X88533608Y-82706812D01*
X88504468Y-82815567D01*
X88499500Y-82834108D01*
X83087601Y-82834108D01*
X83660845Y-81853530D01*
X83667014Y-81812973D01*
X83785473Y-81034108D01*
X88499500Y-81034108D01*
X88499500Y-81165892D01*
X88516554Y-81229539D01*
X88533608Y-81293187D01*
X88534909Y-81295440D01*
X88599500Y-81407314D01*
X88692686Y-81500500D01*
X88806814Y-81566392D01*
X88934108Y-81600500D01*
X88934110Y-81600500D01*
X89065890Y-81600500D01*
X89065892Y-81600500D01*
X89193186Y-81566392D01*
X89307314Y-81500500D01*
X89344749Y-81463065D01*
X92150000Y-81463065D01*
X92150000Y-81561935D01*
X92175590Y-81657438D01*
X92225025Y-81743062D01*
X92294938Y-81812975D01*
X92380562Y-81862410D01*
X92476065Y-81888000D01*
X92476067Y-81888000D01*
X92574932Y-81888000D01*
X92574935Y-81888000D01*
X92670438Y-81862410D01*
X92756062Y-81812975D01*
X92825975Y-81743062D01*
X92875410Y-81657438D01*
X92901000Y-81561935D01*
X92901000Y-81463065D01*
X92875410Y-81367562D01*
X92825975Y-81281938D01*
X92756062Y-81212025D01*
X92670438Y-81162590D01*
X92574935Y-81137000D01*
X92476065Y-81137000D01*
X92380562Y-81162590D01*
X92380560Y-81162591D01*
X92380559Y-81162591D01*
X92294936Y-81212026D01*
X92225026Y-81281936D01*
X92175591Y-81367559D01*
X92175591Y-81367560D01*
X92175590Y-81367562D01*
X92150000Y-81463065D01*
X89344749Y-81463065D01*
X89400500Y-81407314D01*
X89466392Y-81293186D01*
X89500500Y-81165892D01*
X89500500Y-81034108D01*
X89466392Y-80906814D01*
X89400500Y-80792686D01*
X89307314Y-80699500D01*
X89250250Y-80666554D01*
X89193187Y-80633608D01*
X89129539Y-80616554D01*
X89065892Y-80599500D01*
X88934108Y-80599500D01*
X88806812Y-80633608D01*
X88692686Y-80699500D01*
X88692683Y-80699502D01*
X88599502Y-80792683D01*
X88599500Y-80792686D01*
X88533608Y-80906812D01*
X88499500Y-81034108D01*
X83785473Y-81034108D01*
X83789545Y-81007336D01*
X83808485Y-80882808D01*
X83913359Y-80193261D01*
X83942899Y-80129948D01*
X83960453Y-80113541D01*
X84979530Y-79331576D01*
X84984736Y-79327793D01*
X86081820Y-78573788D01*
X86087225Y-78570278D01*
X86913281Y-78064071D01*
X99349499Y-78064071D01*
X99374497Y-78189738D01*
X99374499Y-78189744D01*
X99423533Y-78308124D01*
X99423538Y-78308133D01*
X99494723Y-78414668D01*
X99494726Y-78414672D01*
X99585327Y-78505273D01*
X99585331Y-78505276D01*
X99691866Y-78576461D01*
X99691872Y-78576464D01*
X99691873Y-78576465D01*
X99810256Y-78625501D01*
X99810260Y-78625501D01*
X99810261Y-78625502D01*
X99935928Y-78650500D01*
X99935931Y-78650500D01*
X100064071Y-78650500D01*
X100148615Y-78633682D01*
X100189744Y-78625501D01*
X100308127Y-78576465D01*
X100414669Y-78505276D01*
X100505276Y-78414669D01*
X100576465Y-78308127D01*
X100625501Y-78189744D01*
X100650500Y-78064069D01*
X100650500Y-78002200D01*
X100670185Y-77935161D01*
X100722989Y-77889406D01*
X100774500Y-77878200D01*
X100796732Y-77878200D01*
X100796735Y-77878200D01*
X100892238Y-77852610D01*
X100977862Y-77803175D01*
X101022172Y-77758865D01*
X106388100Y-77758865D01*
X106388100Y-77857735D01*
X106413690Y-77953238D01*
X106463125Y-78038862D01*
X106533038Y-78108775D01*
X106618662Y-78158210D01*
X106714165Y-78183800D01*
X106714167Y-78183800D01*
X106813032Y-78183800D01*
X106813035Y-78183800D01*
X106908538Y-78158210D01*
X106994162Y-78108775D01*
X107064075Y-78038862D01*
X107113510Y-77953238D01*
X107139100Y-77857735D01*
X107139100Y-77758865D01*
X107113510Y-77663362D01*
X107064075Y-77577738D01*
X106994162Y-77507825D01*
X106908538Y-77458390D01*
X106813035Y-77432800D01*
X106714165Y-77432800D01*
X106618662Y-77458390D01*
X106618660Y-77458391D01*
X106618659Y-77458391D01*
X106533036Y-77507826D01*
X106463126Y-77577736D01*
X106413691Y-77663359D01*
X106413691Y-77663360D01*
X106413690Y-77663362D01*
X106388100Y-77758865D01*
X101022172Y-77758865D01*
X101047775Y-77733262D01*
X101097210Y-77647638D01*
X101122800Y-77552135D01*
X101122800Y-77453265D01*
X101097210Y-77357762D01*
X101047775Y-77272138D01*
X100977862Y-77202225D01*
X100892238Y-77152790D01*
X100796735Y-77127200D01*
X100697865Y-77127200D01*
X100602362Y-77152790D01*
X100602360Y-77152791D01*
X100602359Y-77152791D01*
X100516736Y-77202226D01*
X100446827Y-77272135D01*
X100446825Y-77272137D01*
X100446825Y-77272138D01*
X100435567Y-77291638D01*
X100403890Y-77346504D01*
X100353322Y-77394719D01*
X100284715Y-77407941D01*
X100249051Y-77399064D01*
X100189748Y-77374500D01*
X100189738Y-77374497D01*
X100064071Y-77349500D01*
X100064069Y-77349500D01*
X99935931Y-77349500D01*
X99935929Y-77349500D01*
X99810261Y-77374497D01*
X99810255Y-77374499D01*
X99691875Y-77423533D01*
X99691866Y-77423538D01*
X99585331Y-77494723D01*
X99585327Y-77494726D01*
X99494726Y-77585327D01*
X99494723Y-77585331D01*
X99423538Y-77691866D01*
X99423533Y-77691875D01*
X99374499Y-77810255D01*
X99374497Y-77810261D01*
X99349500Y-77935928D01*
X99349500Y-77935931D01*
X99349500Y-78064069D01*
X99349500Y-78064071D01*
X99349499Y-78064071D01*
X86913281Y-78064071D01*
X87222259Y-77874729D01*
X87227820Y-77871518D01*
X88397707Y-77236321D01*
X88403441Y-77233400D01*
X89604968Y-76660300D01*
X89610862Y-76657676D01*
X90840708Y-76148258D01*
X90846734Y-76145944D01*
X92101575Y-75701582D01*
X92107708Y-75699589D01*
X93384087Y-75321509D01*
X93390313Y-75319841D01*
X94684706Y-75009084D01*
X94691031Y-75007739D01*
X95999950Y-74765145D01*
X96006294Y-74764141D01*
X97326105Y-74590385D01*
X97332489Y-74589713D01*
X98659579Y-74485269D01*
X98666051Y-74484930D01*
X99996792Y-74450084D01*
X100003208Y-74450084D01*
X101333945Y-74484930D01*
G37*
%TD.AperFunction*%
%TA.AperFunction,Conductor*%
G36*
X108630672Y-112056085D02*
G01*
X108651314Y-112072719D01*
X109103013Y-112524418D01*
X109136498Y-112585741D01*
X109131514Y-112655433D01*
X109089642Y-112711366D01*
X109024178Y-112735783D01*
X109015332Y-112736099D01*
X108939911Y-112736099D01*
X108939903Y-112736100D01*
X106647197Y-112736100D01*
X106647189Y-112736099D01*
X106632755Y-112736099D01*
X106543046Y-112736099D01*
X106543044Y-112736099D01*
X106543042Y-112736100D01*
X106494494Y-112756209D01*
X106460165Y-112770428D01*
X106428448Y-112802146D01*
X106396730Y-112833864D01*
X105172213Y-114058381D01*
X105110890Y-114091866D01*
X105084532Y-114094700D01*
X105029865Y-114094700D01*
X104934362Y-114120290D01*
X104934360Y-114120291D01*
X104934359Y-114120291D01*
X104848736Y-114169726D01*
X104778826Y-114239636D01*
X104729391Y-114325259D01*
X104729391Y-114325260D01*
X104729390Y-114325262D01*
X104703800Y-114420765D01*
X104703800Y-114519635D01*
X104729390Y-114615138D01*
X104778825Y-114700762D01*
X104848738Y-114770675D01*
X104934362Y-114820110D01*
X105029865Y-114845700D01*
X105029867Y-114845700D01*
X105128732Y-114845700D01*
X105128735Y-114845700D01*
X105224238Y-114820110D01*
X105309862Y-114770675D01*
X105379775Y-114700762D01*
X105429210Y-114615138D01*
X105454800Y-114519635D01*
X105454800Y-114464966D01*
X105474485Y-114397927D01*
X105491119Y-114377285D01*
X106644986Y-113223419D01*
X106706309Y-113189934D01*
X106732667Y-113187100D01*
X107994216Y-113187100D01*
X108061255Y-113206785D01*
X108107010Y-113259589D01*
X108116954Y-113328747D01*
X108113992Y-113343185D01*
X108099500Y-113397273D01*
X108099500Y-113502727D01*
X108126793Y-113604587D01*
X108179520Y-113695913D01*
X108232445Y-113748838D01*
X108259835Y-113776228D01*
X108257886Y-113778176D01*
X108288056Y-113817484D01*
X108308830Y-113867636D01*
X108308831Y-113867637D01*
X108389700Y-113948506D01*
X108389706Y-113948511D01*
X109362161Y-114920966D01*
X109395646Y-114982289D01*
X109390662Y-115051981D01*
X109348790Y-115107914D01*
X109306575Y-115128421D01*
X109281385Y-115135171D01*
X109219360Y-115151790D01*
X109219359Y-115151791D01*
X109133736Y-115201226D01*
X109063826Y-115271136D01*
X109014391Y-115356759D01*
X109014391Y-115356760D01*
X109014390Y-115356762D01*
X108988800Y-115452265D01*
X108988800Y-115551135D01*
X109014390Y-115646638D01*
X109014391Y-115646639D01*
X109014391Y-115646640D01*
X109027637Y-115669582D01*
X109063825Y-115732262D01*
X109133738Y-115802175D01*
X109219362Y-115851610D01*
X109314865Y-115877200D01*
X109314867Y-115877200D01*
X109413733Y-115877200D01*
X109413735Y-115877200D01*
X109438205Y-115870643D01*
X109508055Y-115872305D01*
X109565918Y-115911466D01*
X109593423Y-115975695D01*
X109594300Y-115990417D01*
X109594300Y-116979832D01*
X109574615Y-117046871D01*
X109557981Y-117067513D01*
X106024956Y-120600537D01*
X105963633Y-120634022D01*
X105893941Y-120629038D01*
X105889830Y-120627420D01*
X105887685Y-120626531D01*
X105883745Y-120624899D01*
X105883738Y-120624897D01*
X105758071Y-120599900D01*
X105758069Y-120599900D01*
X105629931Y-120599900D01*
X105629929Y-120599900D01*
X105504261Y-120624897D01*
X105504255Y-120624899D01*
X105385875Y-120673933D01*
X105385866Y-120673938D01*
X105279331Y-120745123D01*
X105279327Y-120745126D01*
X105188726Y-120835727D01*
X105188723Y-120835731D01*
X105117538Y-120942266D01*
X105117533Y-120942275D01*
X105068499Y-121060655D01*
X105068497Y-121060661D01*
X105043500Y-121186328D01*
X105043500Y-121186331D01*
X105043500Y-121314469D01*
X105043500Y-121314471D01*
X105043499Y-121314471D01*
X105068497Y-121440138D01*
X105068500Y-121440148D01*
X105115803Y-121554348D01*
X105123272Y-121623817D01*
X105091997Y-121686296D01*
X105031907Y-121721948D01*
X105001242Y-121725800D01*
X104947765Y-121725800D01*
X104852262Y-121751390D01*
X104852260Y-121751391D01*
X104852259Y-121751391D01*
X104841009Y-121757887D01*
X104779009Y-121774500D01*
X100693545Y-121774500D01*
X100626506Y-121754815D01*
X100580751Y-121702011D01*
X100578985Y-121697956D01*
X100576466Y-121691875D01*
X100576461Y-121691866D01*
X100505276Y-121585331D01*
X100505273Y-121585327D01*
X100414672Y-121494726D01*
X100414668Y-121494723D01*
X100308133Y-121423538D01*
X100308124Y-121423533D01*
X100189744Y-121374499D01*
X100189738Y-121374497D01*
X100064071Y-121349500D01*
X100064069Y-121349500D01*
X99959400Y-121349500D01*
X99892361Y-121329815D01*
X99846606Y-121277011D01*
X99835400Y-121225500D01*
X99835400Y-120058994D01*
X99855085Y-119991955D01*
X99907889Y-119946200D01*
X99977047Y-119936256D01*
X100021395Y-119951604D01*
X100105062Y-119999910D01*
X100200565Y-120025500D01*
X100200567Y-120025500D01*
X100299432Y-120025500D01*
X100299435Y-120025500D01*
X100394938Y-119999910D01*
X100480562Y-119950475D01*
X100550475Y-119880562D01*
X100599910Y-119794938D01*
X100625500Y-119699435D01*
X100625500Y-119600565D01*
X100599910Y-119505062D01*
X100550475Y-119419438D01*
X100526819Y-119395782D01*
X100512115Y-119368854D01*
X100495523Y-119343036D01*
X100494631Y-119336835D01*
X100493334Y-119334459D01*
X100490500Y-119308101D01*
X100490500Y-119250165D01*
X101179500Y-119250165D01*
X101179500Y-119349035D01*
X101205090Y-119444538D01*
X101254525Y-119530162D01*
X101324438Y-119600075D01*
X101410062Y-119649510D01*
X101505565Y-119675100D01*
X101505567Y-119675100D01*
X101604432Y-119675100D01*
X101604435Y-119675100D01*
X101699938Y-119649510D01*
X101785562Y-119600075D01*
X101855475Y-119530162D01*
X101904910Y-119444538D01*
X101930500Y-119349035D01*
X101930500Y-119332399D01*
X102414500Y-119332399D01*
X102414500Y-119457601D01*
X102446905Y-119578536D01*
X102509505Y-119686964D01*
X102598036Y-119775495D01*
X102706464Y-119838095D01*
X102827399Y-119870500D01*
X102827401Y-119870500D01*
X102952599Y-119870500D01*
X102952601Y-119870500D01*
X103073536Y-119838095D01*
X103181964Y-119775495D01*
X103270495Y-119686964D01*
X103333095Y-119578536D01*
X103351708Y-119509071D01*
X103669499Y-119509071D01*
X103694497Y-119634738D01*
X103694499Y-119634744D01*
X103743533Y-119753124D01*
X103743538Y-119753133D01*
X103814723Y-119859668D01*
X103814726Y-119859672D01*
X103905327Y-119950273D01*
X103905331Y-119950276D01*
X104011866Y-120021461D01*
X104011872Y-120021464D01*
X104011873Y-120021465D01*
X104130256Y-120070501D01*
X104130260Y-120070501D01*
X104130261Y-120070502D01*
X104255928Y-120095500D01*
X104255931Y-120095500D01*
X104384071Y-120095500D01*
X104468615Y-120078682D01*
X104509744Y-120070501D01*
X104628127Y-120021465D01*
X104734669Y-119950276D01*
X104825276Y-119859669D01*
X104896465Y-119753127D01*
X104945501Y-119634744D01*
X104959824Y-119562738D01*
X104970500Y-119509071D01*
X104970500Y-118280928D01*
X104945502Y-118155261D01*
X104945501Y-118155260D01*
X104945501Y-118155256D01*
X104896465Y-118036873D01*
X104896464Y-118036872D01*
X104896461Y-118036866D01*
X104825276Y-117930331D01*
X104825273Y-117930327D01*
X104734672Y-117839726D01*
X104734668Y-117839723D01*
X104628133Y-117768538D01*
X104628124Y-117768533D01*
X104509744Y-117719499D01*
X104509738Y-117719497D01*
X104384071Y-117694500D01*
X104384069Y-117694500D01*
X104255931Y-117694500D01*
X104255929Y-117694500D01*
X104130261Y-117719497D01*
X104130255Y-117719499D01*
X104011875Y-117768533D01*
X104011866Y-117768538D01*
X103905331Y-117839723D01*
X103905327Y-117839726D01*
X103814726Y-117930327D01*
X103814723Y-117930331D01*
X103743538Y-118036866D01*
X103743533Y-118036875D01*
X103694499Y-118155255D01*
X103694497Y-118155261D01*
X103669500Y-118280928D01*
X103669500Y-118280931D01*
X103669500Y-119509069D01*
X103669500Y-119509071D01*
X103669499Y-119509071D01*
X103351708Y-119509071D01*
X103365500Y-119457601D01*
X103365500Y-119332399D01*
X103333095Y-119211464D01*
X103270495Y-119103036D01*
X103181964Y-119014505D01*
X103073536Y-118951905D01*
X103073537Y-118951905D01*
X103033224Y-118941103D01*
X102952601Y-118919500D01*
X102827399Y-118919500D01*
X102746775Y-118941103D01*
X102706463Y-118951905D01*
X102598037Y-119014504D01*
X102598034Y-119014506D01*
X102509506Y-119103034D01*
X102509504Y-119103037D01*
X102446905Y-119211463D01*
X102438364Y-119243339D01*
X102414500Y-119332399D01*
X101930500Y-119332399D01*
X101930500Y-119294366D01*
X101950185Y-119227327D01*
X101966819Y-119206685D01*
X102986347Y-118187158D01*
X104611287Y-116562219D01*
X104672610Y-116528734D01*
X104698968Y-116525900D01*
X107808345Y-116525900D01*
X107875384Y-116545585D01*
X107921139Y-116598389D01*
X107931083Y-116667547D01*
X107902058Y-116731103D01*
X107896026Y-116737581D01*
X107879521Y-116754085D01*
X107826794Y-116845410D01*
X107826793Y-116845413D01*
X107799500Y-116947273D01*
X107799500Y-117052727D01*
X107826793Y-117154587D01*
X107879520Y-117245913D01*
X107954087Y-117320480D01*
X108045413Y-117373207D01*
X108147273Y-117400500D01*
X108147275Y-117400500D01*
X108252725Y-117400500D01*
X108252727Y-117400500D01*
X108354587Y-117373207D01*
X108445913Y-117320480D01*
X108520480Y-117245913D01*
X108573207Y-117154587D01*
X108600500Y-117052727D01*
X108600500Y-116947273D01*
X108573207Y-116845413D01*
X108538831Y-116785873D01*
X108522359Y-116717974D01*
X108545211Y-116651947D01*
X108584217Y-116616489D01*
X108611262Y-116600875D01*
X108681175Y-116530962D01*
X108730610Y-116445338D01*
X108756200Y-116349835D01*
X108756200Y-116250965D01*
X108730610Y-116155462D01*
X108681175Y-116069838D01*
X108611262Y-115999925D01*
X108583870Y-115984110D01*
X108535656Y-115933545D01*
X108522433Y-115864938D01*
X108538484Y-115814728D01*
X108573207Y-115754587D01*
X108600500Y-115652727D01*
X108600500Y-115547273D01*
X108573207Y-115445413D01*
X108520480Y-115354087D01*
X108445913Y-115279520D01*
X108354587Y-115226793D01*
X108252727Y-115199500D01*
X108147273Y-115199500D01*
X108045413Y-115226793D01*
X108045410Y-115226794D01*
X107954085Y-115279521D01*
X107879521Y-115354085D01*
X107826794Y-115445410D01*
X107826793Y-115445413D01*
X107799500Y-115547273D01*
X107799500Y-115652727D01*
X107825716Y-115750565D01*
X107826793Y-115754586D01*
X107826794Y-115754589D01*
X107828743Y-115757964D01*
X107873939Y-115836247D01*
X107879521Y-115845914D01*
X107896826Y-115863219D01*
X107930311Y-115924542D01*
X107925327Y-115994234D01*
X107883455Y-116050167D01*
X107817991Y-116074584D01*
X107809145Y-116074900D01*
X104599054Y-116074900D01*
X104509345Y-116074900D01*
X104509343Y-116074900D01*
X104509341Y-116074901D01*
X104426466Y-116109227D01*
X104426464Y-116109229D01*
X101647913Y-118887781D01*
X101586590Y-118921266D01*
X101560232Y-118924100D01*
X101505565Y-118924100D01*
X101410062Y-118949690D01*
X101410060Y-118949691D01*
X101410059Y-118949691D01*
X101324436Y-118999126D01*
X101254526Y-119069036D01*
X101205091Y-119154659D01*
X101205091Y-119154660D01*
X101205090Y-119154662D01*
X101179500Y-119250165D01*
X100490500Y-119250165D01*
X100490500Y-116567507D01*
X100510185Y-116500468D01*
X100562989Y-116454713D01*
X100597489Y-116444680D01*
X103191302Y-116085536D01*
X103260407Y-116095840D01*
X103270302Y-116100974D01*
X103355062Y-116149910D01*
X103450565Y-116175500D01*
X103450567Y-116175500D01*
X103549432Y-116175500D01*
X103549435Y-116175500D01*
X103644938Y-116149910D01*
X103730562Y-116100475D01*
X103800475Y-116030562D01*
X103849910Y-115944938D01*
X103875500Y-115849435D01*
X103875500Y-115750565D01*
X103849910Y-115655062D01*
X103800475Y-115569438D01*
X103730562Y-115499525D01*
X103644938Y-115450090D01*
X103549435Y-115424500D01*
X103450565Y-115424500D01*
X103355062Y-115450090D01*
X103355060Y-115450091D01*
X103355059Y-115450091D01*
X103269436Y-115499526D01*
X103194867Y-115574094D01*
X103133544Y-115607579D01*
X103124194Y-115609240D01*
X100241894Y-116008328D01*
X100224887Y-116009500D01*
X100202161Y-116009500D01*
X100202155Y-116009501D01*
X100201139Y-116009922D01*
X100170720Y-116018182D01*
X100169630Y-116018332D01*
X100169628Y-116018333D01*
X100150018Y-116029830D01*
X100134764Y-116037416D01*
X100113768Y-116046113D01*
X100112993Y-116046889D01*
X100088039Y-116066170D01*
X100087090Y-116066726D01*
X100073373Y-116084851D01*
X100062183Y-116097698D01*
X100046115Y-116113766D01*
X100046113Y-116113770D01*
X100045692Y-116114787D01*
X100030023Y-116142136D01*
X100029357Y-116143015D01*
X100029354Y-116143021D01*
X100023620Y-116165010D01*
X100018198Y-116181160D01*
X100010248Y-116200358D01*
X100009500Y-116202163D01*
X100009500Y-116203253D01*
X100005487Y-116234543D01*
X100005211Y-116235597D01*
X100005211Y-116235598D01*
X100008328Y-116258103D01*
X100009500Y-116275110D01*
X100009500Y-119308101D01*
X99989815Y-119375140D01*
X99973181Y-119395782D01*
X99949525Y-119419437D01*
X99942409Y-119431762D01*
X99891840Y-119479975D01*
X99823232Y-119493195D01*
X99758369Y-119467224D01*
X99747344Y-119457438D01*
X99730571Y-119440665D01*
X99730564Y-119440659D01*
X95820472Y-115530567D01*
X95788379Y-115474981D01*
X95772110Y-115414262D01*
X95722675Y-115328638D01*
X95659318Y-115265281D01*
X95625833Y-115203958D01*
X95630817Y-115134266D01*
X95672689Y-115078333D01*
X95738153Y-115053916D01*
X95746999Y-115053600D01*
X100223503Y-115053600D01*
X100223511Y-115053601D01*
X100237945Y-115053601D01*
X100327654Y-115053601D01*
X100327655Y-115053601D01*
X100391145Y-115027302D01*
X100410536Y-115019270D01*
X100473970Y-114955836D01*
X100473970Y-114955835D01*
X100491408Y-114938397D01*
X100491410Y-114938394D01*
X103207085Y-112222719D01*
X103268408Y-112189234D01*
X103294766Y-112186400D01*
X103349432Y-112186400D01*
X103349435Y-112186400D01*
X103444938Y-112160810D01*
X103530562Y-112111375D01*
X103556373Y-112085564D01*
X103569220Y-112072718D01*
X103630543Y-112039233D01*
X103656900Y-112036400D01*
X108563633Y-112036400D01*
X108630672Y-112056085D01*
G37*
%TD.AperFunction*%
%TA.AperFunction,Conductor*%
G36*
X110179503Y-113601354D02*
G01*
X110185981Y-113607386D01*
X110971873Y-114393278D01*
X111005358Y-114454601D01*
X111000374Y-114524293D01*
X110998756Y-114528405D01*
X110997491Y-114531457D01*
X110988160Y-114566281D01*
X110971900Y-114626965D01*
X110971900Y-114725835D01*
X110997490Y-114821338D01*
X111046925Y-114906962D01*
X111116838Y-114976875D01*
X111202462Y-115026310D01*
X111297965Y-115051900D01*
X111297967Y-115051900D01*
X111396832Y-115051900D01*
X111396835Y-115051900D01*
X111492338Y-115026310D01*
X111577962Y-114976875D01*
X111577963Y-114976873D01*
X111585000Y-114972811D01*
X111586163Y-114974827D01*
X111640175Y-114953943D01*
X111708621Y-114967977D01*
X111758613Y-115016787D01*
X111774500Y-115077512D01*
X111774500Y-115480500D01*
X111754815Y-115547539D01*
X111702011Y-115593294D01*
X111650501Y-115604500D01*
X111518482Y-115604500D01*
X111437519Y-115617323D01*
X111424696Y-115619354D01*
X111311658Y-115676950D01*
X111311657Y-115676951D01*
X111311652Y-115676954D01*
X111221954Y-115766652D01*
X111221951Y-115766657D01*
X111221950Y-115766658D01*
X111208690Y-115792683D01*
X111164352Y-115879698D01*
X111149500Y-115973475D01*
X111149500Y-116586517D01*
X111164355Y-116680312D01*
X111167089Y-116688726D01*
X111169080Y-116758567D01*
X111132997Y-116818398D01*
X111114256Y-116832574D01*
X111081655Y-116852683D01*
X110957684Y-116976654D01*
X110861851Y-117132025D01*
X110859731Y-117130717D01*
X110821292Y-117174336D01*
X110754090Y-117193458D01*
X110687218Y-117173212D01*
X110667448Y-117157143D01*
X110554619Y-117044314D01*
X110521134Y-116982991D01*
X110518300Y-116956633D01*
X110518300Y-114635146D01*
X110518298Y-114635141D01*
X110516078Y-114629782D01*
X110502722Y-114597536D01*
X110483972Y-114552266D01*
X110413471Y-114481765D01*
X110413464Y-114481759D01*
X110010619Y-114078914D01*
X109977134Y-114017591D01*
X109974300Y-113991233D01*
X109974300Y-113695067D01*
X109993985Y-113628028D01*
X110046789Y-113582273D01*
X110115947Y-113572329D01*
X110179503Y-113601354D01*
G37*
%TD.AperFunction*%
%TA.AperFunction,Conductor*%
G36*
X105356339Y-105582685D02*
G01*
X105376980Y-105599318D01*
X105402786Y-105625123D01*
X105415638Y-105637975D01*
X105501262Y-105687410D01*
X105589657Y-105711095D01*
X105649316Y-105747459D01*
X105679845Y-105810305D01*
X105671551Y-105879681D01*
X105645243Y-105918550D01*
X105412765Y-106151029D01*
X105349329Y-106214464D01*
X105339274Y-106238737D01*
X105339274Y-106238739D01*
X105334806Y-106249526D01*
X105314999Y-106297343D01*
X105314999Y-106401488D01*
X105315000Y-106401497D01*
X105315000Y-106712132D01*
X105295315Y-106779171D01*
X105278681Y-106799813D01*
X104134514Y-107943979D01*
X104073191Y-107977464D01*
X104014741Y-107976073D01*
X103959235Y-107961200D01*
X103860365Y-107961200D01*
X103764862Y-107986790D01*
X103764860Y-107986791D01*
X103764859Y-107986791D01*
X103679236Y-108036226D01*
X103609326Y-108106136D01*
X103569135Y-108175747D01*
X103518567Y-108223962D01*
X103449960Y-108237183D01*
X103441893Y-108235999D01*
X103440755Y-108235999D01*
X103351045Y-108235999D01*
X103336611Y-108235999D01*
X103336603Y-108236000D01*
X99184979Y-108236000D01*
X99117940Y-108216315D01*
X99072185Y-108163511D01*
X99062241Y-108094353D01*
X99065204Y-108079908D01*
X99075594Y-108041129D01*
X99075700Y-108040735D01*
X99075700Y-107941865D01*
X99070315Y-107921768D01*
X99071976Y-107851923D01*
X99102406Y-107801997D01*
X100063839Y-106840565D01*
X103519500Y-106840565D01*
X103519500Y-106939435D01*
X103545090Y-107034938D01*
X103594525Y-107120562D01*
X103664438Y-107190475D01*
X103750062Y-107239910D01*
X103845565Y-107265500D01*
X103845567Y-107265500D01*
X103944432Y-107265500D01*
X103944435Y-107265500D01*
X104039938Y-107239910D01*
X104125562Y-107190475D01*
X104195475Y-107120562D01*
X104244910Y-107034938D01*
X104270500Y-106939435D01*
X104270500Y-106930036D01*
X104290185Y-106862997D01*
X104342989Y-106817242D01*
X104412147Y-106807298D01*
X104415780Y-106808043D01*
X104420763Y-106808699D01*
X104420765Y-106808700D01*
X104420767Y-106808700D01*
X104519632Y-106808700D01*
X104519635Y-106808700D01*
X104615138Y-106783110D01*
X104700762Y-106733675D01*
X104770675Y-106663762D01*
X104820110Y-106578138D01*
X104845700Y-106482635D01*
X104845700Y-106383765D01*
X104820110Y-106288262D01*
X104770675Y-106202638D01*
X104700762Y-106132725D01*
X104615138Y-106083290D01*
X104519635Y-106057700D01*
X104420765Y-106057700D01*
X104325262Y-106083290D01*
X104325260Y-106083291D01*
X104325259Y-106083291D01*
X104239636Y-106132726D01*
X104169726Y-106202636D01*
X104120291Y-106288259D01*
X104120291Y-106288260D01*
X104120290Y-106288262D01*
X104094700Y-106383765D01*
X104094700Y-106383767D01*
X104094700Y-106393163D01*
X104075015Y-106460202D01*
X104022211Y-106505957D01*
X103953053Y-106515901D01*
X103949419Y-106515156D01*
X103944436Y-106514500D01*
X103944435Y-106514500D01*
X103845565Y-106514500D01*
X103750062Y-106540090D01*
X103750060Y-106540091D01*
X103750059Y-106540091D01*
X103664436Y-106589526D01*
X103594526Y-106659436D01*
X103545091Y-106745059D01*
X103545091Y-106745060D01*
X103545090Y-106745062D01*
X103519500Y-106840565D01*
X100063839Y-106840565D01*
X100597695Y-106306709D01*
X100659016Y-106273226D01*
X100728708Y-106278210D01*
X100784641Y-106320082D01*
X100792759Y-106332389D01*
X100799098Y-106343367D01*
X100803425Y-106350862D01*
X100873338Y-106420775D01*
X100958962Y-106470210D01*
X101054465Y-106495800D01*
X101054467Y-106495800D01*
X101153332Y-106495800D01*
X101153335Y-106495800D01*
X101248838Y-106470210D01*
X101334462Y-106420775D01*
X101404375Y-106350862D01*
X101453810Y-106265238D01*
X101479400Y-106169735D01*
X101479400Y-106070865D01*
X101453810Y-105975362D01*
X101404375Y-105889738D01*
X101334462Y-105819825D01*
X101315990Y-105809160D01*
X101267776Y-105758595D01*
X101254553Y-105689988D01*
X101280521Y-105625123D01*
X101290308Y-105614097D01*
X101305090Y-105599316D01*
X101366414Y-105565833D01*
X101392768Y-105563000D01*
X105289300Y-105563000D01*
X105356339Y-105582685D01*
G37*
%TD.AperFunction*%
%TD*%
M02*
