M48
; DRILL file KiCad 10.0.6 date 2026-09-03T13:38:04
; FORMAT={-:-/ absolute / metric / decimal}
; #@! TF.CreationDate,2026-09-03T13:38:04+08:00
; #@! TF.GenerationSoftware,Kicad,Pcbnew,10.0.6
; #@! TF.FileFunction,Plated,1,4,PTH
FMAT,2
METRIC
; #@! TA.AperFunction,Plated,PTH,ViaDrill
T1C0.200
; #@! TA.AperFunction,Plated,PTH,ComponentDrill
T2C0.200
; #@! TA.AperFunction,Plated,PTH,ViaDrill
T3C0.250
; #@! TA.AperFunction,Plated,PTH,ComponentDrill
T4C0.600
%
G90
G05
T1
X78.969Y-95.618
X78.988Y-98.78
X79.012Y-97.51
X79.165Y-96.565
X79.247Y-93.538
X79.485Y-92.166
X79.6Y-105.13
X79.6Y-106.4
X81.096Y-87.621
X81.513Y-91.757
X81.573Y-110.375
X82.013Y-105.486
X82.154Y-89.32
X82.799Y-100.603
X83.681Y-100.143
X83.871Y-82.72
X84.423Y-94.641
X85.172Y-114.828
X85.339Y-106.525
X87.478Y-113.414
X87.848Y-114.144
X88.505Y-108.798
X89.184Y-112.991
X89.775Y-106.514
X89.877Y-119.053
X90.186Y-93.886
X92.109Y-90.212
X92.169Y-104.586
X92.315Y-108.781
X92.388Y-85.862
X92.388Y-109.787
X92.525Y-81.513
X93.033Y-104.878
X93.21Y-96.833
X93.664Y-91.16
X93.694Y-106.509
X93.98Y-100.503
X94.169Y-99.855
X94.29Y-120.333
X95.422Y-115.559
X96.631Y-103.291
X96.632Y-92.816
X96.741Y-101.418
X96.754Y-88.265
X97.179Y-95.884
X97.188Y-111.353
X97.262Y-99.565
X97.39Y-80.0
X97.528Y-105.816
X98.167Y-103.91
X98.203Y-89.513
X98.41Y-86.992
X98.603Y-97.491
X98.65Y-79.7
X98.679Y-108.994
X98.7Y-107.991
X98.75Y-119.418
X98.757Y-96.0
X98.838Y-102.45
X99.1Y-111.803
X99.256Y-106.393
X99.279Y-101.998
X99.625Y-94.145
X99.665Y-105.879
X99.668Y-110.629
X100.078Y-96.165
X100.25Y-119.65
X100.531Y-111.81
X100.564Y-89.719
X100.6Y-109.023
X100.661Y-80.533
X100.747Y-77.503
X100.827Y-82.865
X101.104Y-106.12
X101.176Y-87.316
X101.368Y-98.25
X101.43Y-111.131
X101.555Y-119.3
X101.557Y-101.415
X101.569Y-97.146
X101.652Y-94.602
X101.852Y-106.053
X102.05Y-111.826
X102.324Y-89.237
X102.66Y-120.512
X103.06Y-110.766
X103.171Y-93.67
X103.171Y-104.161
X103.262Y-101.084
X103.3Y-111.811
X103.5Y-115.8
X103.572Y-110.427
X103.626Y-97.742
X103.781Y-104.005
X103.79Y-103.0
X103.895Y-106.89
X103.91Y-108.337
X104.014Y-109.018
X104.468Y-98.78
X104.47Y-106.433
X104.532Y-107.226
X104.997Y-122.101
X105.016Y-92.818
X105.079Y-114.47
X105.438Y-92.388
X105.646Y-105.337
X105.808Y-109.911
X105.856Y-112.505
X105.955Y-82.82
X106.187Y-108.471
X106.294Y-106.554
X106.645Y-104.316
X106.764Y-77.808
X106.913Y-109.789
X106.966Y-99.4
X107.0Y-120.7
X107.568Y-79.303
X107.801Y-108.868
X108.34Y-107.311
X108.381Y-116.3
X108.484Y-110.453
X108.726Y-101.811
X108.8Y-106.9
X108.952Y-79.685
X108.972Y-77.486
X109.088Y-120.774
X109.108Y-104.228
X109.132Y-105.44
X109.158Y-85.377
X109.218Y-111.399
X109.257Y-113.858
X109.337Y-109.556
X109.364Y-115.502
X109.465Y-82.831
X109.544Y-96.858
X109.77Y-122.763
X109.96Y-102.432
X110.166Y-109.104
X110.175Y-106.9
X110.26Y-114.001
X110.297Y-117.747
X110.537Y-93.9
X110.575Y-111.05
X110.829Y-101.991
X110.921Y-117.729
X110.975Y-104.039
X111.011Y-80.07
X111.014Y-120.049
X111.347Y-114.676
X112.084Y-108.804
X112.097Y-109.618
X112.122Y-107.931
X112.291Y-104.063
X112.421Y-84.5
X112.43Y-86.388
X112.437Y-83.243
X112.483Y-114.91
X112.71Y-119.499
X112.85Y-107.35
X112.891Y-81.15
X113.0Y-110.75
X113.151Y-113.604
X113.176Y-114.892
X113.366Y-102.999
X114.075Y-106.297
X114.132Y-105.002
X114.203Y-111.237
X114.651Y-118.668
X114.758Y-104.847
X115.456Y-86.132
X115.717Y-107.039
X115.72Y-105.851
X117.435Y-96.392
X118.047Y-101.787
X118.487Y-85.862
X118.825Y-106.55
X118.835Y-102.847
X120.35Y-110.75
X122.194Y-92.619
T2
X83.7Y-96.91
X83.7Y-98.31
X84.4Y-96.21
X84.4Y-97.61
X84.4Y-99.01
X85.1Y-96.91
X85.1Y-98.31
X85.8Y-96.21
X85.8Y-97.61
X85.8Y-99.01
X86.5Y-96.91
X86.5Y-98.31
T3
X108.2Y-115.6
X108.2Y-117.0
X108.5Y-113.45
X112.15Y-113.45
X117.0Y-106.95
X117.2Y-115.0
X119.13Y-100.65
X119.2Y-106.95
X119.5Y-115.0
X120.3Y-101.05
X123.0Y-99.35
T4
X95.68Y-118.345G85X95.68Y-119.445
G05
X95.68Y-122.775G85X95.68Y-123.375
G05
X104.32Y-118.345G85X104.32Y-119.445
G05
X104.32Y-122.775G85X104.32Y-123.375
G05
M30
