%TF.GenerationSoftware,KiCad,Pcbnew,10.0.6*%
%TF.CreationDate,2026-09-03T13:38:04+08:00*%
%TF.ProjectId,moto-gps-rev-a,6d6f746f-2d67-4707-932d-7265762d612e,rev?*%
%TF.SameCoordinates,Original*%
%TF.FileFunction,Legend,Bot*%
%TF.FilePolarity,Positive*%
%FSLAX46Y46*%
G04 Gerber Fmt 4.6, Leading zero omitted, Abs format (unit mm)*
G04 Created by KiCad (PCBNEW 10.0.6) date 2026-09-03 13:38:04*
%MOMM*%
%LPD*%
G01*
G04 APERTURE LIST*
%ADD10C,0.120000*%
G04 APERTURE END LIST*
D10*
X110354286Y-116149702D02*
X110114286Y-116149702D01*
X110011429Y-116526845D02*
X110354286Y-116526845D01*
X110354286Y-116526845D02*
X110354286Y-115806845D01*
X110354286Y-115806845D02*
X110011429Y-115806845D01*
X109702857Y-116526845D02*
X109702857Y-115806845D01*
X109702857Y-115806845D02*
X109291428Y-116526845D01*
X109291428Y-116526845D02*
X109291428Y-115806845D01*
X108571428Y-115841131D02*
X108640000Y-115806845D01*
X108640000Y-115806845D02*
X108742857Y-115806845D01*
X108742857Y-115806845D02*
X108845714Y-115841131D01*
X108845714Y-115841131D02*
X108914285Y-115909702D01*
X108914285Y-115909702D02*
X108948571Y-115978274D01*
X108948571Y-115978274D02*
X108982857Y-116115417D01*
X108982857Y-116115417D02*
X108982857Y-116218274D01*
X108982857Y-116218274D02*
X108948571Y-116355417D01*
X108948571Y-116355417D02*
X108914285Y-116423988D01*
X108914285Y-116423988D02*
X108845714Y-116492560D01*
X108845714Y-116492560D02*
X108742857Y-116526845D01*
X108742857Y-116526845D02*
X108674285Y-116526845D01*
X108674285Y-116526845D02*
X108571428Y-116492560D01*
X108571428Y-116492560D02*
X108537142Y-116458274D01*
X108537142Y-116458274D02*
X108537142Y-116218274D01*
X108537142Y-116218274D02*
X108674285Y-116218274D01*
X108228571Y-116526845D02*
X108228571Y-115806845D01*
X107885714Y-116526845D02*
X107885714Y-115806845D01*
X107885714Y-115806845D02*
X107474285Y-116526845D01*
X107474285Y-116526845D02*
X107474285Y-115806845D01*
X107131428Y-116149702D02*
X106891428Y-116149702D01*
X106788571Y-116526845D02*
X107131428Y-116526845D01*
X107131428Y-116526845D02*
X107131428Y-115806845D01*
X107131428Y-115806845D02*
X106788571Y-115806845D01*
X106479999Y-116149702D02*
X106239999Y-116149702D01*
X106137142Y-116526845D02*
X106479999Y-116526845D01*
X106479999Y-116526845D02*
X106479999Y-115806845D01*
X106479999Y-115806845D02*
X106137142Y-115806845D01*
X105417141Y-116526845D02*
X105657141Y-116183988D01*
X105828570Y-116526845D02*
X105828570Y-115806845D01*
X105828570Y-115806845D02*
X105554284Y-115806845D01*
X105554284Y-115806845D02*
X105485713Y-115841131D01*
X105485713Y-115841131D02*
X105451427Y-115875417D01*
X105451427Y-115875417D02*
X105417141Y-115943988D01*
X105417141Y-115943988D02*
X105417141Y-116046845D01*
X105417141Y-116046845D02*
X105451427Y-116115417D01*
X105451427Y-116115417D02*
X105485713Y-116149702D01*
X105485713Y-116149702D02*
X105554284Y-116183988D01*
X105554284Y-116183988D02*
X105828570Y-116183988D01*
X105108570Y-116526845D02*
X105108570Y-115806845D01*
X104765713Y-116526845D02*
X104765713Y-115806845D01*
X104765713Y-115806845D02*
X104354284Y-116526845D01*
X104354284Y-116526845D02*
X104354284Y-115806845D01*
X103634284Y-115841131D02*
X103702856Y-115806845D01*
X103702856Y-115806845D02*
X103805713Y-115806845D01*
X103805713Y-115806845D02*
X103908570Y-115841131D01*
X103908570Y-115841131D02*
X103977141Y-115909702D01*
X103977141Y-115909702D02*
X104011427Y-115978274D01*
X104011427Y-115978274D02*
X104045713Y-116115417D01*
X104045713Y-116115417D02*
X104045713Y-116218274D01*
X104045713Y-116218274D02*
X104011427Y-116355417D01*
X104011427Y-116355417D02*
X103977141Y-116423988D01*
X103977141Y-116423988D02*
X103908570Y-116492560D01*
X103908570Y-116492560D02*
X103805713Y-116526845D01*
X103805713Y-116526845D02*
X103737141Y-116526845D01*
X103737141Y-116526845D02*
X103634284Y-116492560D01*
X103634284Y-116492560D02*
X103599998Y-116458274D01*
X103599998Y-116458274D02*
X103599998Y-116218274D01*
X103599998Y-116218274D02*
X103737141Y-116218274D01*
X102742856Y-116252560D02*
X102194285Y-116252560D01*
X101302856Y-116526845D02*
X101302856Y-115806845D01*
X101302856Y-115806845D02*
X100891427Y-116526845D01*
X100891427Y-116526845D02*
X100891427Y-115806845D01*
X100411427Y-115806845D02*
X100274284Y-115806845D01*
X100274284Y-115806845D02*
X100205713Y-115841131D01*
X100205713Y-115841131D02*
X100137141Y-115909702D01*
X100137141Y-115909702D02*
X100102856Y-116046845D01*
X100102856Y-116046845D02*
X100102856Y-116286845D01*
X100102856Y-116286845D02*
X100137141Y-116423988D01*
X100137141Y-116423988D02*
X100205713Y-116492560D01*
X100205713Y-116492560D02*
X100274284Y-116526845D01*
X100274284Y-116526845D02*
X100411427Y-116526845D01*
X100411427Y-116526845D02*
X100479999Y-116492560D01*
X100479999Y-116492560D02*
X100548570Y-116423988D01*
X100548570Y-116423988D02*
X100582856Y-116286845D01*
X100582856Y-116286845D02*
X100582856Y-116046845D01*
X100582856Y-116046845D02*
X100548570Y-115909702D01*
X100548570Y-115909702D02*
X100479999Y-115841131D01*
X100479999Y-115841131D02*
X100411427Y-115806845D01*
X99897141Y-115806845D02*
X99485713Y-115806845D01*
X99691427Y-116526845D02*
X99691427Y-115806845D01*
X98457142Y-116149702D02*
X98697142Y-116149702D01*
X98697142Y-116526845D02*
X98697142Y-115806845D01*
X98697142Y-115806845D02*
X98354285Y-115806845D01*
X97942856Y-115806845D02*
X97805713Y-115806845D01*
X97805713Y-115806845D02*
X97737142Y-115841131D01*
X97737142Y-115841131D02*
X97668570Y-115909702D01*
X97668570Y-115909702D02*
X97634285Y-116046845D01*
X97634285Y-116046845D02*
X97634285Y-116286845D01*
X97634285Y-116286845D02*
X97668570Y-116423988D01*
X97668570Y-116423988D02*
X97737142Y-116492560D01*
X97737142Y-116492560D02*
X97805713Y-116526845D01*
X97805713Y-116526845D02*
X97942856Y-116526845D01*
X97942856Y-116526845D02*
X98011428Y-116492560D01*
X98011428Y-116492560D02*
X98079999Y-116423988D01*
X98079999Y-116423988D02*
X98114285Y-116286845D01*
X98114285Y-116286845D02*
X98114285Y-116046845D01*
X98114285Y-116046845D02*
X98079999Y-115909702D01*
X98079999Y-115909702D02*
X98011428Y-115841131D01*
X98011428Y-115841131D02*
X97942856Y-115806845D01*
X96914284Y-116526845D02*
X97154284Y-116183988D01*
X97325713Y-116526845D02*
X97325713Y-115806845D01*
X97325713Y-115806845D02*
X97051427Y-115806845D01*
X97051427Y-115806845D02*
X96982856Y-115841131D01*
X96982856Y-115841131D02*
X96948570Y-115875417D01*
X96948570Y-115875417D02*
X96914284Y-115943988D01*
X96914284Y-115943988D02*
X96914284Y-116046845D01*
X96914284Y-116046845D02*
X96948570Y-116115417D01*
X96948570Y-116115417D02*
X96982856Y-116149702D01*
X96982856Y-116149702D02*
X97051427Y-116183988D01*
X97051427Y-116183988D02*
X97325713Y-116183988D01*
X95817142Y-116149702D02*
X96057142Y-116149702D01*
X96057142Y-116526845D02*
X96057142Y-115806845D01*
X96057142Y-115806845D02*
X95714285Y-115806845D01*
X95474285Y-116321131D02*
X95131428Y-116321131D01*
X95542856Y-116526845D02*
X95302856Y-115806845D01*
X95302856Y-115806845D02*
X95062856Y-116526845D01*
X94582856Y-116149702D02*
X94479999Y-116183988D01*
X94479999Y-116183988D02*
X94445713Y-116218274D01*
X94445713Y-116218274D02*
X94411427Y-116286845D01*
X94411427Y-116286845D02*
X94411427Y-116389702D01*
X94411427Y-116389702D02*
X94445713Y-116458274D01*
X94445713Y-116458274D02*
X94479999Y-116492560D01*
X94479999Y-116492560D02*
X94548570Y-116526845D01*
X94548570Y-116526845D02*
X94822856Y-116526845D01*
X94822856Y-116526845D02*
X94822856Y-115806845D01*
X94822856Y-115806845D02*
X94582856Y-115806845D01*
X94582856Y-115806845D02*
X94514285Y-115841131D01*
X94514285Y-115841131D02*
X94479999Y-115875417D01*
X94479999Y-115875417D02*
X94445713Y-115943988D01*
X94445713Y-115943988D02*
X94445713Y-116012560D01*
X94445713Y-116012560D02*
X94479999Y-116081131D01*
X94479999Y-116081131D02*
X94514285Y-116115417D01*
X94514285Y-116115417D02*
X94582856Y-116149702D01*
X94582856Y-116149702D02*
X94822856Y-116149702D01*
X93691427Y-116526845D02*
X93931427Y-116183988D01*
X94102856Y-116526845D02*
X94102856Y-115806845D01*
X94102856Y-115806845D02*
X93828570Y-115806845D01*
X93828570Y-115806845D02*
X93759999Y-115841131D01*
X93759999Y-115841131D02*
X93725713Y-115875417D01*
X93725713Y-115875417D02*
X93691427Y-115943988D01*
X93691427Y-115943988D02*
X93691427Y-116046845D01*
X93691427Y-116046845D02*
X93725713Y-116115417D01*
X93725713Y-116115417D02*
X93759999Y-116149702D01*
X93759999Y-116149702D02*
X93828570Y-116183988D01*
X93828570Y-116183988D02*
X94102856Y-116183988D01*
X93382856Y-116526845D02*
X93382856Y-115806845D01*
X92628570Y-116458274D02*
X92662856Y-116492560D01*
X92662856Y-116492560D02*
X92765713Y-116526845D01*
X92765713Y-116526845D02*
X92834285Y-116526845D01*
X92834285Y-116526845D02*
X92937142Y-116492560D01*
X92937142Y-116492560D02*
X93005713Y-116423988D01*
X93005713Y-116423988D02*
X93039999Y-116355417D01*
X93039999Y-116355417D02*
X93074285Y-116218274D01*
X93074285Y-116218274D02*
X93074285Y-116115417D01*
X93074285Y-116115417D02*
X93039999Y-115978274D01*
X93039999Y-115978274D02*
X93005713Y-115909702D01*
X93005713Y-115909702D02*
X92937142Y-115841131D01*
X92937142Y-115841131D02*
X92834285Y-115806845D01*
X92834285Y-115806845D02*
X92765713Y-115806845D01*
X92765713Y-115806845D02*
X92662856Y-115841131D01*
X92662856Y-115841131D02*
X92628570Y-115875417D01*
X92354285Y-116321131D02*
X92011428Y-116321131D01*
X92422856Y-116526845D02*
X92182856Y-115806845D01*
X92182856Y-115806845D02*
X91942856Y-116526845D01*
X91805713Y-115806845D02*
X91394285Y-115806845D01*
X91599999Y-116526845D02*
X91599999Y-115806845D01*
X91154285Y-116526845D02*
X91154285Y-115806845D01*
X90674285Y-115806845D02*
X90537142Y-115806845D01*
X90537142Y-115806845D02*
X90468571Y-115841131D01*
X90468571Y-115841131D02*
X90399999Y-115909702D01*
X90399999Y-115909702D02*
X90365714Y-116046845D01*
X90365714Y-116046845D02*
X90365714Y-116286845D01*
X90365714Y-116286845D02*
X90399999Y-116423988D01*
X90399999Y-116423988D02*
X90468571Y-116492560D01*
X90468571Y-116492560D02*
X90537142Y-116526845D01*
X90537142Y-116526845D02*
X90674285Y-116526845D01*
X90674285Y-116526845D02*
X90742857Y-116492560D01*
X90742857Y-116492560D02*
X90811428Y-116423988D01*
X90811428Y-116423988D02*
X90845714Y-116286845D01*
X90845714Y-116286845D02*
X90845714Y-116046845D01*
X90845714Y-116046845D02*
X90811428Y-115909702D01*
X90811428Y-115909702D02*
X90742857Y-115841131D01*
X90742857Y-115841131D02*
X90674285Y-115806845D01*
X90057142Y-116526845D02*
X90057142Y-115806845D01*
X90057142Y-115806845D02*
X89645713Y-116526845D01*
X89645713Y-116526845D02*
X89645713Y-115806845D01*
%TO.C,TP7*%
X85143700Y-115556300D02*
G75*
G02*
X83743700Y-115556300I-700000J0D01*
G01*
X83743700Y-115556300D02*
G75*
G02*
X85143700Y-115556300I700000J0D01*
G01*
%TO.C,TP15*%
X111700000Y-80947400D02*
G75*
G02*
X110300000Y-80947400I-700000J0D01*
G01*
X110300000Y-80947400D02*
G75*
G02*
X111700000Y-80947400I700000J0D01*
G01*
%TO.C,TP8*%
X81647400Y-111000000D02*
G75*
G02*
X80247400Y-111000000I-700000J0D01*
G01*
X80247400Y-111000000D02*
G75*
G02*
X81647400Y-111000000I700000J0D01*
G01*
%TO.C,TP3*%
X106394000Y-121250400D02*
G75*
G02*
X104994000Y-121250400I-700000J0D01*
G01*
X104994000Y-121250400D02*
G75*
G02*
X106394000Y-121250400I700000J0D01*
G01*
%TO.C,TP12*%
X95006000Y-78749600D02*
G75*
G02*
X93606000Y-78749600I-700000J0D01*
G01*
X93606000Y-78749600D02*
G75*
G02*
X95006000Y-78749600I700000J0D01*
G01*
%TO.C,TP4*%
X100700000Y-122000000D02*
G75*
G02*
X99300000Y-122000000I-700000J0D01*
G01*
X99300000Y-122000000D02*
G75*
G02*
X100700000Y-122000000I700000J0D01*
G01*
%TO.C,TP17*%
X121950400Y-94306000D02*
G75*
G02*
X120550400Y-94306000I-700000J0D01*
G01*
X120550400Y-94306000D02*
G75*
G02*
X121950400Y-94306000I700000J0D01*
G01*
%TO.C,SW1*%
X115550000Y-115450000D02*
X112050000Y-115450000D01*
X115550000Y-115450000D02*
X115550000Y-115490000D01*
X116350000Y-115490000D02*
X115550000Y-115490000D01*
%TO.C,TP10*%
X78700000Y-100000000D02*
G75*
G02*
X77300000Y-100000000I-700000J0D01*
G01*
X77300000Y-100000000D02*
G75*
G02*
X78700000Y-100000000I700000J0D01*
G01*
%TO.C,TP6*%
X89700000Y-119052600D02*
G75*
G02*
X88300000Y-119052600I-700000J0D01*
G01*
X88300000Y-119052600D02*
G75*
G02*
X89700000Y-119052600I700000J0D01*
G01*
%TO.C,C7*%
X109692164Y-106040000D02*
X109907836Y-106040000D01*
X109692164Y-106760000D02*
X109907836Y-106760000D01*
%TO.C,TP13*%
X100700000Y-78000000D02*
G75*
G02*
X99300000Y-78000000I-700000J0D01*
G01*
X99300000Y-78000000D02*
G75*
G02*
X100700000Y-78000000I700000J0D01*
G01*
%TO.C,TP2*%
X119752600Y-111000000D02*
G75*
G02*
X118352600Y-111000000I-700000J0D01*
G01*
X118352600Y-111000000D02*
G75*
G02*
X119752600Y-111000000I700000J0D01*
G01*
%TO.C,TP11*%
X79449600Y-94306000D02*
G75*
G02*
X78049600Y-94306000I-700000J0D01*
G01*
X78049600Y-94306000D02*
G75*
G02*
X79449600Y-94306000I700000J0D01*
G01*
%TO.C,TP5*%
X95006000Y-121250400D02*
G75*
G02*
X93606000Y-121250400I-700000J0D01*
G01*
X93606000Y-121250400D02*
G75*
G02*
X95006000Y-121250400I700000J0D01*
G01*
%TO.C,TP1*%
X122700000Y-100000000D02*
G75*
G02*
X121300000Y-100000000I-700000J0D01*
G01*
X121300000Y-100000000D02*
G75*
G02*
X122700000Y-100000000I700000J0D01*
G01*
%TO.C,TP16*%
X116256300Y-84443600D02*
G75*
G02*
X114856300Y-84443600I-700000J0D01*
G01*
X114856300Y-84443600D02*
G75*
G02*
X116256300Y-84443600I700000J0D01*
G01*
%TO.C,TP14*%
X106394000Y-78749600D02*
G75*
G02*
X104994000Y-78749600I-700000J0D01*
G01*
X104994000Y-78749600D02*
G75*
G02*
X106394000Y-78749600I700000J0D01*
G01*
%TO.C,TP9*%
X79449600Y-105694000D02*
G75*
G02*
X78049600Y-105694000I-700000J0D01*
G01*
X78049600Y-105694000D02*
G75*
G02*
X79449600Y-105694000I700000J0D01*
G01*
%TD*%
M02*
