%TF.GenerationSoftware,KiCad,Pcbnew,10.0.6*%
%TF.CreationDate,2026-09-03T13:45:30+08:00*%
%TF.ProjectId,moto-gps-rev-a,6d6f746f-2d67-4707-932d-7265762d612e,rev?*%
%TF.SameCoordinates,Original*%
%TF.FileFunction,Copper,L3,Inr*%
%TF.FilePolarity,Positive*%
%FSLAX46Y46*%
G04 Gerber Fmt 4.6, Leading zero omitted, Abs format (unit mm)*
G04 Created by KiCad (PCBNEW 10.0.6) date 2026-09-03 13:45:30*
%MOMM*%
%LPD*%
G01*
G04 APERTURE LIST*
%TA.AperFunction,ComponentPad*%
%ADD10O,1.000000X2.100000*%
%TD*%
%TA.AperFunction,ComponentPad*%
%ADD11O,1.000000X1.600000*%
%TD*%
%TA.AperFunction,HeatsinkPad*%
%ADD12C,0.450000*%
%TD*%
%TA.AperFunction,ViaPad*%
%ADD13C,0.450000*%
%TD*%
%TA.AperFunction,ViaPad*%
%ADD14C,0.500000*%
%TD*%
%TA.AperFunction,Conductor*%
%ADD15C,0.650000*%
%TD*%
%TA.AperFunction,Conductor*%
%ADD16C,0.150000*%
%TD*%
%TA.AperFunction,Conductor*%
%ADD17C,0.200000*%
%TD*%
%TA.AperFunction,Conductor*%
%ADD18C,0.180000*%
%TD*%
%TA.AperFunction,Conductor*%
%ADD19C,0.600000*%
%TD*%
G04 APERTURE END LIST*
D10*
%TO.N,/USB_SHIELD*%
%TO.C,J1*%
X95680000Y-118895000D03*
D11*
X95680000Y-123075000D03*
D10*
X104320000Y-118895000D03*
D11*
X104320000Y-123075000D03*
%TD*%
D12*
%TO.N,/GND*%
%TO.C,U1*%
X83700000Y-96910000D03*
X83700000Y-98310000D03*
X84400000Y-96210000D03*
X84400000Y-97610000D03*
X84400000Y-99010000D03*
X85100000Y-96910000D03*
X85100000Y-98310000D03*
X85800000Y-96210000D03*
X85800000Y-97610000D03*
X85800000Y-99010000D03*
X86500000Y-96910000D03*
X86500000Y-98310000D03*
%TD*%
D13*
%TO.N,/3V3*%
X110828600Y-101990800D03*
X118835500Y-102847200D03*
X98650000Y-79700000D03*
X111014000Y-120049500D03*
X104997200Y-122101300D03*
X118487500Y-85862500D03*
X101569000Y-97146300D03*
D14*
X117200000Y-115000000D03*
D13*
X97528000Y-105815500D03*
D14*
X119500000Y-115000000D03*
D13*
X97390000Y-80000000D03*
X120350000Y-110750000D03*
X95422200Y-115559200D03*
%TO.N,/GND*%
X106293900Y-106554100D03*
X108952400Y-79685400D03*
X115719700Y-105850600D03*
X110259700Y-114001000D03*
X94290000Y-120333100D03*
X114650900Y-118667800D03*
X81095900Y-87620900D03*
X122193600Y-92618600D03*
D14*
X123000000Y-99350000D03*
D13*
X104532300Y-107226300D03*
D14*
X120300000Y-101050000D03*
D13*
X105856200Y-112505400D03*
X83871300Y-82720000D03*
X109132100Y-105439700D03*
X101852200Y-106053200D03*
X108971700Y-77486200D03*
D14*
X119130000Y-100650000D03*
D13*
X109157700Y-85376600D03*
X102660000Y-120512100D03*
%TO.N,/SYS*%
X105808200Y-109911400D03*
X106645400Y-104315600D03*
X113000000Y-110750000D03*
X110575000Y-111050000D03*
D14*
X108500000Y-113450000D03*
X119200000Y-106950000D03*
D13*
X118825000Y-106550000D03*
D14*
X112150000Y-113450000D03*
X117000000Y-106950000D03*
D13*
%TO.N,/MCU_EN*%
X96753800Y-88265400D03*
X79484900Y-92166500D03*
X82154300Y-89319700D03*
X100563900Y-89719000D03*
%TO.N,/LCD_SIO2_MCU*%
X82798800Y-100603500D03*
X96631400Y-103291200D03*
X79165400Y-96565400D03*
%TO.N,/LCD_SIO2*%
X98679000Y-108994400D03*
X101557400Y-101415300D03*
X98838200Y-102449700D03*
%TO.N,/LCD_SIO3_MCU*%
X103909800Y-108336700D03*
X79012100Y-97510000D03*
%TO.N,/LCD_SIO3*%
X99100000Y-111803300D03*
X99256000Y-106392800D03*
%TO.N,/LCD_TE*%
X97187500Y-111352700D03*
X92387500Y-109787500D03*
%TO.N,/LCD_CLK*%
X98700200Y-107991300D03*
X105646200Y-105337500D03*
%TO.N,/LCD_SIO1*%
X101429800Y-111130900D03*
X103171100Y-104161100D03*
%TO.N,/LCD_SIO0*%
X99667800Y-110628900D03*
X101103900Y-106120300D03*
%TO.N,/LCD_CS_N*%
X99278700Y-101998000D03*
X100530700Y-111810400D03*
%TO.N,/LCD_RESET_N*%
X93979900Y-100503200D03*
X93664100Y-91160000D03*
X103262500Y-101084300D03*
X100600000Y-109022900D03*
%TO.N,/3V3_DISPLAY*%
X103059800Y-110766400D03*
X103790000Y-103000000D03*
X102049800Y-111825600D03*
%TO.N,/I2C_SCL*%
X98757200Y-96000000D03*
X106186600Y-108470800D03*
X88505000Y-108798100D03*
X103625700Y-97742500D03*
X110165600Y-109104000D03*
X98203200Y-89513400D03*
X111347400Y-114676400D03*
X89184000Y-112991000D03*
X87848200Y-114144000D03*
X89877000Y-119052600D03*
X103300000Y-111810900D03*
%TO.N,/I2C_SDA*%
X103571900Y-110427400D03*
X112482900Y-114910200D03*
X85171900Y-114828100D03*
X98410000Y-86992400D03*
X100077700Y-96165500D03*
X78988000Y-98780000D03*
X112083700Y-108804300D03*
%TO.N,/TP_RESET_N*%
X103895000Y-106890000D03*
X96632300Y-92815900D03*
%TO.N,/TP_INT_N*%
X104014200Y-109017600D03*
X85338700Y-106525500D03*
%TO.N,/GNSS_3V0*%
X112891500Y-81150500D03*
X109544300Y-96858100D03*
X112430300Y-86387800D03*
D14*
%TO.N,/USB_SHIELD*%
X107000000Y-120700000D03*
D13*
%TO.N,/USB_VBUS*%
X109087700Y-120774500D03*
X108340300Y-107311500D03*
X112291000Y-104062600D03*
%TO.N,/BQ_CE_N*%
X108726300Y-101811500D03*
X110975000Y-104039400D03*
%TO.N,/BQ_TS_BIAS*%
X108483700Y-110452500D03*
X114757900Y-104847200D03*
%TO.N,/BAT_TS*%
X113151300Y-113603900D03*
X114131900Y-105002500D03*
X109336500Y-109555800D03*
X87478400Y-113413600D03*
X114075000Y-106297500D03*
%TO.N,/BAT*%
X109256700Y-113857900D03*
X113175700Y-114891600D03*
%TO.N,/USB_D_P_MCU*%
X79600000Y-106400000D03*
D14*
X108200000Y-117000000D03*
D13*
%TO.N,/USB_CC1*%
X109364300Y-115501700D03*
X98750000Y-119417800D03*
%TO.N,/USB_D_N_CONN*%
X103500000Y-115800000D03*
X100250000Y-119650000D03*
%TO.N,/USB_CC2*%
X101555000Y-119299600D03*
X108380700Y-116300400D03*
%TO.N,/3V3_PG_N*%
X118047000Y-101786700D03*
X115716900Y-107038900D03*
%TO.N,/GNSS_TX_3V0*%
X105016400Y-92818100D03*
X111011200Y-80070200D03*
%TO.N,/GNSS_RX_3V0*%
X107568200Y-79302700D03*
X105437500Y-92387500D03*
%TO.N,/GNSS_PPS_3V0*%
X110537500Y-93900000D03*
X112421200Y-84500000D03*
%TO.N,/GNSS_RESET_N_1V8*%
X101176100Y-87316000D03*
X106966000Y-99400000D03*
X100747300Y-77502700D03*
%TO.N,/GNSS_ANT_ON*%
X117434800Y-96392500D03*
%TO.N,/FUNC_KEY_N*%
X92169500Y-104586200D03*
X101651600Y-94602200D03*
%TO.N,/LCD_CLK_MCU*%
X96740700Y-101417800D03*
X103781100Y-104005000D03*
%TO.N,/TYPEC_INT_N*%
X110920600Y-117729200D03*
X105955000Y-82819900D03*
X105079300Y-114470200D03*
X92315000Y-108780700D03*
%TO.N,/LCD_SIO0_MCU*%
X79247400Y-93537600D03*
X83681500Y-100143100D03*
X99665100Y-105879000D03*
%TO.N,/LCD_SIO1_MCU*%
X104470200Y-106433200D03*
X103170800Y-93669800D03*
X78969300Y-95618200D03*
%TO.N,/GNSS_UART_TX_3V3*%
X81512500Y-91757100D03*
X112437400Y-83242900D03*
%TO.N,/GNSS_UART_RX_3V3*%
X92387500Y-85862500D03*
X109465100Y-82831500D03*
X84423400Y-94640900D03*
D14*
%TO.N,/USB_D_N_MCU*%
X108200000Y-115600000D03*
D13*
X79600000Y-105130000D03*
%TO.N,/LCD_CS_N_MCU*%
X93033400Y-104878000D03*
X98167300Y-103910200D03*
%TO.N,/QMI_INT1*%
X98603100Y-97490800D03*
X89775000Y-106514400D03*
%TO.N,/GNSS_RESET_DRV*%
X102324000Y-89237500D03*
X92109300Y-90212500D03*
X106763600Y-77808300D03*
X93694500Y-106508700D03*
%TO.N,/BOOT_N*%
X92525500Y-81512500D03*
X97179200Y-95884200D03*
X94168800Y-99855300D03*
%TO.N,/QMI_INT2*%
X97261700Y-99564600D03*
X99624900Y-94144600D03*
%TO.N,/CHARGER_INT_N*%
X112097200Y-109617700D03*
X113366400Y-102999300D03*
X104467900Y-98780000D03*
X109960500Y-102432300D03*
X100827300Y-82865000D03*
%TO.N,/GNSS_PPS_3V3*%
X115455600Y-86131900D03*
X101367900Y-98249600D03*
%TO.N,/MAG_DRDY*%
X93210200Y-96832600D03*
X100661100Y-80532900D03*
%TO.N,/UART0_RX*%
X82013000Y-105485600D03*
%TO.N,/UART0_TX*%
X81572600Y-110374800D03*
X90185900Y-93885900D03*
%TO.N,/BQ_ILIM*%
X106913500Y-109789000D03*
X112122200Y-107930700D03*
%TO.N,/BQ_SW*%
X110175000Y-106900000D03*
X112850000Y-107350000D03*
%TO.N,/CHARGER_STAT_N*%
X112710000Y-119499200D03*
X114203300Y-111237000D03*
%TO.N,/TYPEC_VBUS_DET*%
X110297100Y-117747000D03*
X109769600Y-122762800D03*
%TO.N,/CHARGER_PG_N*%
X109107800Y-104228300D03*
X107801000Y-108867700D03*
%TO.N,/BQ_BTST*%
X108800000Y-106900000D03*
%TO.N,/BQ_QON*%
X109217600Y-111399200D03*
%TD*%
%TO.N,/3V3*%
D15*
X119500000Y-115000000D02*
X117200000Y-115000000D01*
D16*
X111014000Y-120049500D02*
X113981900Y-120049500D01*
X118487500Y-85862500D02*
X118487500Y-100988800D01*
X118835500Y-101918200D02*
X118196800Y-101279500D01*
X97528000Y-101187300D02*
X97528000Y-105815500D01*
X116244200Y-117787200D02*
X116244200Y-115955800D01*
X98650000Y-79700000D02*
X97390000Y-80000000D01*
D15*
X120350000Y-113600000D02*
X119500000Y-115000000D01*
D16*
X118835500Y-102847200D02*
X118835500Y-101918200D01*
X118196800Y-101279500D02*
X111539900Y-101279500D01*
D15*
X120350000Y-110750000D02*
X120350000Y-113600000D01*
D16*
X118487500Y-100988800D02*
X118196800Y-101279500D01*
X101569000Y-97146300D02*
X97528000Y-101187300D01*
X116244200Y-115955800D02*
X117200000Y-115000000D01*
X113981900Y-120049500D02*
X116244200Y-117787200D01*
X120350000Y-110750000D02*
X120350000Y-104361700D01*
X120350000Y-104361700D02*
X118835500Y-102847200D01*
X111539900Y-101279500D02*
X110828600Y-101990800D01*
%TO.N,/GND*%
X122193600Y-98543600D02*
X123000000Y-99350000D01*
X84400000Y-99010000D02*
X84400000Y-98310000D01*
X84400000Y-96910000D02*
X84400000Y-96210000D01*
X81095900Y-85495400D02*
X83871300Y-82720000D01*
X84400000Y-98310000D02*
X84400000Y-97610000D01*
X85100000Y-98310000D02*
X85100000Y-97610000D01*
X85800000Y-96210000D02*
X85800000Y-96910000D01*
X83700000Y-98310000D02*
X84400000Y-98310000D01*
X81095900Y-87620900D02*
X81095900Y-85495400D01*
X83700000Y-90225000D02*
X83700000Y-96910000D01*
X85800000Y-96910000D02*
X85800000Y-97610000D01*
X94290000Y-120333100D02*
X97164300Y-120333100D01*
X81095900Y-87620900D02*
X83700000Y-90225000D01*
X122193600Y-92618600D02*
X122193600Y-98543600D01*
X84400000Y-97610000D02*
X85100000Y-97610000D01*
X108971700Y-85190600D02*
X109157700Y-85376600D01*
X100160600Y-118920000D02*
X101752700Y-120512100D01*
X83700000Y-96910000D02*
X84400000Y-96910000D01*
X86500000Y-96910000D02*
X85800000Y-96910000D01*
X85100000Y-97610000D02*
X85100000Y-96910000D01*
X108971700Y-79685400D02*
X108971700Y-85190600D01*
X84400000Y-97610000D02*
X84400000Y-96910000D01*
X97164300Y-120333100D02*
X98577400Y-118920000D01*
X108971700Y-77486200D02*
X108971700Y-79685400D01*
X108971700Y-79685400D02*
X108952400Y-79685400D01*
X101752700Y-120512100D02*
X102660000Y-120512100D01*
X98577400Y-118920000D02*
X100160600Y-118920000D01*
%TO.N,/SYS*%
D15*
X113000000Y-110750000D02*
X115300000Y-110000000D01*
X113000000Y-110750000D02*
X119200000Y-106950000D01*
D16*
X105808200Y-109771000D02*
X106745800Y-108833400D01*
D15*
X113000000Y-110750000D02*
X108500000Y-113450000D01*
D16*
X106745800Y-108833400D02*
X106745800Y-104416000D01*
D15*
X115300000Y-110000000D02*
X118825000Y-106550000D01*
D16*
X105808200Y-109911400D02*
X105808200Y-109771000D01*
X106745800Y-104416000D02*
X106645400Y-104315600D01*
D15*
X113000000Y-110750000D02*
X117000000Y-106950000D01*
X110575000Y-111050000D02*
X113000000Y-110750000D01*
X113000000Y-110750000D02*
X112150000Y-113450000D01*
%TO.N,/MCU_EN*%
D16*
X79484900Y-91989100D02*
X82154300Y-89319700D01*
X79484900Y-92166500D02*
X79484900Y-91989100D01*
%TO.N,/LCD_SIO2_MCU*%
X79165400Y-96565400D02*
X79165400Y-96970100D01*
X79165400Y-96970100D02*
X82798800Y-100603500D01*
%TO.N,/LCD_SIO2*%
X98241700Y-105504700D02*
X98241700Y-108557100D01*
X98241700Y-108557100D02*
X98679000Y-108994400D01*
X98838200Y-102449700D02*
X98838200Y-104908200D01*
X98838200Y-104908200D02*
X98241700Y-105504700D01*
%TO.N,/LCD_SIO3*%
X99100000Y-111803300D02*
X99157400Y-111745900D01*
X99157400Y-106491400D02*
X99256000Y-106392800D01*
X99157400Y-111745900D02*
X99157400Y-106491400D01*
%TO.N,/LCD_SIO1*%
X103171100Y-104161100D02*
X102536900Y-104795300D01*
X102536900Y-104795300D02*
X102536900Y-110023800D01*
X102536900Y-110023800D02*
X101429800Y-111130900D01*
%TO.N,/LCD_SIO0*%
X100914800Y-111555700D02*
X100982400Y-111623300D01*
X100304600Y-112262100D02*
X99667800Y-111625300D01*
X100982400Y-111997500D02*
X100717800Y-112262100D01*
X100982400Y-111623300D02*
X100982400Y-111997500D01*
X99667800Y-111625300D02*
X99667800Y-110628900D01*
X100717800Y-112262100D02*
X100304600Y-112262100D01*
X101103900Y-106120300D02*
X101103900Y-110752300D01*
X100914800Y-110941400D02*
X100914800Y-111555700D01*
X101103900Y-110752300D02*
X100914800Y-110941400D01*
%TO.N,/LCD_CS_N*%
X100119500Y-111399200D02*
X100119500Y-102838800D01*
X100119500Y-102838800D02*
X99278700Y-101998000D01*
X100530700Y-111810400D02*
X100119500Y-111399200D01*
%TO.N,/LCD_RESET_N*%
X93664100Y-100187400D02*
X93979900Y-100503200D01*
X100600000Y-103746800D02*
X103262500Y-101084300D01*
X100600000Y-109022900D02*
X100600000Y-103746800D01*
X93664100Y-91160000D02*
X93664100Y-100187400D01*
%TO.N,/3V3_DISPLAY*%
X103790000Y-103000000D02*
X104246200Y-103456200D01*
X103059800Y-105429800D02*
X103059800Y-110766400D01*
X102049800Y-111825600D02*
X102049800Y-111776400D01*
X104246200Y-104243400D02*
X103059800Y-105429800D01*
X104246200Y-103456200D02*
X104246200Y-104243400D01*
X102049800Y-111776400D02*
X103059800Y-110766400D01*
%TO.N,/I2C_SCL*%
X98757200Y-90067400D02*
X98757200Y-96000000D01*
X103625700Y-97742500D02*
X103884900Y-98001700D01*
X87848200Y-114144000D02*
X87848200Y-117023800D01*
X103300000Y-111780900D02*
X103300000Y-111810900D01*
X88505000Y-112312000D02*
X89184000Y-112991000D01*
X106106900Y-101257800D02*
X106106900Y-106102400D01*
X106127400Y-108530000D02*
X106186600Y-108470800D01*
X105842200Y-106367100D02*
X105842200Y-108428200D01*
X105944000Y-108530000D02*
X106127400Y-108530000D01*
X87848200Y-117023800D02*
X89877000Y-119052600D01*
X103884900Y-99035800D02*
X106106900Y-101257800D01*
X106106900Y-106102400D02*
X105842200Y-106367100D01*
X98203200Y-89513400D02*
X98757200Y-90067400D01*
X105842200Y-108428200D02*
X105944000Y-108530000D01*
X103884900Y-98001700D02*
X103884900Y-99035800D01*
X105944000Y-108530000D02*
X105944000Y-109136900D01*
X105944000Y-109136900D02*
X103300000Y-111780900D01*
X88505000Y-108798100D02*
X88505000Y-112312000D01*
%TO.N,/I2C_SDA*%
X100077700Y-94787600D02*
X100759200Y-94106100D01*
X102368100Y-99225900D02*
X104547900Y-101405700D01*
X104502400Y-109496900D02*
X103571900Y-110427400D01*
X98410000Y-86992400D02*
X98410000Y-88798800D01*
X104547900Y-101405700D02*
X104547900Y-104449500D01*
X85171900Y-114828100D02*
X78827000Y-108483200D01*
X100077700Y-96165500D02*
X100077700Y-94787600D01*
X103395800Y-107183900D02*
X104502400Y-108290500D01*
X98410000Y-88798800D02*
X100759200Y-91148000D01*
X78827000Y-98941000D02*
X78988000Y-98780000D01*
X104547900Y-104449500D02*
X103395800Y-105601600D01*
X102368100Y-94646500D02*
X102368100Y-99225900D01*
X100759200Y-94106100D02*
X101827700Y-94106100D01*
X103395800Y-105601600D02*
X103395800Y-107183900D01*
X78827000Y-108483200D02*
X78827000Y-98941000D01*
X100759200Y-91148000D02*
X100759200Y-94106100D01*
X104502400Y-108290500D02*
X104502400Y-109496900D01*
X101827700Y-94106100D02*
X102368100Y-94646500D01*
%TO.N,/TP_RESET_N*%
X104849600Y-105070000D02*
X103895000Y-106024600D01*
X104849600Y-100854000D02*
X104849600Y-105070000D01*
X97688100Y-87027300D02*
X98226200Y-86489200D01*
X97688100Y-91760100D02*
X97688100Y-87027300D01*
X103895000Y-106024600D02*
X103895000Y-106890000D01*
X96632300Y-92815900D02*
X97688100Y-91760100D01*
X98226200Y-86489200D02*
X98618400Y-86489200D01*
X102705300Y-98709700D02*
X104849600Y-100854000D01*
X99431300Y-89287500D02*
X102705300Y-92561500D01*
X98618400Y-86489200D02*
X99431300Y-87302100D01*
X99431300Y-87302100D02*
X99431300Y-89287500D01*
X102705300Y-92561500D02*
X102705300Y-98709700D01*
%TO.N,/GNSS_3V0*%
X112430300Y-86387800D02*
X112891500Y-85926600D01*
X112430300Y-93972100D02*
X109544300Y-96858100D01*
X112430300Y-86387800D02*
X112430300Y-93972100D01*
X112891500Y-85926600D02*
X112891500Y-81150500D01*
%TO.N,/USB_SHIELD*%
D17*
X107000000Y-120700000D02*
X106400000Y-119700000D01*
X106400000Y-119700000D02*
X104320000Y-118895000D01*
%TO.N,/USB_VBUS*%
D16*
X109362400Y-106985300D02*
X109362400Y-106893900D01*
X109087700Y-120774500D02*
X109087700Y-116368300D01*
X108773100Y-115222600D02*
X107897700Y-114347200D01*
X109087700Y-116368300D02*
X108773100Y-116053700D01*
X112193700Y-104062600D02*
X112291000Y-104062600D01*
X108979200Y-107368500D02*
X109362400Y-106985300D01*
X108340300Y-108967200D02*
X108340300Y-107368500D01*
X108340300Y-107368500D02*
X108979200Y-107368500D01*
X108773100Y-116053700D02*
X108773100Y-115222600D01*
X108340300Y-107368500D02*
X108340300Y-107311500D01*
X107897700Y-109409800D02*
X108340300Y-108967200D01*
X107897700Y-114347200D02*
X107897700Y-109409800D01*
X109362400Y-106893900D02*
X112193700Y-104062600D01*
%TO.N,/BQ_TS_BIAS*%
X112120900Y-110245400D02*
X114757900Y-107608400D01*
X114757900Y-107608400D02*
X114757900Y-104847200D01*
X108483700Y-110452500D02*
X108690800Y-110245400D01*
X108690800Y-110245400D02*
X112120900Y-110245400D01*
%TO.N,/BAT_TS*%
X114075000Y-106297500D02*
X114131900Y-106240600D01*
X114131900Y-106240600D02*
X114131900Y-105002500D01*
%TO.N,/BAT*%
X113175700Y-114891600D02*
X112496800Y-114212700D01*
X111135700Y-114212700D02*
X110845400Y-114503000D01*
X112496800Y-114212700D02*
X111135700Y-114212700D01*
X109901800Y-114503000D02*
X109256700Y-113857900D01*
X110845400Y-114503000D02*
X109901800Y-114503000D01*
%TO.N,/USB_D_P_MCU*%
D18*
X81000000Y-106400000D02*
X79600000Y-106400000D01*
X89000000Y-114100000D02*
X81000000Y-106400000D01*
X108200000Y-117000000D02*
X89000000Y-114100000D01*
%TO.N,/USB_CC1*%
D16*
X109306800Y-121229200D02*
X100561400Y-121229200D01*
X109550700Y-120985300D02*
X109306800Y-121229200D01*
X109550700Y-115688100D02*
X109550700Y-120985300D01*
X109364300Y-115501700D02*
X109550700Y-115688100D01*
X100561400Y-121229200D02*
X98750000Y-119417800D01*
%TO.N,/3V3_PG_N*%
X118047000Y-101786700D02*
X118047000Y-104708800D01*
X118047000Y-104708800D02*
X115716900Y-107038900D01*
%TO.N,/GNSS_TX_3V0*%
X111011200Y-84961200D02*
X106015400Y-89957000D01*
X105639800Y-92847200D02*
X105045500Y-92847200D01*
X106015400Y-89957000D02*
X106015400Y-92471600D01*
X105045500Y-92847200D02*
X105016400Y-92818100D01*
X106015400Y-92471600D02*
X105639800Y-92847200D01*
X111011200Y-80070200D02*
X111011200Y-84961200D01*
%TO.N,/GNSS_RX_3V0*%
X107568200Y-87964200D02*
X105437500Y-90094900D01*
X105437500Y-90094900D02*
X105437500Y-92387500D01*
X107568200Y-79302700D02*
X107568200Y-87964200D01*
%TO.N,/GNSS_PPS_3V0*%
X110537500Y-86383700D02*
X112421200Y-84500000D01*
X110537500Y-93900000D02*
X110537500Y-86383700D01*
%TO.N,/GNSS_RESET_N_1V8*%
X106966000Y-95850700D02*
X101452400Y-90337100D01*
X101279000Y-78034400D02*
X100747300Y-77502700D01*
X101452400Y-87592300D02*
X101176100Y-87316000D01*
X101176100Y-87316000D02*
X101279000Y-87213100D01*
X101279000Y-87213100D02*
X101279000Y-78034400D01*
X106966000Y-99400000D02*
X106966000Y-95850700D01*
X101452400Y-90337100D02*
X101452400Y-87592300D01*
%TO.N,/FUNC_KEY_N*%
X92169500Y-104586200D02*
X96357700Y-100398000D01*
X96357700Y-100398000D02*
X97113800Y-100398000D01*
X97113800Y-100398000D02*
X101651600Y-95860200D01*
X101651600Y-95860200D02*
X101651600Y-94602200D01*
%TO.N,/TYPEC_INT_N*%
X96104800Y-112570500D02*
X103787900Y-112570500D01*
X103787900Y-112570500D02*
X103787900Y-113178800D01*
X101824300Y-90282300D02*
X101824300Y-86950600D01*
X103787900Y-113178800D02*
X105079300Y-114470200D01*
X110376900Y-102178100D02*
X110376900Y-98834900D01*
X106259900Y-109803900D02*
X107047500Y-109016300D01*
X110112500Y-102970200D02*
X110460000Y-102622700D01*
X103787900Y-112570500D02*
X106259900Y-110098500D01*
X101824300Y-86950600D02*
X105955000Y-82819900D01*
X110460000Y-102622700D02*
X110460000Y-102261200D01*
X107047500Y-105126400D02*
X109203700Y-102970200D01*
X110460000Y-102261200D02*
X110376900Y-102178100D01*
X110376900Y-98834900D02*
X101824300Y-90282300D01*
X106259900Y-110098500D02*
X106259900Y-109803900D01*
X92315000Y-108780700D02*
X96104800Y-112570500D01*
X109203700Y-102970200D02*
X110112500Y-102970200D01*
X107047500Y-109016300D02*
X107047500Y-105126400D01*
%TO.N,/LCD_SIO0_MCU*%
X83248300Y-97538500D02*
X79247400Y-93537600D01*
X83248300Y-99709900D02*
X83248300Y-97538500D01*
X83681500Y-100143100D02*
X83248300Y-99709900D01*
%TO.N,/LCD_SIO1_MCU*%
X105194500Y-100772100D02*
X105194500Y-105708900D01*
X105194500Y-105708900D02*
X104470200Y-106433200D01*
X103464700Y-98220200D02*
X103464800Y-98220200D01*
X103464800Y-99042400D02*
X105194500Y-100772100D01*
X103170800Y-97926300D02*
X103464700Y-98220200D01*
X103170800Y-93669800D02*
X103170800Y-97926300D01*
X103464800Y-98220200D02*
X103464800Y-99042400D01*
%TO.N,/GNSS_UART_RX_3V3*%
X92387500Y-85862500D02*
X92387500Y-86676800D01*
X92387500Y-86676800D02*
X84423400Y-94640900D01*
%TO.N,/USB_D_N_MCU*%
D18*
X108200000Y-115600000D02*
X89000000Y-113500000D01*
X89000000Y-113500000D02*
X81000000Y-105130000D01*
X81000000Y-105130000D02*
X79600000Y-105130000D01*
%TO.N,/QMI_INT1*%
D16*
X89775000Y-106318900D02*
X89775000Y-106514400D01*
X98603100Y-97490800D02*
X89775000Y-106318900D01*
%TO.N,/GNSS_RESET_DRV*%
X93694500Y-106508700D02*
X93199600Y-107003600D01*
X89280300Y-96421300D02*
X92109300Y-93592300D01*
X89616900Y-107003600D02*
X89280300Y-106667000D01*
X89280300Y-106667000D02*
X89280300Y-96421300D01*
X106763600Y-84797900D02*
X102324000Y-89237500D01*
X93199600Y-107003600D02*
X89616900Y-107003600D01*
X106763600Y-77808300D02*
X106763600Y-84797900D01*
X92109300Y-93592300D02*
X92109300Y-90212500D01*
%TO.N,/BOOT_N*%
X96926900Y-93764500D02*
X93494900Y-90332500D01*
X93494900Y-82481900D02*
X92525500Y-81512500D01*
X93494900Y-90332500D02*
X93494900Y-82481900D01*
X97179200Y-95884200D02*
X96926900Y-95884200D01*
X94168800Y-98642300D02*
X94168800Y-99855300D01*
X96926900Y-95884200D02*
X94168800Y-98642300D01*
X96926900Y-95884200D02*
X96926900Y-93764500D01*
%TO.N,/QMI_INT2*%
X99624900Y-97201400D02*
X97261700Y-99564600D01*
X99624900Y-94144600D02*
X99624900Y-97201400D01*
%TO.N,/CHARGER_INT_N*%
X101024500Y-88512000D02*
X101024500Y-90335900D01*
X113366400Y-102999300D02*
X113623300Y-103256200D01*
X100724300Y-88211800D02*
X101024500Y-88512000D01*
X113623300Y-103256200D02*
X113623300Y-106484500D01*
X113623300Y-106484500D02*
X113680100Y-106541300D01*
X100724300Y-82968000D02*
X100724300Y-88211800D01*
X104467900Y-93779300D02*
X104467900Y-98780000D01*
X100827300Y-82865000D02*
X100724300Y-82968000D01*
X101024500Y-90335900D02*
X104467900Y-93779300D01*
X104467900Y-98780000D02*
X108120200Y-102432300D01*
X108120200Y-102432300D02*
X109960500Y-102432300D01*
X113680100Y-106541300D02*
X113680100Y-108034800D01*
X113680100Y-108034800D02*
X112097200Y-109617700D01*
%TO.N,/MAG_DRDY*%
X92801200Y-80532900D02*
X100661100Y-80532900D01*
X92052100Y-81282000D02*
X92801200Y-80532900D01*
X93068600Y-96691000D02*
X93068600Y-82805800D01*
X93068600Y-82805800D02*
X92052100Y-81789300D01*
X93210200Y-96832600D02*
X93068600Y-96691000D01*
X92052100Y-81789300D02*
X92052100Y-81282000D01*
%TO.N,/UART0_TX*%
X79142600Y-104929200D02*
X83477000Y-100594800D01*
X83868600Y-100594800D02*
X84133200Y-100330200D01*
X81572600Y-110374800D02*
X79142600Y-107944800D01*
X83477000Y-100594800D02*
X83868600Y-100594800D01*
X84133200Y-100330200D02*
X84133200Y-99938600D01*
X84133200Y-99938600D02*
X90185900Y-93885900D01*
X79142600Y-107944800D02*
X79142600Y-104929200D01*
%TO.N,/BQ_ILIM*%
X112475600Y-103576600D02*
X113321600Y-104422600D01*
X113022700Y-107930700D02*
X112122200Y-107930700D01*
X113321600Y-104422600D02*
X113321600Y-106609500D01*
X109098400Y-103576600D02*
X112475600Y-103576600D01*
X107349200Y-109353300D02*
X107349200Y-105325800D01*
X113321600Y-106609500D02*
X113378400Y-106666300D01*
X113378400Y-106666300D02*
X113378400Y-107575000D01*
X107349200Y-105325800D02*
X109098400Y-103576600D01*
X113378400Y-107575000D02*
X113022700Y-107930700D01*
X106913500Y-109789000D02*
X107349200Y-109353300D01*
%TO.N,/BQ_SW*%
D19*
X110175000Y-106900000D02*
X112850000Y-107350000D01*
%TO.N,/CHARGER_STAT_N*%
D16*
X114203300Y-111237000D02*
X114203300Y-114669000D01*
X112710000Y-116162300D02*
X112710000Y-119499200D01*
X114203300Y-114669000D02*
X112710000Y-116162300D01*
%TO.N,/TYPEC_VBUS_DET*%
X110297100Y-122235300D02*
X110297100Y-117747000D01*
X109769600Y-122762800D02*
X110297100Y-122235300D01*
%TO.N,/CHARGER_PG_N*%
X107801000Y-108867700D02*
X107801000Y-105535100D01*
X107801000Y-105535100D02*
X109107800Y-104228300D01*
%TD*%
M02*
