%TF.GenerationSoftware,KiCad,Pcbnew,10.0.6*%
%TF.CreationDate,2026-09-03T13:45:30+08:00*%
%TF.ProjectId,moto-gps-rev-a,6d6f746f-2d67-4707-932d-7265762d612e,rev?*%
%TF.SameCoordinates,Original*%
%TF.FileFunction,Profile,NP*%
%FSLAX46Y46*%
G04 Gerber Fmt 4.6, Leading zero omitted, Abs format (unit mm)*
G04 Created by KiCad (PCBNEW 10.0.6) date 2026-09-03 13:45:30*
%MOMM*%
%LPD*%
G01*
G04 APERTURE LIST*
%TA.AperFunction,Profile*%
%ADD10C,0.050000*%
%TD*%
G04 APERTURE END LIST*
D10*
X74000000Y-100000000D02*
X74003959Y-99546237D01*
X74003959Y-99546237D02*
X74015838Y-99092613D01*
X74003959Y-100453762D02*
X74000000Y-100000000D01*
X74015838Y-99092613D02*
X74035632Y-98639265D01*
X74015838Y-100907386D02*
X74003959Y-100453762D01*
X74035632Y-98639265D02*
X74063334Y-98186331D01*
X74035632Y-101360734D02*
X74015838Y-100907386D01*
X74063334Y-98186331D02*
X74098937Y-97733950D01*
X74063334Y-101813668D02*
X74035632Y-101360734D01*
X74098937Y-97733950D02*
X74142430Y-97282259D01*
X74098937Y-102266049D02*
X74063334Y-101813668D01*
X74142430Y-97282259D02*
X74193800Y-96831397D01*
X74142430Y-102717740D02*
X74098937Y-102266049D01*
X74193800Y-96831397D02*
X74253030Y-96381499D01*
X74193800Y-103168602D02*
X74142430Y-102717740D01*
X74253030Y-96381499D02*
X74320103Y-95932703D01*
X74253030Y-103618500D02*
X74193800Y-103168602D01*
X74320103Y-95932703D02*
X74394998Y-95485147D01*
X74320103Y-104067296D02*
X74253030Y-103618500D01*
X74394998Y-95485147D02*
X74477693Y-95038966D01*
X74394998Y-104514852D02*
X74320103Y-104067296D01*
X74477693Y-95038966D02*
X74568162Y-94594296D01*
X74477693Y-104961033D02*
X74394998Y-104514852D01*
X74568162Y-94594296D02*
X74666378Y-94151272D01*
X74568162Y-105405703D02*
X74477693Y-104961033D01*
X74666378Y-94151272D02*
X74772311Y-93710030D01*
X74666378Y-105848727D02*
X74568162Y-105405703D01*
X74772311Y-93710030D02*
X74885928Y-93270704D01*
X74772311Y-106289969D02*
X74666378Y-105848727D01*
X74885928Y-93270704D02*
X75007195Y-92833428D01*
X74885928Y-106729295D02*
X74772311Y-106289969D01*
X75007195Y-92833428D02*
X75136076Y-92398335D01*
X75007195Y-107166571D02*
X74885928Y-106729295D01*
X75136076Y-92398335D02*
X75272530Y-91965558D01*
X75136076Y-107601664D02*
X75007195Y-107166571D01*
X75272530Y-91965558D02*
X75416517Y-91535227D01*
X75272530Y-108034441D02*
X75136076Y-107601664D01*
X75416517Y-91535227D02*
X75567991Y-91107476D01*
X75416517Y-108464772D02*
X75272530Y-108034441D01*
X75567991Y-91107476D02*
X75726908Y-90682433D01*
X75567991Y-108892523D02*
X75416517Y-108464772D01*
X75726908Y-90682433D02*
X75893219Y-90260228D01*
X75726908Y-109317566D02*
X75567991Y-108892523D01*
X75893219Y-90260228D02*
X76066873Y-89840990D01*
X75893219Y-109739771D02*
X75726908Y-109317566D01*
X76066873Y-89840990D02*
X76247818Y-89424847D01*
X76066873Y-110159009D02*
X75893219Y-109739771D01*
X76247818Y-89424847D02*
X76435997Y-89011925D01*
X76247818Y-110575152D02*
X76066873Y-110159009D01*
X76435997Y-89011925D02*
X76631354Y-88602350D01*
X76435997Y-110988074D02*
X76247818Y-110575152D01*
X76631354Y-88602350D02*
X76833830Y-88196247D01*
X76631354Y-111397649D02*
X76435997Y-110988074D01*
X76833830Y-88196247D02*
X77043362Y-87793739D01*
X76833830Y-111803752D02*
X76631354Y-111397649D01*
X77043362Y-87793739D02*
X77259887Y-87394949D01*
X77043362Y-112206260D02*
X76833830Y-111803752D01*
X77259887Y-87394949D02*
X77483339Y-87000000D01*
X77259887Y-112605050D02*
X77043362Y-112206260D01*
X77483339Y-87000000D02*
X77713650Y-86609010D01*
X77483339Y-113000000D02*
X77259887Y-112605050D01*
X77713650Y-86609010D02*
X77950749Y-86222099D01*
X77713650Y-113390989D02*
X77483339Y-113000000D01*
X77950749Y-86222099D02*
X78194565Y-85839385D01*
X77950749Y-113777900D02*
X77713650Y-113390989D01*
X78194565Y-85839385D02*
X78445023Y-85460984D01*
X78194565Y-114160614D02*
X77950749Y-113777900D01*
X78445023Y-85460984D02*
X78702046Y-85087012D01*
X78445023Y-114539015D02*
X78194565Y-114160614D01*
X78702046Y-85087012D02*
X78965558Y-84717583D01*
X78702046Y-114912987D02*
X78445023Y-114539015D01*
X78965558Y-84717583D02*
X79235476Y-84352809D01*
X78965558Y-115282416D02*
X78702046Y-114912987D01*
X79235476Y-84352809D02*
X79511720Y-83992801D01*
X79235476Y-115647190D02*
X78965558Y-115282416D01*
X79511720Y-83992801D02*
X79794205Y-83637669D01*
X79511720Y-116007198D02*
X79235476Y-115647190D01*
X79794205Y-83637669D02*
X80232852Y-83413393D01*
X79794205Y-116362330D02*
X79511720Y-116007198D01*
X80232852Y-83413393D02*
X80971647Y-83458905D01*
X80232852Y-116586606D02*
X79794205Y-116362330D01*
X80971647Y-83458905D02*
X81519115Y-83359737D01*
X80971647Y-116541094D02*
X80232852Y-116586606D01*
X81519115Y-83359737D02*
X81967886Y-83184781D01*
X81519115Y-116640262D02*
X80971647Y-116541094D01*
X81967886Y-83184781D02*
X82348900Y-82954531D01*
X81967886Y-116815218D02*
X81519115Y-116640262D01*
X82348900Y-82954531D02*
X82675883Y-82675883D01*
X82348900Y-117045468D02*
X81967886Y-116815218D01*
X82675883Y-82675883D02*
X82954531Y-82348900D01*
X82675883Y-117324116D02*
X82348900Y-117045468D01*
X82954531Y-82348900D02*
X83184781Y-81967886D01*
X82954531Y-117651099D02*
X82675883Y-117324116D01*
X83184781Y-81967886D02*
X83359737Y-81519115D01*
X83184781Y-118032113D02*
X82954531Y-117651099D01*
X83359737Y-81519115D02*
X83458905Y-80971647D01*
X83359737Y-118480884D02*
X83184781Y-118032113D01*
X83413393Y-80232852D02*
X83637669Y-79794205D01*
X83413393Y-119767147D02*
X83458905Y-119028352D01*
X83458905Y-80971647D02*
X83413393Y-80232852D01*
X83458905Y-119028352D02*
X83359737Y-118480884D01*
X83637669Y-79794205D02*
X83992801Y-79511720D01*
X83637669Y-120205794D02*
X83413393Y-119767147D01*
X83992801Y-79511720D02*
X84352809Y-79235476D01*
X83992801Y-120488279D02*
X83637669Y-120205794D01*
X84352809Y-79235476D02*
X84717583Y-78965558D01*
X84352809Y-120764523D02*
X83992801Y-120488279D01*
X84717583Y-78965558D02*
X85087012Y-78702046D01*
X84717583Y-121034441D02*
X84352809Y-120764523D01*
X85087012Y-78702046D02*
X85460984Y-78445023D01*
X85087012Y-121297953D02*
X84717583Y-121034441D01*
X85460984Y-78445023D02*
X85839385Y-78194565D01*
X85460984Y-121554976D02*
X85087012Y-121297953D01*
X85839385Y-78194565D02*
X86222099Y-77950749D01*
X85839385Y-121805434D02*
X85460984Y-121554976D01*
X86222099Y-77950749D02*
X86609010Y-77713650D01*
X86222099Y-122049250D02*
X85839385Y-121805434D01*
X86609010Y-77713650D02*
X86999999Y-77483339D01*
X86609010Y-122286349D02*
X86222099Y-122049250D01*
X86999999Y-77483339D02*
X87394949Y-77259887D01*
X87000000Y-122516660D02*
X86609010Y-122286349D01*
X87394949Y-77259887D02*
X87793739Y-77043362D01*
X87394949Y-122740112D02*
X87000000Y-122516660D01*
X87793739Y-77043362D02*
X88196247Y-76833830D01*
X87793739Y-122956637D02*
X87394949Y-122740112D01*
X88196247Y-76833830D02*
X88602350Y-76631354D01*
X88196247Y-123166169D02*
X87793739Y-122956637D01*
X88602350Y-76631354D02*
X89011925Y-76435997D01*
X88602350Y-123368645D02*
X88196247Y-123166169D01*
X89011925Y-76435997D02*
X89424847Y-76247818D01*
X89011925Y-123564002D02*
X88602350Y-123368645D01*
X89424847Y-76247818D02*
X89840990Y-76066873D01*
X89424847Y-123752181D02*
X89011925Y-123564002D01*
X89840990Y-76066873D02*
X90260228Y-75893219D01*
X89840990Y-123933126D02*
X89424847Y-123752181D01*
X90260228Y-75893219D02*
X90682433Y-75726908D01*
X90260228Y-124106780D02*
X89840990Y-123933126D01*
X90682433Y-75726908D02*
X91107476Y-75567991D01*
X90682433Y-124273091D02*
X90260228Y-124106780D01*
X91107476Y-75567991D02*
X91535227Y-75416517D01*
X91107476Y-124432008D02*
X90682433Y-124273091D01*
X91535227Y-75416517D02*
X91965558Y-75272530D01*
X91535227Y-124583482D02*
X91107476Y-124432008D01*
X91965558Y-75272530D02*
X92398335Y-75136076D01*
X91965558Y-124727469D02*
X91535227Y-124583482D01*
X92398335Y-75136076D02*
X92833428Y-75007195D01*
X92398335Y-124863923D02*
X91965558Y-124727469D01*
X92833428Y-75007195D02*
X93270704Y-74885928D01*
X92833428Y-124992804D02*
X92398335Y-124863923D01*
X93270704Y-74885928D02*
X93710030Y-74772311D01*
X93270704Y-125114071D02*
X92833428Y-124992804D01*
X93710030Y-74772311D02*
X94151272Y-74666378D01*
X93710030Y-125227688D02*
X93270704Y-125114071D01*
X94151272Y-74666378D02*
X94594296Y-74568162D01*
X94151272Y-125333621D02*
X93710030Y-125227688D01*
X94594296Y-74568162D02*
X95038966Y-74477693D01*
X94594296Y-125431837D02*
X94151272Y-125333621D01*
X95038966Y-74477693D02*
X95485147Y-74394998D01*
X95038966Y-125522306D02*
X94594296Y-125431837D01*
X95485147Y-74394998D02*
X95932703Y-74320103D01*
X95485147Y-125605001D02*
X95038966Y-125522306D01*
X95932703Y-74320103D02*
X96381499Y-74253030D01*
X95932703Y-125679896D02*
X95485147Y-125605001D01*
X96381499Y-74253030D02*
X96831397Y-74193800D01*
X96381499Y-125746969D02*
X95932703Y-125679896D01*
X96831397Y-74193800D02*
X97282259Y-74142430D01*
X96831397Y-125806199D02*
X96381499Y-125746969D01*
X97282259Y-74142430D02*
X97733950Y-74098937D01*
X97282259Y-125857569D02*
X96831397Y-125806199D01*
X97733950Y-74098937D02*
X98186331Y-74063334D01*
X97733950Y-125901062D02*
X97282259Y-125857569D01*
X98186331Y-74063334D02*
X98639265Y-74035632D01*
X98186331Y-125936665D02*
X97733950Y-125901062D01*
X98639265Y-74035632D02*
X99092613Y-74015838D01*
X98639265Y-125964367D02*
X98186331Y-125936665D01*
X99092613Y-74015838D02*
X99546237Y-74003959D01*
X99092613Y-125984161D02*
X98639265Y-125964367D01*
X99546237Y-74003959D02*
X100000000Y-74000000D01*
X99546237Y-125996040D02*
X99092613Y-125984161D01*
X100000000Y-74000000D02*
X100453762Y-74003959D01*
X100000000Y-126000000D02*
X99546237Y-125996040D01*
X100453762Y-74003959D02*
X100907386Y-74015838D01*
X100453762Y-125996040D02*
X100000000Y-126000000D01*
X100907386Y-74015838D02*
X101360734Y-74035632D01*
X100907386Y-125984161D02*
X100453762Y-125996040D01*
X101360734Y-74035632D02*
X101813668Y-74063334D01*
X101360734Y-125964367D02*
X100907386Y-125984161D01*
X101813668Y-74063334D02*
X102266049Y-74098937D01*
X101813668Y-125936665D02*
X101360734Y-125964367D01*
X102266049Y-74098937D02*
X102717740Y-74142430D01*
X102266049Y-125901062D02*
X101813668Y-125936665D01*
X102717740Y-74142430D02*
X103168602Y-74193800D01*
X102717740Y-125857569D02*
X102266049Y-125901062D01*
X103168602Y-74193800D02*
X103618500Y-74253030D01*
X103168602Y-125806199D02*
X102717740Y-125857569D01*
X103618500Y-74253030D02*
X104067296Y-74320103D01*
X103618500Y-125746969D02*
X103168602Y-125806199D01*
X104067296Y-74320103D02*
X104514852Y-74394998D01*
X104067296Y-125679896D02*
X103618500Y-125746969D01*
X104514852Y-74394998D02*
X104961033Y-74477693D01*
X104514852Y-125605001D02*
X104067296Y-125679896D01*
X104961033Y-74477693D02*
X105405703Y-74568162D01*
X104961033Y-125522306D02*
X104514852Y-125605001D01*
X105405703Y-74568162D02*
X105848727Y-74666378D01*
X105405703Y-125431837D02*
X104961033Y-125522306D01*
X105848727Y-74666378D02*
X106289969Y-74772311D01*
X105848727Y-125333621D02*
X105405703Y-125431837D01*
X106289969Y-74772311D02*
X106729295Y-74885928D01*
X106289969Y-125227688D02*
X105848727Y-125333621D01*
X106729295Y-74885928D02*
X107166571Y-75007195D01*
X106729295Y-125114071D02*
X106289969Y-125227688D01*
X107166571Y-75007195D02*
X107601664Y-75136076D01*
X107166571Y-124992804D02*
X106729295Y-125114071D01*
X107601664Y-75136076D02*
X108034441Y-75272530D01*
X107601664Y-124863923D02*
X107166571Y-124992804D01*
X108034441Y-75272530D02*
X108464772Y-75416517D01*
X108034441Y-124727469D02*
X107601664Y-124863923D01*
X108464772Y-75416517D02*
X108892523Y-75567991D01*
X108464772Y-124583482D02*
X108034441Y-124727469D01*
X108892523Y-75567991D02*
X109317566Y-75726908D01*
X108892523Y-124432008D02*
X108464772Y-124583482D01*
X109317566Y-75726908D02*
X109739771Y-75893219D01*
X109317566Y-124273091D02*
X108892523Y-124432008D01*
X109739771Y-75893219D02*
X110159009Y-76066873D01*
X109739771Y-124106780D02*
X109317566Y-124273091D01*
X110159009Y-76066873D02*
X110575152Y-76247818D01*
X110159009Y-123933126D02*
X109739771Y-124106780D01*
X110575152Y-76247818D02*
X110988074Y-76435997D01*
X110575152Y-123752181D02*
X110159009Y-123933126D01*
X110988074Y-76435997D02*
X111397649Y-76631354D01*
X110988074Y-123564002D02*
X110575152Y-123752181D01*
X111397649Y-76631354D02*
X111803752Y-76833830D01*
X111397649Y-123368645D02*
X110988074Y-123564002D01*
X111803752Y-76833830D02*
X112206260Y-77043362D01*
X111803752Y-123166169D02*
X111397649Y-123368645D01*
X112206260Y-77043362D02*
X112605050Y-77259887D01*
X112206260Y-122956637D02*
X111803752Y-123166169D01*
X112605050Y-77259887D02*
X113000000Y-77483339D01*
X112605050Y-122740112D02*
X112206260Y-122956637D01*
X113000000Y-77483339D02*
X113390989Y-77713650D01*
X113000000Y-122516660D02*
X112605050Y-122740112D01*
X113390989Y-77713650D02*
X113777900Y-77950749D01*
X113390989Y-122286349D02*
X113000000Y-122516660D01*
X113777900Y-77950749D02*
X114160614Y-78194565D01*
X113777900Y-122049250D02*
X113390989Y-122286349D01*
X114160614Y-78194565D02*
X114539015Y-78445023D01*
X114160614Y-121805434D02*
X113777900Y-122049250D01*
X114539015Y-78445023D02*
X114912987Y-78702046D01*
X114539015Y-121554976D02*
X114160614Y-121805434D01*
X114912987Y-78702046D02*
X115282416Y-78965558D01*
X114912987Y-121297953D02*
X114539015Y-121554976D01*
X115282416Y-78965558D02*
X115647190Y-79235476D01*
X115282416Y-121034441D02*
X114912987Y-121297953D01*
X115647190Y-79235476D02*
X116007198Y-79511720D01*
X115647190Y-120764523D02*
X115282416Y-121034441D01*
X116007198Y-79511720D02*
X116362330Y-79794205D01*
X116007198Y-120488279D02*
X115647190Y-120764523D01*
X116362330Y-79794205D02*
X116586606Y-80232852D01*
X116362330Y-120205794D02*
X116007198Y-120488279D01*
X116541094Y-80971647D02*
X116640262Y-81519115D01*
X116541094Y-119028352D02*
X116586606Y-119767147D01*
X116586606Y-80232852D02*
X116541094Y-80971647D01*
X116586606Y-119767147D02*
X116362330Y-120205794D01*
X116640262Y-81519115D02*
X116815218Y-81967886D01*
X116640262Y-118480884D02*
X116541094Y-119028352D01*
X116815218Y-81967886D02*
X117045468Y-82348900D01*
X116815218Y-118032113D02*
X116640262Y-118480884D01*
X117045468Y-82348900D02*
X117324116Y-82675883D01*
X117045468Y-117651099D02*
X116815218Y-118032113D01*
X117324116Y-82675883D02*
X117651099Y-82954531D01*
X117324116Y-117324116D02*
X117045468Y-117651099D01*
X117651099Y-82954531D02*
X118032113Y-83184781D01*
X117651099Y-117045468D02*
X117324116Y-117324116D01*
X118032113Y-83184781D02*
X118480884Y-83359737D01*
X118032113Y-116815218D02*
X117651099Y-117045468D01*
X118480884Y-83359737D02*
X119028352Y-83458905D01*
X118480884Y-116640262D02*
X118032113Y-116815218D01*
X119028352Y-83458905D02*
X119767147Y-83413393D01*
X119028352Y-116541094D02*
X118480884Y-116640262D01*
X119767147Y-83413393D02*
X120205794Y-83637669D01*
X119767147Y-116586606D02*
X119028352Y-116541094D01*
X120205794Y-83637669D02*
X120488279Y-83992801D01*
X120205794Y-116362330D02*
X119767147Y-116586606D01*
X120488279Y-83992801D02*
X120764523Y-84352809D01*
X120488279Y-116007198D02*
X120205794Y-116362330D01*
X120764523Y-84352809D02*
X121034441Y-84717583D01*
X120764523Y-115647190D02*
X120488279Y-116007198D01*
X121034441Y-84717583D02*
X121297953Y-85087012D01*
X121034441Y-115282416D02*
X120764523Y-115647190D01*
X121297953Y-85087012D02*
X121554976Y-85460984D01*
X121297953Y-114912987D02*
X121034441Y-115282416D01*
X121554976Y-85460984D02*
X121805434Y-85839385D01*
X121554976Y-114539015D02*
X121297953Y-114912987D01*
X121805434Y-85839385D02*
X122049250Y-86222099D01*
X121805434Y-114160614D02*
X121554976Y-114539015D01*
X122049250Y-86222099D02*
X122286349Y-86609010D01*
X122049250Y-113777900D02*
X121805434Y-114160614D01*
X122286349Y-86609010D02*
X122516660Y-86999999D01*
X122286349Y-113390989D02*
X122049250Y-113777900D01*
X122516660Y-86999999D02*
X122740112Y-87394949D01*
X122516660Y-113000000D02*
X122286349Y-113390989D01*
X122740112Y-87394949D02*
X122956637Y-87793739D01*
X122740112Y-112605050D02*
X122516660Y-113000000D01*
X122956637Y-87793739D02*
X123166169Y-88196247D01*
X122956637Y-112206260D02*
X122740112Y-112605050D01*
X123166169Y-88196247D02*
X123368645Y-88602350D01*
X123166169Y-111803752D02*
X122956637Y-112206260D01*
X123368645Y-88602350D02*
X123564002Y-89011925D01*
X123368645Y-111397649D02*
X123166169Y-111803752D01*
X123564002Y-89011925D02*
X123752181Y-89424847D01*
X123564002Y-110988074D02*
X123368645Y-111397649D01*
X123752181Y-89424847D02*
X123933126Y-89840990D01*
X123752181Y-110575152D02*
X123564002Y-110988074D01*
X123933126Y-89840990D02*
X124106780Y-90260228D01*
X123933126Y-110159009D02*
X123752181Y-110575152D01*
X124106780Y-90260228D02*
X124273091Y-90682433D01*
X124106780Y-109739771D02*
X123933126Y-110159009D01*
X124273091Y-90682433D02*
X124432008Y-91107476D01*
X124273091Y-109317566D02*
X124106780Y-109739771D01*
X124432008Y-91107476D02*
X124583482Y-91535227D01*
X124432008Y-108892523D02*
X124273091Y-109317566D01*
X124583482Y-91535227D02*
X124727469Y-91965558D01*
X124583482Y-108464772D02*
X124432008Y-108892523D01*
X124727469Y-91965558D02*
X124863923Y-92398335D01*
X124727469Y-108034441D02*
X124583482Y-108464772D01*
X124863923Y-92398335D02*
X124992804Y-92833428D01*
X124863923Y-107601664D02*
X124727469Y-108034441D01*
X124992804Y-92833428D02*
X125114071Y-93270704D01*
X124992804Y-107166571D02*
X124863923Y-107601664D01*
X125114071Y-93270704D02*
X125227688Y-93710030D01*
X125114071Y-106729295D02*
X124992804Y-107166571D01*
X125227688Y-93710030D02*
X125333621Y-94151272D01*
X125227688Y-106289969D02*
X125114071Y-106729295D01*
X125333621Y-94151272D02*
X125431837Y-94594296D01*
X125333621Y-105848727D02*
X125227688Y-106289969D01*
X125431837Y-94594296D02*
X125522306Y-95038966D01*
X125431837Y-105405703D02*
X125333621Y-105848727D01*
X125522306Y-95038966D02*
X125605001Y-95485147D01*
X125522306Y-104961033D02*
X125431837Y-105405703D01*
X125605001Y-95485147D02*
X125679896Y-95932703D01*
X125605001Y-104514852D02*
X125522306Y-104961033D01*
X125679896Y-95932703D02*
X125746969Y-96381499D01*
X125679896Y-104067296D02*
X125605001Y-104514852D01*
X125746969Y-96381499D02*
X125806199Y-96831397D01*
X125746969Y-103618500D02*
X125679896Y-104067296D01*
X125806199Y-96831397D02*
X125857569Y-97282259D01*
X125806199Y-103168602D02*
X125746969Y-103618500D01*
X125857569Y-97282259D02*
X125901062Y-97733950D01*
X125857569Y-102717740D02*
X125806199Y-103168602D01*
X125901062Y-97733950D02*
X125936665Y-98186331D01*
X125901062Y-102266049D02*
X125857569Y-102717740D01*
X125936665Y-98186331D02*
X125964367Y-98639265D01*
X125936665Y-101813668D02*
X125901062Y-102266049D01*
X125964367Y-98639265D02*
X125984161Y-99092613D01*
X125964367Y-101360734D02*
X125936665Y-101813668D01*
X125984161Y-99092613D02*
X125996040Y-99546237D01*
X125984161Y-100907386D02*
X125964367Y-101360734D01*
X125996040Y-99546237D02*
X126000000Y-100000000D01*
X125996040Y-100453762D02*
X125984161Y-100907386D01*
X126000000Y-100000000D02*
X125996040Y-100453762D01*
M02*
