%TF.GenerationSoftware,KiCad,Pcbnew,10.0.6*%
%TF.CreationDate,2026-09-03T14:59:06+08:00*%
%TF.ProjectId,moto-gps-rev-a,6d6f746f-2d67-4707-932d-7265762d612e,rev?*%
%TF.SameCoordinates,Original*%
%TF.FileFunction,Copper,L4,Bot*%
%TF.FilePolarity,Positive*%
%FSLAX46Y46*%
G04 Gerber Fmt 4.6, Leading zero omitted, Abs format (unit mm)*
G04 Created by KiCad (PCBNEW 10.0.6) date 2026-09-03 14:59:06*
%MOMM*%
%LPD*%
G01*
G04 APERTURE LIST*
G04 Aperture macros list*
%AMRoundRect*
0 Rectangle with rounded corners*
0 $1 Rounding radius*
0 $2 $3 $4 $5 $6 $7 $8 $9 X,Y pos of 4 corners*
0 Add a 4 corners polygon primitive as box body*
4,1,4,$2,$3,$4,$5,$6,$7,$8,$9,$2,$3,0*
0 Add four circle primitives for the rounded corners*
1,1,$1+$1,$2,$3*
1,1,$1+$1,$4,$5*
1,1,$1+$1,$6,$7*
1,1,$1+$1,$8,$9*
0 Add four rect primitives between the rounded corners*
20,1,$1+$1,$2,$3,$4,$5,0*
20,1,$1+$1,$4,$5,$6,$7,0*
20,1,$1+$1,$6,$7,$8,$9,0*
20,1,$1+$1,$8,$9,$2,$3,0*%
G04 Aperture macros list end*
%TA.AperFunction,ComponentPad*%
%ADD10O,1.000000X2.100000*%
%TD*%
%TA.AperFunction,ComponentPad*%
%ADD11O,1.000000X1.600000*%
%TD*%
%TA.AperFunction,HeatsinkPad*%
%ADD12C,0.450000*%
%TD*%
%TA.AperFunction,SMDPad,CuDef*%
%ADD13RoundRect,0.140000X-0.140000X-0.170000X0.140000X-0.170000X0.140000X0.170000X-0.140000X0.170000X0*%
%TD*%
%TA.AperFunction,SMDPad,CuDef*%
%ADD14C,1.000000*%
%TD*%
%TA.AperFunction,SMDPad,CuDef*%
%ADD15RoundRect,0.250000X0.450000X0.275000X-0.450000X0.275000X-0.450000X-0.275000X0.450000X-0.275000X0*%
%TD*%
%TA.AperFunction,ViaPad*%
%ADD16C,0.450000*%
%TD*%
%TA.AperFunction,ViaPad*%
%ADD17C,0.500000*%
%TD*%
%TA.AperFunction,Conductor*%
%ADD18C,0.150000*%
%TD*%
%TA.AperFunction,Conductor*%
%ADD19C,0.180000*%
%TD*%
%TA.AperFunction,Conductor*%
%ADD20C,0.220000*%
%TD*%
G04 APERTURE END LIST*
D10*
%TO.P,J1,S1*%
%TO.N,/USB_SHIELD*%
X95680000Y-118895000D03*
D11*
X95680000Y-123075000D03*
D10*
X104320000Y-118895000D03*
D11*
X104320000Y-123075000D03*
%TD*%
D12*
%TO.P,U1,41*%
%TO.N,/GND*%
X83700000Y-96910000D03*
X83700000Y-98310000D03*
X84400000Y-96210000D03*
X84400000Y-97610000D03*
X84400000Y-99010000D03*
X85100000Y-96910000D03*
X85100000Y-98310000D03*
X85800000Y-96210000D03*
X85800000Y-97610000D03*
X85800000Y-99010000D03*
X86500000Y-96910000D03*
X86500000Y-98310000D03*
%TD*%
D13*
%TO.P,C7,1*%
%TO.N,/BQ_BTST*%
X109320000Y-106400000D03*
%TO.P,C7,2*%
%TO.N,/BQ_SW*%
X110280000Y-106400000D03*
%TD*%
D14*
%TO.P,TP11,1*%
%TO.N,/GNSS_RX_3V0*%
X78749600Y-94306000D03*
%TD*%
%TO.P,TP9,1*%
%TO.N,/UART0_RX*%
X78749600Y-105694000D03*
%TD*%
%TO.P,TP17,1*%
%TO.N,/GNSS_ANT_ON*%
X121250400Y-94306000D03*
%TD*%
%TO.P,TP14,1*%
%TO.N,/CHARGER_INT_N*%
X105694000Y-78749600D03*
%TD*%
%TO.P,TP1,1*%
%TO.N,/USB_VBUS*%
X122000000Y-100000000D03*
%TD*%
%TO.P,TP3,1*%
%TO.N,/SYS*%
X105694000Y-121250400D03*
%TD*%
%TO.P,TP16,1*%
%TO.N,/GNSS_3V0*%
X115556300Y-84443600D03*
%TD*%
%TO.P,TP4,1*%
%TO.N,/3V3*%
X100000000Y-122000000D03*
%TD*%
%TO.P,TP7,1*%
%TO.N,/I2C_SDA*%
X84443700Y-115556300D03*
%TD*%
%TO.P,TP5,1*%
%TO.N,/GND*%
X94306000Y-121250400D03*
%TD*%
%TO.P,TP13,1*%
%TO.N,/GNSS_RESET_N_1V8*%
X100000000Y-78000000D03*
%TD*%
%TO.P,TP8,1*%
%TO.N,/UART0_TX*%
X80947400Y-111000000D03*
%TD*%
%TO.P,TP10,1*%
%TO.N,/GNSS_TX_3V0*%
X78000000Y-100000000D03*
%TD*%
%TO.P,TP15,1*%
%TO.N,/TYPEC_INT_N*%
X111000000Y-80947400D03*
%TD*%
D15*
%TO.P,SW1,1*%
%TO.N,/BQ_QON*%
X115600000Y-116280000D03*
X112000000Y-116280000D03*
%TO.P,SW1,2*%
%TO.N,/GND*%
X115600000Y-117720000D03*
X112000000Y-117720000D03*
%TD*%
D14*
%TO.P,TP6,1*%
%TO.N,/I2C_SCL*%
X89000000Y-119052600D03*
%TD*%
%TO.P,TP12,1*%
%TO.N,/GNSS_PPS_3V0*%
X94306000Y-78749600D03*
%TD*%
%TO.P,TP2,1*%
%TO.N,/BAT*%
X119052600Y-111000000D03*
%TD*%
D16*
%TO.N,/3V3*%
X115963500Y-101773500D03*
X113123300Y-121219800D03*
D17*
X117200000Y-115000000D03*
D16*
X120350000Y-110750000D03*
D17*
X119500000Y-115000000D03*
D16*
X102189600Y-113802000D03*
%TO.N,/CHARGER_STAT_N*%
X111230700Y-113200800D03*
X112702800Y-119483800D03*
D17*
%TO.N,/SYS*%
X117000000Y-106950000D03*
D16*
X110973700Y-105841000D03*
X113000000Y-110750000D03*
D17*
X108500000Y-113450000D03*
X112150000Y-113450000D03*
D16*
X118825000Y-106550000D03*
D17*
X119200000Y-106950000D03*
D16*
X110575000Y-111050000D03*
D17*
%TO.N,/GND*%
X120300000Y-101050000D03*
D16*
X97642500Y-89548600D03*
X81054200Y-90051200D03*
D17*
X123000000Y-99350000D03*
D16*
X122193600Y-92618600D03*
X91423700Y-89890000D03*
X114640900Y-118667800D03*
D17*
X119130000Y-100650000D03*
D16*
X95155800Y-120847500D03*
%TO.N,/GNSS_3V0*%
X100340700Y-88510500D03*
X112426600Y-86062900D03*
X112891500Y-81150500D03*
X100709200Y-92914100D03*
X109543900Y-96098400D03*
%TO.N,/USB_VBUS*%
X114509800Y-117216300D03*
X110561900Y-105375000D03*
X108386900Y-105998000D03*
X117330500Y-112980500D03*
X110292900Y-120360000D03*
%TO.N,/USB_CC1*%
X100863800Y-119809600D03*
X108240200Y-116243700D03*
%TO.N,/USB_D_N_CONN*%
X100250000Y-119650000D03*
X103500000Y-115800000D03*
%TO.N,/USB_CC2*%
X106855500Y-121060300D03*
X109293800Y-116881200D03*
X101443600Y-119285500D03*
X103218400Y-121060300D03*
%TO.N,/QMI_INT1*%
X101572900Y-97024300D03*
X90212500Y-105436600D03*
%TO.N,/QMI_INT2*%
X100778800Y-98314000D03*
X100601500Y-94222000D03*
X97918700Y-100767200D03*
%TO.N,/I2C_SCL*%
X100128800Y-95936300D03*
X85968500Y-118593500D03*
X99779300Y-89453500D03*
X87070900Y-112927500D03*
X108855200Y-114916500D03*
X98662500Y-78451600D03*
X111656400Y-115366500D03*
X112080300Y-108707000D03*
X106102500Y-112203000D03*
X103316500Y-111819300D03*
%TO.N,/I2C_SDA*%
X98880400Y-87124900D03*
X80392100Y-112150700D03*
X109932500Y-109107000D03*
X111746100Y-114362700D03*
X99284300Y-80515800D03*
X103559700Y-110501900D03*
X100142000Y-99304700D03*
X108129900Y-110698500D03*
%TO.N,/3V3_DISPLAY*%
X102549100Y-106101500D03*
X102614300Y-110645800D03*
%TO.N,/TP_RESET_N*%
X94220500Y-92430000D03*
X101527500Y-104593000D03*
X103921200Y-107494800D03*
%TO.N,/FUNC_KEY_N*%
X84405100Y-103106900D03*
X121091900Y-102567300D03*
X101863200Y-94730000D03*
%TO.N,/MCU_EN*%
X80298000Y-84780000D03*
X99966300Y-90323900D03*
X79550000Y-92242500D03*
X96753800Y-88326500D03*
%TO.N,/BQ_ILIM*%
X107854000Y-109507000D03*
X113842900Y-106870100D03*
X107874700Y-107423200D03*
%TO.N,/LCD_SIO1_MCU*%
X103861900Y-103698700D03*
X79296000Y-95011500D03*
X93645700Y-103032400D03*
%TO.N,/LCD_SIO1*%
X99661300Y-111821400D03*
X104250000Y-106223900D03*
%TO.N,/TYPEC_INT_N*%
X112965100Y-115610200D03*
X110248200Y-119074300D03*
X107367800Y-116300000D03*
X108668800Y-81581400D03*
%TO.N,/TYPEC_VBUS_DET*%
X112894800Y-114943200D03*
X110358300Y-117740200D03*
%TO.N,/GNSS_TX_3V0*%
X109595100Y-80750000D03*
X106716200Y-91628600D03*
%TO.N,/GNSS_RX_3V0*%
X83316500Y-94038400D03*
X92387500Y-92718600D03*
X103738400Y-92440900D03*
X108319000Y-79872700D03*
%TO.N,/GNSS_PPS_3V0*%
X112509300Y-83529000D03*
X106968900Y-93969700D03*
%TO.N,/GNSS_RESET_N_1V8*%
X100747400Y-77502700D03*
X106972700Y-99400000D03*
X101144900Y-87462400D03*
%TO.N,/GNSS_ANT_ON*%
X117434800Y-96392500D03*
%TO.N,/BQ_TS_BIAS*%
X109309000Y-104894900D03*
X107279300Y-109805900D03*
%TO.N,/BAT_TS*%
X108882400Y-110953500D03*
X85306100Y-114612100D03*
X113472600Y-113502000D03*
X115770800Y-104159500D03*
%TO.N,/LCD_RESET_N*%
X99924500Y-104615900D03*
X99910400Y-109015400D03*
X98316800Y-95344300D03*
X103119700Y-101835000D03*
%TO.N,/LCD_SIO0_MCU*%
X100373500Y-106354200D03*
X94182000Y-94272100D03*
%TO.N,/LCD_SIO0*%
X102005600Y-110452700D03*
X101488300Y-106301100D03*
%TO.N,/3V3_PG_N*%
X115716900Y-107004700D03*
X118728300Y-103078600D03*
%TO.N,/BAT*%
X109850700Y-111237000D03*
X86534300Y-116775000D03*
X106041400Y-113259400D03*
X107186800Y-111073800D03*
%TO.N,/GNSS_PPS_3V3*%
X115448700Y-86138800D03*
X96586700Y-98170900D03*
X112549900Y-100478200D03*
%TO.N,/CHARGER_INT_N*%
X102667000Y-96812400D03*
X104875400Y-79568200D03*
X112096000Y-109333700D03*
X96488500Y-98780000D03*
X114432900Y-102999900D03*
%TO.N,/LCD_TE*%
X97188400Y-111351100D03*
X87652500Y-109787500D03*
%TO.N,/LCD_SIO2*%
X98594100Y-110526600D03*
X101685600Y-101233200D03*
X98086400Y-108174400D03*
%TO.N,/LCD_SIO3*%
X103634600Y-108484800D03*
X99067000Y-111441900D03*
%TO.N,/LCD_CLK*%
X105326900Y-108936500D03*
X105284100Y-104122600D03*
X99755100Y-110695300D03*
%TO.N,/LCD_CS_N*%
X99122300Y-102508100D03*
X101552100Y-111330500D03*
%TO.N,/TP_INT_N*%
X85214100Y-108778500D03*
X104151300Y-110778400D03*
X98667400Y-107477600D03*
%TO.N,/BQ_BTST*%
X108800000Y-106900000D03*
%TO.N,/CHARGER_PG_N*%
X109966300Y-103012300D03*
X106293100Y-107227600D03*
%TO.N,/BQ_QON*%
X109517600Y-109571000D03*
%TO.N,/BQ_CE_N*%
X113690000Y-103006500D03*
X114163100Y-105716000D03*
%TO.N,/BQ_SW*%
X110175000Y-106900000D03*
X112850000Y-107350000D03*
%TO.N,/LCD_SIO2_MCU*%
X98671200Y-102967000D03*
X92902600Y-103912600D03*
X78986600Y-96240000D03*
%TO.N,/LCD_CS_N_MCU*%
X98477900Y-103568800D03*
X92519200Y-105568300D03*
%TO.N,/BOOT_N*%
X98366800Y-98522000D03*
X97337300Y-104868400D03*
X91886600Y-81280000D03*
%TO.N,/GNSS_RESET_DRV*%
X106288300Y-77813100D03*
X101548700Y-90353300D03*
X99571300Y-105711200D03*
X98320000Y-91094100D03*
%TO.N,/LCD_SIO3_MCU*%
X81421500Y-97510000D03*
X100904700Y-108649300D03*
X92022200Y-95499800D03*
X83334300Y-95281000D03*
%TO.N,/TPS_EN_SYNC*%
X117587900Y-105010500D03*
X110681300Y-104089400D03*
X115617800Y-102980700D03*
%TO.N,/LCD_CLK_MCU*%
X101034100Y-101008400D03*
X105211400Y-106344500D03*
%TO.N,/GNSS_UART_TX_3V3*%
X78979300Y-101167400D03*
X110229200Y-83986000D03*
%TO.N,/GNSS_UART_RX_3V3*%
X110734100Y-82807000D03*
X78982700Y-102746000D03*
%TO.N,/USB_D_N_MCU*%
X79600000Y-105130000D03*
D17*
X108200000Y-115600000D03*
D16*
%TO.N,/USB_D_P_MCU*%
X79600000Y-106400000D03*
D17*
X108200000Y-117000000D03*
D16*
%TO.N,/MAG_DRDY*%
X100526200Y-80544300D03*
X96477900Y-96240000D03*
%TO.N,/UART0_RX*%
X81896100Y-105388200D03*
%TO.N,/UART0_TX*%
X82320300Y-94773000D03*
X81579000Y-111631600D03*
%TD*%
%TO.N,/3V3*%
D18*
X99758800Y-121758800D02*
X99758800Y-116232800D01*
X100311400Y-121688600D02*
X104410100Y-121688600D01*
X104410100Y-121688600D02*
X104713800Y-121992300D01*
X112350800Y-121992300D02*
X113123300Y-121219800D01*
X100000000Y-122000000D02*
X99758800Y-121758800D01*
X99758800Y-116232800D02*
X102189600Y-113802000D01*
X100000000Y-122000000D02*
X100311400Y-121688600D01*
X104713800Y-121992300D02*
X112350800Y-121992300D01*
%TO.N,/SYS*%
X105694000Y-116256000D02*
X108500000Y-113450000D01*
X105694000Y-121250400D02*
X105694000Y-116256000D01*
%TO.N,/GND*%
X114640900Y-118667800D02*
X114652200Y-118667800D01*
X112000000Y-117720000D02*
X112947800Y-118667800D01*
X114652200Y-118667800D02*
X115600000Y-117720000D01*
X97301100Y-89890000D02*
X97642500Y-89548600D01*
X112947800Y-118667800D02*
X114640900Y-118667800D01*
X91423700Y-89890000D02*
X97301100Y-89890000D01*
X94708900Y-120847500D02*
X94306000Y-121250400D01*
X95155800Y-120847500D02*
X94708900Y-120847500D01*
%TO.N,/GNSS_3V0*%
X113937000Y-86062900D02*
X115556300Y-84443600D01*
X100709200Y-92914100D02*
X103893500Y-96098400D01*
X103893500Y-96098400D02*
X109543900Y-96098400D01*
X112426600Y-86062900D02*
X113937000Y-86062900D01*
%TO.N,/USB_VBUS*%
X119150700Y-102590700D02*
X119622500Y-103062500D01*
X109009900Y-105375000D02*
X110561900Y-105375000D01*
X110561900Y-105375000D02*
X113711400Y-105375000D01*
X116646600Y-102590700D02*
X119150700Y-102590700D01*
X119622500Y-103062500D02*
X121238800Y-103062500D01*
X119838800Y-110717100D02*
X119838800Y-111283100D01*
X118456500Y-109334800D02*
X119838800Y-110717100D01*
X119838800Y-111283100D02*
X118141400Y-112980500D01*
X122000000Y-102301300D02*
X122000000Y-100000000D01*
X113711400Y-105375000D02*
X113862300Y-105375000D01*
X108386900Y-105998000D02*
X109009900Y-105375000D01*
X113711400Y-105903000D02*
X117143200Y-109334800D01*
X121238800Y-103062500D02*
X122000000Y-102301300D01*
X117143200Y-109334800D02*
X118456500Y-109334800D01*
X118141400Y-112980500D02*
X117330500Y-112980500D01*
X113711400Y-105375000D02*
X113711400Y-105903000D01*
X113862300Y-105375000D02*
X116646600Y-102590700D01*
%TO.N,/USB_D_N_CONN*%
D19*
X100250000Y-116250000D02*
X103500000Y-115800000D01*
X100250000Y-119650000D02*
X100250000Y-116250000D01*
%TO.N,/USB_SHIELD*%
D18*
X104320000Y-122048300D02*
X104019000Y-122048300D01*
X95981000Y-122048300D02*
X95680000Y-122048300D01*
X104019000Y-122048300D02*
X103292900Y-122774400D01*
X96707100Y-122774400D02*
X95981000Y-122048300D01*
X103292900Y-122774400D02*
X96707100Y-122774400D01*
X95680000Y-123075000D02*
X95680000Y-122048300D01*
X104320000Y-123075000D02*
X104320000Y-122048300D01*
%TO.N,/QMI_INT1*%
X97651200Y-98385200D02*
X97864600Y-98385200D01*
X90212500Y-105436600D02*
X90599800Y-105436600D01*
X99118900Y-97130900D02*
X101466300Y-97130900D01*
X90599800Y-105436600D02*
X97651200Y-98385200D01*
X101466300Y-97130900D02*
X101572900Y-97024300D01*
X97864600Y-98385200D02*
X99118900Y-97130900D01*
%TO.N,/QMI_INT2*%
X100371900Y-98314000D02*
X100778800Y-98314000D01*
X97918700Y-100767200D02*
X100371900Y-98314000D01*
%TO.N,/I2C_SCL*%
X89000000Y-119052600D02*
X86427600Y-119052600D01*
X86655100Y-115984400D02*
X98547900Y-115984400D01*
X103700200Y-112203000D02*
X106102500Y-112203000D01*
X85968500Y-118593500D02*
X85968500Y-116671000D01*
X111656400Y-115366500D02*
X109305200Y-115366500D01*
X109305200Y-115366500D02*
X108855200Y-114916500D01*
X86427600Y-119052600D02*
X85968500Y-118593500D01*
X103316500Y-111819300D02*
X103700200Y-112203000D01*
X98547900Y-115984400D02*
X102713000Y-111819300D01*
X85968500Y-116671000D02*
X86655100Y-115984400D01*
X102713000Y-111819300D02*
X103316500Y-111819300D01*
%TO.N,/I2C_SDA*%
X108129900Y-110698500D02*
X108129900Y-111052700D01*
X103358000Y-110703600D02*
X103935900Y-111281500D01*
X105757000Y-110622000D02*
X108053400Y-110622000D01*
X108053400Y-110622000D02*
X108129900Y-110698500D01*
X84443700Y-115556300D02*
X98505300Y-115556300D01*
X105097500Y-111281500D02*
X105757000Y-110622000D01*
X80392100Y-112150700D02*
X83797700Y-115556300D01*
X98505300Y-115556300D02*
X103358000Y-110703600D01*
X103358000Y-110703600D02*
X103559700Y-110501900D01*
X83797700Y-115556300D02*
X84443700Y-115556300D01*
X111439900Y-114362700D02*
X111746100Y-114362700D01*
X108129900Y-111052700D02*
X111439900Y-114362700D01*
X103935900Y-111281500D02*
X105097500Y-111281500D01*
%TO.N,/TP_RESET_N*%
X101527500Y-104593000D02*
X101940100Y-105005600D01*
X101940100Y-105005600D02*
X101940100Y-106134200D01*
X103300700Y-107494800D02*
X103921200Y-107494800D01*
X101940100Y-106134200D02*
X103300700Y-107494800D01*
%TO.N,/FUNC_KEY_N*%
X98149500Y-96721600D02*
X100098200Y-94772900D01*
X105605400Y-98515100D02*
X101863200Y-94730000D01*
X121091900Y-102567300D02*
X120222800Y-102567300D01*
X116170600Y-98515100D02*
X105605400Y-98515100D01*
X84405100Y-103106900D02*
X90790400Y-96721600D01*
X120222800Y-102567300D02*
X116170600Y-98515100D01*
X90790400Y-96721600D02*
X98149500Y-96721600D01*
X100098200Y-94772900D02*
X101863200Y-94730000D01*
%TO.N,/MCU_EN*%
X97968900Y-88326500D02*
X96753800Y-88326500D01*
X99966300Y-90323900D02*
X97968900Y-88326500D01*
X83844500Y-88326500D02*
X96753800Y-88326500D01*
X80298000Y-84780000D02*
X83844500Y-88326500D01*
%TO.N,/BQ_ILIM*%
X113842900Y-106870100D02*
X111959000Y-106870100D01*
X111959000Y-106870100D02*
X111405900Y-107423200D01*
X111405900Y-107423200D02*
X107874700Y-107423200D01*
%TO.N,/LCD_SIO1_MCU*%
X102487300Y-100556700D02*
X99336400Y-100556700D01*
X103861900Y-101931300D02*
X102487300Y-100556700D01*
X99336400Y-100556700D02*
X96860700Y-103032400D01*
X96860700Y-103032400D02*
X93645700Y-103032400D01*
X103861900Y-103698700D02*
X103861900Y-101931300D01*
%TO.N,/LCD_SIO1*%
X105787600Y-107761500D02*
X105787600Y-109129400D01*
X104250000Y-106223900D02*
X105787600Y-107761500D01*
X101818700Y-109448400D02*
X99661300Y-111605800D01*
X105787600Y-109129400D02*
X105468600Y-109448400D01*
X99661300Y-111605800D02*
X99661300Y-111821400D01*
X105468600Y-109448400D02*
X101818700Y-109448400D01*
%TO.N,/TYPEC_INT_N*%
X111000000Y-80947400D02*
X110366000Y-81581400D01*
X107367800Y-116300000D02*
X107367800Y-116911100D01*
X107367800Y-116911100D02*
X109531000Y-119074300D01*
X109531000Y-119074300D02*
X110248200Y-119074300D01*
X110366000Y-81581400D02*
X108668800Y-81581400D01*
%TO.N,/GNSS_TX_3V0*%
X106716200Y-91628600D02*
X106644900Y-91557300D01*
X78000000Y-99914100D02*
X78000000Y-100000000D01*
X83158100Y-94756000D02*
X78000000Y-99914100D01*
X86626900Y-91557300D02*
X83428200Y-94756000D01*
X106644900Y-91557300D02*
X86626900Y-91557300D01*
X83428200Y-94756000D02*
X83158100Y-94756000D01*
%TO.N,/GNSS_RX_3V0*%
X103738400Y-92440900D02*
X103156500Y-91859000D01*
X83048900Y-94306000D02*
X83316500Y-94038400D01*
X93247100Y-91859000D02*
X92387500Y-92718600D01*
X103156500Y-91859000D02*
X93247100Y-91859000D01*
X78749600Y-94306000D02*
X83048900Y-94306000D01*
%TO.N,/GNSS_PPS_3V0*%
X99085400Y-83529000D02*
X112509300Y-83529000D01*
X94306000Y-78749600D02*
X99085400Y-83529000D01*
%TO.N,/GNSS_RESET_N_1V8*%
X100250100Y-78000000D02*
X100747400Y-77502700D01*
X100000000Y-78000000D02*
X100250100Y-78000000D01*
%TO.N,/GNSS_ANT_ON*%
X119163900Y-96392500D02*
X121250400Y-94306000D01*
X117434800Y-96392500D02*
X119163900Y-96392500D01*
%TO.N,/BQ_TS_BIAS*%
X108801000Y-104894900D02*
X109309000Y-104894900D01*
X107279300Y-106416600D02*
X108801000Y-104894900D01*
X107279300Y-109805900D02*
X107279300Y-106416600D01*
%TO.N,/BAT_TS*%
X108882400Y-110953500D02*
X108882400Y-110812200D01*
X97525700Y-114612100D02*
X85306100Y-114612100D01*
X106437600Y-109963200D02*
X101793400Y-109963200D01*
X108882400Y-110812200D02*
X108317000Y-110246800D01*
X107932100Y-110257600D02*
X106732000Y-110257600D01*
X101246600Y-110510000D02*
X101246600Y-110891200D01*
X101793400Y-109963200D02*
X101246600Y-110510000D01*
X112272400Y-112301800D02*
X113472600Y-113502000D01*
X107942900Y-110246800D02*
X107932100Y-110257600D01*
X108882400Y-111378500D02*
X109805700Y-112301800D01*
X101246600Y-110891200D02*
X97525700Y-114612100D01*
X108317000Y-110246800D02*
X107942900Y-110246800D01*
X106732000Y-110257600D02*
X106437600Y-109963200D01*
X108882400Y-110953500D02*
X108882400Y-111378500D01*
X109805700Y-112301800D02*
X112272400Y-112301800D01*
%TO.N,/LCD_RESET_N*%
X102705400Y-101835000D02*
X103119700Y-101835000D01*
X100054500Y-105898300D02*
X100054500Y-104745900D01*
X100054500Y-104745900D02*
X99924500Y-104615900D01*
X99910400Y-109015400D02*
X99910400Y-106042400D01*
X99910400Y-106042400D02*
X100054500Y-105898300D01*
X99924500Y-104615900D02*
X102705400Y-101835000D01*
%TO.N,/3V3_PG_N*%
X115716900Y-106090000D02*
X115716900Y-107004700D01*
X118728300Y-103078600D02*
X115716900Y-106090000D01*
%TO.N,/BAT*%
X107186800Y-111073800D02*
X107186800Y-112114000D01*
X107186800Y-112114000D02*
X106041400Y-113259400D01*
X102055600Y-113259400D02*
X98540000Y-116775000D01*
X119052600Y-111000000D02*
X118540800Y-111511800D01*
X110125500Y-111511800D02*
X109850700Y-111237000D01*
X106041400Y-113259400D02*
X102055600Y-113259400D01*
X118540800Y-111511800D02*
X110125500Y-111511800D01*
X98540000Y-116775000D02*
X86534300Y-116775000D01*
%TO.N,/GNSS_PPS_3V3*%
X102654700Y-96161000D02*
X106971900Y-100478200D01*
X97720500Y-97675900D02*
X98868900Y-96527500D01*
X97081700Y-97675900D02*
X97720500Y-97675900D01*
X100844300Y-96527500D02*
X101210800Y-96161000D01*
X101210800Y-96161000D02*
X102654700Y-96161000D01*
X106971900Y-100478200D02*
X112549900Y-100478200D01*
X98868900Y-96527500D02*
X100844300Y-96527500D01*
X96586700Y-98170900D02*
X97081700Y-97675900D01*
%TO.N,/CHARGER_INT_N*%
X96616400Y-98780000D02*
X97312900Y-98083500D01*
X101119500Y-96829200D02*
X101421200Y-96527500D01*
X97739600Y-98083500D02*
X98993900Y-96829200D01*
X102382100Y-96527500D02*
X102667000Y-96812400D01*
X97312900Y-98083500D02*
X97739600Y-98083500D01*
X101421200Y-96527500D02*
X102382100Y-96527500D01*
X104875400Y-79568200D02*
X105694000Y-78749600D01*
X98993900Y-96829200D02*
X101119500Y-96829200D01*
X96488500Y-98780000D02*
X96616400Y-98780000D01*
%TO.N,/LCD_TE*%
X87652500Y-109787500D02*
X95624800Y-109787500D01*
X95624800Y-109787500D02*
X97188400Y-111351100D01*
%TO.N,/LCD_SIO2*%
X98086400Y-108174400D02*
X98086400Y-104832400D01*
X98086400Y-104832400D02*
X101685600Y-101233200D01*
%TO.N,/LCD_SIO3*%
X99901700Y-109855400D02*
X99067000Y-110690100D01*
X100347200Y-109855400D02*
X99901700Y-109855400D01*
X99067000Y-110690100D02*
X99067000Y-111441900D01*
X101717800Y-108484800D02*
X100347200Y-109855400D01*
X103634600Y-108484800D02*
X101717800Y-108484800D01*
%TO.N,/LCD_CLK*%
X105326900Y-108936500D02*
X101692900Y-108936500D01*
X101692900Y-108936500D02*
X99934100Y-110695300D01*
X99934100Y-110695300D02*
X99755100Y-110695300D01*
%TO.N,/BQ_BTST*%
D20*
X108800000Y-106900000D02*
X109320000Y-106400000D01*
%TO.N,/BQ_QON*%
D18*
X109398900Y-109689700D02*
X109517600Y-109571000D01*
X112580600Y-111894000D02*
X109824600Y-111894000D01*
X114766300Y-114079700D02*
X112580600Y-111894000D01*
X114766300Y-116280000D02*
X114766300Y-114079700D01*
X112602700Y-116882700D02*
X112000000Y-116280000D01*
X115600000Y-116280000D02*
X114766300Y-116280000D01*
X114766300Y-116280000D02*
X114163600Y-116882700D01*
X114163600Y-116882700D02*
X112602700Y-116882700D01*
X109824600Y-111894000D02*
X109398900Y-111468300D01*
X109398900Y-111468300D02*
X109398900Y-109689700D01*
%TO.N,/BQ_SW*%
D20*
X110175000Y-106900000D02*
X110280000Y-106400000D01*
%TO.N,/LCD_SIO2_MCU*%
D18*
X97452700Y-103366900D02*
X97852600Y-102967000D01*
X93539200Y-103912600D02*
X94084900Y-103366900D01*
X94084900Y-103366900D02*
X97452700Y-103366900D01*
X97852600Y-102967000D02*
X98671200Y-102967000D01*
X92902600Y-103912600D02*
X93539200Y-103912600D01*
%TO.N,/LCD_CS_N_MCU*%
X92519200Y-105568300D02*
X94418800Y-103668700D01*
X98378000Y-103668700D02*
X98477900Y-103568800D01*
X94418800Y-103668700D02*
X98378000Y-103668700D01*
%TO.N,/GNSS_RESET_DRV*%
X98320000Y-91094100D02*
X100807900Y-91094100D01*
X100807900Y-91094100D02*
X101548700Y-90353300D01*
%TO.N,/LCD_SIO3_MCU*%
X83334300Y-95281000D02*
X91803400Y-95281000D01*
X91803400Y-95281000D02*
X92022200Y-95499800D01*
%TO.N,/TPS_EN_SYNC*%
X114509100Y-104089400D02*
X110681300Y-104089400D01*
X115617800Y-102980700D02*
X114509100Y-104089400D01*
%TO.N,/GNSS_UART_TX_3V3*%
X86684100Y-96087200D02*
X85613100Y-97158200D01*
X93730300Y-94430800D02*
X92073900Y-96087200D01*
X92073900Y-96087200D02*
X86684100Y-96087200D01*
X85613000Y-97158300D02*
X84913100Y-97858200D01*
X85613100Y-97158300D02*
X85613000Y-97158300D01*
X85613100Y-97158200D02*
X85613100Y-97158300D01*
X84213100Y-98558200D02*
X84213100Y-98558300D01*
X84151700Y-98558300D02*
X81542600Y-101167400D01*
X101234100Y-92160700D02*
X95654700Y-92160700D01*
X81542600Y-101167400D02*
X78979300Y-101167400D01*
X84913100Y-97858300D02*
X84913000Y-97858300D01*
X110229200Y-88754600D02*
X106091000Y-92892800D01*
X84213100Y-98558300D02*
X84151700Y-98558300D01*
X106091000Y-92892800D02*
X101966200Y-92892800D01*
X84913100Y-97858200D02*
X84913100Y-97858300D01*
X84913000Y-97858300D02*
X84213100Y-98558200D01*
X93730300Y-94085100D02*
X93730300Y-94430800D01*
X110229200Y-83986000D02*
X110229200Y-88754600D01*
X95654700Y-92160700D02*
X93730300Y-94085100D01*
X101966200Y-92892800D02*
X101234100Y-92160700D01*
%TO.N,/GNSS_UART_RX_3V3*%
X92704000Y-96388900D02*
X96630500Y-92462400D01*
X110684800Y-86102300D02*
X112992900Y-83794200D01*
X78982700Y-102746000D02*
X82826500Y-102746000D01*
X82826500Y-102746000D02*
X89183600Y-96388900D01*
X112992900Y-83794200D02*
X112992900Y-83372600D01*
X106157400Y-93253100D02*
X110684800Y-88725700D01*
X101003000Y-92462400D02*
X101793700Y-93253100D01*
X101793700Y-93253100D02*
X106157400Y-93253100D01*
X112992900Y-83372600D02*
X112427300Y-82807000D01*
X112427300Y-82807000D02*
X110734100Y-82807000D01*
X96630500Y-92462400D02*
X101003000Y-92462400D01*
X110684800Y-88725700D02*
X110684800Y-86102300D01*
X89183600Y-96388900D02*
X92704000Y-96388900D01*
%TO.N,/UART0_RX*%
X81896100Y-105388200D02*
X81590300Y-105694000D01*
X81590300Y-105694000D02*
X78749600Y-105694000D01*
%TO.N,/UART0_TX*%
X81579000Y-111631600D02*
X80947400Y-111000000D01*
%TD*%
%TA.AperFunction,Conductor*%
%TO.N,/GND*%
G36*
X101333945Y-74484930D02*
G01*
X101340421Y-74485269D01*
X102667505Y-74589713D01*
X102673897Y-74590385D01*
X103993698Y-74764140D01*
X104000054Y-74765146D01*
X105308960Y-75007738D01*
X105315300Y-75009085D01*
X106609675Y-75319838D01*
X106615921Y-75321511D01*
X107892279Y-75699586D01*
X107898434Y-75701586D01*
X109153246Y-76145938D01*
X109159307Y-76148265D01*
X110389118Y-76657669D01*
X110395044Y-76660307D01*
X111596542Y-77233392D01*
X111602306Y-77236330D01*
X112772162Y-77871509D01*
X112777757Y-77874739D01*
X113912753Y-78570266D01*
X113918195Y-78573800D01*
X114818700Y-79192700D01*
X115015239Y-79327777D01*
X115020486Y-79331589D01*
X116039536Y-80113535D01*
X116080739Y-80169962D01*
X116086640Y-80193265D01*
X116339152Y-81853526D01*
X116339153Y-81853529D01*
X116339154Y-81853530D01*
X117005918Y-82994081D01*
X118146469Y-83660845D01*
X118146472Y-83660845D01*
X118146473Y-83660846D01*
X118146472Y-83660846D01*
X118762232Y-83754498D01*
X119806735Y-83913359D01*
X119870050Y-83942899D01*
X119886461Y-83960459D01*
X120519332Y-84785232D01*
X120668405Y-84979507D01*
X120672221Y-84984759D01*
X121426197Y-86081801D01*
X121429732Y-86087245D01*
X122125251Y-87222229D01*
X122128497Y-87227851D01*
X122763663Y-88397682D01*
X122766611Y-88403467D01*
X123339689Y-89604950D01*
X123342329Y-89610880D01*
X123851733Y-90840691D01*
X123854060Y-90846752D01*
X124298409Y-92101555D01*
X124300415Y-92107729D01*
X124678483Y-93384065D01*
X124680163Y-93390336D01*
X124990911Y-94684693D01*
X124992261Y-94691043D01*
X125234847Y-95999916D01*
X125235862Y-96006328D01*
X125409609Y-97326069D01*
X125410288Y-97332525D01*
X125514728Y-98659574D01*
X125515068Y-98666057D01*
X125549914Y-99996753D01*
X125549914Y-100003245D01*
X125515068Y-101333941D01*
X125514728Y-101340424D01*
X125410288Y-102667473D01*
X125409609Y-102673929D01*
X125235862Y-103993670D01*
X125234847Y-104000082D01*
X124992261Y-105308955D01*
X124990911Y-105315305D01*
X124680163Y-106609662D01*
X124678483Y-106615933D01*
X124300415Y-107892269D01*
X124298409Y-107898443D01*
X123854060Y-109153246D01*
X123851733Y-109159307D01*
X123342329Y-110389118D01*
X123339689Y-110395048D01*
X122766611Y-111596531D01*
X122763663Y-111602316D01*
X122128497Y-112772148D01*
X122125251Y-112777770D01*
X121429732Y-113912753D01*
X121426197Y-113918197D01*
X120672221Y-115015239D01*
X120668405Y-115020491D01*
X119886464Y-116039536D01*
X119830036Y-116080739D01*
X119806733Y-116086640D01*
X118146472Y-116339152D01*
X117005916Y-117005919D01*
X116941972Y-117115300D01*
X116891144Y-117163240D01*
X116822466Y-117176091D01*
X116757744Y-117149771D01*
X116729384Y-117117815D01*
X116642315Y-116976654D01*
X116518344Y-116852683D01*
X116518340Y-116852680D01*
X116485745Y-116832575D01*
X116439020Y-116780627D01*
X116427799Y-116711665D01*
X116432913Y-116688712D01*
X116435641Y-116680312D01*
X116435646Y-116680304D01*
X116450500Y-116586519D01*
X116450499Y-115973482D01*
X116435646Y-115879696D01*
X116378050Y-115766658D01*
X116378046Y-115766654D01*
X116378045Y-115766652D01*
X116288347Y-115676954D01*
X116288344Y-115676952D01*
X116288342Y-115676950D01*
X116189600Y-115626638D01*
X116175301Y-115619352D01*
X116081524Y-115604500D01*
X115115800Y-115604500D01*
X115048761Y-115584815D01*
X115003006Y-115532011D01*
X114991800Y-115480500D01*
X114991800Y-114947273D01*
X116799500Y-114947273D01*
X116799500Y-115052727D01*
X116826793Y-115154587D01*
X116879520Y-115245913D01*
X116954087Y-115320480D01*
X117045413Y-115373207D01*
X117147273Y-115400500D01*
X117147275Y-115400500D01*
X117252725Y-115400500D01*
X117252727Y-115400500D01*
X117354587Y-115373207D01*
X117445913Y-115320480D01*
X117520480Y-115245913D01*
X117573207Y-115154587D01*
X117600500Y-115052727D01*
X117600500Y-114947273D01*
X119099500Y-114947273D01*
X119099500Y-115052727D01*
X119126793Y-115154587D01*
X119179520Y-115245913D01*
X119254087Y-115320480D01*
X119345413Y-115373207D01*
X119447273Y-115400500D01*
X119447275Y-115400500D01*
X119552725Y-115400500D01*
X119552727Y-115400500D01*
X119654587Y-115373207D01*
X119745913Y-115320480D01*
X119820480Y-115245913D01*
X119873207Y-115154587D01*
X119900500Y-115052727D01*
X119900500Y-114947273D01*
X119873207Y-114845413D01*
X119820480Y-114754087D01*
X119745913Y-114679520D01*
X119654587Y-114626793D01*
X119552727Y-114599500D01*
X119447273Y-114599500D01*
X119345413Y-114626793D01*
X119345410Y-114626794D01*
X119254085Y-114679521D01*
X119179521Y-114754085D01*
X119126794Y-114845410D01*
X119126793Y-114845413D01*
X119099500Y-114947273D01*
X117600500Y-114947273D01*
X117573207Y-114845413D01*
X117520480Y-114754087D01*
X117445913Y-114679520D01*
X117354587Y-114626793D01*
X117252727Y-114599500D01*
X117147273Y-114599500D01*
X117045413Y-114626793D01*
X117045410Y-114626794D01*
X116954085Y-114679521D01*
X116879521Y-114754085D01*
X116826794Y-114845410D01*
X116826793Y-114845413D01*
X116799500Y-114947273D01*
X114991800Y-114947273D01*
X114991800Y-114138997D01*
X114991801Y-114138988D01*
X114991801Y-114034847D01*
X114991801Y-114034846D01*
X114968763Y-113979228D01*
X114957470Y-113951964D01*
X114894036Y-113888530D01*
X114886971Y-113881465D01*
X114886964Y-113881459D01*
X112954486Y-111948981D01*
X112921001Y-111887658D01*
X112925985Y-111817966D01*
X112967857Y-111762033D01*
X113033321Y-111737616D01*
X113042167Y-111737300D01*
X118481503Y-111737300D01*
X118481511Y-111737301D01*
X118495945Y-111737301D01*
X118585653Y-111737301D01*
X118585655Y-111737301D01*
X118644260Y-111713025D01*
X118668536Y-111702970D01*
X118721645Y-111649860D01*
X118782964Y-111616378D01*
X118852656Y-111621362D01*
X118856774Y-111622982D01*
X118858851Y-111623842D01*
X118862856Y-111625501D01*
X118890365Y-111630973D01*
X118921352Y-111637137D01*
X118983263Y-111669521D01*
X119017837Y-111730237D01*
X119014098Y-111800006D01*
X118984842Y-111846435D01*
X118092598Y-112738681D01*
X118031275Y-112772166D01*
X118004917Y-112775000D01*
X117679116Y-112775000D01*
X117612077Y-112755315D01*
X117591436Y-112738682D01*
X117548785Y-112696032D01*
X117548784Y-112696031D01*
X117548782Y-112696029D01*
X117470772Y-112650989D01*
X117467719Y-112649226D01*
X117422510Y-112637113D01*
X117377303Y-112625000D01*
X117283697Y-112625000D01*
X117193280Y-112649226D01*
X117112218Y-112696029D01*
X117112215Y-112696031D01*
X117046031Y-112762215D01*
X117046029Y-112762218D01*
X116999226Y-112843280D01*
X116981486Y-112909490D01*
X116975000Y-112933697D01*
X116975000Y-113027303D01*
X116976009Y-113031067D01*
X116999226Y-113117719D01*
X117020587Y-113154716D01*
X117046029Y-113198782D01*
X117112218Y-113264971D01*
X117178085Y-113303000D01*
X117188191Y-113308835D01*
X117193282Y-113311774D01*
X117283697Y-113336000D01*
X117283699Y-113336000D01*
X117377301Y-113336000D01*
X117377303Y-113336000D01*
X117467718Y-113311774D01*
X117548782Y-113264971D01*
X117570110Y-113243642D01*
X117591436Y-113222318D01*
X117652759Y-113188834D01*
X117679116Y-113186000D01*
X118182276Y-113186000D01*
X118182277Y-113186000D01*
X118213562Y-113173041D01*
X118257806Y-113154715D01*
X118315615Y-113096906D01*
X120013014Y-111399507D01*
X120013015Y-111399506D01*
X120044300Y-111323976D01*
X120044300Y-111218433D01*
X120063985Y-111151394D01*
X120116789Y-111105639D01*
X120185947Y-111095695D01*
X120200394Y-111098658D01*
X120205058Y-111099907D01*
X120205062Y-111099910D01*
X120300565Y-111125500D01*
X120300568Y-111125500D01*
X120399432Y-111125500D01*
X120399435Y-111125500D01*
X120494938Y-111099910D01*
X120580562Y-111050475D01*
X120650475Y-110980562D01*
X120699910Y-110894938D01*
X120725500Y-110799435D01*
X120725500Y-110700565D01*
X120699910Y-110605062D01*
X120650475Y-110519438D01*
X120580562Y-110449525D01*
X120494938Y-110400090D01*
X120399435Y-110374500D01*
X120300565Y-110374500D01*
X120205062Y-110400090D01*
X120205060Y-110400091D01*
X120205059Y-110400091D01*
X120119436Y-110449526D01*
X120078320Y-110490641D01*
X120016997Y-110524125D01*
X119947305Y-110519139D01*
X119902960Y-110490639D01*
X118572905Y-109160584D01*
X118550784Y-109151421D01*
X118528662Y-109142258D01*
X118497377Y-109129300D01*
X117279683Y-109129300D01*
X117212644Y-109109615D01*
X117192002Y-109092981D01*
X115690422Y-107591401D01*
X115656937Y-107530078D01*
X115661921Y-107460386D01*
X115703793Y-107404453D01*
X115761921Y-107380780D01*
X115766322Y-107380200D01*
X115766335Y-107380200D01*
X115861838Y-107354610D01*
X115947462Y-107305175D01*
X116017375Y-107235262D01*
X116066810Y-107149638D01*
X116092400Y-107054135D01*
X116092400Y-106955265D01*
X116076861Y-106897273D01*
X116599500Y-106897273D01*
X116599500Y-107002727D01*
X116625742Y-107100662D01*
X116626793Y-107104586D01*
X116626794Y-107104589D01*
X116640132Y-107127691D01*
X116679520Y-107195913D01*
X116754087Y-107270480D01*
X116845413Y-107323207D01*
X116947273Y-107350500D01*
X116947275Y-107350500D01*
X117052725Y-107350500D01*
X117052727Y-107350500D01*
X117154587Y-107323207D01*
X117245913Y-107270480D01*
X117320480Y-107195913D01*
X117373207Y-107104587D01*
X117400500Y-107002727D01*
X117400500Y-106897273D01*
X117373207Y-106795413D01*
X117320480Y-106704087D01*
X117245913Y-106629520D01*
X117154587Y-106576793D01*
X117052727Y-106549500D01*
X116947273Y-106549500D01*
X116845413Y-106576793D01*
X116845410Y-106576794D01*
X116754085Y-106629521D01*
X116679521Y-106704085D01*
X116626794Y-106795410D01*
X116626793Y-106795413D01*
X116599500Y-106897273D01*
X116076861Y-106897273D01*
X116066810Y-106859762D01*
X116017375Y-106774138D01*
X115998296Y-106755059D01*
X115978718Y-106735480D01*
X115945233Y-106674157D01*
X115942400Y-106647800D01*
X115942400Y-106500565D01*
X118449500Y-106500565D01*
X118449500Y-106599435D01*
X118475090Y-106694938D01*
X118524525Y-106780562D01*
X118594438Y-106850475D01*
X118680062Y-106899910D01*
X118709906Y-106907906D01*
X118769566Y-106944271D01*
X118797587Y-106995587D01*
X118826793Y-107104588D01*
X118826794Y-107104589D01*
X118840132Y-107127691D01*
X118879520Y-107195913D01*
X118954087Y-107270480D01*
X119045413Y-107323207D01*
X119147273Y-107350500D01*
X119147275Y-107350500D01*
X119252725Y-107350500D01*
X119252727Y-107350500D01*
X119354587Y-107323207D01*
X119445913Y-107270480D01*
X119520480Y-107195913D01*
X119573207Y-107104587D01*
X119600500Y-107002727D01*
X119600500Y-106897273D01*
X119573207Y-106795413D01*
X119520480Y-106704087D01*
X119445913Y-106629520D01*
X119379059Y-106590922D01*
X119354589Y-106576794D01*
X119354588Y-106576793D01*
X119354587Y-106576793D01*
X119279736Y-106556737D01*
X119220077Y-106520373D01*
X119192057Y-106469058D01*
X119174910Y-106405062D01*
X119125475Y-106319438D01*
X119055562Y-106249525D01*
X118969938Y-106200090D01*
X118874435Y-106174500D01*
X118775565Y-106174500D01*
X118680062Y-106200090D01*
X118680060Y-106200091D01*
X118680059Y-106200091D01*
X118594436Y-106249526D01*
X118524526Y-106319436D01*
X118475091Y-106405059D01*
X118475091Y-106405060D01*
X118475090Y-106405062D01*
X118449500Y-106500565D01*
X115942400Y-106500565D01*
X115942400Y-106234766D01*
X115962085Y-106167727D01*
X115978714Y-106147090D01*
X117029568Y-105096235D01*
X117090889Y-105062752D01*
X117160581Y-105067736D01*
X117216514Y-105109608D01*
X117237021Y-105151822D01*
X117237990Y-105155438D01*
X117287425Y-105241062D01*
X117357338Y-105310975D01*
X117442962Y-105360410D01*
X117538465Y-105386000D01*
X117538467Y-105386000D01*
X117637332Y-105386000D01*
X117637335Y-105386000D01*
X117732838Y-105360410D01*
X117818462Y-105310975D01*
X117888375Y-105241062D01*
X117937810Y-105155438D01*
X117963400Y-105059935D01*
X117963400Y-104961065D01*
X117937810Y-104865562D01*
X117888375Y-104779938D01*
X117818462Y-104710025D01*
X117748096Y-104669399D01*
X117732840Y-104660591D01*
X117732835Y-104660589D01*
X117729222Y-104659621D01*
X117726517Y-104657972D01*
X117725331Y-104657481D01*
X117725407Y-104657295D01*
X117669562Y-104623255D01*
X117639034Y-104560408D01*
X117647331Y-104491032D01*
X117673634Y-104452169D01*
X118191696Y-103934108D01*
X121599500Y-103934108D01*
X121599500Y-104065892D01*
X121601726Y-104074200D01*
X121633608Y-104193187D01*
X121657367Y-104234338D01*
X121699500Y-104307314D01*
X121792686Y-104400500D01*
X121906814Y-104466392D01*
X122034108Y-104500500D01*
X122034110Y-104500500D01*
X122165890Y-104500500D01*
X122165892Y-104500500D01*
X122293186Y-104466392D01*
X122407314Y-104400500D01*
X122500500Y-104307314D01*
X122566392Y-104193186D01*
X122600500Y-104065892D01*
X122600500Y-103934108D01*
X123399500Y-103934108D01*
X123399500Y-104065892D01*
X123401726Y-104074200D01*
X123433608Y-104193187D01*
X123457367Y-104234338D01*
X123499500Y-104307314D01*
X123592686Y-104400500D01*
X123706814Y-104466392D01*
X123834108Y-104500500D01*
X123834110Y-104500500D01*
X123965890Y-104500500D01*
X123965892Y-104500500D01*
X124093186Y-104466392D01*
X124207314Y-104400500D01*
X124300500Y-104307314D01*
X124366392Y-104193186D01*
X124400500Y-104065892D01*
X124400500Y-103934108D01*
X124366392Y-103806814D01*
X124300500Y-103692686D01*
X124207314Y-103599500D01*
X124142863Y-103562289D01*
X124093187Y-103533608D01*
X124029539Y-103516554D01*
X123965892Y-103499500D01*
X123834108Y-103499500D01*
X123706812Y-103533608D01*
X123592686Y-103599500D01*
X123592683Y-103599502D01*
X123499502Y-103692683D01*
X123499500Y-103692686D01*
X123433608Y-103806812D01*
X123410193Y-103894200D01*
X123399500Y-103934108D01*
X122600500Y-103934108D01*
X122566392Y-103806814D01*
X122500500Y-103692686D01*
X122407314Y-103599500D01*
X122342863Y-103562289D01*
X122293187Y-103533608D01*
X122229539Y-103516554D01*
X122165892Y-103499500D01*
X122034108Y-103499500D01*
X121906812Y-103533608D01*
X121792686Y-103599500D01*
X121792683Y-103599502D01*
X121699502Y-103692683D01*
X121699500Y-103692686D01*
X121633608Y-103806812D01*
X121610193Y-103894200D01*
X121599500Y-103934108D01*
X118191696Y-103934108D01*
X118635385Y-103490419D01*
X118696708Y-103456934D01*
X118723066Y-103454100D01*
X118777732Y-103454100D01*
X118777735Y-103454100D01*
X118873238Y-103428510D01*
X118958862Y-103379075D01*
X119028775Y-103309162D01*
X119078210Y-103223538D01*
X119103800Y-103128035D01*
X119103800Y-103128032D01*
X119104861Y-103119975D01*
X119107743Y-103120354D01*
X119123485Y-103066744D01*
X119176289Y-103020989D01*
X119245447Y-103011045D01*
X119309003Y-103040070D01*
X119315481Y-103046102D01*
X119448285Y-103178906D01*
X119506094Y-103236715D01*
X119539133Y-103250400D01*
X119581623Y-103268000D01*
X119581624Y-103268000D01*
X121279676Y-103268000D01*
X121279677Y-103268000D01*
X121322167Y-103250400D01*
X121355206Y-103236715D01*
X121413015Y-103178906D01*
X122174214Y-102417707D01*
X122174215Y-102417706D01*
X122195548Y-102366203D01*
X122195549Y-102366202D01*
X122205498Y-102342181D01*
X122205500Y-102342177D01*
X122205500Y-102260423D01*
X122205500Y-100680182D01*
X122225185Y-100613143D01*
X122277989Y-100567388D01*
X122282047Y-100565621D01*
X122286647Y-100563715D01*
X122298654Y-100558742D01*
X122401920Y-100489742D01*
X122489742Y-100401920D01*
X122558742Y-100298654D01*
X122606271Y-100183910D01*
X122630500Y-100062099D01*
X122630500Y-99937901D01*
X122606271Y-99816090D01*
X122558742Y-99701346D01*
X122558740Y-99701343D01*
X122558738Y-99701339D01*
X122489742Y-99598080D01*
X122489739Y-99598076D01*
X122401923Y-99510260D01*
X122401919Y-99510257D01*
X122298660Y-99441261D01*
X122298650Y-99441256D01*
X122183912Y-99393730D01*
X122183913Y-99393730D01*
X122183910Y-99393729D01*
X122183906Y-99393728D01*
X122183902Y-99393727D01*
X122062103Y-99369500D01*
X122062099Y-99369500D01*
X121937901Y-99369500D01*
X121937896Y-99369500D01*
X121816097Y-99393727D01*
X121816087Y-99393730D01*
X121701349Y-99441256D01*
X121701339Y-99441261D01*
X121598080Y-99510257D01*
X121598076Y-99510260D01*
X121510260Y-99598076D01*
X121510257Y-99598080D01*
X121441261Y-99701339D01*
X121441256Y-99701349D01*
X121393730Y-99816087D01*
X121393727Y-99816097D01*
X121369500Y-99937896D01*
X121369500Y-100062103D01*
X121392499Y-100177726D01*
X121393729Y-100183910D01*
X121409572Y-100222158D01*
X121441256Y-100298650D01*
X121441261Y-100298660D01*
X121510257Y-100401919D01*
X121510260Y-100401923D01*
X121598076Y-100489739D01*
X121598080Y-100489742D01*
X121701339Y-100558738D01*
X121701348Y-100558743D01*
X121717953Y-100565621D01*
X121772356Y-100609462D01*
X121794421Y-100675756D01*
X121794500Y-100680182D01*
X121794500Y-102164817D01*
X121774815Y-102231856D01*
X121758185Y-102252493D01*
X121675302Y-102335377D01*
X121609703Y-102400976D01*
X121548380Y-102434460D01*
X121478688Y-102429476D01*
X121422755Y-102387604D01*
X121414642Y-102375305D01*
X121392375Y-102336738D01*
X121322462Y-102266825D01*
X121236838Y-102217390D01*
X121141335Y-102191800D01*
X121042465Y-102191800D01*
X120946962Y-102217390D01*
X120946960Y-102217391D01*
X120946959Y-102217391D01*
X120861336Y-102266826D01*
X120822680Y-102305482D01*
X120761357Y-102338967D01*
X120735000Y-102341800D01*
X120367567Y-102341800D01*
X120300528Y-102322115D01*
X120279886Y-102305481D01*
X116379211Y-98404806D01*
X116379209Y-98404803D01*
X116298338Y-98323932D01*
X116298336Y-98323930D01*
X116271458Y-98312797D01*
X116262292Y-98309000D01*
X116215457Y-98289599D01*
X116215455Y-98289599D01*
X116125745Y-98289599D01*
X116111311Y-98289599D01*
X116111303Y-98289600D01*
X105751336Y-98289600D01*
X105684297Y-98269915D01*
X105663156Y-98252780D01*
X105632256Y-98221526D01*
X104794542Y-97374208D01*
X103964925Y-96535080D01*
X103931791Y-96473567D01*
X103937172Y-96403905D01*
X103979362Y-96348211D01*
X104044964Y-96324168D01*
X104053105Y-96323900D01*
X109187000Y-96323900D01*
X109254039Y-96343585D01*
X109274680Y-96360218D01*
X109299401Y-96384938D01*
X109313338Y-96398875D01*
X109398962Y-96448310D01*
X109494465Y-96473900D01*
X109494467Y-96473900D01*
X109593332Y-96473900D01*
X109593335Y-96473900D01*
X109688838Y-96448310D01*
X109774462Y-96398875D01*
X109830272Y-96343065D01*
X117059300Y-96343065D01*
X117059300Y-96441935D01*
X117084890Y-96537438D01*
X117134325Y-96623062D01*
X117204238Y-96692975D01*
X117289862Y-96742410D01*
X117385365Y-96768000D01*
X117385367Y-96768000D01*
X117484232Y-96768000D01*
X117484235Y-96768000D01*
X117579738Y-96742410D01*
X117665362Y-96692975D01*
X117684691Y-96673645D01*
X117704020Y-96654318D01*
X117765343Y-96620833D01*
X117791700Y-96618000D01*
X119104603Y-96618000D01*
X119104611Y-96618001D01*
X119119045Y-96618001D01*
X119208754Y-96618001D01*
X119208755Y-96618001D01*
X119276571Y-96589910D01*
X119291636Y-96583670D01*
X119355070Y-96520236D01*
X119355070Y-96520235D01*
X119372508Y-96502797D01*
X119372510Y-96502794D01*
X120919443Y-94955860D01*
X120980764Y-94922377D01*
X121050456Y-94927361D01*
X121054560Y-94928976D01*
X121060656Y-94931501D01*
X121060659Y-94931501D01*
X121060660Y-94931502D01*
X121186328Y-94956500D01*
X121186331Y-94956500D01*
X121314471Y-94956500D01*
X121424509Y-94934611D01*
X121440144Y-94931501D01*
X121558527Y-94882465D01*
X121665069Y-94811276D01*
X121755676Y-94720669D01*
X121826865Y-94614127D01*
X121875901Y-94495744D01*
X121884491Y-94452562D01*
X121900900Y-94370071D01*
X121900900Y-94241928D01*
X121875902Y-94116261D01*
X121875901Y-94116260D01*
X121875901Y-94116256D01*
X121826865Y-93997873D01*
X121826864Y-93997872D01*
X121826861Y-93997866D01*
X121755676Y-93891331D01*
X121755673Y-93891327D01*
X121665072Y-93800726D01*
X121665068Y-93800723D01*
X121558533Y-93729538D01*
X121558524Y-93729533D01*
X121440144Y-93680499D01*
X121440138Y-93680497D01*
X121314471Y-93655500D01*
X121314469Y-93655500D01*
X121186331Y-93655500D01*
X121186329Y-93655500D01*
X121060661Y-93680497D01*
X121060655Y-93680499D01*
X120942275Y-93729533D01*
X120942266Y-93729538D01*
X120835731Y-93800723D01*
X120835727Y-93800726D01*
X120745126Y-93891327D01*
X120745123Y-93891331D01*
X120673938Y-93997866D01*
X120673933Y-93997875D01*
X120624899Y-94116255D01*
X120624897Y-94116261D01*
X120599900Y-94241928D01*
X120599900Y-94241931D01*
X120599900Y-94370069D01*
X120599900Y-94370071D01*
X120599899Y-94370071D01*
X120624897Y-94495738D01*
X120624899Y-94495745D01*
X120627416Y-94501820D01*
X120634886Y-94571290D01*
X120603612Y-94633769D01*
X120600537Y-94636956D01*
X119106814Y-96130681D01*
X119045491Y-96164166D01*
X119019133Y-96167000D01*
X117791700Y-96167000D01*
X117724661Y-96147315D01*
X117704020Y-96130682D01*
X117665363Y-96092026D01*
X117665362Y-96092025D01*
X117579738Y-96042590D01*
X117484235Y-96017000D01*
X117385365Y-96017000D01*
X117289862Y-96042590D01*
X117289860Y-96042591D01*
X117289859Y-96042591D01*
X117204236Y-96092026D01*
X117134326Y-96161936D01*
X117084891Y-96247559D01*
X117084891Y-96247560D01*
X117084890Y-96247562D01*
X117059300Y-96343065D01*
X109830272Y-96343065D01*
X109844375Y-96328962D01*
X109893810Y-96243338D01*
X109919400Y-96147835D01*
X109919400Y-96048965D01*
X109893810Y-95953462D01*
X109844375Y-95867838D01*
X109774462Y-95797925D01*
X109688838Y-95748490D01*
X109593335Y-95722900D01*
X109494465Y-95722900D01*
X109398962Y-95748490D01*
X109398960Y-95748491D01*
X109398959Y-95748491D01*
X109313336Y-95797926D01*
X109274680Y-95836582D01*
X109213357Y-95870067D01*
X109187000Y-95872900D01*
X104038267Y-95872900D01*
X103971228Y-95853215D01*
X103950586Y-95836581D01*
X102034270Y-93920265D01*
X106593400Y-93920265D01*
X106593400Y-94019135D01*
X106618990Y-94114638D01*
X106618991Y-94114639D01*
X106618991Y-94114640D01*
X106619924Y-94116256D01*
X106668425Y-94200262D01*
X106738338Y-94270175D01*
X106823962Y-94319610D01*
X106919465Y-94345200D01*
X106919467Y-94345200D01*
X107018332Y-94345200D01*
X107018335Y-94345200D01*
X107113838Y-94319610D01*
X107199462Y-94270175D01*
X107269375Y-94200262D01*
X107318810Y-94114638D01*
X107344400Y-94019135D01*
X107344400Y-93920265D01*
X107318810Y-93824762D01*
X107269375Y-93739138D01*
X107199462Y-93669225D01*
X107113838Y-93619790D01*
X107018335Y-93594200D01*
X106919465Y-93594200D01*
X106823962Y-93619790D01*
X106823960Y-93619791D01*
X106823959Y-93619791D01*
X106738336Y-93669226D01*
X106668426Y-93739136D01*
X106618991Y-93824759D01*
X106618991Y-93824760D01*
X106618990Y-93824762D01*
X106593400Y-93920265D01*
X102034270Y-93920265D01*
X101804286Y-93690281D01*
X101770801Y-93628958D01*
X101775785Y-93559266D01*
X101817657Y-93503333D01*
X101883121Y-93478916D01*
X101891967Y-93478600D01*
X106098103Y-93478600D01*
X106098111Y-93478601D01*
X106112545Y-93478601D01*
X106202253Y-93478601D01*
X106202255Y-93478601D01*
X106260860Y-93454325D01*
X106285136Y-93444270D01*
X106348570Y-93380836D01*
X106348570Y-93380835D01*
X106366008Y-93363397D01*
X106366009Y-93363394D01*
X110875970Y-88853436D01*
X110875970Y-88853434D01*
X110875972Y-88853433D01*
X110893559Y-88810973D01*
X110910300Y-88770555D01*
X110910300Y-88680846D01*
X110910300Y-86247067D01*
X110929985Y-86180028D01*
X110946619Y-86159386D01*
X111092540Y-86013465D01*
X112051100Y-86013465D01*
X112051100Y-86112335D01*
X112076690Y-86207838D01*
X112126125Y-86293462D01*
X112196038Y-86363375D01*
X112281662Y-86412810D01*
X112377165Y-86438400D01*
X112377167Y-86438400D01*
X112476032Y-86438400D01*
X112476035Y-86438400D01*
X112571538Y-86412810D01*
X112657162Y-86363375D01*
X112676491Y-86344045D01*
X112695820Y-86324718D01*
X112757143Y-86291233D01*
X112783500Y-86288400D01*
X113877703Y-86288400D01*
X113877711Y-86288401D01*
X113892145Y-86288401D01*
X113981853Y-86288401D01*
X113981855Y-86288401D01*
X114040460Y-86264125D01*
X114064736Y-86254070D01*
X114128170Y-86190636D01*
X114128170Y-86190635D01*
X114145608Y-86173197D01*
X114145610Y-86173194D01*
X114229439Y-86089365D01*
X115073200Y-86089365D01*
X115073200Y-86188235D01*
X115098790Y-86283738D01*
X115098791Y-86283739D01*
X115098791Y-86283740D01*
X115101482Y-86288401D01*
X115148225Y-86369362D01*
X115218138Y-86439275D01*
X115303762Y-86488710D01*
X115399265Y-86514300D01*
X115399267Y-86514300D01*
X115498132Y-86514300D01*
X115498135Y-86514300D01*
X115593638Y-86488710D01*
X115679262Y-86439275D01*
X115749175Y-86369362D01*
X115798610Y-86283738D01*
X115824200Y-86188235D01*
X115824200Y-86089365D01*
X115798610Y-85993862D01*
X115749175Y-85908238D01*
X115679262Y-85838325D01*
X115593638Y-85788890D01*
X115498135Y-85763300D01*
X115399265Y-85763300D01*
X115303762Y-85788890D01*
X115303760Y-85788891D01*
X115303759Y-85788891D01*
X115218136Y-85838326D01*
X115148226Y-85908236D01*
X115098791Y-85993859D01*
X115098791Y-85993860D01*
X115098790Y-85993862D01*
X115073200Y-86089365D01*
X114229439Y-86089365D01*
X115225343Y-85093460D01*
X115286664Y-85059977D01*
X115356356Y-85064961D01*
X115360460Y-85066576D01*
X115366556Y-85069101D01*
X115366559Y-85069101D01*
X115366560Y-85069102D01*
X115492228Y-85094100D01*
X115492231Y-85094100D01*
X115620371Y-85094100D01*
X115704915Y-85077282D01*
X115746044Y-85069101D01*
X115864427Y-85020065D01*
X115970969Y-84948876D01*
X116061576Y-84858269D01*
X116132765Y-84751727D01*
X116181801Y-84633344D01*
X116190825Y-84587981D01*
X116206800Y-84507671D01*
X116206800Y-84379528D01*
X116181802Y-84253861D01*
X116181801Y-84253860D01*
X116181801Y-84253856D01*
X116132765Y-84135473D01*
X116132764Y-84135472D01*
X116132761Y-84135466D01*
X116061576Y-84028931D01*
X116061573Y-84028927D01*
X115970972Y-83938326D01*
X115970968Y-83938323D01*
X115864433Y-83867138D01*
X115864424Y-83867133D01*
X115746044Y-83818099D01*
X115746038Y-83818097D01*
X115620371Y-83793100D01*
X115620369Y-83793100D01*
X115492231Y-83793100D01*
X115492229Y-83793100D01*
X115366561Y-83818097D01*
X115366555Y-83818099D01*
X115248175Y-83867133D01*
X115248166Y-83867138D01*
X115141631Y-83938323D01*
X115141627Y-83938326D01*
X115051026Y-84028927D01*
X115051023Y-84028931D01*
X114979838Y-84135466D01*
X114979833Y-84135475D01*
X114930799Y-84253855D01*
X114930797Y-84253861D01*
X114905800Y-84379528D01*
X114905800Y-84379531D01*
X114905800Y-84507669D01*
X114905800Y-84507671D01*
X114905799Y-84507671D01*
X114930797Y-84633338D01*
X114930799Y-84633345D01*
X114933316Y-84639420D01*
X114940786Y-84708890D01*
X114909512Y-84771369D01*
X114906437Y-84774556D01*
X113879914Y-85801081D01*
X113818591Y-85834566D01*
X113792233Y-85837400D01*
X112783500Y-85837400D01*
X112716461Y-85817715D01*
X112695820Y-85801082D01*
X112657163Y-85762426D01*
X112657162Y-85762425D01*
X112571538Y-85712990D01*
X112476035Y-85687400D01*
X112377165Y-85687400D01*
X112281662Y-85712990D01*
X112281660Y-85712991D01*
X112281659Y-85712991D01*
X112196036Y-85762426D01*
X112126126Y-85832336D01*
X112076691Y-85917959D01*
X112076691Y-85917960D01*
X112076690Y-85917962D01*
X112051100Y-86013465D01*
X111092540Y-86013465D01*
X112046028Y-85059977D01*
X113184070Y-83921936D01*
X113184070Y-83921934D01*
X113184072Y-83921933D01*
X113206770Y-83867133D01*
X113218400Y-83839055D01*
X113218400Y-83749346D01*
X113218400Y-83327745D01*
X113207115Y-83300500D01*
X113184072Y-83244866D01*
X113113571Y-83174365D01*
X113113564Y-83174359D01*
X112635911Y-82696706D01*
X112635909Y-82696703D01*
X112555037Y-82615831D01*
X112555036Y-82615830D01*
X112526582Y-82604044D01*
X112472155Y-82581499D01*
X112382445Y-82581499D01*
X112368011Y-82581499D01*
X112368003Y-82581500D01*
X111091000Y-82581500D01*
X111023961Y-82561815D01*
X111003320Y-82545182D01*
X110964663Y-82506526D01*
X110964662Y-82506525D01*
X110879038Y-82457090D01*
X110783535Y-82431500D01*
X110684665Y-82431500D01*
X110589162Y-82457090D01*
X110589160Y-82457091D01*
X110589159Y-82457091D01*
X110503536Y-82506526D01*
X110433626Y-82576436D01*
X110384191Y-82662059D01*
X110384191Y-82662060D01*
X110384190Y-82662062D01*
X110358600Y-82757565D01*
X110358600Y-82856435D01*
X110384190Y-82951938D01*
X110430702Y-83032500D01*
X110433626Y-83037563D01*
X110487882Y-83091819D01*
X110521367Y-83153142D01*
X110516383Y-83222834D01*
X110474511Y-83278767D01*
X110409047Y-83303184D01*
X110400201Y-83303500D01*
X99230168Y-83303500D01*
X99163129Y-83283815D01*
X99142487Y-83267181D01*
X98328943Y-82453637D01*
X97407271Y-81531965D01*
X108293300Y-81531965D01*
X108293300Y-81630835D01*
X108318890Y-81726338D01*
X108368325Y-81811962D01*
X108438238Y-81881875D01*
X108523862Y-81931310D01*
X108619365Y-81956900D01*
X108619367Y-81956900D01*
X108718232Y-81956900D01*
X108718235Y-81956900D01*
X108813738Y-81931310D01*
X108899362Y-81881875D01*
X108927711Y-81853526D01*
X108938020Y-81843218D01*
X108999343Y-81809733D01*
X109025700Y-81806900D01*
X110306703Y-81806900D01*
X110306711Y-81806901D01*
X110321145Y-81806901D01*
X110410854Y-81806901D01*
X110410855Y-81806901D01*
X110477575Y-81779264D01*
X110493736Y-81772570D01*
X110557170Y-81709136D01*
X110557170Y-81709135D01*
X110574608Y-81691697D01*
X110574610Y-81691694D01*
X110669043Y-81597260D01*
X110730364Y-81563777D01*
X110800056Y-81568761D01*
X110804160Y-81570376D01*
X110810256Y-81572901D01*
X110810259Y-81572901D01*
X110810260Y-81572902D01*
X110935928Y-81597900D01*
X110935931Y-81597900D01*
X111064071Y-81597900D01*
X111151678Y-81580473D01*
X111189744Y-81572901D01*
X111308127Y-81523865D01*
X111414669Y-81452676D01*
X111505276Y-81362069D01*
X111576465Y-81255527D01*
X111625501Y-81137144D01*
X111632678Y-81101065D01*
X112516000Y-81101065D01*
X112516000Y-81199935D01*
X112541590Y-81295438D01*
X112591025Y-81381062D01*
X112660938Y-81450975D01*
X112746562Y-81500410D01*
X112842065Y-81526000D01*
X112842067Y-81526000D01*
X112940932Y-81526000D01*
X112940935Y-81526000D01*
X113036438Y-81500410D01*
X113122062Y-81450975D01*
X113191975Y-81381062D01*
X113241410Y-81295438D01*
X113267000Y-81199935D01*
X113267000Y-81101065D01*
X113241410Y-81005562D01*
X113191975Y-80919938D01*
X113122062Y-80850025D01*
X113036438Y-80800590D01*
X112940935Y-80775000D01*
X112842065Y-80775000D01*
X112746562Y-80800590D01*
X112746560Y-80800591D01*
X112746559Y-80800591D01*
X112660936Y-80850026D01*
X112591026Y-80919936D01*
X112541591Y-81005559D01*
X112541591Y-81005560D01*
X112541590Y-81005562D01*
X112516000Y-81101065D01*
X111632678Y-81101065D01*
X111642742Y-81050473D01*
X111650500Y-81011471D01*
X111650500Y-80883328D01*
X111625502Y-80757661D01*
X111625501Y-80757660D01*
X111625501Y-80757656D01*
X111576465Y-80639273D01*
X111576464Y-80639272D01*
X111576461Y-80639266D01*
X111505276Y-80532731D01*
X111505273Y-80532727D01*
X111414672Y-80442126D01*
X111414667Y-80442122D01*
X111308133Y-80370938D01*
X111308124Y-80370933D01*
X111189744Y-80321899D01*
X111189738Y-80321897D01*
X111064071Y-80296900D01*
X111064069Y-80296900D01*
X110935931Y-80296900D01*
X110935929Y-80296900D01*
X110810261Y-80321897D01*
X110810255Y-80321899D01*
X110691875Y-80370933D01*
X110691866Y-80370938D01*
X110585333Y-80442122D01*
X110585327Y-80442126D01*
X110494726Y-80532727D01*
X110494723Y-80532731D01*
X110423538Y-80639266D01*
X110423533Y-80639275D01*
X110374499Y-80757655D01*
X110374497Y-80757661D01*
X110349500Y-80883328D01*
X110349500Y-80883331D01*
X110349500Y-81011469D01*
X110349500Y-81011471D01*
X110349499Y-81011471D01*
X110374497Y-81137138D01*
X110374500Y-81137147D01*
X110377019Y-81143229D01*
X110384484Y-81212699D01*
X110353205Y-81275176D01*
X110350138Y-81278354D01*
X110308915Y-81319579D01*
X110247593Y-81353066D01*
X110221232Y-81355900D01*
X109726543Y-81355900D01*
X109659504Y-81336215D01*
X109613749Y-81283411D01*
X109603805Y-81214253D01*
X109632830Y-81150697D01*
X109691608Y-81112923D01*
X109694405Y-81112137D01*
X109740038Y-81099910D01*
X109825662Y-81050475D01*
X109895575Y-80980562D01*
X109945010Y-80894938D01*
X109970600Y-80799435D01*
X109970600Y-80700565D01*
X109945010Y-80605062D01*
X109895575Y-80519438D01*
X109825662Y-80449525D01*
X109740038Y-80400090D01*
X109644535Y-80374500D01*
X109545665Y-80374500D01*
X109450162Y-80400090D01*
X109450160Y-80400091D01*
X109450159Y-80400091D01*
X109364536Y-80449526D01*
X109294626Y-80519436D01*
X109245191Y-80605059D01*
X109245191Y-80605060D01*
X109245190Y-80605062D01*
X109219600Y-80700565D01*
X109219600Y-80799435D01*
X109245190Y-80894938D01*
X109294625Y-80980562D01*
X109364538Y-81050475D01*
X109450162Y-81099910D01*
X109495752Y-81112125D01*
X109555411Y-81148490D01*
X109585940Y-81211337D01*
X109577645Y-81280713D01*
X109533160Y-81334591D01*
X109466608Y-81355865D01*
X109463657Y-81355900D01*
X109025700Y-81355900D01*
X108958661Y-81336215D01*
X108938020Y-81319582D01*
X108899363Y-81280926D01*
X108899362Y-81280925D01*
X108813738Y-81231490D01*
X108718235Y-81205900D01*
X108619365Y-81205900D01*
X108523862Y-81231490D01*
X108523860Y-81231491D01*
X108523859Y-81231491D01*
X108438236Y-81280926D01*
X108368326Y-81350836D01*
X108318891Y-81436459D01*
X108318891Y-81436460D01*
X108318890Y-81436462D01*
X108293300Y-81531965D01*
X97407271Y-81531965D01*
X96341670Y-80466365D01*
X98908800Y-80466365D01*
X98908800Y-80565235D01*
X98934390Y-80660738D01*
X98983825Y-80746362D01*
X99053738Y-80816275D01*
X99139362Y-80865710D01*
X99234865Y-80891300D01*
X99234867Y-80891300D01*
X99333732Y-80891300D01*
X99333735Y-80891300D01*
X99429238Y-80865710D01*
X99514862Y-80816275D01*
X99584775Y-80746362D01*
X99634210Y-80660738D01*
X99659800Y-80565235D01*
X99659800Y-80494865D01*
X100150700Y-80494865D01*
X100150700Y-80593735D01*
X100176290Y-80689238D01*
X100225725Y-80774862D01*
X100295638Y-80844775D01*
X100381262Y-80894210D01*
X100476765Y-80919800D01*
X100476767Y-80919800D01*
X100575632Y-80919800D01*
X100575635Y-80919800D01*
X100671138Y-80894210D01*
X100756762Y-80844775D01*
X100826675Y-80774862D01*
X100876110Y-80689238D01*
X100901700Y-80593735D01*
X100901700Y-80494865D01*
X100876110Y-80399362D01*
X100826675Y-80313738D01*
X100756762Y-80243825D01*
X100671138Y-80194390D01*
X100575635Y-80168800D01*
X100476765Y-80168800D01*
X100381262Y-80194390D01*
X100381260Y-80194391D01*
X100381259Y-80194391D01*
X100295636Y-80243826D01*
X100225726Y-80313736D01*
X100176291Y-80399359D01*
X100176291Y-80399360D01*
X100176290Y-80399362D01*
X100150700Y-80494865D01*
X99659800Y-80494865D01*
X99659800Y-80466365D01*
X99634210Y-80370862D01*
X99584775Y-80285238D01*
X99514862Y-80215325D01*
X99429238Y-80165890D01*
X99333735Y-80140300D01*
X99234865Y-80140300D01*
X99139362Y-80165890D01*
X99139360Y-80165891D01*
X99139359Y-80165891D01*
X99053736Y-80215326D01*
X98983826Y-80285236D01*
X98934391Y-80370859D01*
X98934391Y-80370860D01*
X98934390Y-80370862D01*
X98908800Y-80466365D01*
X96341670Y-80466365D01*
X95394070Y-79518765D01*
X104499900Y-79518765D01*
X104499900Y-79617635D01*
X104525490Y-79713138D01*
X104574925Y-79798762D01*
X104644838Y-79868675D01*
X104730462Y-79918110D01*
X104825965Y-79943700D01*
X104825967Y-79943700D01*
X104924832Y-79943700D01*
X104924835Y-79943700D01*
X105020338Y-79918110D01*
X105105962Y-79868675D01*
X105151372Y-79823265D01*
X107943500Y-79823265D01*
X107943500Y-79922135D01*
X107969090Y-80017638D01*
X108018525Y-80103262D01*
X108088438Y-80173175D01*
X108174062Y-80222610D01*
X108269565Y-80248200D01*
X108269567Y-80248200D01*
X108368432Y-80248200D01*
X108368435Y-80248200D01*
X108463938Y-80222610D01*
X108549562Y-80173175D01*
X108619475Y-80103262D01*
X108668910Y-80017638D01*
X108694500Y-79922135D01*
X108694500Y-79823265D01*
X108668910Y-79727762D01*
X108619475Y-79642138D01*
X108549562Y-79572225D01*
X108463938Y-79522790D01*
X108368435Y-79497200D01*
X108269565Y-79497200D01*
X108174062Y-79522790D01*
X108174060Y-79522791D01*
X108174059Y-79522791D01*
X108088436Y-79572226D01*
X108018526Y-79642136D01*
X107969091Y-79727759D01*
X107969091Y-79727760D01*
X107969090Y-79727762D01*
X107943500Y-79823265D01*
X105151372Y-79823265D01*
X105175875Y-79798762D01*
X105225310Y-79713138D01*
X105250900Y-79617635D01*
X105250900Y-79562966D01*
X105270585Y-79495927D01*
X105287213Y-79475290D01*
X105363044Y-79399459D01*
X105424363Y-79365977D01*
X105494055Y-79370961D01*
X105498161Y-79372576D01*
X105504256Y-79375101D01*
X105504259Y-79375101D01*
X105504260Y-79375102D01*
X105629928Y-79400100D01*
X105629931Y-79400100D01*
X105758071Y-79400100D01*
X105842615Y-79383282D01*
X105883744Y-79375101D01*
X106002127Y-79326065D01*
X106108669Y-79254876D01*
X106199276Y-79164269D01*
X106270465Y-79057727D01*
X106319501Y-78939344D01*
X106327682Y-78898215D01*
X106344500Y-78813671D01*
X106344500Y-78685528D01*
X106319502Y-78559861D01*
X106319501Y-78559860D01*
X106319501Y-78559856D01*
X106281574Y-78468292D01*
X106270466Y-78441475D01*
X106270461Y-78441466D01*
X106230387Y-78381491D01*
X106209509Y-78314813D01*
X106227994Y-78247433D01*
X106279972Y-78200743D01*
X106333489Y-78188600D01*
X106337732Y-78188600D01*
X106337735Y-78188600D01*
X106433238Y-78163010D01*
X106518862Y-78113575D01*
X106588775Y-78043662D01*
X106638210Y-77958038D01*
X106663800Y-77862535D01*
X106663800Y-77763665D01*
X106638210Y-77668162D01*
X106588775Y-77582538D01*
X106518862Y-77512625D01*
X106433238Y-77463190D01*
X106337735Y-77437600D01*
X106238865Y-77437600D01*
X106143362Y-77463190D01*
X106143360Y-77463191D01*
X106143359Y-77463191D01*
X106057736Y-77512626D01*
X105987826Y-77582536D01*
X105938391Y-77668159D01*
X105938391Y-77668160D01*
X105938390Y-77668162D01*
X105912800Y-77763665D01*
X105912800Y-77862535D01*
X105936857Y-77952316D01*
X105935194Y-78022165D01*
X105896031Y-78080028D01*
X105831803Y-78107532D01*
X105792890Y-78106026D01*
X105758071Y-78099100D01*
X105758069Y-78099100D01*
X105629931Y-78099100D01*
X105629929Y-78099100D01*
X105504261Y-78124097D01*
X105504255Y-78124099D01*
X105385875Y-78173133D01*
X105385866Y-78173138D01*
X105279331Y-78244323D01*
X105279327Y-78244326D01*
X105188726Y-78334927D01*
X105188723Y-78334931D01*
X105117538Y-78441466D01*
X105117533Y-78441475D01*
X105068499Y-78559855D01*
X105068497Y-78559861D01*
X105043500Y-78685528D01*
X105043500Y-78685531D01*
X105043500Y-78813669D01*
X105043500Y-78813671D01*
X105043499Y-78813671D01*
X105068497Y-78939338D01*
X105068499Y-78939345D01*
X105071016Y-78945420D01*
X105078486Y-79014890D01*
X105047212Y-79077369D01*
X105044138Y-79080556D01*
X104968311Y-79156382D01*
X104906991Y-79189866D01*
X104880632Y-79192700D01*
X104825965Y-79192700D01*
X104730462Y-79218290D01*
X104730460Y-79218291D01*
X104730459Y-79218291D01*
X104644836Y-79267726D01*
X104574926Y-79337636D01*
X104525491Y-79423259D01*
X104525491Y-79423260D01*
X104525490Y-79423262D01*
X104499900Y-79518765D01*
X95394070Y-79518765D01*
X94955861Y-79080556D01*
X94922377Y-79019234D01*
X94927361Y-78949542D01*
X94928965Y-78945463D01*
X94931501Y-78939344D01*
X94931502Y-78939338D01*
X94956500Y-78813671D01*
X94956500Y-78685528D01*
X94931502Y-78559861D01*
X94931501Y-78559860D01*
X94931501Y-78559856D01*
X94931499Y-78559851D01*
X94882493Y-78441539D01*
X94882475Y-78441497D01*
X94882473Y-78441494D01*
X94882465Y-78441473D01*
X94882463Y-78441470D01*
X94882461Y-78441466D01*
X94856201Y-78402165D01*
X98287000Y-78402165D01*
X98287000Y-78501035D01*
X98312590Y-78596538D01*
X98362025Y-78682162D01*
X98431938Y-78752075D01*
X98517562Y-78801510D01*
X98613065Y-78827100D01*
X98613067Y-78827100D01*
X98711932Y-78827100D01*
X98711935Y-78827100D01*
X98807438Y-78801510D01*
X98893062Y-78752075D01*
X98962975Y-78682162D01*
X99012410Y-78596538D01*
X99038000Y-78501035D01*
X99038000Y-78402165D01*
X99012410Y-78306662D01*
X98962975Y-78221038D01*
X98893062Y-78151125D01*
X98807438Y-78101690D01*
X98711935Y-78076100D01*
X98613065Y-78076100D01*
X98517562Y-78101690D01*
X98517560Y-78101691D01*
X98517559Y-78101691D01*
X98431936Y-78151126D01*
X98362026Y-78221036D01*
X98312591Y-78306659D01*
X98312591Y-78306660D01*
X98312590Y-78306662D01*
X98287000Y-78402165D01*
X94856201Y-78402165D01*
X94811276Y-78334931D01*
X94811273Y-78334927D01*
X94720672Y-78244326D01*
X94720668Y-78244323D01*
X94614133Y-78173138D01*
X94614124Y-78173133D01*
X94495744Y-78124099D01*
X94495738Y-78124097D01*
X94370071Y-78099100D01*
X94370069Y-78099100D01*
X94241931Y-78099100D01*
X94241929Y-78099100D01*
X94116261Y-78124097D01*
X94116255Y-78124099D01*
X93997875Y-78173133D01*
X93997866Y-78173138D01*
X93891331Y-78244323D01*
X93891327Y-78244326D01*
X93800726Y-78334927D01*
X93800723Y-78334931D01*
X93729538Y-78441466D01*
X93729533Y-78441475D01*
X93680499Y-78559855D01*
X93680497Y-78559861D01*
X93655500Y-78685528D01*
X93655500Y-78685531D01*
X93655500Y-78813669D01*
X93655500Y-78813671D01*
X93655499Y-78813671D01*
X93680497Y-78939338D01*
X93680499Y-78939344D01*
X93729533Y-79057724D01*
X93729538Y-79057733D01*
X93800723Y-79164268D01*
X93800726Y-79164272D01*
X93891327Y-79254873D01*
X93891331Y-79254876D01*
X93997866Y-79326061D01*
X93997875Y-79326066D01*
X94011209Y-79331589D01*
X94116256Y-79375101D01*
X94116260Y-79375101D01*
X94116261Y-79375102D01*
X94241928Y-79400100D01*
X94241931Y-79400100D01*
X94370071Y-79400100D01*
X94495739Y-79375102D01*
X94495739Y-79375101D01*
X94495744Y-79375101D01*
X94501816Y-79372585D01*
X94571282Y-79365111D01*
X94633764Y-79396381D01*
X94636956Y-79399461D01*
X96801173Y-81563679D01*
X98957664Y-83720170D01*
X98957666Y-83720172D01*
X99021765Y-83746721D01*
X99040545Y-83754500D01*
X99130254Y-83754500D01*
X109740885Y-83754500D01*
X109807924Y-83774185D01*
X109853679Y-83826989D01*
X109863623Y-83896147D01*
X109860659Y-83910595D01*
X109853700Y-83936563D01*
X109853700Y-83936565D01*
X109853700Y-84035435D01*
X109879290Y-84130938D01*
X109879291Y-84130939D01*
X109879291Y-84130940D01*
X109892537Y-84153882D01*
X109918875Y-84199502D01*
X109928726Y-84216563D01*
X109967381Y-84255218D01*
X110000866Y-84316541D01*
X110003700Y-84342899D01*
X110003700Y-88609832D01*
X109984015Y-88676871D01*
X109967381Y-88697513D01*
X107222515Y-91442378D01*
X107161192Y-91475863D01*
X107091500Y-91470879D01*
X107035567Y-91429007D01*
X107027447Y-91416696D01*
X107016674Y-91398037D01*
X106946763Y-91328126D01*
X106946762Y-91328125D01*
X106861138Y-91278690D01*
X106765635Y-91253100D01*
X106666765Y-91253100D01*
X106571262Y-91278690D01*
X106571260Y-91278691D01*
X106571259Y-91278691D01*
X106553728Y-91288813D01*
X106508046Y-91315187D01*
X106446048Y-91331800D01*
X101188466Y-91331800D01*
X101121427Y-91312115D01*
X101075672Y-91259311D01*
X101065728Y-91190153D01*
X101094753Y-91126597D01*
X101100785Y-91120119D01*
X101271743Y-90949162D01*
X101455786Y-90765119D01*
X101517109Y-90731634D01*
X101543467Y-90728800D01*
X101598132Y-90728800D01*
X101598135Y-90728800D01*
X101693638Y-90703210D01*
X101779262Y-90653775D01*
X101849175Y-90583862D01*
X101898610Y-90498238D01*
X101924200Y-90402735D01*
X101924200Y-90303865D01*
X101898610Y-90208362D01*
X101849175Y-90122738D01*
X101779262Y-90052825D01*
X101693638Y-90003390D01*
X101598135Y-89977800D01*
X101499265Y-89977800D01*
X101403762Y-90003390D01*
X101403760Y-90003391D01*
X101403759Y-90003391D01*
X101318136Y-90052826D01*
X101248226Y-90122736D01*
X101198791Y-90208359D01*
X101198791Y-90208360D01*
X101198790Y-90208362D01*
X101173200Y-90303865D01*
X101173200Y-90303867D01*
X101173200Y-90358531D01*
X101153515Y-90425570D01*
X101136880Y-90446212D01*
X100838904Y-90744191D01*
X100750814Y-90832281D01*
X100689491Y-90865766D01*
X100663133Y-90868600D01*
X100236625Y-90868600D01*
X100169586Y-90848915D01*
X100123831Y-90796111D01*
X100113887Y-90726953D01*
X100142912Y-90663397D01*
X100174622Y-90637214D01*
X100196862Y-90624375D01*
X100266775Y-90554462D01*
X100316210Y-90468838D01*
X100341800Y-90373335D01*
X100341800Y-90274465D01*
X100316210Y-90178962D01*
X100266775Y-90093338D01*
X100196862Y-90023425D01*
X100111238Y-89973990D01*
X100065218Y-89961659D01*
X100005559Y-89925295D01*
X99975030Y-89862448D01*
X99983325Y-89793073D01*
X100009632Y-89754203D01*
X100009857Y-89753977D01*
X100009862Y-89753975D01*
X100079775Y-89684062D01*
X100129210Y-89598438D01*
X100154800Y-89502935D01*
X100154800Y-89404065D01*
X100129210Y-89308562D01*
X100079775Y-89222938D01*
X100009862Y-89153025D01*
X99924238Y-89103590D01*
X99828735Y-89078000D01*
X99729865Y-89078000D01*
X99634362Y-89103590D01*
X99634360Y-89103591D01*
X99634359Y-89103591D01*
X99548736Y-89153026D01*
X99478825Y-89222937D01*
X99451799Y-89269747D01*
X99401232Y-89317962D01*
X99332624Y-89331184D01*
X99267760Y-89305216D01*
X99256732Y-89295427D01*
X98422370Y-88461065D01*
X99965200Y-88461065D01*
X99965200Y-88559935D01*
X99990790Y-88655438D01*
X100040225Y-88741062D01*
X100110138Y-88810975D01*
X100195762Y-88860410D01*
X100291265Y-88886000D01*
X100291267Y-88886000D01*
X100390132Y-88886000D01*
X100390135Y-88886000D01*
X100485638Y-88860410D01*
X100571262Y-88810975D01*
X100641175Y-88741062D01*
X100690610Y-88655438D01*
X100716200Y-88559935D01*
X100716200Y-88461065D01*
X100690610Y-88365562D01*
X100641175Y-88279938D01*
X100571262Y-88210025D01*
X100485638Y-88160590D01*
X100390135Y-88135000D01*
X100291265Y-88135000D01*
X100195762Y-88160590D01*
X100195760Y-88160591D01*
X100195759Y-88160591D01*
X100110136Y-88210026D01*
X100040226Y-88279936D01*
X99990791Y-88365559D01*
X99990791Y-88365560D01*
X99990790Y-88365562D01*
X99965200Y-88461065D01*
X98422370Y-88461065D01*
X98177510Y-88216205D01*
X98160070Y-88198764D01*
X98096636Y-88135330D01*
X98096635Y-88135329D01*
X98072357Y-88125272D01*
X98072357Y-88125271D01*
X98013758Y-88101000D01*
X98013756Y-88100999D01*
X98013755Y-88100999D01*
X97924045Y-88100999D01*
X97909611Y-88100999D01*
X97909603Y-88101000D01*
X97110700Y-88101000D01*
X97043661Y-88081315D01*
X97023020Y-88064682D01*
X96984363Y-88026026D01*
X96984362Y-88026025D01*
X96898738Y-87976590D01*
X96803235Y-87951000D01*
X96704365Y-87951000D01*
X96608862Y-87976590D01*
X96608860Y-87976591D01*
X96608859Y-87976591D01*
X96523236Y-88026026D01*
X96484580Y-88064682D01*
X96423257Y-88098167D01*
X96396900Y-88101000D01*
X83989268Y-88101000D01*
X83922229Y-88081315D01*
X83901587Y-88064681D01*
X82912371Y-87075465D01*
X98504900Y-87075465D01*
X98504900Y-87174335D01*
X98530490Y-87269838D01*
X98579925Y-87355462D01*
X98649838Y-87425375D01*
X98735462Y-87474810D01*
X98830965Y-87500400D01*
X98830967Y-87500400D01*
X98929832Y-87500400D01*
X98929835Y-87500400D01*
X99025338Y-87474810D01*
X99110962Y-87425375D01*
X99123372Y-87412965D01*
X100769400Y-87412965D01*
X100769400Y-87511835D01*
X100794990Y-87607338D01*
X100844425Y-87692962D01*
X100914338Y-87762875D01*
X100999962Y-87812310D01*
X101095465Y-87837900D01*
X101095467Y-87837900D01*
X101194332Y-87837900D01*
X101194335Y-87837900D01*
X101289838Y-87812310D01*
X101375462Y-87762875D01*
X101445375Y-87692962D01*
X101494810Y-87607338D01*
X101520400Y-87511835D01*
X101520400Y-87412965D01*
X101494810Y-87317462D01*
X101445375Y-87231838D01*
X101375462Y-87161925D01*
X101289838Y-87112490D01*
X101194335Y-87086900D01*
X101095465Y-87086900D01*
X100999962Y-87112490D01*
X100999960Y-87112491D01*
X100999959Y-87112491D01*
X100914336Y-87161926D01*
X100844426Y-87231836D01*
X100794991Y-87317459D01*
X100794991Y-87317460D01*
X100794990Y-87317462D01*
X100769400Y-87412965D01*
X99123372Y-87412965D01*
X99180875Y-87355462D01*
X99230310Y-87269838D01*
X99255900Y-87174335D01*
X99255900Y-87075465D01*
X99230310Y-86979962D01*
X99180875Y-86894338D01*
X99110962Y-86824425D01*
X99025338Y-86774990D01*
X98929835Y-86749400D01*
X98830965Y-86749400D01*
X98735462Y-86774990D01*
X98735460Y-86774991D01*
X98735459Y-86774991D01*
X98649836Y-86824426D01*
X98579926Y-86894336D01*
X98530491Y-86979959D01*
X98530491Y-86979960D01*
X98530490Y-86979962D01*
X98504900Y-87075465D01*
X82912371Y-87075465D01*
X82171014Y-86334108D01*
X82999500Y-86334108D01*
X82999500Y-86465892D01*
X83005614Y-86488710D01*
X83033608Y-86593187D01*
X83066554Y-86650250D01*
X83099500Y-86707314D01*
X83192686Y-86800500D01*
X83306814Y-86866392D01*
X83434108Y-86900500D01*
X83434110Y-86900500D01*
X83565890Y-86900500D01*
X83565892Y-86900500D01*
X83693186Y-86866392D01*
X83807314Y-86800500D01*
X83900500Y-86707314D01*
X83966392Y-86593186D01*
X84000500Y-86465892D01*
X84000500Y-86334108D01*
X83966392Y-86206814D01*
X83900500Y-86092686D01*
X83807314Y-85999500D01*
X83750250Y-85966554D01*
X83693187Y-85933608D01*
X83609292Y-85911129D01*
X83565892Y-85899500D01*
X83434108Y-85899500D01*
X83306812Y-85933608D01*
X83192686Y-85999500D01*
X83192683Y-85999502D01*
X83099502Y-86092683D01*
X83099500Y-86092686D01*
X83033608Y-86206812D01*
X83018251Y-86264126D01*
X82999500Y-86334108D01*
X82171014Y-86334108D01*
X80709819Y-84872913D01*
X80676334Y-84811590D01*
X80673500Y-84785232D01*
X80673500Y-84730567D01*
X80673500Y-84730565D01*
X80647910Y-84635062D01*
X80598475Y-84549438D01*
X80583145Y-84534108D01*
X82999500Y-84534108D01*
X82999500Y-84665891D01*
X83033608Y-84793187D01*
X83054536Y-84829435D01*
X83099500Y-84907314D01*
X83192686Y-85000500D01*
X83306814Y-85066392D01*
X83434108Y-85100500D01*
X83434110Y-85100500D01*
X83565890Y-85100500D01*
X83565892Y-85100500D01*
X83693186Y-85066392D01*
X83807314Y-85000500D01*
X83900500Y-84907314D01*
X83966392Y-84793186D01*
X84000500Y-84665892D01*
X84000500Y-84534108D01*
X83966392Y-84406814D01*
X83900500Y-84292686D01*
X83807314Y-84199500D01*
X83743369Y-84162581D01*
X83693187Y-84133608D01*
X83629539Y-84116554D01*
X83565892Y-84099500D01*
X83434108Y-84099500D01*
X83306812Y-84133608D01*
X83192686Y-84199500D01*
X83192683Y-84199502D01*
X83099502Y-84292683D01*
X83099500Y-84292686D01*
X83033608Y-84406812D01*
X82999500Y-84534108D01*
X80583145Y-84534108D01*
X80528562Y-84479525D01*
X80442938Y-84430090D01*
X80347435Y-84404500D01*
X80248565Y-84404500D01*
X80153062Y-84430090D01*
X80153060Y-84430091D01*
X80153059Y-84430091D01*
X80067436Y-84479526D01*
X79997526Y-84549436D01*
X79948091Y-84635059D01*
X79948091Y-84635060D01*
X79948090Y-84635062D01*
X79922500Y-84730565D01*
X79922500Y-84829435D01*
X79948090Y-84924938D01*
X79997525Y-85010562D01*
X80067438Y-85080475D01*
X80153062Y-85129910D01*
X80248565Y-85155500D01*
X80248567Y-85155500D01*
X80303233Y-85155500D01*
X80370272Y-85175185D01*
X80390914Y-85191819D01*
X83716764Y-88517670D01*
X83716766Y-88517672D01*
X83780865Y-88544221D01*
X83799645Y-88552000D01*
X83889354Y-88552000D01*
X96396900Y-88552000D01*
X96463939Y-88571685D01*
X96484580Y-88588318D01*
X96506095Y-88609832D01*
X96523238Y-88626975D01*
X96608862Y-88676410D01*
X96704365Y-88702000D01*
X96704367Y-88702000D01*
X96803232Y-88702000D01*
X96803235Y-88702000D01*
X96898738Y-88676410D01*
X96984362Y-88626975D01*
X97003691Y-88607645D01*
X97023020Y-88588318D01*
X97084343Y-88554833D01*
X97110700Y-88552000D01*
X97824133Y-88552000D01*
X97891172Y-88571685D01*
X97911814Y-88588319D01*
X99554481Y-90230986D01*
X99587966Y-90292309D01*
X99590800Y-90318667D01*
X99590800Y-90373335D01*
X99616390Y-90468838D01*
X99665825Y-90554462D01*
X99735738Y-90624375D01*
X99757976Y-90637214D01*
X99806191Y-90687780D01*
X99819413Y-90756387D01*
X99793445Y-90821252D01*
X99736531Y-90861780D01*
X99695975Y-90868600D01*
X98676900Y-90868600D01*
X98609861Y-90848915D01*
X98589220Y-90832282D01*
X98550563Y-90793626D01*
X98550562Y-90793625D01*
X98464938Y-90744190D01*
X98369435Y-90718600D01*
X98270565Y-90718600D01*
X98175062Y-90744190D01*
X98175060Y-90744191D01*
X98175059Y-90744191D01*
X98089436Y-90793626D01*
X98019526Y-90863536D01*
X97970091Y-90949159D01*
X97970091Y-90949160D01*
X97970090Y-90949162D01*
X97944500Y-91044665D01*
X97944500Y-91143535D01*
X97953120Y-91175708D01*
X97951458Y-91245556D01*
X97912296Y-91303419D01*
X97848068Y-91330923D01*
X97833346Y-91331800D01*
X86686197Y-91331800D01*
X86686189Y-91331799D01*
X86671755Y-91331799D01*
X86582045Y-91331799D01*
X86582043Y-91331799D01*
X86547713Y-91346019D01*
X86523439Y-91356074D01*
X86523437Y-91356074D01*
X86499164Y-91366129D01*
X86435729Y-91429565D01*
X83882821Y-93982472D01*
X83821498Y-94015957D01*
X83751806Y-94010973D01*
X83695873Y-93969101D01*
X83675365Y-93926884D01*
X83666410Y-93893462D01*
X83616975Y-93807838D01*
X83547062Y-93737925D01*
X83461438Y-93688490D01*
X83365935Y-93662900D01*
X83267065Y-93662900D01*
X83171562Y-93688490D01*
X83171560Y-93688491D01*
X83171559Y-93688491D01*
X83085936Y-93737926D01*
X83016026Y-93807836D01*
X82966591Y-93893459D01*
X82966590Y-93893460D01*
X82954464Y-93938714D01*
X82941098Y-93988595D01*
X82904735Y-94048254D01*
X82841888Y-94078783D01*
X82821325Y-94080500D01*
X79443145Y-94080500D01*
X79376106Y-94060815D01*
X79330351Y-94008011D01*
X79328585Y-94003956D01*
X79326066Y-93997875D01*
X79326061Y-93997866D01*
X79254876Y-93891331D01*
X79254873Y-93891327D01*
X79164272Y-93800726D01*
X79164268Y-93800723D01*
X79057733Y-93729538D01*
X79057724Y-93729533D01*
X78939344Y-93680499D01*
X78939338Y-93680497D01*
X78813671Y-93655500D01*
X78813669Y-93655500D01*
X78685531Y-93655500D01*
X78685529Y-93655500D01*
X78559861Y-93680497D01*
X78559855Y-93680499D01*
X78441475Y-93729533D01*
X78441466Y-93729538D01*
X78334931Y-93800723D01*
X78334927Y-93800726D01*
X78244326Y-93891327D01*
X78244323Y-93891331D01*
X78173138Y-93997866D01*
X78173133Y-93997875D01*
X78124099Y-94116255D01*
X78124097Y-94116261D01*
X78099100Y-94241928D01*
X78099100Y-94241931D01*
X78099100Y-94370069D01*
X78099100Y-94370071D01*
X78099099Y-94370071D01*
X78124097Y-94495738D01*
X78124099Y-94495744D01*
X78173133Y-94614124D01*
X78173138Y-94614133D01*
X78244323Y-94720668D01*
X78244326Y-94720672D01*
X78334927Y-94811273D01*
X78334931Y-94811276D01*
X78441466Y-94882461D01*
X78441475Y-94882466D01*
X78444541Y-94883736D01*
X78559856Y-94931501D01*
X78559860Y-94931501D01*
X78559861Y-94931502D01*
X78685528Y-94956500D01*
X78798006Y-94956500D01*
X78865045Y-94976185D01*
X78910800Y-95028989D01*
X78917768Y-95053252D01*
X78918397Y-95053084D01*
X78920500Y-95060932D01*
X78920500Y-95060935D01*
X78946090Y-95156438D01*
X78995525Y-95242062D01*
X79065438Y-95311975D01*
X79151062Y-95361410D01*
X79246565Y-95387000D01*
X79246567Y-95387000D01*
X79345432Y-95387000D01*
X79345435Y-95387000D01*
X79440938Y-95361410D01*
X79526562Y-95311975D01*
X79596475Y-95242062D01*
X79645910Y-95156438D01*
X79671500Y-95060935D01*
X79671500Y-94962065D01*
X79645910Y-94866562D01*
X79596475Y-94780938D01*
X79558718Y-94743181D01*
X79525233Y-94681858D01*
X79530217Y-94612166D01*
X79572089Y-94556233D01*
X79637553Y-94531816D01*
X79646399Y-94531500D01*
X81834664Y-94531500D01*
X81901703Y-94551185D01*
X81947458Y-94603989D01*
X81957402Y-94673147D01*
X81954440Y-94687588D01*
X81944800Y-94723565D01*
X81944800Y-94822435D01*
X81970390Y-94917938D01*
X82019825Y-95003562D01*
X82089738Y-95073475D01*
X82175362Y-95122910D01*
X82202082Y-95130069D01*
X82261740Y-95166431D01*
X82292271Y-95229277D01*
X82283978Y-95298653D01*
X82257669Y-95337524D01*
X78262426Y-99332767D01*
X78201103Y-99366252D01*
X78150553Y-99366703D01*
X78064071Y-99349500D01*
X78064069Y-99349500D01*
X77935931Y-99349500D01*
X77935929Y-99349500D01*
X77810261Y-99374497D01*
X77810255Y-99374499D01*
X77691875Y-99423533D01*
X77691866Y-99423538D01*
X77585331Y-99494723D01*
X77585327Y-99494726D01*
X77494726Y-99585327D01*
X77494723Y-99585331D01*
X77423538Y-99691866D01*
X77423533Y-99691875D01*
X77374499Y-99810255D01*
X77374498Y-99810260D01*
X77349500Y-99935928D01*
X77349500Y-99935931D01*
X77349500Y-100064069D01*
X77349500Y-100064071D01*
X77349499Y-100064071D01*
X77374497Y-100189738D01*
X77374498Y-100189740D01*
X77374499Y-100189744D01*
X77397273Y-100244725D01*
X77423533Y-100308124D01*
X77423538Y-100308133D01*
X77494723Y-100414668D01*
X77494726Y-100414672D01*
X77585327Y-100505273D01*
X77585331Y-100505276D01*
X77691866Y-100576461D01*
X77691872Y-100576464D01*
X77691873Y-100576465D01*
X77810256Y-100625501D01*
X77810260Y-100625501D01*
X77810261Y-100625502D01*
X77935928Y-100650500D01*
X77935931Y-100650500D01*
X78064071Y-100650500D01*
X78148615Y-100633682D01*
X78189744Y-100625501D01*
X78308127Y-100576465D01*
X78414669Y-100505276D01*
X78505276Y-100414669D01*
X78576465Y-100308127D01*
X78625501Y-100189744D01*
X78650500Y-100064069D01*
X78650500Y-99935931D01*
X78650500Y-99935928D01*
X78625502Y-99810260D01*
X78625501Y-99810259D01*
X78625501Y-99810256D01*
X78597821Y-99743432D01*
X78590353Y-99673966D01*
X78621627Y-99611487D01*
X78624673Y-99608330D01*
X80834320Y-97398684D01*
X80895642Y-97365200D01*
X80965334Y-97370184D01*
X81021267Y-97412056D01*
X81045684Y-97477520D01*
X81046000Y-97486366D01*
X81046000Y-97559435D01*
X81071590Y-97654938D01*
X81121025Y-97740562D01*
X81190938Y-97810475D01*
X81276562Y-97859910D01*
X81372065Y-97885500D01*
X81372067Y-97885500D01*
X81470932Y-97885500D01*
X81470935Y-97885500D01*
X81566438Y-97859910D01*
X81652062Y-97810475D01*
X81721975Y-97740562D01*
X81771410Y-97654938D01*
X81797000Y-97559435D01*
X81797000Y-97460565D01*
X81771410Y-97365062D01*
X81721975Y-97279438D01*
X81652062Y-97209525D01*
X81566438Y-97160090D01*
X81470935Y-97134500D01*
X81397867Y-97134500D01*
X81330828Y-97114815D01*
X81285073Y-97062011D01*
X81275129Y-96992853D01*
X81304154Y-96929297D01*
X81310186Y-96922819D01*
X82049105Y-96183900D01*
X82805219Y-95427785D01*
X82866540Y-95394302D01*
X82936232Y-95399286D01*
X82992165Y-95441158D01*
X83000280Y-95453461D01*
X83033825Y-95511562D01*
X83103738Y-95581475D01*
X83189362Y-95630910D01*
X83284865Y-95656500D01*
X83284867Y-95656500D01*
X83383732Y-95656500D01*
X83383735Y-95656500D01*
X83479238Y-95630910D01*
X83564862Y-95581475D01*
X83588648Y-95557689D01*
X83603520Y-95542818D01*
X83664843Y-95509333D01*
X83691200Y-95506500D01*
X91540101Y-95506500D01*
X91607140Y-95526185D01*
X91652895Y-95578989D01*
X91659873Y-95598398D01*
X91672290Y-95644738D01*
X91672291Y-95644739D01*
X91672291Y-95644740D01*
X91690166Y-95675700D01*
X91706639Y-95743600D01*
X91683787Y-95809627D01*
X91628865Y-95852818D01*
X91582779Y-95861700D01*
X86743397Y-95861700D01*
X86743389Y-95861699D01*
X86728955Y-95861699D01*
X86639246Y-95861699D01*
X86639243Y-95861699D01*
X86612204Y-95872899D01*
X86612205Y-95872900D01*
X86570705Y-95890090D01*
X86556362Y-95896031D01*
X84146053Y-98306341D01*
X84105826Y-98333221D01*
X84080124Y-98343867D01*
X84058296Y-98352908D01*
X84023965Y-98367128D01*
X84003730Y-98387364D01*
X83960530Y-98430564D01*
X83960529Y-98430565D01*
X82710895Y-99680200D01*
X81485514Y-100905581D01*
X81424191Y-100939066D01*
X81397833Y-100941900D01*
X79336200Y-100941900D01*
X79269161Y-100922215D01*
X79248520Y-100905582D01*
X79209863Y-100866926D01*
X79209862Y-100866925D01*
X79124238Y-100817490D01*
X79028735Y-100791900D01*
X78929865Y-100791900D01*
X78834362Y-100817490D01*
X78834360Y-100817491D01*
X78834359Y-100817491D01*
X78748736Y-100866926D01*
X78678826Y-100936836D01*
X78629391Y-101022459D01*
X78629391Y-101022460D01*
X78629390Y-101022462D01*
X78603800Y-101117965D01*
X78603800Y-101216835D01*
X78629390Y-101312338D01*
X78678825Y-101397962D01*
X78748738Y-101467875D01*
X78834362Y-101517310D01*
X78929865Y-101542900D01*
X78929867Y-101542900D01*
X79028732Y-101542900D01*
X79028735Y-101542900D01*
X79124238Y-101517310D01*
X79209862Y-101467875D01*
X79229191Y-101448545D01*
X79248520Y-101429218D01*
X79309843Y-101395733D01*
X79336200Y-101392900D01*
X81483303Y-101392900D01*
X81483311Y-101392901D01*
X81497745Y-101392901D01*
X81587453Y-101392901D01*
X81587455Y-101392901D01*
X81646060Y-101368625D01*
X81670336Y-101358570D01*
X81733770Y-101295136D01*
X81733770Y-101295135D01*
X81751208Y-101277697D01*
X81751209Y-101277694D01*
X84218578Y-98810326D01*
X84258803Y-98783448D01*
X84340836Y-98749470D01*
X84404270Y-98686036D01*
X84404270Y-98686034D01*
X84412718Y-98677587D01*
X84413176Y-98677027D01*
X85031827Y-98058376D01*
X85032387Y-98057918D01*
X85040834Y-98049470D01*
X85040836Y-98049470D01*
X85104270Y-97986036D01*
X85104270Y-97986034D01*
X85112718Y-97977587D01*
X85113176Y-97977027D01*
X85731827Y-97358376D01*
X85732387Y-97357918D01*
X85740834Y-97349470D01*
X85740836Y-97349470D01*
X85804270Y-97286036D01*
X85804270Y-97286034D01*
X85812718Y-97277587D01*
X85813176Y-97277027D01*
X86741186Y-96349019D01*
X86802509Y-96315534D01*
X86828867Y-96312700D01*
X88641533Y-96312700D01*
X88708572Y-96332385D01*
X88754327Y-96385189D01*
X88764271Y-96454347D01*
X88735246Y-96517903D01*
X88729214Y-96524381D01*
X82769414Y-102484181D01*
X82708091Y-102517666D01*
X82681733Y-102520500D01*
X79339600Y-102520500D01*
X79272561Y-102500815D01*
X79251920Y-102484182D01*
X79213263Y-102445526D01*
X79213262Y-102445525D01*
X79127638Y-102396090D01*
X79032135Y-102370500D01*
X78933265Y-102370500D01*
X78837762Y-102396090D01*
X78837760Y-102396090D01*
X78837760Y-102396091D01*
X78752136Y-102445526D01*
X78682226Y-102515436D01*
X78632791Y-102601059D01*
X78632791Y-102601060D01*
X78632790Y-102601062D01*
X78607200Y-102696565D01*
X78607200Y-102795435D01*
X78632790Y-102890938D01*
X78682225Y-102976562D01*
X78752138Y-103046475D01*
X78837762Y-103095910D01*
X78933265Y-103121500D01*
X78933267Y-103121500D01*
X79032132Y-103121500D01*
X79032135Y-103121500D01*
X79127638Y-103095910D01*
X79213262Y-103046475D01*
X79238748Y-103020989D01*
X79251920Y-103007818D01*
X79313243Y-102974333D01*
X79339600Y-102971500D01*
X82767203Y-102971500D01*
X82767211Y-102971501D01*
X82781645Y-102971501D01*
X82871354Y-102971501D01*
X82871355Y-102971501D01*
X82932694Y-102946093D01*
X82954236Y-102937170D01*
X83017670Y-102873736D01*
X83017670Y-102873735D01*
X83035108Y-102856297D01*
X83035109Y-102856294D01*
X89240686Y-96650719D01*
X89302009Y-96617234D01*
X89328367Y-96614400D01*
X90279333Y-96614400D01*
X90346372Y-96634085D01*
X90392127Y-96686889D01*
X90402071Y-96756047D01*
X90373046Y-96819603D01*
X90367014Y-96826080D01*
X87424407Y-99768687D01*
X84498013Y-102695081D01*
X84436690Y-102728566D01*
X84410332Y-102731400D01*
X84355665Y-102731400D01*
X84260162Y-102756990D01*
X84260160Y-102756991D01*
X84260159Y-102756991D01*
X84174536Y-102806426D01*
X84104626Y-102876336D01*
X84055191Y-102961959D01*
X84055191Y-102961960D01*
X84055190Y-102961962D01*
X84029600Y-103057465D01*
X84029600Y-103156335D01*
X84055190Y-103251838D01*
X84104625Y-103337462D01*
X84174538Y-103407375D01*
X84260162Y-103456810D01*
X84355665Y-103482400D01*
X84355667Y-103482400D01*
X84454532Y-103482400D01*
X84454535Y-103482400D01*
X84550038Y-103456810D01*
X84635662Y-103407375D01*
X84705575Y-103337462D01*
X84755010Y-103251838D01*
X84780600Y-103156335D01*
X84780600Y-103101666D01*
X84800285Y-103034627D01*
X84816919Y-103013985D01*
X90847486Y-96983419D01*
X90908809Y-96949934D01*
X90935167Y-96947100D01*
X97831033Y-96947100D01*
X97898072Y-96966785D01*
X97943827Y-97019589D01*
X97953771Y-97088747D01*
X97924746Y-97152303D01*
X97918714Y-97158781D01*
X97663414Y-97414081D01*
X97602091Y-97447566D01*
X97575733Y-97450400D01*
X97140997Y-97450400D01*
X97140989Y-97450399D01*
X97126555Y-97450399D01*
X97036846Y-97450399D01*
X97036844Y-97450399D01*
X97012306Y-97460564D01*
X97012304Y-97460565D01*
X96990752Y-97469491D01*
X96953964Y-97484729D01*
X96679613Y-97759081D01*
X96618290Y-97792566D01*
X96591932Y-97795400D01*
X96537265Y-97795400D01*
X96441762Y-97820990D01*
X96441760Y-97820991D01*
X96441759Y-97820991D01*
X96356136Y-97870426D01*
X96286226Y-97940336D01*
X96236791Y-98025959D01*
X96236791Y-98025960D01*
X96236790Y-98025962D01*
X96211200Y-98121465D01*
X96211200Y-98220335D01*
X96236790Y-98315838D01*
X96256870Y-98350618D01*
X96273343Y-98418516D01*
X96250491Y-98484543D01*
X96237165Y-98500297D01*
X96188026Y-98549436D01*
X96138591Y-98635059D01*
X96138591Y-98635060D01*
X96138590Y-98635062D01*
X96113000Y-98730565D01*
X96113000Y-98829435D01*
X96138590Y-98924938D01*
X96188025Y-99010562D01*
X96257938Y-99080475D01*
X96343562Y-99129910D01*
X96343568Y-99129911D01*
X96344655Y-99130362D01*
X96345438Y-99130993D01*
X96350601Y-99133974D01*
X96350136Y-99134778D01*
X96399060Y-99174202D01*
X96421127Y-99240495D01*
X96403850Y-99308195D01*
X96384887Y-99332606D01*
X90598025Y-105119469D01*
X90536702Y-105152954D01*
X90467010Y-105147970D01*
X90448344Y-105139175D01*
X90443063Y-105136126D01*
X90443062Y-105136125D01*
X90357438Y-105086690D01*
X90261935Y-105061100D01*
X90163065Y-105061100D01*
X90067562Y-105086690D01*
X90067560Y-105086691D01*
X90067559Y-105086691D01*
X89981936Y-105136126D01*
X89912026Y-105206036D01*
X89862591Y-105291659D01*
X89862591Y-105291660D01*
X89862590Y-105291662D01*
X89837000Y-105387165D01*
X89837000Y-105486035D01*
X89862590Y-105581538D01*
X89912025Y-105667162D01*
X89981938Y-105737075D01*
X90067562Y-105786510D01*
X90163065Y-105812100D01*
X90163067Y-105812100D01*
X90261932Y-105812100D01*
X90261935Y-105812100D01*
X90357438Y-105786510D01*
X90443062Y-105737075D01*
X90472023Y-105708114D01*
X90481719Y-105698419D01*
X90543042Y-105664934D01*
X90569399Y-105662101D01*
X90644653Y-105662101D01*
X90644655Y-105662101D01*
X90703260Y-105637825D01*
X90727536Y-105627770D01*
X90790970Y-105564336D01*
X90790970Y-105564335D01*
X90808408Y-105546897D01*
X90808410Y-105546894D01*
X92346952Y-104008351D01*
X92408273Y-103974868D01*
X92477965Y-103979852D01*
X92533898Y-104021724D01*
X92547972Y-104050697D01*
X92549581Y-104050031D01*
X92552689Y-104057536D01*
X92552690Y-104057538D01*
X92602125Y-104143162D01*
X92672038Y-104213075D01*
X92757662Y-104262510D01*
X92853165Y-104288100D01*
X92853167Y-104288100D01*
X92952032Y-104288100D01*
X92952035Y-104288100D01*
X93047538Y-104262510D01*
X93133162Y-104213075D01*
X93153051Y-104193186D01*
X93171820Y-104174418D01*
X93233143Y-104140933D01*
X93259500Y-104138100D01*
X93331132Y-104138100D01*
X93398171Y-104157785D01*
X93443926Y-104210589D01*
X93453870Y-104279747D01*
X93424845Y-104343303D01*
X93418813Y-104349781D01*
X92612113Y-105156481D01*
X92550790Y-105189966D01*
X92524432Y-105192800D01*
X92469765Y-105192800D01*
X92374262Y-105218390D01*
X92374260Y-105218391D01*
X92374259Y-105218391D01*
X92288636Y-105267826D01*
X92218726Y-105337736D01*
X92169291Y-105423359D01*
X92169291Y-105423360D01*
X92169290Y-105423362D01*
X92143700Y-105518865D01*
X92143700Y-105617735D01*
X92169290Y-105713238D01*
X92218725Y-105798862D01*
X92288638Y-105868775D01*
X92374262Y-105918210D01*
X92469765Y-105943800D01*
X92469767Y-105943800D01*
X92568632Y-105943800D01*
X92568635Y-105943800D01*
X92664138Y-105918210D01*
X92749762Y-105868775D01*
X92819675Y-105798862D01*
X92869110Y-105713238D01*
X92894700Y-105617735D01*
X92894700Y-105563066D01*
X92914385Y-105496027D01*
X92931019Y-105475385D01*
X94475886Y-103930519D01*
X94537209Y-103897034D01*
X94563567Y-103894200D01*
X98257284Y-103894200D01*
X98319283Y-103910812D01*
X98332962Y-103918710D01*
X98400142Y-103936710D01*
X98459799Y-103973073D01*
X98490329Y-104035920D01*
X98482035Y-104105296D01*
X98455727Y-104144165D01*
X98081404Y-104518490D01*
X97958665Y-104641229D01*
X97958664Y-104641230D01*
X97942599Y-104657295D01*
X97895227Y-104704666D01*
X97888595Y-104714592D01*
X97834981Y-104759395D01*
X97765656Y-104768101D01*
X97702629Y-104737944D01*
X97678110Y-104707700D01*
X97637775Y-104637838D01*
X97567862Y-104567925D01*
X97482238Y-104518490D01*
X97386735Y-104492900D01*
X97287865Y-104492900D01*
X97192362Y-104518490D01*
X97192360Y-104518491D01*
X97192359Y-104518491D01*
X97106736Y-104567926D01*
X97036826Y-104637836D01*
X96987391Y-104723459D01*
X96987391Y-104723460D01*
X96987390Y-104723462D01*
X96961800Y-104818965D01*
X96961800Y-104917835D01*
X96987390Y-105013338D01*
X97036825Y-105098962D01*
X97106738Y-105168875D01*
X97192362Y-105218310D01*
X97287865Y-105243900D01*
X97287867Y-105243900D01*
X97386732Y-105243900D01*
X97386735Y-105243900D01*
X97482238Y-105218310D01*
X97567862Y-105168875D01*
X97637775Y-105098962D01*
X97637778Y-105098955D01*
X97638522Y-105097988D01*
X97639363Y-105097373D01*
X97643522Y-105093215D01*
X97644170Y-105093863D01*
X97694948Y-105056783D01*
X97764694Y-105052626D01*
X97825615Y-105086836D01*
X97858370Y-105148552D01*
X97860900Y-105173471D01*
X97860900Y-107817500D01*
X97841215Y-107884539D01*
X97824582Y-107905180D01*
X97785926Y-107943836D01*
X97736491Y-108029459D01*
X97736491Y-108029460D01*
X97736490Y-108029462D01*
X97710900Y-108124965D01*
X97710900Y-108223835D01*
X97736490Y-108319338D01*
X97785925Y-108404962D01*
X97855838Y-108474875D01*
X97941462Y-108524310D01*
X98036965Y-108549900D01*
X98036967Y-108549900D01*
X98135832Y-108549900D01*
X98135835Y-108549900D01*
X98231338Y-108524310D01*
X98316962Y-108474875D01*
X98386875Y-108404962D01*
X98436310Y-108319338D01*
X98461900Y-108223835D01*
X98461900Y-108124965D01*
X98436310Y-108029462D01*
X98432289Y-108022497D01*
X98415815Y-107954597D01*
X98438667Y-107888570D01*
X98493588Y-107845379D01*
X98563141Y-107838737D01*
X98571748Y-107840716D01*
X98617965Y-107853100D01*
X98617968Y-107853100D01*
X98716832Y-107853100D01*
X98716835Y-107853100D01*
X98812338Y-107827510D01*
X98897962Y-107778075D01*
X98967875Y-107708162D01*
X99017310Y-107622538D01*
X99042900Y-107527035D01*
X99042900Y-107428165D01*
X99017310Y-107332662D01*
X98967875Y-107247038D01*
X98897962Y-107177125D01*
X98812338Y-107127690D01*
X98716835Y-107102100D01*
X98617965Y-107102100D01*
X98522462Y-107127690D01*
X98522460Y-107127691D01*
X98522459Y-107127691D01*
X98497900Y-107141871D01*
X98430000Y-107158344D01*
X98363973Y-107135492D01*
X98320783Y-107080571D01*
X98311900Y-107034484D01*
X98311900Y-104977167D01*
X98331585Y-104910128D01*
X98348219Y-104889486D01*
X101592686Y-101645019D01*
X101654009Y-101611534D01*
X101680367Y-101608700D01*
X101735032Y-101608700D01*
X101735035Y-101608700D01*
X101830538Y-101583110D01*
X101916162Y-101533675D01*
X101986075Y-101463762D01*
X102035510Y-101378138D01*
X102061100Y-101282635D01*
X102061100Y-101183765D01*
X102035510Y-101088262D01*
X101986075Y-101002638D01*
X101977318Y-100993881D01*
X101943833Y-100932558D01*
X101948817Y-100862866D01*
X101990689Y-100806933D01*
X102056153Y-100782516D01*
X102064999Y-100782200D01*
X102342533Y-100782200D01*
X102409572Y-100801885D01*
X102430214Y-100818519D01*
X102937853Y-101326158D01*
X102971338Y-101387481D01*
X102966354Y-101457173D01*
X102924482Y-101513106D01*
X102912174Y-101521225D01*
X102889136Y-101534526D01*
X102850480Y-101573182D01*
X102789157Y-101606667D01*
X102762800Y-101609500D01*
X102750254Y-101609500D01*
X102660545Y-101609500D01*
X102660543Y-101609500D01*
X102660541Y-101609501D01*
X102577666Y-101643827D01*
X102577664Y-101643829D01*
X100017413Y-104204081D01*
X99956090Y-104237566D01*
X99929732Y-104240400D01*
X99875065Y-104240400D01*
X99779562Y-104265990D01*
X99779560Y-104265991D01*
X99779559Y-104265991D01*
X99693936Y-104315426D01*
X99624026Y-104385336D01*
X99574591Y-104470959D01*
X99574591Y-104470960D01*
X99574590Y-104470962D01*
X99549000Y-104566465D01*
X99549000Y-104665335D01*
X99574590Y-104760838D01*
X99624025Y-104846462D01*
X99693938Y-104916375D01*
X99767000Y-104958557D01*
X99815216Y-105009124D01*
X99829000Y-105065944D01*
X99829000Y-105229904D01*
X99809315Y-105296943D01*
X99756511Y-105342698D01*
X99687353Y-105352642D01*
X99672908Y-105349679D01*
X99620736Y-105335700D01*
X99620735Y-105335700D01*
X99521865Y-105335700D01*
X99426362Y-105361290D01*
X99426360Y-105361291D01*
X99426359Y-105361291D01*
X99340736Y-105410726D01*
X99270826Y-105480636D01*
X99221391Y-105566259D01*
X99221391Y-105566260D01*
X99221390Y-105566262D01*
X99195800Y-105661765D01*
X99195800Y-105760635D01*
X99221390Y-105856138D01*
X99270825Y-105941762D01*
X99340738Y-106011675D01*
X99426362Y-106061110D01*
X99521865Y-106086700D01*
X99521867Y-106086700D01*
X99560900Y-106086700D01*
X99627939Y-106106385D01*
X99673694Y-106159189D01*
X99684900Y-106210700D01*
X99684900Y-108658500D01*
X99665215Y-108725539D01*
X99648582Y-108746180D01*
X99609926Y-108784836D01*
X99560491Y-108870459D01*
X99560491Y-108870460D01*
X99560490Y-108870462D01*
X99534900Y-108965965D01*
X99534900Y-109064835D01*
X99560490Y-109160338D01*
X99560491Y-109160339D01*
X99560491Y-109160340D01*
X99564372Y-109167062D01*
X99609925Y-109245962D01*
X99679838Y-109315875D01*
X99765462Y-109365310D01*
X99860965Y-109390900D01*
X99959835Y-109390900D01*
X100055338Y-109365310D01*
X100140962Y-109315875D01*
X100210875Y-109245962D01*
X100260310Y-109160338D01*
X100285900Y-109064835D01*
X100285900Y-108965965D01*
X100260310Y-108870462D01*
X100210875Y-108784838D01*
X100210873Y-108784836D01*
X100172218Y-108746180D01*
X100138733Y-108684857D01*
X100135900Y-108658500D01*
X100135900Y-106840880D01*
X100155585Y-106773841D01*
X100208389Y-106728086D01*
X100277547Y-106718142D01*
X100291978Y-106721102D01*
X100324065Y-106729700D01*
X100324067Y-106729700D01*
X100422932Y-106729700D01*
X100422935Y-106729700D01*
X100518438Y-106704110D01*
X100604062Y-106654675D01*
X100673975Y-106584762D01*
X100723410Y-106499138D01*
X100749000Y-106403635D01*
X100749000Y-106304765D01*
X100734772Y-106251665D01*
X101112800Y-106251665D01*
X101112800Y-106350535D01*
X101138390Y-106446038D01*
X101138391Y-106446039D01*
X101138391Y-106446040D01*
X101143254Y-106454463D01*
X101187825Y-106531662D01*
X101257738Y-106601575D01*
X101343362Y-106651010D01*
X101438865Y-106676600D01*
X101438867Y-106676600D01*
X101537732Y-106676600D01*
X101537735Y-106676600D01*
X101633238Y-106651010D01*
X101718862Y-106601575D01*
X101788775Y-106531662D01*
X101792117Y-106525872D01*
X101842679Y-106477658D01*
X101911285Y-106464432D01*
X101976151Y-106490397D01*
X101987185Y-106500190D01*
X103102459Y-107615464D01*
X103102462Y-107615468D01*
X103109530Y-107622536D01*
X103172964Y-107685970D01*
X103197237Y-107696024D01*
X103197238Y-107696025D01*
X103197239Y-107696025D01*
X103255845Y-107720301D01*
X103255846Y-107720301D01*
X103359989Y-107720301D01*
X103359997Y-107720300D01*
X103564300Y-107720300D01*
X103631339Y-107739985D01*
X103651980Y-107756618D01*
X103673436Y-107778073D01*
X103690638Y-107795275D01*
X103776262Y-107844710D01*
X103871765Y-107870300D01*
X103871767Y-107870300D01*
X103970632Y-107870300D01*
X103970635Y-107870300D01*
X104066138Y-107844710D01*
X104151762Y-107795275D01*
X104221675Y-107725362D01*
X104271110Y-107639738D01*
X104296700Y-107544235D01*
X104296700Y-107445365D01*
X104271110Y-107349862D01*
X104221675Y-107264238D01*
X104151762Y-107194325D01*
X104066138Y-107144890D01*
X103970635Y-107119300D01*
X103871765Y-107119300D01*
X103776262Y-107144890D01*
X103776260Y-107144891D01*
X103776259Y-107144891D01*
X103690636Y-107194326D01*
X103651980Y-107232982D01*
X103590657Y-107266467D01*
X103564300Y-107269300D01*
X103445467Y-107269300D01*
X103378428Y-107249615D01*
X103357786Y-107232981D01*
X102733609Y-106608804D01*
X102700124Y-106547481D01*
X102705108Y-106477789D01*
X102746980Y-106421856D01*
X102759291Y-106413736D01*
X102779662Y-106401975D01*
X102849575Y-106332062D01*
X102899010Y-106246438D01*
X102924600Y-106150935D01*
X102924600Y-106052065D01*
X102899010Y-105956562D01*
X102849575Y-105870938D01*
X102779662Y-105801025D01*
X102694038Y-105751590D01*
X102598535Y-105726000D01*
X102499665Y-105726000D01*
X102404162Y-105751590D01*
X102404160Y-105751591D01*
X102404159Y-105751591D01*
X102378283Y-105766531D01*
X102351598Y-105781937D01*
X102283700Y-105798410D01*
X102217673Y-105775558D01*
X102174483Y-105720637D01*
X102165600Y-105674550D01*
X102165600Y-105064897D01*
X102165601Y-105064888D01*
X102165601Y-104960747D01*
X102165601Y-104960746D01*
X102137736Y-104893475D01*
X102131270Y-104877864D01*
X102067836Y-104814430D01*
X102060771Y-104807365D01*
X102060764Y-104807359D01*
X101939319Y-104685914D01*
X101905834Y-104624591D01*
X101903000Y-104598233D01*
X101903000Y-104543567D01*
X101903000Y-104543565D01*
X101877410Y-104448062D01*
X101827975Y-104362438D01*
X101758062Y-104292525D01*
X101672438Y-104243090D01*
X101576935Y-104217500D01*
X101478065Y-104217500D01*
X101382562Y-104243090D01*
X101382560Y-104243091D01*
X101382559Y-104243091D01*
X101296936Y-104292526D01*
X101227026Y-104362436D01*
X101177591Y-104448059D01*
X101177591Y-104448060D01*
X101177590Y-104448062D01*
X101152000Y-104543565D01*
X101152000Y-104642435D01*
X101177590Y-104737938D01*
X101227025Y-104823562D01*
X101296938Y-104893475D01*
X101382562Y-104942910D01*
X101478065Y-104968500D01*
X101478067Y-104968500D01*
X101532733Y-104968500D01*
X101599772Y-104988185D01*
X101620414Y-105004819D01*
X101678281Y-105062686D01*
X101711766Y-105124009D01*
X101714600Y-105150367D01*
X101714600Y-105811391D01*
X101694915Y-105878430D01*
X101642111Y-105924185D01*
X101572953Y-105934129D01*
X101558509Y-105931166D01*
X101537735Y-105925600D01*
X101438865Y-105925600D01*
X101343362Y-105951190D01*
X101343360Y-105951191D01*
X101343359Y-105951191D01*
X101257736Y-106000626D01*
X101187826Y-106070536D01*
X101138391Y-106156159D01*
X101138391Y-106156160D01*
X101138390Y-106156162D01*
X101112800Y-106251665D01*
X100734772Y-106251665D01*
X100723410Y-106209262D01*
X100673975Y-106123638D01*
X100604062Y-106053725D01*
X100518438Y-106004290D01*
X100422935Y-105978700D01*
X100404000Y-105978700D01*
X100336961Y-105959015D01*
X100291206Y-105906211D01*
X100280000Y-105854700D01*
X100280000Y-104805197D01*
X100280001Y-104805188D01*
X100280001Y-104756297D01*
X100284226Y-104724204D01*
X100284426Y-104723459D01*
X100300000Y-104665335D01*
X100300000Y-104610666D01*
X100319685Y-104543627D01*
X100336319Y-104522985D01*
X100922595Y-103936709D01*
X102718805Y-102140500D01*
X102780126Y-102107017D01*
X102849818Y-102112001D01*
X102881351Y-102132267D01*
X102882688Y-102130526D01*
X102889134Y-102135472D01*
X102889136Y-102135473D01*
X102889138Y-102135475D01*
X102974762Y-102184910D01*
X103070265Y-102210500D01*
X103070267Y-102210500D01*
X103169132Y-102210500D01*
X103169135Y-102210500D01*
X103264638Y-102184910D01*
X103350262Y-102135475D01*
X103420175Y-102065562D01*
X103420175Y-102065561D01*
X103424719Y-102061018D01*
X103486042Y-102027533D01*
X103555734Y-102032517D01*
X103611667Y-102074389D01*
X103636084Y-102139853D01*
X103636400Y-102148699D01*
X103636400Y-103341800D01*
X103616715Y-103408839D01*
X103600082Y-103429480D01*
X103561426Y-103468136D01*
X103511991Y-103553759D01*
X103511991Y-103553760D01*
X103511990Y-103553762D01*
X103486400Y-103649265D01*
X103486400Y-103748135D01*
X103511990Y-103843638D01*
X103561425Y-103929262D01*
X103631338Y-103999175D01*
X103716962Y-104048610D01*
X103812465Y-104074200D01*
X103812467Y-104074200D01*
X103911332Y-104074200D01*
X103911335Y-104074200D01*
X103915198Y-104073165D01*
X104908600Y-104073165D01*
X104908600Y-104172035D01*
X104934190Y-104267538D01*
X104983625Y-104353162D01*
X105053538Y-104423075D01*
X105139162Y-104472510D01*
X105234665Y-104498100D01*
X105234667Y-104498100D01*
X105333532Y-104498100D01*
X105333535Y-104498100D01*
X105429038Y-104472510D01*
X105514662Y-104423075D01*
X105584575Y-104353162D01*
X105634010Y-104267538D01*
X105659600Y-104172035D01*
X105659600Y-104073165D01*
X105634010Y-103977662D01*
X105584575Y-103892038D01*
X105514662Y-103822125D01*
X105429038Y-103772690D01*
X105333535Y-103747100D01*
X105234665Y-103747100D01*
X105139162Y-103772690D01*
X105139160Y-103772691D01*
X105139159Y-103772691D01*
X105053536Y-103822126D01*
X104983626Y-103892036D01*
X104934191Y-103977659D01*
X104934191Y-103977660D01*
X104934190Y-103977662D01*
X104908600Y-104073165D01*
X103915198Y-104073165D01*
X104006838Y-104048610D01*
X104092462Y-103999175D01*
X104162375Y-103929262D01*
X104211810Y-103843638D01*
X104237400Y-103748135D01*
X104237400Y-103649265D01*
X104211810Y-103553762D01*
X104162375Y-103468138D01*
X104146823Y-103452586D01*
X104123718Y-103429480D01*
X104090233Y-103368157D01*
X104087400Y-103341800D01*
X104087400Y-102965497D01*
X109610800Y-102965497D01*
X109610800Y-103059103D01*
X109613117Y-103067749D01*
X109635026Y-103149519D01*
X109642153Y-103161863D01*
X109681829Y-103230582D01*
X109748018Y-103296771D01*
X109804527Y-103329397D01*
X109822976Y-103340049D01*
X109829082Y-103343574D01*
X109919497Y-103367800D01*
X109919499Y-103367800D01*
X110013101Y-103367800D01*
X110013103Y-103367800D01*
X110103518Y-103343574D01*
X110184582Y-103296771D01*
X110250771Y-103230582D01*
X110297574Y-103149518D01*
X110321800Y-103059103D01*
X110321800Y-102965497D01*
X110297574Y-102875082D01*
X110250771Y-102794018D01*
X110184582Y-102727829D01*
X110135386Y-102699425D01*
X110103519Y-102681026D01*
X110049398Y-102666525D01*
X110013103Y-102656800D01*
X109919497Y-102656800D01*
X109829080Y-102681026D01*
X109748018Y-102727829D01*
X109748015Y-102727831D01*
X109681831Y-102794015D01*
X109681829Y-102794018D01*
X109635026Y-102875080D01*
X109617993Y-102938650D01*
X109610800Y-102965497D01*
X104087400Y-102965497D01*
X104087400Y-101990597D01*
X104087401Y-101990588D01*
X104087401Y-101886446D01*
X104087401Y-101886445D01*
X104053070Y-101803565D01*
X104053070Y-101803564D01*
X103989636Y-101740130D01*
X103982571Y-101733065D01*
X103982564Y-101733059D01*
X103973570Y-101724065D01*
X115588000Y-101724065D01*
X115588000Y-101822935D01*
X115613590Y-101918438D01*
X115663025Y-102004062D01*
X115732938Y-102073975D01*
X115818562Y-102123410D01*
X115914065Y-102149000D01*
X115914067Y-102149000D01*
X116012932Y-102149000D01*
X116012935Y-102149000D01*
X116108438Y-102123410D01*
X116194062Y-102073975D01*
X116263975Y-102004062D01*
X116313410Y-101918438D01*
X116339000Y-101822935D01*
X116339000Y-101724065D01*
X116313410Y-101628562D01*
X116263975Y-101542938D01*
X116194062Y-101473025D01*
X116108438Y-101423590D01*
X116012935Y-101398000D01*
X115914065Y-101398000D01*
X115818562Y-101423590D01*
X115818560Y-101423591D01*
X115818559Y-101423591D01*
X115732936Y-101473026D01*
X115663026Y-101542936D01*
X115613591Y-101628559D01*
X115613591Y-101628560D01*
X115613590Y-101628562D01*
X115588000Y-101724065D01*
X103973570Y-101724065D01*
X102695910Y-100446405D01*
X102678470Y-100428964D01*
X102615036Y-100365530D01*
X102615035Y-100365529D01*
X102590757Y-100355472D01*
X102590757Y-100355471D01*
X102532158Y-100331200D01*
X102532156Y-100331199D01*
X102532155Y-100331199D01*
X102442445Y-100331199D01*
X102428011Y-100331199D01*
X102428003Y-100331200D01*
X99395697Y-100331200D01*
X99395689Y-100331199D01*
X99381255Y-100331199D01*
X99291546Y-100331199D01*
X99291545Y-100331199D01*
X99268291Y-100340831D01*
X99245037Y-100350464D01*
X99245035Y-100350465D01*
X99208664Y-100365529D01*
X99172275Y-100401919D01*
X99145230Y-100428964D01*
X99145229Y-100428965D01*
X97962661Y-101611534D01*
X96803614Y-102770581D01*
X96742291Y-102804066D01*
X96715933Y-102806900D01*
X94002600Y-102806900D01*
X93935561Y-102787215D01*
X93914920Y-102770582D01*
X93876264Y-102731927D01*
X93876262Y-102731925D01*
X93855886Y-102720160D01*
X93807673Y-102669595D01*
X93794451Y-102600988D01*
X93820419Y-102536124D01*
X93830199Y-102525104D01*
X95637539Y-100717765D01*
X97543200Y-100717765D01*
X97543200Y-100816635D01*
X97568790Y-100912138D01*
X97618225Y-100997762D01*
X97688138Y-101067675D01*
X97773762Y-101117110D01*
X97869265Y-101142700D01*
X97869267Y-101142700D01*
X97968132Y-101142700D01*
X97968135Y-101142700D01*
X98063638Y-101117110D01*
X98149262Y-101067675D01*
X98219175Y-100997762D01*
X98268610Y-100912138D01*
X98294200Y-100816635D01*
X98294200Y-100761966D01*
X98313885Y-100694927D01*
X98330519Y-100674285D01*
X98957164Y-100047640D01*
X99591474Y-99413329D01*
X99652795Y-99379846D01*
X99722487Y-99384830D01*
X99778420Y-99426702D01*
X99787610Y-99442839D01*
X99788026Y-99442599D01*
X99792089Y-99449637D01*
X99792090Y-99449638D01*
X99841525Y-99535262D01*
X99911438Y-99605175D01*
X99997062Y-99654610D01*
X100092565Y-99680200D01*
X100092567Y-99680200D01*
X100191432Y-99680200D01*
X100191435Y-99680200D01*
X100286938Y-99654610D01*
X100372562Y-99605175D01*
X100442475Y-99535262D01*
X100491910Y-99449638D01*
X100517500Y-99354135D01*
X100517500Y-99255265D01*
X100491910Y-99159762D01*
X100442475Y-99074138D01*
X100372562Y-99004225D01*
X100286938Y-98954790D01*
X100286937Y-98954789D01*
X100279899Y-98950726D01*
X100281137Y-98948581D01*
X100236452Y-98912568D01*
X100214391Y-98846272D01*
X100231673Y-98778574D01*
X100250622Y-98754182D01*
X100381998Y-98622805D01*
X100443318Y-98589324D01*
X100513010Y-98594308D01*
X100545162Y-98612114D01*
X100548233Y-98614470D01*
X100548238Y-98614475D01*
X100633862Y-98663910D01*
X100729365Y-98689500D01*
X100729367Y-98689500D01*
X100828232Y-98689500D01*
X100828235Y-98689500D01*
X100923738Y-98663910D01*
X101009362Y-98614475D01*
X101079275Y-98544562D01*
X101128710Y-98458938D01*
X101154300Y-98363435D01*
X101154300Y-98264565D01*
X101128710Y-98169062D01*
X101079275Y-98083438D01*
X101009362Y-98013525D01*
X100923738Y-97964090D01*
X100828235Y-97938500D01*
X100729365Y-97938500D01*
X100633862Y-97964090D01*
X100633860Y-97964091D01*
X100633859Y-97964091D01*
X100548236Y-98013526D01*
X100509581Y-98052181D01*
X100448258Y-98085666D01*
X100421901Y-98088499D01*
X100416755Y-98088499D01*
X100327046Y-98088499D01*
X100327045Y-98088499D01*
X100327041Y-98088500D01*
X100295332Y-98101635D01*
X100295331Y-98101636D01*
X100244163Y-98122830D01*
X100244162Y-98122831D01*
X98011613Y-100355381D01*
X97950290Y-100388866D01*
X97923932Y-100391700D01*
X97869265Y-100391700D01*
X97773762Y-100417290D01*
X97773760Y-100417291D01*
X97773759Y-100417291D01*
X97688136Y-100466726D01*
X97618226Y-100536636D01*
X97568791Y-100622259D01*
X97568791Y-100622260D01*
X97568790Y-100622262D01*
X97543200Y-100717765D01*
X95637539Y-100717765D01*
X97708286Y-98647019D01*
X97769609Y-98613534D01*
X97795967Y-98610700D01*
X97805303Y-98610700D01*
X97805311Y-98610701D01*
X97912830Y-98610701D01*
X97979869Y-98630386D01*
X98020216Y-98672699D01*
X98066325Y-98752562D01*
X98136238Y-98822475D01*
X98221862Y-98871910D01*
X98317365Y-98897500D01*
X98317367Y-98897500D01*
X98416232Y-98897500D01*
X98416235Y-98897500D01*
X98511738Y-98871910D01*
X98597362Y-98822475D01*
X98667275Y-98752562D01*
X98716710Y-98666938D01*
X98742300Y-98571435D01*
X98742300Y-98472565D01*
X98716710Y-98377062D01*
X98667275Y-98291438D01*
X98597362Y-98221525D01*
X98578698Y-98210749D01*
X98530484Y-98160182D01*
X98517263Y-98091575D01*
X98543232Y-98026710D01*
X98553010Y-98015693D01*
X99175986Y-97392719D01*
X99237309Y-97359234D01*
X99263667Y-97356400D01*
X101363889Y-97356400D01*
X101420281Y-97371510D01*
X101420452Y-97371099D01*
X101423580Y-97372394D01*
X101425889Y-97373013D01*
X101427277Y-97373814D01*
X101427958Y-97374208D01*
X101427962Y-97374210D01*
X101523465Y-97399800D01*
X101523467Y-97399800D01*
X101622332Y-97399800D01*
X101622335Y-97399800D01*
X101717838Y-97374210D01*
X101803462Y-97324775D01*
X101873375Y-97254862D01*
X101922810Y-97169238D01*
X101948400Y-97073735D01*
X101948400Y-96974865D01*
X101930776Y-96909091D01*
X101932439Y-96839244D01*
X101971601Y-96781381D01*
X102035830Y-96753877D01*
X102050551Y-96753000D01*
X102168427Y-96753000D01*
X102235466Y-96772685D01*
X102281221Y-96825489D01*
X102291366Y-96860817D01*
X102291499Y-96861830D01*
X102291500Y-96861833D01*
X102291500Y-96861835D01*
X102317090Y-96957338D01*
X102366525Y-97042962D01*
X102436438Y-97112875D01*
X102522062Y-97162310D01*
X102617565Y-97187900D01*
X102617567Y-97187900D01*
X102716432Y-97187900D01*
X102716435Y-97187900D01*
X102811938Y-97162310D01*
X102897562Y-97112875D01*
X102967475Y-97042962D01*
X102978285Y-97024237D01*
X103028849Y-96976024D01*
X103097455Y-96962799D01*
X103162321Y-96988766D01*
X103173352Y-96998557D01*
X106773659Y-100598864D01*
X106773662Y-100598868D01*
X106780730Y-100605936D01*
X106844164Y-100669370D01*
X106878492Y-100683588D01*
X106878494Y-100683590D01*
X106878495Y-100683590D01*
X106927046Y-100703701D01*
X106927047Y-100703701D01*
X107031189Y-100703701D01*
X107031197Y-100703700D01*
X112193000Y-100703700D01*
X112260039Y-100723385D01*
X112280680Y-100740018D01*
X112302629Y-100761966D01*
X112319338Y-100778675D01*
X112404962Y-100828110D01*
X112500465Y-100853700D01*
X112500467Y-100853700D01*
X112599332Y-100853700D01*
X112599335Y-100853700D01*
X112694838Y-100828110D01*
X112780462Y-100778675D01*
X112850375Y-100708762D01*
X112899810Y-100623138D01*
X112925400Y-100527635D01*
X112925400Y-100428765D01*
X112899810Y-100333262D01*
X112850375Y-100247638D01*
X112780462Y-100177725D01*
X112694838Y-100128290D01*
X112599335Y-100102700D01*
X112500465Y-100102700D01*
X112404962Y-100128290D01*
X112404960Y-100128291D01*
X112404959Y-100128291D01*
X112319336Y-100177726D01*
X112280680Y-100216382D01*
X112219357Y-100249867D01*
X112193000Y-100252700D01*
X107116667Y-100252700D01*
X107049628Y-100233015D01*
X107028986Y-100216381D01*
X106792657Y-99980052D01*
X106759172Y-99918729D01*
X106764156Y-99849037D01*
X106806028Y-99793104D01*
X106871492Y-99768687D01*
X106912428Y-99772596D01*
X106923265Y-99775500D01*
X106923268Y-99775500D01*
X107022132Y-99775500D01*
X107022135Y-99775500D01*
X107117638Y-99749910D01*
X107203262Y-99700475D01*
X107273175Y-99630562D01*
X107322610Y-99544938D01*
X107348200Y-99449435D01*
X107348200Y-99350565D01*
X107322610Y-99255062D01*
X107273175Y-99169438D01*
X107203262Y-99099525D01*
X107117638Y-99050090D01*
X107022135Y-99024500D01*
X106923265Y-99024500D01*
X106827762Y-99050090D01*
X106827760Y-99050091D01*
X106827759Y-99050091D01*
X106742136Y-99099526D01*
X106672226Y-99169436D01*
X106622791Y-99255059D01*
X106622791Y-99255060D01*
X106622790Y-99255062D01*
X106597200Y-99350565D01*
X106597200Y-99449435D01*
X106597254Y-99449638D01*
X106600103Y-99460268D01*
X106598440Y-99530118D01*
X106559277Y-99587980D01*
X106495049Y-99615484D01*
X106426146Y-99603897D01*
X106392647Y-99580042D01*
X105764886Y-98952281D01*
X105731401Y-98890958D01*
X105736385Y-98821266D01*
X105778257Y-98765333D01*
X105843721Y-98740916D01*
X105852567Y-98740600D01*
X116025833Y-98740600D01*
X116092872Y-98760285D01*
X116113514Y-98776919D01*
X119981914Y-102645319D01*
X120015399Y-102706642D01*
X120010415Y-102776334D01*
X119968543Y-102832267D01*
X119903079Y-102856684D01*
X119894233Y-102857000D01*
X119758983Y-102857000D01*
X119691944Y-102837315D01*
X119671302Y-102820681D01*
X119267108Y-102416487D01*
X119267107Y-102416486D01*
X119267106Y-102416485D01*
X119267102Y-102416483D01*
X119267100Y-102416482D01*
X119217870Y-102396091D01*
X119208156Y-102392067D01*
X119191577Y-102385200D01*
X119191576Y-102385200D01*
X116687477Y-102385200D01*
X116605723Y-102385200D01*
X116579430Y-102396091D01*
X116579429Y-102396090D01*
X116530199Y-102416482D01*
X116530191Y-102416487D01*
X116134395Y-102812283D01*
X116073072Y-102845768D01*
X116003380Y-102840784D01*
X115947447Y-102798912D01*
X115939327Y-102786602D01*
X115933399Y-102776334D01*
X115918275Y-102750138D01*
X115848362Y-102680225D01*
X115762738Y-102630790D01*
X115667235Y-102605200D01*
X115568365Y-102605200D01*
X115472862Y-102630790D01*
X115472860Y-102630791D01*
X115472859Y-102630791D01*
X115387236Y-102680226D01*
X115317326Y-102750136D01*
X115267891Y-102835759D01*
X115267891Y-102835760D01*
X115267890Y-102835762D01*
X115242300Y-102931265D01*
X115242300Y-102931267D01*
X115242300Y-102985932D01*
X115222615Y-103052971D01*
X115205981Y-103073613D01*
X114968045Y-103311548D01*
X114906722Y-103345033D01*
X114837030Y-103340049D01*
X114781097Y-103298177D01*
X114756680Y-103232713D01*
X114771532Y-103164440D01*
X114772921Y-103161965D01*
X114782810Y-103144838D01*
X114808400Y-103049335D01*
X114808400Y-102950465D01*
X114782810Y-102854962D01*
X114733375Y-102769338D01*
X114663462Y-102699425D01*
X114577838Y-102649990D01*
X114482335Y-102624400D01*
X114383465Y-102624400D01*
X114287962Y-102649990D01*
X114287960Y-102649991D01*
X114287959Y-102649991D01*
X114202336Y-102699426D01*
X114145831Y-102755932D01*
X114084508Y-102789417D01*
X114014816Y-102784433D01*
X113970469Y-102755932D01*
X113920563Y-102706026D01*
X113920562Y-102706025D01*
X113834938Y-102656590D01*
X113739435Y-102631000D01*
X113640565Y-102631000D01*
X113545062Y-102656590D01*
X113545060Y-102656591D01*
X113545059Y-102656591D01*
X113459436Y-102706026D01*
X113389526Y-102775936D01*
X113340091Y-102861559D01*
X113340091Y-102861560D01*
X113340090Y-102861562D01*
X113314500Y-102957065D01*
X113314500Y-103055935D01*
X113340090Y-103151438D01*
X113340091Y-103151439D01*
X113340091Y-103151440D01*
X113342917Y-103156335D01*
X113389525Y-103237062D01*
X113459438Y-103306975D01*
X113545062Y-103356410D01*
X113640565Y-103382000D01*
X113640567Y-103382000D01*
X113739432Y-103382000D01*
X113739435Y-103382000D01*
X113834938Y-103356410D01*
X113920562Y-103306975D01*
X113977069Y-103250468D01*
X114038392Y-103216983D01*
X114108084Y-103221967D01*
X114152431Y-103250468D01*
X114202338Y-103300375D01*
X114287962Y-103349810D01*
X114383465Y-103375400D01*
X114383467Y-103375400D01*
X114482332Y-103375400D01*
X114482335Y-103375400D01*
X114577838Y-103349810D01*
X114594867Y-103339977D01*
X114662762Y-103323504D01*
X114728790Y-103346354D01*
X114771983Y-103401273D01*
X114778627Y-103470826D01*
X114746614Y-103532930D01*
X114744549Y-103535045D01*
X114667470Y-103612125D01*
X114452012Y-103827582D01*
X114390692Y-103861066D01*
X114364333Y-103863900D01*
X111038200Y-103863900D01*
X110971161Y-103844215D01*
X110950520Y-103827582D01*
X110911863Y-103788926D01*
X110911862Y-103788925D01*
X110826238Y-103739490D01*
X110730735Y-103713900D01*
X110631865Y-103713900D01*
X110536362Y-103739490D01*
X110536360Y-103739491D01*
X110536359Y-103739491D01*
X110450736Y-103788926D01*
X110380826Y-103858836D01*
X110331391Y-103944459D01*
X110331391Y-103944460D01*
X110331390Y-103944462D01*
X110305800Y-104039965D01*
X110305800Y-104138835D01*
X110331390Y-104234338D01*
X110331391Y-104234339D01*
X110331391Y-104234340D01*
X110344637Y-104257282D01*
X110380825Y-104319962D01*
X110450738Y-104389875D01*
X110536362Y-104439310D01*
X110631865Y-104464900D01*
X110631867Y-104464900D01*
X110730732Y-104464900D01*
X110730735Y-104464900D01*
X110826238Y-104439310D01*
X110911862Y-104389875D01*
X110939301Y-104362436D01*
X110950520Y-104351218D01*
X111011843Y-104317733D01*
X111038200Y-104314900D01*
X114332417Y-104314900D01*
X114399456Y-104334585D01*
X114445211Y-104387389D01*
X114455155Y-104456547D01*
X114426130Y-104520103D01*
X114420098Y-104526581D01*
X113813498Y-105133181D01*
X113752175Y-105166666D01*
X113725817Y-105169500D01*
X110910516Y-105169500D01*
X110843477Y-105149815D01*
X110822836Y-105133182D01*
X110780185Y-105090532D01*
X110780182Y-105090529D01*
X110729210Y-105061100D01*
X110699119Y-105043726D01*
X110653910Y-105031613D01*
X110608703Y-105019500D01*
X110515097Y-105019500D01*
X110424680Y-105043726D01*
X110343618Y-105090529D01*
X110343614Y-105090532D01*
X110300964Y-105133182D01*
X110239641Y-105166666D01*
X110213284Y-105169500D01*
X109785767Y-105169500D01*
X109718728Y-105149815D01*
X109672973Y-105097011D01*
X109663029Y-105027853D01*
X109665992Y-105013407D01*
X109666010Y-105013339D01*
X109684500Y-104944335D01*
X109684500Y-104845465D01*
X109658910Y-104749962D01*
X109609475Y-104664338D01*
X109539562Y-104594425D01*
X109453938Y-104544990D01*
X109358435Y-104519400D01*
X109259565Y-104519400D01*
X109164062Y-104544990D01*
X109164060Y-104544991D01*
X109164059Y-104544991D01*
X109078436Y-104594426D01*
X109039780Y-104633082D01*
X108978457Y-104666567D01*
X108952100Y-104669400D01*
X108860297Y-104669400D01*
X108860289Y-104669399D01*
X108845855Y-104669399D01*
X108756146Y-104669399D01*
X108756145Y-104669399D01*
X108756141Y-104669400D01*
X108724432Y-104682535D01*
X108724431Y-104682536D01*
X108673263Y-104703730D01*
X107088127Y-106288866D01*
X107081675Y-106304446D01*
X107081675Y-106304448D01*
X107053799Y-106371744D01*
X107053799Y-106475888D01*
X107053800Y-106475897D01*
X107053800Y-109449000D01*
X107034115Y-109516039D01*
X107017482Y-109536680D01*
X106978826Y-109575336D01*
X106929391Y-109660959D01*
X106929391Y-109660960D01*
X106929390Y-109660962D01*
X106903800Y-109756465D01*
X106903800Y-109756467D01*
X106903800Y-109811132D01*
X106884115Y-109878171D01*
X106831311Y-109923926D01*
X106762153Y-109933870D01*
X106698597Y-109904845D01*
X106692120Y-109898814D01*
X106646212Y-109852907D01*
X106646211Y-109852905D01*
X106565334Y-109772028D01*
X106530259Y-109757501D01*
X106530255Y-109757499D01*
X106482457Y-109737699D01*
X106482455Y-109737699D01*
X106392745Y-109737699D01*
X106378311Y-109737699D01*
X106378303Y-109737700D01*
X105797566Y-109737700D01*
X105730527Y-109718015D01*
X105684772Y-109665211D01*
X105674828Y-109596053D01*
X105703853Y-109532497D01*
X105709885Y-109526019D01*
X105798314Y-109437590D01*
X105915334Y-109320570D01*
X105915336Y-109320570D01*
X105978770Y-109257136D01*
X105993701Y-109221090D01*
X106013101Y-109174255D01*
X106013101Y-109084545D01*
X106013101Y-109074556D01*
X106013100Y-109074542D01*
X106013100Y-107820797D01*
X106013101Y-107820788D01*
X106013101Y-107716647D01*
X106010815Y-107705154D01*
X106017044Y-107635562D01*
X106059907Y-107580386D01*
X106125797Y-107557142D01*
X106164518Y-107561188D01*
X106246297Y-107583100D01*
X106246300Y-107583100D01*
X106339901Y-107583100D01*
X106339903Y-107583100D01*
X106430318Y-107558874D01*
X106511382Y-107512071D01*
X106577571Y-107445882D01*
X106624374Y-107364818D01*
X106648600Y-107274403D01*
X106648600Y-107180797D01*
X106624374Y-107090382D01*
X106577571Y-107009318D01*
X106511382Y-106943129D01*
X106450375Y-106907906D01*
X106430319Y-106896326D01*
X106385110Y-106884213D01*
X106339903Y-106872100D01*
X106246297Y-106872100D01*
X106155880Y-106896326D01*
X106074818Y-106943129D01*
X106074815Y-106943131D01*
X106008631Y-107009315D01*
X106008629Y-107009318D01*
X105961826Y-107090380D01*
X105937600Y-107180797D01*
X105937600Y-107274405D01*
X105938162Y-107278676D01*
X105937600Y-107282278D01*
X105937600Y-107282530D01*
X105937561Y-107282530D01*
X105927393Y-107347711D01*
X105881010Y-107399964D01*
X105813740Y-107418846D01*
X105746941Y-107398362D01*
X105727541Y-107382536D01*
X105258256Y-106913251D01*
X105224771Y-106851928D01*
X105229755Y-106782236D01*
X105271627Y-106726303D01*
X105313840Y-106705797D01*
X105356338Y-106694410D01*
X105441962Y-106644975D01*
X105511875Y-106575062D01*
X105561310Y-106489438D01*
X105586900Y-106393935D01*
X105586900Y-106295065D01*
X105561310Y-106199562D01*
X105511875Y-106113938D01*
X105441962Y-106044025D01*
X105356338Y-105994590D01*
X105260835Y-105969000D01*
X105161965Y-105969000D01*
X105066462Y-105994590D01*
X105066460Y-105994591D01*
X105066459Y-105994591D01*
X104980836Y-106044026D01*
X104910926Y-106113936D01*
X104857426Y-106206601D01*
X104855987Y-106205770D01*
X104818172Y-106252692D01*
X104751876Y-106274752D01*
X104684178Y-106257469D01*
X104636571Y-106206329D01*
X104629090Y-106181917D01*
X104627603Y-106182316D01*
X104625500Y-106174467D01*
X104625500Y-106174465D01*
X104599910Y-106078962D01*
X104550475Y-105993338D01*
X104480562Y-105923425D01*
X104394938Y-105873990D01*
X104299435Y-105848400D01*
X104200565Y-105848400D01*
X104105062Y-105873990D01*
X104105060Y-105873991D01*
X104105059Y-105873991D01*
X104019436Y-105923426D01*
X103949526Y-105993336D01*
X103900091Y-106078959D01*
X103900091Y-106078960D01*
X103900090Y-106078962D01*
X103874500Y-106174465D01*
X103874500Y-106273335D01*
X103900090Y-106368838D01*
X103949525Y-106454462D01*
X104019438Y-106524375D01*
X104105062Y-106573810D01*
X104200565Y-106599400D01*
X104200567Y-106599400D01*
X104255233Y-106599400D01*
X104322272Y-106619085D01*
X104342914Y-106635719D01*
X105525781Y-107818586D01*
X105559266Y-107879909D01*
X105562100Y-107906267D01*
X105562100Y-108449175D01*
X105542415Y-108516214D01*
X105489611Y-108561969D01*
X105420453Y-108571913D01*
X105406009Y-108568951D01*
X105399885Y-108567310D01*
X105376335Y-108561000D01*
X105277465Y-108561000D01*
X105181962Y-108586590D01*
X105181960Y-108586591D01*
X105181959Y-108586591D01*
X105096336Y-108636026D01*
X105057680Y-108674682D01*
X104996357Y-108708167D01*
X104970000Y-108711000D01*
X104124336Y-108711000D01*
X104057297Y-108691315D01*
X104011542Y-108638511D01*
X104001598Y-108569353D01*
X104004561Y-108554908D01*
X104006853Y-108546354D01*
X104010100Y-108534235D01*
X104010100Y-108435365D01*
X103984510Y-108339862D01*
X103935075Y-108254238D01*
X103865162Y-108184325D01*
X103779538Y-108134890D01*
X103684035Y-108109300D01*
X103585165Y-108109300D01*
X103489662Y-108134890D01*
X103489660Y-108134891D01*
X103489659Y-108134891D01*
X103404036Y-108184326D01*
X103365380Y-108222982D01*
X103304057Y-108256467D01*
X103277700Y-108259300D01*
X101777097Y-108259300D01*
X101777089Y-108259299D01*
X101762655Y-108259299D01*
X101672945Y-108259299D01*
X101672943Y-108259299D01*
X101623825Y-108279645D01*
X101590066Y-108293628D01*
X101590062Y-108293631D01*
X101552194Y-108331500D01*
X101526630Y-108357064D01*
X101526629Y-108357065D01*
X101464958Y-108418736D01*
X101414529Y-108469165D01*
X101353206Y-108502649D01*
X101283514Y-108497665D01*
X101227581Y-108455793D01*
X101219465Y-108443489D01*
X101205175Y-108418738D01*
X101135262Y-108348825D01*
X101049638Y-108299390D01*
X100954135Y-108273800D01*
X100855265Y-108273800D01*
X100759762Y-108299390D01*
X100759760Y-108299391D01*
X100759759Y-108299391D01*
X100674136Y-108348826D01*
X100604226Y-108418736D01*
X100554791Y-108504359D01*
X100554791Y-108504360D01*
X100554790Y-108504362D01*
X100529200Y-108599865D01*
X100529200Y-108698735D01*
X100554790Y-108794238D01*
X100604225Y-108879862D01*
X100674138Y-108949775D01*
X100698886Y-108964063D01*
X100747099Y-109014627D01*
X100760323Y-109083233D01*
X100734355Y-109148099D01*
X100724565Y-109159129D01*
X100290114Y-109593581D01*
X100228791Y-109627066D01*
X100202433Y-109629900D01*
X99946557Y-109629900D01*
X99946555Y-109629899D01*
X99856845Y-109629899D01*
X99848697Y-109633273D01*
X99848695Y-109633274D01*
X99803642Y-109651937D01*
X99803638Y-109651939D01*
X99773965Y-109664228D01*
X99773964Y-109664229D01*
X99710529Y-109727665D01*
X99099463Y-110338730D01*
X99038140Y-110372215D01*
X98968448Y-110367231D01*
X98912515Y-110325359D01*
X98904403Y-110313060D01*
X98894575Y-110296038D01*
X98824662Y-110226125D01*
X98739038Y-110176690D01*
X98643535Y-110151100D01*
X98544665Y-110151100D01*
X98449162Y-110176690D01*
X98449160Y-110176691D01*
X98449159Y-110176691D01*
X98363536Y-110226126D01*
X98293626Y-110296036D01*
X98244191Y-110381659D01*
X98244191Y-110381660D01*
X98244190Y-110381662D01*
X98218600Y-110477165D01*
X98218600Y-110576035D01*
X98244190Y-110671538D01*
X98293625Y-110757162D01*
X98363538Y-110827075D01*
X98449162Y-110876510D01*
X98544665Y-110902100D01*
X98544667Y-110902100D01*
X98643532Y-110902100D01*
X98643535Y-110902100D01*
X98685408Y-110890880D01*
X98755256Y-110892543D01*
X98813119Y-110931705D01*
X98840623Y-110995934D01*
X98841500Y-111010655D01*
X98841500Y-111085000D01*
X98821815Y-111152039D01*
X98805182Y-111172680D01*
X98766526Y-111211336D01*
X98717091Y-111296959D01*
X98717091Y-111296960D01*
X98717090Y-111296962D01*
X98691500Y-111392465D01*
X98691500Y-111491335D01*
X98717090Y-111586838D01*
X98717091Y-111586839D01*
X98717091Y-111586840D01*
X98722686Y-111596531D01*
X98766525Y-111672462D01*
X98836438Y-111742375D01*
X98922062Y-111791810D01*
X99017565Y-111817400D01*
X99017567Y-111817400D01*
X99116433Y-111817400D01*
X99116435Y-111817400D01*
X99141320Y-111810732D01*
X99211169Y-111812393D01*
X99269032Y-111851555D01*
X99293188Y-111898411D01*
X99311388Y-111966333D01*
X99311391Y-111966340D01*
X99324637Y-111989282D01*
X99360825Y-112051962D01*
X99430738Y-112121875D01*
X99459605Y-112138541D01*
X99507820Y-112189105D01*
X99521044Y-112257712D01*
X99495077Y-112322577D01*
X99485286Y-112333608D01*
X97468614Y-114350281D01*
X97407291Y-114383766D01*
X97380933Y-114386600D01*
X85663000Y-114386600D01*
X85595961Y-114366915D01*
X85575320Y-114350282D01*
X85536663Y-114311626D01*
X85536662Y-114311625D01*
X85451038Y-114262190D01*
X85355535Y-114236600D01*
X85256665Y-114236600D01*
X85161162Y-114262190D01*
X85161160Y-114262191D01*
X85161159Y-114262191D01*
X85075536Y-114311626D01*
X85005626Y-114381536D01*
X84956191Y-114467159D01*
X84956191Y-114467160D01*
X84956190Y-114467162D01*
X84930600Y-114562665D01*
X84930600Y-114661535D01*
X84956190Y-114757038D01*
X84956191Y-114757039D01*
X84956191Y-114757040D01*
X84963287Y-114769331D01*
X85005625Y-114842662D01*
X85075538Y-114912575D01*
X85161162Y-114962010D01*
X85256665Y-114987600D01*
X85256667Y-114987600D01*
X85355532Y-114987600D01*
X85355535Y-114987600D01*
X85451038Y-114962010D01*
X85536662Y-114912575D01*
X85555991Y-114893245D01*
X85575320Y-114873918D01*
X85636643Y-114840433D01*
X85663000Y-114837600D01*
X97466403Y-114837600D01*
X97466411Y-114837601D01*
X97480845Y-114837601D01*
X97570554Y-114837601D01*
X97570555Y-114837601D01*
X97631956Y-114812167D01*
X97653436Y-114803270D01*
X97716870Y-114739836D01*
X97716870Y-114739835D01*
X97734308Y-114722397D01*
X97734310Y-114722394D01*
X101007059Y-111449644D01*
X101068380Y-111416161D01*
X101138072Y-111421145D01*
X101194005Y-111463017D01*
X101202124Y-111475326D01*
X101227239Y-111518825D01*
X101251625Y-111561062D01*
X101321538Y-111630975D01*
X101407162Y-111680410D01*
X101502665Y-111706000D01*
X101502667Y-111706000D01*
X101601532Y-111706000D01*
X101601535Y-111706000D01*
X101697038Y-111680410D01*
X101782662Y-111630975D01*
X101852575Y-111561062D01*
X101902010Y-111475438D01*
X101927600Y-111379935D01*
X101927600Y-111281065D01*
X101902010Y-111185562D01*
X101852575Y-111099938D01*
X101782662Y-111030025D01*
X101782660Y-111030023D01*
X101779978Y-111027965D01*
X101778289Y-111025652D01*
X101776915Y-111024278D01*
X101777129Y-111024063D01*
X101738776Y-110971537D01*
X101734623Y-110901790D01*
X101768836Y-110840871D01*
X101830554Y-110808119D01*
X101887554Y-110809815D01*
X101956165Y-110828200D01*
X101956169Y-110828200D01*
X102055032Y-110828200D01*
X102055035Y-110828200D01*
X102150538Y-110802610D01*
X102150539Y-110802608D01*
X102158388Y-110800506D01*
X102158961Y-110802644D01*
X102216929Y-110796402D01*
X102279414Y-110827666D01*
X102302317Y-110856431D01*
X102313825Y-110876362D01*
X102383738Y-110946275D01*
X102469362Y-110995710D01*
X102480859Y-110998790D01*
X102540519Y-111035154D01*
X102571049Y-111098000D01*
X102562755Y-111167376D01*
X102536447Y-111206246D01*
X101895216Y-111847477D01*
X98448214Y-115294481D01*
X98386891Y-115327966D01*
X98360533Y-115330800D01*
X85137245Y-115330800D01*
X85070206Y-115311115D01*
X85024451Y-115258311D01*
X85022685Y-115254256D01*
X85020166Y-115248175D01*
X85020161Y-115248166D01*
X84948976Y-115141631D01*
X84948973Y-115141627D01*
X84858372Y-115051026D01*
X84858368Y-115051023D01*
X84751833Y-114979838D01*
X84751824Y-114979833D01*
X84633444Y-114930799D01*
X84633438Y-114930797D01*
X84507771Y-114905800D01*
X84507769Y-114905800D01*
X84379631Y-114905800D01*
X84379629Y-114905800D01*
X84253961Y-114930797D01*
X84253955Y-114930799D01*
X84135575Y-114979833D01*
X84135566Y-114979838D01*
X84029031Y-115051023D01*
X84029027Y-115051026D01*
X83938426Y-115141627D01*
X83927643Y-115157766D01*
X83874030Y-115202570D01*
X83804705Y-115211277D01*
X83741678Y-115181122D01*
X83736860Y-115176555D01*
X81438370Y-112878065D01*
X86695400Y-112878065D01*
X86695400Y-112976935D01*
X86720990Y-113072438D01*
X86720991Y-113072439D01*
X86720991Y-113072440D01*
X86727784Y-113084206D01*
X86770425Y-113158062D01*
X86840338Y-113227975D01*
X86925962Y-113277410D01*
X87021465Y-113303000D01*
X87021467Y-113303000D01*
X87120332Y-113303000D01*
X87120335Y-113303000D01*
X87215838Y-113277410D01*
X87301462Y-113227975D01*
X87371375Y-113158062D01*
X87420810Y-113072438D01*
X87446400Y-112976935D01*
X87446400Y-112878065D01*
X87420810Y-112782562D01*
X87371375Y-112696938D01*
X87301462Y-112627025D01*
X87215838Y-112577590D01*
X87120335Y-112552000D01*
X87021465Y-112552000D01*
X86925962Y-112577590D01*
X86925960Y-112577591D01*
X86925959Y-112577591D01*
X86840336Y-112627026D01*
X86770426Y-112696936D01*
X86720991Y-112782559D01*
X86720991Y-112782560D01*
X86720990Y-112782562D01*
X86695400Y-112878065D01*
X81438370Y-112878065D01*
X80803919Y-112243614D01*
X80770434Y-112182291D01*
X80767600Y-112155933D01*
X80767600Y-112101267D01*
X80767600Y-112101265D01*
X80742010Y-112005762D01*
X80692575Y-111920138D01*
X80622662Y-111850225D01*
X80537038Y-111800790D01*
X80441535Y-111775200D01*
X80342665Y-111775200D01*
X80247162Y-111800790D01*
X80247160Y-111800791D01*
X80247159Y-111800791D01*
X80161536Y-111850226D01*
X80091626Y-111920136D01*
X80042191Y-112005759D01*
X80042191Y-112005760D01*
X80042190Y-112005762D01*
X80016600Y-112101265D01*
X80016600Y-112200135D01*
X80042190Y-112295638D01*
X80091625Y-112381262D01*
X80161538Y-112451175D01*
X80247162Y-112500610D01*
X80342665Y-112526200D01*
X80342667Y-112526200D01*
X80397333Y-112526200D01*
X80464372Y-112545885D01*
X80485014Y-112562519D01*
X83599459Y-115676964D01*
X83599462Y-115676968D01*
X83606530Y-115684036D01*
X83669964Y-115747470D01*
X83697559Y-115758900D01*
X83752846Y-115781801D01*
X83752850Y-115781801D01*
X83764823Y-115784183D01*
X83764461Y-115786001D01*
X83817195Y-115801486D01*
X83862950Y-115854290D01*
X83864718Y-115858350D01*
X83867234Y-115864426D01*
X83867238Y-115864433D01*
X83938423Y-115970968D01*
X83938426Y-115970972D01*
X84029027Y-116061573D01*
X84029031Y-116061576D01*
X84135566Y-116132761D01*
X84135572Y-116132764D01*
X84135573Y-116132765D01*
X84253956Y-116181801D01*
X84253960Y-116181801D01*
X84253961Y-116181802D01*
X84379628Y-116206800D01*
X84379631Y-116206800D01*
X84507771Y-116206800D01*
X84602557Y-116187945D01*
X84633444Y-116181801D01*
X84751827Y-116132765D01*
X84858369Y-116061576D01*
X84948976Y-115970969D01*
X85020165Y-115864427D01*
X85021188Y-115861957D01*
X85022685Y-115858344D01*
X85066528Y-115803942D01*
X85132823Y-115781879D01*
X85137245Y-115781800D01*
X86239432Y-115781800D01*
X86306471Y-115801485D01*
X86352226Y-115854289D01*
X86362170Y-115923447D01*
X86333145Y-115987003D01*
X86327113Y-115993481D01*
X85777330Y-116543263D01*
X85774748Y-116549498D01*
X85774747Y-116549499D01*
X85742999Y-116626142D01*
X85742999Y-116730288D01*
X85743000Y-116730297D01*
X85743000Y-118236600D01*
X85723315Y-118303639D01*
X85706682Y-118324280D01*
X85668026Y-118362936D01*
X85618591Y-118448559D01*
X85618591Y-118448560D01*
X85618590Y-118448562D01*
X85593000Y-118544065D01*
X85593000Y-118642935D01*
X85618590Y-118738438D01*
X85668025Y-118824062D01*
X85737938Y-118893975D01*
X85823562Y-118943410D01*
X85919065Y-118969000D01*
X85919067Y-118969000D01*
X85973732Y-118969000D01*
X86040771Y-118988685D01*
X86061413Y-119005319D01*
X86299866Y-119243772D01*
X86363965Y-119270321D01*
X86382745Y-119278100D01*
X86472454Y-119278100D01*
X88306455Y-119278100D01*
X88373494Y-119297785D01*
X88419249Y-119350589D01*
X88421015Y-119354644D01*
X88423533Y-119360724D01*
X88423538Y-119360733D01*
X88494723Y-119467268D01*
X88494726Y-119467272D01*
X88585327Y-119557873D01*
X88585331Y-119557876D01*
X88691866Y-119629061D01*
X88691872Y-119629064D01*
X88691873Y-119629065D01*
X88810256Y-119678101D01*
X88810260Y-119678101D01*
X88810261Y-119678102D01*
X88935928Y-119703100D01*
X88935931Y-119703100D01*
X89064071Y-119703100D01*
X89148615Y-119686282D01*
X89189744Y-119678101D01*
X89308127Y-119629065D01*
X89414669Y-119557876D01*
X89463474Y-119509071D01*
X95029499Y-119509071D01*
X95054497Y-119634738D01*
X95054499Y-119634744D01*
X95103533Y-119753124D01*
X95103538Y-119753133D01*
X95174723Y-119859668D01*
X95174726Y-119859672D01*
X95265327Y-119950273D01*
X95265331Y-119950276D01*
X95371866Y-120021461D01*
X95371875Y-120021466D01*
X95398692Y-120032574D01*
X95490256Y-120070501D01*
X95490260Y-120070501D01*
X95490261Y-120070502D01*
X95615928Y-120095500D01*
X95615931Y-120095500D01*
X95744071Y-120095500D01*
X95844467Y-120075529D01*
X95869744Y-120070501D01*
X95988127Y-120021465D01*
X96094669Y-119950276D01*
X96185276Y-119859669D01*
X96256465Y-119753127D01*
X96305501Y-119634744D01*
X96316682Y-119578536D01*
X96330500Y-119509071D01*
X96330500Y-119332399D01*
X96634500Y-119332399D01*
X96634500Y-119457601D01*
X96666905Y-119578536D01*
X96729505Y-119686964D01*
X96818036Y-119775495D01*
X96926464Y-119838095D01*
X97047399Y-119870500D01*
X97047401Y-119870500D01*
X97172599Y-119870500D01*
X97172601Y-119870500D01*
X97293536Y-119838095D01*
X97401964Y-119775495D01*
X97490495Y-119686964D01*
X97553095Y-119578536D01*
X97585500Y-119457601D01*
X97585500Y-119332399D01*
X97553095Y-119211464D01*
X97490495Y-119103036D01*
X97401964Y-119014505D01*
X97293536Y-118951905D01*
X97293537Y-118951905D01*
X97232652Y-118935591D01*
X97172601Y-118919500D01*
X97047399Y-118919500D01*
X96987348Y-118935591D01*
X96926463Y-118951905D01*
X96818037Y-119014504D01*
X96818034Y-119014506D01*
X96729506Y-119103034D01*
X96729504Y-119103037D01*
X96666905Y-119211463D01*
X96658248Y-119243770D01*
X96634500Y-119332399D01*
X96330500Y-119332399D01*
X96330500Y-118280928D01*
X96305502Y-118155261D01*
X96305501Y-118155260D01*
X96305501Y-118155256D01*
X96256465Y-118036873D01*
X96256464Y-118036872D01*
X96256461Y-118036866D01*
X96185276Y-117930331D01*
X96185273Y-117930327D01*
X96094672Y-117839726D01*
X96094668Y-117839723D01*
X95988133Y-117768538D01*
X95988124Y-117768533D01*
X95869744Y-117719499D01*
X95869738Y-117719497D01*
X95744071Y-117694500D01*
X95744069Y-117694500D01*
X95615931Y-117694500D01*
X95615929Y-117694500D01*
X95490261Y-117719497D01*
X95490255Y-117719499D01*
X95371875Y-117768533D01*
X95371866Y-117768538D01*
X95265331Y-117839723D01*
X95265327Y-117839726D01*
X95174726Y-117930327D01*
X95174723Y-117930331D01*
X95103538Y-118036866D01*
X95103533Y-118036875D01*
X95054499Y-118155255D01*
X95054497Y-118155261D01*
X95029500Y-118280928D01*
X95029500Y-118280931D01*
X95029500Y-119509069D01*
X95029500Y-119509071D01*
X95029499Y-119509071D01*
X89463474Y-119509071D01*
X89505276Y-119467269D01*
X89576465Y-119360727D01*
X89625501Y-119242344D01*
X89637241Y-119183325D01*
X89650500Y-119116671D01*
X89650500Y-118988528D01*
X89625502Y-118862861D01*
X89625501Y-118862860D01*
X89625501Y-118862856D01*
X89576683Y-118744999D01*
X89576466Y-118744475D01*
X89576461Y-118744466D01*
X89505276Y-118637931D01*
X89505273Y-118637927D01*
X89414672Y-118547326D01*
X89414668Y-118547323D01*
X89308133Y-118476138D01*
X89308124Y-118476133D01*
X89189744Y-118427099D01*
X89189738Y-118427097D01*
X89064071Y-118402100D01*
X89064069Y-118402100D01*
X88935931Y-118402100D01*
X88935929Y-118402100D01*
X88810261Y-118427097D01*
X88810255Y-118427099D01*
X88691875Y-118476133D01*
X88691866Y-118476138D01*
X88585331Y-118547323D01*
X88585327Y-118547326D01*
X88494726Y-118637927D01*
X88494723Y-118637931D01*
X88423538Y-118744466D01*
X88423533Y-118744475D01*
X88421015Y-118750556D01*
X88377172Y-118804958D01*
X88310877Y-118827021D01*
X88306455Y-118827100D01*
X86572368Y-118827100D01*
X86505329Y-118807415D01*
X86484687Y-118790781D01*
X86380319Y-118686413D01*
X86346834Y-118625090D01*
X86344000Y-118598732D01*
X86344000Y-118544067D01*
X86344000Y-118544065D01*
X86318410Y-118448562D01*
X86268975Y-118362938D01*
X86268556Y-118362519D01*
X86230318Y-118324280D01*
X86196833Y-118262957D01*
X86194000Y-118236600D01*
X86194000Y-117226891D01*
X86213685Y-117159852D01*
X86266489Y-117114097D01*
X86335647Y-117104153D01*
X86379998Y-117119504D01*
X86389362Y-117124910D01*
X86484865Y-117150500D01*
X86484867Y-117150500D01*
X86583732Y-117150500D01*
X86583735Y-117150500D01*
X86679238Y-117124910D01*
X86764862Y-117075475D01*
X86787612Y-117052725D01*
X86803520Y-117036818D01*
X86864843Y-117003333D01*
X86891200Y-117000500D01*
X98480703Y-117000500D01*
X98480711Y-117000501D01*
X98495145Y-117000501D01*
X98584853Y-117000501D01*
X98584855Y-117000501D01*
X98643460Y-116976225D01*
X98667736Y-116966170D01*
X98731170Y-116902736D01*
X98731170Y-116902735D01*
X98748608Y-116885297D01*
X98748609Y-116885294D01*
X99321619Y-116312284D01*
X99382942Y-116278800D01*
X99452634Y-116283784D01*
X99508567Y-116325656D01*
X99532984Y-116391120D01*
X99533300Y-116399966D01*
X99533300Y-121495392D01*
X99513615Y-121562431D01*
X99496981Y-121583073D01*
X99494726Y-121585327D01*
X99494723Y-121585331D01*
X99423538Y-121691866D01*
X99423533Y-121691875D01*
X99374499Y-121810255D01*
X99374497Y-121810261D01*
X99349500Y-121935928D01*
X99349500Y-121935931D01*
X99349500Y-122064069D01*
X99349500Y-122064071D01*
X99349499Y-122064071D01*
X99374497Y-122189738D01*
X99374499Y-122189744D01*
X99423533Y-122308124D01*
X99423538Y-122308133D01*
X99455528Y-122356009D01*
X99476406Y-122422687D01*
X99457921Y-122490067D01*
X99405942Y-122536757D01*
X99352426Y-122548900D01*
X96851868Y-122548900D01*
X96784829Y-122529215D01*
X96764187Y-122512581D01*
X96189611Y-121938006D01*
X96189610Y-121938005D01*
X96172170Y-121920564D01*
X96108736Y-121857130D01*
X96108735Y-121857129D01*
X96084457Y-121847072D01*
X96084457Y-121847071D01*
X96025858Y-121822800D01*
X96025856Y-121822799D01*
X96025855Y-121822799D01*
X95936145Y-121822799D01*
X95921711Y-121822799D01*
X95921703Y-121822800D01*
X95724855Y-121822800D01*
X95635145Y-121822800D01*
X95635143Y-121822800D01*
X95635141Y-121822801D01*
X95552266Y-121857127D01*
X95488827Y-121920566D01*
X95454501Y-122003441D01*
X95454500Y-122003446D01*
X95454500Y-122081455D01*
X95434815Y-122148494D01*
X95382011Y-122194249D01*
X95377956Y-122196015D01*
X95371875Y-122198533D01*
X95371866Y-122198538D01*
X95265331Y-122269723D01*
X95265327Y-122269726D01*
X95174726Y-122360327D01*
X95174723Y-122360331D01*
X95103538Y-122466866D01*
X95103533Y-122466875D01*
X95054499Y-122585255D01*
X95054497Y-122585261D01*
X95029500Y-122710928D01*
X95029500Y-122710931D01*
X95029500Y-123439069D01*
X95029500Y-123439071D01*
X95029499Y-123439071D01*
X95054497Y-123564738D01*
X95054499Y-123564744D01*
X95103533Y-123683124D01*
X95103538Y-123683133D01*
X95174723Y-123789668D01*
X95174726Y-123789672D01*
X95265327Y-123880273D01*
X95265331Y-123880276D01*
X95371866Y-123951461D01*
X95371872Y-123951464D01*
X95371873Y-123951465D01*
X95490256Y-124000501D01*
X95490260Y-124000501D01*
X95490261Y-124000502D01*
X95615928Y-124025500D01*
X95615931Y-124025500D01*
X95744071Y-124025500D01*
X95828615Y-124008682D01*
X95869744Y-124000501D01*
X95988127Y-123951465D01*
X96094669Y-123880276D01*
X96185276Y-123789669D01*
X96256465Y-123683127D01*
X96305501Y-123564744D01*
X96330500Y-123439069D01*
X96330500Y-123016068D01*
X96350185Y-122949029D01*
X96402989Y-122903274D01*
X96472147Y-122893330D01*
X96535703Y-122922355D01*
X96542181Y-122928387D01*
X96579366Y-122965572D01*
X96643465Y-122992121D01*
X96662245Y-122999900D01*
X103233603Y-122999900D01*
X103233611Y-122999901D01*
X103248045Y-122999901D01*
X103337754Y-122999901D01*
X103337755Y-122999901D01*
X103414320Y-122968186D01*
X103420636Y-122965570D01*
X103457818Y-122928388D01*
X103519141Y-122894902D01*
X103588832Y-122899886D01*
X103644766Y-122941756D01*
X103669184Y-123007221D01*
X103669500Y-123016068D01*
X103669500Y-123439069D01*
X103669500Y-123439071D01*
X103669499Y-123439071D01*
X103694497Y-123564738D01*
X103694499Y-123564744D01*
X103743533Y-123683124D01*
X103743538Y-123683133D01*
X103814723Y-123789668D01*
X103814726Y-123789672D01*
X103905327Y-123880273D01*
X103905331Y-123880276D01*
X104011866Y-123951461D01*
X104011872Y-123951464D01*
X104011873Y-123951465D01*
X104130256Y-124000501D01*
X104130260Y-124000501D01*
X104130261Y-124000502D01*
X104255928Y-124025500D01*
X104255931Y-124025500D01*
X104384071Y-124025500D01*
X104468615Y-124008682D01*
X104509744Y-124000501D01*
X104628127Y-123951465D01*
X104734669Y-123880276D01*
X104825276Y-123789669D01*
X104896465Y-123683127D01*
X104945501Y-123564744D01*
X104970500Y-123439069D01*
X104970500Y-122710931D01*
X104970500Y-122710928D01*
X104945502Y-122585261D01*
X104945501Y-122585260D01*
X104945501Y-122585256D01*
X104896465Y-122466873D01*
X104896464Y-122466872D01*
X104896461Y-122466866D01*
X104858926Y-122410691D01*
X104838048Y-122344013D01*
X104856533Y-122276633D01*
X104908511Y-122229943D01*
X104962028Y-122217800D01*
X112119422Y-122217800D01*
X112186461Y-122237485D01*
X112232216Y-122290289D01*
X112242160Y-122359447D01*
X112213135Y-122423003D01*
X112178590Y-122450772D01*
X112131370Y-122476411D01*
X111602316Y-122763663D01*
X111596531Y-122766611D01*
X110395048Y-123339689D01*
X110389118Y-123342329D01*
X109159307Y-123851733D01*
X109153246Y-123854060D01*
X107898443Y-124298409D01*
X107892269Y-124300415D01*
X106615933Y-124678483D01*
X106609662Y-124680163D01*
X105315305Y-124990911D01*
X105308955Y-124992261D01*
X104000082Y-125234847D01*
X103993670Y-125235862D01*
X102673929Y-125409609D01*
X102667473Y-125410288D01*
X101340424Y-125514728D01*
X101333941Y-125515068D01*
X100003245Y-125549914D01*
X99996753Y-125549914D01*
X98666057Y-125515068D01*
X98659574Y-125514728D01*
X97332525Y-125410288D01*
X97326069Y-125409609D01*
X96006328Y-125235862D01*
X95999916Y-125234847D01*
X94691043Y-124992261D01*
X94684693Y-124990911D01*
X93390336Y-124680163D01*
X93384065Y-124678483D01*
X92107729Y-124300415D01*
X92101555Y-124298409D01*
X90846752Y-123854060D01*
X90840691Y-123851733D01*
X89610880Y-123342329D01*
X89604950Y-123339689D01*
X88403467Y-122766611D01*
X88397682Y-122763663D01*
X87227851Y-122128497D01*
X87222242Y-122125259D01*
X86937959Y-121951050D01*
X93592436Y-121951050D01*
X93592436Y-121951051D01*
X93668533Y-122027148D01*
X93668537Y-122027151D01*
X93832315Y-122136585D01*
X93832328Y-122136592D01*
X94014306Y-122211969D01*
X94014318Y-122211972D01*
X94207504Y-122250399D01*
X94207508Y-122250400D01*
X94404492Y-122250400D01*
X94404494Y-122250399D01*
X94575084Y-122216467D01*
X94575084Y-122216466D01*
X94214493Y-121591906D01*
X94214492Y-121591906D01*
X93592436Y-121951050D01*
X86937959Y-121951050D01*
X86567584Y-121724084D01*
X86087245Y-121429732D01*
X86081801Y-121426197D01*
X85822536Y-121248009D01*
X85682702Y-121151904D01*
X93306000Y-121151904D01*
X93306000Y-121348888D01*
X93339932Y-121519484D01*
X93647508Y-121341905D01*
X94647506Y-121341905D01*
X94647506Y-121341906D01*
X95006649Y-121963961D01*
X95082754Y-121887858D01*
X95192185Y-121724084D01*
X95192192Y-121724071D01*
X95267569Y-121542093D01*
X95267572Y-121542081D01*
X95305999Y-121348895D01*
X95306000Y-121348892D01*
X95306000Y-121151908D01*
X95305999Y-121151904D01*
X95272067Y-120981315D01*
X95272066Y-120981314D01*
X94647506Y-121341905D01*
X93647508Y-121341905D01*
X93803162Y-121252038D01*
X93964492Y-121158893D01*
X93964492Y-121158892D01*
X93605349Y-120536836D01*
X93529246Y-120612940D01*
X93419814Y-120776715D01*
X93419807Y-120776728D01*
X93344430Y-120958706D01*
X93344427Y-120958718D01*
X93306000Y-121151904D01*
X85682702Y-121151904D01*
X84984759Y-120672221D01*
X84979507Y-120668405D01*
X84616094Y-120389548D01*
X84478974Y-120284332D01*
X94036914Y-120284332D01*
X94397505Y-120908892D01*
X94397506Y-120908892D01*
X95019562Y-120549748D01*
X95019563Y-120549748D01*
X94943466Y-120473651D01*
X94943462Y-120473648D01*
X94779684Y-120364214D01*
X94779671Y-120364207D01*
X94597693Y-120288830D01*
X94597681Y-120288827D01*
X94404495Y-120250400D01*
X94207510Y-120250400D01*
X94036914Y-120284332D01*
X84478974Y-120284332D01*
X84206859Y-120075531D01*
X83960461Y-119886463D01*
X83919259Y-119830036D01*
X83913360Y-119806741D01*
X83748743Y-118724391D01*
X83660846Y-118146472D01*
X83660845Y-118146470D01*
X83660845Y-118146469D01*
X82994081Y-117005918D01*
X81853530Y-116339154D01*
X81853527Y-116339153D01*
X81853525Y-116339152D01*
X81853526Y-116339152D01*
X80193265Y-116086640D01*
X80129948Y-116057099D01*
X80113537Y-116039539D01*
X79331589Y-115020486D01*
X79327777Y-115015239D01*
X79291192Y-114962008D01*
X78573800Y-113918195D01*
X78570266Y-113912753D01*
X78532980Y-113851908D01*
X77874739Y-112777757D01*
X77871501Y-112772148D01*
X77866109Y-112762218D01*
X77236330Y-111602306D01*
X77233387Y-111596531D01*
X77228764Y-111586839D01*
X76979416Y-111064071D01*
X80296899Y-111064071D01*
X80321897Y-111189738D01*
X80321899Y-111189744D01*
X80370933Y-111308124D01*
X80370938Y-111308133D01*
X80442123Y-111414668D01*
X80442126Y-111414672D01*
X80532727Y-111505273D01*
X80532731Y-111505276D01*
X80635823Y-111574161D01*
X80635828Y-111574163D01*
X80639273Y-111576465D01*
X80757656Y-111625501D01*
X80757660Y-111625501D01*
X80757661Y-111625502D01*
X80883328Y-111650500D01*
X80883331Y-111650500D01*
X81011470Y-111650500D01*
X81040803Y-111644665D01*
X81072106Y-111638438D01*
X81141698Y-111644665D01*
X81196876Y-111687527D01*
X81216073Y-111727960D01*
X81219936Y-111742375D01*
X81229090Y-111776539D01*
X81229091Y-111776540D01*
X81278525Y-111862162D01*
X81348438Y-111932075D01*
X81434062Y-111981510D01*
X81529565Y-112007100D01*
X81529567Y-112007100D01*
X81628432Y-112007100D01*
X81628435Y-112007100D01*
X81723938Y-111981510D01*
X81809562Y-111932075D01*
X81879475Y-111862162D01*
X81928910Y-111776538D01*
X81954500Y-111681035D01*
X81954500Y-111582165D01*
X81928910Y-111486662D01*
X81879475Y-111401038D01*
X81809562Y-111331125D01*
X81731923Y-111286300D01*
X81723940Y-111281691D01*
X81723939Y-111281690D01*
X81683990Y-111270986D01*
X81675360Y-111268673D01*
X81615700Y-111232308D01*
X81585172Y-111169461D01*
X81585838Y-111124706D01*
X81588727Y-111110186D01*
X81592714Y-111090139D01*
X81597900Y-111064070D01*
X81597900Y-110935928D01*
X81572902Y-110810261D01*
X81572901Y-110810260D01*
X81572901Y-110810256D01*
X81523865Y-110691873D01*
X81523864Y-110691872D01*
X81523861Y-110691866D01*
X81452676Y-110585331D01*
X81452673Y-110585327D01*
X81362072Y-110494726D01*
X81362068Y-110494723D01*
X81255533Y-110423538D01*
X81255524Y-110423533D01*
X81137144Y-110374499D01*
X81137138Y-110374497D01*
X81011471Y-110349500D01*
X81011469Y-110349500D01*
X80883331Y-110349500D01*
X80883329Y-110349500D01*
X80757661Y-110374497D01*
X80757655Y-110374499D01*
X80639275Y-110423533D01*
X80639266Y-110423538D01*
X80532731Y-110494723D01*
X80532727Y-110494726D01*
X80442126Y-110585327D01*
X80442123Y-110585331D01*
X80370938Y-110691866D01*
X80370933Y-110691875D01*
X80321899Y-110810255D01*
X80321897Y-110810261D01*
X80296900Y-110935928D01*
X80296900Y-110935931D01*
X80296900Y-111064069D01*
X80296900Y-111064071D01*
X80296899Y-111064071D01*
X76979416Y-111064071D01*
X76660307Y-110395044D01*
X76657669Y-110389118D01*
X76654579Y-110381659D01*
X76553408Y-110137408D01*
X76404284Y-109777391D01*
X76387995Y-109738065D01*
X87277000Y-109738065D01*
X87277000Y-109836935D01*
X87302590Y-109932438D01*
X87352025Y-110018062D01*
X87421938Y-110087975D01*
X87507562Y-110137410D01*
X87603065Y-110163000D01*
X87603067Y-110163000D01*
X87701932Y-110163000D01*
X87701935Y-110163000D01*
X87797438Y-110137410D01*
X87883062Y-110087975D01*
X87909898Y-110061139D01*
X87921720Y-110049318D01*
X87983043Y-110015833D01*
X88009400Y-110013000D01*
X95480033Y-110013000D01*
X95547072Y-110032685D01*
X95567713Y-110049318D01*
X96776582Y-111258188D01*
X96810066Y-111319509D01*
X96812900Y-111345867D01*
X96812900Y-111400535D01*
X96838490Y-111496038D01*
X96838491Y-111496039D01*
X96838491Y-111496040D01*
X96844819Y-111507000D01*
X96887925Y-111581662D01*
X96957838Y-111651575D01*
X97043462Y-111701010D01*
X97138965Y-111726600D01*
X97138967Y-111726600D01*
X97237832Y-111726600D01*
X97237835Y-111726600D01*
X97333338Y-111701010D01*
X97418962Y-111651575D01*
X97488875Y-111581662D01*
X97538310Y-111496038D01*
X97563900Y-111400535D01*
X97563900Y-111301665D01*
X97538310Y-111206162D01*
X97488875Y-111120538D01*
X97418962Y-111050625D01*
X97333338Y-111001190D01*
X97237835Y-110975600D01*
X97183168Y-110975600D01*
X97116129Y-110955915D01*
X97095487Y-110939281D01*
X95833411Y-109677206D01*
X95833409Y-109677203D01*
X95752538Y-109596332D01*
X95752536Y-109596330D01*
X95723251Y-109584200D01*
X95704950Y-109576619D01*
X95669657Y-109561999D01*
X95669655Y-109561999D01*
X95579945Y-109561999D01*
X95565511Y-109561999D01*
X95565503Y-109562000D01*
X88009400Y-109562000D01*
X87942361Y-109542315D01*
X87921720Y-109525682D01*
X87883063Y-109487026D01*
X87883062Y-109487025D01*
X87797438Y-109437590D01*
X87701935Y-109412000D01*
X87603065Y-109412000D01*
X87507562Y-109437590D01*
X87507560Y-109437591D01*
X87507559Y-109437591D01*
X87421936Y-109487026D01*
X87352026Y-109556936D01*
X87302591Y-109642559D01*
X87302591Y-109642560D01*
X87302590Y-109642562D01*
X87277000Y-109738065D01*
X76387995Y-109738065D01*
X76200025Y-109284267D01*
X76148263Y-109159302D01*
X76145938Y-109153246D01*
X75995728Y-108729065D01*
X84838600Y-108729065D01*
X84838600Y-108827935D01*
X84864190Y-108923438D01*
X84913625Y-109009062D01*
X84983538Y-109078975D01*
X85069162Y-109128410D01*
X85164665Y-109154000D01*
X85164667Y-109154000D01*
X85263532Y-109154000D01*
X85263535Y-109154000D01*
X85359038Y-109128410D01*
X85444662Y-109078975D01*
X85514575Y-109009062D01*
X85564010Y-108923438D01*
X85589600Y-108827935D01*
X85589600Y-108729065D01*
X85564010Y-108633562D01*
X85514575Y-108547938D01*
X85444662Y-108478025D01*
X85359038Y-108428590D01*
X85263535Y-108403000D01*
X85164665Y-108403000D01*
X85069162Y-108428590D01*
X85069160Y-108428591D01*
X85069159Y-108428591D01*
X84983536Y-108478026D01*
X84913626Y-108547936D01*
X84864191Y-108633559D01*
X84864191Y-108633560D01*
X84864190Y-108633562D01*
X84838600Y-108729065D01*
X75995728Y-108729065D01*
X75701586Y-107898434D01*
X75699583Y-107892269D01*
X75321511Y-106615921D01*
X75319835Y-106609662D01*
X75317473Y-106599825D01*
X75115385Y-105758071D01*
X78099099Y-105758071D01*
X78124097Y-105883738D01*
X78124099Y-105883744D01*
X78173133Y-106002124D01*
X78173138Y-106002133D01*
X78244323Y-106108668D01*
X78244326Y-106108672D01*
X78334927Y-106199273D01*
X78334931Y-106199276D01*
X78441466Y-106270461D01*
X78441475Y-106270466D01*
X78453945Y-106275631D01*
X78559856Y-106319501D01*
X78559860Y-106319501D01*
X78559861Y-106319502D01*
X78685528Y-106344500D01*
X78685531Y-106344500D01*
X78813671Y-106344500D01*
X78898215Y-106327682D01*
X78939344Y-106319501D01*
X79053048Y-106272402D01*
X79122516Y-106264934D01*
X79184996Y-106296209D01*
X79220648Y-106356298D01*
X79224500Y-106386964D01*
X79224500Y-106449435D01*
X79250090Y-106544938D01*
X79250091Y-106544939D01*
X79250091Y-106544940D01*
X79253065Y-106550091D01*
X79299525Y-106630562D01*
X79369438Y-106700475D01*
X79455062Y-106749910D01*
X79550565Y-106775500D01*
X79550567Y-106775500D01*
X79649432Y-106775500D01*
X79649435Y-106775500D01*
X79744938Y-106749910D01*
X79830562Y-106700475D01*
X79900475Y-106630562D01*
X79949910Y-106544938D01*
X79975500Y-106449435D01*
X79975500Y-106350565D01*
X79949910Y-106255062D01*
X79900475Y-106169438D01*
X79862218Y-106131181D01*
X79828733Y-106069858D01*
X79833717Y-106000166D01*
X79875589Y-105944233D01*
X79941053Y-105919816D01*
X79949899Y-105919500D01*
X81531003Y-105919500D01*
X81531011Y-105919501D01*
X81545445Y-105919501D01*
X81635154Y-105919501D01*
X81635155Y-105919501D01*
X81708461Y-105889136D01*
X81718036Y-105885170D01*
X81781470Y-105821736D01*
X81781470Y-105821735D01*
X81798911Y-105804295D01*
X81798912Y-105804296D01*
X81798918Y-105804285D01*
X81803197Y-105800006D01*
X81864522Y-105766531D01*
X81890866Y-105763700D01*
X81945532Y-105763700D01*
X81945535Y-105763700D01*
X82041038Y-105738110D01*
X82126662Y-105688675D01*
X82196575Y-105618762D01*
X82246010Y-105533138D01*
X82271600Y-105437635D01*
X82271600Y-105338765D01*
X82246010Y-105243262D01*
X82196575Y-105157638D01*
X82126662Y-105087725D01*
X82041038Y-105038290D01*
X81945535Y-105012700D01*
X81846665Y-105012700D01*
X81751162Y-105038290D01*
X81751160Y-105038291D01*
X81751159Y-105038291D01*
X81665536Y-105087726D01*
X81595626Y-105157636D01*
X81546191Y-105243259D01*
X81546191Y-105243260D01*
X81546190Y-105243262D01*
X81520600Y-105338765D01*
X81520600Y-105338767D01*
X81520600Y-105344500D01*
X81500915Y-105411539D01*
X81448111Y-105457294D01*
X81396600Y-105468500D01*
X80052931Y-105468500D01*
X79985892Y-105448815D01*
X79940137Y-105396011D01*
X79930193Y-105326853D01*
X79945543Y-105282501D01*
X79949910Y-105274938D01*
X79975500Y-105179435D01*
X79975500Y-105080565D01*
X79949910Y-104985062D01*
X79900475Y-104899438D01*
X79830562Y-104829525D01*
X79744938Y-104780090D01*
X79649435Y-104754500D01*
X79550565Y-104754500D01*
X79455062Y-104780090D01*
X79455060Y-104780091D01*
X79455059Y-104780091D01*
X79369436Y-104829526D01*
X79299526Y-104899436D01*
X79250091Y-104985059D01*
X79250089Y-104985064D01*
X79235378Y-105039964D01*
X79199012Y-105099623D01*
X79136165Y-105130152D01*
X79066789Y-105121855D01*
X79058204Y-105117732D01*
X78939344Y-105068499D01*
X78939338Y-105068497D01*
X78813671Y-105043500D01*
X78813669Y-105043500D01*
X78685531Y-105043500D01*
X78685529Y-105043500D01*
X78559861Y-105068497D01*
X78559855Y-105068499D01*
X78441475Y-105117533D01*
X78441466Y-105117538D01*
X78334931Y-105188723D01*
X78334927Y-105188726D01*
X78244326Y-105279327D01*
X78244323Y-105279331D01*
X78173138Y-105385866D01*
X78173133Y-105385875D01*
X78124099Y-105504255D01*
X78124097Y-105504261D01*
X78099100Y-105629928D01*
X78099100Y-105629931D01*
X78099100Y-105758069D01*
X78099100Y-105758071D01*
X78099099Y-105758071D01*
X75115385Y-105758071D01*
X75009085Y-105315300D01*
X75007737Y-105308955D01*
X75004532Y-105291660D01*
X74765146Y-104000054D01*
X74764140Y-103993698D01*
X74590385Y-102673897D01*
X74589713Y-102667505D01*
X74485269Y-101340421D01*
X74484930Y-101333941D01*
X74484274Y-101308873D01*
X74450084Y-100003207D01*
X74450084Y-99996792D01*
X74484930Y-98666051D01*
X74485270Y-98659574D01*
X74487199Y-98635060D01*
X74589713Y-97332489D01*
X74590385Y-97326105D01*
X74739882Y-96190565D01*
X78611100Y-96190565D01*
X78611100Y-96289435D01*
X78636690Y-96384938D01*
X78636691Y-96384939D01*
X78636691Y-96384940D01*
X78645250Y-96399764D01*
X78686125Y-96470562D01*
X78756038Y-96540475D01*
X78841662Y-96589910D01*
X78937165Y-96615500D01*
X78937167Y-96615500D01*
X79036032Y-96615500D01*
X79036035Y-96615500D01*
X79131538Y-96589910D01*
X79217162Y-96540475D01*
X79287075Y-96470562D01*
X79336510Y-96384938D01*
X79362100Y-96289435D01*
X79362100Y-96190565D01*
X79336510Y-96095062D01*
X79287075Y-96009438D01*
X79217162Y-95939525D01*
X79131538Y-95890090D01*
X79036035Y-95864500D01*
X78937165Y-95864500D01*
X78841662Y-95890090D01*
X78841660Y-95890091D01*
X78841659Y-95890091D01*
X78756036Y-95939526D01*
X78686126Y-96009436D01*
X78636691Y-96095059D01*
X78636691Y-96095060D01*
X78636690Y-96095062D01*
X78611100Y-96190565D01*
X74739882Y-96190565D01*
X74764142Y-96006288D01*
X74765145Y-95999950D01*
X75007739Y-94691031D01*
X75009087Y-94684693D01*
X75021313Y-94633769D01*
X75319841Y-93390313D01*
X75321509Y-93384087D01*
X75674305Y-92193065D01*
X79174500Y-92193065D01*
X79174500Y-92291935D01*
X79200090Y-92387438D01*
X79249525Y-92473062D01*
X79319438Y-92542975D01*
X79405062Y-92592410D01*
X79500565Y-92618000D01*
X79500567Y-92618000D01*
X79599432Y-92618000D01*
X79599435Y-92618000D01*
X79694938Y-92592410D01*
X79780562Y-92542975D01*
X79850475Y-92473062D01*
X79899910Y-92387438D01*
X79925500Y-92291935D01*
X79925500Y-92193065D01*
X79899910Y-92097562D01*
X79850475Y-92011938D01*
X79780562Y-91942025D01*
X79694938Y-91892590D01*
X79599435Y-91867000D01*
X79500565Y-91867000D01*
X79405062Y-91892590D01*
X79405060Y-91892591D01*
X79405059Y-91892591D01*
X79319436Y-91942026D01*
X79249526Y-92011936D01*
X79200091Y-92097559D01*
X79200091Y-92097560D01*
X79200090Y-92097562D01*
X79174500Y-92193065D01*
X75674305Y-92193065D01*
X75699586Y-92107719D01*
X75701582Y-92101575D01*
X76145944Y-90846734D01*
X76148258Y-90840708D01*
X76657676Y-89610862D01*
X76660300Y-89604968D01*
X77233400Y-88403441D01*
X77236321Y-88397707D01*
X77871518Y-87227820D01*
X77874729Y-87222259D01*
X78570278Y-86087225D01*
X78573788Y-86081820D01*
X79327793Y-84984736D01*
X79331576Y-84979530D01*
X80113537Y-83960459D01*
X80169962Y-83919259D01*
X80193255Y-83913360D01*
X81383432Y-83732343D01*
X81853526Y-83660846D01*
X81853526Y-83660845D01*
X81853530Y-83660845D01*
X82994081Y-82994081D01*
X83087601Y-82834108D01*
X88499500Y-82834108D01*
X88499500Y-82965891D01*
X88533608Y-83093187D01*
X88566554Y-83150250D01*
X88599500Y-83207314D01*
X88692686Y-83300500D01*
X88806814Y-83366392D01*
X88934108Y-83400500D01*
X88934110Y-83400500D01*
X89065890Y-83400500D01*
X89065892Y-83400500D01*
X89193186Y-83366392D01*
X89307314Y-83300500D01*
X89400500Y-83207314D01*
X89466392Y-83093186D01*
X89500500Y-82965892D01*
X89500500Y-82834108D01*
X89466392Y-82706814D01*
X89400500Y-82592686D01*
X89307314Y-82499500D01*
X89233858Y-82457090D01*
X89193187Y-82433608D01*
X89129539Y-82416554D01*
X89065892Y-82399500D01*
X88934108Y-82399500D01*
X88806812Y-82433608D01*
X88692686Y-82499500D01*
X88692683Y-82499502D01*
X88599502Y-82592683D01*
X88599500Y-82592686D01*
X88533608Y-82706812D01*
X88499500Y-82834108D01*
X83087601Y-82834108D01*
X83660845Y-81853530D01*
X83662414Y-81843218D01*
X83785473Y-81034108D01*
X88499500Y-81034108D01*
X88499500Y-81165892D01*
X88506051Y-81190342D01*
X88533608Y-81293187D01*
X88554536Y-81329435D01*
X88599500Y-81407314D01*
X88692686Y-81500500D01*
X88806814Y-81566392D01*
X88934108Y-81600500D01*
X88934110Y-81600500D01*
X89065890Y-81600500D01*
X89065892Y-81600500D01*
X89193186Y-81566392D01*
X89307314Y-81500500D01*
X89400500Y-81407314D01*
X89466392Y-81293186D01*
X89483171Y-81230565D01*
X91511100Y-81230565D01*
X91511100Y-81329435D01*
X91536690Y-81424938D01*
X91586125Y-81510562D01*
X91656038Y-81580475D01*
X91741662Y-81629910D01*
X91837165Y-81655500D01*
X91837167Y-81655500D01*
X91936032Y-81655500D01*
X91936035Y-81655500D01*
X92031538Y-81629910D01*
X92117162Y-81580475D01*
X92187075Y-81510562D01*
X92236510Y-81424938D01*
X92262100Y-81329435D01*
X92262100Y-81230565D01*
X92236510Y-81135062D01*
X92187075Y-81049438D01*
X92117162Y-80979525D01*
X92031538Y-80930090D01*
X91936035Y-80904500D01*
X91837165Y-80904500D01*
X91741662Y-80930090D01*
X91741660Y-80930091D01*
X91741659Y-80930091D01*
X91656036Y-80979526D01*
X91586126Y-81049436D01*
X91536691Y-81135059D01*
X91536691Y-81135060D01*
X91536690Y-81135062D01*
X91511100Y-81230565D01*
X89483171Y-81230565D01*
X89500500Y-81165892D01*
X89500500Y-81034108D01*
X89466392Y-80906814D01*
X89400500Y-80792686D01*
X89307314Y-80699500D01*
X89240178Y-80660739D01*
X89193187Y-80633608D01*
X89129539Y-80616554D01*
X89065892Y-80599500D01*
X88934108Y-80599500D01*
X88806812Y-80633608D01*
X88692686Y-80699500D01*
X88692683Y-80699502D01*
X88599502Y-80792683D01*
X88599500Y-80792686D01*
X88533608Y-80906812D01*
X88499500Y-81034108D01*
X83785473Y-81034108D01*
X83789545Y-81007336D01*
X83811085Y-80865708D01*
X83913359Y-80193261D01*
X83942899Y-80129948D01*
X83960453Y-80113541D01*
X84979530Y-79331576D01*
X84984736Y-79327793D01*
X86081820Y-78573788D01*
X86087225Y-78570278D01*
X86913281Y-78064071D01*
X99349499Y-78064071D01*
X99374497Y-78189738D01*
X99374499Y-78189744D01*
X99423533Y-78308124D01*
X99423538Y-78308133D01*
X99494723Y-78414668D01*
X99494726Y-78414672D01*
X99585327Y-78505273D01*
X99585331Y-78505276D01*
X99691866Y-78576461D01*
X99691872Y-78576464D01*
X99691873Y-78576465D01*
X99810256Y-78625501D01*
X99810260Y-78625501D01*
X99810261Y-78625502D01*
X99935928Y-78650500D01*
X99935931Y-78650500D01*
X100064071Y-78650500D01*
X100148615Y-78633682D01*
X100189744Y-78625501D01*
X100308127Y-78576465D01*
X100414669Y-78505276D01*
X100505276Y-78414669D01*
X100576465Y-78308127D01*
X100625501Y-78189744D01*
X100638559Y-78124097D01*
X100650500Y-78064071D01*
X100650500Y-78002200D01*
X100670185Y-77935161D01*
X100722989Y-77889406D01*
X100774500Y-77878200D01*
X100796832Y-77878200D01*
X100796835Y-77878200D01*
X100892338Y-77852610D01*
X100977962Y-77803175D01*
X101047875Y-77733262D01*
X101097310Y-77647638D01*
X101122900Y-77552135D01*
X101122900Y-77453265D01*
X101097310Y-77357762D01*
X101047875Y-77272138D01*
X100977962Y-77202225D01*
X100892338Y-77152790D01*
X100796835Y-77127200D01*
X100697965Y-77127200D01*
X100602462Y-77152790D01*
X100602460Y-77152791D01*
X100602459Y-77152791D01*
X100516836Y-77202226D01*
X100446926Y-77272136D01*
X100403969Y-77346538D01*
X100353401Y-77394753D01*
X100284794Y-77407974D01*
X100249131Y-77399097D01*
X100189748Y-77374500D01*
X100189738Y-77374497D01*
X100064071Y-77349500D01*
X100064069Y-77349500D01*
X99935931Y-77349500D01*
X99935929Y-77349500D01*
X99810261Y-77374497D01*
X99810255Y-77374499D01*
X99691875Y-77423533D01*
X99691866Y-77423538D01*
X99585331Y-77494723D01*
X99585327Y-77494726D01*
X99494726Y-77585327D01*
X99494723Y-77585331D01*
X99423538Y-77691866D01*
X99423533Y-77691875D01*
X99374499Y-77810255D01*
X99374497Y-77810261D01*
X99349500Y-77935928D01*
X99349500Y-77935931D01*
X99349500Y-78064069D01*
X99349500Y-78064071D01*
X99349499Y-78064071D01*
X86913281Y-78064071D01*
X87222259Y-77874729D01*
X87227820Y-77871518D01*
X88397707Y-77236321D01*
X88403441Y-77233400D01*
X89604968Y-76660300D01*
X89610862Y-76657676D01*
X90840708Y-76148258D01*
X90846734Y-76145944D01*
X92101575Y-75701582D01*
X92107708Y-75699589D01*
X93384087Y-75321509D01*
X93390313Y-75319841D01*
X94684706Y-75009084D01*
X94691031Y-75007739D01*
X95999950Y-74765145D01*
X96006294Y-74764141D01*
X97326105Y-74590385D01*
X97332489Y-74589713D01*
X98659579Y-74485269D01*
X98666051Y-74484930D01*
X99996792Y-74450084D01*
X100003208Y-74450084D01*
X101333945Y-74484930D01*
G37*
%TD.AperFunction*%
%TA.AperFunction,Conductor*%
G36*
X107777783Y-110867185D02*
G01*
X107818130Y-110909499D01*
X107829425Y-110929062D01*
X107829427Y-110929064D01*
X107868080Y-110967717D01*
X107901565Y-111029040D01*
X107904399Y-111055398D01*
X107904399Y-111097555D01*
X107922571Y-111141425D01*
X107922570Y-111141425D01*
X107938729Y-111180434D01*
X107938731Y-111180437D01*
X108019600Y-111261306D01*
X108019606Y-111261311D01*
X111241659Y-114483364D01*
X111241662Y-114483368D01*
X111248730Y-114490436D01*
X111312164Y-114553870D01*
X111333395Y-114562664D01*
X111333396Y-114562665D01*
X111333397Y-114562665D01*
X111395045Y-114588201D01*
X111395049Y-114588201D01*
X111407022Y-114590583D01*
X111406486Y-114593276D01*
X111456241Y-114607886D01*
X111476883Y-114624520D01*
X111515538Y-114663175D01*
X111601162Y-114712610D01*
X111696665Y-114738200D01*
X111696667Y-114738200D01*
X111795532Y-114738200D01*
X111795535Y-114738200D01*
X111891038Y-114712610D01*
X111976662Y-114663175D01*
X112046575Y-114593262D01*
X112096010Y-114507638D01*
X112121600Y-114412135D01*
X112121600Y-114313265D01*
X112096010Y-114217762D01*
X112046575Y-114132138D01*
X111976662Y-114062225D01*
X111970915Y-114056478D01*
X111973295Y-114054097D01*
X111941307Y-114010233D01*
X111937195Y-113940485D01*
X111971444Y-113879585D01*
X112033181Y-113846870D01*
X112090114Y-113848581D01*
X112097273Y-113850500D01*
X112097277Y-113850500D01*
X112202725Y-113850500D01*
X112202727Y-113850500D01*
X112304587Y-113823207D01*
X112395913Y-113770480D01*
X112470480Y-113695913D01*
X112523207Y-113604587D01*
X112550500Y-113502727D01*
X112550500Y-113397273D01*
X112523207Y-113295413D01*
X112470480Y-113204087D01*
X112395913Y-113129520D01*
X112304587Y-113076793D01*
X112202727Y-113049500D01*
X112097273Y-113049500D01*
X111995413Y-113076793D01*
X111995410Y-113076794D01*
X111904085Y-113129521D01*
X111829521Y-113204085D01*
X111827067Y-113207284D01*
X111824310Y-113209296D01*
X111823773Y-113209834D01*
X111823689Y-113209750D01*
X111770638Y-113248485D01*
X111700892Y-113252638D01*
X111639972Y-113218424D01*
X111608521Y-113159157D01*
X111608303Y-113159216D01*
X111608048Y-113158264D01*
X111607221Y-113156706D01*
X111606531Y-113152603D01*
X111606200Y-113151367D01*
X111606200Y-113151365D01*
X111580610Y-113055862D01*
X111531175Y-112970238D01*
X111461262Y-112900325D01*
X111375638Y-112850890D01*
X111280135Y-112825300D01*
X111181265Y-112825300D01*
X111085762Y-112850890D01*
X111085760Y-112850891D01*
X111085759Y-112850891D01*
X111000136Y-112900326D01*
X110930226Y-112970236D01*
X110880791Y-113055859D01*
X110880791Y-113055860D01*
X110880790Y-113055862D01*
X110855200Y-113151365D01*
X110855200Y-113151367D01*
X110855200Y-113159733D01*
X110835515Y-113226772D01*
X110782711Y-113272527D01*
X110713553Y-113282471D01*
X110649997Y-113253446D01*
X110643519Y-113247414D01*
X110135086Y-112738981D01*
X110101601Y-112677658D01*
X110106585Y-112607966D01*
X110148457Y-112552033D01*
X110213921Y-112527616D01*
X110222767Y-112527300D01*
X112127633Y-112527300D01*
X112194672Y-112546985D01*
X112215314Y-112563619D01*
X113060781Y-113409086D01*
X113094266Y-113470409D01*
X113097100Y-113496767D01*
X113097100Y-113551435D01*
X113122690Y-113646938D01*
X113172125Y-113732562D01*
X113242038Y-113802475D01*
X113327662Y-113851910D01*
X113423165Y-113877500D01*
X113423167Y-113877500D01*
X113522032Y-113877500D01*
X113522035Y-113877500D01*
X113617538Y-113851910D01*
X113703162Y-113802475D01*
X113773075Y-113732562D01*
X113812032Y-113665085D01*
X113862599Y-113616870D01*
X113931206Y-113603648D01*
X113996071Y-113629616D01*
X114007100Y-113639405D01*
X114504481Y-114136786D01*
X114537966Y-114198109D01*
X114540800Y-114224467D01*
X114540800Y-115989047D01*
X114521115Y-116056086D01*
X114468311Y-116101841D01*
X114399153Y-116111785D01*
X114335597Y-116082760D01*
X114297823Y-116023982D01*
X114297025Y-116021140D01*
X114266392Y-115906814D01*
X114200500Y-115792686D01*
X114107314Y-115699500D01*
X114038266Y-115659635D01*
X113993187Y-115633608D01*
X113911367Y-115611685D01*
X113865892Y-115599500D01*
X113734108Y-115599500D01*
X113606814Y-115633608D01*
X113606813Y-115633608D01*
X113606811Y-115633609D01*
X113606810Y-115633609D01*
X113526600Y-115679919D01*
X113458700Y-115696392D01*
X113392673Y-115673539D01*
X113349482Y-115618618D01*
X113340600Y-115572532D01*
X113340600Y-115560767D01*
X113340600Y-115560765D01*
X113315010Y-115465262D01*
X113265575Y-115379638D01*
X113212930Y-115326993D01*
X113179445Y-115265670D01*
X113184429Y-115195978D01*
X113193225Y-115177311D01*
X113195272Y-115173764D01*
X113195275Y-115173762D01*
X113244710Y-115088138D01*
X113270300Y-114992635D01*
X113270300Y-114893765D01*
X113244710Y-114798262D01*
X113195275Y-114712638D01*
X113125362Y-114642725D01*
X113039738Y-114593290D01*
X112944235Y-114567700D01*
X112845365Y-114567700D01*
X112749862Y-114593290D01*
X112749860Y-114593291D01*
X112749859Y-114593291D01*
X112664236Y-114642726D01*
X112594326Y-114712636D01*
X112544891Y-114798259D01*
X112544891Y-114798260D01*
X112544890Y-114798262D01*
X112519300Y-114893765D01*
X112519300Y-114992635D01*
X112544890Y-115088138D01*
X112583255Y-115154589D01*
X112594326Y-115173763D01*
X112646969Y-115226406D01*
X112680454Y-115287729D01*
X112675470Y-115357421D01*
X112666675Y-115376087D01*
X112615191Y-115465259D01*
X112615190Y-115465260D01*
X112611107Y-115480500D01*
X112602506Y-115512595D01*
X112566143Y-115572254D01*
X112503296Y-115602783D01*
X112482733Y-115604500D01*
X112142974Y-115604500D01*
X112075935Y-115584815D01*
X112030180Y-115532011D01*
X112020236Y-115462853D01*
X112023199Y-115448407D01*
X112024002Y-115445410D01*
X112031900Y-115415935D01*
X112031900Y-115317065D01*
X112006310Y-115221562D01*
X111956875Y-115135938D01*
X111886962Y-115066025D01*
X111801338Y-115016590D01*
X111705835Y-114991000D01*
X111606965Y-114991000D01*
X111511462Y-115016590D01*
X111511460Y-115016591D01*
X111511459Y-115016591D01*
X111425836Y-115066026D01*
X111387180Y-115104682D01*
X111325857Y-115138167D01*
X111299500Y-115141000D01*
X109449967Y-115141000D01*
X109382928Y-115121315D01*
X109362286Y-115104681D01*
X109267019Y-115009414D01*
X109233534Y-114948091D01*
X109230700Y-114921733D01*
X109230700Y-114867067D01*
X109230700Y-114867065D01*
X109205110Y-114771562D01*
X109155675Y-114685938D01*
X109085762Y-114616025D01*
X109000138Y-114566590D01*
X108904635Y-114541000D01*
X108805765Y-114541000D01*
X108710262Y-114566590D01*
X108710260Y-114566591D01*
X108710259Y-114566591D01*
X108624636Y-114616026D01*
X108554726Y-114685936D01*
X108505291Y-114771559D01*
X108505291Y-114771560D01*
X108505290Y-114771562D01*
X108479700Y-114867065D01*
X108479700Y-114965935D01*
X108505290Y-115061438D01*
X108505291Y-115061439D01*
X108507394Y-115069288D01*
X108505905Y-115069686D01*
X108512392Y-115130019D01*
X108481118Y-115192499D01*
X108421029Y-115228152D01*
X108358270Y-115227779D01*
X108252728Y-115199500D01*
X108252727Y-115199500D01*
X108147273Y-115199500D01*
X108045413Y-115226793D01*
X108045410Y-115226794D01*
X107954085Y-115279521D01*
X107879521Y-115354085D01*
X107826794Y-115445410D01*
X107826793Y-115445413D01*
X107799500Y-115547273D01*
X107799500Y-115652727D01*
X107825716Y-115750565D01*
X107826793Y-115754586D01*
X107826794Y-115754589D01*
X107828743Y-115757964D01*
X107873939Y-115836247D01*
X107879521Y-115845914D01*
X107911616Y-115878009D01*
X107945101Y-115939332D01*
X107940117Y-116009024D01*
X107931323Y-116027689D01*
X107895135Y-116090370D01*
X107844568Y-116138586D01*
X107775961Y-116151810D01*
X107711096Y-116125842D01*
X107680361Y-116090373D01*
X107668275Y-116069438D01*
X107598362Y-115999525D01*
X107512738Y-115950090D01*
X107417235Y-115924500D01*
X107318365Y-115924500D01*
X107222862Y-115950090D01*
X107222860Y-115950091D01*
X107222859Y-115950091D01*
X107137236Y-115999526D01*
X107067326Y-116069436D01*
X107017891Y-116155059D01*
X107017891Y-116155060D01*
X107017890Y-116155062D01*
X106992300Y-116250565D01*
X106992300Y-116349435D01*
X107017890Y-116444938D01*
X107053630Y-116506842D01*
X107067326Y-116530563D01*
X107105981Y-116569218D01*
X107139466Y-116630541D01*
X107142300Y-116656899D01*
X107142300Y-116856242D01*
X107142299Y-116856256D01*
X107142299Y-116866245D01*
X107142299Y-116955955D01*
X107164866Y-117010435D01*
X107176630Y-117038836D01*
X107176631Y-117038837D01*
X107257500Y-117119706D01*
X107257506Y-117119711D01*
X109332759Y-119194964D01*
X109332762Y-119194968D01*
X109339830Y-119202036D01*
X109403264Y-119265470D01*
X109416634Y-119271008D01*
X109425064Y-119274500D01*
X109425069Y-119274501D01*
X109486146Y-119299801D01*
X109486147Y-119299801D01*
X109590289Y-119299801D01*
X109590297Y-119299800D01*
X109891300Y-119299800D01*
X109958339Y-119319485D01*
X109978980Y-119336118D01*
X110002326Y-119359463D01*
X110017638Y-119374775D01*
X110103262Y-119424210D01*
X110198765Y-119449800D01*
X110198767Y-119449800D01*
X110297632Y-119449800D01*
X110297635Y-119449800D01*
X110355239Y-119434365D01*
X112327300Y-119434365D01*
X112327300Y-119533235D01*
X112352890Y-119628738D01*
X112352891Y-119628739D01*
X112352891Y-119628740D01*
X112356741Y-119635408D01*
X112402325Y-119714362D01*
X112472238Y-119784275D01*
X112557862Y-119833710D01*
X112653365Y-119859300D01*
X112653367Y-119859300D01*
X112752232Y-119859300D01*
X112752235Y-119859300D01*
X112847738Y-119833710D01*
X112933362Y-119784275D01*
X113003275Y-119714362D01*
X113052710Y-119628738D01*
X113078300Y-119533235D01*
X113078300Y-119434365D01*
X113052710Y-119338862D01*
X113003275Y-119253238D01*
X112933362Y-119183325D01*
X112847738Y-119133890D01*
X112752235Y-119108300D01*
X112653365Y-119108300D01*
X112557862Y-119133890D01*
X112557860Y-119133891D01*
X112557859Y-119133891D01*
X112472236Y-119183326D01*
X112402326Y-119253236D01*
X112352891Y-119338859D01*
X112352891Y-119338860D01*
X112352890Y-119338862D01*
X112327300Y-119434365D01*
X110355239Y-119434365D01*
X110393138Y-119424210D01*
X110478762Y-119374775D01*
X110548675Y-119304862D01*
X110598110Y-119219238D01*
X110623700Y-119123735D01*
X110623700Y-119024865D01*
X110598110Y-118929362D01*
X110548675Y-118843738D01*
X110478762Y-118773825D01*
X110393138Y-118724390D01*
X110297635Y-118698800D01*
X110198765Y-118698800D01*
X110103262Y-118724390D01*
X110103260Y-118724391D01*
X110103259Y-118724391D01*
X110017636Y-118773826D01*
X109978980Y-118812482D01*
X109917657Y-118845967D01*
X109891300Y-118848800D01*
X109675767Y-118848800D01*
X109608728Y-118829115D01*
X109588086Y-118812481D01*
X108338399Y-117562794D01*
X108304914Y-117501471D01*
X108309898Y-117431779D01*
X108351770Y-117375846D01*
X108364080Y-117367726D01*
X108445913Y-117320480D01*
X108520480Y-117245913D01*
X108573207Y-117154587D01*
X108600500Y-117052727D01*
X108600500Y-116947273D01*
X108573207Y-116845413D01*
X108565327Y-116831765D01*
X108918300Y-116831765D01*
X108918300Y-116930635D01*
X108943890Y-117026138D01*
X108993325Y-117111762D01*
X109063238Y-117181675D01*
X109148862Y-117231110D01*
X109244365Y-117256700D01*
X109244367Y-117256700D01*
X109343232Y-117256700D01*
X109343235Y-117256700D01*
X109438738Y-117231110D01*
X109524362Y-117181675D01*
X109594275Y-117111762D01*
X109643710Y-117026138D01*
X109669300Y-116930635D01*
X109669300Y-116831765D01*
X109643710Y-116736262D01*
X109594275Y-116650638D01*
X109524362Y-116580725D01*
X109438738Y-116531290D01*
X109343235Y-116505700D01*
X109244365Y-116505700D01*
X109148862Y-116531290D01*
X109148860Y-116531291D01*
X109148859Y-116531291D01*
X109063236Y-116580726D01*
X108993326Y-116650636D01*
X108943891Y-116736259D01*
X108943891Y-116736260D01*
X108943890Y-116736262D01*
X108918300Y-116831765D01*
X108565327Y-116831765D01*
X108520480Y-116754087D01*
X108478346Y-116711953D01*
X108444861Y-116650630D01*
X108449845Y-116580938D01*
X108478346Y-116536591D01*
X108509237Y-116505700D01*
X108540675Y-116474262D01*
X108590110Y-116388638D01*
X108615700Y-116293135D01*
X108615700Y-116194265D01*
X108590110Y-116098762D01*
X108540675Y-116013138D01*
X108533537Y-116006000D01*
X108500052Y-115944677D01*
X108505036Y-115874985D01*
X108517040Y-115853311D01*
X108516416Y-115852951D01*
X108520478Y-115845914D01*
X108520480Y-115845913D01*
X108573207Y-115754587D01*
X108600500Y-115652727D01*
X108600500Y-115547273D01*
X108573207Y-115445413D01*
X108573203Y-115445406D01*
X108570096Y-115437903D01*
X108572501Y-115436906D01*
X108559070Y-115381577D01*
X108581912Y-115315547D01*
X108636827Y-115272349D01*
X108706380Y-115265698D01*
X108714998Y-115267679D01*
X108805765Y-115292000D01*
X108805768Y-115292000D01*
X108860433Y-115292000D01*
X108927472Y-115311685D01*
X108948114Y-115328319D01*
X109106959Y-115487164D01*
X109106962Y-115487168D01*
X109114030Y-115494236D01*
X109177464Y-115557670D01*
X109177466Y-115557671D01*
X109177468Y-115557672D01*
X109195378Y-115565090D01*
X109195381Y-115565092D01*
X109195382Y-115565092D01*
X109212673Y-115572254D01*
X109260345Y-115592001D01*
X109260348Y-115592001D01*
X109364489Y-115592001D01*
X109364497Y-115592000D01*
X111108593Y-115592000D01*
X111175632Y-115611685D01*
X111221387Y-115664489D01*
X111231331Y-115733647D01*
X111219078Y-115772293D01*
X111213021Y-115784183D01*
X111164352Y-115879698D01*
X111149500Y-115973475D01*
X111149500Y-116586517D01*
X111164355Y-116680312D01*
X111167089Y-116688726D01*
X111169080Y-116758567D01*
X111132997Y-116818398D01*
X111114256Y-116832574D01*
X111081655Y-116852683D01*
X110957684Y-116976654D01*
X110865643Y-117125875D01*
X110865641Y-117125880D01*
X110810494Y-117292302D01*
X110810493Y-117292309D01*
X110802806Y-117367552D01*
X110776409Y-117432244D01*
X110719228Y-117472395D01*
X110649417Y-117475258D01*
X110595332Y-117444647D01*
X110595312Y-117444674D01*
X110595125Y-117444530D01*
X110591767Y-117442630D01*
X110588863Y-117439726D01*
X110588862Y-117439725D01*
X110503238Y-117390290D01*
X110407735Y-117364700D01*
X110308865Y-117364700D01*
X110213362Y-117390290D01*
X110213360Y-117390291D01*
X110213359Y-117390291D01*
X110127736Y-117439726D01*
X110057826Y-117509636D01*
X110008391Y-117595259D01*
X110008391Y-117595260D01*
X110008390Y-117595262D01*
X109982800Y-117690765D01*
X109982800Y-117789635D01*
X110008390Y-117885138D01*
X110057825Y-117970762D01*
X110127738Y-118040675D01*
X110213362Y-118090110D01*
X110308865Y-118115700D01*
X110308867Y-118115700D01*
X110407732Y-118115700D01*
X110407735Y-118115700D01*
X110503238Y-118090110D01*
X110588862Y-118040675D01*
X110595512Y-118034024D01*
X110656830Y-118000540D01*
X110726522Y-118005521D01*
X110782457Y-118047391D01*
X110806551Y-118109102D01*
X110810494Y-118147697D01*
X110865641Y-118314119D01*
X110865643Y-118314124D01*
X110957684Y-118463345D01*
X111081654Y-118587315D01*
X111230875Y-118679356D01*
X111230880Y-118679358D01*
X111397302Y-118734505D01*
X111397309Y-118734506D01*
X111500019Y-118744999D01*
X111749999Y-118744999D01*
X111750000Y-118744998D01*
X111750000Y-117844000D01*
X111769685Y-117776961D01*
X111822489Y-117731206D01*
X111874000Y-117720000D01*
X112126000Y-117720000D01*
X112193039Y-117739685D01*
X112238794Y-117792489D01*
X112250000Y-117844000D01*
X112250000Y-118744999D01*
X112499972Y-118744999D01*
X112499986Y-118744998D01*
X112602697Y-118734505D01*
X112769119Y-118679358D01*
X112769124Y-118679356D01*
X112918345Y-118587315D01*
X113042315Y-118463345D01*
X113134356Y-118314124D01*
X113134359Y-118314117D01*
X113166606Y-118216800D01*
X113206378Y-118159355D01*
X113270893Y-118132531D01*
X113339669Y-118144845D01*
X113390870Y-118192388D01*
X113391698Y-118193801D01*
X113399500Y-118207314D01*
X113492686Y-118300500D01*
X113591521Y-118357563D01*
X113600831Y-118362938D01*
X113606814Y-118366392D01*
X113734108Y-118400500D01*
X113734110Y-118400500D01*
X113865890Y-118400500D01*
X113865892Y-118400500D01*
X113993186Y-118366392D01*
X114107314Y-118300500D01*
X114200500Y-118207314D01*
X114208298Y-118193806D01*
X114258862Y-118145590D01*
X114327469Y-118132365D01*
X114392334Y-118158331D01*
X114432865Y-118215243D01*
X114433392Y-118216799D01*
X114465642Y-118314121D01*
X114465643Y-118314124D01*
X114557684Y-118463345D01*
X114681654Y-118587315D01*
X114830875Y-118679356D01*
X114830880Y-118679358D01*
X114997302Y-118734505D01*
X114997309Y-118734506D01*
X115100019Y-118744999D01*
X115349999Y-118744999D01*
X115350000Y-118744998D01*
X115350000Y-117844000D01*
X115369685Y-117776961D01*
X115422489Y-117731206D01*
X115474000Y-117720000D01*
X115726000Y-117720000D01*
X115793039Y-117739685D01*
X115838794Y-117792489D01*
X115850000Y-117844000D01*
X115850000Y-118744999D01*
X116103134Y-118744999D01*
X116103134Y-118746503D01*
X116165337Y-118761285D01*
X116213789Y-118811626D01*
X116227333Y-118880170D01*
X116226431Y-118887607D01*
X116086640Y-119806733D01*
X116057099Y-119870050D01*
X116039536Y-119886464D01*
X115020491Y-120668405D01*
X115015239Y-120672221D01*
X113918197Y-121426197D01*
X113912753Y-121429732D01*
X113590103Y-121627452D01*
X113522657Y-121645697D01*
X113456055Y-121624581D01*
X113411441Y-121570809D01*
X113402981Y-121501453D01*
X113421622Y-121458503D01*
X113419711Y-121457400D01*
X113423773Y-121450363D01*
X113423775Y-121450362D01*
X113473210Y-121364738D01*
X113498800Y-121269235D01*
X113498800Y-121170365D01*
X113473210Y-121074862D01*
X113423775Y-120989238D01*
X113353862Y-120919325D01*
X113268238Y-120869890D01*
X113172735Y-120844300D01*
X113073865Y-120844300D01*
X112978362Y-120869890D01*
X112978360Y-120869891D01*
X112978359Y-120869891D01*
X112892736Y-120919326D01*
X112822826Y-120989236D01*
X112773391Y-121074859D01*
X112773391Y-121074860D01*
X112773390Y-121074862D01*
X112747800Y-121170365D01*
X112747800Y-121170367D01*
X112747800Y-121225032D01*
X112728115Y-121292071D01*
X112711481Y-121312713D01*
X112293714Y-121730481D01*
X112232391Y-121763966D01*
X112206033Y-121766800D01*
X106363290Y-121766800D01*
X106296251Y-121747115D01*
X106250496Y-121694311D01*
X106240552Y-121625153D01*
X106260187Y-121573910D01*
X106270462Y-121558531D01*
X106270465Y-121558527D01*
X106319501Y-121440144D01*
X106338177Y-121346254D01*
X106370562Y-121284344D01*
X106431277Y-121249770D01*
X106501047Y-121253509D01*
X106547434Y-121286958D01*
X106549278Y-121285115D01*
X106555025Y-121290862D01*
X106624938Y-121360775D01*
X106710562Y-121410210D01*
X106806065Y-121435800D01*
X106806067Y-121435800D01*
X106904932Y-121435800D01*
X106904935Y-121435800D01*
X107000438Y-121410210D01*
X107086062Y-121360775D01*
X107155975Y-121290862D01*
X107205410Y-121205238D01*
X107231000Y-121109735D01*
X107231000Y-121010865D01*
X107205410Y-120915362D01*
X107155975Y-120829738D01*
X107086062Y-120759825D01*
X107000438Y-120710390D01*
X106904935Y-120684800D01*
X106806065Y-120684800D01*
X106710562Y-120710390D01*
X106710560Y-120710391D01*
X106710559Y-120710391D01*
X106624936Y-120759826D01*
X106555026Y-120829736D01*
X106505591Y-120915359D01*
X106505588Y-120915366D01*
X106503400Y-120923534D01*
X106467035Y-120983194D01*
X106404188Y-121013722D01*
X106334812Y-121005427D01*
X106280935Y-120960941D01*
X106273677Y-120947460D01*
X106273335Y-120947643D01*
X106270461Y-120942266D01*
X106199276Y-120835731D01*
X106199273Y-120835727D01*
X106108672Y-120745126D01*
X106108668Y-120745123D01*
X106002133Y-120673938D01*
X106002124Y-120673933D01*
X105996044Y-120671415D01*
X105941642Y-120627572D01*
X105919579Y-120561277D01*
X105919500Y-120556855D01*
X105919500Y-120313197D01*
X109937400Y-120313197D01*
X109937400Y-120406803D01*
X109949513Y-120452010D01*
X109961626Y-120497219D01*
X109984500Y-120536836D01*
X110008429Y-120578282D01*
X110074618Y-120644471D01*
X110155682Y-120691274D01*
X110246097Y-120715500D01*
X110246099Y-120715500D01*
X110339701Y-120715500D01*
X110339703Y-120715500D01*
X110430118Y-120691274D01*
X110511182Y-120644471D01*
X110577371Y-120578282D01*
X110624174Y-120497218D01*
X110648400Y-120406803D01*
X110648400Y-120313197D01*
X110624174Y-120222782D01*
X110577371Y-120141718D01*
X110511182Y-120075529D01*
X110455697Y-120043494D01*
X110430119Y-120028726D01*
X110383955Y-120016357D01*
X110339703Y-120004500D01*
X110246097Y-120004500D01*
X110155680Y-120028726D01*
X110074618Y-120075529D01*
X110074615Y-120075531D01*
X110008431Y-120141715D01*
X110008429Y-120141718D01*
X109961626Y-120222780D01*
X109937400Y-120313197D01*
X105919500Y-120313197D01*
X105919500Y-116400766D01*
X105939185Y-116333727D01*
X105955814Y-116313090D01*
X108382085Y-113886818D01*
X108443408Y-113853334D01*
X108469766Y-113850500D01*
X108552725Y-113850500D01*
X108552727Y-113850500D01*
X108654587Y-113823207D01*
X108745913Y-113770480D01*
X108820480Y-113695913D01*
X108873207Y-113604587D01*
X108900500Y-113502727D01*
X108900500Y-113397273D01*
X108873207Y-113295413D01*
X108820480Y-113204087D01*
X108745913Y-113129520D01*
X108654587Y-113076793D01*
X108552727Y-113049500D01*
X108447273Y-113049500D01*
X108345413Y-113076793D01*
X108345410Y-113076794D01*
X108254085Y-113129521D01*
X108179521Y-113204085D01*
X108126794Y-113295410D01*
X108126793Y-113295413D01*
X108099500Y-113397273D01*
X108099500Y-113480232D01*
X108079815Y-113547271D01*
X108063181Y-113567913D01*
X105502831Y-116128262D01*
X105502829Y-116128265D01*
X105493863Y-116149909D01*
X105493864Y-116149910D01*
X105468499Y-116211144D01*
X105468499Y-116315288D01*
X105468500Y-116315297D01*
X105468500Y-120556855D01*
X105448815Y-120623894D01*
X105396011Y-120669649D01*
X105391956Y-120671415D01*
X105385875Y-120673933D01*
X105385866Y-120673938D01*
X105279331Y-120745123D01*
X105279327Y-120745126D01*
X105188726Y-120835727D01*
X105188723Y-120835731D01*
X105117538Y-120942266D01*
X105117533Y-120942275D01*
X105068499Y-121060655D01*
X105068497Y-121060661D01*
X105043500Y-121186328D01*
X105043500Y-121186331D01*
X105043500Y-121314469D01*
X105043500Y-121314471D01*
X105043499Y-121314471D01*
X105068497Y-121440138D01*
X105068499Y-121440144D01*
X105117533Y-121558524D01*
X105117537Y-121558531D01*
X105127813Y-121573910D01*
X105148690Y-121640588D01*
X105130205Y-121707968D01*
X105078226Y-121754657D01*
X105024710Y-121766800D01*
X104858567Y-121766800D01*
X104791528Y-121747115D01*
X104770886Y-121730481D01*
X104618710Y-121578305D01*
X104601270Y-121560864D01*
X104537836Y-121497430D01*
X104537835Y-121497429D01*
X104513557Y-121487372D01*
X104513557Y-121487371D01*
X104454958Y-121463100D01*
X104454956Y-121463099D01*
X104454955Y-121463099D01*
X104365245Y-121463099D01*
X104350811Y-121463099D01*
X104350803Y-121463100D01*
X103634207Y-121463100D01*
X103567168Y-121443415D01*
X103521413Y-121390611D01*
X103511469Y-121321453D01*
X103526820Y-121277100D01*
X103568310Y-121205238D01*
X103593900Y-121109735D01*
X103593900Y-121010865D01*
X103568310Y-120915362D01*
X103518875Y-120829738D01*
X103448962Y-120759825D01*
X103363338Y-120710390D01*
X103267835Y-120684800D01*
X103168965Y-120684800D01*
X103073462Y-120710390D01*
X103073460Y-120710391D01*
X103073459Y-120710391D01*
X102987836Y-120759826D01*
X102917926Y-120829736D01*
X102868491Y-120915359D01*
X102868491Y-120915360D01*
X102868490Y-120915362D01*
X102842900Y-121010865D01*
X102842900Y-121109735D01*
X102868490Y-121205238D01*
X102868491Y-121205239D01*
X102868491Y-121205240D01*
X102878476Y-121222535D01*
X102908698Y-121274881D01*
X102909980Y-121277100D01*
X102926453Y-121345000D01*
X102903601Y-121411027D01*
X102848680Y-121454217D01*
X102802593Y-121463100D01*
X100404956Y-121463100D01*
X100337917Y-121443415D01*
X100336065Y-121442202D01*
X100308133Y-121423538D01*
X100308124Y-121423533D01*
X100189744Y-121374499D01*
X100189739Y-121374497D01*
X100084107Y-121353485D01*
X100022197Y-121321099D01*
X99987623Y-121260383D01*
X99984300Y-121231868D01*
X99984300Y-120129151D01*
X100003985Y-120062112D01*
X100056789Y-120016357D01*
X100125947Y-120006413D01*
X100140374Y-120009372D01*
X100200565Y-120025500D01*
X100200568Y-120025500D01*
X100299432Y-120025500D01*
X100299435Y-120025500D01*
X100394938Y-119999910D01*
X100396408Y-119999061D01*
X100397804Y-119998722D01*
X100402448Y-119996799D01*
X100402747Y-119997522D01*
X100464305Y-119982586D01*
X100530333Y-120005435D01*
X100557007Y-120034768D01*
X100558379Y-120033716D01*
X100563324Y-120040161D01*
X100563325Y-120040162D01*
X100633238Y-120110075D01*
X100718862Y-120159510D01*
X100814365Y-120185100D01*
X100814367Y-120185100D01*
X100913232Y-120185100D01*
X100913235Y-120185100D01*
X101008738Y-120159510D01*
X101094362Y-120110075D01*
X101164275Y-120040162D01*
X101213710Y-119954538D01*
X101239300Y-119859035D01*
X101239300Y-119781103D01*
X101258985Y-119714064D01*
X101311789Y-119668309D01*
X101380947Y-119658365D01*
X101393116Y-119660861D01*
X101394163Y-119660999D01*
X101394165Y-119661000D01*
X101394167Y-119661000D01*
X101493032Y-119661000D01*
X101493035Y-119661000D01*
X101588538Y-119635410D01*
X101674162Y-119585975D01*
X101744075Y-119516062D01*
X101793510Y-119430438D01*
X101819100Y-119334935D01*
X101819100Y-119332399D01*
X102414500Y-119332399D01*
X102414500Y-119457601D01*
X102446905Y-119578536D01*
X102509505Y-119686964D01*
X102598036Y-119775495D01*
X102706464Y-119838095D01*
X102827399Y-119870500D01*
X102827401Y-119870500D01*
X102952599Y-119870500D01*
X102952601Y-119870500D01*
X103073536Y-119838095D01*
X103181964Y-119775495D01*
X103270495Y-119686964D01*
X103333095Y-119578536D01*
X103351708Y-119509071D01*
X103669499Y-119509071D01*
X103694497Y-119634738D01*
X103694499Y-119634744D01*
X103743533Y-119753124D01*
X103743538Y-119753133D01*
X103814723Y-119859668D01*
X103814726Y-119859672D01*
X103905327Y-119950273D01*
X103905331Y-119950276D01*
X104011866Y-120021461D01*
X104011875Y-120021466D01*
X104038692Y-120032574D01*
X104130256Y-120070501D01*
X104130260Y-120070501D01*
X104130261Y-120070502D01*
X104255928Y-120095500D01*
X104255931Y-120095500D01*
X104384071Y-120095500D01*
X104484467Y-120075529D01*
X104509744Y-120070501D01*
X104628127Y-120021465D01*
X104734669Y-119950276D01*
X104825276Y-119859669D01*
X104896465Y-119753127D01*
X104945501Y-119634744D01*
X104956682Y-119578536D01*
X104970500Y-119509071D01*
X104970500Y-118280928D01*
X104945502Y-118155261D01*
X104945501Y-118155260D01*
X104945501Y-118155256D01*
X104896465Y-118036873D01*
X104896464Y-118036872D01*
X104896461Y-118036866D01*
X104825276Y-117930331D01*
X104825273Y-117930327D01*
X104734672Y-117839726D01*
X104734668Y-117839723D01*
X104628133Y-117768538D01*
X104628124Y-117768533D01*
X104509744Y-117719499D01*
X104509738Y-117719497D01*
X104384071Y-117694500D01*
X104384069Y-117694500D01*
X104255931Y-117694500D01*
X104255929Y-117694500D01*
X104130261Y-117719497D01*
X104130255Y-117719499D01*
X104011875Y-117768533D01*
X104011866Y-117768538D01*
X103905331Y-117839723D01*
X103905327Y-117839726D01*
X103814726Y-117930327D01*
X103814723Y-117930331D01*
X103743538Y-118036866D01*
X103743533Y-118036875D01*
X103694499Y-118155255D01*
X103694497Y-118155261D01*
X103669500Y-118280928D01*
X103669500Y-118280931D01*
X103669500Y-119509069D01*
X103669500Y-119509071D01*
X103669499Y-119509071D01*
X103351708Y-119509071D01*
X103365500Y-119457601D01*
X103365500Y-119332399D01*
X103333095Y-119211464D01*
X103270495Y-119103036D01*
X103181964Y-119014505D01*
X103073536Y-118951905D01*
X103073537Y-118951905D01*
X103012652Y-118935591D01*
X102952601Y-118919500D01*
X102827399Y-118919500D01*
X102767348Y-118935591D01*
X102706463Y-118951905D01*
X102598037Y-119014504D01*
X102598034Y-119014506D01*
X102509506Y-119103034D01*
X102509504Y-119103037D01*
X102446905Y-119211463D01*
X102438248Y-119243770D01*
X102414500Y-119332399D01*
X101819100Y-119332399D01*
X101819100Y-119236065D01*
X101793510Y-119140562D01*
X101744075Y-119054938D01*
X101674162Y-118985025D01*
X101588538Y-118935590D01*
X101493035Y-118910000D01*
X101394165Y-118910000D01*
X101298662Y-118935590D01*
X101298660Y-118935591D01*
X101298659Y-118935591D01*
X101213036Y-118985026D01*
X101143126Y-119054936D01*
X101093691Y-119140559D01*
X101093691Y-119140560D01*
X101093690Y-119140562D01*
X101068100Y-119236065D01*
X101068100Y-119236067D01*
X101068100Y-119313996D01*
X101048415Y-119381035D01*
X100995611Y-119426790D01*
X100926453Y-119436734D01*
X100914291Y-119434239D01*
X100913236Y-119434100D01*
X100913235Y-119434100D01*
X100814365Y-119434100D01*
X100718862Y-119459690D01*
X100718860Y-119459691D01*
X100718859Y-119459691D01*
X100717379Y-119460546D01*
X100715973Y-119460886D01*
X100711352Y-119462801D01*
X100711053Y-119462079D01*
X100649477Y-119477012D01*
X100583452Y-119454154D01*
X100556793Y-119424830D01*
X100555421Y-119425884D01*
X100550475Y-119419438D01*
X100526819Y-119395782D01*
X100493334Y-119334459D01*
X100490500Y-119308101D01*
X100490500Y-116567507D01*
X100510185Y-116500468D01*
X100562989Y-116454713D01*
X100597489Y-116444680D01*
X103191302Y-116085536D01*
X103260407Y-116095840D01*
X103270302Y-116100974D01*
X103355062Y-116149910D01*
X103450565Y-116175500D01*
X103450567Y-116175500D01*
X103549432Y-116175500D01*
X103549435Y-116175500D01*
X103644938Y-116149910D01*
X103730562Y-116100475D01*
X103800475Y-116030562D01*
X103849910Y-115944938D01*
X103875500Y-115849435D01*
X103875500Y-115750565D01*
X103849910Y-115655062D01*
X103800475Y-115569438D01*
X103730562Y-115499525D01*
X103644938Y-115450090D01*
X103549435Y-115424500D01*
X103450565Y-115424500D01*
X103355062Y-115450090D01*
X103355060Y-115450091D01*
X103355059Y-115450091D01*
X103269436Y-115499526D01*
X103194867Y-115574094D01*
X103133544Y-115607579D01*
X103124194Y-115609240D01*
X100677718Y-115947982D01*
X100608612Y-115937678D01*
X100556047Y-115891649D01*
X100536713Y-115824508D01*
X100556746Y-115757572D01*
X100573025Y-115737479D01*
X102096686Y-114213819D01*
X102158009Y-114180334D01*
X102184367Y-114177500D01*
X102239032Y-114177500D01*
X102239035Y-114177500D01*
X102334538Y-114151910D01*
X102420162Y-114102475D01*
X102490075Y-114032562D01*
X102539510Y-113946938D01*
X102565100Y-113851435D01*
X102565100Y-113752565D01*
X102539510Y-113657062D01*
X102539505Y-113657054D01*
X102539216Y-113656353D01*
X102539146Y-113655708D01*
X102537406Y-113649212D01*
X102538419Y-113648940D01*
X102531747Y-113586883D01*
X102563022Y-113524404D01*
X102623111Y-113488752D01*
X102653777Y-113484900D01*
X105684500Y-113484900D01*
X105751539Y-113504585D01*
X105772180Y-113521218D01*
X105798234Y-113547271D01*
X105810838Y-113559875D01*
X105896462Y-113609310D01*
X105991965Y-113634900D01*
X105991967Y-113634900D01*
X106090832Y-113634900D01*
X106090835Y-113634900D01*
X106186338Y-113609310D01*
X106271962Y-113559875D01*
X106341875Y-113489962D01*
X106391310Y-113404338D01*
X106416900Y-113308835D01*
X106416900Y-113254166D01*
X106436585Y-113187127D01*
X106453219Y-113166485D01*
X106864389Y-112755315D01*
X107297094Y-112322610D01*
X107297097Y-112322608D01*
X107314535Y-112305170D01*
X107314536Y-112305170D01*
X107377970Y-112241736D01*
X107377970Y-112241734D01*
X107377972Y-112241733D01*
X107399770Y-112189105D01*
X107412300Y-112158855D01*
X107412300Y-111430699D01*
X107431985Y-111363660D01*
X107448619Y-111343018D01*
X107467663Y-111323974D01*
X107487275Y-111304362D01*
X107536710Y-111218738D01*
X107562300Y-111123235D01*
X107562300Y-111024365D01*
X107556734Y-111003592D01*
X107558397Y-110933743D01*
X107597560Y-110875881D01*
X107661789Y-110848377D01*
X107676509Y-110847500D01*
X107710744Y-110847500D01*
X107777783Y-110867185D01*
G37*
%TD.AperFunction*%
%TD*%
M02*
