%TF.GenerationSoftware,KiCad,Pcbnew,10.0.6*%
%TF.CreationDate,2026-09-03T20:14:28+08:00*%
%TF.ProjectId,moto-gps-rev-a1,6d6f746f-2d67-4707-932d-7265762d6131,rev?*%
%TF.SameCoordinates,Original*%
%TF.FileFunction,Copper,L3,Inr*%
%TF.FilePolarity,Positive*%
%FSLAX46Y46*%
G04 Gerber Fmt 4.6, Leading zero omitted, Abs format (unit mm)*
G04 Created by KiCad (PCBNEW 10.0.6) date 2026-09-03 20:14:28*
%MOMM*%
%LPD*%
G01*
G04 APERTURE LIST*
%TA.AperFunction,ComponentPad*%
%ADD10O,1.000000X2.100000*%
%TD*%
%TA.AperFunction,ComponentPad*%
%ADD11O,1.000000X1.600000*%
%TD*%
%TA.AperFunction,HeatsinkPad*%
%ADD12C,0.450000*%
%TD*%
%TA.AperFunction,ViaPad*%
%ADD13C,0.450000*%
%TD*%
%TA.AperFunction,ViaPad*%
%ADD14C,0.500000*%
%TD*%
%TA.AperFunction,Conductor*%
%ADD15C,0.150000*%
%TD*%
%TA.AperFunction,Conductor*%
%ADD16C,0.650000*%
%TD*%
%TA.AperFunction,Conductor*%
%ADD17C,0.600000*%
%TD*%
%TA.AperFunction,Conductor*%
%ADD18C,0.180000*%
%TD*%
G04 APERTURE END LIST*
D10*
%TO.N,/USB_SHIELD*%
%TO.C,J1*%
X95680000Y-118895000D03*
D11*
X95680000Y-123075000D03*
D10*
X104320000Y-118895000D03*
D11*
X104320000Y-123075000D03*
%TD*%
D12*
%TO.N,/GND*%
%TO.C,U1*%
X83700000Y-96910000D03*
X83700000Y-98310000D03*
X84400000Y-96210000D03*
X84400000Y-97610000D03*
X84400000Y-99010000D03*
X85100000Y-96910000D03*
X85100000Y-98310000D03*
X85800000Y-96210000D03*
X85800000Y-97610000D03*
X85800000Y-99010000D03*
X86500000Y-96910000D03*
X86500000Y-98310000D03*
%TD*%
D13*
%TO.N,/3V3*%
X115963500Y-101773500D03*
X113123300Y-121219800D03*
D14*
X117200000Y-115000000D03*
D13*
X120350000Y-110750000D03*
D14*
X119500000Y-115000000D03*
D13*
X102189600Y-113802000D03*
%TO.N,/CHARGER_STAT_N*%
X111230700Y-113200800D03*
X112702800Y-119483800D03*
D14*
%TO.N,/SYS*%
X117000000Y-106950000D03*
D13*
X110973700Y-105841000D03*
X113000000Y-110750000D03*
D14*
X108500000Y-113450000D03*
X112150000Y-113450000D03*
D13*
X118825000Y-106550000D03*
D14*
X119200000Y-106950000D03*
D13*
X110575000Y-111050000D03*
D14*
%TO.N,/GND*%
X120300000Y-101050000D03*
D13*
X97642500Y-89548600D03*
X81054200Y-90051200D03*
D14*
X123000000Y-99350000D03*
D13*
X122193600Y-92618600D03*
X91423700Y-89890000D03*
X114640900Y-118667800D03*
D14*
X119130000Y-100650000D03*
D13*
X95155800Y-120847500D03*
%TO.N,/GNSS_3V0*%
X100340700Y-88510500D03*
X112426600Y-86062900D03*
X112891500Y-81150500D03*
X100709200Y-92914100D03*
X109543900Y-96098400D03*
%TO.N,/USB_VBUS*%
X114509800Y-117216300D03*
X110561900Y-105375000D03*
X108386900Y-105998000D03*
X117330500Y-112980500D03*
X110292900Y-120360000D03*
%TO.N,/USB_CC1*%
X100863800Y-119809600D03*
X108240200Y-116243700D03*
%TO.N,/USB_D_N_CONN*%
X100250000Y-119650000D03*
X103500000Y-115800000D03*
%TO.N,/USB_CC2*%
X106855500Y-121060300D03*
X109293800Y-116881200D03*
X101443600Y-119285500D03*
X103218400Y-121060300D03*
%TO.N,/QMI_INT1*%
X101572900Y-97024300D03*
X90212500Y-105436600D03*
%TO.N,/QMI_INT2*%
X100778800Y-98314000D03*
X100601500Y-94222000D03*
X97918700Y-100767200D03*
%TO.N,/I2C_SCL*%
X100128800Y-95936300D03*
X85968500Y-118593500D03*
X99779300Y-89453500D03*
X87070900Y-112927500D03*
X108855200Y-114916500D03*
X98662500Y-78451600D03*
X111656400Y-115366500D03*
X112080300Y-108707000D03*
X106102500Y-112203000D03*
X103316500Y-111819300D03*
%TO.N,/I2C_SDA*%
X98880400Y-87124900D03*
X80392100Y-112150700D03*
X109932500Y-109107000D03*
X111746100Y-114362700D03*
X99284300Y-80515800D03*
X103559700Y-110501900D03*
X100142000Y-99304700D03*
X108129900Y-110698500D03*
%TO.N,/3V3_DISPLAY*%
X102549100Y-106101500D03*
X102614300Y-110645800D03*
%TO.N,/TP_RESET_N*%
X94220500Y-92430000D03*
X101527500Y-104593000D03*
X103921200Y-107494800D03*
%TO.N,/FUNC_KEY_N*%
X84405100Y-103106900D03*
X121091900Y-102567300D03*
X101863200Y-94730000D03*
%TO.N,/MCU_EN*%
X80298000Y-84780000D03*
X99966300Y-90323900D03*
X79550000Y-92242500D03*
X96753800Y-88326500D03*
%TO.N,/BQ_ILIM*%
X107854000Y-109507000D03*
X113842900Y-106870100D03*
X107874700Y-107423200D03*
%TO.N,/LCD_SIO1_MCU*%
X103861900Y-103698700D03*
X79296000Y-95011500D03*
X93645700Y-103032400D03*
%TO.N,/LCD_SIO1*%
X99661300Y-111821400D03*
X104250000Y-106223900D03*
%TO.N,/TYPEC_INT_N*%
X112965100Y-115610200D03*
X110248200Y-119074300D03*
X107367800Y-116300000D03*
X108668800Y-81581400D03*
%TO.N,/TYPEC_VBUS_DET*%
X112894800Y-114943200D03*
X110358300Y-117740200D03*
%TO.N,/GNSS_TX_3V0*%
X109595100Y-80750000D03*
X106716200Y-91628600D03*
%TO.N,/GNSS_RX_3V0*%
X83316500Y-94038400D03*
X92387500Y-92718600D03*
X103738400Y-92440900D03*
X108319000Y-79872700D03*
%TO.N,/GNSS_PPS_3V0*%
X112509300Y-83529000D03*
X106968900Y-93969700D03*
%TO.N,/GNSS_RESET_N_1V8*%
X100747400Y-77502700D03*
X106972700Y-99400000D03*
X101144900Y-87462400D03*
%TO.N,/GNSS_ANT_ON*%
X117434800Y-96392500D03*
%TO.N,/BQ_TS_BIAS*%
X109309000Y-104894900D03*
X107279300Y-109805900D03*
%TO.N,/BAT_TS*%
X108882400Y-110953500D03*
X85306100Y-114612100D03*
X113472600Y-113502000D03*
X115770800Y-104159500D03*
%TO.N,/LCD_RESET_N*%
X99924500Y-104615900D03*
X99910400Y-109015400D03*
X98316800Y-95344300D03*
X103119700Y-101835000D03*
%TO.N,/LCD_SIO0_MCU*%
X100373500Y-106354200D03*
X94182000Y-94272100D03*
%TO.N,/LCD_SIO0*%
X102005600Y-110452700D03*
X101488300Y-106301100D03*
%TO.N,/3V3_PG_N*%
X115716900Y-107004700D03*
X118728300Y-103078600D03*
%TO.N,/BAT*%
X109850700Y-111237000D03*
X86534300Y-116775000D03*
X106041400Y-113259400D03*
X107186800Y-111073800D03*
%TO.N,/GNSS_PPS_3V3*%
X115448700Y-86138800D03*
X96586700Y-98170900D03*
X112549900Y-100478200D03*
%TO.N,/CHARGER_INT_N*%
X102667000Y-96812400D03*
X104875400Y-79568200D03*
X112096000Y-109333700D03*
X96488500Y-98780000D03*
X114432900Y-102999900D03*
%TO.N,/LCD_TE*%
X97188400Y-111351100D03*
X87652500Y-109787500D03*
%TO.N,/LCD_SIO2*%
X98594100Y-110526600D03*
X101685600Y-101233200D03*
X98086400Y-108174400D03*
%TO.N,/LCD_SIO3*%
X103634600Y-108484800D03*
X99067000Y-111441900D03*
%TO.N,/LCD_CLK*%
X105326900Y-108936500D03*
X105284100Y-104122600D03*
X99755100Y-110695300D03*
%TO.N,/LCD_CS_N*%
X99122300Y-102508100D03*
X101552100Y-111330500D03*
%TO.N,/TP_INT_N*%
X85214100Y-108778500D03*
X104151300Y-110778400D03*
X98667400Y-107477600D03*
%TO.N,/BQ_BTST*%
X108800000Y-106900000D03*
%TO.N,/CHARGER_PG_N*%
X109966300Y-103012300D03*
X106293100Y-107227600D03*
%TO.N,/BQ_QON*%
X109517600Y-109571000D03*
%TO.N,/BQ_CE_N*%
X113690000Y-103006500D03*
X114163100Y-105716000D03*
%TO.N,/BQ_SW*%
X110175000Y-106900000D03*
X112850000Y-107350000D03*
%TO.N,/LCD_SIO2_MCU*%
X98671200Y-102967000D03*
X92902600Y-103912600D03*
X78986600Y-96240000D03*
%TO.N,/LCD_CS_N_MCU*%
X98477900Y-103568800D03*
X92519200Y-105568300D03*
%TO.N,/BOOT_N*%
X98366800Y-98522000D03*
X97337300Y-104868400D03*
X91886600Y-81280000D03*
%TO.N,/GNSS_RESET_DRV*%
X106288300Y-77813100D03*
X101548700Y-90353300D03*
X99571300Y-105711200D03*
X98320000Y-91094100D03*
%TO.N,/LCD_SIO3_MCU*%
X81421500Y-97510000D03*
X100904700Y-108649300D03*
X92022200Y-95499800D03*
X83334300Y-95281000D03*
%TO.N,/TPS_EN_SYNC*%
X117587900Y-105010500D03*
X110681300Y-104089400D03*
X115617800Y-102980700D03*
%TO.N,/LCD_CLK_MCU*%
X101034100Y-101008400D03*
X105211400Y-106344500D03*
%TO.N,/GNSS_UART_TX_3V3*%
X78979300Y-101167400D03*
X110229200Y-83986000D03*
%TO.N,/GNSS_UART_RX_3V3*%
X110734100Y-82807000D03*
X78982700Y-102746000D03*
%TO.N,/USB_D_N_MCU*%
X79600000Y-105130000D03*
D14*
X108200000Y-115600000D03*
D13*
%TO.N,/USB_D_P_MCU*%
X79600000Y-106400000D03*
D14*
X108200000Y-117000000D03*
D13*
%TO.N,/MAG_DRDY*%
X100526200Y-80544300D03*
X96477900Y-96240000D03*
%TO.N,/UART0_RX*%
X81896100Y-105388200D03*
%TO.N,/UART0_TX*%
X82320300Y-94773000D03*
X81579000Y-111631600D03*
%TD*%
%TO.N,/3V3*%
D15*
X115530200Y-116669800D02*
X115530200Y-118812900D01*
D16*
X120350000Y-110750000D02*
X120350000Y-113600000D01*
D15*
X117200000Y-115000000D02*
X115530200Y-116669800D01*
X120398700Y-110701300D02*
X120398700Y-106208700D01*
D16*
X120350000Y-113600000D02*
X119500000Y-115000000D01*
D15*
X120398700Y-106208700D02*
X115963500Y-101773500D01*
X115530200Y-118812900D02*
X113123300Y-121219800D01*
D16*
X119500000Y-115000000D02*
X117200000Y-115000000D01*
D15*
X120350000Y-110750000D02*
X120398700Y-110701300D01*
%TO.N,/CHARGER_STAT_N*%
X109796400Y-114635100D02*
X111230700Y-113200800D01*
X112645100Y-119541500D02*
X110069400Y-119541500D01*
X109796400Y-119268500D02*
X109796400Y-114635100D01*
X112702800Y-119483800D02*
X112645100Y-119541500D01*
X110069400Y-119541500D02*
X109796400Y-119268500D01*
%TO.N,/SYS*%
X111029000Y-105785700D02*
X111029000Y-105180200D01*
D16*
X113000000Y-110750000D02*
X117000000Y-106950000D01*
X115300000Y-110000000D02*
X118825000Y-106550000D01*
X113000000Y-110750000D02*
X112150000Y-113450000D01*
X113000000Y-110750000D02*
X115300000Y-110000000D01*
D15*
X110973700Y-105841000D02*
X111029000Y-105785700D01*
X111029000Y-105180200D02*
X110747200Y-104898400D01*
X109591700Y-107581700D02*
X112760000Y-110750000D01*
X110345900Y-104898400D02*
X109591700Y-105652600D01*
X109591700Y-105652600D02*
X109591700Y-107581700D01*
D16*
X113000000Y-110750000D02*
X108500000Y-113450000D01*
X113000000Y-110750000D02*
X119200000Y-106950000D01*
X110575000Y-111050000D02*
X113000000Y-110750000D01*
D15*
X110747200Y-104898400D02*
X110345900Y-104898400D01*
X112760000Y-110750000D02*
X113000000Y-110750000D01*
%TO.N,/GND*%
X122193600Y-92618600D02*
X122193600Y-98543600D01*
X81054200Y-90051200D02*
X82237900Y-91234900D01*
X85100000Y-96910000D02*
X85100000Y-98310000D01*
X83700000Y-96910000D02*
X83700000Y-98310000D01*
X85800000Y-96210000D02*
X85800000Y-97610000D01*
X85800000Y-91234900D02*
X85800000Y-96210000D01*
X83700000Y-98310000D02*
X84400000Y-98310000D01*
X84400000Y-98310000D02*
X84400000Y-97610000D01*
X84400000Y-97610000D02*
X84400000Y-96910000D01*
X84400000Y-99010000D02*
X84400000Y-98310000D01*
X85800000Y-91234900D02*
X90078800Y-91234900D01*
X85800000Y-97610000D02*
X86500000Y-97610000D01*
X122193600Y-98543600D02*
X123000000Y-99350000D01*
X90078800Y-91234900D02*
X91423700Y-89890000D01*
X85800000Y-99010000D02*
X85800000Y-97610000D01*
X84400000Y-96910000D02*
X84400000Y-96210000D01*
X82237900Y-91234900D02*
X85800000Y-91234900D01*
X86500000Y-98310000D02*
X86500000Y-97610000D01*
X85100000Y-96910000D02*
X84400000Y-96910000D01*
X86500000Y-97610000D02*
X86500000Y-96910000D01*
%TO.N,/GNSS_3V0*%
X109543900Y-88945600D02*
X112426600Y-86062900D01*
X100487300Y-88657100D02*
X100487300Y-92692200D01*
X100487300Y-92692200D02*
X100709200Y-92914100D01*
X112426600Y-86062900D02*
X112966100Y-85523400D01*
X112966100Y-81225100D02*
X112891500Y-81150500D01*
X109543900Y-96098400D02*
X109543900Y-88945600D01*
X100340700Y-88510500D02*
X100487300Y-88657100D01*
X112966100Y-85523400D02*
X112966100Y-81225100D01*
%TO.N,/USB_VBUS*%
X112509100Y-120401700D02*
X113224200Y-119686600D01*
X114456100Y-117162600D02*
X114509800Y-117216300D01*
X117330500Y-112980500D02*
X117330500Y-113768700D01*
X113224200Y-119686600D02*
X113224200Y-119183000D01*
X113073300Y-119032100D02*
X113073300Y-117535900D01*
X113446600Y-117162600D02*
X114456100Y-117162600D01*
X113224200Y-119183000D02*
X113073300Y-119032100D01*
X114509800Y-116589400D02*
X114509800Y-117216300D01*
X113073300Y-117535900D02*
X113446600Y-117162600D01*
X110292900Y-120360000D02*
X112509100Y-120401700D01*
X117330500Y-113768700D02*
X114509800Y-116589400D01*
%TO.N,/USB_CC1*%
X108676700Y-116680200D02*
X108240200Y-116243700D01*
X100863800Y-119193900D02*
X102503500Y-117554200D01*
X102503500Y-117554200D02*
X108384700Y-117554200D01*
X100863800Y-119809600D02*
X100863800Y-119193900D01*
X108676700Y-117262200D02*
X108676700Y-116680200D01*
X108384700Y-117554200D02*
X108676700Y-117262200D01*
%TO.N,/USB_CC2*%
X109293800Y-118622000D02*
X109293800Y-116881200D01*
X106855500Y-121060300D02*
X109293800Y-118622000D01*
X103218400Y-121060300D02*
X101443600Y-119285500D01*
%TO.N,/USB_SHIELD*%
X104320000Y-123075000D02*
X104320000Y-118895000D01*
X95680000Y-123075000D02*
X95680000Y-118895000D01*
%TO.N,/QMI_INT2*%
X100778800Y-98314000D02*
X100778800Y-94399300D01*
X100778800Y-94399300D02*
X100601500Y-94222000D01*
%TO.N,/I2C_SCL*%
X100128800Y-95936300D02*
X100327000Y-96134500D01*
X100327000Y-98850900D02*
X100593700Y-99117600D01*
X99514500Y-95322000D02*
X99514500Y-89718300D01*
X113328800Y-107083900D02*
X113392700Y-107147800D01*
X103716900Y-106349800D02*
X103716900Y-104756900D01*
X100568500Y-101181800D02*
X100568500Y-100516900D01*
X103716900Y-104756900D02*
X101085800Y-102125800D01*
X113328800Y-105731900D02*
X113328800Y-107083900D01*
X85968500Y-118593500D02*
X85968500Y-114029900D01*
X100327000Y-96134500D02*
X100327000Y-98850900D01*
X106102500Y-111082100D02*
X104461200Y-109440800D01*
X106102500Y-112203000D02*
X108816000Y-114916500D01*
X99779300Y-79568400D02*
X98662500Y-78451600D01*
X104461200Y-107094100D02*
X103716900Y-106349800D01*
X113392700Y-107147800D02*
X113392700Y-107573700D01*
X108088600Y-100491700D02*
X113328800Y-105731900D01*
X99779300Y-89453500D02*
X99779300Y-79568400D01*
X104461200Y-109440800D02*
X104461200Y-107094100D01*
X100568500Y-100516900D02*
X100593700Y-100491700D01*
X99514500Y-89718300D02*
X99779300Y-89453500D01*
X108816000Y-114916500D02*
X108855200Y-114916500D01*
X100128800Y-95936300D02*
X99514500Y-95322000D01*
X85968500Y-114029900D02*
X87070900Y-112927500D01*
X101085800Y-101699100D02*
X100568500Y-101181800D01*
X100593700Y-100491700D02*
X108088600Y-100491700D01*
X112259400Y-108707000D02*
X112080300Y-108707000D01*
X113392700Y-107573700D02*
X112259400Y-108707000D01*
X106102500Y-112203000D02*
X106102500Y-111082100D01*
X100593700Y-99117600D02*
X100593700Y-100491700D01*
X101085800Y-102125800D02*
X101085800Y-101699100D01*
%TO.N,/I2C_SDA*%
X109342600Y-109107000D02*
X109932500Y-109107000D01*
X99212800Y-96718400D02*
X99212800Y-87124900D01*
X103062200Y-104528900D02*
X100784100Y-102250800D01*
X108129900Y-110319700D02*
X109342600Y-109107000D01*
X100784100Y-101824100D02*
X100142000Y-101182000D01*
X99212800Y-87124900D02*
X98880400Y-87124900D01*
X108129900Y-110698500D02*
X108129900Y-110319700D01*
X100142000Y-101182000D02*
X100142000Y-99304700D01*
X99284300Y-80515800D02*
X99212800Y-80587300D01*
X99212800Y-80587300D02*
X99212800Y-87124900D01*
X100025300Y-97530900D02*
X99212800Y-96718400D01*
X100784100Y-102250800D02*
X100784100Y-101824100D01*
X100025300Y-99188000D02*
X100025300Y-97530900D01*
X103062200Y-110004400D02*
X103062200Y-104528900D01*
X100142000Y-99304700D02*
X100025300Y-99188000D01*
X103559700Y-110501900D02*
X103062200Y-110004400D01*
%TO.N,/3V3_DISPLAY*%
X102614300Y-106166700D02*
X102549100Y-106101500D01*
X102614300Y-110645800D02*
X102614300Y-106166700D01*
%TO.N,/TP_RESET_N*%
X98503400Y-98019800D02*
X98407400Y-98019800D01*
X98804700Y-106047200D02*
X98804700Y-104670000D01*
X100944900Y-106484200D02*
X100614800Y-106814300D01*
X98818500Y-98709100D02*
X98818500Y-98334900D01*
X100944900Y-105175600D02*
X100944900Y-106484200D01*
X93712700Y-94643600D02*
X93712700Y-92937800D01*
X99577300Y-103897400D02*
X99577300Y-102324100D01*
X97655100Y-97267500D02*
X96336600Y-97267500D01*
X98737300Y-101484100D02*
X98737300Y-98790300D01*
X93712700Y-92937800D02*
X94220500Y-92430000D01*
X98804700Y-104670000D02*
X99577300Y-103897400D01*
X100614800Y-106814300D02*
X99571800Y-106814300D01*
X98407400Y-98019800D02*
X97655100Y-97267500D01*
X98818500Y-98334900D02*
X98503400Y-98019800D01*
X99577300Y-102324100D02*
X98737300Y-101484100D01*
X101527500Y-104593000D02*
X100944900Y-105175600D01*
X98737300Y-98790300D02*
X98818500Y-98709100D01*
X99571800Y-106814300D02*
X98804700Y-106047200D01*
X96336600Y-97267500D02*
X93712700Y-94643600D01*
%TO.N,/MCU_EN*%
X79550000Y-92242500D02*
X79550000Y-85528000D01*
X79550000Y-85528000D02*
X80298000Y-84780000D01*
%TO.N,/BQ_ILIM*%
X107854000Y-109507000D02*
X107854000Y-107443900D01*
X107854000Y-107443900D02*
X107874700Y-107423200D01*
%TO.N,/LCD_SIO1_MCU*%
X86296400Y-103032400D02*
X93645700Y-103032400D01*
X79296000Y-95011500D02*
X80074300Y-95789800D01*
X80074300Y-95789800D02*
X80074300Y-96810300D01*
X80074300Y-96810300D02*
X86296400Y-103032400D01*
%TO.N,/TYPEC_INT_N*%
X111223100Y-81581400D02*
X108668800Y-81581400D01*
X113072600Y-80687900D02*
X112116600Y-80687900D01*
X115719700Y-102230500D02*
X115506400Y-102017200D01*
X112116600Y-80687900D02*
X111223100Y-81581400D01*
X120097000Y-108478300D02*
X120097000Y-106501100D01*
X115944600Y-101055600D02*
X115944600Y-83559900D01*
X115506400Y-101493800D02*
X115944600Y-101055600D01*
X112965100Y-116357400D02*
X110248200Y-119074300D01*
X112965100Y-115610200D02*
X112965100Y-116357400D01*
X120097000Y-106501100D02*
X115826400Y-102230500D01*
X115826400Y-102230500D02*
X115719700Y-102230500D01*
X112965100Y-115610200D02*
X120097000Y-108478300D01*
X115944600Y-83559900D02*
X113072600Y-80687900D01*
X115506400Y-102017200D02*
X115506400Y-101493800D01*
%TO.N,/TYPEC_VBUS_DET*%
X110358300Y-117740200D02*
X110358300Y-117479700D01*
X110358300Y-117479700D02*
X112894800Y-114943200D01*
%TO.N,/GNSS_TX_3V0*%
X108855900Y-80750000D02*
X106716200Y-82889700D01*
X109595100Y-80750000D02*
X108855900Y-80750000D01*
X106716200Y-82889700D02*
X106716200Y-91628600D01*
%TO.N,/GNSS_RX_3V0*%
X103738400Y-84453300D02*
X108319000Y-79872700D01*
X103738400Y-92440900D02*
X103738400Y-84453300D01*
%TO.N,/GNSS_PPS_3V0*%
X106968900Y-93969700D02*
X108543100Y-92395500D01*
X108543100Y-87495200D02*
X112509300Y-83529000D01*
X108543100Y-92395500D02*
X108543100Y-87495200D01*
%TO.N,/GNSS_RESET_N_1V8*%
X100789000Y-91311900D02*
X106972700Y-97495600D01*
X106972700Y-97495600D02*
X106972700Y-99400000D01*
X101144900Y-77900200D02*
X100747400Y-77502700D01*
X101144900Y-87462400D02*
X101144900Y-88929700D01*
X101144900Y-87462400D02*
X101144900Y-77900200D01*
X100789000Y-89285600D02*
X100789000Y-91311900D01*
X101144900Y-88929700D02*
X100789000Y-89285600D01*
%TO.N,/BAT_TS*%
X115770800Y-104159500D02*
X117276600Y-105665300D01*
X116310600Y-110231200D02*
X113472600Y-113069200D01*
X116745000Y-110231200D02*
X116310600Y-110231200D01*
X119795300Y-106731400D02*
X119795300Y-107180900D01*
X113472600Y-113069200D02*
X113472600Y-113502000D01*
X117276600Y-105665300D02*
X118729200Y-105665300D01*
X118729200Y-105665300D02*
X119795300Y-106731400D01*
X119795300Y-107180900D02*
X116745000Y-110231200D01*
%TO.N,/LCD_RESET_N*%
X99340900Y-101234300D02*
X99340900Y-99040100D01*
X98316800Y-96979900D02*
X98316800Y-95344300D01*
X98316900Y-96979900D02*
X98316800Y-96979900D01*
X99924500Y-104615900D02*
X100180700Y-104359700D01*
X100180700Y-104359700D02*
X100180700Y-102074100D01*
X99421900Y-98959100D02*
X99421900Y-98084900D01*
X99340900Y-99040100D02*
X99421900Y-98959100D01*
X100180700Y-102074100D02*
X99340900Y-101234300D01*
X99421900Y-98084900D02*
X98316900Y-96979900D01*
%TO.N,/LCD_SIO0_MCU*%
X99120200Y-98834100D02*
X99120200Y-98209900D01*
X97679600Y-96865300D02*
X96382600Y-96865300D01*
X99879000Y-104022400D02*
X99879000Y-102199100D01*
X99879000Y-102199100D02*
X99039200Y-101359300D01*
X98628400Y-97718100D02*
X98532400Y-97718100D01*
X99039200Y-98915100D02*
X99120200Y-98834100D01*
X99106400Y-105922200D02*
X99106400Y-104795000D01*
X98532400Y-97718100D02*
X97679600Y-96865300D01*
X94182000Y-94664700D02*
X94182000Y-94272100D01*
X96382600Y-96865300D02*
X94182000Y-94664700D01*
X100373500Y-106354200D02*
X99538400Y-106354200D01*
X99039200Y-101359300D02*
X99039200Y-98915100D01*
X99120200Y-98209900D02*
X98628400Y-97718100D01*
X99106400Y-104795000D02*
X99879000Y-104022400D01*
X99538400Y-106354200D02*
X99106400Y-105922200D01*
%TO.N,/LCD_SIO0*%
X102005600Y-106818400D02*
X102005600Y-110452700D01*
X101488300Y-106301100D02*
X102005600Y-106818400D01*
%TO.N,/BAT*%
X107518200Y-111405200D02*
X109682500Y-111405200D01*
X109682500Y-111405200D02*
X109850700Y-111237000D01*
X107186800Y-111073800D02*
X107518200Y-111405200D01*
%TO.N,/GNSS_PPS_3V3*%
X112549900Y-100478200D02*
X115448700Y-97579400D01*
X115448700Y-97579400D02*
X115448700Y-86138800D01*
%TO.N,/CHARGER_INT_N*%
X107621300Y-99441700D02*
X110874700Y-99441700D01*
X104875400Y-79568200D02*
X101944600Y-82499000D01*
X101944600Y-82499000D02*
X101944600Y-88706600D01*
X101090700Y-90744300D02*
X107621300Y-97274900D01*
X101944600Y-88706600D02*
X101090700Y-89560500D01*
X110874700Y-99441700D02*
X114432900Y-102999900D01*
X114614800Y-103181800D02*
X114432900Y-102999900D01*
X107621300Y-97274900D02*
X107621300Y-99441700D01*
X112096000Y-109333700D02*
X114614800Y-106814900D01*
X107621300Y-99441700D02*
X107177700Y-99885300D01*
X101090700Y-89560500D02*
X101090700Y-90744300D01*
X114614800Y-106814900D02*
X114614800Y-103181800D01*
X107177700Y-99885300D02*
X105739900Y-99885300D01*
X105739900Y-99885300D02*
X102667000Y-96812400D01*
%TO.N,/LCD_SIO2*%
X98594100Y-110526600D02*
X98594100Y-108682100D01*
X98594100Y-108682100D02*
X98086400Y-108174400D01*
%TO.N,/LCD_CLK*%
X105664400Y-104502900D02*
X105664400Y-108599000D01*
X105664400Y-108599000D02*
X105326900Y-108936500D01*
X105284100Y-104122600D02*
X105664400Y-104502900D01*
%TO.N,/LCD_CS_N*%
X101552100Y-108657800D02*
X101552100Y-111330500D01*
X98503000Y-104395100D02*
X98503000Y-106174400D01*
X99122300Y-102508100D02*
X99122900Y-102508700D01*
X99772200Y-107443600D02*
X100337900Y-107443600D01*
X98503000Y-106174400D02*
X99772200Y-107443600D01*
X99122900Y-102508700D02*
X99122900Y-103775200D01*
X100337900Y-107443600D02*
X101552100Y-108657800D01*
X99122900Y-103775200D02*
X98503000Y-104395100D01*
%TO.N,/TP_INT_N*%
X98667400Y-107477600D02*
X86515000Y-107477600D01*
X98667400Y-107477600D02*
X98914000Y-107724200D01*
X103454200Y-111020800D02*
X103908900Y-111020800D01*
X101383600Y-111821900D02*
X102653100Y-111821900D01*
X100455400Y-110245100D02*
X100455400Y-110893700D01*
X98914000Y-107724200D02*
X98914000Y-108703700D01*
X103908900Y-111020800D02*
X104151300Y-110778400D01*
X98914000Y-108703700D02*
X100455400Y-110245100D01*
X102653100Y-111821900D02*
X103454200Y-111020800D01*
X100455400Y-110893700D02*
X101383600Y-111821900D01*
X86515000Y-107477600D02*
X85214100Y-108778500D01*
%TO.N,/CHARGER_PG_N*%
X106293100Y-106685500D02*
X106293100Y-107227600D01*
X109966300Y-103012300D02*
X106293100Y-106685500D01*
%TO.N,/BQ_CE_N*%
X114163100Y-105716000D02*
X113690000Y-105242900D01*
X113690000Y-105242900D02*
X113690000Y-103006500D01*
%TO.N,/BQ_SW*%
D17*
X110175000Y-106900000D02*
X112850000Y-107350000D01*
%TO.N,/LCD_SIO2_MCU*%
D15*
X86659100Y-103912500D02*
X92902600Y-103912500D01*
X78986600Y-96240000D02*
X86659100Y-103912500D01*
X92902600Y-103912500D02*
X92902600Y-103912600D01*
%TO.N,/BOOT_N*%
X97337300Y-98522000D02*
X97337300Y-98222600D01*
X96833900Y-97719200D02*
X96356500Y-97719200D01*
X97337300Y-98222600D02*
X96833900Y-97719200D01*
X97337300Y-98522000D02*
X97337300Y-104868400D01*
X96356500Y-97719200D02*
X91886600Y-93249300D01*
X97337300Y-98522000D02*
X98366800Y-98522000D01*
X91886600Y-93249300D02*
X91886600Y-81280000D01*
%TO.N,/GNSS_RESET_DRV*%
X106288300Y-79154600D02*
X106288300Y-77813100D01*
X100482400Y-101949100D02*
X99642900Y-101109600D01*
X99642900Y-101109600D02*
X99642900Y-99164800D01*
X100482400Y-104800100D02*
X100482400Y-101949100D01*
X98809700Y-97046000D02*
X98809700Y-91583800D01*
X102983900Y-82459000D02*
X106288300Y-79154600D01*
X99723600Y-99084100D02*
X99723600Y-97959900D01*
X101548700Y-90353300D02*
X102983900Y-88918100D01*
X99571300Y-105711200D02*
X100482400Y-104800100D01*
X98809700Y-91583800D02*
X98320000Y-91094100D01*
X99642900Y-99164800D02*
X99723600Y-99084100D01*
X102983900Y-88918100D02*
X102983900Y-82459000D01*
X99723600Y-97959900D02*
X98809700Y-97046000D01*
%TO.N,/LCD_SIO3_MCU*%
X100478000Y-108649300D02*
X92022200Y-100193500D01*
X92022200Y-100193500D02*
X92022200Y-95499800D01*
X83334300Y-95281000D02*
X83334300Y-95597200D01*
X83334300Y-95597200D02*
X81421500Y-97510000D01*
X100904700Y-108649300D02*
X100478000Y-108649300D01*
%TO.N,/TPS_EN_SYNC*%
X117587900Y-104950800D02*
X117587900Y-105010500D01*
X115617800Y-102980700D02*
X117587900Y-104950800D01*
%TO.N,/LCD_CLK_MCU*%
X105211400Y-106344500D02*
X105211400Y-105824700D01*
X101034100Y-101220700D02*
X101034100Y-101008400D01*
X101387500Y-101574100D02*
X101034100Y-101220700D01*
X105211400Y-105824700D02*
X101387500Y-102000800D01*
X101387500Y-102000800D02*
X101387500Y-101574100D01*
%TO.N,/USB_D_N_MCU*%
D18*
X108200000Y-115600000D02*
X89000000Y-113500000D01*
X89000000Y-113500000D02*
X81000000Y-105130000D01*
X81000000Y-105130000D02*
X79600000Y-105130000D01*
%TO.N,/USB_D_P_MCU*%
X108200000Y-117000000D02*
X89000000Y-114100000D01*
X81000000Y-106400000D02*
X79600000Y-106400000D01*
X89000000Y-114100000D02*
X81000000Y-106400000D01*
%TO.N,/MAG_DRDY*%
D15*
X97309900Y-89242500D02*
X96477900Y-90074500D01*
X96477900Y-90074500D02*
X96477900Y-96240000D01*
X97309900Y-79164300D02*
X97309900Y-89242500D01*
X98873400Y-77999800D02*
X98474400Y-77999800D01*
X100526200Y-79652600D02*
X98873400Y-77999800D01*
X98474400Y-77999800D02*
X97309900Y-79164300D01*
X100526200Y-80544300D02*
X100526200Y-79652600D01*
%TO.N,/UART0_TX*%
X79165000Y-94496100D02*
X82043400Y-94496100D01*
X78522800Y-95138300D02*
X79165000Y-94496100D01*
X78522800Y-108575400D02*
X78522800Y-95138300D01*
X82043400Y-94496100D02*
X82320300Y-94773000D01*
X81579000Y-111631600D02*
X78522800Y-108575400D01*
%TD*%
M02*
