M48
; DRILL file KiCad 10.0.6 date 2026-09-03T20:14:28
; FORMAT={-:-/ absolute / metric / decimal}
; #@! TF.CreationDate,2026-09-03T20:14:28+08:00
; #@! TF.GenerationSoftware,Kicad,Pcbnew,10.0.6
; #@! TF.FileFunction,Plated,1,4,PTH
FMAT,2
METRIC
; #@! TA.AperFunction,Plated,PTH,ViaDrill
T1C0.200
; #@! TA.AperFunction,Plated,PTH,ComponentDrill
T2C0.200
; #@! TA.AperFunction,Plated,PTH,ViaDrill
T3C0.250
; #@! TA.AperFunction,Plated,PTH,ComponentDrill
T4C0.600
%
G90
G05
T1
X78.979Y-101.167
X78.983Y-102.746
X78.987Y-96.24
X79.296Y-95.011
X79.55Y-92.242
X79.6Y-105.13
X79.6Y-106.4
X80.298Y-84.78
X80.392Y-112.151
X81.054Y-90.051
X81.421Y-97.51
X81.579Y-111.632
X81.896Y-105.388
X82.32Y-94.773
X83.316Y-94.038
X83.334Y-95.281
X84.405Y-103.107
X85.214Y-108.778
X85.306Y-114.612
X85.968Y-118.593
X86.534Y-116.775
X87.071Y-112.927
X87.652Y-109.787
X90.212Y-105.437
X91.424Y-89.89
X91.887Y-81.28
X92.022Y-95.5
X92.388Y-92.719
X92.519Y-105.568
X92.903Y-103.913
X93.646Y-103.032
X94.182Y-94.272
X94.221Y-92.43
X95.156Y-120.847
X96.478Y-96.24
X96.489Y-98.78
X96.587Y-98.171
X96.754Y-88.326
X97.188Y-111.351
X97.337Y-104.868
X97.642Y-89.549
X97.919Y-100.767
X98.086Y-108.174
X98.317Y-95.344
X98.32Y-91.094
X98.367Y-98.522
X98.478Y-103.569
X98.594Y-110.527
X98.662Y-78.452
X98.667Y-107.478
X98.671Y-102.967
X98.88Y-87.125
X99.067Y-111.442
X99.122Y-102.508
X99.284Y-80.516
X99.571Y-105.711
X99.661Y-111.821
X99.755Y-110.695
X99.779Y-89.453
X99.91Y-109.015
X99.924Y-104.616
X99.966Y-90.324
X100.129Y-95.936
X100.142Y-99.305
X100.25Y-119.65
X100.341Y-88.51
X100.373Y-106.354
X100.526Y-80.544
X100.602Y-94.222
X100.709Y-92.914
X100.747Y-77.503
X100.779Y-98.314
X100.864Y-119.81
X100.905Y-108.649
X101.034Y-101.008
X101.145Y-87.462
X101.444Y-119.285
X101.488Y-106.301
X101.527Y-104.593
X101.549Y-90.353
X101.552Y-111.331
X101.573Y-97.024
X101.686Y-101.233
X101.863Y-94.73
X102.006Y-110.453
X102.19Y-113.802
X102.549Y-106.102
X102.614Y-110.646
X102.667Y-96.812
X103.12Y-101.835
X103.218Y-121.06
X103.316Y-111.819
X103.5Y-115.8
X103.56Y-110.502
X103.635Y-108.485
X103.738Y-92.441
X103.862Y-103.699
X103.921Y-107.495
X104.151Y-110.778
X104.25Y-106.224
X104.875Y-79.568
X105.211Y-106.344
X105.284Y-104.123
X105.327Y-108.936
X106.041Y-113.259
X106.102Y-112.203
X106.288Y-77.813
X106.293Y-107.228
X106.716Y-91.629
X106.855Y-121.06
X106.969Y-93.97
X106.973Y-99.4
X107.187Y-111.074
X107.279Y-109.806
X107.368Y-116.3
X107.854Y-109.507
X107.875Y-107.423
X108.13Y-110.698
X108.24Y-116.244
X108.319Y-79.873
X108.387Y-105.998
X108.669Y-81.581
X108.8Y-106.9
X108.855Y-114.916
X108.882Y-110.953
X109.294Y-116.881
X109.309Y-104.895
X109.518Y-109.571
X109.544Y-96.098
X109.595Y-80.75
X109.851Y-111.237
X109.932Y-109.107
X109.966Y-103.012
X110.175Y-106.9
X110.229Y-83.986
X110.248Y-119.074
X110.293Y-120.36
X110.358Y-117.74
X110.562Y-105.375
X110.575Y-111.05
X110.681Y-104.089
X110.734Y-82.807
X110.974Y-105.841
X111.231Y-113.201
X111.656Y-115.366
X111.746Y-114.363
X112.08Y-108.707
X112.096Y-109.334
X112.427Y-86.063
X112.509Y-83.529
X112.55Y-100.478
X112.703Y-119.484
X112.85Y-107.35
X112.891Y-81.15
X112.895Y-114.943
X112.965Y-115.61
X113.0Y-110.75
X113.123Y-121.22
X113.473Y-113.502
X113.69Y-103.006
X113.843Y-106.87
X114.163Y-105.716
X114.433Y-103.0
X114.51Y-117.216
X114.641Y-118.668
X115.449Y-86.139
X115.618Y-102.981
X115.717Y-107.005
X115.771Y-104.159
X115.963Y-101.773
X117.331Y-112.98
X117.435Y-96.392
X117.588Y-105.01
X118.728Y-103.079
X118.825Y-106.55
X120.35Y-110.75
X121.092Y-102.567
X122.194Y-92.619
T2
X83.7Y-96.91
X83.7Y-98.31
X84.4Y-96.21
X84.4Y-97.61
X84.4Y-99.01
X85.1Y-96.91
X85.1Y-98.31
X85.8Y-96.21
X85.8Y-97.61
X85.8Y-99.01
X86.5Y-96.91
X86.5Y-98.31
T3
X108.2Y-115.6
X108.2Y-117.0
X108.5Y-113.45
X112.15Y-113.45
X117.0Y-106.95
X117.2Y-115.0
X119.13Y-100.65
X119.2Y-106.95
X119.5Y-115.0
X120.3Y-101.05
X123.0Y-99.35
T4
X95.68Y-118.345G85X95.68Y-119.445
G05
X95.68Y-122.775G85X95.68Y-123.375
G05
X104.32Y-118.345G85X104.32Y-119.445
G05
X104.32Y-122.775G85X104.32Y-123.375
G05
M30
