%TF.GenerationSoftware,KiCad,Pcbnew,10.0.6*%
%TF.CreationDate,2026-09-03T20:14:28+08:00*%
%TF.ProjectId,moto-gps-rev-a1,6d6f746f-2d67-4707-932d-7265762d6131,rev?*%
%TF.SameCoordinates,Original*%
%TF.FileFunction,Copper,L2,Inr*%
%TF.FilePolarity,Positive*%
%FSLAX46Y46*%
G04 Gerber Fmt 4.6, Leading zero omitted, Abs format (unit mm)*
G04 Created by KiCad (PCBNEW 10.0.6) date 2026-09-03 20:14:28*
%MOMM*%
%LPD*%
G01*
G04 APERTURE LIST*
%TA.AperFunction,ComponentPad*%
%ADD10O,1.000000X2.100000*%
%TD*%
%TA.AperFunction,ComponentPad*%
%ADD11O,1.000000X1.600000*%
%TD*%
%TA.AperFunction,HeatsinkPad*%
%ADD12C,0.450000*%
%TD*%
%TA.AperFunction,ViaPad*%
%ADD13C,0.450000*%
%TD*%
%TA.AperFunction,ViaPad*%
%ADD14C,0.500000*%
%TD*%
G04 APERTURE END LIST*
D10*
%TO.N,/USB_SHIELD*%
%TO.C,J1*%
X95680000Y-118895000D03*
D11*
X95680000Y-123075000D03*
D10*
X104320000Y-118895000D03*
D11*
X104320000Y-123075000D03*
%TD*%
D12*
%TO.N,/GND*%
%TO.C,U1*%
X83700000Y-96910000D03*
X83700000Y-98310000D03*
X84400000Y-96210000D03*
X84400000Y-97610000D03*
X84400000Y-99010000D03*
X85100000Y-96910000D03*
X85100000Y-98310000D03*
X85800000Y-96210000D03*
X85800000Y-97610000D03*
X85800000Y-99010000D03*
X86500000Y-96910000D03*
X86500000Y-98310000D03*
%TD*%
D13*
%TO.N,/3V3*%
X115963500Y-101773500D03*
X113123300Y-121219800D03*
D14*
X117200000Y-115000000D03*
D13*
X120350000Y-110750000D03*
D14*
X119500000Y-115000000D03*
D13*
X102189600Y-113802000D03*
%TO.N,/CHARGER_STAT_N*%
X111230700Y-113200800D03*
X112702800Y-119483800D03*
D14*
%TO.N,/SYS*%
X117000000Y-106950000D03*
D13*
X110973700Y-105841000D03*
X113000000Y-110750000D03*
D14*
X108500000Y-113450000D03*
X112150000Y-113450000D03*
D13*
X118825000Y-106550000D03*
D14*
X119200000Y-106950000D03*
D13*
X110575000Y-111050000D03*
D14*
%TO.N,/GND*%
X120300000Y-101050000D03*
D13*
X97642500Y-89548600D03*
X81054200Y-90051200D03*
D14*
X123000000Y-99350000D03*
D13*
X122193600Y-92618600D03*
X91423700Y-89890000D03*
X114640900Y-118667800D03*
D14*
X119130000Y-100650000D03*
D13*
X95155800Y-120847500D03*
%TO.N,/GNSS_3V0*%
X100340700Y-88510500D03*
X112426600Y-86062900D03*
X112891500Y-81150500D03*
X100709200Y-92914100D03*
X109543900Y-96098400D03*
%TO.N,/USB_VBUS*%
X114509800Y-117216300D03*
X110561900Y-105375000D03*
X108386900Y-105998000D03*
X117330500Y-112980500D03*
X110292900Y-120360000D03*
%TO.N,/USB_CC1*%
X100863800Y-119809600D03*
X108240200Y-116243700D03*
%TO.N,/USB_D_N_CONN*%
X100250000Y-119650000D03*
X103500000Y-115800000D03*
%TO.N,/USB_CC2*%
X106855500Y-121060300D03*
X109293800Y-116881200D03*
X101443600Y-119285500D03*
X103218400Y-121060300D03*
%TO.N,/QMI_INT1*%
X101572900Y-97024300D03*
X90212500Y-105436600D03*
%TO.N,/QMI_INT2*%
X100778800Y-98314000D03*
X100601500Y-94222000D03*
X97918700Y-100767200D03*
%TO.N,/I2C_SCL*%
X100128800Y-95936300D03*
X85968500Y-118593500D03*
X99779300Y-89453500D03*
X87070900Y-112927500D03*
X108855200Y-114916500D03*
X98662500Y-78451600D03*
X111656400Y-115366500D03*
X112080300Y-108707000D03*
X106102500Y-112203000D03*
X103316500Y-111819300D03*
%TO.N,/I2C_SDA*%
X98880400Y-87124900D03*
X80392100Y-112150700D03*
X109932500Y-109107000D03*
X111746100Y-114362700D03*
X99284300Y-80515800D03*
X103559700Y-110501900D03*
X100142000Y-99304700D03*
X108129900Y-110698500D03*
%TO.N,/3V3_DISPLAY*%
X102549100Y-106101500D03*
X102614300Y-110645800D03*
%TO.N,/TP_RESET_N*%
X94220500Y-92430000D03*
X101527500Y-104593000D03*
X103921200Y-107494800D03*
%TO.N,/FUNC_KEY_N*%
X84405100Y-103106900D03*
X121091900Y-102567300D03*
X101863200Y-94730000D03*
%TO.N,/MCU_EN*%
X80298000Y-84780000D03*
X99966300Y-90323900D03*
X79550000Y-92242500D03*
X96753800Y-88326500D03*
%TO.N,/BQ_ILIM*%
X107854000Y-109507000D03*
X113842900Y-106870100D03*
X107874700Y-107423200D03*
%TO.N,/LCD_SIO1_MCU*%
X103861900Y-103698700D03*
X79296000Y-95011500D03*
X93645700Y-103032400D03*
%TO.N,/LCD_SIO1*%
X99661300Y-111821400D03*
X104250000Y-106223900D03*
%TO.N,/TYPEC_INT_N*%
X112965100Y-115610200D03*
X110248200Y-119074300D03*
X107367800Y-116300000D03*
X108668800Y-81581400D03*
%TO.N,/TYPEC_VBUS_DET*%
X112894800Y-114943200D03*
X110358300Y-117740200D03*
%TO.N,/GNSS_TX_3V0*%
X109595100Y-80750000D03*
X106716200Y-91628600D03*
%TO.N,/GNSS_RX_3V0*%
X83316500Y-94038400D03*
X92387500Y-92718600D03*
X103738400Y-92440900D03*
X108319000Y-79872700D03*
%TO.N,/GNSS_PPS_3V0*%
X112509300Y-83529000D03*
X106968900Y-93969700D03*
%TO.N,/GNSS_RESET_N_1V8*%
X100747400Y-77502700D03*
X106972700Y-99400000D03*
X101144900Y-87462400D03*
%TO.N,/GNSS_ANT_ON*%
X117434800Y-96392500D03*
%TO.N,/BQ_TS_BIAS*%
X109309000Y-104894900D03*
X107279300Y-109805900D03*
%TO.N,/BAT_TS*%
X108882400Y-110953500D03*
X85306100Y-114612100D03*
X113472600Y-113502000D03*
X115770800Y-104159500D03*
%TO.N,/LCD_RESET_N*%
X99924500Y-104615900D03*
X99910400Y-109015400D03*
X98316800Y-95344300D03*
X103119700Y-101835000D03*
%TO.N,/LCD_SIO0_MCU*%
X100373500Y-106354200D03*
X94182000Y-94272100D03*
%TO.N,/LCD_SIO0*%
X102005600Y-110452700D03*
X101488300Y-106301100D03*
%TO.N,/3V3_PG_N*%
X115716900Y-107004700D03*
X118728300Y-103078600D03*
%TO.N,/BAT*%
X109850700Y-111237000D03*
X86534300Y-116775000D03*
X106041400Y-113259400D03*
X107186800Y-111073800D03*
%TO.N,/GNSS_PPS_3V3*%
X115448700Y-86138800D03*
X96586700Y-98170900D03*
X112549900Y-100478200D03*
%TO.N,/CHARGER_INT_N*%
X102667000Y-96812400D03*
X104875400Y-79568200D03*
X112096000Y-109333700D03*
X96488500Y-98780000D03*
X114432900Y-102999900D03*
%TO.N,/LCD_TE*%
X97188400Y-111351100D03*
X87652500Y-109787500D03*
%TO.N,/LCD_SIO2*%
X98594100Y-110526600D03*
X101685600Y-101233200D03*
X98086400Y-108174400D03*
%TO.N,/LCD_SIO3*%
X103634600Y-108484800D03*
X99067000Y-111441900D03*
%TO.N,/LCD_CLK*%
X105326900Y-108936500D03*
X105284100Y-104122600D03*
X99755100Y-110695300D03*
%TO.N,/LCD_CS_N*%
X99122300Y-102508100D03*
X101552100Y-111330500D03*
%TO.N,/TP_INT_N*%
X85214100Y-108778500D03*
X104151300Y-110778400D03*
X98667400Y-107477600D03*
%TO.N,/BQ_BTST*%
X108800000Y-106900000D03*
%TO.N,/CHARGER_PG_N*%
X109966300Y-103012300D03*
X106293100Y-107227600D03*
%TO.N,/BQ_QON*%
X109517600Y-109571000D03*
%TO.N,/BQ_CE_N*%
X113690000Y-103006500D03*
X114163100Y-105716000D03*
%TO.N,/BQ_SW*%
X110175000Y-106900000D03*
X112850000Y-107350000D03*
%TO.N,/LCD_SIO2_MCU*%
X98671200Y-102967000D03*
X92902600Y-103912600D03*
X78986600Y-96240000D03*
%TO.N,/LCD_CS_N_MCU*%
X98477900Y-103568800D03*
X92519200Y-105568300D03*
%TO.N,/BOOT_N*%
X98366800Y-98522000D03*
X97337300Y-104868400D03*
X91886600Y-81280000D03*
%TO.N,/GNSS_RESET_DRV*%
X106288300Y-77813100D03*
X101548700Y-90353300D03*
X99571300Y-105711200D03*
X98320000Y-91094100D03*
%TO.N,/LCD_SIO3_MCU*%
X81421500Y-97510000D03*
X100904700Y-108649300D03*
X92022200Y-95499800D03*
X83334300Y-95281000D03*
%TO.N,/TPS_EN_SYNC*%
X117587900Y-105010500D03*
X110681300Y-104089400D03*
X115617800Y-102980700D03*
%TO.N,/LCD_CLK_MCU*%
X101034100Y-101008400D03*
X105211400Y-106344500D03*
%TO.N,/GNSS_UART_TX_3V3*%
X78979300Y-101167400D03*
X110229200Y-83986000D03*
%TO.N,/GNSS_UART_RX_3V3*%
X110734100Y-82807000D03*
X78982700Y-102746000D03*
%TO.N,/USB_D_N_MCU*%
X79600000Y-105130000D03*
D14*
X108200000Y-115600000D03*
D13*
%TO.N,/USB_D_P_MCU*%
X79600000Y-106400000D03*
D14*
X108200000Y-117000000D03*
D13*
%TO.N,/MAG_DRDY*%
X100526200Y-80544300D03*
X96477900Y-96240000D03*
%TO.N,/UART0_RX*%
X81896100Y-105388200D03*
%TO.N,/UART0_TX*%
X82320300Y-94773000D03*
X81579000Y-111631600D03*
%TD*%
%TA.AperFunction,Conductor*%
%TO.N,/GND*%
G36*
X101339179Y-74385067D02*
G01*
X101345655Y-74385406D01*
X102677958Y-74490261D01*
X102684350Y-74490933D01*
X104009342Y-74665372D01*
X104015698Y-74666378D01*
X105329751Y-74909924D01*
X105336091Y-74911272D01*
X106635567Y-75223248D01*
X106641793Y-75224916D01*
X107923180Y-75604480D01*
X107929335Y-75606480D01*
X109189082Y-76052580D01*
X109195143Y-76054907D01*
X110429791Y-76566315D01*
X110435717Y-76568953D01*
X111641941Y-77144291D01*
X111647705Y-77147229D01*
X112822162Y-77784907D01*
X112827757Y-77788137D01*
X113829763Y-78402167D01*
X113967217Y-78486399D01*
X113972659Y-78489933D01*
X115032425Y-79218291D01*
X115074017Y-79246876D01*
X115079264Y-79250689D01*
X115289831Y-79412262D01*
X116102581Y-80035907D01*
X116143784Y-80092335D01*
X116149648Y-80115396D01*
X116406066Y-81779213D01*
X116406066Y-81779214D01*
X116406067Y-81779216D01*
X117076628Y-82923371D01*
X118220783Y-83593932D01*
X119268734Y-83755436D01*
X119884602Y-83850350D01*
X119947861Y-83880016D01*
X119964091Y-83897417D01*
X120749306Y-84920729D01*
X120753122Y-84925981D01*
X121510064Y-86027337D01*
X121513599Y-86032781D01*
X122211853Y-87172228D01*
X122215099Y-87177850D01*
X122852764Y-88352283D01*
X122855712Y-88358068D01*
X123431043Y-89564277D01*
X123433683Y-89570207D01*
X123945091Y-90804855D01*
X123947418Y-90810916D01*
X124393515Y-92070654D01*
X124395521Y-92076828D01*
X124775076Y-93358182D01*
X124776756Y-93364453D01*
X125088725Y-94663902D01*
X125090075Y-94670252D01*
X125333615Y-95984272D01*
X125334630Y-95990684D01*
X125509061Y-97315616D01*
X125509740Y-97322072D01*
X125614591Y-98654340D01*
X125614931Y-98660823D01*
X125649914Y-99996753D01*
X125649914Y-100003245D01*
X125614931Y-101339175D01*
X125614591Y-101345658D01*
X125509740Y-102677926D01*
X125509061Y-102684382D01*
X125334630Y-104009314D01*
X125333615Y-104015726D01*
X125090075Y-105329746D01*
X125088725Y-105336096D01*
X124776756Y-106635545D01*
X124775076Y-106641816D01*
X124395521Y-107923170D01*
X124393515Y-107929344D01*
X123947418Y-109189082D01*
X123945091Y-109195143D01*
X123433683Y-110429791D01*
X123431043Y-110435721D01*
X122855712Y-111641930D01*
X122852764Y-111647715D01*
X122215099Y-112822148D01*
X122211853Y-112827770D01*
X121513599Y-113967217D01*
X121510064Y-113972661D01*
X120753122Y-115074017D01*
X120749306Y-115079269D01*
X119964091Y-116102581D01*
X119907663Y-116143784D01*
X119884602Y-116149648D01*
X118220785Y-116406066D01*
X118220783Y-116406066D01*
X118220783Y-116406067D01*
X117076628Y-117076628D01*
X116413962Y-118207313D01*
X116406066Y-118220785D01*
X116149648Y-119884602D01*
X116119982Y-119947861D01*
X116102581Y-119964091D01*
X115079269Y-120749306D01*
X115074017Y-120753122D01*
X113972661Y-121510064D01*
X113967217Y-121513599D01*
X112827770Y-122211853D01*
X112822148Y-122215099D01*
X111647715Y-122852764D01*
X111641930Y-122855712D01*
X110435721Y-123431043D01*
X110429791Y-123433683D01*
X109195143Y-123945091D01*
X109189082Y-123947418D01*
X107929344Y-124393515D01*
X107923170Y-124395521D01*
X106641816Y-124775076D01*
X106635545Y-124776756D01*
X105336096Y-125088725D01*
X105329746Y-125090075D01*
X104015726Y-125333615D01*
X104009314Y-125334630D01*
X102684382Y-125509061D01*
X102677926Y-125509740D01*
X101345658Y-125614591D01*
X101339175Y-125614931D01*
X100003245Y-125649914D01*
X99996753Y-125649914D01*
X98660823Y-125614931D01*
X98654340Y-125614591D01*
X97322072Y-125509740D01*
X97315616Y-125509061D01*
X95990684Y-125334630D01*
X95984272Y-125333615D01*
X94670252Y-125090075D01*
X94663902Y-125088725D01*
X93364453Y-124776756D01*
X93358182Y-124775076D01*
X92076828Y-124395521D01*
X92070654Y-124393515D01*
X90810916Y-123947418D01*
X90804855Y-123945091D01*
X89583215Y-123439071D01*
X95029499Y-123439071D01*
X95054497Y-123564738D01*
X95054499Y-123564744D01*
X95103533Y-123683124D01*
X95103538Y-123683133D01*
X95174723Y-123789668D01*
X95174726Y-123789672D01*
X95265327Y-123880273D01*
X95265331Y-123880276D01*
X95371866Y-123951461D01*
X95371872Y-123951464D01*
X95371873Y-123951465D01*
X95490256Y-124000501D01*
X95490260Y-124000501D01*
X95490261Y-124000502D01*
X95615928Y-124025500D01*
X95615931Y-124025500D01*
X95744071Y-124025500D01*
X95828615Y-124008682D01*
X95869744Y-124000501D01*
X95988127Y-123951465D01*
X96094669Y-123880276D01*
X96185276Y-123789669D01*
X96256465Y-123683127D01*
X96305501Y-123564744D01*
X96330500Y-123439071D01*
X103669499Y-123439071D01*
X103694497Y-123564738D01*
X103694499Y-123564744D01*
X103743533Y-123683124D01*
X103743538Y-123683133D01*
X103814723Y-123789668D01*
X103814726Y-123789672D01*
X103905327Y-123880273D01*
X103905331Y-123880276D01*
X104011866Y-123951461D01*
X104011872Y-123951464D01*
X104011873Y-123951465D01*
X104130256Y-124000501D01*
X104130260Y-124000501D01*
X104130261Y-124000502D01*
X104255928Y-124025500D01*
X104255931Y-124025500D01*
X104384071Y-124025500D01*
X104468615Y-124008682D01*
X104509744Y-124000501D01*
X104628127Y-123951465D01*
X104734669Y-123880276D01*
X104825276Y-123789669D01*
X104896465Y-123683127D01*
X104945501Y-123564744D01*
X104970500Y-123439069D01*
X104970500Y-122710931D01*
X104970500Y-122710928D01*
X104945502Y-122585261D01*
X104945501Y-122585260D01*
X104945501Y-122585256D01*
X104896465Y-122466873D01*
X104896464Y-122466872D01*
X104896461Y-122466866D01*
X104825276Y-122360331D01*
X104825273Y-122360327D01*
X104734672Y-122269726D01*
X104734668Y-122269723D01*
X104628133Y-122198538D01*
X104628124Y-122198533D01*
X104509744Y-122149499D01*
X104509738Y-122149497D01*
X104384071Y-122124500D01*
X104384069Y-122124500D01*
X104255931Y-122124500D01*
X104255929Y-122124500D01*
X104130261Y-122149497D01*
X104130255Y-122149499D01*
X104011875Y-122198533D01*
X104011866Y-122198538D01*
X103905331Y-122269723D01*
X103905327Y-122269726D01*
X103814726Y-122360327D01*
X103814723Y-122360331D01*
X103743538Y-122466866D01*
X103743533Y-122466875D01*
X103694499Y-122585255D01*
X103694497Y-122585261D01*
X103669500Y-122710928D01*
X103669500Y-122710931D01*
X103669500Y-123439069D01*
X103669500Y-123439071D01*
X103669499Y-123439071D01*
X96330500Y-123439071D01*
X96330500Y-123439069D01*
X96330500Y-122710931D01*
X96330500Y-122710928D01*
X96305502Y-122585261D01*
X96305501Y-122585260D01*
X96305501Y-122585256D01*
X96256465Y-122466873D01*
X96256464Y-122466872D01*
X96256461Y-122466866D01*
X96185276Y-122360331D01*
X96185273Y-122360327D01*
X96094672Y-122269726D01*
X96094668Y-122269723D01*
X95988133Y-122198538D01*
X95988124Y-122198533D01*
X95869744Y-122149499D01*
X95869738Y-122149497D01*
X95744071Y-122124500D01*
X95744069Y-122124500D01*
X95615931Y-122124500D01*
X95615929Y-122124500D01*
X95490261Y-122149497D01*
X95490255Y-122149499D01*
X95371875Y-122198533D01*
X95371866Y-122198538D01*
X95265331Y-122269723D01*
X95265327Y-122269726D01*
X95174726Y-122360327D01*
X95174723Y-122360331D01*
X95103538Y-122466866D01*
X95103533Y-122466875D01*
X95054499Y-122585255D01*
X95054497Y-122585261D01*
X95029500Y-122710928D01*
X95029500Y-122710931D01*
X95029500Y-123439069D01*
X95029500Y-123439071D01*
X95029499Y-123439071D01*
X89583215Y-123439071D01*
X89570207Y-123433683D01*
X89564277Y-123431043D01*
X88358068Y-122855712D01*
X88352284Y-122852764D01*
X88280543Y-122813812D01*
X88280542Y-122813812D01*
X88091053Y-122710928D01*
X87177850Y-122215098D01*
X87172229Y-122211853D01*
X86032781Y-121513599D01*
X86027337Y-121510064D01*
X85437864Y-121104930D01*
X85300999Y-121010865D01*
X102842900Y-121010865D01*
X102842900Y-121109735D01*
X102868490Y-121205238D01*
X102868491Y-121205239D01*
X102868491Y-121205240D01*
X102881737Y-121228182D01*
X102917925Y-121290862D01*
X102987838Y-121360775D01*
X103073462Y-121410210D01*
X103168965Y-121435800D01*
X103168967Y-121435800D01*
X103267832Y-121435800D01*
X103267835Y-121435800D01*
X103363338Y-121410210D01*
X103448962Y-121360775D01*
X103518875Y-121290862D01*
X103568310Y-121205238D01*
X103593900Y-121109735D01*
X103593900Y-121010865D01*
X106480000Y-121010865D01*
X106480000Y-121109735D01*
X106505590Y-121205238D01*
X106505591Y-121205239D01*
X106505591Y-121205240D01*
X106518837Y-121228182D01*
X106555025Y-121290862D01*
X106624938Y-121360775D01*
X106710562Y-121410210D01*
X106806065Y-121435800D01*
X106806067Y-121435800D01*
X106904932Y-121435800D01*
X106904935Y-121435800D01*
X107000438Y-121410210D01*
X107086062Y-121360775D01*
X107155975Y-121290862D01*
X107205410Y-121205238D01*
X107214754Y-121170365D01*
X112747800Y-121170365D01*
X112747800Y-121269235D01*
X112773390Y-121364738D01*
X112822825Y-121450362D01*
X112892738Y-121520275D01*
X112978362Y-121569710D01*
X113073865Y-121595300D01*
X113073867Y-121595300D01*
X113172732Y-121595300D01*
X113172735Y-121595300D01*
X113268238Y-121569710D01*
X113353862Y-121520275D01*
X113423775Y-121450362D01*
X113473210Y-121364738D01*
X113498800Y-121269235D01*
X113498800Y-121170365D01*
X113473210Y-121074862D01*
X113423775Y-120989238D01*
X113353862Y-120919325D01*
X113268238Y-120869890D01*
X113172735Y-120844300D01*
X113073865Y-120844300D01*
X112978362Y-120869890D01*
X112978360Y-120869891D01*
X112978359Y-120869891D01*
X112892736Y-120919326D01*
X112822826Y-120989236D01*
X112773391Y-121074859D01*
X112773391Y-121074860D01*
X112773390Y-121074862D01*
X112747800Y-121170365D01*
X107214754Y-121170365D01*
X107231000Y-121109735D01*
X107231000Y-121010865D01*
X107205410Y-120915362D01*
X107155975Y-120829738D01*
X107086062Y-120759825D01*
X107000438Y-120710390D01*
X106904935Y-120684800D01*
X106806065Y-120684800D01*
X106710562Y-120710390D01*
X106710560Y-120710391D01*
X106710559Y-120710391D01*
X106624936Y-120759826D01*
X106555026Y-120829736D01*
X106505591Y-120915359D01*
X106505591Y-120915360D01*
X106505590Y-120915362D01*
X106480000Y-121010865D01*
X103593900Y-121010865D01*
X103568310Y-120915362D01*
X103518875Y-120829738D01*
X103448962Y-120759825D01*
X103363338Y-120710390D01*
X103267835Y-120684800D01*
X103168965Y-120684800D01*
X103073462Y-120710390D01*
X103073460Y-120710391D01*
X103073459Y-120710391D01*
X102987836Y-120759826D01*
X102917926Y-120829736D01*
X102868491Y-120915359D01*
X102868491Y-120915360D01*
X102868490Y-120915362D01*
X102842900Y-121010865D01*
X85300999Y-121010865D01*
X84925981Y-120753122D01*
X84920729Y-120749306D01*
X84352381Y-120313197D01*
X109937400Y-120313197D01*
X109937400Y-120406803D01*
X109944002Y-120431442D01*
X109961626Y-120497219D01*
X109985027Y-120537750D01*
X110008429Y-120578282D01*
X110074618Y-120644471D01*
X110155682Y-120691274D01*
X110246097Y-120715500D01*
X110246099Y-120715500D01*
X110339701Y-120715500D01*
X110339703Y-120715500D01*
X110430118Y-120691274D01*
X110511182Y-120644471D01*
X110577371Y-120578282D01*
X110624174Y-120497218D01*
X110648400Y-120406803D01*
X110648400Y-120313197D01*
X110624174Y-120222782D01*
X110577371Y-120141718D01*
X110511182Y-120075529D01*
X110467750Y-120050453D01*
X110430119Y-120028726D01*
X110384910Y-120016613D01*
X110339703Y-120004500D01*
X110246097Y-120004500D01*
X110155680Y-120028726D01*
X110074618Y-120075529D01*
X110074615Y-120075531D01*
X110008431Y-120141715D01*
X110008429Y-120141718D01*
X109961626Y-120222780D01*
X109937400Y-120313197D01*
X84352381Y-120313197D01*
X83897417Y-119964091D01*
X83856214Y-119907663D01*
X83850350Y-119884602D01*
X83792475Y-119509071D01*
X95029499Y-119509071D01*
X95054497Y-119634738D01*
X95054499Y-119634744D01*
X95103533Y-119753124D01*
X95103538Y-119753133D01*
X95174723Y-119859668D01*
X95174726Y-119859672D01*
X95265327Y-119950273D01*
X95265331Y-119950276D01*
X95371866Y-120021461D01*
X95371875Y-120021466D01*
X95398692Y-120032574D01*
X95490256Y-120070501D01*
X95490260Y-120070501D01*
X95490261Y-120070502D01*
X95615928Y-120095500D01*
X95615931Y-120095500D01*
X95744071Y-120095500D01*
X95844467Y-120075529D01*
X95869744Y-120070501D01*
X95988127Y-120021465D01*
X96094669Y-119950276D01*
X96185276Y-119859669D01*
X96256465Y-119753127D01*
X96305501Y-119634744D01*
X96316682Y-119578536D01*
X96330500Y-119509071D01*
X96330500Y-119332399D01*
X96634500Y-119332399D01*
X96634500Y-119457601D01*
X96666905Y-119578536D01*
X96729505Y-119686964D01*
X96818036Y-119775495D01*
X96926464Y-119838095D01*
X97047399Y-119870500D01*
X97047401Y-119870500D01*
X97172599Y-119870500D01*
X97172601Y-119870500D01*
X97293536Y-119838095D01*
X97401964Y-119775495D01*
X97490495Y-119686964D01*
X97540377Y-119600565D01*
X99874500Y-119600565D01*
X99874500Y-119699435D01*
X99900090Y-119794938D01*
X99949525Y-119880562D01*
X100019438Y-119950475D01*
X100105062Y-119999910D01*
X100200565Y-120025500D01*
X100200567Y-120025500D01*
X100299432Y-120025500D01*
X100299435Y-120025500D01*
X100394938Y-119999910D01*
X100396408Y-119999061D01*
X100397804Y-119998722D01*
X100402448Y-119996799D01*
X100402747Y-119997522D01*
X100464305Y-119982586D01*
X100530333Y-120005435D01*
X100557007Y-120034768D01*
X100558379Y-120033716D01*
X100563324Y-120040161D01*
X100563325Y-120040162D01*
X100633238Y-120110075D01*
X100718862Y-120159510D01*
X100814365Y-120185100D01*
X100814367Y-120185100D01*
X100913232Y-120185100D01*
X100913235Y-120185100D01*
X101008738Y-120159510D01*
X101094362Y-120110075D01*
X101164275Y-120040162D01*
X101213710Y-119954538D01*
X101239300Y-119859035D01*
X101239300Y-119781103D01*
X101258985Y-119714064D01*
X101311789Y-119668309D01*
X101380947Y-119658365D01*
X101393116Y-119660861D01*
X101394163Y-119660999D01*
X101394165Y-119661000D01*
X101394167Y-119661000D01*
X101493032Y-119661000D01*
X101493035Y-119661000D01*
X101588538Y-119635410D01*
X101674162Y-119585975D01*
X101744075Y-119516062D01*
X101793510Y-119430438D01*
X101819100Y-119334935D01*
X101819100Y-119332399D01*
X102414500Y-119332399D01*
X102414500Y-119457601D01*
X102446905Y-119578536D01*
X102509505Y-119686964D01*
X102598036Y-119775495D01*
X102706464Y-119838095D01*
X102827399Y-119870500D01*
X102827401Y-119870500D01*
X102952599Y-119870500D01*
X102952601Y-119870500D01*
X103073536Y-119838095D01*
X103181964Y-119775495D01*
X103270495Y-119686964D01*
X103333095Y-119578536D01*
X103351708Y-119509071D01*
X103669499Y-119509071D01*
X103694497Y-119634738D01*
X103694499Y-119634744D01*
X103743533Y-119753124D01*
X103743538Y-119753133D01*
X103814723Y-119859668D01*
X103814726Y-119859672D01*
X103905327Y-119950273D01*
X103905331Y-119950276D01*
X104011866Y-120021461D01*
X104011875Y-120021466D01*
X104038692Y-120032574D01*
X104130256Y-120070501D01*
X104130260Y-120070501D01*
X104130261Y-120070502D01*
X104255928Y-120095500D01*
X104255931Y-120095500D01*
X104384071Y-120095500D01*
X104484467Y-120075529D01*
X104509744Y-120070501D01*
X104628127Y-120021465D01*
X104734669Y-119950276D01*
X104825276Y-119859669D01*
X104896465Y-119753127D01*
X104945501Y-119634744D01*
X104956682Y-119578536D01*
X104970500Y-119509071D01*
X104970500Y-119024865D01*
X109872700Y-119024865D01*
X109872700Y-119123735D01*
X109898290Y-119219238D01*
X109947725Y-119304862D01*
X110017638Y-119374775D01*
X110103262Y-119424210D01*
X110198765Y-119449800D01*
X110198767Y-119449800D01*
X110297632Y-119449800D01*
X110297635Y-119449800D01*
X110355239Y-119434365D01*
X112327300Y-119434365D01*
X112327300Y-119533235D01*
X112352890Y-119628738D01*
X112352891Y-119628739D01*
X112352891Y-119628740D01*
X112356741Y-119635408D01*
X112402325Y-119714362D01*
X112472238Y-119784275D01*
X112557862Y-119833710D01*
X112653365Y-119859300D01*
X112653367Y-119859300D01*
X112752232Y-119859300D01*
X112752235Y-119859300D01*
X112847738Y-119833710D01*
X112933362Y-119784275D01*
X113003275Y-119714362D01*
X113052710Y-119628738D01*
X113078300Y-119533235D01*
X113078300Y-119434365D01*
X113052710Y-119338862D01*
X113003275Y-119253238D01*
X112933362Y-119183325D01*
X112847738Y-119133890D01*
X112752235Y-119108300D01*
X112653365Y-119108300D01*
X112557862Y-119133890D01*
X112557860Y-119133891D01*
X112557859Y-119133891D01*
X112472236Y-119183326D01*
X112402326Y-119253236D01*
X112352891Y-119338859D01*
X112352891Y-119338860D01*
X112352890Y-119338862D01*
X112327300Y-119434365D01*
X110355239Y-119434365D01*
X110393138Y-119424210D01*
X110478762Y-119374775D01*
X110548675Y-119304862D01*
X110598110Y-119219238D01*
X110623700Y-119123735D01*
X110623700Y-119024865D01*
X110598110Y-118929362D01*
X110548675Y-118843738D01*
X110478762Y-118773825D01*
X110393138Y-118724390D01*
X110297635Y-118698800D01*
X110198765Y-118698800D01*
X110103262Y-118724390D01*
X110103260Y-118724391D01*
X110103259Y-118724391D01*
X110017636Y-118773826D01*
X109947726Y-118843736D01*
X109898291Y-118929359D01*
X109898291Y-118929360D01*
X109898290Y-118929362D01*
X109872700Y-119024865D01*
X104970500Y-119024865D01*
X104970500Y-118280928D01*
X104945502Y-118155261D01*
X104945501Y-118155260D01*
X104945501Y-118155256D01*
X104896465Y-118036873D01*
X104896464Y-118036872D01*
X104896461Y-118036866D01*
X104825276Y-117930331D01*
X104825273Y-117930327D01*
X104734672Y-117839726D01*
X104734668Y-117839723D01*
X104653877Y-117785740D01*
X104628133Y-117768538D01*
X104628124Y-117768533D01*
X104509744Y-117719499D01*
X104509738Y-117719497D01*
X104384071Y-117694500D01*
X104384069Y-117694500D01*
X104255931Y-117694500D01*
X104255929Y-117694500D01*
X104130261Y-117719497D01*
X104130255Y-117719499D01*
X104011875Y-117768533D01*
X104011866Y-117768538D01*
X103905331Y-117839723D01*
X103905327Y-117839726D01*
X103814726Y-117930327D01*
X103814723Y-117930331D01*
X103743538Y-118036866D01*
X103743533Y-118036875D01*
X103694499Y-118155255D01*
X103694497Y-118155261D01*
X103669500Y-118280928D01*
X103669500Y-118280931D01*
X103669500Y-119509069D01*
X103669500Y-119509071D01*
X103669499Y-119509071D01*
X103351708Y-119509071D01*
X103365500Y-119457601D01*
X103365500Y-119332399D01*
X103333095Y-119211464D01*
X103270495Y-119103036D01*
X103181964Y-119014505D01*
X103073536Y-118951905D01*
X103073537Y-118951905D01*
X103012652Y-118935591D01*
X102952601Y-118919500D01*
X102827399Y-118919500D01*
X102767348Y-118935591D01*
X102706463Y-118951905D01*
X102598037Y-119014504D01*
X102598034Y-119014506D01*
X102509506Y-119103034D01*
X102509504Y-119103037D01*
X102446905Y-119211463D01*
X102435712Y-119253236D01*
X102414500Y-119332399D01*
X101819100Y-119332399D01*
X101819100Y-119236065D01*
X101793510Y-119140562D01*
X101744075Y-119054938D01*
X101674162Y-118985025D01*
X101588538Y-118935590D01*
X101493035Y-118910000D01*
X101394165Y-118910000D01*
X101298662Y-118935590D01*
X101298660Y-118935591D01*
X101298659Y-118935591D01*
X101213036Y-118985026D01*
X101143126Y-119054936D01*
X101093691Y-119140559D01*
X101093691Y-119140560D01*
X101093690Y-119140562D01*
X101068100Y-119236065D01*
X101068100Y-119236067D01*
X101068100Y-119313996D01*
X101048415Y-119381035D01*
X100995611Y-119426790D01*
X100926453Y-119436734D01*
X100914291Y-119434239D01*
X100913236Y-119434100D01*
X100913235Y-119434100D01*
X100814365Y-119434100D01*
X100718862Y-119459690D01*
X100718860Y-119459691D01*
X100718859Y-119459691D01*
X100717379Y-119460546D01*
X100715973Y-119460886D01*
X100711352Y-119462801D01*
X100711053Y-119462079D01*
X100649477Y-119477012D01*
X100583452Y-119454154D01*
X100556793Y-119424830D01*
X100555421Y-119425884D01*
X100550475Y-119419438D01*
X100480563Y-119349526D01*
X100480562Y-119349525D01*
X100394938Y-119300090D01*
X100299435Y-119274500D01*
X100200565Y-119274500D01*
X100105062Y-119300090D01*
X100105060Y-119300091D01*
X100105059Y-119300091D01*
X100019436Y-119349526D01*
X99949526Y-119419436D01*
X99900091Y-119505059D01*
X99900091Y-119505060D01*
X99900090Y-119505062D01*
X99874500Y-119600565D01*
X97540377Y-119600565D01*
X97553095Y-119578536D01*
X97585500Y-119457601D01*
X97585500Y-119332399D01*
X97553095Y-119211464D01*
X97490495Y-119103036D01*
X97401964Y-119014505D01*
X97293536Y-118951905D01*
X97293537Y-118951905D01*
X97232652Y-118935591D01*
X97172601Y-118919500D01*
X97047399Y-118919500D01*
X96987348Y-118935591D01*
X96926463Y-118951905D01*
X96818037Y-119014504D01*
X96818034Y-119014506D01*
X96729506Y-119103034D01*
X96729504Y-119103037D01*
X96666905Y-119211463D01*
X96655712Y-119253236D01*
X96634500Y-119332399D01*
X96330500Y-119332399D01*
X96330500Y-118280928D01*
X96305502Y-118155261D01*
X96305501Y-118155260D01*
X96305501Y-118155256D01*
X96256465Y-118036873D01*
X96256464Y-118036872D01*
X96256461Y-118036866D01*
X96185276Y-117930331D01*
X96185273Y-117930327D01*
X96094672Y-117839726D01*
X96094668Y-117839723D01*
X95988133Y-117768538D01*
X95988124Y-117768533D01*
X95869744Y-117719499D01*
X95869738Y-117719497D01*
X95744071Y-117694500D01*
X95744069Y-117694500D01*
X95615931Y-117694500D01*
X95615929Y-117694500D01*
X95490261Y-117719497D01*
X95490255Y-117719499D01*
X95371875Y-117768533D01*
X95371866Y-117768538D01*
X95265331Y-117839723D01*
X95265327Y-117839726D01*
X95174726Y-117930327D01*
X95174723Y-117930331D01*
X95103538Y-118036866D01*
X95103533Y-118036875D01*
X95054499Y-118155255D01*
X95054497Y-118155261D01*
X95029500Y-118280928D01*
X95029500Y-118280931D01*
X95029500Y-119509069D01*
X95029500Y-119509071D01*
X95029499Y-119509071D01*
X83792475Y-119509071D01*
X83645413Y-118554825D01*
X83643755Y-118544065D01*
X85593000Y-118544065D01*
X85593000Y-118642935D01*
X85618590Y-118738438D01*
X85668025Y-118824062D01*
X85737938Y-118893975D01*
X85823562Y-118943410D01*
X85919065Y-118969000D01*
X85919067Y-118969000D01*
X86017932Y-118969000D01*
X86017935Y-118969000D01*
X86113438Y-118943410D01*
X86199062Y-118893975D01*
X86268975Y-118824062D01*
X86318410Y-118738438D01*
X86344000Y-118642935D01*
X86344000Y-118544065D01*
X86318410Y-118448562D01*
X86268975Y-118362938D01*
X86199062Y-118293025D01*
X86113438Y-118243590D01*
X86017935Y-118218000D01*
X85919065Y-118218000D01*
X85823562Y-118243590D01*
X85823560Y-118243591D01*
X85823559Y-118243591D01*
X85737936Y-118293026D01*
X85668026Y-118362936D01*
X85618591Y-118448559D01*
X85618591Y-118448560D01*
X85618590Y-118448562D01*
X85593000Y-118544065D01*
X83643755Y-118544065D01*
X83593932Y-118220785D01*
X83593932Y-118220783D01*
X83283302Y-117690765D01*
X109982800Y-117690765D01*
X109982800Y-117789635D01*
X110008390Y-117885138D01*
X110057825Y-117970762D01*
X110127738Y-118040675D01*
X110213362Y-118090110D01*
X110308865Y-118115700D01*
X110308867Y-118115700D01*
X110407732Y-118115700D01*
X110407735Y-118115700D01*
X110503238Y-118090110D01*
X110588862Y-118040675D01*
X110658775Y-117970762D01*
X110708210Y-117885138D01*
X110721883Y-117834108D01*
X113299500Y-117834108D01*
X113299500Y-117965891D01*
X113333608Y-118093187D01*
X113346606Y-118115700D01*
X113399500Y-118207314D01*
X113492686Y-118300500D01*
X113559467Y-118339056D01*
X113600831Y-118362938D01*
X113606814Y-118366392D01*
X113734108Y-118400500D01*
X113734110Y-118400500D01*
X113865890Y-118400500D01*
X113865892Y-118400500D01*
X113993186Y-118366392D01*
X114107314Y-118300500D01*
X114200500Y-118207314D01*
X114266392Y-118093186D01*
X114300500Y-117965892D01*
X114300500Y-117834108D01*
X114267796Y-117712054D01*
X114269459Y-117642208D01*
X114308621Y-117584345D01*
X114372850Y-117556841D01*
X114419662Y-117560188D01*
X114462997Y-117571800D01*
X114462999Y-117571800D01*
X114556601Y-117571800D01*
X114556603Y-117571800D01*
X114647018Y-117547574D01*
X114728082Y-117500771D01*
X114794271Y-117434582D01*
X114841074Y-117353518D01*
X114865300Y-117263103D01*
X114865300Y-117169497D01*
X114841074Y-117079082D01*
X114838991Y-117075475D01*
X114834802Y-117068218D01*
X114794271Y-116998018D01*
X114728082Y-116931829D01*
X114687550Y-116908427D01*
X114647019Y-116885026D01*
X114563869Y-116862747D01*
X114556603Y-116860800D01*
X114462997Y-116860800D01*
X114372580Y-116885026D01*
X114291518Y-116931829D01*
X114291515Y-116931831D01*
X114225331Y-116998015D01*
X114225329Y-116998018D01*
X114178526Y-117079080D01*
X114159390Y-117150500D01*
X114154300Y-117169497D01*
X114154300Y-117263103D01*
X114160726Y-117287085D01*
X114159061Y-117356935D01*
X114119897Y-117414797D01*
X114055668Y-117442299D01*
X114001278Y-117434809D01*
X114001037Y-117435712D01*
X113993850Y-117433786D01*
X113993499Y-117433738D01*
X113993188Y-117433609D01*
X113993186Y-117433608D01*
X113865892Y-117399500D01*
X113734108Y-117399500D01*
X113606812Y-117433608D01*
X113492686Y-117499500D01*
X113492683Y-117499502D01*
X113399502Y-117592683D01*
X113399500Y-117592686D01*
X113333608Y-117706812D01*
X113299500Y-117834108D01*
X110721883Y-117834108D01*
X110733800Y-117789635D01*
X110733800Y-117690765D01*
X110708210Y-117595262D01*
X110658775Y-117509638D01*
X110588862Y-117439725D01*
X110503238Y-117390290D01*
X110407735Y-117364700D01*
X110308865Y-117364700D01*
X110213362Y-117390290D01*
X110213360Y-117390291D01*
X110213359Y-117390291D01*
X110127736Y-117439726D01*
X110057826Y-117509636D01*
X110008391Y-117595259D01*
X110008391Y-117595260D01*
X110008390Y-117595262D01*
X109982800Y-117690765D01*
X83283302Y-117690765D01*
X82923371Y-117076628D01*
X82324364Y-116725565D01*
X86158800Y-116725565D01*
X86158800Y-116824435D01*
X86184390Y-116919938D01*
X86233825Y-117005562D01*
X86303738Y-117075475D01*
X86389362Y-117124910D01*
X86484865Y-117150500D01*
X86484867Y-117150500D01*
X86583732Y-117150500D01*
X86583735Y-117150500D01*
X86679238Y-117124910D01*
X86764862Y-117075475D01*
X86834775Y-117005562D01*
X86884210Y-116919938D01*
X86909800Y-116824435D01*
X86909800Y-116725565D01*
X86884210Y-116630062D01*
X86834775Y-116544438D01*
X86764862Y-116474525D01*
X86679238Y-116425090D01*
X86583735Y-116399500D01*
X86484865Y-116399500D01*
X86389362Y-116425090D01*
X86389360Y-116425091D01*
X86389359Y-116425091D01*
X86303736Y-116474526D01*
X86233826Y-116544436D01*
X86184391Y-116630059D01*
X86184391Y-116630060D01*
X86184390Y-116630062D01*
X86158800Y-116725565D01*
X82324364Y-116725565D01*
X81779216Y-116406067D01*
X81779214Y-116406066D01*
X81779213Y-116406066D01*
X80770215Y-116250565D01*
X106992300Y-116250565D01*
X106992300Y-116349435D01*
X107017890Y-116444938D01*
X107067325Y-116530562D01*
X107137238Y-116600475D01*
X107222862Y-116649910D01*
X107318365Y-116675500D01*
X107318367Y-116675500D01*
X107417232Y-116675500D01*
X107417235Y-116675500D01*
X107512738Y-116649910D01*
X107598362Y-116600475D01*
X107668275Y-116530562D01*
X107712867Y-116453325D01*
X107763431Y-116405113D01*
X107832038Y-116391889D01*
X107896903Y-116417857D01*
X107927636Y-116453324D01*
X107939725Y-116474262D01*
X107939726Y-116474263D01*
X107939727Y-116474264D01*
X107962119Y-116496656D01*
X107995604Y-116557979D01*
X107990620Y-116627671D01*
X107957945Y-116671884D01*
X107959834Y-116673773D01*
X107879521Y-116754085D01*
X107826794Y-116845410D01*
X107826793Y-116845413D01*
X107799500Y-116947273D01*
X107799500Y-117052727D01*
X107826793Y-117154587D01*
X107879520Y-117245913D01*
X107954087Y-117320480D01*
X108045413Y-117373207D01*
X108147273Y-117400500D01*
X108147275Y-117400500D01*
X108252725Y-117400500D01*
X108252727Y-117400500D01*
X108354587Y-117373207D01*
X108445913Y-117320480D01*
X108520480Y-117245913D01*
X108573207Y-117154587D01*
X108600500Y-117052727D01*
X108600500Y-116947273D01*
X108573207Y-116845413D01*
X108565327Y-116831765D01*
X108918300Y-116831765D01*
X108918300Y-116930635D01*
X108943890Y-117026138D01*
X108993325Y-117111762D01*
X109063238Y-117181675D01*
X109148862Y-117231110D01*
X109244365Y-117256700D01*
X109244367Y-117256700D01*
X109343232Y-117256700D01*
X109343235Y-117256700D01*
X109438738Y-117231110D01*
X109524362Y-117181675D01*
X109594275Y-117111762D01*
X109643710Y-117026138D01*
X109669300Y-116930635D01*
X109669300Y-116831765D01*
X109643710Y-116736262D01*
X109594275Y-116650638D01*
X109524362Y-116580725D01*
X109438738Y-116531290D01*
X109343235Y-116505700D01*
X109244365Y-116505700D01*
X109148862Y-116531290D01*
X109148860Y-116531291D01*
X109148859Y-116531291D01*
X109063236Y-116580726D01*
X108993326Y-116650636D01*
X108943891Y-116736259D01*
X108943891Y-116736260D01*
X108943890Y-116736262D01*
X108918300Y-116831765D01*
X108565327Y-116831765D01*
X108520480Y-116754087D01*
X108478346Y-116711953D01*
X108444861Y-116650630D01*
X108449845Y-116580938D01*
X108478346Y-116536591D01*
X108509237Y-116505700D01*
X108540675Y-116474262D01*
X108590110Y-116388638D01*
X108615700Y-116293135D01*
X108615700Y-116194265D01*
X108590110Y-116098762D01*
X108540675Y-116013138D01*
X108533537Y-116006000D01*
X108500052Y-115944677D01*
X108505036Y-115874985D01*
X108517040Y-115853311D01*
X108516416Y-115852951D01*
X108520478Y-115845914D01*
X108520480Y-115845913D01*
X108573207Y-115754587D01*
X108600500Y-115652727D01*
X108600500Y-115547273D01*
X108573207Y-115445413D01*
X108573203Y-115445406D01*
X108570096Y-115437903D01*
X108572501Y-115436906D01*
X108559070Y-115381577D01*
X108581387Y-115317065D01*
X111280900Y-115317065D01*
X111280900Y-115415935D01*
X111306490Y-115511438D01*
X111355925Y-115597062D01*
X111425838Y-115666975D01*
X111511462Y-115716410D01*
X111606965Y-115742000D01*
X111606967Y-115742000D01*
X111705832Y-115742000D01*
X111705835Y-115742000D01*
X111801338Y-115716410D01*
X111886962Y-115666975D01*
X111956875Y-115597062D01*
X112006310Y-115511438D01*
X112031900Y-115415935D01*
X112031900Y-115317065D01*
X112006310Y-115221562D01*
X111956875Y-115135938D01*
X111886962Y-115066025D01*
X111801340Y-115016591D01*
X111801339Y-115016590D01*
X111787182Y-115012797D01*
X111759622Y-115005412D01*
X111735963Y-114999072D01*
X111705835Y-114991000D01*
X111606965Y-114991000D01*
X111511462Y-115016590D01*
X111511460Y-115016591D01*
X111511459Y-115016591D01*
X111425836Y-115066026D01*
X111355926Y-115135936D01*
X111306491Y-115221559D01*
X111306491Y-115221560D01*
X111306490Y-115221562D01*
X111280900Y-115317065D01*
X108581387Y-115317065D01*
X108581912Y-115315547D01*
X108636827Y-115272349D01*
X108706380Y-115265698D01*
X108714998Y-115267679D01*
X108805765Y-115292000D01*
X108805768Y-115292000D01*
X108904632Y-115292000D01*
X108904635Y-115292000D01*
X109000138Y-115266410D01*
X109085762Y-115216975D01*
X109155675Y-115147062D01*
X109205110Y-115061438D01*
X109230700Y-114965935D01*
X109230700Y-114893765D01*
X112519300Y-114893765D01*
X112519300Y-114992635D01*
X112544890Y-115088138D01*
X112583255Y-115154589D01*
X112594326Y-115173763D01*
X112646969Y-115226406D01*
X112680454Y-115287729D01*
X112675470Y-115357421D01*
X112666675Y-115376087D01*
X112615191Y-115465259D01*
X112615191Y-115465260D01*
X112615190Y-115465262D01*
X112589600Y-115560765D01*
X112589600Y-115659635D01*
X112615190Y-115755138D01*
X112615191Y-115755139D01*
X112615191Y-115755140D01*
X112618086Y-115760154D01*
X112664625Y-115840762D01*
X112734538Y-115910675D01*
X112820162Y-115960110D01*
X112915665Y-115985700D01*
X112915667Y-115985700D01*
X113014532Y-115985700D01*
X113014535Y-115985700D01*
X113110038Y-115960110D01*
X113113499Y-115958111D01*
X113116788Y-115957313D01*
X113117548Y-115956999D01*
X113117597Y-115957117D01*
X113181398Y-115941638D01*
X113247425Y-115964489D01*
X113290617Y-116019410D01*
X113299500Y-116065498D01*
X113299500Y-116165892D01*
X113307103Y-116194267D01*
X113333608Y-116293187D01*
X113366082Y-116349432D01*
X113399500Y-116407314D01*
X113492686Y-116500500D01*
X113606814Y-116566392D01*
X113734108Y-116600500D01*
X113734110Y-116600500D01*
X113865890Y-116600500D01*
X113865892Y-116600500D01*
X113993186Y-116566392D01*
X114107314Y-116500500D01*
X114200500Y-116407314D01*
X114266392Y-116293186D01*
X114300500Y-116165892D01*
X114300500Y-116034108D01*
X114266392Y-115906814D01*
X114200500Y-115792686D01*
X114107314Y-115699500D01*
X114038261Y-115659632D01*
X113993187Y-115633608D01*
X113929539Y-115616554D01*
X113865892Y-115599500D01*
X113734108Y-115599500D01*
X113606814Y-115633608D01*
X113606813Y-115633608D01*
X113606811Y-115633609D01*
X113606810Y-115633609D01*
X113526600Y-115679919D01*
X113458700Y-115696392D01*
X113392673Y-115673539D01*
X113349482Y-115618618D01*
X113340600Y-115572532D01*
X113340600Y-115560767D01*
X113340600Y-115560765D01*
X113315010Y-115465262D01*
X113265575Y-115379638D01*
X113212930Y-115326993D01*
X113179445Y-115265670D01*
X113184429Y-115195978D01*
X113193225Y-115177311D01*
X113195272Y-115173764D01*
X113195275Y-115173762D01*
X113244710Y-115088138D01*
X113270300Y-114992635D01*
X113270300Y-114947273D01*
X116799500Y-114947273D01*
X116799500Y-115052727D01*
X116826793Y-115154587D01*
X116879520Y-115245913D01*
X116954087Y-115320480D01*
X117045413Y-115373207D01*
X117147273Y-115400500D01*
X117147275Y-115400500D01*
X117252725Y-115400500D01*
X117252727Y-115400500D01*
X117354587Y-115373207D01*
X117445913Y-115320480D01*
X117520480Y-115245913D01*
X117573207Y-115154587D01*
X117600500Y-115052727D01*
X117600500Y-114947273D01*
X119099500Y-114947273D01*
X119099500Y-115052727D01*
X119126793Y-115154587D01*
X119179520Y-115245913D01*
X119254087Y-115320480D01*
X119345413Y-115373207D01*
X119447273Y-115400500D01*
X119447275Y-115400500D01*
X119552725Y-115400500D01*
X119552727Y-115400500D01*
X119654587Y-115373207D01*
X119745913Y-115320480D01*
X119820480Y-115245913D01*
X119873207Y-115154587D01*
X119900500Y-115052727D01*
X119900500Y-114947273D01*
X119873207Y-114845413D01*
X119820480Y-114754087D01*
X119745913Y-114679520D01*
X119654587Y-114626793D01*
X119552727Y-114599500D01*
X119447273Y-114599500D01*
X119345413Y-114626793D01*
X119345410Y-114626794D01*
X119254085Y-114679521D01*
X119179521Y-114754085D01*
X119126794Y-114845410D01*
X119126793Y-114845413D01*
X119099500Y-114947273D01*
X117600500Y-114947273D01*
X117573207Y-114845413D01*
X117520480Y-114754087D01*
X117445913Y-114679520D01*
X117354587Y-114626793D01*
X117252727Y-114599500D01*
X117147273Y-114599500D01*
X117045413Y-114626793D01*
X117045410Y-114626794D01*
X116954085Y-114679521D01*
X116879521Y-114754085D01*
X116826794Y-114845410D01*
X116826793Y-114845413D01*
X116799500Y-114947273D01*
X113270300Y-114947273D01*
X113270300Y-114893765D01*
X113244710Y-114798262D01*
X113195275Y-114712638D01*
X113125362Y-114642725D01*
X113039738Y-114593290D01*
X112944235Y-114567700D01*
X112845365Y-114567700D01*
X112749862Y-114593290D01*
X112749860Y-114593291D01*
X112749859Y-114593291D01*
X112664236Y-114642726D01*
X112594326Y-114712636D01*
X112544891Y-114798259D01*
X112544891Y-114798260D01*
X112544890Y-114798262D01*
X112519300Y-114893765D01*
X109230700Y-114893765D01*
X109230700Y-114867065D01*
X109205110Y-114771562D01*
X109155675Y-114685938D01*
X109085762Y-114616025D01*
X109000138Y-114566590D01*
X108904635Y-114541000D01*
X108805765Y-114541000D01*
X108710262Y-114566590D01*
X108710260Y-114566591D01*
X108710259Y-114566591D01*
X108624636Y-114616026D01*
X108554726Y-114685936D01*
X108505291Y-114771559D01*
X108505291Y-114771560D01*
X108505290Y-114771562D01*
X108479700Y-114867065D01*
X108479700Y-114965935D01*
X108505290Y-115061438D01*
X108505291Y-115061439D01*
X108507394Y-115069288D01*
X108505905Y-115069686D01*
X108512392Y-115130019D01*
X108481118Y-115192499D01*
X108421029Y-115228152D01*
X108358270Y-115227779D01*
X108252728Y-115199500D01*
X108252727Y-115199500D01*
X108147273Y-115199500D01*
X108045413Y-115226793D01*
X108045410Y-115226794D01*
X107954085Y-115279521D01*
X107879521Y-115354085D01*
X107826794Y-115445410D01*
X107826793Y-115445413D01*
X107799500Y-115547273D01*
X107799500Y-115652727D01*
X107825716Y-115750565D01*
X107826793Y-115754586D01*
X107826794Y-115754589D01*
X107828743Y-115757964D01*
X107873939Y-115836247D01*
X107879521Y-115845914D01*
X107911616Y-115878009D01*
X107945101Y-115939332D01*
X107940117Y-116009024D01*
X107931323Y-116027689D01*
X107895135Y-116090370D01*
X107844568Y-116138586D01*
X107775961Y-116151810D01*
X107711096Y-116125842D01*
X107680361Y-116090373D01*
X107668275Y-116069438D01*
X107598362Y-115999525D01*
X107512738Y-115950090D01*
X107417235Y-115924500D01*
X107318365Y-115924500D01*
X107222862Y-115950090D01*
X107222860Y-115950091D01*
X107222859Y-115950091D01*
X107137236Y-115999526D01*
X107067326Y-116069436D01*
X107017891Y-116155059D01*
X107017891Y-116155060D01*
X107017890Y-116155062D01*
X106992300Y-116250565D01*
X80770215Y-116250565D01*
X80115396Y-116149648D01*
X80052137Y-116119982D01*
X80035907Y-116102581D01*
X79817482Y-115817924D01*
X79765796Y-115750565D01*
X103124500Y-115750565D01*
X103124500Y-115849435D01*
X103150090Y-115944938D01*
X103150091Y-115944939D01*
X103150091Y-115944940D01*
X103161378Y-115964489D01*
X103199525Y-116030562D01*
X103269438Y-116100475D01*
X103355062Y-116149910D01*
X103450565Y-116175500D01*
X103450567Y-116175500D01*
X103549432Y-116175500D01*
X103549435Y-116175500D01*
X103644938Y-116149910D01*
X103730562Y-116100475D01*
X103800475Y-116030562D01*
X103849910Y-115944938D01*
X103875500Y-115849435D01*
X103875500Y-115750565D01*
X103849910Y-115655062D01*
X103800475Y-115569438D01*
X103730562Y-115499525D01*
X103644938Y-115450090D01*
X103549435Y-115424500D01*
X103450565Y-115424500D01*
X103355062Y-115450090D01*
X103355060Y-115450091D01*
X103355059Y-115450091D01*
X103269436Y-115499526D01*
X103199526Y-115569436D01*
X103150091Y-115655059D01*
X103150091Y-115655060D01*
X103150090Y-115655062D01*
X103124500Y-115750565D01*
X79765796Y-115750565D01*
X79340246Y-115195978D01*
X79250689Y-115079264D01*
X79246876Y-115074017D01*
X79243899Y-115069686D01*
X78895433Y-114562665D01*
X84930600Y-114562665D01*
X84930600Y-114661535D01*
X84956190Y-114757038D01*
X84956191Y-114757039D01*
X84956191Y-114757040D01*
X84963287Y-114769331D01*
X85005625Y-114842662D01*
X85075538Y-114912575D01*
X85161162Y-114962010D01*
X85256665Y-114987600D01*
X85256667Y-114987600D01*
X85355532Y-114987600D01*
X85355535Y-114987600D01*
X85451038Y-114962010D01*
X85536662Y-114912575D01*
X85606575Y-114842662D01*
X85656010Y-114757038D01*
X85681600Y-114661535D01*
X85681600Y-114562665D01*
X85656010Y-114467162D01*
X85606575Y-114381538D01*
X85536662Y-114311625D01*
X85451038Y-114262190D01*
X85355535Y-114236600D01*
X85256665Y-114236600D01*
X85161162Y-114262190D01*
X85161160Y-114262191D01*
X85161159Y-114262191D01*
X85075536Y-114311626D01*
X85005626Y-114381536D01*
X84956191Y-114467159D01*
X84956191Y-114467160D01*
X84956190Y-114467162D01*
X84930600Y-114562665D01*
X78895433Y-114562665D01*
X78489933Y-113972659D01*
X78486399Y-113967217D01*
X78431420Y-113877500D01*
X78354860Y-113752565D01*
X101814100Y-113752565D01*
X101814100Y-113851435D01*
X101839690Y-113946938D01*
X101889125Y-114032562D01*
X101959038Y-114102475D01*
X102044662Y-114151910D01*
X102140165Y-114177500D01*
X102140167Y-114177500D01*
X102239032Y-114177500D01*
X102239035Y-114177500D01*
X102334538Y-114151910D01*
X102420162Y-114102475D01*
X102490075Y-114032562D01*
X102539510Y-113946938D01*
X102565100Y-113851435D01*
X102565100Y-113752565D01*
X102539510Y-113657062D01*
X102490075Y-113571438D01*
X102420162Y-113501525D01*
X102334538Y-113452090D01*
X102239035Y-113426500D01*
X102140165Y-113426500D01*
X102044662Y-113452090D01*
X102044660Y-113452091D01*
X102044659Y-113452091D01*
X101959036Y-113501526D01*
X101889126Y-113571436D01*
X101839691Y-113657059D01*
X101839691Y-113657060D01*
X101839690Y-113657062D01*
X101814100Y-113752565D01*
X78354860Y-113752565D01*
X77818966Y-112878065D01*
X86695400Y-112878065D01*
X86695400Y-112976935D01*
X86720990Y-113072438D01*
X86720991Y-113072439D01*
X86720991Y-113072440D01*
X86727784Y-113084206D01*
X86770425Y-113158062D01*
X86840338Y-113227975D01*
X86925962Y-113277410D01*
X87021465Y-113303000D01*
X87021467Y-113303000D01*
X87120332Y-113303000D01*
X87120335Y-113303000D01*
X87215838Y-113277410D01*
X87301462Y-113227975D01*
X87319472Y-113209965D01*
X105665900Y-113209965D01*
X105665900Y-113308835D01*
X105691490Y-113404338D01*
X105740925Y-113489962D01*
X105810838Y-113559875D01*
X105896462Y-113609310D01*
X105991965Y-113634900D01*
X105991967Y-113634900D01*
X106090832Y-113634900D01*
X106090835Y-113634900D01*
X106186338Y-113609310D01*
X106271962Y-113559875D01*
X106341875Y-113489962D01*
X106391310Y-113404338D01*
X106393203Y-113397273D01*
X108099500Y-113397273D01*
X108099500Y-113502727D01*
X108126793Y-113604587D01*
X108179520Y-113695913D01*
X108254087Y-113770480D01*
X108345413Y-113823207D01*
X108447273Y-113850500D01*
X108447275Y-113850500D01*
X108552725Y-113850500D01*
X108552727Y-113850500D01*
X108654587Y-113823207D01*
X108745913Y-113770480D01*
X108820480Y-113695913D01*
X108873207Y-113604587D01*
X108900500Y-113502727D01*
X108900500Y-113397273D01*
X108873207Y-113295413D01*
X108820480Y-113204087D01*
X108767758Y-113151365D01*
X110855200Y-113151365D01*
X110855200Y-113250235D01*
X110880790Y-113345738D01*
X110880791Y-113345739D01*
X110880791Y-113345740D01*
X110887322Y-113357052D01*
X110930225Y-113431362D01*
X111000138Y-113501275D01*
X111085762Y-113550710D01*
X111181265Y-113576300D01*
X111181267Y-113576300D01*
X111280132Y-113576300D01*
X111280135Y-113576300D01*
X111375638Y-113550710D01*
X111461262Y-113501275D01*
X111531175Y-113431362D01*
X111531175Y-113431361D01*
X111536922Y-113425615D01*
X111539115Y-113427808D01*
X111583668Y-113395260D01*
X111653413Y-113391090D01*
X111714341Y-113425288D01*
X111747109Y-113486998D01*
X111748582Y-113495753D01*
X111749500Y-113502725D01*
X111749500Y-113502727D01*
X111776793Y-113604587D01*
X111807089Y-113657062D01*
X111829521Y-113695914D01*
X111909834Y-113776227D01*
X111908341Y-113777719D01*
X111942944Y-113825099D01*
X111947106Y-113894844D01*
X111912899Y-113955768D01*
X111851185Y-113988527D01*
X111803741Y-113987118D01*
X111803591Y-113988261D01*
X111795536Y-113987200D01*
X111795535Y-113987200D01*
X111696665Y-113987200D01*
X111601162Y-114012790D01*
X111601160Y-114012791D01*
X111601159Y-114012791D01*
X111515536Y-114062226D01*
X111445626Y-114132136D01*
X111396191Y-114217759D01*
X111396191Y-114217760D01*
X111396190Y-114217762D01*
X111370600Y-114313265D01*
X111370600Y-114412135D01*
X111396190Y-114507638D01*
X111445625Y-114593262D01*
X111515538Y-114663175D01*
X111601162Y-114712610D01*
X111696665Y-114738200D01*
X111696667Y-114738200D01*
X111795532Y-114738200D01*
X111795535Y-114738200D01*
X111891038Y-114712610D01*
X111976662Y-114663175D01*
X112046575Y-114593262D01*
X112096010Y-114507638D01*
X112121600Y-114412135D01*
X112121600Y-114313265D01*
X112096010Y-114217762D01*
X112046575Y-114132138D01*
X111976662Y-114062225D01*
X111970915Y-114056478D01*
X111973295Y-114054097D01*
X111941307Y-114010233D01*
X111937195Y-113940485D01*
X111971444Y-113879585D01*
X112033181Y-113846870D01*
X112090114Y-113848581D01*
X112097273Y-113850500D01*
X112097277Y-113850500D01*
X112202725Y-113850500D01*
X112202727Y-113850500D01*
X112304587Y-113823207D01*
X112395913Y-113770480D01*
X112470480Y-113695913D01*
X112523207Y-113604587D01*
X112550500Y-113502727D01*
X112550500Y-113452565D01*
X113097100Y-113452565D01*
X113097100Y-113551435D01*
X113122690Y-113646938D01*
X113172125Y-113732562D01*
X113242038Y-113802475D01*
X113327662Y-113851910D01*
X113423165Y-113877500D01*
X113423167Y-113877500D01*
X113522032Y-113877500D01*
X113522035Y-113877500D01*
X113617538Y-113851910D01*
X113703162Y-113802475D01*
X113773075Y-113732562D01*
X113822510Y-113646938D01*
X113848100Y-113551435D01*
X113848100Y-113452565D01*
X113822510Y-113357062D01*
X113773075Y-113271438D01*
X113703162Y-113201525D01*
X113617538Y-113152090D01*
X113522035Y-113126500D01*
X113423165Y-113126500D01*
X113327662Y-113152090D01*
X113327660Y-113152091D01*
X113327659Y-113152091D01*
X113242036Y-113201526D01*
X113172126Y-113271436D01*
X113122691Y-113357059D01*
X113122691Y-113357060D01*
X113122690Y-113357062D01*
X113097100Y-113452565D01*
X112550500Y-113452565D01*
X112550500Y-113397273D01*
X112523207Y-113295413D01*
X112470480Y-113204087D01*
X112395913Y-113129520D01*
X112304587Y-113076793D01*
X112202727Y-113049500D01*
X112097273Y-113049500D01*
X111995413Y-113076793D01*
X111995410Y-113076794D01*
X111904085Y-113129521D01*
X111829521Y-113204085D01*
X111827067Y-113207284D01*
X111824310Y-113209296D01*
X111823773Y-113209834D01*
X111823689Y-113209750D01*
X111770638Y-113248485D01*
X111700892Y-113252638D01*
X111639972Y-113218424D01*
X111608521Y-113159157D01*
X111608303Y-113159216D01*
X111608048Y-113158264D01*
X111607221Y-113156706D01*
X111606531Y-113152603D01*
X111606200Y-113151367D01*
X111606200Y-113151365D01*
X111580610Y-113055862D01*
X111531175Y-112970238D01*
X111494634Y-112933697D01*
X116975000Y-112933697D01*
X116975000Y-113027303D01*
X116980948Y-113049500D01*
X116999226Y-113117719D01*
X117019367Y-113152603D01*
X117046029Y-113198782D01*
X117112218Y-113264971D01*
X117178085Y-113303000D01*
X117188191Y-113308835D01*
X117193282Y-113311774D01*
X117283697Y-113336000D01*
X117283699Y-113336000D01*
X117377301Y-113336000D01*
X117377303Y-113336000D01*
X117467718Y-113311774D01*
X117548782Y-113264971D01*
X117614971Y-113198782D01*
X117661774Y-113117718D01*
X117686000Y-113027303D01*
X117686000Y-112933697D01*
X117661774Y-112843282D01*
X117614971Y-112762218D01*
X117548782Y-112696029D01*
X117508250Y-112672627D01*
X117467719Y-112649226D01*
X117422510Y-112637113D01*
X117377303Y-112625000D01*
X117283697Y-112625000D01*
X117193280Y-112649226D01*
X117112218Y-112696029D01*
X117112215Y-112696031D01*
X117046031Y-112762215D01*
X117046029Y-112762218D01*
X116999226Y-112843280D01*
X116981486Y-112909490D01*
X116975000Y-112933697D01*
X111494634Y-112933697D01*
X111461262Y-112900325D01*
X111375638Y-112850890D01*
X111280135Y-112825300D01*
X111181265Y-112825300D01*
X111085762Y-112850890D01*
X111085760Y-112850891D01*
X111085759Y-112850891D01*
X111000136Y-112900326D01*
X110930226Y-112970236D01*
X110880791Y-113055859D01*
X110880791Y-113055860D01*
X110880790Y-113055862D01*
X110855200Y-113151365D01*
X108767758Y-113151365D01*
X108745913Y-113129520D01*
X108654587Y-113076793D01*
X108552727Y-113049500D01*
X108447273Y-113049500D01*
X108345413Y-113076793D01*
X108345410Y-113076794D01*
X108254085Y-113129521D01*
X108179521Y-113204085D01*
X108126794Y-113295410D01*
X108126793Y-113295413D01*
X108099500Y-113397273D01*
X106393203Y-113397273D01*
X106416900Y-113308835D01*
X106416900Y-113209965D01*
X106391310Y-113114462D01*
X106341875Y-113028838D01*
X106271962Y-112958925D01*
X106186338Y-112909490D01*
X106090835Y-112883900D01*
X105991965Y-112883900D01*
X105896462Y-112909490D01*
X105896460Y-112909491D01*
X105896459Y-112909491D01*
X105810836Y-112958926D01*
X105740926Y-113028836D01*
X105691491Y-113114459D01*
X105691491Y-113114460D01*
X105691490Y-113114462D01*
X105665900Y-113209965D01*
X87319472Y-113209965D01*
X87371375Y-113158062D01*
X87420810Y-113072438D01*
X87446400Y-112976935D01*
X87446400Y-112878065D01*
X87420810Y-112782562D01*
X87371375Y-112696938D01*
X87301462Y-112627025D01*
X87215838Y-112577590D01*
X87120335Y-112552000D01*
X87021465Y-112552000D01*
X86925962Y-112577590D01*
X86925960Y-112577591D01*
X86925959Y-112577591D01*
X86840336Y-112627026D01*
X86770426Y-112696936D01*
X86720991Y-112782559D01*
X86720991Y-112782560D01*
X86720990Y-112782562D01*
X86695400Y-112878065D01*
X77818966Y-112878065D01*
X77788137Y-112827757D01*
X77784899Y-112822148D01*
X77752358Y-112762215D01*
X77447172Y-112200132D01*
X77421205Y-112152306D01*
X77393492Y-112101265D01*
X80016600Y-112101265D01*
X80016600Y-112200135D01*
X80042190Y-112295638D01*
X80091625Y-112381262D01*
X80161538Y-112451175D01*
X80247162Y-112500610D01*
X80342665Y-112526200D01*
X80342667Y-112526200D01*
X80441532Y-112526200D01*
X80441535Y-112526200D01*
X80537038Y-112500610D01*
X80622662Y-112451175D01*
X80692575Y-112381262D01*
X80742010Y-112295638D01*
X80767600Y-112200135D01*
X80767600Y-112101265D01*
X80742010Y-112005762D01*
X80692575Y-111920138D01*
X80622662Y-111850225D01*
X80537038Y-111800790D01*
X80441535Y-111775200D01*
X80342665Y-111775200D01*
X80247162Y-111800790D01*
X80247160Y-111800791D01*
X80247159Y-111800791D01*
X80161536Y-111850226D01*
X80091626Y-111920136D01*
X80042191Y-112005759D01*
X80042191Y-112005760D01*
X80042190Y-112005762D01*
X80016600Y-112101265D01*
X77393492Y-112101265D01*
X77257189Y-111850226D01*
X77147229Y-111647705D01*
X77144285Y-111641928D01*
X77137365Y-111627419D01*
X77137364Y-111627418D01*
X77115779Y-111582165D01*
X81203500Y-111582165D01*
X81203500Y-111681035D01*
X81229090Y-111776538D01*
X81278525Y-111862162D01*
X81348438Y-111932075D01*
X81434062Y-111981510D01*
X81529565Y-112007100D01*
X81529567Y-112007100D01*
X81628432Y-112007100D01*
X81628435Y-112007100D01*
X81723938Y-111981510D01*
X81809562Y-111932075D01*
X81879475Y-111862162D01*
X81928910Y-111776538D01*
X81954500Y-111681035D01*
X81954500Y-111582165D01*
X81928910Y-111486662D01*
X81879475Y-111401038D01*
X81809562Y-111331125D01*
X81758536Y-111301665D01*
X96812900Y-111301665D01*
X96812900Y-111400535D01*
X96838490Y-111496038D01*
X96887925Y-111581662D01*
X96957838Y-111651575D01*
X97043462Y-111701010D01*
X97138965Y-111726600D01*
X97138967Y-111726600D01*
X97237832Y-111726600D01*
X97237835Y-111726600D01*
X97333338Y-111701010D01*
X97418962Y-111651575D01*
X97488875Y-111581662D01*
X97538310Y-111496038D01*
X97563900Y-111400535D01*
X97563900Y-111392465D01*
X98691500Y-111392465D01*
X98691500Y-111491335D01*
X98717090Y-111586838D01*
X98717091Y-111586839D01*
X98717091Y-111586840D01*
X98718186Y-111588736D01*
X98766525Y-111672462D01*
X98836438Y-111742375D01*
X98922062Y-111791810D01*
X99017565Y-111817400D01*
X99017567Y-111817400D01*
X99116433Y-111817400D01*
X99116435Y-111817400D01*
X99141320Y-111810732D01*
X99211169Y-111812393D01*
X99269032Y-111851555D01*
X99293188Y-111898411D01*
X99311388Y-111966333D01*
X99311391Y-111966340D01*
X99324637Y-111989282D01*
X99360825Y-112051962D01*
X99430738Y-112121875D01*
X99516362Y-112171310D01*
X99611865Y-112196900D01*
X99611867Y-112196900D01*
X99710732Y-112196900D01*
X99710735Y-112196900D01*
X99806238Y-112171310D01*
X99891862Y-112121875D01*
X99961775Y-112051962D01*
X100011210Y-111966338D01*
X100036800Y-111870835D01*
X100036800Y-111771965D01*
X100036237Y-111769865D01*
X102941000Y-111769865D01*
X102941000Y-111868735D01*
X102966590Y-111964238D01*
X102966591Y-111964239D01*
X102966591Y-111964240D01*
X102971323Y-111972436D01*
X103016025Y-112049862D01*
X103085938Y-112119775D01*
X103171562Y-112169210D01*
X103267065Y-112194800D01*
X103267067Y-112194800D01*
X103365932Y-112194800D01*
X103365935Y-112194800D01*
X103461438Y-112169210D01*
X103488536Y-112153565D01*
X105727000Y-112153565D01*
X105727000Y-112252435D01*
X105752590Y-112347938D01*
X105802025Y-112433562D01*
X105871938Y-112503475D01*
X105957562Y-112552910D01*
X106053065Y-112578500D01*
X106053067Y-112578500D01*
X106151932Y-112578500D01*
X106151935Y-112578500D01*
X106247438Y-112552910D01*
X106333062Y-112503475D01*
X106402975Y-112433562D01*
X106452410Y-112347938D01*
X106478000Y-112252435D01*
X106478000Y-112153565D01*
X106452410Y-112058062D01*
X106402975Y-111972438D01*
X106333062Y-111902525D01*
X106247438Y-111853090D01*
X106151935Y-111827500D01*
X106053065Y-111827500D01*
X105957562Y-111853090D01*
X105957560Y-111853091D01*
X105957559Y-111853091D01*
X105871936Y-111902526D01*
X105802026Y-111972436D01*
X105752591Y-112058059D01*
X105752591Y-112058060D01*
X105752590Y-112058062D01*
X105727000Y-112153565D01*
X103488536Y-112153565D01*
X103547062Y-112119775D01*
X103616975Y-112049862D01*
X103666410Y-111964238D01*
X103692000Y-111868735D01*
X103692000Y-111769865D01*
X103666410Y-111674362D01*
X103616975Y-111588738D01*
X103547062Y-111518825D01*
X103461438Y-111469390D01*
X103365935Y-111443800D01*
X103267065Y-111443800D01*
X103171562Y-111469390D01*
X103171560Y-111469391D01*
X103171559Y-111469391D01*
X103085936Y-111518826D01*
X103016026Y-111588736D01*
X102966591Y-111674359D01*
X102966591Y-111674360D01*
X102966590Y-111674362D01*
X102941000Y-111769865D01*
X100036237Y-111769865D01*
X100011210Y-111676462D01*
X99961775Y-111590838D01*
X99891862Y-111520925D01*
X99806238Y-111471490D01*
X99710735Y-111445900D01*
X99611865Y-111445900D01*
X99586976Y-111452569D01*
X99577925Y-111452353D01*
X99569606Y-111455916D01*
X99543547Y-111451533D01*
X99517126Y-111450904D01*
X99509629Y-111445829D01*
X99500704Y-111444329D01*
X99481150Y-111426554D01*
X99459264Y-111411740D01*
X99454333Y-111402175D01*
X99449004Y-111397331D01*
X99435110Y-111364886D01*
X99425494Y-111329000D01*
X99418893Y-111304363D01*
X99416911Y-111296966D01*
X99416910Y-111296962D01*
X99407732Y-111281065D01*
X101176600Y-111281065D01*
X101176600Y-111379935D01*
X101202190Y-111475438D01*
X101251625Y-111561062D01*
X101321538Y-111630975D01*
X101407162Y-111680410D01*
X101502665Y-111706000D01*
X101502667Y-111706000D01*
X101601532Y-111706000D01*
X101601535Y-111706000D01*
X101697038Y-111680410D01*
X101782662Y-111630975D01*
X101852575Y-111561062D01*
X101902010Y-111475438D01*
X101927600Y-111379935D01*
X101927600Y-111281065D01*
X101902010Y-111185562D01*
X101852575Y-111099938D01*
X101782662Y-111030025D01*
X101697038Y-110980590D01*
X101601535Y-110955000D01*
X101502665Y-110955000D01*
X101407162Y-110980590D01*
X101407160Y-110980591D01*
X101407159Y-110980591D01*
X101321536Y-111030026D01*
X101251626Y-111099936D01*
X101202191Y-111185559D01*
X101202191Y-111185560D01*
X101202190Y-111185562D01*
X101176600Y-111281065D01*
X99407732Y-111281065D01*
X99367475Y-111211338D01*
X99297562Y-111141425D01*
X99211938Y-111091990D01*
X99116435Y-111066400D01*
X99017565Y-111066400D01*
X98922062Y-111091990D01*
X98922060Y-111091991D01*
X98922059Y-111091991D01*
X98836436Y-111141426D01*
X98766526Y-111211336D01*
X98717091Y-111296959D01*
X98717091Y-111296960D01*
X98717090Y-111296962D01*
X98691500Y-111392465D01*
X97563900Y-111392465D01*
X97563900Y-111301665D01*
X97538310Y-111206162D01*
X97488875Y-111120538D01*
X97418962Y-111050625D01*
X97333338Y-111001190D01*
X97237835Y-110975600D01*
X97138965Y-110975600D01*
X97043462Y-111001190D01*
X97043460Y-111001191D01*
X97043459Y-111001191D01*
X96957836Y-111050626D01*
X96887926Y-111120536D01*
X96838491Y-111206159D01*
X96838491Y-111206160D01*
X96838490Y-111206162D01*
X96812900Y-111301665D01*
X81758536Y-111301665D01*
X81723938Y-111281690D01*
X81628435Y-111256100D01*
X81529565Y-111256100D01*
X81434062Y-111281690D01*
X81434060Y-111281691D01*
X81434059Y-111281691D01*
X81348436Y-111331126D01*
X81278526Y-111401036D01*
X81229091Y-111486659D01*
X81229091Y-111486660D01*
X81229090Y-111486662D01*
X81203500Y-111582165D01*
X77115779Y-111582165D01*
X76706405Y-110723891D01*
X76610309Y-110522421D01*
X76610308Y-110522419D01*
X76588723Y-110477165D01*
X98218600Y-110477165D01*
X98218600Y-110576035D01*
X98244190Y-110671538D01*
X98293625Y-110757162D01*
X98363538Y-110827075D01*
X98449162Y-110876510D01*
X98544665Y-110902100D01*
X98544667Y-110902100D01*
X98643532Y-110902100D01*
X98643535Y-110902100D01*
X98739038Y-110876510D01*
X98824662Y-110827075D01*
X98894575Y-110757162D01*
X98944010Y-110671538D01*
X98950889Y-110645865D01*
X99379600Y-110645865D01*
X99379600Y-110744735D01*
X99405190Y-110840238D01*
X99405191Y-110840239D01*
X99405191Y-110840240D01*
X99407038Y-110843439D01*
X99454625Y-110925862D01*
X99524538Y-110995775D01*
X99610162Y-111045210D01*
X99705665Y-111070800D01*
X99705667Y-111070800D01*
X99804532Y-111070800D01*
X99804535Y-111070800D01*
X99900038Y-111045210D01*
X99985662Y-110995775D01*
X100055575Y-110925862D01*
X100105010Y-110840238D01*
X100130600Y-110744735D01*
X100130600Y-110645865D01*
X100105010Y-110550362D01*
X100055575Y-110464738D01*
X99994102Y-110403265D01*
X101630100Y-110403265D01*
X101630100Y-110502135D01*
X101655690Y-110597638D01*
X101655691Y-110597639D01*
X101655691Y-110597640D01*
X101659975Y-110605060D01*
X101705125Y-110683262D01*
X101775038Y-110753175D01*
X101860662Y-110802610D01*
X101956165Y-110828200D01*
X101956169Y-110828200D01*
X102055032Y-110828200D01*
X102055035Y-110828200D01*
X102150538Y-110802610D01*
X102150539Y-110802608D01*
X102158388Y-110800506D01*
X102158961Y-110802644D01*
X102216929Y-110796402D01*
X102279414Y-110827666D01*
X102302317Y-110856431D01*
X102313825Y-110876362D01*
X102383738Y-110946275D01*
X102469362Y-110995710D01*
X102564865Y-111021300D01*
X102564867Y-111021300D01*
X102663732Y-111021300D01*
X102663735Y-111021300D01*
X102759238Y-110995710D01*
X102844862Y-110946275D01*
X102914775Y-110876362D01*
X102964210Y-110790738D01*
X102989800Y-110695235D01*
X102989800Y-110695232D01*
X102990910Y-110691090D01*
X103027275Y-110631429D01*
X103090122Y-110600900D01*
X103159497Y-110609195D01*
X103213375Y-110653680D01*
X103218065Y-110661171D01*
X103259225Y-110732462D01*
X103329138Y-110802375D01*
X103414762Y-110851810D01*
X103510265Y-110877400D01*
X103510267Y-110877400D01*
X103609131Y-110877400D01*
X103609135Y-110877400D01*
X103660759Y-110863567D01*
X103730605Y-110865230D01*
X103788468Y-110904392D01*
X103800237Y-110921341D01*
X103801390Y-110923338D01*
X103850825Y-111008962D01*
X103920738Y-111078875D01*
X104006362Y-111128310D01*
X104101865Y-111153900D01*
X104101867Y-111153900D01*
X104200732Y-111153900D01*
X104200735Y-111153900D01*
X104296238Y-111128310D01*
X104381862Y-111078875D01*
X104436372Y-111024365D01*
X106811300Y-111024365D01*
X106811300Y-111123235D01*
X106836890Y-111218738D01*
X106886325Y-111304362D01*
X106956238Y-111374275D01*
X107041862Y-111423710D01*
X107137365Y-111449300D01*
X107137367Y-111449300D01*
X107236232Y-111449300D01*
X107236235Y-111449300D01*
X107331738Y-111423710D01*
X107417362Y-111374275D01*
X107487275Y-111304362D01*
X107536710Y-111218738D01*
X107562300Y-111123235D01*
X107562300Y-111024365D01*
X107536710Y-110928862D01*
X107487275Y-110843238D01*
X107417362Y-110773325D01*
X107331738Y-110723890D01*
X107236235Y-110698300D01*
X107137365Y-110698300D01*
X107041862Y-110723890D01*
X107041860Y-110723891D01*
X107041859Y-110723891D01*
X106956236Y-110773326D01*
X106886326Y-110843236D01*
X106836891Y-110928859D01*
X106836891Y-110928860D01*
X106836890Y-110928862D01*
X106811300Y-111024365D01*
X104436372Y-111024365D01*
X104451775Y-111008962D01*
X104501210Y-110923338D01*
X104526800Y-110827835D01*
X104526800Y-110728965D01*
X104505391Y-110649065D01*
X107754400Y-110649065D01*
X107754400Y-110747935D01*
X107779990Y-110843438D01*
X107779991Y-110843439D01*
X107779991Y-110843440D01*
X107787494Y-110856435D01*
X107829425Y-110929062D01*
X107899338Y-110998975D01*
X107984962Y-111048410D01*
X108080465Y-111074000D01*
X108080467Y-111074000D01*
X108179332Y-111074000D01*
X108179335Y-111074000D01*
X108274838Y-111048410D01*
X108346415Y-111007084D01*
X108414310Y-110990612D01*
X108480337Y-111013463D01*
X108523529Y-111068384D01*
X108528186Y-111082377D01*
X108532488Y-111098433D01*
X108532491Y-111098440D01*
X108533339Y-111099908D01*
X108581925Y-111184062D01*
X108651838Y-111253975D01*
X108737462Y-111303410D01*
X108832965Y-111329000D01*
X108832967Y-111329000D01*
X108931832Y-111329000D01*
X108931835Y-111329000D01*
X109027338Y-111303410D01*
X109112962Y-111253975D01*
X109179372Y-111187565D01*
X109475200Y-111187565D01*
X109475200Y-111286435D01*
X109500790Y-111381938D01*
X109550225Y-111467562D01*
X109620138Y-111537475D01*
X109705762Y-111586910D01*
X109801265Y-111612500D01*
X109801267Y-111612500D01*
X109900132Y-111612500D01*
X109900135Y-111612500D01*
X109995638Y-111586910D01*
X110081262Y-111537475D01*
X110151175Y-111467562D01*
X110188192Y-111403445D01*
X110238758Y-111355232D01*
X110307365Y-111342008D01*
X110357575Y-111358059D01*
X110430062Y-111399910D01*
X110525565Y-111425500D01*
X110525567Y-111425500D01*
X110624432Y-111425500D01*
X110624435Y-111425500D01*
X110719938Y-111399910D01*
X110805562Y-111350475D01*
X110875475Y-111280562D01*
X110924910Y-111194938D01*
X110950500Y-111099435D01*
X110950500Y-111000565D01*
X110924910Y-110905062D01*
X110875475Y-110819438D01*
X110805562Y-110749525D01*
X110720761Y-110700565D01*
X112624500Y-110700565D01*
X112624500Y-110799435D01*
X112650090Y-110894938D01*
X112699525Y-110980562D01*
X112769438Y-111050475D01*
X112855062Y-111099910D01*
X112950565Y-111125500D01*
X112950567Y-111125500D01*
X113049432Y-111125500D01*
X113049435Y-111125500D01*
X113144938Y-111099910D01*
X113230562Y-111050475D01*
X113300475Y-110980562D01*
X113349910Y-110894938D01*
X113375500Y-110799435D01*
X113375500Y-110700565D01*
X119974500Y-110700565D01*
X119974500Y-110799435D01*
X120000090Y-110894938D01*
X120049525Y-110980562D01*
X120119438Y-111050475D01*
X120205062Y-111099910D01*
X120300565Y-111125500D01*
X120300567Y-111125500D01*
X120399432Y-111125500D01*
X120399435Y-111125500D01*
X120494938Y-111099910D01*
X120580562Y-111050475D01*
X120650475Y-110980562D01*
X120699910Y-110894938D01*
X120725500Y-110799435D01*
X120725500Y-110700565D01*
X120699910Y-110605062D01*
X120650475Y-110519438D01*
X120580562Y-110449525D01*
X120494938Y-110400090D01*
X120399435Y-110374500D01*
X120300565Y-110374500D01*
X120205062Y-110400090D01*
X120205060Y-110400091D01*
X120205059Y-110400091D01*
X120119436Y-110449526D01*
X120049526Y-110519436D01*
X120000091Y-110605059D01*
X120000091Y-110605060D01*
X120000090Y-110605062D01*
X119974500Y-110700565D01*
X113375500Y-110700565D01*
X113349910Y-110605062D01*
X113300475Y-110519438D01*
X113230562Y-110449525D01*
X113144938Y-110400090D01*
X113049435Y-110374500D01*
X112950565Y-110374500D01*
X112855062Y-110400090D01*
X112855060Y-110400091D01*
X112855059Y-110400091D01*
X112769436Y-110449526D01*
X112699526Y-110519436D01*
X112650091Y-110605059D01*
X112650091Y-110605060D01*
X112650090Y-110605062D01*
X112624500Y-110700565D01*
X110720761Y-110700565D01*
X110719938Y-110700090D01*
X110624435Y-110674500D01*
X110525565Y-110674500D01*
X110430062Y-110700090D01*
X110430060Y-110700091D01*
X110430059Y-110700091D01*
X110344436Y-110749526D01*
X110274526Y-110819436D01*
X110237507Y-110883554D01*
X110186939Y-110931768D01*
X110118332Y-110944990D01*
X110068125Y-110928940D01*
X109995638Y-110887090D01*
X109900135Y-110861500D01*
X109801265Y-110861500D01*
X109705762Y-110887090D01*
X109705760Y-110887091D01*
X109705759Y-110887091D01*
X109620136Y-110936526D01*
X109550226Y-111006436D01*
X109500791Y-111092059D01*
X109500791Y-111092060D01*
X109500790Y-111092062D01*
X109475200Y-111187565D01*
X109179372Y-111187565D01*
X109182875Y-111184062D01*
X109232310Y-111098438D01*
X109257900Y-111002935D01*
X109257900Y-110904065D01*
X109232310Y-110808562D01*
X109182875Y-110722938D01*
X109112962Y-110653025D01*
X109027338Y-110603590D01*
X108931835Y-110578000D01*
X108832965Y-110578000D01*
X108737462Y-110603590D01*
X108737460Y-110603591D01*
X108737459Y-110603591D01*
X108685722Y-110633462D01*
X108676936Y-110638535D01*
X108665887Y-110644914D01*
X108597987Y-110661387D01*
X108531960Y-110638535D01*
X108488769Y-110583613D01*
X108484112Y-110569619D01*
X108479810Y-110553563D01*
X108479808Y-110553560D01*
X108430375Y-110467938D01*
X108360462Y-110398025D01*
X108274838Y-110348590D01*
X108179335Y-110323000D01*
X108080465Y-110323000D01*
X107984962Y-110348590D01*
X107984960Y-110348591D01*
X107984959Y-110348591D01*
X107899336Y-110398026D01*
X107829426Y-110467936D01*
X107779991Y-110553559D01*
X107779991Y-110553560D01*
X107779990Y-110553562D01*
X107754400Y-110649065D01*
X104505391Y-110649065D01*
X104501210Y-110633462D01*
X104451775Y-110547838D01*
X104381862Y-110477925D01*
X104296238Y-110428490D01*
X104200735Y-110402900D01*
X104101865Y-110402900D01*
X104101863Y-110402900D01*
X104050241Y-110416732D01*
X103980391Y-110415069D01*
X103922529Y-110375905D01*
X103910762Y-110358958D01*
X103902929Y-110345391D01*
X103860175Y-110271338D01*
X103790262Y-110201425D01*
X103704638Y-110151990D01*
X103609135Y-110126400D01*
X103510265Y-110126400D01*
X103414762Y-110151990D01*
X103414760Y-110151991D01*
X103414759Y-110151991D01*
X103329136Y-110201426D01*
X103259226Y-110271336D01*
X103209791Y-110356959D01*
X103209790Y-110356961D01*
X103209790Y-110356962D01*
X103194175Y-110415238D01*
X103183089Y-110456611D01*
X103146723Y-110516271D01*
X103083876Y-110546799D01*
X103014500Y-110538504D01*
X102960623Y-110494018D01*
X102955927Y-110486516D01*
X102950967Y-110477925D01*
X102914775Y-110415238D01*
X102844862Y-110345325D01*
X102759238Y-110295890D01*
X102663735Y-110270300D01*
X102564865Y-110270300D01*
X102469362Y-110295890D01*
X102469360Y-110295891D01*
X102461512Y-110297994D01*
X102460940Y-110295860D01*
X102402937Y-110302091D01*
X102340461Y-110270810D01*
X102317580Y-110242066D01*
X102306075Y-110222138D01*
X102236162Y-110152225D01*
X102150538Y-110102790D01*
X102055035Y-110077200D01*
X101956165Y-110077200D01*
X101860662Y-110102790D01*
X101860660Y-110102791D01*
X101860659Y-110102791D01*
X101775036Y-110152226D01*
X101705126Y-110222136D01*
X101655691Y-110307759D01*
X101655691Y-110307760D01*
X101655690Y-110307762D01*
X101630100Y-110403265D01*
X99994102Y-110403265D01*
X99985662Y-110394825D01*
X99900038Y-110345390D01*
X99804535Y-110319800D01*
X99705665Y-110319800D01*
X99610162Y-110345390D01*
X99610160Y-110345391D01*
X99610159Y-110345391D01*
X99524536Y-110394826D01*
X99454626Y-110464736D01*
X99405191Y-110550359D01*
X99405191Y-110550360D01*
X99405190Y-110550362D01*
X99379600Y-110645865D01*
X98950889Y-110645865D01*
X98969600Y-110576035D01*
X98969600Y-110477165D01*
X98944010Y-110381662D01*
X98894575Y-110296038D01*
X98824662Y-110226125D01*
X98739038Y-110176690D01*
X98643535Y-110151100D01*
X98544665Y-110151100D01*
X98449162Y-110176690D01*
X98449160Y-110176691D01*
X98449159Y-110176691D01*
X98363536Y-110226126D01*
X98293626Y-110296036D01*
X98244191Y-110381659D01*
X98244191Y-110381660D01*
X98244190Y-110381662D01*
X98218600Y-110477165D01*
X76588723Y-110477165D01*
X76568956Y-110435722D01*
X76566315Y-110429791D01*
X76560217Y-110415069D01*
X76279793Y-109738065D01*
X87277000Y-109738065D01*
X87277000Y-109836935D01*
X87302590Y-109932438D01*
X87352025Y-110018062D01*
X87421938Y-110087975D01*
X87507562Y-110137410D01*
X87603065Y-110163000D01*
X87603067Y-110163000D01*
X87701932Y-110163000D01*
X87701935Y-110163000D01*
X87797438Y-110137410D01*
X87883062Y-110087975D01*
X87952975Y-110018062D01*
X88002410Y-109932438D01*
X88028000Y-109836935D01*
X88028000Y-109756465D01*
X106903800Y-109756465D01*
X106903800Y-109855335D01*
X106929390Y-109950838D01*
X106978825Y-110036462D01*
X107048738Y-110106375D01*
X107134362Y-110155810D01*
X107229865Y-110181400D01*
X107229867Y-110181400D01*
X107328732Y-110181400D01*
X107328735Y-110181400D01*
X107424238Y-110155810D01*
X107509862Y-110106375D01*
X107579775Y-110036462D01*
X107629210Y-109950838D01*
X107629212Y-109950827D01*
X107630587Y-109947512D01*
X107632503Y-109945132D01*
X107633274Y-109943799D01*
X107633481Y-109943918D01*
X107674423Y-109893104D01*
X107740715Y-109871033D01*
X107777240Y-109875178D01*
X107804565Y-109882500D01*
X107804568Y-109882500D01*
X107903432Y-109882500D01*
X107903435Y-109882500D01*
X107998938Y-109856910D01*
X108084562Y-109807475D01*
X108154475Y-109737562D01*
X108203910Y-109651938D01*
X108229500Y-109556435D01*
X108229500Y-109521565D01*
X109142100Y-109521565D01*
X109142100Y-109620435D01*
X109167690Y-109715938D01*
X109217125Y-109801562D01*
X109287038Y-109871475D01*
X109372662Y-109920910D01*
X109468165Y-109946500D01*
X109468167Y-109946500D01*
X109567032Y-109946500D01*
X109567035Y-109946500D01*
X109662538Y-109920910D01*
X109748162Y-109871475D01*
X109818075Y-109801562D01*
X109867510Y-109715938D01*
X109893100Y-109620435D01*
X109893100Y-109601451D01*
X109912785Y-109534412D01*
X109965589Y-109488657D01*
X109984997Y-109481679D01*
X110077438Y-109456910D01*
X110163062Y-109407475D01*
X110232975Y-109337562D01*
X110282410Y-109251938D01*
X110308000Y-109156435D01*
X110308000Y-109057565D01*
X110282410Y-108962062D01*
X110232975Y-108876438D01*
X110163062Y-108806525D01*
X110077438Y-108757090D01*
X109981935Y-108731500D01*
X109883065Y-108731500D01*
X109787562Y-108757090D01*
X109787560Y-108757091D01*
X109787559Y-108757091D01*
X109701936Y-108806526D01*
X109632026Y-108876436D01*
X109582591Y-108962059D01*
X109582591Y-108962060D01*
X109582590Y-108962062D01*
X109557000Y-109057565D01*
X109557000Y-109057567D01*
X109557000Y-109076548D01*
X109537315Y-109143587D01*
X109484511Y-109189342D01*
X109465094Y-109196323D01*
X109372660Y-109221090D01*
X109372659Y-109221091D01*
X109287036Y-109270526D01*
X109217126Y-109340436D01*
X109167691Y-109426059D01*
X109167691Y-109426060D01*
X109167690Y-109426062D01*
X109142100Y-109521565D01*
X108229500Y-109521565D01*
X108229500Y-109457565D01*
X108203910Y-109362062D01*
X108154475Y-109276438D01*
X108084562Y-109206525D01*
X107998938Y-109157090D01*
X107903435Y-109131500D01*
X107804565Y-109131500D01*
X107709062Y-109157090D01*
X107709060Y-109157091D01*
X107709059Y-109157091D01*
X107623436Y-109206526D01*
X107553526Y-109276436D01*
X107504089Y-109362063D01*
X107502707Y-109365400D01*
X107500787Y-109367781D01*
X107500026Y-109369101D01*
X107499820Y-109368982D01*
X107458865Y-109419803D01*
X107392570Y-109441866D01*
X107356055Y-109437720D01*
X107328736Y-109430400D01*
X107328735Y-109430400D01*
X107229865Y-109430400D01*
X107134362Y-109455990D01*
X107134360Y-109455991D01*
X107134359Y-109455991D01*
X107048736Y-109505426D01*
X106978826Y-109575336D01*
X106929391Y-109660959D01*
X106929391Y-109660960D01*
X106929390Y-109660962D01*
X106903800Y-109756465D01*
X88028000Y-109756465D01*
X88028000Y-109738065D01*
X88002410Y-109642562D01*
X87952975Y-109556938D01*
X87883062Y-109487025D01*
X87797438Y-109437590D01*
X87701935Y-109412000D01*
X87603065Y-109412000D01*
X87507562Y-109437590D01*
X87507560Y-109437591D01*
X87507559Y-109437591D01*
X87421936Y-109487026D01*
X87352026Y-109556936D01*
X87302591Y-109642559D01*
X87302591Y-109642560D01*
X87302590Y-109642562D01*
X87277000Y-109738065D01*
X76279793Y-109738065D01*
X76054905Y-109195138D01*
X76052580Y-109189082D01*
X76042402Y-109160339D01*
X75889680Y-108729065D01*
X84838600Y-108729065D01*
X84838600Y-108827935D01*
X84864190Y-108923438D01*
X84913625Y-109009062D01*
X84983538Y-109078975D01*
X85069162Y-109128410D01*
X85164665Y-109154000D01*
X85164667Y-109154000D01*
X85263532Y-109154000D01*
X85263535Y-109154000D01*
X85359038Y-109128410D01*
X85444662Y-109078975D01*
X85514575Y-109009062D01*
X85539457Y-108965965D01*
X99534900Y-108965965D01*
X99534900Y-109064835D01*
X99560490Y-109160338D01*
X99609925Y-109245962D01*
X99679838Y-109315875D01*
X99765462Y-109365310D01*
X99860965Y-109390900D01*
X99860967Y-109390900D01*
X99959832Y-109390900D01*
X99959835Y-109390900D01*
X100055338Y-109365310D01*
X100140962Y-109315875D01*
X100210875Y-109245962D01*
X100260310Y-109160338D01*
X100285900Y-109064835D01*
X100285900Y-108965965D01*
X100260310Y-108870462D01*
X100210875Y-108784838D01*
X100140962Y-108714925D01*
X100055338Y-108665490D01*
X99959835Y-108639900D01*
X99860965Y-108639900D01*
X99765462Y-108665490D01*
X99765460Y-108665491D01*
X99765459Y-108665491D01*
X99679836Y-108714926D01*
X99609926Y-108784836D01*
X99560491Y-108870459D01*
X99560491Y-108870460D01*
X99560490Y-108870462D01*
X99534900Y-108965965D01*
X85539457Y-108965965D01*
X85564010Y-108923438D01*
X85589600Y-108827935D01*
X85589600Y-108729065D01*
X85564010Y-108633562D01*
X85544555Y-108599865D01*
X100529200Y-108599865D01*
X100529200Y-108698735D01*
X100554790Y-108794238D01*
X100604225Y-108879862D01*
X100674138Y-108949775D01*
X100759762Y-108999210D01*
X100855265Y-109024800D01*
X100855267Y-109024800D01*
X100954132Y-109024800D01*
X100954135Y-109024800D01*
X101049638Y-108999210D01*
X101135262Y-108949775D01*
X101197972Y-108887065D01*
X104951400Y-108887065D01*
X104951400Y-108985935D01*
X104976990Y-109081438D01*
X105026425Y-109167062D01*
X105096338Y-109236975D01*
X105181962Y-109286410D01*
X105277465Y-109312000D01*
X105277467Y-109312000D01*
X105376332Y-109312000D01*
X105376335Y-109312000D01*
X105471838Y-109286410D01*
X105557462Y-109236975D01*
X105627375Y-109167062D01*
X105676810Y-109081438D01*
X105702400Y-108985935D01*
X105702400Y-108887065D01*
X105676810Y-108791562D01*
X105627375Y-108705938D01*
X105579002Y-108657565D01*
X111704800Y-108657565D01*
X111704800Y-108756435D01*
X111730390Y-108851938D01*
X111777524Y-108933577D01*
X111779826Y-108937563D01*
X111783703Y-108941440D01*
X111817188Y-109002763D01*
X111812204Y-109072455D01*
X111799226Y-109095890D01*
X111799589Y-109096100D01*
X111795526Y-109103136D01*
X111795525Y-109103138D01*
X111780934Y-109128410D01*
X111746091Y-109188759D01*
X111746091Y-109188760D01*
X111746090Y-109188762D01*
X111720500Y-109284265D01*
X111720500Y-109383135D01*
X111746090Y-109478638D01*
X111746091Y-109478639D01*
X111746091Y-109478640D01*
X111748320Y-109482500D01*
X111795525Y-109564262D01*
X111865438Y-109634175D01*
X111951062Y-109683610D01*
X112046565Y-109709200D01*
X112046567Y-109709200D01*
X112145432Y-109709200D01*
X112145435Y-109709200D01*
X112240938Y-109683610D01*
X112326562Y-109634175D01*
X112396475Y-109564262D01*
X112445910Y-109478638D01*
X112471500Y-109383135D01*
X112471500Y-109284265D01*
X112445910Y-109188762D01*
X112396475Y-109103138D01*
X112392596Y-109099259D01*
X112359111Y-109037936D01*
X112364095Y-108968244D01*
X112377075Y-108944810D01*
X112376711Y-108944600D01*
X112380773Y-108937563D01*
X112380775Y-108937562D01*
X112430210Y-108851938D01*
X112455800Y-108756435D01*
X112455800Y-108657565D01*
X112430210Y-108562062D01*
X112380775Y-108476438D01*
X112310862Y-108406525D01*
X112225238Y-108357090D01*
X112129735Y-108331500D01*
X112030865Y-108331500D01*
X111935362Y-108357090D01*
X111935360Y-108357091D01*
X111935359Y-108357091D01*
X111849736Y-108406526D01*
X111779826Y-108476436D01*
X111730391Y-108562059D01*
X111730391Y-108562060D01*
X111730390Y-108562062D01*
X111704800Y-108657565D01*
X105579002Y-108657565D01*
X105557462Y-108636025D01*
X105471838Y-108586590D01*
X105376335Y-108561000D01*
X105277465Y-108561000D01*
X105181962Y-108586590D01*
X105181960Y-108586591D01*
X105181959Y-108586591D01*
X105096336Y-108636026D01*
X105026426Y-108705936D01*
X104976991Y-108791559D01*
X104976991Y-108791560D01*
X104976990Y-108791562D01*
X104951400Y-108887065D01*
X101197972Y-108887065D01*
X101205175Y-108879862D01*
X101254610Y-108794238D01*
X101280200Y-108698735D01*
X101280200Y-108599865D01*
X101254610Y-108504362D01*
X101214775Y-108435365D01*
X103259100Y-108435365D01*
X103259100Y-108534235D01*
X103284690Y-108629738D01*
X103334125Y-108715362D01*
X103404038Y-108785275D01*
X103489662Y-108834710D01*
X103585165Y-108860300D01*
X103585167Y-108860300D01*
X103684032Y-108860300D01*
X103684035Y-108860300D01*
X103779538Y-108834710D01*
X103865162Y-108785275D01*
X103935075Y-108715362D01*
X103984510Y-108629738D01*
X104010100Y-108534235D01*
X104010100Y-108435365D01*
X103984510Y-108339862D01*
X103935075Y-108254238D01*
X103865162Y-108184325D01*
X103779538Y-108134890D01*
X103684035Y-108109300D01*
X103585165Y-108109300D01*
X103489662Y-108134890D01*
X103489660Y-108134891D01*
X103489659Y-108134891D01*
X103404036Y-108184326D01*
X103334126Y-108254236D01*
X103284691Y-108339859D01*
X103284691Y-108339860D01*
X103284690Y-108339862D01*
X103259100Y-108435365D01*
X101214775Y-108435365D01*
X101205175Y-108418738D01*
X101135262Y-108348825D01*
X101049638Y-108299390D01*
X100954135Y-108273800D01*
X100855265Y-108273800D01*
X100759762Y-108299390D01*
X100759760Y-108299391D01*
X100759759Y-108299391D01*
X100674136Y-108348826D01*
X100604226Y-108418736D01*
X100554791Y-108504359D01*
X100554791Y-108504360D01*
X100554790Y-108504362D01*
X100529200Y-108599865D01*
X85544555Y-108599865D01*
X85514575Y-108547938D01*
X85444662Y-108478025D01*
X85359038Y-108428590D01*
X85263535Y-108403000D01*
X85164665Y-108403000D01*
X85069162Y-108428590D01*
X85069160Y-108428591D01*
X85069159Y-108428591D01*
X84983536Y-108478026D01*
X84913626Y-108547936D01*
X84864191Y-108633559D01*
X84864191Y-108633560D01*
X84864190Y-108633562D01*
X84838600Y-108729065D01*
X75889680Y-108729065D01*
X75675756Y-108124965D01*
X97710900Y-108124965D01*
X97710900Y-108223835D01*
X97736490Y-108319338D01*
X97785925Y-108404962D01*
X97855838Y-108474875D01*
X97941462Y-108524310D01*
X98036965Y-108549900D01*
X98036967Y-108549900D01*
X98135832Y-108549900D01*
X98135835Y-108549900D01*
X98231338Y-108524310D01*
X98316962Y-108474875D01*
X98386875Y-108404962D01*
X98436310Y-108319338D01*
X98461900Y-108223835D01*
X98461900Y-108124965D01*
X98436310Y-108029462D01*
X98432289Y-108022497D01*
X98415815Y-107954597D01*
X98438667Y-107888570D01*
X98493588Y-107845379D01*
X98563141Y-107838737D01*
X98571748Y-107840716D01*
X98617965Y-107853100D01*
X98617968Y-107853100D01*
X98716832Y-107853100D01*
X98716835Y-107853100D01*
X98812338Y-107827510D01*
X98897962Y-107778075D01*
X98967875Y-107708162D01*
X99017310Y-107622538D01*
X99042900Y-107527035D01*
X99042900Y-107445365D01*
X103545700Y-107445365D01*
X103545700Y-107544235D01*
X103571290Y-107639738D01*
X103620725Y-107725362D01*
X103690638Y-107795275D01*
X103776262Y-107844710D01*
X103871765Y-107870300D01*
X103871767Y-107870300D01*
X103970632Y-107870300D01*
X103970635Y-107870300D01*
X104066138Y-107844710D01*
X104151762Y-107795275D01*
X104221675Y-107725362D01*
X104271110Y-107639738D01*
X104296700Y-107544235D01*
X104296700Y-107445365D01*
X104271110Y-107349862D01*
X104221675Y-107264238D01*
X104151762Y-107194325D01*
X104128331Y-107180797D01*
X105937600Y-107180797D01*
X105937600Y-107274403D01*
X105945845Y-107305173D01*
X105961826Y-107364819D01*
X105970707Y-107380200D01*
X106008629Y-107445882D01*
X106074818Y-107512071D01*
X106155882Y-107558874D01*
X106246297Y-107583100D01*
X106246299Y-107583100D01*
X106339901Y-107583100D01*
X106339903Y-107583100D01*
X106430318Y-107558874D01*
X106511382Y-107512071D01*
X106577571Y-107445882D01*
X106619208Y-107373765D01*
X107499200Y-107373765D01*
X107499200Y-107472635D01*
X107524790Y-107568138D01*
X107574225Y-107653762D01*
X107644138Y-107723675D01*
X107729762Y-107773110D01*
X107825265Y-107798700D01*
X107825267Y-107798700D01*
X107924132Y-107798700D01*
X107924135Y-107798700D01*
X108019638Y-107773110D01*
X108105262Y-107723675D01*
X108175175Y-107653762D01*
X108224610Y-107568138D01*
X108250200Y-107472635D01*
X108250200Y-107373765D01*
X108230586Y-107300565D01*
X112474500Y-107300565D01*
X112474500Y-107399435D01*
X112500090Y-107494938D01*
X112549525Y-107580562D01*
X112619438Y-107650475D01*
X112705062Y-107699910D01*
X112800565Y-107725500D01*
X112800567Y-107725500D01*
X112899432Y-107725500D01*
X112899435Y-107725500D01*
X112994938Y-107699910D01*
X113080562Y-107650475D01*
X113150475Y-107580562D01*
X113199910Y-107494938D01*
X113225500Y-107399435D01*
X113225500Y-107300565D01*
X113199910Y-107205062D01*
X113150475Y-107119438D01*
X113080562Y-107049525D01*
X112994938Y-107000090D01*
X112899435Y-106974500D01*
X112800565Y-106974500D01*
X112705062Y-107000090D01*
X112705060Y-107000091D01*
X112705059Y-107000091D01*
X112619436Y-107049526D01*
X112549526Y-107119436D01*
X112500091Y-107205059D01*
X112500091Y-107205060D01*
X112500090Y-107205062D01*
X112474500Y-107300565D01*
X108230586Y-107300565D01*
X108224610Y-107278262D01*
X108175175Y-107192638D01*
X108105262Y-107122725D01*
X108019638Y-107073290D01*
X107924135Y-107047700D01*
X107825265Y-107047700D01*
X107729762Y-107073290D01*
X107729760Y-107073291D01*
X107729759Y-107073291D01*
X107644136Y-107122726D01*
X107574226Y-107192636D01*
X107524791Y-107278259D01*
X107524791Y-107278260D01*
X107524790Y-107278262D01*
X107499200Y-107373765D01*
X106619208Y-107373765D01*
X106624374Y-107364818D01*
X106648600Y-107274403D01*
X106648600Y-107180797D01*
X106624374Y-107090382D01*
X106577571Y-107009318D01*
X106511382Y-106943129D01*
X106436526Y-106899910D01*
X106430319Y-106896326D01*
X106385110Y-106884213D01*
X106339903Y-106872100D01*
X106246297Y-106872100D01*
X106155880Y-106896326D01*
X106074818Y-106943129D01*
X106074815Y-106943131D01*
X106008631Y-107009315D01*
X106008629Y-107009318D01*
X105961826Y-107090380D01*
X105945948Y-107149640D01*
X105937600Y-107180797D01*
X104128331Y-107180797D01*
X104066138Y-107144890D01*
X103970635Y-107119300D01*
X103871765Y-107119300D01*
X103776262Y-107144890D01*
X103776260Y-107144891D01*
X103776259Y-107144891D01*
X103690636Y-107194326D01*
X103620726Y-107264236D01*
X103571291Y-107349859D01*
X103571291Y-107349860D01*
X103571290Y-107349862D01*
X103545700Y-107445365D01*
X99042900Y-107445365D01*
X99042900Y-107428165D01*
X99017310Y-107332662D01*
X98967875Y-107247038D01*
X98897962Y-107177125D01*
X98812338Y-107127690D01*
X98716835Y-107102100D01*
X98617965Y-107102100D01*
X98522462Y-107127690D01*
X98522460Y-107127691D01*
X98522459Y-107127691D01*
X98436836Y-107177126D01*
X98366926Y-107247036D01*
X98317491Y-107332659D01*
X98317491Y-107332660D01*
X98317490Y-107332662D01*
X98291900Y-107428165D01*
X98291900Y-107527035D01*
X98306923Y-107583100D01*
X98317490Y-107622539D01*
X98321512Y-107629504D01*
X98337983Y-107697405D01*
X98315131Y-107763431D01*
X98260209Y-107806621D01*
X98190655Y-107813262D01*
X98182032Y-107811278D01*
X98135836Y-107798900D01*
X98135835Y-107798900D01*
X98036965Y-107798900D01*
X97941462Y-107824490D01*
X97941460Y-107824491D01*
X97941459Y-107824491D01*
X97855836Y-107873926D01*
X97785926Y-107943836D01*
X97736491Y-108029459D01*
X97736491Y-108029460D01*
X97736490Y-108029462D01*
X97710900Y-108124965D01*
X75675756Y-108124965D01*
X75606480Y-107929335D01*
X75604477Y-107923170D01*
X75594228Y-107888570D01*
X75286757Y-106850565D01*
X108424500Y-106850565D01*
X108424500Y-106949435D01*
X108450090Y-107044938D01*
X108499525Y-107130562D01*
X108569438Y-107200475D01*
X108655062Y-107249910D01*
X108750565Y-107275500D01*
X108750567Y-107275500D01*
X108849432Y-107275500D01*
X108849435Y-107275500D01*
X108944938Y-107249910D01*
X109030562Y-107200475D01*
X109100475Y-107130562D01*
X109149910Y-107044938D01*
X109175500Y-106949435D01*
X109175500Y-106850565D01*
X109799500Y-106850565D01*
X109799500Y-106949435D01*
X109825090Y-107044938D01*
X109874525Y-107130562D01*
X109944438Y-107200475D01*
X110030062Y-107249910D01*
X110125565Y-107275500D01*
X110125567Y-107275500D01*
X110224432Y-107275500D01*
X110224435Y-107275500D01*
X110319938Y-107249910D01*
X110405562Y-107200475D01*
X110475475Y-107130562D01*
X110524910Y-107044938D01*
X110550500Y-106949435D01*
X110550500Y-106850565D01*
X110542488Y-106820665D01*
X113467400Y-106820665D01*
X113467400Y-106919535D01*
X113492990Y-107015038D01*
X113542425Y-107100662D01*
X113612338Y-107170575D01*
X113697962Y-107220010D01*
X113793465Y-107245600D01*
X113793467Y-107245600D01*
X113892332Y-107245600D01*
X113892335Y-107245600D01*
X113987838Y-107220010D01*
X114073462Y-107170575D01*
X114143375Y-107100662D01*
X114192810Y-107015038D01*
X114208826Y-106955265D01*
X115341400Y-106955265D01*
X115341400Y-107054135D01*
X115366990Y-107149638D01*
X115416425Y-107235262D01*
X115486338Y-107305175D01*
X115571962Y-107354610D01*
X115667465Y-107380200D01*
X115667467Y-107380200D01*
X115766332Y-107380200D01*
X115766335Y-107380200D01*
X115861838Y-107354610D01*
X115947462Y-107305175D01*
X116017375Y-107235262D01*
X116066810Y-107149638D01*
X116092400Y-107054135D01*
X116092400Y-106955265D01*
X116076861Y-106897273D01*
X116599500Y-106897273D01*
X116599500Y-107002727D01*
X116625742Y-107100662D01*
X116626793Y-107104586D01*
X116626794Y-107104589D01*
X116640132Y-107127691D01*
X116679520Y-107195913D01*
X116754087Y-107270480D01*
X116845413Y-107323207D01*
X116947273Y-107350500D01*
X116947275Y-107350500D01*
X117052725Y-107350500D01*
X117052727Y-107350500D01*
X117154587Y-107323207D01*
X117245913Y-107270480D01*
X117320480Y-107195913D01*
X117373207Y-107104587D01*
X117400500Y-107002727D01*
X117400500Y-106897273D01*
X117373207Y-106795413D01*
X117320480Y-106704087D01*
X117245913Y-106629520D01*
X117154587Y-106576793D01*
X117052727Y-106549500D01*
X116947273Y-106549500D01*
X116845413Y-106576793D01*
X116845410Y-106576794D01*
X116754085Y-106629521D01*
X116679521Y-106704085D01*
X116626794Y-106795410D01*
X116626793Y-106795413D01*
X116599500Y-106897273D01*
X116076861Y-106897273D01*
X116066810Y-106859762D01*
X116017375Y-106774138D01*
X115947462Y-106704225D01*
X115861838Y-106654790D01*
X115766335Y-106629200D01*
X115667465Y-106629200D01*
X115571962Y-106654790D01*
X115571960Y-106654791D01*
X115571959Y-106654791D01*
X115486336Y-106704226D01*
X115416426Y-106774136D01*
X115366991Y-106859759D01*
X115366991Y-106859760D01*
X115366990Y-106859762D01*
X115341400Y-106955265D01*
X114208826Y-106955265D01*
X114218400Y-106919535D01*
X114218400Y-106820665D01*
X114192810Y-106725162D01*
X114143375Y-106639538D01*
X114073462Y-106569625D01*
X113987838Y-106520190D01*
X113914597Y-106500565D01*
X118449500Y-106500565D01*
X118449500Y-106599435D01*
X118475090Y-106694938D01*
X118524525Y-106780562D01*
X118594438Y-106850475D01*
X118680062Y-106899910D01*
X118709906Y-106907906D01*
X118769566Y-106944271D01*
X118797587Y-106995587D01*
X118826793Y-107104588D01*
X118826794Y-107104589D01*
X118840132Y-107127691D01*
X118879520Y-107195913D01*
X118954087Y-107270480D01*
X119045413Y-107323207D01*
X119147273Y-107350500D01*
X119147275Y-107350500D01*
X119252725Y-107350500D01*
X119252727Y-107350500D01*
X119354587Y-107323207D01*
X119445913Y-107270480D01*
X119520480Y-107195913D01*
X119573207Y-107104587D01*
X119600500Y-107002727D01*
X119600500Y-106897273D01*
X119573207Y-106795413D01*
X119520480Y-106704087D01*
X119445913Y-106629520D01*
X119379059Y-106590922D01*
X119354589Y-106576794D01*
X119354588Y-106576793D01*
X119354587Y-106576793D01*
X119279736Y-106556737D01*
X119220077Y-106520373D01*
X119192057Y-106469058D01*
X119174910Y-106405062D01*
X119125475Y-106319438D01*
X119055562Y-106249525D01*
X118969938Y-106200090D01*
X118874435Y-106174500D01*
X118775565Y-106174500D01*
X118680062Y-106200090D01*
X118680060Y-106200091D01*
X118680059Y-106200091D01*
X118594436Y-106249526D01*
X118524526Y-106319436D01*
X118475091Y-106405059D01*
X118475091Y-106405060D01*
X118475090Y-106405062D01*
X118449500Y-106500565D01*
X113914597Y-106500565D01*
X113892335Y-106494600D01*
X113793465Y-106494600D01*
X113697962Y-106520190D01*
X113697960Y-106520191D01*
X113697959Y-106520191D01*
X113612336Y-106569626D01*
X113542426Y-106639536D01*
X113492991Y-106725159D01*
X113492991Y-106725160D01*
X113492990Y-106725162D01*
X113467400Y-106820665D01*
X110542488Y-106820665D01*
X110524910Y-106755062D01*
X110475475Y-106669438D01*
X110405562Y-106599525D01*
X110319938Y-106550090D01*
X110224435Y-106524500D01*
X110125565Y-106524500D01*
X110030062Y-106550090D01*
X110030060Y-106550091D01*
X110030059Y-106550091D01*
X109944436Y-106599526D01*
X109874526Y-106669436D01*
X109825091Y-106755059D01*
X109825091Y-106755060D01*
X109825090Y-106755062D01*
X109799500Y-106850565D01*
X109175500Y-106850565D01*
X109149910Y-106755062D01*
X109100475Y-106669438D01*
X109030562Y-106599525D01*
X108944938Y-106550090D01*
X108849435Y-106524500D01*
X108750565Y-106524500D01*
X108655062Y-106550090D01*
X108655060Y-106550091D01*
X108655059Y-106550091D01*
X108569436Y-106599526D01*
X108499526Y-106669436D01*
X108450091Y-106755059D01*
X108450091Y-106755060D01*
X108450090Y-106755062D01*
X108424500Y-106850565D01*
X75286757Y-106850565D01*
X75224916Y-106641793D01*
X75223248Y-106635567D01*
X75154825Y-106350565D01*
X79224500Y-106350565D01*
X79224500Y-106449435D01*
X79250090Y-106544938D01*
X79250091Y-106544939D01*
X79250091Y-106544940D01*
X79253065Y-106550091D01*
X79299525Y-106630562D01*
X79369438Y-106700475D01*
X79455062Y-106749910D01*
X79550565Y-106775500D01*
X79550567Y-106775500D01*
X79649432Y-106775500D01*
X79649435Y-106775500D01*
X79744938Y-106749910D01*
X79830562Y-106700475D01*
X79900475Y-106630562D01*
X79949910Y-106544938D01*
X79975500Y-106449435D01*
X79975500Y-106350565D01*
X79963228Y-106304765D01*
X99998000Y-106304765D01*
X99998000Y-106403635D01*
X100023590Y-106499138D01*
X100073025Y-106584762D01*
X100142938Y-106654675D01*
X100228562Y-106704110D01*
X100324065Y-106729700D01*
X100324067Y-106729700D01*
X100422932Y-106729700D01*
X100422935Y-106729700D01*
X100518438Y-106704110D01*
X100604062Y-106654675D01*
X100673975Y-106584762D01*
X100723410Y-106499138D01*
X100749000Y-106403635D01*
X100749000Y-106304765D01*
X100734772Y-106251665D01*
X101112800Y-106251665D01*
X101112800Y-106350535D01*
X101138390Y-106446038D01*
X101138391Y-106446039D01*
X101138391Y-106446040D01*
X101143254Y-106454463D01*
X101187825Y-106531662D01*
X101257738Y-106601575D01*
X101343362Y-106651010D01*
X101438865Y-106676600D01*
X101438867Y-106676600D01*
X101537732Y-106676600D01*
X101537735Y-106676600D01*
X101633238Y-106651010D01*
X101718862Y-106601575D01*
X101788775Y-106531662D01*
X101838210Y-106446038D01*
X101863800Y-106350535D01*
X101863800Y-106251665D01*
X101838210Y-106156162D01*
X101788775Y-106070538D01*
X101770302Y-106052065D01*
X102173600Y-106052065D01*
X102173600Y-106150935D01*
X102199190Y-106246438D01*
X102248625Y-106332062D01*
X102318538Y-106401975D01*
X102404162Y-106451410D01*
X102499665Y-106477000D01*
X102499667Y-106477000D01*
X102598532Y-106477000D01*
X102598535Y-106477000D01*
X102694038Y-106451410D01*
X102779662Y-106401975D01*
X102849575Y-106332062D01*
X102899010Y-106246438D01*
X102918295Y-106174465D01*
X103874500Y-106174465D01*
X103874500Y-106273335D01*
X103900090Y-106368838D01*
X103949525Y-106454462D01*
X104019438Y-106524375D01*
X104105062Y-106573810D01*
X104200565Y-106599400D01*
X104200567Y-106599400D01*
X104299432Y-106599400D01*
X104299435Y-106599400D01*
X104394938Y-106573810D01*
X104480562Y-106524375D01*
X104550475Y-106454462D01*
X104599910Y-106368838D01*
X104599910Y-106368837D01*
X104603974Y-106361799D01*
X104605415Y-106362631D01*
X104643208Y-106315721D01*
X104709499Y-106293648D01*
X104777200Y-106310918D01*
X104824818Y-106362049D01*
X104832324Y-106386478D01*
X104833797Y-106386084D01*
X104835900Y-106393932D01*
X104835900Y-106393935D01*
X104861490Y-106489438D01*
X104910925Y-106575062D01*
X104980838Y-106644975D01*
X105066462Y-106694410D01*
X105161965Y-106720000D01*
X105161967Y-106720000D01*
X105260832Y-106720000D01*
X105260835Y-106720000D01*
X105356338Y-106694410D01*
X105441962Y-106644975D01*
X105511875Y-106575062D01*
X105561310Y-106489438D01*
X105586900Y-106393935D01*
X105586900Y-106295065D01*
X105561310Y-106199562D01*
X105511875Y-106113938D01*
X105441962Y-106044025D01*
X105356338Y-105994590D01*
X105260835Y-105969000D01*
X105161965Y-105969000D01*
X105066462Y-105994590D01*
X105066460Y-105994591D01*
X105066459Y-105994591D01*
X104980836Y-106044026D01*
X104910926Y-106113936D01*
X104857426Y-106206601D01*
X104855987Y-106205770D01*
X104818172Y-106252692D01*
X104751876Y-106274752D01*
X104684178Y-106257469D01*
X104636571Y-106206329D01*
X104629090Y-106181917D01*
X104627603Y-106182316D01*
X104625500Y-106174467D01*
X104625500Y-106174465D01*
X104599910Y-106078962D01*
X104550475Y-105993338D01*
X104508334Y-105951197D01*
X108031400Y-105951197D01*
X108031400Y-106044803D01*
X108038570Y-106071562D01*
X108055626Y-106135219D01*
X108064700Y-106150935D01*
X108102429Y-106216282D01*
X108168618Y-106282471D01*
X108217889Y-106310918D01*
X108248741Y-106328731D01*
X108249682Y-106329274D01*
X108340097Y-106353500D01*
X108340099Y-106353500D01*
X108433701Y-106353500D01*
X108433703Y-106353500D01*
X108524118Y-106329274D01*
X108605182Y-106282471D01*
X108671371Y-106216282D01*
X108718174Y-106135218D01*
X108742400Y-106044803D01*
X108742400Y-105951197D01*
X108718174Y-105860782D01*
X108671371Y-105779718D01*
X108605182Y-105713529D01*
X108562131Y-105688673D01*
X108524119Y-105666726D01*
X108478910Y-105654613D01*
X108433703Y-105642500D01*
X108340097Y-105642500D01*
X108249680Y-105666726D01*
X108168618Y-105713529D01*
X108168615Y-105713531D01*
X108102431Y-105779715D01*
X108102429Y-105779718D01*
X108055626Y-105860780D01*
X108033928Y-105941762D01*
X108031400Y-105951197D01*
X104508334Y-105951197D01*
X104480562Y-105923425D01*
X104394938Y-105873990D01*
X104299435Y-105848400D01*
X104200565Y-105848400D01*
X104105062Y-105873990D01*
X104105060Y-105873991D01*
X104105059Y-105873991D01*
X104019436Y-105923426D01*
X103949526Y-105993336D01*
X103900091Y-106078959D01*
X103900091Y-106078960D01*
X103900090Y-106078962D01*
X103874500Y-106174465D01*
X102918295Y-106174465D01*
X102924600Y-106150935D01*
X102924600Y-106052065D01*
X102899010Y-105956562D01*
X102849575Y-105870938D01*
X102779662Y-105801025D01*
X102694038Y-105751590D01*
X102598535Y-105726000D01*
X102499665Y-105726000D01*
X102404162Y-105751590D01*
X102404160Y-105751591D01*
X102404159Y-105751591D01*
X102318536Y-105801026D01*
X102248626Y-105870936D01*
X102199191Y-105956559D01*
X102199191Y-105956560D01*
X102199190Y-105956562D01*
X102173600Y-106052065D01*
X101770302Y-106052065D01*
X101718862Y-106000625D01*
X101633238Y-105951190D01*
X101537735Y-105925600D01*
X101438865Y-105925600D01*
X101343362Y-105951190D01*
X101343360Y-105951191D01*
X101343359Y-105951191D01*
X101257736Y-106000626D01*
X101187826Y-106070536D01*
X101138391Y-106156159D01*
X101138391Y-106156160D01*
X101138390Y-106156162D01*
X101112800Y-106251665D01*
X100734772Y-106251665D01*
X100723410Y-106209262D01*
X100673975Y-106123638D01*
X100604062Y-106053725D01*
X100518438Y-106004290D01*
X100422935Y-105978700D01*
X100324065Y-105978700D01*
X100228562Y-106004290D01*
X100228560Y-106004291D01*
X100228559Y-106004291D01*
X100142936Y-106053726D01*
X100073026Y-106123636D01*
X100023591Y-106209259D01*
X100023591Y-106209260D01*
X100023590Y-106209262D01*
X99998000Y-106304765D01*
X79963228Y-106304765D01*
X79949910Y-106255062D01*
X79900475Y-106169438D01*
X79830562Y-106099525D01*
X79744938Y-106050090D01*
X79649435Y-106024500D01*
X79550565Y-106024500D01*
X79455062Y-106050090D01*
X79455060Y-106050091D01*
X79455059Y-106050091D01*
X79369436Y-106099526D01*
X79299526Y-106169436D01*
X79250091Y-106255059D01*
X79250091Y-106255060D01*
X79250090Y-106255062D01*
X79224500Y-106350565D01*
X75154825Y-106350565D01*
X74911272Y-105336091D01*
X74909923Y-105329746D01*
X74894012Y-105243900D01*
X74863740Y-105080565D01*
X79224500Y-105080565D01*
X79224500Y-105179435D01*
X79250090Y-105274938D01*
X79299525Y-105360562D01*
X79369438Y-105430475D01*
X79455062Y-105479910D01*
X79550565Y-105505500D01*
X79550567Y-105505500D01*
X79649432Y-105505500D01*
X79649435Y-105505500D01*
X79744938Y-105479910D01*
X79830562Y-105430475D01*
X79900475Y-105360562D01*
X79913059Y-105338765D01*
X81520600Y-105338765D01*
X81520600Y-105437635D01*
X81546190Y-105533138D01*
X81595625Y-105618762D01*
X81665538Y-105688675D01*
X81751162Y-105738110D01*
X81846665Y-105763700D01*
X81846667Y-105763700D01*
X81945532Y-105763700D01*
X81945535Y-105763700D01*
X82041038Y-105738110D01*
X82126662Y-105688675D01*
X82196575Y-105618762D01*
X82246010Y-105533138D01*
X82271600Y-105437635D01*
X82271600Y-105387165D01*
X89837000Y-105387165D01*
X89837000Y-105486035D01*
X89862590Y-105581538D01*
X89862591Y-105581539D01*
X89862591Y-105581540D01*
X89875837Y-105604482D01*
X89912025Y-105667162D01*
X89981938Y-105737075D01*
X90067562Y-105786510D01*
X90163065Y-105812100D01*
X90163067Y-105812100D01*
X90261932Y-105812100D01*
X90261935Y-105812100D01*
X90357438Y-105786510D01*
X90443062Y-105737075D01*
X90512975Y-105667162D01*
X90562410Y-105581538D01*
X90579203Y-105518865D01*
X92143700Y-105518865D01*
X92143700Y-105617735D01*
X92169290Y-105713238D01*
X92218725Y-105798862D01*
X92288638Y-105868775D01*
X92374262Y-105918210D01*
X92469765Y-105943800D01*
X92469767Y-105943800D01*
X92568632Y-105943800D01*
X92568635Y-105943800D01*
X92664138Y-105918210D01*
X92749762Y-105868775D01*
X92819675Y-105798862D01*
X92869110Y-105713238D01*
X92882902Y-105661765D01*
X99195800Y-105661765D01*
X99195800Y-105760635D01*
X99221390Y-105856138D01*
X99270825Y-105941762D01*
X99340738Y-106011675D01*
X99426362Y-106061110D01*
X99521865Y-106086700D01*
X99521867Y-106086700D01*
X99620732Y-106086700D01*
X99620735Y-106086700D01*
X99716238Y-106061110D01*
X99801862Y-106011675D01*
X99871775Y-105941762D01*
X99921210Y-105856138D01*
X99946800Y-105760635D01*
X99946800Y-105661765D01*
X99921210Y-105566262D01*
X99871775Y-105480638D01*
X99801862Y-105410725D01*
X99716238Y-105361290D01*
X99620735Y-105335700D01*
X99521865Y-105335700D01*
X99426362Y-105361290D01*
X99426360Y-105361291D01*
X99426359Y-105361291D01*
X99340736Y-105410726D01*
X99270826Y-105480636D01*
X99221391Y-105566259D01*
X99221391Y-105566260D01*
X99221390Y-105566262D01*
X99195800Y-105661765D01*
X92882902Y-105661765D01*
X92894700Y-105617735D01*
X92894700Y-105518865D01*
X92869110Y-105423362D01*
X92819675Y-105337738D01*
X92810134Y-105328197D01*
X110206400Y-105328197D01*
X110206400Y-105421803D01*
X110217545Y-105463397D01*
X110230626Y-105512219D01*
X110242704Y-105533138D01*
X110277429Y-105593282D01*
X110343618Y-105659471D01*
X110424682Y-105706274D01*
X110506294Y-105728141D01*
X110565953Y-105764504D01*
X110596483Y-105827350D01*
X110598200Y-105847915D01*
X110598200Y-105890435D01*
X110623790Y-105985938D01*
X110623791Y-105985939D01*
X110623791Y-105985940D01*
X110634386Y-106004291D01*
X110673225Y-106071562D01*
X110743138Y-106141475D01*
X110828762Y-106190910D01*
X110924265Y-106216500D01*
X110924267Y-106216500D01*
X111023132Y-106216500D01*
X111023135Y-106216500D01*
X111118638Y-106190910D01*
X111204262Y-106141475D01*
X111274175Y-106071562D01*
X111323610Y-105985938D01*
X111349200Y-105890435D01*
X111349200Y-105791565D01*
X111323610Y-105696062D01*
X111306580Y-105666565D01*
X113787600Y-105666565D01*
X113787600Y-105765435D01*
X113813190Y-105860938D01*
X113813191Y-105860939D01*
X113813191Y-105860940D01*
X113817715Y-105868775D01*
X113862625Y-105946562D01*
X113932538Y-106016475D01*
X114018162Y-106065910D01*
X114113665Y-106091500D01*
X114113667Y-106091500D01*
X114212532Y-106091500D01*
X114212535Y-106091500D01*
X114308038Y-106065910D01*
X114393662Y-106016475D01*
X114463575Y-105946562D01*
X114513010Y-105860938D01*
X114538600Y-105765435D01*
X114538600Y-105666565D01*
X114513010Y-105571062D01*
X114463575Y-105485438D01*
X114393662Y-105415525D01*
X114308038Y-105366090D01*
X114212535Y-105340500D01*
X114113665Y-105340500D01*
X114018162Y-105366090D01*
X114018160Y-105366091D01*
X114018159Y-105366091D01*
X113932536Y-105415526D01*
X113862626Y-105485436D01*
X113813191Y-105571059D01*
X113813191Y-105571060D01*
X113813190Y-105571062D01*
X113787600Y-105666565D01*
X111306580Y-105666565D01*
X111274175Y-105610438D01*
X111204262Y-105540525D01*
X111118638Y-105491090D01*
X111023135Y-105465500D01*
X111023132Y-105465500D01*
X111015284Y-105463397D01*
X111015766Y-105461597D01*
X110961303Y-105437494D01*
X110922841Y-105379163D01*
X110917400Y-105342834D01*
X110917400Y-105328199D01*
X110917400Y-105328197D01*
X110893174Y-105237782D01*
X110846371Y-105156718D01*
X110780182Y-105090529D01*
X110759757Y-105078737D01*
X110727867Y-105060324D01*
X110727866Y-105060323D01*
X110699121Y-105043727D01*
X110699118Y-105043726D01*
X110608703Y-105019500D01*
X110515097Y-105019500D01*
X110424680Y-105043726D01*
X110343618Y-105090529D01*
X110343615Y-105090531D01*
X110277431Y-105156715D01*
X110277429Y-105156718D01*
X110230626Y-105237780D01*
X110206400Y-105328197D01*
X92810134Y-105328197D01*
X92749762Y-105267825D01*
X92664138Y-105218390D01*
X92568635Y-105192800D01*
X92469765Y-105192800D01*
X92374262Y-105218390D01*
X92374260Y-105218391D01*
X92374259Y-105218391D01*
X92288636Y-105267826D01*
X92218726Y-105337736D01*
X92169291Y-105423359D01*
X92169291Y-105423360D01*
X92169290Y-105423362D01*
X92143700Y-105518865D01*
X90579203Y-105518865D01*
X90588000Y-105486035D01*
X90588000Y-105387165D01*
X90562410Y-105291662D01*
X90512975Y-105206038D01*
X90443062Y-105136125D01*
X90357438Y-105086690D01*
X90261935Y-105061100D01*
X90163065Y-105061100D01*
X90067562Y-105086690D01*
X90067560Y-105086691D01*
X90067559Y-105086691D01*
X89981936Y-105136126D01*
X89912026Y-105206036D01*
X89862591Y-105291659D01*
X89862591Y-105291660D01*
X89862590Y-105291662D01*
X89837000Y-105387165D01*
X82271600Y-105387165D01*
X82271600Y-105338765D01*
X82246010Y-105243262D01*
X82196575Y-105157638D01*
X82126662Y-105087725D01*
X82041038Y-105038290D01*
X81945535Y-105012700D01*
X81846665Y-105012700D01*
X81751162Y-105038290D01*
X81751160Y-105038291D01*
X81751159Y-105038291D01*
X81665536Y-105087726D01*
X81595626Y-105157636D01*
X81546191Y-105243259D01*
X81546191Y-105243260D01*
X81546190Y-105243262D01*
X81520600Y-105338765D01*
X79913059Y-105338765D01*
X79949910Y-105274938D01*
X79975500Y-105179435D01*
X79975500Y-105080565D01*
X79949910Y-104985062D01*
X79900475Y-104899438D01*
X79830562Y-104829525D01*
X79812272Y-104818965D01*
X96961800Y-104818965D01*
X96961800Y-104917835D01*
X96987390Y-105013338D01*
X97036825Y-105098962D01*
X97106738Y-105168875D01*
X97192362Y-105218310D01*
X97287865Y-105243900D01*
X97287867Y-105243900D01*
X97386732Y-105243900D01*
X97386735Y-105243900D01*
X97482238Y-105218310D01*
X97567862Y-105168875D01*
X97637775Y-105098962D01*
X97687210Y-105013338D01*
X97712800Y-104917835D01*
X97712800Y-104818965D01*
X97687210Y-104723462D01*
X97637775Y-104637838D01*
X97567862Y-104567925D01*
X97565333Y-104566465D01*
X99549000Y-104566465D01*
X99549000Y-104665335D01*
X99574590Y-104760838D01*
X99624025Y-104846462D01*
X99693938Y-104916375D01*
X99779562Y-104965810D01*
X99875065Y-104991400D01*
X99875067Y-104991400D01*
X99973932Y-104991400D01*
X99973935Y-104991400D01*
X100069438Y-104965810D01*
X100155062Y-104916375D01*
X100224975Y-104846462D01*
X100274410Y-104760838D01*
X100300000Y-104665335D01*
X100300000Y-104566465D01*
X100293864Y-104543565D01*
X101152000Y-104543565D01*
X101152000Y-104642435D01*
X101177590Y-104737938D01*
X101227025Y-104823562D01*
X101296938Y-104893475D01*
X101382562Y-104942910D01*
X101478065Y-104968500D01*
X101478067Y-104968500D01*
X101576932Y-104968500D01*
X101576935Y-104968500D01*
X101672438Y-104942910D01*
X101758062Y-104893475D01*
X101806072Y-104845465D01*
X108933500Y-104845465D01*
X108933500Y-104944335D01*
X108959090Y-105039838D01*
X109008525Y-105125462D01*
X109078438Y-105195375D01*
X109164062Y-105244810D01*
X109259565Y-105270400D01*
X109259567Y-105270400D01*
X109358432Y-105270400D01*
X109358435Y-105270400D01*
X109453938Y-105244810D01*
X109539562Y-105195375D01*
X109609475Y-105125462D01*
X109658910Y-105039838D01*
X109680017Y-104961065D01*
X117212400Y-104961065D01*
X117212400Y-105059935D01*
X117237990Y-105155438D01*
X117287425Y-105241062D01*
X117357338Y-105310975D01*
X117442962Y-105360410D01*
X117538465Y-105386000D01*
X117538467Y-105386000D01*
X117637332Y-105386000D01*
X117637335Y-105386000D01*
X117732838Y-105360410D01*
X117818462Y-105310975D01*
X117888375Y-105241062D01*
X117937810Y-105155438D01*
X117963400Y-105059935D01*
X117963400Y-104961065D01*
X117937810Y-104865562D01*
X117888375Y-104779938D01*
X117818462Y-104710025D01*
X117732838Y-104660590D01*
X117637335Y-104635000D01*
X117538465Y-104635000D01*
X117442962Y-104660590D01*
X117442960Y-104660591D01*
X117442959Y-104660591D01*
X117357336Y-104710026D01*
X117287426Y-104779936D01*
X117237991Y-104865559D01*
X117237991Y-104865560D01*
X117237990Y-104865562D01*
X117212400Y-104961065D01*
X109680017Y-104961065D01*
X109684500Y-104944335D01*
X109684500Y-104845465D01*
X109658910Y-104749962D01*
X109609475Y-104664338D01*
X109539562Y-104594425D01*
X109453938Y-104544990D01*
X109358435Y-104519400D01*
X109259565Y-104519400D01*
X109164062Y-104544990D01*
X109164060Y-104544991D01*
X109164059Y-104544991D01*
X109078436Y-104594426D01*
X109008526Y-104664336D01*
X108959091Y-104749959D01*
X108959091Y-104749960D01*
X108959090Y-104749962D01*
X108933500Y-104845465D01*
X101806072Y-104845465D01*
X101827975Y-104823562D01*
X101877410Y-104737938D01*
X101903000Y-104642435D01*
X101903000Y-104543565D01*
X101877410Y-104448062D01*
X101827975Y-104362438D01*
X101758062Y-104292525D01*
X101672438Y-104243090D01*
X101576935Y-104217500D01*
X101478065Y-104217500D01*
X101382562Y-104243090D01*
X101382560Y-104243091D01*
X101382559Y-104243091D01*
X101296936Y-104292526D01*
X101227026Y-104362436D01*
X101177591Y-104448059D01*
X101177591Y-104448060D01*
X101177590Y-104448062D01*
X101152000Y-104543565D01*
X100293864Y-104543565D01*
X100274410Y-104470962D01*
X100224975Y-104385338D01*
X100155062Y-104315425D01*
X100069438Y-104265990D01*
X99973935Y-104240400D01*
X99875065Y-104240400D01*
X99779562Y-104265990D01*
X99779560Y-104265991D01*
X99779559Y-104265991D01*
X99693936Y-104315426D01*
X99624026Y-104385336D01*
X99574591Y-104470959D01*
X99574591Y-104470960D01*
X99574590Y-104470962D01*
X99549000Y-104566465D01*
X97565333Y-104566465D01*
X97482238Y-104518490D01*
X97386735Y-104492900D01*
X97287865Y-104492900D01*
X97192362Y-104518490D01*
X97192360Y-104518491D01*
X97192359Y-104518491D01*
X97106736Y-104567926D01*
X97036826Y-104637836D01*
X96987391Y-104723459D01*
X96987391Y-104723460D01*
X96987390Y-104723462D01*
X96961800Y-104818965D01*
X79812272Y-104818965D01*
X79744938Y-104780090D01*
X79649435Y-104754500D01*
X79550565Y-104754500D01*
X79455062Y-104780090D01*
X79455060Y-104780091D01*
X79455059Y-104780091D01*
X79369436Y-104829526D01*
X79299526Y-104899436D01*
X79250091Y-104985059D01*
X79250091Y-104985060D01*
X79250090Y-104985062D01*
X79224500Y-105080565D01*
X74863740Y-105080565D01*
X74666378Y-104015698D01*
X74665372Y-104009342D01*
X74646127Y-103863165D01*
X92527100Y-103863165D01*
X92527100Y-103962035D01*
X92552690Y-104057538D01*
X92602125Y-104143162D01*
X92672038Y-104213075D01*
X92757662Y-104262510D01*
X92853165Y-104288100D01*
X92853167Y-104288100D01*
X92952032Y-104288100D01*
X92952035Y-104288100D01*
X93047538Y-104262510D01*
X93133162Y-104213075D01*
X93203075Y-104143162D01*
X93252510Y-104057538D01*
X93278100Y-103962035D01*
X93278100Y-103863165D01*
X93252510Y-103767662D01*
X93203075Y-103682038D01*
X93133162Y-103612125D01*
X93047538Y-103562690D01*
X92952035Y-103537100D01*
X92853165Y-103537100D01*
X92757662Y-103562690D01*
X92757660Y-103562691D01*
X92757659Y-103562691D01*
X92672036Y-103612126D01*
X92602126Y-103682036D01*
X92552691Y-103767659D01*
X92552691Y-103767660D01*
X92552690Y-103767662D01*
X92527100Y-103863165D01*
X74646127Y-103863165D01*
X74600865Y-103519365D01*
X98102400Y-103519365D01*
X98102400Y-103618235D01*
X98127990Y-103713738D01*
X98127991Y-103713739D01*
X98127991Y-103713740D01*
X98141237Y-103736682D01*
X98177425Y-103799362D01*
X98247338Y-103869275D01*
X98332962Y-103918710D01*
X98428465Y-103944300D01*
X98428467Y-103944300D01*
X98527332Y-103944300D01*
X98527335Y-103944300D01*
X98622838Y-103918710D01*
X98708462Y-103869275D01*
X98778375Y-103799362D01*
X98827810Y-103713738D01*
X98845086Y-103649265D01*
X103486400Y-103649265D01*
X103486400Y-103748135D01*
X103511990Y-103843638D01*
X103561425Y-103929262D01*
X103631338Y-103999175D01*
X103716962Y-104048610D01*
X103812465Y-104074200D01*
X103812467Y-104074200D01*
X103911332Y-104074200D01*
X103911335Y-104074200D01*
X103915198Y-104073165D01*
X104908600Y-104073165D01*
X104908600Y-104172035D01*
X104934190Y-104267538D01*
X104983625Y-104353162D01*
X105053538Y-104423075D01*
X105139162Y-104472510D01*
X105234665Y-104498100D01*
X105234667Y-104498100D01*
X105333532Y-104498100D01*
X105333535Y-104498100D01*
X105429038Y-104472510D01*
X105514662Y-104423075D01*
X105584575Y-104353162D01*
X105634010Y-104267538D01*
X105659600Y-104172035D01*
X105659600Y-104073165D01*
X105650704Y-104039965D01*
X110305800Y-104039965D01*
X110305800Y-104138835D01*
X110331390Y-104234338D01*
X110331391Y-104234339D01*
X110331391Y-104234340D01*
X110344637Y-104257282D01*
X110380825Y-104319962D01*
X110450738Y-104389875D01*
X110536362Y-104439310D01*
X110631865Y-104464900D01*
X110631867Y-104464900D01*
X110730732Y-104464900D01*
X110730735Y-104464900D01*
X110826238Y-104439310D01*
X110911862Y-104389875D01*
X110981775Y-104319962D01*
X111031210Y-104234338D01*
X111056800Y-104138835D01*
X111056800Y-104110065D01*
X115395300Y-104110065D01*
X115395300Y-104208935D01*
X115420890Y-104304438D01*
X115420891Y-104304439D01*
X115420891Y-104304440D01*
X115427233Y-104315425D01*
X115470325Y-104390062D01*
X115540238Y-104459975D01*
X115625862Y-104509410D01*
X115721365Y-104535000D01*
X115721367Y-104535000D01*
X115820232Y-104535000D01*
X115820235Y-104535000D01*
X115915738Y-104509410D01*
X116001362Y-104459975D01*
X116071275Y-104390062D01*
X116120710Y-104304438D01*
X116146300Y-104208935D01*
X116146300Y-104110065D01*
X116120710Y-104014562D01*
X116074260Y-103934108D01*
X121599500Y-103934108D01*
X121599500Y-104065892D01*
X121601726Y-104074200D01*
X121633608Y-104193187D01*
X121657367Y-104234338D01*
X121699500Y-104307314D01*
X121792686Y-104400500D01*
X121906814Y-104466392D01*
X122034108Y-104500500D01*
X122034110Y-104500500D01*
X122165890Y-104500500D01*
X122165892Y-104500500D01*
X122293186Y-104466392D01*
X122407314Y-104400500D01*
X122500500Y-104307314D01*
X122566392Y-104193186D01*
X122600500Y-104065892D01*
X122600500Y-103934108D01*
X123399500Y-103934108D01*
X123399500Y-104065892D01*
X123401726Y-104074200D01*
X123433608Y-104193187D01*
X123457367Y-104234338D01*
X123499500Y-104307314D01*
X123592686Y-104400500D01*
X123706814Y-104466392D01*
X123834108Y-104500500D01*
X123834110Y-104500500D01*
X123965890Y-104500500D01*
X123965892Y-104500500D01*
X124093186Y-104466392D01*
X124207314Y-104400500D01*
X124300500Y-104307314D01*
X124366392Y-104193186D01*
X124400500Y-104065892D01*
X124400500Y-103934108D01*
X124366392Y-103806814D01*
X124300500Y-103692686D01*
X124207314Y-103599500D01*
X124128094Y-103553762D01*
X124093187Y-103533608D01*
X124029539Y-103516554D01*
X123965892Y-103499500D01*
X123834108Y-103499500D01*
X123706812Y-103533608D01*
X123592686Y-103599500D01*
X123592683Y-103599502D01*
X123499502Y-103692683D01*
X123499500Y-103692686D01*
X123433608Y-103806812D01*
X123403626Y-103918708D01*
X123399500Y-103934108D01*
X122600500Y-103934108D01*
X122566392Y-103806814D01*
X122500500Y-103692686D01*
X122407314Y-103599500D01*
X122328094Y-103553762D01*
X122293187Y-103533608D01*
X122229539Y-103516554D01*
X122165892Y-103499500D01*
X122034108Y-103499500D01*
X121906812Y-103533608D01*
X121792686Y-103599500D01*
X121792683Y-103599502D01*
X121699502Y-103692683D01*
X121699500Y-103692686D01*
X121633608Y-103806812D01*
X121603626Y-103918708D01*
X121599500Y-103934108D01*
X116074260Y-103934108D01*
X116071275Y-103928938D01*
X116001362Y-103859025D01*
X115915738Y-103809590D01*
X115820235Y-103784000D01*
X115721365Y-103784000D01*
X115625862Y-103809590D01*
X115625860Y-103809591D01*
X115625859Y-103809591D01*
X115540236Y-103859026D01*
X115470326Y-103928936D01*
X115420891Y-104014559D01*
X115420891Y-104014560D01*
X115420890Y-104014562D01*
X115395300Y-104110065D01*
X111056800Y-104110065D01*
X111056800Y-104039965D01*
X111031210Y-103944462D01*
X110981775Y-103858838D01*
X110911862Y-103788925D01*
X110826238Y-103739490D01*
X110730735Y-103713900D01*
X110631865Y-103713900D01*
X110536362Y-103739490D01*
X110536360Y-103739491D01*
X110536359Y-103739491D01*
X110450736Y-103788926D01*
X110380826Y-103858836D01*
X110331391Y-103944459D01*
X110331391Y-103944460D01*
X110331390Y-103944462D01*
X110305800Y-104039965D01*
X105650704Y-104039965D01*
X105634010Y-103977662D01*
X105584575Y-103892038D01*
X105514662Y-103822125D01*
X105429038Y-103772690D01*
X105333535Y-103747100D01*
X105234665Y-103747100D01*
X105139162Y-103772690D01*
X105139160Y-103772691D01*
X105139159Y-103772691D01*
X105053536Y-103822126D01*
X104983626Y-103892036D01*
X104934191Y-103977659D01*
X104934191Y-103977660D01*
X104934190Y-103977662D01*
X104908600Y-104073165D01*
X103915198Y-104073165D01*
X104006838Y-104048610D01*
X104092462Y-103999175D01*
X104162375Y-103929262D01*
X104211810Y-103843638D01*
X104237400Y-103748135D01*
X104237400Y-103649265D01*
X104211810Y-103553762D01*
X104162375Y-103468138D01*
X104092462Y-103398225D01*
X104006838Y-103348790D01*
X103911335Y-103323200D01*
X103812465Y-103323200D01*
X103716962Y-103348790D01*
X103716960Y-103348791D01*
X103716959Y-103348791D01*
X103631336Y-103398226D01*
X103561426Y-103468136D01*
X103511991Y-103553759D01*
X103511991Y-103553760D01*
X103511990Y-103553762D01*
X103486400Y-103649265D01*
X98845086Y-103649265D01*
X98853400Y-103618235D01*
X98853400Y-103519365D01*
X98827810Y-103423862D01*
X98827807Y-103423858D01*
X98826053Y-103417309D01*
X98827716Y-103347459D01*
X98866878Y-103289596D01*
X98883821Y-103277833D01*
X98901762Y-103267475D01*
X98971675Y-103197562D01*
X99021110Y-103111938D01*
X99046700Y-103016435D01*
X99046700Y-103007600D01*
X99059063Y-102965497D01*
X109610800Y-102965497D01*
X109610800Y-103059102D01*
X109635026Y-103149519D01*
X109651088Y-103177338D01*
X109681829Y-103230582D01*
X109748018Y-103296771D01*
X109829082Y-103343574D01*
X109919497Y-103367800D01*
X109919499Y-103367800D01*
X110013101Y-103367800D01*
X110013103Y-103367800D01*
X110103518Y-103343574D01*
X110184582Y-103296771D01*
X110250771Y-103230582D01*
X110297574Y-103149518D01*
X110321800Y-103059103D01*
X110321800Y-102965497D01*
X110319541Y-102957065D01*
X113314500Y-102957065D01*
X113314500Y-103055935D01*
X113340090Y-103151438D01*
X113340091Y-103151439D01*
X113340091Y-103151440D01*
X113342917Y-103156335D01*
X113389525Y-103237062D01*
X113459438Y-103306975D01*
X113545062Y-103356410D01*
X113640565Y-103382000D01*
X113640567Y-103382000D01*
X113739432Y-103382000D01*
X113739435Y-103382000D01*
X113834938Y-103356410D01*
X113920562Y-103306975D01*
X113977069Y-103250468D01*
X114038392Y-103216983D01*
X114108084Y-103221967D01*
X114152431Y-103250468D01*
X114202338Y-103300375D01*
X114287962Y-103349810D01*
X114383465Y-103375400D01*
X114383467Y-103375400D01*
X114482332Y-103375400D01*
X114482335Y-103375400D01*
X114577838Y-103349810D01*
X114663462Y-103300375D01*
X114733375Y-103230462D01*
X114782810Y-103144838D01*
X114808400Y-103049335D01*
X114808400Y-102950465D01*
X114803255Y-102931265D01*
X115242300Y-102931265D01*
X115242300Y-103030135D01*
X115267890Y-103125638D01*
X115317325Y-103211262D01*
X115387238Y-103281175D01*
X115472862Y-103330610D01*
X115568365Y-103356200D01*
X115568367Y-103356200D01*
X115667232Y-103356200D01*
X115667235Y-103356200D01*
X115762738Y-103330610D01*
X115848362Y-103281175D01*
X115918275Y-103211262D01*
X115967710Y-103125638D01*
X115993300Y-103030135D01*
X115993300Y-103029165D01*
X118352800Y-103029165D01*
X118352800Y-103128035D01*
X118378390Y-103223538D01*
X118378391Y-103223539D01*
X118378391Y-103223540D01*
X118382388Y-103230463D01*
X118427825Y-103309162D01*
X118497738Y-103379075D01*
X118583362Y-103428510D01*
X118678865Y-103454100D01*
X118678867Y-103454100D01*
X118777732Y-103454100D01*
X118777735Y-103454100D01*
X118873238Y-103428510D01*
X118958862Y-103379075D01*
X119028775Y-103309162D01*
X119078210Y-103223538D01*
X119103800Y-103128035D01*
X119103800Y-103029165D01*
X119078210Y-102933662D01*
X119028775Y-102848038D01*
X118958862Y-102778125D01*
X118873238Y-102728690D01*
X118777735Y-102703100D01*
X118678865Y-102703100D01*
X118583362Y-102728690D01*
X118583360Y-102728691D01*
X118583359Y-102728691D01*
X118497736Y-102778126D01*
X118427826Y-102848036D01*
X118378391Y-102933659D01*
X118378391Y-102933660D01*
X118378390Y-102933662D01*
X118352800Y-103029165D01*
X115993300Y-103029165D01*
X115993300Y-102931265D01*
X115967710Y-102835762D01*
X115918275Y-102750138D01*
X115848362Y-102680225D01*
X115762740Y-102630791D01*
X115762739Y-102630790D01*
X115761239Y-102630388D01*
X115667235Y-102605200D01*
X115568365Y-102605200D01*
X115472862Y-102630790D01*
X115472860Y-102630791D01*
X115472859Y-102630791D01*
X115387236Y-102680226D01*
X115317326Y-102750136D01*
X115267891Y-102835759D01*
X115267891Y-102835760D01*
X115267890Y-102835762D01*
X115242300Y-102931265D01*
X114803255Y-102931265D01*
X114782810Y-102854962D01*
X114733375Y-102769338D01*
X114663462Y-102699425D01*
X114577838Y-102649990D01*
X114482335Y-102624400D01*
X114383465Y-102624400D01*
X114287962Y-102649990D01*
X114287960Y-102649991D01*
X114287959Y-102649991D01*
X114202336Y-102699426D01*
X114145831Y-102755932D01*
X114084508Y-102789417D01*
X114014816Y-102784433D01*
X113970469Y-102755932D01*
X113920563Y-102706026D01*
X113920562Y-102706025D01*
X113834938Y-102656590D01*
X113739435Y-102631000D01*
X113640565Y-102631000D01*
X113545062Y-102656590D01*
X113545060Y-102656591D01*
X113545059Y-102656591D01*
X113459436Y-102706026D01*
X113389526Y-102775936D01*
X113340091Y-102861559D01*
X113340091Y-102861560D01*
X113340090Y-102861562D01*
X113314500Y-102957065D01*
X110319541Y-102957065D01*
X110297574Y-102875082D01*
X110250771Y-102794018D01*
X110184582Y-102727829D01*
X110135386Y-102699425D01*
X110103519Y-102681026D01*
X110049398Y-102666525D01*
X110013103Y-102656800D01*
X109919497Y-102656800D01*
X109829080Y-102681026D01*
X109748018Y-102727829D01*
X109748015Y-102727831D01*
X109681831Y-102794015D01*
X109681829Y-102794018D01*
X109635026Y-102875080D01*
X109610800Y-102965497D01*
X99059063Y-102965497D01*
X99066385Y-102940561D01*
X99119189Y-102894806D01*
X99136022Y-102888548D01*
X99153008Y-102883600D01*
X99171735Y-102883600D01*
X99267238Y-102858010D01*
X99352862Y-102808575D01*
X99422775Y-102738662D01*
X99472210Y-102653038D01*
X99497800Y-102557535D01*
X99497800Y-102517865D01*
X120716400Y-102517865D01*
X120716400Y-102616735D01*
X120741990Y-102712238D01*
X120791425Y-102797862D01*
X120861338Y-102867775D01*
X120946962Y-102917210D01*
X121042465Y-102942800D01*
X121042467Y-102942800D01*
X121141332Y-102942800D01*
X121141335Y-102942800D01*
X121236838Y-102917210D01*
X121322462Y-102867775D01*
X121392375Y-102797862D01*
X121441810Y-102712238D01*
X121467400Y-102616735D01*
X121467400Y-102517865D01*
X121441810Y-102422362D01*
X121392375Y-102336738D01*
X121322462Y-102266825D01*
X121236838Y-102217390D01*
X121141335Y-102191800D01*
X121042465Y-102191800D01*
X120946962Y-102217390D01*
X120946960Y-102217391D01*
X120946959Y-102217391D01*
X120861336Y-102266826D01*
X120791426Y-102336736D01*
X120741991Y-102422359D01*
X120741991Y-102422360D01*
X120741990Y-102422362D01*
X120716400Y-102517865D01*
X99497800Y-102517865D01*
X99497800Y-102458665D01*
X99472210Y-102363162D01*
X99422775Y-102277538D01*
X99352862Y-102207625D01*
X99267238Y-102158190D01*
X99171735Y-102132600D01*
X99072865Y-102132600D01*
X98977362Y-102158190D01*
X98977360Y-102158191D01*
X98977359Y-102158191D01*
X98891736Y-102207626D01*
X98821826Y-102277536D01*
X98772391Y-102363159D01*
X98772391Y-102363160D01*
X98772390Y-102363162D01*
X98746800Y-102458665D01*
X98746800Y-102458667D01*
X98746800Y-102467500D01*
X98727115Y-102534539D01*
X98674311Y-102580294D01*
X98629765Y-102589984D01*
X98629825Y-102590439D01*
X98624383Y-102591155D01*
X98622800Y-102591500D01*
X98621765Y-102591500D01*
X98526262Y-102617090D01*
X98526260Y-102617091D01*
X98526259Y-102617091D01*
X98440636Y-102666526D01*
X98370726Y-102736436D01*
X98321291Y-102822059D01*
X98321291Y-102822060D01*
X98321290Y-102822062D01*
X98295700Y-102917565D01*
X98295700Y-103016435D01*
X98307133Y-103059102D01*
X98323046Y-103118491D01*
X98321383Y-103188341D01*
X98282220Y-103246203D01*
X98265274Y-103257969D01*
X98247337Y-103268325D01*
X98177426Y-103338236D01*
X98127991Y-103423859D01*
X98127991Y-103423860D01*
X98127990Y-103423862D01*
X98102400Y-103519365D01*
X74600865Y-103519365D01*
X74492541Y-102696565D01*
X78607200Y-102696565D01*
X78607200Y-102795435D01*
X78632790Y-102890938D01*
X78682225Y-102976562D01*
X78752138Y-103046475D01*
X78837762Y-103095910D01*
X78933265Y-103121500D01*
X78933267Y-103121500D01*
X79032132Y-103121500D01*
X79032135Y-103121500D01*
X79127638Y-103095910D01*
X79194227Y-103057465D01*
X84029600Y-103057465D01*
X84029600Y-103156335D01*
X84055190Y-103251838D01*
X84104625Y-103337462D01*
X84174538Y-103407375D01*
X84260162Y-103456810D01*
X84355665Y-103482400D01*
X84355667Y-103482400D01*
X84454532Y-103482400D01*
X84454535Y-103482400D01*
X84550038Y-103456810D01*
X84635662Y-103407375D01*
X84705575Y-103337462D01*
X84755010Y-103251838D01*
X84780600Y-103156335D01*
X84780600Y-103057465D01*
X84760638Y-102982965D01*
X93270200Y-102982965D01*
X93270200Y-103081835D01*
X93295790Y-103177338D01*
X93295791Y-103177339D01*
X93295791Y-103177340D01*
X93307466Y-103197562D01*
X93345225Y-103262962D01*
X93415138Y-103332875D01*
X93500762Y-103382310D01*
X93596265Y-103407900D01*
X93596267Y-103407900D01*
X93695132Y-103407900D01*
X93695135Y-103407900D01*
X93790638Y-103382310D01*
X93876262Y-103332875D01*
X93946175Y-103262962D01*
X93995610Y-103177338D01*
X94021200Y-103081835D01*
X94021200Y-102982965D01*
X93995610Y-102887462D01*
X93946175Y-102801838D01*
X93876262Y-102731925D01*
X93790638Y-102682490D01*
X93695135Y-102656900D01*
X93596265Y-102656900D01*
X93500762Y-102682490D01*
X93500760Y-102682491D01*
X93500759Y-102682491D01*
X93415136Y-102731926D01*
X93345226Y-102801836D01*
X93295791Y-102887459D01*
X93295791Y-102887460D01*
X93295790Y-102887462D01*
X93270200Y-102982965D01*
X84760638Y-102982965D01*
X84755010Y-102961962D01*
X84705575Y-102876338D01*
X84635662Y-102806425D01*
X84550038Y-102756990D01*
X84454535Y-102731400D01*
X84355665Y-102731400D01*
X84260162Y-102756990D01*
X84260160Y-102756991D01*
X84260159Y-102756991D01*
X84174536Y-102806426D01*
X84104626Y-102876336D01*
X84055191Y-102961959D01*
X84055191Y-102961960D01*
X84055190Y-102961962D01*
X84029600Y-103057465D01*
X79194227Y-103057465D01*
X79213262Y-103046475D01*
X79283175Y-102976562D01*
X79332610Y-102890938D01*
X79358200Y-102795435D01*
X79358200Y-102696565D01*
X79332610Y-102601062D01*
X79283175Y-102515438D01*
X79213262Y-102445525D01*
X79127638Y-102396090D01*
X79032135Y-102370500D01*
X78933265Y-102370500D01*
X78837762Y-102396090D01*
X78837760Y-102396091D01*
X78837759Y-102396091D01*
X78752136Y-102445526D01*
X78682226Y-102515436D01*
X78632791Y-102601059D01*
X78632791Y-102601060D01*
X78632790Y-102601062D01*
X78607200Y-102696565D01*
X74492541Y-102696565D01*
X74490933Y-102684350D01*
X74490261Y-102677958D01*
X74420028Y-101785565D01*
X102744200Y-101785565D01*
X102744200Y-101884435D01*
X102769790Y-101979938D01*
X102819225Y-102065562D01*
X102889138Y-102135475D01*
X102974762Y-102184910D01*
X103070265Y-102210500D01*
X103070267Y-102210500D01*
X103169132Y-102210500D01*
X103169135Y-102210500D01*
X103264638Y-102184910D01*
X103350262Y-102135475D01*
X103420175Y-102065562D01*
X103469610Y-101979938D01*
X103495200Y-101884435D01*
X103495200Y-101785565D01*
X103478721Y-101724065D01*
X115588000Y-101724065D01*
X115588000Y-101822935D01*
X115613590Y-101918438D01*
X115663025Y-102004062D01*
X115732938Y-102073975D01*
X115818562Y-102123410D01*
X115914065Y-102149000D01*
X115914067Y-102149000D01*
X116012932Y-102149000D01*
X116012935Y-102149000D01*
X116108438Y-102123410D01*
X116194062Y-102073975D01*
X116263975Y-102004062D01*
X116313410Y-101918438D01*
X116339000Y-101822935D01*
X116339000Y-101724065D01*
X116313410Y-101628562D01*
X116263975Y-101542938D01*
X116194062Y-101473025D01*
X116108438Y-101423590D01*
X116012935Y-101398000D01*
X115914065Y-101398000D01*
X115818562Y-101423590D01*
X115818560Y-101423591D01*
X115818559Y-101423591D01*
X115732936Y-101473026D01*
X115663026Y-101542936D01*
X115613591Y-101628559D01*
X115613591Y-101628560D01*
X115613590Y-101628562D01*
X115588000Y-101724065D01*
X103478721Y-101724065D01*
X103469610Y-101690062D01*
X103420175Y-101604438D01*
X103350262Y-101534525D01*
X103264638Y-101485090D01*
X103169135Y-101459500D01*
X103070265Y-101459500D01*
X102974762Y-101485090D01*
X102974760Y-101485091D01*
X102974759Y-101485091D01*
X102889136Y-101534526D01*
X102819226Y-101604436D01*
X102769791Y-101690059D01*
X102769791Y-101690060D01*
X102769790Y-101690062D01*
X102744200Y-101785565D01*
X74420028Y-101785565D01*
X74385406Y-101345655D01*
X74385067Y-101339175D01*
X74379275Y-101117965D01*
X78603800Y-101117965D01*
X78603800Y-101216835D01*
X78629390Y-101312338D01*
X78678825Y-101397962D01*
X78748738Y-101467875D01*
X78834362Y-101517310D01*
X78929865Y-101542900D01*
X78929867Y-101542900D01*
X79028732Y-101542900D01*
X79028735Y-101542900D01*
X79124238Y-101517310D01*
X79209862Y-101467875D01*
X79279775Y-101397962D01*
X79329210Y-101312338D01*
X79354800Y-101216835D01*
X79354800Y-101117965D01*
X79329210Y-101022462D01*
X79279775Y-100936838D01*
X79209862Y-100866925D01*
X79124238Y-100817490D01*
X79028735Y-100791900D01*
X78929865Y-100791900D01*
X78834362Y-100817490D01*
X78834360Y-100817491D01*
X78834359Y-100817491D01*
X78748736Y-100866926D01*
X78678826Y-100936836D01*
X78629391Y-101022459D01*
X78629391Y-101022460D01*
X78629390Y-101022462D01*
X78603800Y-101117965D01*
X74379275Y-101117965D01*
X74379147Y-101113084D01*
X74373130Y-100883292D01*
X74368795Y-100717765D01*
X97543200Y-100717765D01*
X97543200Y-100816635D01*
X97568790Y-100912138D01*
X97618225Y-100997762D01*
X97688138Y-101067675D01*
X97773762Y-101117110D01*
X97869265Y-101142700D01*
X97869267Y-101142700D01*
X97968132Y-101142700D01*
X97968135Y-101142700D01*
X98063638Y-101117110D01*
X98149262Y-101067675D01*
X98219175Y-100997762D01*
X98241574Y-100958965D01*
X100658600Y-100958965D01*
X100658600Y-101057835D01*
X100684190Y-101153338D01*
X100733625Y-101238962D01*
X100803538Y-101308875D01*
X100889162Y-101358310D01*
X100984665Y-101383900D01*
X100984667Y-101383900D01*
X101083532Y-101383900D01*
X101083535Y-101383900D01*
X101179038Y-101358310D01*
X101180549Y-101357437D01*
X101181984Y-101357089D01*
X101186548Y-101355199D01*
X101186842Y-101355910D01*
X101248446Y-101340961D01*
X101314474Y-101363809D01*
X101349940Y-101402820D01*
X101385125Y-101463762D01*
X101455038Y-101533675D01*
X101540662Y-101583110D01*
X101636165Y-101608700D01*
X101636167Y-101608700D01*
X101735032Y-101608700D01*
X101735035Y-101608700D01*
X101830538Y-101583110D01*
X101916162Y-101533675D01*
X101986075Y-101463762D01*
X102035510Y-101378138D01*
X102061100Y-101282635D01*
X102061100Y-101183765D01*
X102035510Y-101088262D01*
X101986075Y-101002638D01*
X101916162Y-100932725D01*
X101830538Y-100883290D01*
X101735035Y-100857700D01*
X101636165Y-100857700D01*
X101540662Y-100883290D01*
X101540660Y-100883290D01*
X101540660Y-100883291D01*
X101540657Y-100883292D01*
X101539137Y-100884170D01*
X101537692Y-100884520D01*
X101533152Y-100886401D01*
X101532858Y-100885692D01*
X101471236Y-100900637D01*
X101405211Y-100877780D01*
X101369759Y-100838780D01*
X101334575Y-100777838D01*
X101264662Y-100707925D01*
X101179038Y-100658490D01*
X101083535Y-100632900D01*
X100984665Y-100632900D01*
X100889162Y-100658490D01*
X100889160Y-100658491D01*
X100889159Y-100658491D01*
X100803536Y-100707926D01*
X100733626Y-100777836D01*
X100684191Y-100863459D01*
X100684191Y-100863460D01*
X100684190Y-100863462D01*
X100658600Y-100958965D01*
X98241574Y-100958965D01*
X98268610Y-100912138D01*
X98294200Y-100816635D01*
X98294200Y-100717765D01*
X98268610Y-100622262D01*
X98219175Y-100536638D01*
X98149262Y-100466725D01*
X98083513Y-100428765D01*
X112174400Y-100428765D01*
X112174400Y-100527635D01*
X112199990Y-100623138D01*
X112249425Y-100708762D01*
X112319338Y-100778675D01*
X112404962Y-100828110D01*
X112500465Y-100853700D01*
X112500467Y-100853700D01*
X112599332Y-100853700D01*
X112599335Y-100853700D01*
X112694838Y-100828110D01*
X112780462Y-100778675D01*
X112850375Y-100708762D01*
X112899810Y-100623138D01*
X112925400Y-100527635D01*
X112925400Y-100428765D01*
X112899810Y-100333262D01*
X112850375Y-100247638D01*
X112780462Y-100177725D01*
X112694838Y-100128290D01*
X112599335Y-100102700D01*
X112500465Y-100102700D01*
X112404962Y-100128290D01*
X112404960Y-100128291D01*
X112404959Y-100128291D01*
X112319336Y-100177726D01*
X112249426Y-100247636D01*
X112199991Y-100333259D01*
X112199991Y-100333260D01*
X112199990Y-100333262D01*
X112174400Y-100428765D01*
X98083513Y-100428765D01*
X98063638Y-100417290D01*
X97968135Y-100391700D01*
X97869265Y-100391700D01*
X97773762Y-100417290D01*
X97773760Y-100417291D01*
X97773759Y-100417291D01*
X97688136Y-100466726D01*
X97618226Y-100536636D01*
X97568791Y-100622259D01*
X97568791Y-100622260D01*
X97568790Y-100622262D01*
X97543200Y-100717765D01*
X74368795Y-100717765D01*
X74350084Y-100003207D01*
X74350084Y-99996792D01*
X74369501Y-99255265D01*
X99766500Y-99255265D01*
X99766500Y-99354135D01*
X99792090Y-99449638D01*
X99841525Y-99535262D01*
X99911438Y-99605175D01*
X99997062Y-99654610D01*
X100092565Y-99680200D01*
X100092567Y-99680200D01*
X100191432Y-99680200D01*
X100191435Y-99680200D01*
X100286938Y-99654610D01*
X100372562Y-99605175D01*
X100442475Y-99535262D01*
X100491910Y-99449638D01*
X100517500Y-99354135D01*
X100517500Y-99350565D01*
X106597200Y-99350565D01*
X106597200Y-99449435D01*
X106622790Y-99544938D01*
X106672225Y-99630562D01*
X106742138Y-99700475D01*
X106827762Y-99749910D01*
X106923265Y-99775500D01*
X106923267Y-99775500D01*
X107022132Y-99775500D01*
X107022135Y-99775500D01*
X107117638Y-99749910D01*
X107203262Y-99700475D01*
X107273175Y-99630562D01*
X107322610Y-99544938D01*
X107348200Y-99449435D01*
X107348200Y-99350565D01*
X107322610Y-99255062D01*
X107273175Y-99169438D01*
X107203262Y-99099525D01*
X107117638Y-99050090D01*
X107022135Y-99024500D01*
X106923265Y-99024500D01*
X106827762Y-99050090D01*
X106827760Y-99050091D01*
X106827759Y-99050091D01*
X106742136Y-99099526D01*
X106672226Y-99169436D01*
X106622791Y-99255059D01*
X106622791Y-99255060D01*
X106622790Y-99255062D01*
X106597200Y-99350565D01*
X100517500Y-99350565D01*
X100517500Y-99255265D01*
X100491910Y-99159762D01*
X100442475Y-99074138D01*
X100372562Y-99004225D01*
X100286938Y-98954790D01*
X100191435Y-98929200D01*
X100092565Y-98929200D01*
X99997062Y-98954790D01*
X99997060Y-98954791D01*
X99997059Y-98954791D01*
X99911436Y-99004226D01*
X99841526Y-99074136D01*
X99792091Y-99159759D01*
X99792091Y-99159760D01*
X99792090Y-99159762D01*
X99766500Y-99255265D01*
X74369501Y-99255265D01*
X74383241Y-98730565D01*
X96113000Y-98730565D01*
X96113000Y-98829435D01*
X96138590Y-98924938D01*
X96188025Y-99010562D01*
X96257938Y-99080475D01*
X96343562Y-99129910D01*
X96439065Y-99155500D01*
X96439067Y-99155500D01*
X96537932Y-99155500D01*
X96537935Y-99155500D01*
X96633438Y-99129910D01*
X96719062Y-99080475D01*
X96788975Y-99010562D01*
X96838410Y-98924938D01*
X96864000Y-98829435D01*
X96864000Y-98730565D01*
X96838410Y-98635062D01*
X96818329Y-98600281D01*
X96812315Y-98575493D01*
X96802472Y-98551958D01*
X96804214Y-98542106D01*
X96801856Y-98532384D01*
X96810198Y-98508278D01*
X96814643Y-98483156D01*
X96822252Y-98472565D01*
X97991300Y-98472565D01*
X97991300Y-98571435D01*
X98016890Y-98666938D01*
X98066325Y-98752562D01*
X98136238Y-98822475D01*
X98221862Y-98871910D01*
X98317365Y-98897500D01*
X98317367Y-98897500D01*
X98416232Y-98897500D01*
X98416235Y-98897500D01*
X98511738Y-98871910D01*
X98597362Y-98822475D01*
X98667275Y-98752562D01*
X98716710Y-98666938D01*
X98742300Y-98571435D01*
X98742300Y-98472565D01*
X98716710Y-98377062D01*
X98667275Y-98291438D01*
X98640402Y-98264565D01*
X100403300Y-98264565D01*
X100403300Y-98363435D01*
X100428890Y-98458938D01*
X100428891Y-98458939D01*
X100428891Y-98458940D01*
X100436759Y-98472567D01*
X100478325Y-98544562D01*
X100548238Y-98614475D01*
X100633862Y-98663910D01*
X100729365Y-98689500D01*
X100729367Y-98689500D01*
X100828232Y-98689500D01*
X100828235Y-98689500D01*
X100923738Y-98663910D01*
X101009362Y-98614475D01*
X101079275Y-98544562D01*
X101128710Y-98458938D01*
X101154300Y-98363435D01*
X101154300Y-98264565D01*
X101128710Y-98169062D01*
X101079275Y-98083438D01*
X101009362Y-98013525D01*
X100923738Y-97964090D01*
X100828235Y-97938500D01*
X100729365Y-97938500D01*
X100633862Y-97964090D01*
X100633860Y-97964091D01*
X100633859Y-97964091D01*
X100548236Y-98013526D01*
X100478326Y-98083436D01*
X100428891Y-98169059D01*
X100428891Y-98169060D01*
X100428890Y-98169062D01*
X100403300Y-98264565D01*
X98640402Y-98264565D01*
X98597362Y-98221525D01*
X98511738Y-98172090D01*
X98416235Y-98146500D01*
X98317365Y-98146500D01*
X98221862Y-98172090D01*
X98221860Y-98172091D01*
X98221859Y-98172091D01*
X98136236Y-98221526D01*
X98066326Y-98291436D01*
X98016891Y-98377059D01*
X98016891Y-98377060D01*
X98016890Y-98377062D01*
X97991300Y-98472565D01*
X96822252Y-98472565D01*
X96822843Y-98471743D01*
X96824708Y-98466356D01*
X96834673Y-98454097D01*
X96836305Y-98452331D01*
X96887175Y-98401462D01*
X96936610Y-98315838D01*
X96962200Y-98220335D01*
X96962200Y-98121465D01*
X96936610Y-98025962D01*
X96887175Y-97940338D01*
X96817262Y-97870425D01*
X96731638Y-97820990D01*
X96636135Y-97795400D01*
X96537265Y-97795400D01*
X96441762Y-97820990D01*
X96441760Y-97820991D01*
X96441759Y-97820991D01*
X96356136Y-97870426D01*
X96286226Y-97940336D01*
X96236791Y-98025959D01*
X96236791Y-98025960D01*
X96236790Y-98025962D01*
X96211200Y-98121465D01*
X96211200Y-98220335D01*
X96236790Y-98315838D01*
X96256870Y-98350618D01*
X96273343Y-98418516D01*
X96250491Y-98484543D01*
X96237165Y-98500297D01*
X96188026Y-98549436D01*
X96138591Y-98635059D01*
X96138591Y-98635060D01*
X96138590Y-98635062D01*
X96113000Y-98730565D01*
X74383241Y-98730565D01*
X74385067Y-98660819D01*
X74385407Y-98654340D01*
X74479359Y-97460565D01*
X81046000Y-97460565D01*
X81046000Y-97559435D01*
X81071590Y-97654938D01*
X81121025Y-97740562D01*
X81190938Y-97810475D01*
X81276562Y-97859910D01*
X81372065Y-97885500D01*
X81372067Y-97885500D01*
X81470932Y-97885500D01*
X81470935Y-97885500D01*
X81566438Y-97859910D01*
X81652062Y-97810475D01*
X81721975Y-97740562D01*
X81771410Y-97654938D01*
X81797000Y-97559435D01*
X81797000Y-97460565D01*
X81771410Y-97365062D01*
X81721975Y-97279438D01*
X81652062Y-97209525D01*
X81566438Y-97160090D01*
X81470935Y-97134500D01*
X81372065Y-97134500D01*
X81276562Y-97160090D01*
X81276560Y-97160091D01*
X81276559Y-97160091D01*
X81190936Y-97209526D01*
X81121026Y-97279436D01*
X81071591Y-97365059D01*
X81071591Y-97365060D01*
X81071590Y-97365062D01*
X81046000Y-97460565D01*
X74479359Y-97460565D01*
X74490261Y-97322036D01*
X74490933Y-97315652D01*
X74535799Y-96974865D01*
X101197400Y-96974865D01*
X101197400Y-97073735D01*
X101222990Y-97169238D01*
X101222991Y-97169239D01*
X101222991Y-97169240D01*
X101236237Y-97192182D01*
X101272425Y-97254862D01*
X101342338Y-97324775D01*
X101427962Y-97374210D01*
X101523465Y-97399800D01*
X101523467Y-97399800D01*
X101622332Y-97399800D01*
X101622335Y-97399800D01*
X101717838Y-97374210D01*
X101803462Y-97324775D01*
X101873375Y-97254862D01*
X101922810Y-97169238D01*
X101948400Y-97073735D01*
X101948400Y-96974865D01*
X101922810Y-96879362D01*
X101873375Y-96793738D01*
X101842602Y-96762965D01*
X102291500Y-96762965D01*
X102291500Y-96861835D01*
X102317090Y-96957338D01*
X102366525Y-97042962D01*
X102436438Y-97112875D01*
X102522062Y-97162310D01*
X102617565Y-97187900D01*
X102617567Y-97187900D01*
X102716432Y-97187900D01*
X102716435Y-97187900D01*
X102811938Y-97162310D01*
X102897562Y-97112875D01*
X102967475Y-97042962D01*
X103016910Y-96957338D01*
X103042500Y-96861835D01*
X103042500Y-96762965D01*
X103016910Y-96667462D01*
X102967475Y-96581838D01*
X102897562Y-96511925D01*
X102811938Y-96462490D01*
X102716435Y-96436900D01*
X102617565Y-96436900D01*
X102522062Y-96462490D01*
X102522060Y-96462491D01*
X102522059Y-96462491D01*
X102436436Y-96511926D01*
X102366526Y-96581836D01*
X102317091Y-96667459D01*
X102317091Y-96667460D01*
X102317090Y-96667462D01*
X102291500Y-96762965D01*
X101842602Y-96762965D01*
X101803462Y-96723825D01*
X101717838Y-96674390D01*
X101622335Y-96648800D01*
X101523465Y-96648800D01*
X101427962Y-96674390D01*
X101427960Y-96674391D01*
X101427959Y-96674391D01*
X101342336Y-96723826D01*
X101272426Y-96793736D01*
X101222991Y-96879359D01*
X101222991Y-96879360D01*
X101222990Y-96879362D01*
X101197400Y-96974865D01*
X74535799Y-96974865D01*
X74639054Y-96190565D01*
X78611100Y-96190565D01*
X78611100Y-96289435D01*
X78636690Y-96384938D01*
X78636691Y-96384939D01*
X78636691Y-96384940D01*
X78649937Y-96407882D01*
X78686125Y-96470562D01*
X78756038Y-96540475D01*
X78841662Y-96589910D01*
X78937165Y-96615500D01*
X78937167Y-96615500D01*
X79036032Y-96615500D01*
X79036035Y-96615500D01*
X79131538Y-96589910D01*
X79217162Y-96540475D01*
X79287075Y-96470562D01*
X79336510Y-96384938D01*
X79362100Y-96289435D01*
X79362100Y-96190565D01*
X96102400Y-96190565D01*
X96102400Y-96289435D01*
X96127990Y-96384938D01*
X96127991Y-96384939D01*
X96127991Y-96384940D01*
X96141237Y-96407882D01*
X96177425Y-96470562D01*
X96247338Y-96540475D01*
X96332962Y-96589910D01*
X96428465Y-96615500D01*
X96428467Y-96615500D01*
X96527332Y-96615500D01*
X96527335Y-96615500D01*
X96622838Y-96589910D01*
X96708462Y-96540475D01*
X96778375Y-96470562D01*
X96827810Y-96384938D01*
X96853400Y-96289435D01*
X96853400Y-96190565D01*
X96827810Y-96095062D01*
X96778375Y-96009438D01*
X96708462Y-95939525D01*
X96622838Y-95890090D01*
X96610802Y-95886865D01*
X99753300Y-95886865D01*
X99753300Y-95985735D01*
X99778890Y-96081238D01*
X99778891Y-96081239D01*
X99778891Y-96081240D01*
X99786870Y-96095060D01*
X99828325Y-96166862D01*
X99898238Y-96236775D01*
X99983862Y-96286210D01*
X100079365Y-96311800D01*
X100079367Y-96311800D01*
X100178232Y-96311800D01*
X100178235Y-96311800D01*
X100273738Y-96286210D01*
X100359362Y-96236775D01*
X100429275Y-96166862D01*
X100478710Y-96081238D01*
X100487358Y-96048965D01*
X109168400Y-96048965D01*
X109168400Y-96147835D01*
X109193990Y-96243338D01*
X109193991Y-96243339D01*
X109193991Y-96243340D01*
X109196429Y-96247562D01*
X109243425Y-96328962D01*
X109313338Y-96398875D01*
X109398962Y-96448310D01*
X109494465Y-96473900D01*
X109494467Y-96473900D01*
X109593332Y-96473900D01*
X109593335Y-96473900D01*
X109688838Y-96448310D01*
X109774462Y-96398875D01*
X109830272Y-96343065D01*
X117059300Y-96343065D01*
X117059300Y-96441935D01*
X117084890Y-96537438D01*
X117134325Y-96623062D01*
X117204238Y-96692975D01*
X117289862Y-96742410D01*
X117385365Y-96768000D01*
X117385367Y-96768000D01*
X117484232Y-96768000D01*
X117484235Y-96768000D01*
X117579738Y-96742410D01*
X117665362Y-96692975D01*
X117735275Y-96623062D01*
X117784710Y-96537438D01*
X117810300Y-96441935D01*
X117810300Y-96343065D01*
X117784710Y-96247562D01*
X117735275Y-96161938D01*
X117665362Y-96092025D01*
X117579738Y-96042590D01*
X117484235Y-96017000D01*
X117385365Y-96017000D01*
X117289862Y-96042590D01*
X117289860Y-96042591D01*
X117289859Y-96042591D01*
X117204236Y-96092026D01*
X117134326Y-96161936D01*
X117084891Y-96247559D01*
X117084891Y-96247560D01*
X117084890Y-96247562D01*
X117059300Y-96343065D01*
X109830272Y-96343065D01*
X109844375Y-96328962D01*
X109893810Y-96243338D01*
X109919400Y-96147835D01*
X109919400Y-96048965D01*
X109893810Y-95953462D01*
X109844375Y-95867838D01*
X109774462Y-95797925D01*
X109688838Y-95748490D01*
X109593335Y-95722900D01*
X109494465Y-95722900D01*
X109398962Y-95748490D01*
X109398960Y-95748491D01*
X109398959Y-95748491D01*
X109313336Y-95797926D01*
X109243426Y-95867836D01*
X109193991Y-95953459D01*
X109193991Y-95953460D01*
X109193990Y-95953462D01*
X109168400Y-96048965D01*
X100487358Y-96048965D01*
X100504300Y-95985735D01*
X100504300Y-95886865D01*
X100478710Y-95791362D01*
X100429275Y-95705738D01*
X100359362Y-95635825D01*
X100273738Y-95586390D01*
X100178235Y-95560800D01*
X100079365Y-95560800D01*
X99983862Y-95586390D01*
X99983860Y-95586391D01*
X99983859Y-95586391D01*
X99898236Y-95635826D01*
X99828326Y-95705736D01*
X99778891Y-95791359D01*
X99778891Y-95791360D01*
X99778890Y-95791362D01*
X99753300Y-95886865D01*
X96610802Y-95886865D01*
X96527335Y-95864500D01*
X96428465Y-95864500D01*
X96332962Y-95890090D01*
X96332960Y-95890091D01*
X96332959Y-95890091D01*
X96247336Y-95939526D01*
X96177426Y-96009436D01*
X96127991Y-96095059D01*
X96127991Y-96095060D01*
X96127990Y-96095062D01*
X96102400Y-96190565D01*
X79362100Y-96190565D01*
X79336510Y-96095062D01*
X79287075Y-96009438D01*
X79217162Y-95939525D01*
X79131538Y-95890090D01*
X79036035Y-95864500D01*
X78937165Y-95864500D01*
X78841662Y-95890090D01*
X78841660Y-95890091D01*
X78841659Y-95890091D01*
X78756036Y-95939526D01*
X78686126Y-96009436D01*
X78636691Y-96095059D01*
X78636691Y-96095060D01*
X78636690Y-96095062D01*
X78611100Y-96190565D01*
X74639054Y-96190565D01*
X74665373Y-95990650D01*
X74666377Y-95984306D01*
X74855838Y-94962065D01*
X78920500Y-94962065D01*
X78920500Y-95060935D01*
X78946090Y-95156438D01*
X78995525Y-95242062D01*
X79065438Y-95311975D01*
X79151062Y-95361410D01*
X79246565Y-95387000D01*
X79246567Y-95387000D01*
X79345432Y-95387000D01*
X79345435Y-95387000D01*
X79440938Y-95361410D01*
X79526562Y-95311975D01*
X79596475Y-95242062D01*
X79602535Y-95231565D01*
X82958800Y-95231565D01*
X82958800Y-95330435D01*
X82984390Y-95425938D01*
X83033825Y-95511562D01*
X83103738Y-95581475D01*
X83189362Y-95630910D01*
X83284865Y-95656500D01*
X83284867Y-95656500D01*
X83383732Y-95656500D01*
X83383735Y-95656500D01*
X83479238Y-95630910D01*
X83564862Y-95581475D01*
X83634775Y-95511562D01*
X83670107Y-95450365D01*
X91646700Y-95450365D01*
X91646700Y-95549235D01*
X91672290Y-95644738D01*
X91721725Y-95730362D01*
X91791638Y-95800275D01*
X91877262Y-95849710D01*
X91972765Y-95875300D01*
X91972767Y-95875300D01*
X92071632Y-95875300D01*
X92071635Y-95875300D01*
X92167138Y-95849710D01*
X92252762Y-95800275D01*
X92322675Y-95730362D01*
X92372110Y-95644738D01*
X92397700Y-95549235D01*
X92397700Y-95450365D01*
X92372110Y-95354862D01*
X92337471Y-95294865D01*
X97941300Y-95294865D01*
X97941300Y-95393735D01*
X97966890Y-95489238D01*
X98016325Y-95574862D01*
X98086238Y-95644775D01*
X98171862Y-95694210D01*
X98267365Y-95719800D01*
X98267367Y-95719800D01*
X98366232Y-95719800D01*
X98366235Y-95719800D01*
X98461738Y-95694210D01*
X98547362Y-95644775D01*
X98617275Y-95574862D01*
X98666710Y-95489238D01*
X98692300Y-95393735D01*
X98692300Y-95294865D01*
X98666710Y-95199362D01*
X98617275Y-95113738D01*
X98547362Y-95043825D01*
X98461738Y-94994390D01*
X98366235Y-94968800D01*
X98267365Y-94968800D01*
X98171862Y-94994390D01*
X98171860Y-94994391D01*
X98171859Y-94994391D01*
X98086236Y-95043826D01*
X98016326Y-95113736D01*
X97966891Y-95199359D01*
X97966891Y-95199360D01*
X97966890Y-95199362D01*
X97941300Y-95294865D01*
X92337471Y-95294865D01*
X92322675Y-95269238D01*
X92252762Y-95199325D01*
X92167138Y-95149890D01*
X92071635Y-95124300D01*
X91972765Y-95124300D01*
X91877262Y-95149890D01*
X91877260Y-95149891D01*
X91877259Y-95149891D01*
X91791636Y-95199326D01*
X91721726Y-95269236D01*
X91672291Y-95354859D01*
X91672291Y-95354860D01*
X91672290Y-95354862D01*
X91646700Y-95450365D01*
X83670107Y-95450365D01*
X83684210Y-95425938D01*
X83709800Y-95330435D01*
X83709800Y-95231565D01*
X83684210Y-95136062D01*
X83634775Y-95050438D01*
X83564862Y-94980525D01*
X83479238Y-94931090D01*
X83383735Y-94905500D01*
X83284865Y-94905500D01*
X83189362Y-94931090D01*
X83189360Y-94931091D01*
X83189359Y-94931091D01*
X83103736Y-94980526D01*
X83033826Y-95050436D01*
X82984391Y-95136059D01*
X82984391Y-95136060D01*
X82984390Y-95136062D01*
X82958800Y-95231565D01*
X79602535Y-95231565D01*
X79645910Y-95156438D01*
X79671500Y-95060935D01*
X79671500Y-94962065D01*
X79645910Y-94866562D01*
X79596475Y-94780938D01*
X79539102Y-94723565D01*
X81944800Y-94723565D01*
X81944800Y-94822435D01*
X81970390Y-94917938D01*
X82019825Y-95003562D01*
X82089738Y-95073475D01*
X82175362Y-95122910D01*
X82270865Y-95148500D01*
X82270867Y-95148500D01*
X82369732Y-95148500D01*
X82369735Y-95148500D01*
X82465238Y-95122910D01*
X82550862Y-95073475D01*
X82620775Y-95003562D01*
X82670210Y-94917938D01*
X82695800Y-94822435D01*
X82695800Y-94723565D01*
X82684278Y-94680565D01*
X101487700Y-94680565D01*
X101487700Y-94779435D01*
X101513290Y-94874938D01*
X101562725Y-94960562D01*
X101632638Y-95030475D01*
X101718262Y-95079910D01*
X101813765Y-95105500D01*
X101813767Y-95105500D01*
X101912632Y-95105500D01*
X101912635Y-95105500D01*
X102008138Y-95079910D01*
X102093762Y-95030475D01*
X102163675Y-94960562D01*
X102213110Y-94874938D01*
X102238700Y-94779435D01*
X102238700Y-94680565D01*
X102213110Y-94585062D01*
X102163675Y-94499438D01*
X102093762Y-94429525D01*
X102008138Y-94380090D01*
X101912635Y-94354500D01*
X101813765Y-94354500D01*
X101718262Y-94380090D01*
X101718260Y-94380091D01*
X101718259Y-94380091D01*
X101632636Y-94429526D01*
X101562726Y-94499436D01*
X101513291Y-94585059D01*
X101513291Y-94585060D01*
X101513290Y-94585062D01*
X101487700Y-94680565D01*
X82684278Y-94680565D01*
X82670210Y-94628062D01*
X82620775Y-94542438D01*
X82550862Y-94472525D01*
X82465238Y-94423090D01*
X82369735Y-94397500D01*
X82270865Y-94397500D01*
X82175362Y-94423090D01*
X82175360Y-94423091D01*
X82175359Y-94423091D01*
X82089736Y-94472526D01*
X82019826Y-94542436D01*
X81970391Y-94628059D01*
X81970391Y-94628060D01*
X81970390Y-94628062D01*
X81944800Y-94723565D01*
X79539102Y-94723565D01*
X79526562Y-94711025D01*
X79440938Y-94661590D01*
X79345435Y-94636000D01*
X79246565Y-94636000D01*
X79151062Y-94661590D01*
X79151060Y-94661591D01*
X79151059Y-94661591D01*
X79065436Y-94711026D01*
X78995526Y-94780936D01*
X78946091Y-94866559D01*
X78946091Y-94866560D01*
X78946090Y-94866562D01*
X78920500Y-94962065D01*
X74855838Y-94962065D01*
X74909925Y-94670240D01*
X74911273Y-94663902D01*
X74927215Y-94597500D01*
X75073311Y-93988965D01*
X82941000Y-93988965D01*
X82941000Y-94087835D01*
X82966590Y-94183338D01*
X82966591Y-94183339D01*
X82966591Y-94183340D01*
X82976361Y-94200262D01*
X83016025Y-94268962D01*
X83085938Y-94338875D01*
X83171562Y-94388310D01*
X83267065Y-94413900D01*
X83267067Y-94413900D01*
X83365932Y-94413900D01*
X83365935Y-94413900D01*
X83461438Y-94388310D01*
X83547062Y-94338875D01*
X83616975Y-94268962D01*
X83643705Y-94222665D01*
X93806500Y-94222665D01*
X93806500Y-94321535D01*
X93832090Y-94417038D01*
X93881525Y-94502662D01*
X93951438Y-94572575D01*
X94037062Y-94622010D01*
X94132565Y-94647600D01*
X94132567Y-94647600D01*
X94231432Y-94647600D01*
X94231435Y-94647600D01*
X94326938Y-94622010D01*
X94412562Y-94572575D01*
X94482475Y-94502662D01*
X94531910Y-94417038D01*
X94557500Y-94321535D01*
X94557500Y-94222665D01*
X94544076Y-94172565D01*
X100226000Y-94172565D01*
X100226000Y-94271435D01*
X100251590Y-94366938D01*
X100301025Y-94452562D01*
X100370938Y-94522475D01*
X100456562Y-94571910D01*
X100552065Y-94597500D01*
X100552067Y-94597500D01*
X100650932Y-94597500D01*
X100650935Y-94597500D01*
X100746438Y-94571910D01*
X100832062Y-94522475D01*
X100901975Y-94452562D01*
X100951410Y-94366938D01*
X100977000Y-94271435D01*
X100977000Y-94172565D01*
X100951410Y-94077062D01*
X100901975Y-93991438D01*
X100832062Y-93921525D01*
X100829880Y-93920265D01*
X106593400Y-93920265D01*
X106593400Y-94019135D01*
X106618990Y-94114638D01*
X106668425Y-94200262D01*
X106738338Y-94270175D01*
X106823962Y-94319610D01*
X106919465Y-94345200D01*
X106919467Y-94345200D01*
X107018332Y-94345200D01*
X107018335Y-94345200D01*
X107113838Y-94319610D01*
X107199462Y-94270175D01*
X107269375Y-94200262D01*
X107318810Y-94114638D01*
X107344400Y-94019135D01*
X107344400Y-93920265D01*
X107318810Y-93824762D01*
X107269375Y-93739138D01*
X107199462Y-93669225D01*
X107113838Y-93619790D01*
X107018335Y-93594200D01*
X106919465Y-93594200D01*
X106823962Y-93619790D01*
X106823960Y-93619791D01*
X106823959Y-93619791D01*
X106738336Y-93669226D01*
X106668426Y-93739136D01*
X106618991Y-93824759D01*
X106618991Y-93824760D01*
X106618990Y-93824762D01*
X106593400Y-93920265D01*
X100829880Y-93920265D01*
X100746438Y-93872090D01*
X100650935Y-93846500D01*
X100552065Y-93846500D01*
X100456562Y-93872090D01*
X100456560Y-93872091D01*
X100456559Y-93872091D01*
X100370936Y-93921526D01*
X100301026Y-93991436D01*
X100251591Y-94077059D01*
X100251591Y-94077060D01*
X100251590Y-94077062D01*
X100226000Y-94172565D01*
X94544076Y-94172565D01*
X94531910Y-94127162D01*
X94482475Y-94041538D01*
X94412562Y-93971625D01*
X94326938Y-93922190D01*
X94231435Y-93896600D01*
X94132565Y-93896600D01*
X94037062Y-93922190D01*
X94037060Y-93922191D01*
X94037059Y-93922191D01*
X93951436Y-93971626D01*
X93881526Y-94041536D01*
X93832091Y-94127159D01*
X93832091Y-94127160D01*
X93832090Y-94127162D01*
X93806500Y-94222665D01*
X83643705Y-94222665D01*
X83666410Y-94183338D01*
X83692000Y-94087835D01*
X83692000Y-93988965D01*
X83666410Y-93893462D01*
X83616975Y-93807838D01*
X83547062Y-93737925D01*
X83461438Y-93688490D01*
X83365935Y-93662900D01*
X83267065Y-93662900D01*
X83171562Y-93688490D01*
X83171560Y-93688491D01*
X83171559Y-93688491D01*
X83085936Y-93737926D01*
X83016026Y-93807836D01*
X82966591Y-93893459D01*
X82966591Y-93893460D01*
X82966590Y-93893462D01*
X82941000Y-93988965D01*
X75073311Y-93988965D01*
X75223250Y-93364421D01*
X75224913Y-93358214D01*
X75429019Y-92669165D01*
X92012000Y-92669165D01*
X92012000Y-92768035D01*
X92037590Y-92863538D01*
X92087025Y-92949162D01*
X92156938Y-93019075D01*
X92242562Y-93068510D01*
X92338065Y-93094100D01*
X92338067Y-93094100D01*
X92436932Y-93094100D01*
X92436935Y-93094100D01*
X92532438Y-93068510D01*
X92618062Y-93019075D01*
X92687975Y-92949162D01*
X92736759Y-92864665D01*
X100333700Y-92864665D01*
X100333700Y-92963535D01*
X100359290Y-93059038D01*
X100359291Y-93059039D01*
X100359291Y-93059040D01*
X100364759Y-93068510D01*
X100408725Y-93144662D01*
X100478638Y-93214575D01*
X100564262Y-93264010D01*
X100659765Y-93289600D01*
X100659767Y-93289600D01*
X100758632Y-93289600D01*
X100758635Y-93289600D01*
X100854138Y-93264010D01*
X100939762Y-93214575D01*
X101009675Y-93144662D01*
X101059110Y-93059038D01*
X101084700Y-92963535D01*
X101084700Y-92864665D01*
X101059110Y-92769162D01*
X101009675Y-92683538D01*
X100939762Y-92613625D01*
X100854138Y-92564190D01*
X100758635Y-92538600D01*
X100659765Y-92538600D01*
X100564262Y-92564190D01*
X100564260Y-92564191D01*
X100564259Y-92564191D01*
X100478636Y-92613626D01*
X100408726Y-92683536D01*
X100359291Y-92769159D01*
X100359291Y-92769160D01*
X100359290Y-92769162D01*
X100333700Y-92864665D01*
X92736759Y-92864665D01*
X92737410Y-92863538D01*
X92763000Y-92768035D01*
X92763000Y-92669165D01*
X92737410Y-92573662D01*
X92687975Y-92488038D01*
X92618062Y-92418125D01*
X92553006Y-92380565D01*
X93845000Y-92380565D01*
X93845000Y-92479435D01*
X93870590Y-92574938D01*
X93920025Y-92660562D01*
X93989938Y-92730475D01*
X94075562Y-92779910D01*
X94171065Y-92805500D01*
X94171067Y-92805500D01*
X94269932Y-92805500D01*
X94269935Y-92805500D01*
X94365438Y-92779910D01*
X94451062Y-92730475D01*
X94520975Y-92660562D01*
X94570410Y-92574938D01*
X94596000Y-92479435D01*
X94596000Y-92391465D01*
X103362900Y-92391465D01*
X103362900Y-92490335D01*
X103388490Y-92585838D01*
X103437925Y-92671462D01*
X103507838Y-92741375D01*
X103593462Y-92790810D01*
X103688965Y-92816400D01*
X103688967Y-92816400D01*
X103787832Y-92816400D01*
X103787835Y-92816400D01*
X103883338Y-92790810D01*
X103968962Y-92741375D01*
X104038875Y-92671462D01*
X104088310Y-92585838D01*
X104113900Y-92490335D01*
X104113900Y-92391465D01*
X104088310Y-92295962D01*
X104038875Y-92210338D01*
X103968962Y-92140425D01*
X103883338Y-92090990D01*
X103787835Y-92065400D01*
X103688965Y-92065400D01*
X103593462Y-92090990D01*
X103593460Y-92090991D01*
X103593459Y-92090991D01*
X103507836Y-92140426D01*
X103437926Y-92210336D01*
X103388491Y-92295959D01*
X103388491Y-92295960D01*
X103388490Y-92295962D01*
X103362900Y-92391465D01*
X94596000Y-92391465D01*
X94596000Y-92380565D01*
X94570410Y-92285062D01*
X94520975Y-92199438D01*
X94451062Y-92129525D01*
X94365438Y-92080090D01*
X94269935Y-92054500D01*
X94171065Y-92054500D01*
X94075562Y-92080090D01*
X94075560Y-92080091D01*
X94075559Y-92080091D01*
X93989936Y-92129526D01*
X93920026Y-92199436D01*
X93870591Y-92285059D01*
X93870591Y-92285060D01*
X93870590Y-92285062D01*
X93845000Y-92380565D01*
X92553006Y-92380565D01*
X92532438Y-92368690D01*
X92436935Y-92343100D01*
X92338065Y-92343100D01*
X92242562Y-92368690D01*
X92242560Y-92368691D01*
X92242559Y-92368691D01*
X92156936Y-92418126D01*
X92087026Y-92488036D01*
X92037591Y-92573659D01*
X92037591Y-92573660D01*
X92037590Y-92573662D01*
X92012000Y-92669165D01*
X75429019Y-92669165D01*
X75570047Y-92193065D01*
X79174500Y-92193065D01*
X79174500Y-92291935D01*
X79200090Y-92387438D01*
X79249525Y-92473062D01*
X79319438Y-92542975D01*
X79405062Y-92592410D01*
X79500565Y-92618000D01*
X79500567Y-92618000D01*
X79599432Y-92618000D01*
X79599435Y-92618000D01*
X79694938Y-92592410D01*
X79780562Y-92542975D01*
X79850475Y-92473062D01*
X79899910Y-92387438D01*
X79925500Y-92291935D01*
X79925500Y-92193065D01*
X79899910Y-92097562D01*
X79850475Y-92011938D01*
X79780562Y-91942025D01*
X79694938Y-91892590D01*
X79599435Y-91867000D01*
X79500565Y-91867000D01*
X79405062Y-91892590D01*
X79405060Y-91892591D01*
X79405059Y-91892591D01*
X79319436Y-91942026D01*
X79249526Y-92011936D01*
X79200091Y-92097559D01*
X79200091Y-92097560D01*
X79200090Y-92097562D01*
X79174500Y-92193065D01*
X75570047Y-92193065D01*
X75604478Y-92076827D01*
X75606476Y-92070674D01*
X75780529Y-91579165D01*
X106340700Y-91579165D01*
X106340700Y-91678035D01*
X106366290Y-91773538D01*
X106415725Y-91859162D01*
X106485638Y-91929075D01*
X106571262Y-91978510D01*
X106666765Y-92004100D01*
X106666767Y-92004100D01*
X106765632Y-92004100D01*
X106765635Y-92004100D01*
X106861138Y-91978510D01*
X106946762Y-91929075D01*
X107016675Y-91859162D01*
X107066110Y-91773538D01*
X107091700Y-91678035D01*
X107091700Y-91579165D01*
X107066110Y-91483662D01*
X107016675Y-91398038D01*
X106946762Y-91328125D01*
X106861138Y-91278690D01*
X106765635Y-91253100D01*
X106666765Y-91253100D01*
X106571262Y-91278690D01*
X106571260Y-91278691D01*
X106571259Y-91278691D01*
X106485636Y-91328126D01*
X106415726Y-91398036D01*
X106366291Y-91483659D01*
X106366291Y-91483660D01*
X106366290Y-91483662D01*
X106340700Y-91579165D01*
X75780529Y-91579165D01*
X75969805Y-91044665D01*
X97944500Y-91044665D01*
X97944500Y-91143535D01*
X97970090Y-91239038D01*
X98019525Y-91324662D01*
X98089438Y-91394575D01*
X98175062Y-91444010D01*
X98270565Y-91469600D01*
X98270567Y-91469600D01*
X98369432Y-91469600D01*
X98369435Y-91469600D01*
X98464938Y-91444010D01*
X98550562Y-91394575D01*
X98620475Y-91324662D01*
X98669910Y-91239038D01*
X98695500Y-91143535D01*
X98695500Y-91044665D01*
X98669910Y-90949162D01*
X98620475Y-90863538D01*
X98550562Y-90793625D01*
X98464938Y-90744190D01*
X98369435Y-90718600D01*
X98270565Y-90718600D01*
X98175062Y-90744190D01*
X98175060Y-90744191D01*
X98175059Y-90744191D01*
X98089436Y-90793626D01*
X98019526Y-90863536D01*
X97970091Y-90949159D01*
X97970091Y-90949160D01*
X97970090Y-90949162D01*
X97944500Y-91044665D01*
X75969805Y-91044665D01*
X76052586Y-90810898D01*
X76054900Y-90804872D01*
X76566322Y-89570189D01*
X76568946Y-89564295D01*
X76645372Y-89404065D01*
X99403800Y-89404065D01*
X99403800Y-89502935D01*
X99429390Y-89598438D01*
X99478825Y-89684062D01*
X99548738Y-89753975D01*
X99634362Y-89803410D01*
X99680380Y-89815740D01*
X99740039Y-89852103D01*
X99770569Y-89914949D01*
X99762275Y-89984325D01*
X99735968Y-90023195D01*
X99665825Y-90093338D01*
X99616391Y-90178959D01*
X99616391Y-90178960D01*
X99616390Y-90178962D01*
X99590800Y-90274465D01*
X99590800Y-90373335D01*
X99616390Y-90468838D01*
X99665825Y-90554462D01*
X99735738Y-90624375D01*
X99821362Y-90673810D01*
X99916865Y-90699400D01*
X99916867Y-90699400D01*
X100015732Y-90699400D01*
X100015735Y-90699400D01*
X100111238Y-90673810D01*
X100196862Y-90624375D01*
X100266775Y-90554462D01*
X100316210Y-90468838D01*
X100341800Y-90373335D01*
X100341800Y-90303865D01*
X101173200Y-90303865D01*
X101173200Y-90402735D01*
X101198790Y-90498238D01*
X101248225Y-90583862D01*
X101318138Y-90653775D01*
X101403762Y-90703210D01*
X101499265Y-90728800D01*
X101499267Y-90728800D01*
X101598132Y-90728800D01*
X101598135Y-90728800D01*
X101693638Y-90703210D01*
X101779262Y-90653775D01*
X101849175Y-90583862D01*
X101898610Y-90498238D01*
X101924200Y-90402735D01*
X101924200Y-90303865D01*
X101898610Y-90208362D01*
X101849175Y-90122738D01*
X101779262Y-90052825D01*
X101693638Y-90003390D01*
X101598135Y-89977800D01*
X101499265Y-89977800D01*
X101403762Y-90003390D01*
X101403760Y-90003391D01*
X101403759Y-90003391D01*
X101318136Y-90052826D01*
X101248226Y-90122736D01*
X101198791Y-90208359D01*
X101198791Y-90208360D01*
X101198790Y-90208362D01*
X101173200Y-90303865D01*
X100341800Y-90303865D01*
X100341800Y-90274465D01*
X100316210Y-90178962D01*
X100266775Y-90093338D01*
X100196862Y-90023425D01*
X100111238Y-89973990D01*
X100065218Y-89961659D01*
X100005559Y-89925295D01*
X99975030Y-89862448D01*
X99983325Y-89793073D01*
X100009632Y-89754203D01*
X100009857Y-89753977D01*
X100009862Y-89753975D01*
X100079775Y-89684062D01*
X100129210Y-89598438D01*
X100154800Y-89502935D01*
X100154800Y-89404065D01*
X100129210Y-89308562D01*
X100079775Y-89222938D01*
X100009862Y-89153025D01*
X99924238Y-89103590D01*
X99828735Y-89078000D01*
X99729865Y-89078000D01*
X99634362Y-89103590D01*
X99634360Y-89103591D01*
X99634359Y-89103591D01*
X99548736Y-89153026D01*
X99478826Y-89222936D01*
X99429391Y-89308559D01*
X99429391Y-89308560D01*
X99429390Y-89308562D01*
X99403800Y-89404065D01*
X76645372Y-89404065D01*
X77144299Y-88358041D01*
X77147220Y-88352308D01*
X77188074Y-88277065D01*
X96378300Y-88277065D01*
X96378300Y-88375935D01*
X96403890Y-88471438D01*
X96453325Y-88557062D01*
X96523238Y-88626975D01*
X96608862Y-88676410D01*
X96704365Y-88702000D01*
X96704367Y-88702000D01*
X96803232Y-88702000D01*
X96803235Y-88702000D01*
X96898738Y-88676410D01*
X96984362Y-88626975D01*
X97054275Y-88557062D01*
X97103710Y-88471438D01*
X97106489Y-88461065D01*
X99965200Y-88461065D01*
X99965200Y-88559935D01*
X99990790Y-88655438D01*
X100040225Y-88741062D01*
X100110138Y-88810975D01*
X100195762Y-88860410D01*
X100291265Y-88886000D01*
X100291267Y-88886000D01*
X100390132Y-88886000D01*
X100390135Y-88886000D01*
X100485638Y-88860410D01*
X100571262Y-88810975D01*
X100641175Y-88741062D01*
X100690610Y-88655438D01*
X100716200Y-88559935D01*
X100716200Y-88461065D01*
X100690610Y-88365562D01*
X100641175Y-88279938D01*
X100571262Y-88210025D01*
X100485638Y-88160590D01*
X100390135Y-88135000D01*
X100291265Y-88135000D01*
X100195762Y-88160590D01*
X100195760Y-88160591D01*
X100195759Y-88160591D01*
X100110136Y-88210026D01*
X100040226Y-88279936D01*
X99990791Y-88365559D01*
X99990791Y-88365560D01*
X99990790Y-88365562D01*
X99965200Y-88461065D01*
X97106489Y-88461065D01*
X97129300Y-88375935D01*
X97129300Y-88277065D01*
X97103710Y-88181562D01*
X97054275Y-88095938D01*
X96984362Y-88026025D01*
X96898738Y-87976590D01*
X96803235Y-87951000D01*
X96704365Y-87951000D01*
X96608862Y-87976590D01*
X96608860Y-87976591D01*
X96608859Y-87976591D01*
X96523236Y-88026026D01*
X96453326Y-88095936D01*
X96403891Y-88181559D01*
X96403891Y-88181560D01*
X96403890Y-88181562D01*
X96378300Y-88277065D01*
X77188074Y-88277065D01*
X77784916Y-87177821D01*
X77788127Y-87172259D01*
X77847442Y-87075465D01*
X98504900Y-87075465D01*
X98504900Y-87174335D01*
X98530490Y-87269838D01*
X98579925Y-87355462D01*
X98649838Y-87425375D01*
X98735462Y-87474810D01*
X98830965Y-87500400D01*
X98830967Y-87500400D01*
X98929832Y-87500400D01*
X98929835Y-87500400D01*
X99025338Y-87474810D01*
X99110962Y-87425375D01*
X99123372Y-87412965D01*
X100769400Y-87412965D01*
X100769400Y-87511835D01*
X100794990Y-87607338D01*
X100844425Y-87692962D01*
X100914338Y-87762875D01*
X100999962Y-87812310D01*
X101095465Y-87837900D01*
X101095467Y-87837900D01*
X101194332Y-87837900D01*
X101194335Y-87837900D01*
X101289838Y-87812310D01*
X101375462Y-87762875D01*
X101445375Y-87692962D01*
X101494810Y-87607338D01*
X101520400Y-87511835D01*
X101520400Y-87412965D01*
X101494810Y-87317462D01*
X101445375Y-87231838D01*
X101375462Y-87161925D01*
X101289838Y-87112490D01*
X101194335Y-87086900D01*
X101095465Y-87086900D01*
X100999962Y-87112490D01*
X100999960Y-87112491D01*
X100999959Y-87112491D01*
X100914336Y-87161926D01*
X100844426Y-87231836D01*
X100794991Y-87317459D01*
X100794991Y-87317460D01*
X100794990Y-87317462D01*
X100769400Y-87412965D01*
X99123372Y-87412965D01*
X99180875Y-87355462D01*
X99230310Y-87269838D01*
X99255900Y-87174335D01*
X99255900Y-87075465D01*
X99230310Y-86979962D01*
X99180875Y-86894338D01*
X99110962Y-86824425D01*
X99025338Y-86774990D01*
X98929835Y-86749400D01*
X98830965Y-86749400D01*
X98735462Y-86774990D01*
X98735460Y-86774991D01*
X98735459Y-86774991D01*
X98649836Y-86824426D01*
X98579926Y-86894336D01*
X98530491Y-86979959D01*
X98530491Y-86979960D01*
X98530490Y-86979962D01*
X98504900Y-87075465D01*
X77847442Y-87075465D01*
X78301746Y-86334108D01*
X82999500Y-86334108D01*
X82999500Y-86465892D01*
X83005614Y-86488710D01*
X83033608Y-86593187D01*
X83066554Y-86650250D01*
X83099500Y-86707314D01*
X83192686Y-86800500D01*
X83306814Y-86866392D01*
X83434108Y-86900500D01*
X83434110Y-86900500D01*
X83565890Y-86900500D01*
X83565892Y-86900500D01*
X83693186Y-86866392D01*
X83807314Y-86800500D01*
X83900500Y-86707314D01*
X83966392Y-86593186D01*
X84000500Y-86465892D01*
X84000500Y-86334108D01*
X83966392Y-86206814D01*
X83900500Y-86092686D01*
X83821279Y-86013465D01*
X112051100Y-86013465D01*
X112051100Y-86112335D01*
X112076690Y-86207838D01*
X112126125Y-86293462D01*
X112196038Y-86363375D01*
X112281662Y-86412810D01*
X112377165Y-86438400D01*
X112377167Y-86438400D01*
X112476032Y-86438400D01*
X112476035Y-86438400D01*
X112571538Y-86412810D01*
X112657162Y-86363375D01*
X112727075Y-86293462D01*
X112776510Y-86207838D01*
X112802100Y-86112335D01*
X112802100Y-86089365D01*
X115073200Y-86089365D01*
X115073200Y-86188235D01*
X115098790Y-86283738D01*
X115148225Y-86369362D01*
X115218138Y-86439275D01*
X115303762Y-86488710D01*
X115399265Y-86514300D01*
X115399267Y-86514300D01*
X115498132Y-86514300D01*
X115498135Y-86514300D01*
X115593638Y-86488710D01*
X115679262Y-86439275D01*
X115749175Y-86369362D01*
X115798610Y-86283738D01*
X115824200Y-86188235D01*
X115824200Y-86089365D01*
X115798610Y-85993862D01*
X115749175Y-85908238D01*
X115679262Y-85838325D01*
X115593638Y-85788890D01*
X115498135Y-85763300D01*
X115399265Y-85763300D01*
X115303762Y-85788890D01*
X115303760Y-85788891D01*
X115303759Y-85788891D01*
X115218136Y-85838326D01*
X115148226Y-85908236D01*
X115098791Y-85993859D01*
X115098791Y-85993860D01*
X115098790Y-85993862D01*
X115073200Y-86089365D01*
X112802100Y-86089365D01*
X112802100Y-86013465D01*
X112776510Y-85917962D01*
X112727075Y-85832338D01*
X112657162Y-85762425D01*
X112571538Y-85712990D01*
X112476035Y-85687400D01*
X112377165Y-85687400D01*
X112281662Y-85712990D01*
X112281660Y-85712991D01*
X112281659Y-85712991D01*
X112196036Y-85762426D01*
X112126126Y-85832336D01*
X112076691Y-85917959D01*
X112076691Y-85917960D01*
X112076690Y-85917962D01*
X112051100Y-86013465D01*
X83821279Y-86013465D01*
X83807314Y-85999500D01*
X83750250Y-85966554D01*
X83693187Y-85933608D01*
X83629539Y-85916554D01*
X83565892Y-85899500D01*
X83434108Y-85899500D01*
X83306812Y-85933608D01*
X83192686Y-85999500D01*
X83192683Y-85999502D01*
X83099502Y-86092683D01*
X83099500Y-86092686D01*
X83033608Y-86206812D01*
X83033333Y-86207839D01*
X82999500Y-86334108D01*
X78301746Y-86334108D01*
X78486411Y-86032761D01*
X78489921Y-86027356D01*
X79246892Y-84925958D01*
X79250661Y-84920769D01*
X79396610Y-84730565D01*
X79922500Y-84730565D01*
X79922500Y-84829435D01*
X79948090Y-84924938D01*
X79997525Y-85010562D01*
X80067438Y-85080475D01*
X80153062Y-85129910D01*
X80248565Y-85155500D01*
X80248567Y-85155500D01*
X80347432Y-85155500D01*
X80347435Y-85155500D01*
X80442938Y-85129910D01*
X80528562Y-85080475D01*
X80598475Y-85010562D01*
X80647910Y-84924938D01*
X80673500Y-84829435D01*
X80673500Y-84730565D01*
X80647910Y-84635062D01*
X80598475Y-84549438D01*
X80583145Y-84534108D01*
X82999500Y-84534108D01*
X82999500Y-84665891D01*
X83033608Y-84793187D01*
X83054536Y-84829435D01*
X83099500Y-84907314D01*
X83192686Y-85000500D01*
X83306814Y-85066392D01*
X83434108Y-85100500D01*
X83434110Y-85100500D01*
X83565890Y-85100500D01*
X83565892Y-85100500D01*
X83693186Y-85066392D01*
X83807314Y-85000500D01*
X83900500Y-84907314D01*
X83966392Y-84793186D01*
X84000500Y-84665892D01*
X84000500Y-84534108D01*
X83966392Y-84406814D01*
X83900500Y-84292686D01*
X83807314Y-84199500D01*
X83743369Y-84162581D01*
X83693187Y-84133608D01*
X83629539Y-84116554D01*
X83565892Y-84099500D01*
X83434108Y-84099500D01*
X83306812Y-84133608D01*
X83192686Y-84199500D01*
X83192683Y-84199502D01*
X83099502Y-84292683D01*
X83099500Y-84292686D01*
X83033608Y-84406812D01*
X82999500Y-84534108D01*
X80583145Y-84534108D01*
X80528562Y-84479525D01*
X80442938Y-84430090D01*
X80347435Y-84404500D01*
X80248565Y-84404500D01*
X80153062Y-84430090D01*
X80153060Y-84430091D01*
X80153059Y-84430091D01*
X80067436Y-84479526D01*
X79997526Y-84549436D01*
X79948091Y-84635059D01*
X79948091Y-84635060D01*
X79948090Y-84635062D01*
X79922500Y-84730565D01*
X79396610Y-84730565D01*
X80005867Y-83936565D01*
X109853700Y-83936565D01*
X109853700Y-84035435D01*
X109879290Y-84130938D01*
X109879291Y-84130939D01*
X109879291Y-84130940D01*
X109892537Y-84153882D01*
X109928725Y-84216562D01*
X109998638Y-84286475D01*
X110084262Y-84335910D01*
X110179765Y-84361500D01*
X110179767Y-84361500D01*
X110278632Y-84361500D01*
X110278635Y-84361500D01*
X110374138Y-84335910D01*
X110459762Y-84286475D01*
X110529675Y-84216562D01*
X110579110Y-84130938D01*
X110604700Y-84035435D01*
X110604700Y-83936565D01*
X110579110Y-83841062D01*
X110529675Y-83755438D01*
X110459762Y-83685525D01*
X110374138Y-83636090D01*
X110278635Y-83610500D01*
X110179765Y-83610500D01*
X110084262Y-83636090D01*
X110084260Y-83636091D01*
X110084259Y-83636091D01*
X109998636Y-83685526D01*
X109928726Y-83755436D01*
X109879291Y-83841059D01*
X109879291Y-83841060D01*
X109879290Y-83841062D01*
X109853700Y-83936565D01*
X80005867Y-83936565D01*
X80035907Y-83897416D01*
X80092335Y-83856214D01*
X80115394Y-83850350D01*
X81779216Y-83593932D01*
X81974356Y-83479565D01*
X112133800Y-83479565D01*
X112133800Y-83578435D01*
X112159390Y-83673938D01*
X112208825Y-83759562D01*
X112278738Y-83829475D01*
X112364362Y-83878910D01*
X112459865Y-83904500D01*
X112459867Y-83904500D01*
X112558732Y-83904500D01*
X112558735Y-83904500D01*
X112654238Y-83878910D01*
X112739862Y-83829475D01*
X112809775Y-83759562D01*
X112859210Y-83673938D01*
X112884800Y-83578435D01*
X112884800Y-83479565D01*
X112859210Y-83384062D01*
X112809775Y-83298438D01*
X112739862Y-83228525D01*
X112654238Y-83179090D01*
X112558735Y-83153500D01*
X112459865Y-83153500D01*
X112364362Y-83179090D01*
X112364360Y-83179091D01*
X112364359Y-83179091D01*
X112278736Y-83228526D01*
X112208826Y-83298436D01*
X112159391Y-83384059D01*
X112159391Y-83384060D01*
X112159390Y-83384062D01*
X112133800Y-83479565D01*
X81974356Y-83479565D01*
X82923371Y-82923371D01*
X82975686Y-82834108D01*
X88499500Y-82834108D01*
X88499500Y-82965891D01*
X88533608Y-83093187D01*
X88566554Y-83150250D01*
X88599500Y-83207314D01*
X88692686Y-83300500D01*
X88781731Y-83351910D01*
X88802757Y-83364050D01*
X88806814Y-83366392D01*
X88934108Y-83400500D01*
X88934110Y-83400500D01*
X89065890Y-83400500D01*
X89065892Y-83400500D01*
X89193186Y-83366392D01*
X89195507Y-83365051D01*
X89197243Y-83364050D01*
X89218269Y-83351910D01*
X89307314Y-83300500D01*
X89400500Y-83207314D01*
X89466392Y-83093186D01*
X89500500Y-82965892D01*
X89500500Y-82834108D01*
X89479991Y-82757565D01*
X110358600Y-82757565D01*
X110358600Y-82856435D01*
X110384190Y-82951938D01*
X110433625Y-83037562D01*
X110503538Y-83107475D01*
X110589162Y-83156910D01*
X110684665Y-83182500D01*
X110684667Y-83182500D01*
X110783532Y-83182500D01*
X110783535Y-83182500D01*
X110879038Y-83156910D01*
X110964662Y-83107475D01*
X111034575Y-83037562D01*
X111084010Y-82951938D01*
X111109600Y-82856435D01*
X111109600Y-82757565D01*
X111084010Y-82662062D01*
X111034575Y-82576438D01*
X110964662Y-82506525D01*
X110879038Y-82457090D01*
X110783535Y-82431500D01*
X110684665Y-82431500D01*
X110589162Y-82457090D01*
X110589160Y-82457091D01*
X110589159Y-82457091D01*
X110503536Y-82506526D01*
X110433626Y-82576436D01*
X110384191Y-82662059D01*
X110384191Y-82662060D01*
X110384190Y-82662062D01*
X110358600Y-82757565D01*
X89479991Y-82757565D01*
X89466392Y-82706814D01*
X89400500Y-82592686D01*
X89307314Y-82499500D01*
X89233858Y-82457090D01*
X89193187Y-82433608D01*
X89129539Y-82416554D01*
X89065892Y-82399500D01*
X88934108Y-82399500D01*
X88806812Y-82433608D01*
X88692686Y-82499500D01*
X88692683Y-82499502D01*
X88599502Y-82592683D01*
X88599500Y-82592686D01*
X88533608Y-82706812D01*
X88499500Y-82834108D01*
X82975686Y-82834108D01*
X83593932Y-81779216D01*
X83708764Y-81034108D01*
X88499500Y-81034108D01*
X88499500Y-81165892D01*
X88502767Y-81178085D01*
X88533608Y-81293187D01*
X88554536Y-81329435D01*
X88599500Y-81407314D01*
X88692686Y-81500500D01*
X88806814Y-81566392D01*
X88934108Y-81600500D01*
X88934110Y-81600500D01*
X89065890Y-81600500D01*
X89065892Y-81600500D01*
X89193186Y-81566392D01*
X89307314Y-81500500D01*
X89400500Y-81407314D01*
X89466392Y-81293186D01*
X89483171Y-81230565D01*
X91511100Y-81230565D01*
X91511100Y-81329435D01*
X91536690Y-81424938D01*
X91586125Y-81510562D01*
X91656038Y-81580475D01*
X91741662Y-81629910D01*
X91837165Y-81655500D01*
X91837167Y-81655500D01*
X91936032Y-81655500D01*
X91936035Y-81655500D01*
X92031538Y-81629910D01*
X92117162Y-81580475D01*
X92165672Y-81531965D01*
X108293300Y-81531965D01*
X108293300Y-81630835D01*
X108318890Y-81726338D01*
X108368325Y-81811962D01*
X108438238Y-81881875D01*
X108523862Y-81931310D01*
X108619365Y-81956900D01*
X108619367Y-81956900D01*
X108718232Y-81956900D01*
X108718235Y-81956900D01*
X108813738Y-81931310D01*
X108899362Y-81881875D01*
X108969275Y-81811962D01*
X109018710Y-81726338D01*
X109044300Y-81630835D01*
X109044300Y-81531965D01*
X109018710Y-81436462D01*
X108969275Y-81350838D01*
X108899362Y-81280925D01*
X108813738Y-81231490D01*
X108718235Y-81205900D01*
X108619365Y-81205900D01*
X108523862Y-81231490D01*
X108523860Y-81231491D01*
X108523859Y-81231491D01*
X108438236Y-81280926D01*
X108368326Y-81350836D01*
X108318891Y-81436459D01*
X108318891Y-81436460D01*
X108318890Y-81436462D01*
X108293300Y-81531965D01*
X92165672Y-81531965D01*
X92187075Y-81510562D01*
X92204327Y-81480680D01*
X92215207Y-81461837D01*
X92224308Y-81446072D01*
X92236510Y-81424938D01*
X92262100Y-81329435D01*
X92262100Y-81230565D01*
X92236510Y-81135062D01*
X92187075Y-81049438D01*
X92117162Y-80979525D01*
X92031538Y-80930090D01*
X91936035Y-80904500D01*
X91837165Y-80904500D01*
X91741662Y-80930090D01*
X91741660Y-80930091D01*
X91741659Y-80930091D01*
X91656036Y-80979526D01*
X91586126Y-81049436D01*
X91536691Y-81135059D01*
X91536691Y-81135060D01*
X91536690Y-81135062D01*
X91511100Y-81230565D01*
X89483171Y-81230565D01*
X89500500Y-81165892D01*
X89500500Y-81034108D01*
X89466392Y-80906814D01*
X89400500Y-80792686D01*
X89307314Y-80699500D01*
X89240178Y-80660739D01*
X89193187Y-80633608D01*
X89129539Y-80616554D01*
X89065892Y-80599500D01*
X88934108Y-80599500D01*
X88806812Y-80633608D01*
X88692686Y-80699500D01*
X88692683Y-80699502D01*
X88599502Y-80792683D01*
X88599500Y-80792686D01*
X88533608Y-80906812D01*
X88507149Y-81005560D01*
X88499500Y-81034108D01*
X83708764Y-81034108D01*
X83713164Y-81005559D01*
X83791868Y-80494867D01*
X83796261Y-80466365D01*
X98908800Y-80466365D01*
X98908800Y-80565235D01*
X98934390Y-80660738D01*
X98983825Y-80746362D01*
X99053738Y-80816275D01*
X99139362Y-80865710D01*
X99234865Y-80891300D01*
X99234867Y-80891300D01*
X99333732Y-80891300D01*
X99333735Y-80891300D01*
X99429238Y-80865710D01*
X99514862Y-80816275D01*
X99584775Y-80746362D01*
X99634210Y-80660738D01*
X99659800Y-80565235D01*
X99659800Y-80494865D01*
X100150700Y-80494865D01*
X100150700Y-80593735D01*
X100176290Y-80689238D01*
X100225725Y-80774862D01*
X100295638Y-80844775D01*
X100381262Y-80894210D01*
X100476765Y-80919800D01*
X100476767Y-80919800D01*
X100575632Y-80919800D01*
X100575635Y-80919800D01*
X100671138Y-80894210D01*
X100756762Y-80844775D01*
X100826675Y-80774862D01*
X100869570Y-80700565D01*
X109219600Y-80700565D01*
X109219600Y-80799435D01*
X109245190Y-80894938D01*
X109294625Y-80980562D01*
X109364538Y-81050475D01*
X109450162Y-81099910D01*
X109545665Y-81125500D01*
X109545667Y-81125500D01*
X109644532Y-81125500D01*
X109644535Y-81125500D01*
X109735727Y-81101065D01*
X112516000Y-81101065D01*
X112516000Y-81199935D01*
X112541590Y-81295438D01*
X112591025Y-81381062D01*
X112660938Y-81450975D01*
X112746562Y-81500410D01*
X112842065Y-81526000D01*
X112842067Y-81526000D01*
X112940932Y-81526000D01*
X112940935Y-81526000D01*
X113036438Y-81500410D01*
X113122062Y-81450975D01*
X113191975Y-81381062D01*
X113241410Y-81295438D01*
X113267000Y-81199935D01*
X113267000Y-81101065D01*
X113241410Y-81005562D01*
X113191975Y-80919938D01*
X113122062Y-80850025D01*
X113036438Y-80800590D01*
X112940935Y-80775000D01*
X112842065Y-80775000D01*
X112746562Y-80800590D01*
X112746560Y-80800591D01*
X112746559Y-80800591D01*
X112660936Y-80850026D01*
X112591026Y-80919936D01*
X112541591Y-81005559D01*
X112541591Y-81005560D01*
X112541590Y-81005562D01*
X112516000Y-81101065D01*
X109735727Y-81101065D01*
X109740038Y-81099910D01*
X109825662Y-81050475D01*
X109895575Y-80980562D01*
X109945010Y-80894938D01*
X109970600Y-80799435D01*
X109970600Y-80700565D01*
X109945010Y-80605062D01*
X109895575Y-80519438D01*
X109825662Y-80449525D01*
X109740038Y-80400090D01*
X109644535Y-80374500D01*
X109545665Y-80374500D01*
X109450162Y-80400090D01*
X109450160Y-80400091D01*
X109450159Y-80400091D01*
X109364536Y-80449526D01*
X109294626Y-80519436D01*
X109245191Y-80605059D01*
X109245191Y-80605060D01*
X109245190Y-80605062D01*
X109219600Y-80700565D01*
X100869570Y-80700565D01*
X100876110Y-80689238D01*
X100878929Y-80678715D01*
X100883853Y-80660343D01*
X100891165Y-80633053D01*
X100901700Y-80593735D01*
X100901700Y-80494865D01*
X100876110Y-80399362D01*
X100826675Y-80313738D01*
X100756762Y-80243825D01*
X100671138Y-80194390D01*
X100575635Y-80168800D01*
X100476765Y-80168800D01*
X100381262Y-80194390D01*
X100381260Y-80194391D01*
X100381259Y-80194391D01*
X100295636Y-80243826D01*
X100225726Y-80313736D01*
X100176291Y-80399359D01*
X100176291Y-80399360D01*
X100176290Y-80399362D01*
X100150700Y-80494865D01*
X99659800Y-80494865D01*
X99659800Y-80466365D01*
X99634210Y-80370862D01*
X99584775Y-80285238D01*
X99514862Y-80215325D01*
X99429238Y-80165890D01*
X99333735Y-80140300D01*
X99234865Y-80140300D01*
X99139362Y-80165890D01*
X99139360Y-80165891D01*
X99139359Y-80165891D01*
X99053736Y-80215326D01*
X98983826Y-80285236D01*
X98934391Y-80370859D01*
X98934391Y-80370860D01*
X98934390Y-80370862D01*
X98908800Y-80466365D01*
X83796261Y-80466365D01*
X83850350Y-80115395D01*
X83880016Y-80052137D01*
X83897417Y-80035907D01*
X83921223Y-80017640D01*
X84571369Y-79518765D01*
X104499900Y-79518765D01*
X104499900Y-79617635D01*
X104525490Y-79713138D01*
X104574925Y-79798762D01*
X104644838Y-79868675D01*
X104730462Y-79918110D01*
X104825965Y-79943700D01*
X104825967Y-79943700D01*
X104924832Y-79943700D01*
X104924835Y-79943700D01*
X105020338Y-79918110D01*
X105105962Y-79868675D01*
X105151372Y-79823265D01*
X107943500Y-79823265D01*
X107943500Y-79922135D01*
X107969090Y-80017638D01*
X108018525Y-80103262D01*
X108088438Y-80173175D01*
X108174062Y-80222610D01*
X108269565Y-80248200D01*
X108269567Y-80248200D01*
X108368432Y-80248200D01*
X108368435Y-80248200D01*
X108463938Y-80222610D01*
X108549562Y-80173175D01*
X108619475Y-80103262D01*
X108668910Y-80017638D01*
X108694500Y-79922135D01*
X108694500Y-79823265D01*
X108668910Y-79727762D01*
X108619475Y-79642138D01*
X108549562Y-79572225D01*
X108463938Y-79522790D01*
X108368435Y-79497200D01*
X108269565Y-79497200D01*
X108174062Y-79522790D01*
X108174060Y-79522791D01*
X108174059Y-79522791D01*
X108088436Y-79572226D01*
X108018526Y-79642136D01*
X107969091Y-79727759D01*
X107969091Y-79727760D01*
X107969090Y-79727762D01*
X107943500Y-79823265D01*
X105151372Y-79823265D01*
X105175875Y-79798762D01*
X105225310Y-79713138D01*
X105250900Y-79617635D01*
X105250900Y-79518765D01*
X105225310Y-79423262D01*
X105175875Y-79337638D01*
X105105962Y-79267725D01*
X105020338Y-79218290D01*
X104924835Y-79192700D01*
X104825965Y-79192700D01*
X104730462Y-79218290D01*
X104730460Y-79218291D01*
X104730459Y-79218291D01*
X104644836Y-79267726D01*
X104574926Y-79337636D01*
X104525491Y-79423259D01*
X104525491Y-79423260D01*
X104525490Y-79423262D01*
X104499900Y-79518765D01*
X84571369Y-79518765D01*
X84920751Y-79250675D01*
X84925958Y-79246892D01*
X86027356Y-78489921D01*
X86032761Y-78486411D01*
X86170238Y-78402165D01*
X98287000Y-78402165D01*
X98287000Y-78501035D01*
X98312590Y-78596538D01*
X98362025Y-78682162D01*
X98431938Y-78752075D01*
X98517562Y-78801510D01*
X98613065Y-78827100D01*
X98613067Y-78827100D01*
X98711932Y-78827100D01*
X98711935Y-78827100D01*
X98807438Y-78801510D01*
X98893062Y-78752075D01*
X98962975Y-78682162D01*
X99012410Y-78596538D01*
X99038000Y-78501035D01*
X99038000Y-78402165D01*
X99012410Y-78306662D01*
X98962975Y-78221038D01*
X98893062Y-78151125D01*
X98807438Y-78101690D01*
X98711935Y-78076100D01*
X98613065Y-78076100D01*
X98517562Y-78101690D01*
X98517560Y-78101691D01*
X98517559Y-78101691D01*
X98431936Y-78151126D01*
X98362026Y-78221036D01*
X98312591Y-78306659D01*
X98312591Y-78306660D01*
X98312590Y-78306662D01*
X98287000Y-78402165D01*
X86170238Y-78402165D01*
X87172258Y-77788127D01*
X87177819Y-77784916D01*
X87788644Y-77453265D01*
X100371900Y-77453265D01*
X100371900Y-77552135D01*
X100397490Y-77647638D01*
X100446925Y-77733262D01*
X100516838Y-77803175D01*
X100602462Y-77852610D01*
X100697965Y-77878200D01*
X100697967Y-77878200D01*
X100796832Y-77878200D01*
X100796835Y-77878200D01*
X100892338Y-77852610D01*
X100977962Y-77803175D01*
X101017472Y-77763665D01*
X105912800Y-77763665D01*
X105912800Y-77862535D01*
X105938390Y-77958038D01*
X105987825Y-78043662D01*
X106057738Y-78113575D01*
X106143362Y-78163010D01*
X106238865Y-78188600D01*
X106238867Y-78188600D01*
X106337732Y-78188600D01*
X106337735Y-78188600D01*
X106433238Y-78163010D01*
X106518862Y-78113575D01*
X106588775Y-78043662D01*
X106638210Y-77958038D01*
X106663800Y-77862535D01*
X106663800Y-77763665D01*
X106638210Y-77668162D01*
X106588775Y-77582538D01*
X106518862Y-77512625D01*
X106433238Y-77463190D01*
X106337735Y-77437600D01*
X106238865Y-77437600D01*
X106143362Y-77463190D01*
X106143360Y-77463191D01*
X106143359Y-77463191D01*
X106057736Y-77512626D01*
X105987826Y-77582536D01*
X105938391Y-77668159D01*
X105938391Y-77668160D01*
X105938390Y-77668162D01*
X105912800Y-77763665D01*
X101017472Y-77763665D01*
X101047875Y-77733262D01*
X101097310Y-77647638D01*
X101122900Y-77552135D01*
X101122900Y-77453265D01*
X101097310Y-77357762D01*
X101047875Y-77272138D01*
X100977962Y-77202225D01*
X100892338Y-77152790D01*
X100796835Y-77127200D01*
X100697965Y-77127200D01*
X100602462Y-77152790D01*
X100602460Y-77152791D01*
X100602459Y-77152791D01*
X100516836Y-77202226D01*
X100446926Y-77272136D01*
X100397491Y-77357759D01*
X100397491Y-77357760D01*
X100397490Y-77357762D01*
X100371900Y-77453265D01*
X87788644Y-77453265D01*
X88352308Y-77147220D01*
X88358041Y-77144299D01*
X89564295Y-76568946D01*
X89570189Y-76566322D01*
X90804872Y-76054900D01*
X90810898Y-76052586D01*
X92070674Y-75606476D01*
X92076807Y-75604483D01*
X93358214Y-75224913D01*
X93364421Y-75223250D01*
X94663915Y-74911270D01*
X94670240Y-74909925D01*
X95984306Y-74666377D01*
X95990650Y-74665373D01*
X97315652Y-74490933D01*
X97322036Y-74490261D01*
X98654345Y-74385406D01*
X98660817Y-74385067D01*
X99996792Y-74350084D01*
X100003208Y-74350084D01*
X101339179Y-74385067D01*
G37*
%TD.AperFunction*%
%TD*%
M02*
